%TF.GenerationSoftware,KiCad,Pcbnew,8.0.3*%
%TF.CreationDate,2024-06-30T20:24:42+02:00*%
%TF.ProjectId,top_led_btn_2MU_TOP,746f705f-6c65-4645-9f62-746e5f324d55,rev?*%
%TF.SameCoordinates,Original*%
%TF.FileFunction,Legend,Top*%
%TF.FilePolarity,Positive*%
%FSLAX46Y46*%
G04 Gerber Fmt 4.6, Leading zero omitted, Abs format (unit mm)*
G04 Created by KiCad (PCBNEW 8.0.3) date 2024-06-30 20:24:42*
%MOMM*%
%LPD*%
G01*
G04 APERTURE LIST*
%ADD10C,0.300000*%
%ADD11C,0.150000*%
%ADD12C,0.120000*%
G04 APERTURE END LIST*
D10*
X104448828Y-91901489D02*
X102948828Y-91901489D01*
X102948828Y-91901489D02*
X102948828Y-91330060D01*
X102948828Y-91330060D02*
X103020257Y-91187203D01*
X103020257Y-91187203D02*
X103091685Y-91115774D01*
X103091685Y-91115774D02*
X103234542Y-91044346D01*
X103234542Y-91044346D02*
X103448828Y-91044346D01*
X103448828Y-91044346D02*
X103591685Y-91115774D01*
X103591685Y-91115774D02*
X103663114Y-91187203D01*
X103663114Y-91187203D02*
X103734542Y-91330060D01*
X103734542Y-91330060D02*
X103734542Y-91901489D01*
X104448828Y-89544346D02*
X103734542Y-90044346D01*
X104448828Y-90401489D02*
X102948828Y-90401489D01*
X102948828Y-90401489D02*
X102948828Y-89830060D01*
X102948828Y-89830060D02*
X103020257Y-89687203D01*
X103020257Y-89687203D02*
X103091685Y-89615774D01*
X103091685Y-89615774D02*
X103234542Y-89544346D01*
X103234542Y-89544346D02*
X103448828Y-89544346D01*
X103448828Y-89544346D02*
X103591685Y-89615774D01*
X103591685Y-89615774D02*
X103663114Y-89687203D01*
X103663114Y-89687203D02*
X103734542Y-89830060D01*
X103734542Y-89830060D02*
X103734542Y-90401489D01*
X102948828Y-88615774D02*
X102948828Y-88330060D01*
X102948828Y-88330060D02*
X103020257Y-88187203D01*
X103020257Y-88187203D02*
X103163114Y-88044346D01*
X103163114Y-88044346D02*
X103448828Y-87972917D01*
X103448828Y-87972917D02*
X103948828Y-87972917D01*
X103948828Y-87972917D02*
X104234542Y-88044346D01*
X104234542Y-88044346D02*
X104377400Y-88187203D01*
X104377400Y-88187203D02*
X104448828Y-88330060D01*
X104448828Y-88330060D02*
X104448828Y-88615774D01*
X104448828Y-88615774D02*
X104377400Y-88758632D01*
X104377400Y-88758632D02*
X104234542Y-88901489D01*
X104234542Y-88901489D02*
X103948828Y-88972917D01*
X103948828Y-88972917D02*
X103448828Y-88972917D01*
X103448828Y-88972917D02*
X103163114Y-88901489D01*
X103163114Y-88901489D02*
X103020257Y-88758632D01*
X103020257Y-88758632D02*
X102948828Y-88615774D01*
X103020257Y-86544345D02*
X102948828Y-86687203D01*
X102948828Y-86687203D02*
X102948828Y-86901488D01*
X102948828Y-86901488D02*
X103020257Y-87115774D01*
X103020257Y-87115774D02*
X103163114Y-87258631D01*
X103163114Y-87258631D02*
X103305971Y-87330060D01*
X103305971Y-87330060D02*
X103591685Y-87401488D01*
X103591685Y-87401488D02*
X103805971Y-87401488D01*
X103805971Y-87401488D02*
X104091685Y-87330060D01*
X104091685Y-87330060D02*
X104234542Y-87258631D01*
X104234542Y-87258631D02*
X104377400Y-87115774D01*
X104377400Y-87115774D02*
X104448828Y-86901488D01*
X104448828Y-86901488D02*
X104448828Y-86758631D01*
X104448828Y-86758631D02*
X104377400Y-86544345D01*
X104377400Y-86544345D02*
X104305971Y-86472917D01*
X104305971Y-86472917D02*
X103805971Y-86472917D01*
X103805971Y-86472917D02*
X103805971Y-86758631D01*
X115394828Y-110665774D02*
X115394828Y-110380060D01*
X115394828Y-110380060D02*
X115466257Y-110237203D01*
X115466257Y-110237203D02*
X115609114Y-110094346D01*
X115609114Y-110094346D02*
X115894828Y-110022917D01*
X115894828Y-110022917D02*
X116394828Y-110022917D01*
X116394828Y-110022917D02*
X116680542Y-110094346D01*
X116680542Y-110094346D02*
X116823400Y-110237203D01*
X116823400Y-110237203D02*
X116894828Y-110380060D01*
X116894828Y-110380060D02*
X116894828Y-110665774D01*
X116894828Y-110665774D02*
X116823400Y-110808632D01*
X116823400Y-110808632D02*
X116680542Y-110951489D01*
X116680542Y-110951489D02*
X116394828Y-111022917D01*
X116394828Y-111022917D02*
X115894828Y-111022917D01*
X115894828Y-111022917D02*
X115609114Y-110951489D01*
X115609114Y-110951489D02*
X115466257Y-110808632D01*
X115466257Y-110808632D02*
X115394828Y-110665774D01*
X115394828Y-109380060D02*
X116609114Y-109380060D01*
X116609114Y-109380060D02*
X116751971Y-109308631D01*
X116751971Y-109308631D02*
X116823400Y-109237203D01*
X116823400Y-109237203D02*
X116894828Y-109094345D01*
X116894828Y-109094345D02*
X116894828Y-108808631D01*
X116894828Y-108808631D02*
X116823400Y-108665774D01*
X116823400Y-108665774D02*
X116751971Y-108594345D01*
X116751971Y-108594345D02*
X116609114Y-108522917D01*
X116609114Y-108522917D02*
X115394828Y-108522917D01*
X115394828Y-108022916D02*
X115394828Y-107165774D01*
X116894828Y-107594345D02*
X115394828Y-107594345D01*
X116109114Y-105022917D02*
X116180542Y-104808631D01*
X116180542Y-104808631D02*
X116251971Y-104737202D01*
X116251971Y-104737202D02*
X116394828Y-104665774D01*
X116394828Y-104665774D02*
X116609114Y-104665774D01*
X116609114Y-104665774D02*
X116751971Y-104737202D01*
X116751971Y-104737202D02*
X116823400Y-104808631D01*
X116823400Y-104808631D02*
X116894828Y-104951488D01*
X116894828Y-104951488D02*
X116894828Y-105522917D01*
X116894828Y-105522917D02*
X115394828Y-105522917D01*
X115394828Y-105522917D02*
X115394828Y-105022917D01*
X115394828Y-105022917D02*
X115466257Y-104880060D01*
X115466257Y-104880060D02*
X115537685Y-104808631D01*
X115537685Y-104808631D02*
X115680542Y-104737202D01*
X115680542Y-104737202D02*
X115823400Y-104737202D01*
X115823400Y-104737202D02*
X115966257Y-104808631D01*
X115966257Y-104808631D02*
X116037685Y-104880060D01*
X116037685Y-104880060D02*
X116109114Y-105022917D01*
X116109114Y-105022917D02*
X116109114Y-105522917D01*
X103202828Y-110665774D02*
X103202828Y-110380060D01*
X103202828Y-110380060D02*
X103274257Y-110237203D01*
X103274257Y-110237203D02*
X103417114Y-110094346D01*
X103417114Y-110094346D02*
X103702828Y-110022917D01*
X103702828Y-110022917D02*
X104202828Y-110022917D01*
X104202828Y-110022917D02*
X104488542Y-110094346D01*
X104488542Y-110094346D02*
X104631400Y-110237203D01*
X104631400Y-110237203D02*
X104702828Y-110380060D01*
X104702828Y-110380060D02*
X104702828Y-110665774D01*
X104702828Y-110665774D02*
X104631400Y-110808632D01*
X104631400Y-110808632D02*
X104488542Y-110951489D01*
X104488542Y-110951489D02*
X104202828Y-111022917D01*
X104202828Y-111022917D02*
X103702828Y-111022917D01*
X103702828Y-111022917D02*
X103417114Y-110951489D01*
X103417114Y-110951489D02*
X103274257Y-110808632D01*
X103274257Y-110808632D02*
X103202828Y-110665774D01*
X103202828Y-109380060D02*
X104417114Y-109380060D01*
X104417114Y-109380060D02*
X104559971Y-109308631D01*
X104559971Y-109308631D02*
X104631400Y-109237203D01*
X104631400Y-109237203D02*
X104702828Y-109094345D01*
X104702828Y-109094345D02*
X104702828Y-108808631D01*
X104702828Y-108808631D02*
X104631400Y-108665774D01*
X104631400Y-108665774D02*
X104559971Y-108594345D01*
X104559971Y-108594345D02*
X104417114Y-108522917D01*
X104417114Y-108522917D02*
X103202828Y-108522917D01*
X103202828Y-108022916D02*
X103202828Y-107165774D01*
X104702828Y-107594345D02*
X103202828Y-107594345D01*
X104274257Y-105594345D02*
X104274257Y-104880060D01*
X104702828Y-105737202D02*
X103202828Y-105237202D01*
X103202828Y-105237202D02*
X104702828Y-104737202D01*
D11*
X117117905Y-76654819D02*
X117117905Y-75654819D01*
X117117905Y-75654819D02*
X117356000Y-75654819D01*
X117356000Y-75654819D02*
X117498857Y-75702438D01*
X117498857Y-75702438D02*
X117594095Y-75797676D01*
X117594095Y-75797676D02*
X117641714Y-75892914D01*
X117641714Y-75892914D02*
X117689333Y-76083390D01*
X117689333Y-76083390D02*
X117689333Y-76226247D01*
X117689333Y-76226247D02*
X117641714Y-76416723D01*
X117641714Y-76416723D02*
X117594095Y-76511961D01*
X117594095Y-76511961D02*
X117498857Y-76607200D01*
X117498857Y-76607200D02*
X117356000Y-76654819D01*
X117356000Y-76654819D02*
X117117905Y-76654819D01*
X118546476Y-75654819D02*
X118356000Y-75654819D01*
X118356000Y-75654819D02*
X118260762Y-75702438D01*
X118260762Y-75702438D02*
X118213143Y-75750057D01*
X118213143Y-75750057D02*
X118117905Y-75892914D01*
X118117905Y-75892914D02*
X118070286Y-76083390D01*
X118070286Y-76083390D02*
X118070286Y-76464342D01*
X118070286Y-76464342D02*
X118117905Y-76559580D01*
X118117905Y-76559580D02*
X118165524Y-76607200D01*
X118165524Y-76607200D02*
X118260762Y-76654819D01*
X118260762Y-76654819D02*
X118451238Y-76654819D01*
X118451238Y-76654819D02*
X118546476Y-76607200D01*
X118546476Y-76607200D02*
X118594095Y-76559580D01*
X118594095Y-76559580D02*
X118641714Y-76464342D01*
X118641714Y-76464342D02*
X118641714Y-76226247D01*
X118641714Y-76226247D02*
X118594095Y-76131009D01*
X118594095Y-76131009D02*
X118546476Y-76083390D01*
X118546476Y-76083390D02*
X118451238Y-76035771D01*
X118451238Y-76035771D02*
X118260762Y-76035771D01*
X118260762Y-76035771D02*
X118165524Y-76083390D01*
X118165524Y-76083390D02*
X118117905Y-76131009D01*
X118117905Y-76131009D02*
X118070286Y-76226247D01*
X117548819Y-87606094D02*
X116548819Y-87606094D01*
X116548819Y-87606094D02*
X116548819Y-87367999D01*
X116548819Y-87367999D02*
X116596438Y-87225142D01*
X116596438Y-87225142D02*
X116691676Y-87129904D01*
X116691676Y-87129904D02*
X116786914Y-87082285D01*
X116786914Y-87082285D02*
X116977390Y-87034666D01*
X116977390Y-87034666D02*
X117120247Y-87034666D01*
X117120247Y-87034666D02*
X117310723Y-87082285D01*
X117310723Y-87082285D02*
X117405961Y-87129904D01*
X117405961Y-87129904D02*
X117501200Y-87225142D01*
X117501200Y-87225142D02*
X117548819Y-87367999D01*
X117548819Y-87367999D02*
X117548819Y-87606094D01*
X117548819Y-86082285D02*
X117548819Y-86653713D01*
X117548819Y-86367999D02*
X116548819Y-86367999D01*
X116548819Y-86367999D02*
X116691676Y-86463237D01*
X116691676Y-86463237D02*
X116786914Y-86558475D01*
X116786914Y-86558475D02*
X116834533Y-86653713D01*
X107632667Y-114199200D02*
X107775524Y-114246819D01*
X107775524Y-114246819D02*
X108013619Y-114246819D01*
X108013619Y-114246819D02*
X108108857Y-114199200D01*
X108108857Y-114199200D02*
X108156476Y-114151580D01*
X108156476Y-114151580D02*
X108204095Y-114056342D01*
X108204095Y-114056342D02*
X108204095Y-113961104D01*
X108204095Y-113961104D02*
X108156476Y-113865866D01*
X108156476Y-113865866D02*
X108108857Y-113818247D01*
X108108857Y-113818247D02*
X108013619Y-113770628D01*
X108013619Y-113770628D02*
X107823143Y-113723009D01*
X107823143Y-113723009D02*
X107727905Y-113675390D01*
X107727905Y-113675390D02*
X107680286Y-113627771D01*
X107680286Y-113627771D02*
X107632667Y-113532533D01*
X107632667Y-113532533D02*
X107632667Y-113437295D01*
X107632667Y-113437295D02*
X107680286Y-113342057D01*
X107680286Y-113342057D02*
X107727905Y-113294438D01*
X107727905Y-113294438D02*
X107823143Y-113246819D01*
X107823143Y-113246819D02*
X108061238Y-113246819D01*
X108061238Y-113246819D02*
X108204095Y-113294438D01*
X108537429Y-113246819D02*
X108775524Y-114246819D01*
X108775524Y-114246819D02*
X108966000Y-113532533D01*
X108966000Y-113532533D02*
X109156476Y-114246819D01*
X109156476Y-114246819D02*
X109394572Y-113246819D01*
X109680286Y-113246819D02*
X110299333Y-113246819D01*
X110299333Y-113246819D02*
X109966000Y-113627771D01*
X109966000Y-113627771D02*
X110108857Y-113627771D01*
X110108857Y-113627771D02*
X110204095Y-113675390D01*
X110204095Y-113675390D02*
X110251714Y-113723009D01*
X110251714Y-113723009D02*
X110299333Y-113818247D01*
X110299333Y-113818247D02*
X110299333Y-114056342D01*
X110299333Y-114056342D02*
X110251714Y-114151580D01*
X110251714Y-114151580D02*
X110204095Y-114199200D01*
X110204095Y-114199200D02*
X110108857Y-114246819D01*
X110108857Y-114246819D02*
X109823143Y-114246819D01*
X109823143Y-114246819D02*
X109727905Y-114199200D01*
X109727905Y-114199200D02*
X109680286Y-114151580D01*
X123467905Y-76654819D02*
X123467905Y-75654819D01*
X123467905Y-75654819D02*
X123706000Y-75654819D01*
X123706000Y-75654819D02*
X123848857Y-75702438D01*
X123848857Y-75702438D02*
X123944095Y-75797676D01*
X123944095Y-75797676D02*
X123991714Y-75892914D01*
X123991714Y-75892914D02*
X124039333Y-76083390D01*
X124039333Y-76083390D02*
X124039333Y-76226247D01*
X124039333Y-76226247D02*
X123991714Y-76416723D01*
X123991714Y-76416723D02*
X123944095Y-76511961D01*
X123944095Y-76511961D02*
X123848857Y-76607200D01*
X123848857Y-76607200D02*
X123706000Y-76654819D01*
X123706000Y-76654819D02*
X123467905Y-76654819D01*
X124372667Y-75654819D02*
X125039333Y-75654819D01*
X125039333Y-75654819D02*
X124610762Y-76654819D01*
X110577333Y-102054819D02*
X110244000Y-101578628D01*
X110005905Y-102054819D02*
X110005905Y-101054819D01*
X110005905Y-101054819D02*
X110386857Y-101054819D01*
X110386857Y-101054819D02*
X110482095Y-101102438D01*
X110482095Y-101102438D02*
X110529714Y-101150057D01*
X110529714Y-101150057D02*
X110577333Y-101245295D01*
X110577333Y-101245295D02*
X110577333Y-101388152D01*
X110577333Y-101388152D02*
X110529714Y-101483390D01*
X110529714Y-101483390D02*
X110482095Y-101531009D01*
X110482095Y-101531009D02*
X110386857Y-101578628D01*
X110386857Y-101578628D02*
X110005905Y-101578628D01*
X110910667Y-101054819D02*
X111529714Y-101054819D01*
X111529714Y-101054819D02*
X111196381Y-101435771D01*
X111196381Y-101435771D02*
X111339238Y-101435771D01*
X111339238Y-101435771D02*
X111434476Y-101483390D01*
X111434476Y-101483390D02*
X111482095Y-101531009D01*
X111482095Y-101531009D02*
X111529714Y-101626247D01*
X111529714Y-101626247D02*
X111529714Y-101864342D01*
X111529714Y-101864342D02*
X111482095Y-101959580D01*
X111482095Y-101959580D02*
X111434476Y-102007200D01*
X111434476Y-102007200D02*
X111339238Y-102054819D01*
X111339238Y-102054819D02*
X111053524Y-102054819D01*
X111053524Y-102054819D02*
X110958286Y-102007200D01*
X110958286Y-102007200D02*
X110910667Y-101959580D01*
X118959333Y-90370819D02*
X118626000Y-89894628D01*
X118387905Y-90370819D02*
X118387905Y-89370819D01*
X118387905Y-89370819D02*
X118768857Y-89370819D01*
X118768857Y-89370819D02*
X118864095Y-89418438D01*
X118864095Y-89418438D02*
X118911714Y-89466057D01*
X118911714Y-89466057D02*
X118959333Y-89561295D01*
X118959333Y-89561295D02*
X118959333Y-89704152D01*
X118959333Y-89704152D02*
X118911714Y-89799390D01*
X118911714Y-89799390D02*
X118864095Y-89847009D01*
X118864095Y-89847009D02*
X118768857Y-89894628D01*
X118768857Y-89894628D02*
X118387905Y-89894628D01*
X119816476Y-89704152D02*
X119816476Y-90370819D01*
X119578381Y-89323200D02*
X119340286Y-90037485D01*
X119340286Y-90037485D02*
X119959333Y-90037485D01*
X117548819Y-89320666D02*
X117072628Y-89653999D01*
X117548819Y-89892094D02*
X116548819Y-89892094D01*
X116548819Y-89892094D02*
X116548819Y-89511142D01*
X116548819Y-89511142D02*
X116596438Y-89415904D01*
X116596438Y-89415904D02*
X116644057Y-89368285D01*
X116644057Y-89368285D02*
X116739295Y-89320666D01*
X116739295Y-89320666D02*
X116882152Y-89320666D01*
X116882152Y-89320666D02*
X116977390Y-89368285D01*
X116977390Y-89368285D02*
X117025009Y-89415904D01*
X117025009Y-89415904D02*
X117072628Y-89511142D01*
X117072628Y-89511142D02*
X117072628Y-89892094D01*
X117548819Y-88368285D02*
X117548819Y-88939713D01*
X117548819Y-88653999D02*
X116548819Y-88653999D01*
X116548819Y-88653999D02*
X116691676Y-88749237D01*
X116691676Y-88749237D02*
X116786914Y-88844475D01*
X116786914Y-88844475D02*
X116834533Y-88939713D01*
X119213333Y-102054819D02*
X118880000Y-101578628D01*
X118641905Y-102054819D02*
X118641905Y-101054819D01*
X118641905Y-101054819D02*
X119022857Y-101054819D01*
X119022857Y-101054819D02*
X119118095Y-101102438D01*
X119118095Y-101102438D02*
X119165714Y-101150057D01*
X119165714Y-101150057D02*
X119213333Y-101245295D01*
X119213333Y-101245295D02*
X119213333Y-101388152D01*
X119213333Y-101388152D02*
X119165714Y-101483390D01*
X119165714Y-101483390D02*
X119118095Y-101531009D01*
X119118095Y-101531009D02*
X119022857Y-101578628D01*
X119022857Y-101578628D02*
X118641905Y-101578628D01*
X119594286Y-101150057D02*
X119641905Y-101102438D01*
X119641905Y-101102438D02*
X119737143Y-101054819D01*
X119737143Y-101054819D02*
X119975238Y-101054819D01*
X119975238Y-101054819D02*
X120070476Y-101102438D01*
X120070476Y-101102438D02*
X120118095Y-101150057D01*
X120118095Y-101150057D02*
X120165714Y-101245295D01*
X120165714Y-101245295D02*
X120165714Y-101340533D01*
X120165714Y-101340533D02*
X120118095Y-101483390D01*
X120118095Y-101483390D02*
X119546667Y-102054819D01*
X119546667Y-102054819D02*
X120165714Y-102054819D01*
X118959333Y-95958819D02*
X118626000Y-95482628D01*
X118387905Y-95958819D02*
X118387905Y-94958819D01*
X118387905Y-94958819D02*
X118768857Y-94958819D01*
X118768857Y-94958819D02*
X118864095Y-95006438D01*
X118864095Y-95006438D02*
X118911714Y-95054057D01*
X118911714Y-95054057D02*
X118959333Y-95149295D01*
X118959333Y-95149295D02*
X118959333Y-95292152D01*
X118959333Y-95292152D02*
X118911714Y-95387390D01*
X118911714Y-95387390D02*
X118864095Y-95435009D01*
X118864095Y-95435009D02*
X118768857Y-95482628D01*
X118768857Y-95482628D02*
X118387905Y-95482628D01*
X119864095Y-94958819D02*
X119387905Y-94958819D01*
X119387905Y-94958819D02*
X119340286Y-95435009D01*
X119340286Y-95435009D02*
X119387905Y-95387390D01*
X119387905Y-95387390D02*
X119483143Y-95339771D01*
X119483143Y-95339771D02*
X119721238Y-95339771D01*
X119721238Y-95339771D02*
X119816476Y-95387390D01*
X119816476Y-95387390D02*
X119864095Y-95435009D01*
X119864095Y-95435009D02*
X119911714Y-95530247D01*
X119911714Y-95530247D02*
X119911714Y-95768342D01*
X119911714Y-95768342D02*
X119864095Y-95863580D01*
X119864095Y-95863580D02*
X119816476Y-95911200D01*
X119816476Y-95911200D02*
X119721238Y-95958819D01*
X119721238Y-95958819D02*
X119483143Y-95958819D01*
X119483143Y-95958819D02*
X119387905Y-95911200D01*
X119387905Y-95911200D02*
X119340286Y-95863580D01*
X107632667Y-83211200D02*
X107775524Y-83258819D01*
X107775524Y-83258819D02*
X108013619Y-83258819D01*
X108013619Y-83258819D02*
X108108857Y-83211200D01*
X108108857Y-83211200D02*
X108156476Y-83163580D01*
X108156476Y-83163580D02*
X108204095Y-83068342D01*
X108204095Y-83068342D02*
X108204095Y-82973104D01*
X108204095Y-82973104D02*
X108156476Y-82877866D01*
X108156476Y-82877866D02*
X108108857Y-82830247D01*
X108108857Y-82830247D02*
X108013619Y-82782628D01*
X108013619Y-82782628D02*
X107823143Y-82735009D01*
X107823143Y-82735009D02*
X107727905Y-82687390D01*
X107727905Y-82687390D02*
X107680286Y-82639771D01*
X107680286Y-82639771D02*
X107632667Y-82544533D01*
X107632667Y-82544533D02*
X107632667Y-82449295D01*
X107632667Y-82449295D02*
X107680286Y-82354057D01*
X107680286Y-82354057D02*
X107727905Y-82306438D01*
X107727905Y-82306438D02*
X107823143Y-82258819D01*
X107823143Y-82258819D02*
X108061238Y-82258819D01*
X108061238Y-82258819D02*
X108204095Y-82306438D01*
X108537429Y-82258819D02*
X108775524Y-83258819D01*
X108775524Y-83258819D02*
X108966000Y-82544533D01*
X108966000Y-82544533D02*
X109156476Y-83258819D01*
X109156476Y-83258819D02*
X109394572Y-82258819D01*
X110299333Y-83258819D02*
X109727905Y-83258819D01*
X110013619Y-83258819D02*
X110013619Y-82258819D01*
X110013619Y-82258819D02*
X109918381Y-82401676D01*
X109918381Y-82401676D02*
X109823143Y-82496914D01*
X109823143Y-82496914D02*
X109727905Y-82544533D01*
X110767905Y-76654819D02*
X110767905Y-75654819D01*
X110767905Y-75654819D02*
X111006000Y-75654819D01*
X111006000Y-75654819D02*
X111148857Y-75702438D01*
X111148857Y-75702438D02*
X111244095Y-75797676D01*
X111244095Y-75797676D02*
X111291714Y-75892914D01*
X111291714Y-75892914D02*
X111339333Y-76083390D01*
X111339333Y-76083390D02*
X111339333Y-76226247D01*
X111339333Y-76226247D02*
X111291714Y-76416723D01*
X111291714Y-76416723D02*
X111244095Y-76511961D01*
X111244095Y-76511961D02*
X111148857Y-76607200D01*
X111148857Y-76607200D02*
X111006000Y-76654819D01*
X111006000Y-76654819D02*
X110767905Y-76654819D01*
X112244095Y-75654819D02*
X111767905Y-75654819D01*
X111767905Y-75654819D02*
X111720286Y-76131009D01*
X111720286Y-76131009D02*
X111767905Y-76083390D01*
X111767905Y-76083390D02*
X111863143Y-76035771D01*
X111863143Y-76035771D02*
X112101238Y-76035771D01*
X112101238Y-76035771D02*
X112196476Y-76083390D01*
X112196476Y-76083390D02*
X112244095Y-76131009D01*
X112244095Y-76131009D02*
X112291714Y-76226247D01*
X112291714Y-76226247D02*
X112291714Y-76464342D01*
X112291714Y-76464342D02*
X112244095Y-76559580D01*
X112244095Y-76559580D02*
X112196476Y-76607200D01*
X112196476Y-76607200D02*
X112101238Y-76654819D01*
X112101238Y-76654819D02*
X111863143Y-76654819D01*
X111863143Y-76654819D02*
X111767905Y-76607200D01*
X111767905Y-76607200D02*
X111720286Y-76559580D01*
X118959333Y-93164819D02*
X118626000Y-92688628D01*
X118387905Y-93164819D02*
X118387905Y-92164819D01*
X118387905Y-92164819D02*
X118768857Y-92164819D01*
X118768857Y-92164819D02*
X118864095Y-92212438D01*
X118864095Y-92212438D02*
X118911714Y-92260057D01*
X118911714Y-92260057D02*
X118959333Y-92355295D01*
X118959333Y-92355295D02*
X118959333Y-92498152D01*
X118959333Y-92498152D02*
X118911714Y-92593390D01*
X118911714Y-92593390D02*
X118864095Y-92641009D01*
X118864095Y-92641009D02*
X118768857Y-92688628D01*
X118768857Y-92688628D02*
X118387905Y-92688628D01*
X119816476Y-92164819D02*
X119626000Y-92164819D01*
X119626000Y-92164819D02*
X119530762Y-92212438D01*
X119530762Y-92212438D02*
X119483143Y-92260057D01*
X119483143Y-92260057D02*
X119387905Y-92402914D01*
X119387905Y-92402914D02*
X119340286Y-92593390D01*
X119340286Y-92593390D02*
X119340286Y-92974342D01*
X119340286Y-92974342D02*
X119387905Y-93069580D01*
X119387905Y-93069580D02*
X119435524Y-93117200D01*
X119435524Y-93117200D02*
X119530762Y-93164819D01*
X119530762Y-93164819D02*
X119721238Y-93164819D01*
X119721238Y-93164819D02*
X119816476Y-93117200D01*
X119816476Y-93117200D02*
X119864095Y-93069580D01*
X119864095Y-93069580D02*
X119911714Y-92974342D01*
X119911714Y-92974342D02*
X119911714Y-92736247D01*
X119911714Y-92736247D02*
X119864095Y-92641009D01*
X119864095Y-92641009D02*
X119816476Y-92593390D01*
X119816476Y-92593390D02*
X119721238Y-92545771D01*
X119721238Y-92545771D02*
X119530762Y-92545771D01*
X119530762Y-92545771D02*
X119435524Y-92593390D01*
X119435524Y-92593390D02*
X119387905Y-92641009D01*
X119387905Y-92641009D02*
X119340286Y-92736247D01*
X119824667Y-114199200D02*
X119967524Y-114246819D01*
X119967524Y-114246819D02*
X120205619Y-114246819D01*
X120205619Y-114246819D02*
X120300857Y-114199200D01*
X120300857Y-114199200D02*
X120348476Y-114151580D01*
X120348476Y-114151580D02*
X120396095Y-114056342D01*
X120396095Y-114056342D02*
X120396095Y-113961104D01*
X120396095Y-113961104D02*
X120348476Y-113865866D01*
X120348476Y-113865866D02*
X120300857Y-113818247D01*
X120300857Y-113818247D02*
X120205619Y-113770628D01*
X120205619Y-113770628D02*
X120015143Y-113723009D01*
X120015143Y-113723009D02*
X119919905Y-113675390D01*
X119919905Y-113675390D02*
X119872286Y-113627771D01*
X119872286Y-113627771D02*
X119824667Y-113532533D01*
X119824667Y-113532533D02*
X119824667Y-113437295D01*
X119824667Y-113437295D02*
X119872286Y-113342057D01*
X119872286Y-113342057D02*
X119919905Y-113294438D01*
X119919905Y-113294438D02*
X120015143Y-113246819D01*
X120015143Y-113246819D02*
X120253238Y-113246819D01*
X120253238Y-113246819D02*
X120396095Y-113294438D01*
X120729429Y-113246819D02*
X120967524Y-114246819D01*
X120967524Y-114246819D02*
X121158000Y-113532533D01*
X121158000Y-113532533D02*
X121348476Y-114246819D01*
X121348476Y-114246819D02*
X121586572Y-113246819D01*
X121919905Y-113342057D02*
X121967524Y-113294438D01*
X121967524Y-113294438D02*
X122062762Y-113246819D01*
X122062762Y-113246819D02*
X122300857Y-113246819D01*
X122300857Y-113246819D02*
X122396095Y-113294438D01*
X122396095Y-113294438D02*
X122443714Y-113342057D01*
X122443714Y-113342057D02*
X122491333Y-113437295D01*
X122491333Y-113437295D02*
X122491333Y-113532533D01*
X122491333Y-113532533D02*
X122443714Y-113675390D01*
X122443714Y-113675390D02*
X121872286Y-114246819D01*
X121872286Y-114246819D02*
X122491333Y-114246819D01*
X121181905Y-102054819D02*
X121181905Y-101054819D01*
X121181905Y-101054819D02*
X121420000Y-101054819D01*
X121420000Y-101054819D02*
X121562857Y-101102438D01*
X121562857Y-101102438D02*
X121658095Y-101197676D01*
X121658095Y-101197676D02*
X121705714Y-101292914D01*
X121705714Y-101292914D02*
X121753333Y-101483390D01*
X121753333Y-101483390D02*
X121753333Y-101626247D01*
X121753333Y-101626247D02*
X121705714Y-101816723D01*
X121705714Y-101816723D02*
X121658095Y-101911961D01*
X121658095Y-101911961D02*
X121562857Y-102007200D01*
X121562857Y-102007200D02*
X121420000Y-102054819D01*
X121420000Y-102054819D02*
X121181905Y-102054819D01*
X122134286Y-101150057D02*
X122181905Y-101102438D01*
X122181905Y-101102438D02*
X122277143Y-101054819D01*
X122277143Y-101054819D02*
X122515238Y-101054819D01*
X122515238Y-101054819D02*
X122610476Y-101102438D01*
X122610476Y-101102438D02*
X122658095Y-101150057D01*
X122658095Y-101150057D02*
X122705714Y-101245295D01*
X122705714Y-101245295D02*
X122705714Y-101340533D01*
X122705714Y-101340533D02*
X122658095Y-101483390D01*
X122658095Y-101483390D02*
X122086667Y-102054819D01*
X122086667Y-102054819D02*
X122705714Y-102054819D01*
X126209466Y-104569819D02*
X126209466Y-105284104D01*
X126209466Y-105284104D02*
X126161847Y-105426961D01*
X126161847Y-105426961D02*
X126066609Y-105522200D01*
X126066609Y-105522200D02*
X125923752Y-105569819D01*
X125923752Y-105569819D02*
X125828514Y-105569819D01*
X126638038Y-104665057D02*
X126685657Y-104617438D01*
X126685657Y-104617438D02*
X126780895Y-104569819D01*
X126780895Y-104569819D02*
X127018990Y-104569819D01*
X127018990Y-104569819D02*
X127114228Y-104617438D01*
X127114228Y-104617438D02*
X127161847Y-104665057D01*
X127161847Y-104665057D02*
X127209466Y-104760295D01*
X127209466Y-104760295D02*
X127209466Y-104855533D01*
X127209466Y-104855533D02*
X127161847Y-104998390D01*
X127161847Y-104998390D02*
X126590419Y-105569819D01*
X126590419Y-105569819D02*
X127209466Y-105569819D01*
X104417905Y-76654819D02*
X104417905Y-75654819D01*
X104417905Y-75654819D02*
X104656000Y-75654819D01*
X104656000Y-75654819D02*
X104798857Y-75702438D01*
X104798857Y-75702438D02*
X104894095Y-75797676D01*
X104894095Y-75797676D02*
X104941714Y-75892914D01*
X104941714Y-75892914D02*
X104989333Y-76083390D01*
X104989333Y-76083390D02*
X104989333Y-76226247D01*
X104989333Y-76226247D02*
X104941714Y-76416723D01*
X104941714Y-76416723D02*
X104894095Y-76511961D01*
X104894095Y-76511961D02*
X104798857Y-76607200D01*
X104798857Y-76607200D02*
X104656000Y-76654819D01*
X104656000Y-76654819D02*
X104417905Y-76654819D01*
X105846476Y-75988152D02*
X105846476Y-76654819D01*
X105608381Y-75607200D02*
X105370286Y-76321485D01*
X105370286Y-76321485D02*
X105989333Y-76321485D01*
X107465905Y-102054819D02*
X107465905Y-101054819D01*
X107465905Y-101054819D02*
X107704000Y-101054819D01*
X107704000Y-101054819D02*
X107846857Y-101102438D01*
X107846857Y-101102438D02*
X107942095Y-101197676D01*
X107942095Y-101197676D02*
X107989714Y-101292914D01*
X107989714Y-101292914D02*
X108037333Y-101483390D01*
X108037333Y-101483390D02*
X108037333Y-101626247D01*
X108037333Y-101626247D02*
X107989714Y-101816723D01*
X107989714Y-101816723D02*
X107942095Y-101911961D01*
X107942095Y-101911961D02*
X107846857Y-102007200D01*
X107846857Y-102007200D02*
X107704000Y-102054819D01*
X107704000Y-102054819D02*
X107465905Y-102054819D01*
X108370667Y-101054819D02*
X108989714Y-101054819D01*
X108989714Y-101054819D02*
X108656381Y-101435771D01*
X108656381Y-101435771D02*
X108799238Y-101435771D01*
X108799238Y-101435771D02*
X108894476Y-101483390D01*
X108894476Y-101483390D02*
X108942095Y-101531009D01*
X108942095Y-101531009D02*
X108989714Y-101626247D01*
X108989714Y-101626247D02*
X108989714Y-101864342D01*
X108989714Y-101864342D02*
X108942095Y-101959580D01*
X108942095Y-101959580D02*
X108894476Y-102007200D01*
X108894476Y-102007200D02*
X108799238Y-102054819D01*
X108799238Y-102054819D02*
X108513524Y-102054819D01*
X108513524Y-102054819D02*
X108418286Y-102007200D01*
X108418286Y-102007200D02*
X108370667Y-101959580D01*
D12*
%TO.C,D6*%
X116896000Y-77740000D02*
X116896000Y-80425000D01*
X116896000Y-80425000D02*
X118816000Y-80425000D01*
X118816000Y-80425000D02*
X118816000Y-77740000D01*
%TO.C,D1*%
X112869000Y-85908000D02*
X112869000Y-87828000D01*
X112869000Y-87828000D02*
X115554000Y-87828000D01*
X115554000Y-85908000D02*
X112869000Y-85908000D01*
%TO.C,SW3*%
X105716000Y-110950000D02*
X105716000Y-104950000D01*
X110266000Y-104850000D02*
X107666000Y-104850000D01*
X110266000Y-111050000D02*
X107666000Y-111050000D01*
X111266000Y-102850000D02*
X112266000Y-102850000D01*
X112216000Y-110850000D02*
X112216000Y-105050000D01*
X112266000Y-102850000D02*
X112266000Y-103850000D01*
%TO.C,D7*%
X123246000Y-77055000D02*
X123246000Y-79740000D01*
X125166000Y-77055000D02*
X123246000Y-77055000D01*
X125166000Y-79740000D02*
X125166000Y-77055000D01*
%TO.C,R3*%
X110009000Y-99287064D02*
X110009000Y-98832936D01*
X111479000Y-99287064D02*
X111479000Y-98832936D01*
%TO.C,R4*%
X121692936Y-89181000D02*
X122147064Y-89181000D01*
X121692936Y-90651000D02*
X122147064Y-90651000D01*
%TO.C,R1*%
X114781064Y-88673000D02*
X114326936Y-88673000D01*
X114781064Y-90143000D02*
X114326936Y-90143000D01*
%TO.C,R2*%
X118645000Y-99287064D02*
X118645000Y-98832936D01*
X120115000Y-99287064D02*
X120115000Y-98832936D01*
%TO.C,R5*%
X122147064Y-94769000D02*
X121692936Y-94769000D01*
X122147064Y-96239000D02*
X121692936Y-96239000D01*
%TO.C,SW1*%
X105666000Y-94000000D02*
X105666000Y-93000000D01*
X105716000Y-86000000D02*
X105716000Y-91800000D01*
X106666000Y-94000000D02*
X105666000Y-94000000D01*
X107666000Y-85800000D02*
X110266000Y-85800000D01*
X107666000Y-92000000D02*
X110266000Y-92000000D01*
X112216000Y-85900000D02*
X112216000Y-91900000D01*
%TO.C,D5*%
X110546000Y-77055000D02*
X110546000Y-79740000D01*
X112466000Y-77055000D02*
X110546000Y-77055000D01*
X112466000Y-79740000D02*
X112466000Y-77055000D01*
%TO.C,R6*%
X121692936Y-91975000D02*
X122147064Y-91975000D01*
X121692936Y-93445000D02*
X122147064Y-93445000D01*
%TO.C,SW2*%
X117908000Y-110950000D02*
X117908000Y-104950000D01*
X122458000Y-104850000D02*
X119858000Y-104850000D01*
X122458000Y-111050000D02*
X119858000Y-111050000D01*
X123458000Y-102850000D02*
X124458000Y-102850000D01*
X124408000Y-110850000D02*
X124408000Y-105050000D01*
X124458000Y-102850000D02*
X124458000Y-103850000D01*
%TO.C,D2*%
X120960000Y-98060000D02*
X120960000Y-100745000D01*
X120960000Y-100745000D02*
X122880000Y-100745000D01*
X122880000Y-100745000D02*
X122880000Y-98060000D01*
%TO.C,J2*%
X125212800Y-101290000D02*
X125212800Y-83450000D01*
X127872800Y-83450000D02*
X125212800Y-83450000D01*
X127872800Y-101290000D02*
X125212800Y-101290000D01*
X127872800Y-101290000D02*
X127872800Y-83450000D01*
X127872800Y-102560000D02*
X127872800Y-103890000D01*
X127872800Y-103890000D02*
X126542800Y-103890000D01*
%TO.C,D4*%
X104196000Y-77740000D02*
X104196000Y-80425000D01*
X104196000Y-80425000D02*
X106116000Y-80425000D01*
X106116000Y-80425000D02*
X106116000Y-77740000D01*
%TO.C,D3*%
X107244000Y-98060000D02*
X107244000Y-100745000D01*
X107244000Y-100745000D02*
X109164000Y-100745000D01*
X109164000Y-100745000D02*
X109164000Y-98060000D01*
%TD*%
M02*
