%TF.GenerationSoftware,KiCad,Pcbnew,8.0.1*%
%TF.CreationDate,2024-05-01T13:03:36+02:00*%
%TF.ProjectId,top_led_btn_2MU_TOP,746f705f-6c65-4645-9f62-746e5f324d55,rev?*%
%TF.SameCoordinates,Original*%
%TF.FileFunction,Copper,L2,Bot*%
%TF.FilePolarity,Positive*%
%FSLAX46Y46*%
G04 Gerber Fmt 4.6, Leading zero omitted, Abs format (unit mm)*
G04 Created by KiCad (PCBNEW 8.0.1) date 2024-05-01 13:03:36*
%MOMM*%
%LPD*%
G01*
G04 APERTURE LIST*
%TA.AperFunction,ComponentPad*%
%ADD10R,1.700000X1.700000*%
%TD*%
%TA.AperFunction,ComponentPad*%
%ADD11O,1.700000X1.700000*%
%TD*%
%TA.AperFunction,ViaPad*%
%ADD12C,0.800000*%
%TD*%
%TA.AperFunction,Conductor*%
%ADD13C,0.400000*%
%TD*%
G04 APERTURE END LIST*
D10*
%TO.P,J2,1,Pin_1*%
%TO.N,Net-(D3-K)*%
X126542800Y-102560000D03*
D11*
%TO.P,J2,2,Pin_2*%
%TO.N,Net-(D2-K)*%
X126542800Y-100020000D03*
%TO.P,J2,3,Pin_3*%
%TO.N,Net-(J2-Pin_3)*%
X126542800Y-97480000D03*
%TO.P,J2,4,Pin_4*%
%TO.N,Net-(J2-Pin_4)*%
X126542800Y-94940000D03*
%TO.P,J2,5,Pin_5*%
%TO.N,GND*%
X126542800Y-92400000D03*
%TO.P,J2,6,Pin_6*%
%TO.N,Net-(J2-Pin_6)*%
X126542800Y-89860000D03*
%TO.P,J2,7,Pin_7*%
%TO.N,+3V3*%
X126542800Y-87320000D03*
%TO.P,J2,8,Pin_8*%
%TO.N,Net-(D1-K)*%
X126542800Y-84780000D03*
%TD*%
D12*
%TO.N,Net-(D1-K)*%
X114195000Y-85000000D03*
%TO.N,GND*%
X128016000Y-110490000D03*
X115316000Y-110998000D03*
X102362000Y-107696000D03*
X121412000Y-82296000D03*
X115824000Y-81280000D03*
X128778000Y-78232000D03*
X102870000Y-82804000D03*
X117094000Y-96012000D03*
X102616000Y-95758000D03*
X115316000Y-103378000D03*
%TO.N,+3V3*%
X114657500Y-91440000D03*
%TD*%
D13*
%TO.N,+3V3*%
X114657500Y-91082500D02*
X118420000Y-87320000D01*
X114657500Y-91440000D02*
X114657500Y-91082500D01*
X118420000Y-87320000D02*
X126542800Y-87320000D01*
%TO.N,Net-(D1-K)*%
X114195000Y-85000000D02*
X114415000Y-84780000D01*
X114415000Y-84780000D02*
X126542800Y-84780000D01*
%TD*%
%TA.AperFunction,Conductor*%
%TO.N,GND*%
G36*
X130502539Y-74180185D02*
G01*
X130548294Y-74232989D01*
X130559500Y-74284500D01*
X130559500Y-115035500D01*
X130539815Y-115102539D01*
X130487011Y-115148294D01*
X130435500Y-115159500D01*
X99684500Y-115159500D01*
X99617461Y-115139815D01*
X99571706Y-115087011D01*
X99560500Y-115035500D01*
X99560500Y-85000000D01*
X113289540Y-85000000D01*
X113309326Y-85188256D01*
X113309327Y-85188259D01*
X113367818Y-85368277D01*
X113367821Y-85368284D01*
X113462467Y-85532216D01*
X113569777Y-85651395D01*
X113589129Y-85672888D01*
X113742265Y-85784148D01*
X113742270Y-85784151D01*
X113915192Y-85861142D01*
X113915197Y-85861144D01*
X114100354Y-85900500D01*
X114100355Y-85900500D01*
X114289644Y-85900500D01*
X114289646Y-85900500D01*
X114474803Y-85861144D01*
X114647730Y-85784151D01*
X114800871Y-85672888D01*
X114927533Y-85532216D01*
X114927536Y-85532209D01*
X114927971Y-85531613D01*
X114928314Y-85531348D01*
X114931881Y-85527387D01*
X114932605Y-85528039D01*
X114983302Y-85488948D01*
X115028288Y-85480500D01*
X125320089Y-85480500D01*
X125387128Y-85500185D01*
X125421664Y-85533377D01*
X125504305Y-85651402D01*
X125671397Y-85818493D01*
X125671403Y-85818498D01*
X125856958Y-85948425D01*
X125900583Y-86003002D01*
X125907777Y-86072500D01*
X125876254Y-86134855D01*
X125856958Y-86151575D01*
X125671397Y-86281505D01*
X125504306Y-86448596D01*
X125421664Y-86566623D01*
X125367087Y-86610248D01*
X125320089Y-86619500D01*
X118351005Y-86619500D01*
X118215677Y-86646418D01*
X118215667Y-86646421D01*
X118088192Y-86699222D01*
X117973454Y-86775887D01*
X117973453Y-86775888D01*
X114113385Y-90635957D01*
X114113383Y-90635959D01*
X114100097Y-90655846D01*
X114100095Y-90655848D01*
X114036726Y-90750686D01*
X114036724Y-90750690D01*
X114019580Y-90792076D01*
X113997172Y-90827590D01*
X113924968Y-90907782D01*
X113924964Y-90907787D01*
X113830321Y-91071715D01*
X113830318Y-91071722D01*
X113778280Y-91231880D01*
X113771826Y-91251744D01*
X113752040Y-91440000D01*
X113771826Y-91628256D01*
X113771827Y-91628259D01*
X113830318Y-91808277D01*
X113830321Y-91808284D01*
X113924967Y-91972216D01*
X114051629Y-92112888D01*
X114204765Y-92224148D01*
X114204770Y-92224151D01*
X114377692Y-92301142D01*
X114377697Y-92301144D01*
X114562854Y-92340500D01*
X114562855Y-92340500D01*
X114752144Y-92340500D01*
X114752146Y-92340500D01*
X114937303Y-92301144D01*
X115110230Y-92224151D01*
X115263371Y-92112888D01*
X115390033Y-91972216D01*
X115484679Y-91808284D01*
X115543174Y-91628256D01*
X115562960Y-91440000D01*
X115543243Y-91252409D01*
X115555812Y-91183685D01*
X115578880Y-91151775D01*
X118673838Y-88056819D01*
X118735161Y-88023334D01*
X118761519Y-88020500D01*
X125320089Y-88020500D01*
X125387128Y-88040185D01*
X125421664Y-88073377D01*
X125504305Y-88191402D01*
X125671397Y-88358493D01*
X125671403Y-88358498D01*
X125856958Y-88488425D01*
X125900583Y-88543002D01*
X125907777Y-88612500D01*
X125876254Y-88674855D01*
X125856958Y-88691575D01*
X125671397Y-88821505D01*
X125504305Y-88988597D01*
X125368765Y-89182169D01*
X125368764Y-89182171D01*
X125268898Y-89396335D01*
X125268894Y-89396344D01*
X125207738Y-89624586D01*
X125207736Y-89624596D01*
X125187141Y-89859999D01*
X125187141Y-89860000D01*
X125207736Y-90095403D01*
X125207738Y-90095413D01*
X125268894Y-90323655D01*
X125268896Y-90323659D01*
X125268897Y-90323663D01*
X125368765Y-90537830D01*
X125368767Y-90537834D01*
X125504301Y-90731395D01*
X125504306Y-90731402D01*
X125671397Y-90898493D01*
X125671403Y-90898498D01*
X125857394Y-91028730D01*
X125901019Y-91083307D01*
X125908213Y-91152805D01*
X125876690Y-91215160D01*
X125857395Y-91231880D01*
X125671722Y-91361890D01*
X125671720Y-91361891D01*
X125504691Y-91528920D01*
X125504686Y-91528926D01*
X125369200Y-91722420D01*
X125369199Y-91722422D01*
X125269370Y-91936507D01*
X125269367Y-91936513D01*
X125212164Y-92149999D01*
X125212164Y-92150000D01*
X126109788Y-92150000D01*
X126076875Y-92207007D01*
X126042800Y-92334174D01*
X126042800Y-92465826D01*
X126076875Y-92592993D01*
X126109788Y-92650000D01*
X125212164Y-92650000D01*
X125269367Y-92863486D01*
X125269370Y-92863492D01*
X125369199Y-93077578D01*
X125504694Y-93271082D01*
X125671717Y-93438105D01*
X125857395Y-93568119D01*
X125901019Y-93622696D01*
X125908212Y-93692195D01*
X125876690Y-93754549D01*
X125857395Y-93771269D01*
X125671394Y-93901508D01*
X125504305Y-94068597D01*
X125368765Y-94262169D01*
X125368764Y-94262171D01*
X125268898Y-94476335D01*
X125268894Y-94476344D01*
X125207738Y-94704586D01*
X125207736Y-94704596D01*
X125187141Y-94939999D01*
X125187141Y-94940000D01*
X125207736Y-95175403D01*
X125207738Y-95175413D01*
X125268894Y-95403655D01*
X125268896Y-95403659D01*
X125268897Y-95403663D01*
X125368765Y-95617830D01*
X125368767Y-95617834D01*
X125504301Y-95811395D01*
X125504306Y-95811402D01*
X125671397Y-95978493D01*
X125671403Y-95978498D01*
X125856958Y-96108425D01*
X125900583Y-96163002D01*
X125907777Y-96232500D01*
X125876254Y-96294855D01*
X125856958Y-96311575D01*
X125671397Y-96441505D01*
X125504305Y-96608597D01*
X125368765Y-96802169D01*
X125368764Y-96802171D01*
X125268898Y-97016335D01*
X125268894Y-97016344D01*
X125207738Y-97244586D01*
X125207736Y-97244596D01*
X125187141Y-97479999D01*
X125187141Y-97480000D01*
X125207736Y-97715403D01*
X125207738Y-97715413D01*
X125268894Y-97943655D01*
X125268896Y-97943659D01*
X125268897Y-97943663D01*
X125368765Y-98157830D01*
X125368767Y-98157834D01*
X125504301Y-98351395D01*
X125504306Y-98351402D01*
X125671397Y-98518493D01*
X125671403Y-98518498D01*
X125856958Y-98648425D01*
X125900583Y-98703002D01*
X125907777Y-98772500D01*
X125876254Y-98834855D01*
X125856958Y-98851575D01*
X125671397Y-98981505D01*
X125504305Y-99148597D01*
X125368765Y-99342169D01*
X125368764Y-99342171D01*
X125268898Y-99556335D01*
X125268894Y-99556344D01*
X125207738Y-99784586D01*
X125207736Y-99784596D01*
X125187141Y-100019999D01*
X125187141Y-100020000D01*
X125207736Y-100255403D01*
X125207738Y-100255413D01*
X125268894Y-100483655D01*
X125268896Y-100483659D01*
X125268897Y-100483663D01*
X125368765Y-100697830D01*
X125368767Y-100697834D01*
X125477081Y-100852521D01*
X125504301Y-100891396D01*
X125504306Y-100891402D01*
X125626230Y-101013326D01*
X125659715Y-101074649D01*
X125654731Y-101144341D01*
X125612859Y-101200274D01*
X125581883Y-101217189D01*
X125450469Y-101266203D01*
X125450464Y-101266206D01*
X125335255Y-101352452D01*
X125335252Y-101352455D01*
X125249006Y-101467664D01*
X125249002Y-101467671D01*
X125198708Y-101602517D01*
X125192301Y-101662116D01*
X125192301Y-101662123D01*
X125192300Y-101662135D01*
X125192300Y-103457870D01*
X125192301Y-103457876D01*
X125198708Y-103517483D01*
X125249002Y-103652328D01*
X125249006Y-103652335D01*
X125335252Y-103767544D01*
X125335255Y-103767547D01*
X125450464Y-103853793D01*
X125450471Y-103853797D01*
X125585317Y-103904091D01*
X125585316Y-103904091D01*
X125592244Y-103904835D01*
X125644927Y-103910500D01*
X127440672Y-103910499D01*
X127500283Y-103904091D01*
X127635131Y-103853796D01*
X127750346Y-103767546D01*
X127836596Y-103652331D01*
X127886891Y-103517483D01*
X127893300Y-103457873D01*
X127893299Y-101662128D01*
X127886891Y-101602517D01*
X127836596Y-101467669D01*
X127836595Y-101467668D01*
X127836593Y-101467664D01*
X127750347Y-101352455D01*
X127750344Y-101352452D01*
X127635135Y-101266206D01*
X127635128Y-101266202D01*
X127503717Y-101217189D01*
X127447783Y-101175318D01*
X127423366Y-101109853D01*
X127438218Y-101041580D01*
X127459363Y-101013332D01*
X127581295Y-100891401D01*
X127716835Y-100697830D01*
X127816703Y-100483663D01*
X127877863Y-100255408D01*
X127898459Y-100020000D01*
X127877863Y-99784592D01*
X127816703Y-99556337D01*
X127716835Y-99342171D01*
X127581295Y-99148599D01*
X127581294Y-99148597D01*
X127414202Y-98981506D01*
X127414196Y-98981501D01*
X127228642Y-98851575D01*
X127185017Y-98796998D01*
X127177823Y-98727500D01*
X127209346Y-98665145D01*
X127228642Y-98648425D01*
X127250826Y-98632891D01*
X127414201Y-98518495D01*
X127581295Y-98351401D01*
X127716835Y-98157830D01*
X127816703Y-97943663D01*
X127877863Y-97715408D01*
X127898459Y-97480000D01*
X127877863Y-97244592D01*
X127816703Y-97016337D01*
X127716835Y-96802171D01*
X127581295Y-96608599D01*
X127581294Y-96608597D01*
X127414202Y-96441506D01*
X127414196Y-96441501D01*
X127228642Y-96311575D01*
X127185017Y-96256998D01*
X127177823Y-96187500D01*
X127209346Y-96125145D01*
X127228642Y-96108425D01*
X127250826Y-96092891D01*
X127414201Y-95978495D01*
X127581295Y-95811401D01*
X127716835Y-95617830D01*
X127816703Y-95403663D01*
X127877863Y-95175408D01*
X127898459Y-94940000D01*
X127877863Y-94704592D01*
X127816703Y-94476337D01*
X127716835Y-94262171D01*
X127581295Y-94068599D01*
X127581294Y-94068597D01*
X127414202Y-93901506D01*
X127414201Y-93901505D01*
X127228205Y-93771269D01*
X127184581Y-93716692D01*
X127177388Y-93647193D01*
X127208910Y-93584839D01*
X127228205Y-93568119D01*
X127413882Y-93438105D01*
X127580905Y-93271082D01*
X127716400Y-93077578D01*
X127816229Y-92863492D01*
X127816232Y-92863486D01*
X127873436Y-92650000D01*
X126975812Y-92650000D01*
X127008725Y-92592993D01*
X127042800Y-92465826D01*
X127042800Y-92334174D01*
X127008725Y-92207007D01*
X126975812Y-92150000D01*
X127873436Y-92150000D01*
X127873435Y-92149999D01*
X127816232Y-91936513D01*
X127816229Y-91936507D01*
X127716400Y-91722422D01*
X127716399Y-91722420D01*
X127580913Y-91528926D01*
X127580908Y-91528920D01*
X127413878Y-91361890D01*
X127228205Y-91231879D01*
X127184580Y-91177302D01*
X127177388Y-91107804D01*
X127208910Y-91045449D01*
X127228206Y-91028730D01*
X127414201Y-90898495D01*
X127581295Y-90731401D01*
X127716835Y-90537830D01*
X127816703Y-90323663D01*
X127877863Y-90095408D01*
X127898459Y-89860000D01*
X127877863Y-89624592D01*
X127816703Y-89396337D01*
X127716835Y-89182171D01*
X127581295Y-88988599D01*
X127581294Y-88988597D01*
X127414202Y-88821506D01*
X127414196Y-88821501D01*
X127228642Y-88691575D01*
X127185017Y-88636998D01*
X127177823Y-88567500D01*
X127209346Y-88505145D01*
X127228642Y-88488425D01*
X127250826Y-88472891D01*
X127414201Y-88358495D01*
X127581295Y-88191401D01*
X127716835Y-87997830D01*
X127816703Y-87783663D01*
X127877863Y-87555408D01*
X127898459Y-87320000D01*
X127877863Y-87084592D01*
X127816703Y-86856337D01*
X127716835Y-86642171D01*
X127694483Y-86610248D01*
X127581294Y-86448597D01*
X127414202Y-86281506D01*
X127414196Y-86281501D01*
X127228642Y-86151575D01*
X127185017Y-86096998D01*
X127177823Y-86027500D01*
X127209346Y-85965145D01*
X127228642Y-85948425D01*
X127353292Y-85861144D01*
X127414201Y-85818495D01*
X127581295Y-85651401D01*
X127716835Y-85457830D01*
X127816703Y-85243663D01*
X127877863Y-85015408D01*
X127898459Y-84780000D01*
X127877863Y-84544592D01*
X127816703Y-84316337D01*
X127716835Y-84102171D01*
X127713297Y-84097117D01*
X127581294Y-83908597D01*
X127414202Y-83741506D01*
X127414195Y-83741501D01*
X127220634Y-83605967D01*
X127220630Y-83605965D01*
X127220628Y-83605964D01*
X127006463Y-83506097D01*
X127006459Y-83506096D01*
X127006455Y-83506094D01*
X126778213Y-83444938D01*
X126778203Y-83444936D01*
X126542801Y-83424341D01*
X126542799Y-83424341D01*
X126307396Y-83444936D01*
X126307386Y-83444938D01*
X126079144Y-83506094D01*
X126079135Y-83506098D01*
X125864971Y-83605964D01*
X125864969Y-83605965D01*
X125671397Y-83741505D01*
X125504306Y-83908596D01*
X125421664Y-84026623D01*
X125367087Y-84070248D01*
X125320089Y-84079500D01*
X114346004Y-84079500D01*
X114257441Y-84097117D01*
X114233249Y-84099500D01*
X114100354Y-84099500D01*
X114087788Y-84102171D01*
X113915197Y-84138855D01*
X113915192Y-84138857D01*
X113742270Y-84215848D01*
X113742265Y-84215851D01*
X113589129Y-84327111D01*
X113462466Y-84467785D01*
X113367821Y-84631715D01*
X113367818Y-84631722D01*
X113319640Y-84780000D01*
X113309326Y-84811744D01*
X113289540Y-85000000D01*
X99560500Y-85000000D01*
X99560500Y-74284500D01*
X99580185Y-74217461D01*
X99632989Y-74171706D01*
X99684500Y-74160500D01*
X130435500Y-74160500D01*
X130502539Y-74180185D01*
G37*
%TD.AperFunction*%
%TD*%
M02*
