%TF.GenerationSoftware,KiCad,Pcbnew,8.0.3*%
%TF.CreationDate,2024-06-30T20:24:42+02:00*%
%TF.ProjectId,top_led_btn_2MU_TOP,746f705f-6c65-4645-9f62-746e5f324d55,rev?*%
%TF.SameCoordinates,Original*%
%TF.FileFunction,Soldermask,Top*%
%TF.FilePolarity,Negative*%
%FSLAX46Y46*%
G04 Gerber Fmt 4.6, Leading zero omitted, Abs format (unit mm)*
G04 Created by KiCad (PCBNEW 8.0.3) date 2024-06-30 20:24:42*
%MOMM*%
%LPD*%
G01*
G04 APERTURE LIST*
G04 Aperture macros list*
%AMRoundRect*
0 Rectangle with rounded corners*
0 $1 Rounding radius*
0 $2 $3 $4 $5 $6 $7 $8 $9 X,Y pos of 4 corners*
0 Add a 4 corners polygon primitive as box body*
4,1,4,$2,$3,$4,$5,$6,$7,$8,$9,$2,$3,0*
0 Add four circle primitives for the rounded corners*
1,1,$1+$1,$2,$3*
1,1,$1+$1,$4,$5*
1,1,$1+$1,$6,$7*
1,1,$1+$1,$8,$9*
0 Add four rect primitives between the rounded corners*
20,1,$1+$1,$2,$3,$4,$5,0*
20,1,$1+$1,$4,$5,$6,$7,0*
20,1,$1+$1,$6,$7,$8,$9,0*
20,1,$1+$1,$8,$9,$2,$3,0*%
G04 Aperture macros list end*
%ADD10RoundRect,0.243750X0.456250X-0.243750X0.456250X0.243750X-0.456250X0.243750X-0.456250X-0.243750X0*%
%ADD11RoundRect,0.243750X-0.243750X-0.456250X0.243750X-0.456250X0.243750X0.456250X-0.243750X0.456250X0*%
%ADD12R,1.400000X1.600000*%
%ADD13RoundRect,0.243750X-0.456250X0.243750X-0.456250X-0.243750X0.456250X-0.243750X0.456250X0.243750X0*%
%ADD14RoundRect,0.250000X0.450000X-0.262500X0.450000X0.262500X-0.450000X0.262500X-0.450000X-0.262500X0*%
%ADD15RoundRect,0.250000X-0.262500X-0.450000X0.262500X-0.450000X0.262500X0.450000X-0.262500X0.450000X0*%
%ADD16RoundRect,0.250000X0.262500X0.450000X-0.262500X0.450000X-0.262500X-0.450000X0.262500X-0.450000X0*%
%ADD17R,1.700000X1.700000*%
%ADD18O,1.700000X1.700000*%
G04 APERTURE END LIST*
D10*
%TO.C,D6*%
X117856000Y-79677500D03*
X117856000Y-77802500D03*
%TD*%
D11*
%TO.C,D1*%
X113616500Y-86868000D03*
X115491500Y-86868000D03*
%TD*%
D12*
%TO.C,SW3*%
X111216000Y-103950000D03*
X111216000Y-111950000D03*
X106716000Y-103950000D03*
X106716000Y-111950000D03*
%TD*%
D13*
%TO.C,D7*%
X124206000Y-77802500D03*
X124206000Y-79677500D03*
%TD*%
D14*
%TO.C,R3*%
X110744000Y-99972500D03*
X110744000Y-98147500D03*
%TD*%
D15*
%TO.C,R4*%
X121007500Y-89916000D03*
X122832500Y-89916000D03*
%TD*%
D16*
%TO.C,R1*%
X115466500Y-89408000D03*
X113641500Y-89408000D03*
%TD*%
D14*
%TO.C,R2*%
X119380000Y-99972500D03*
X119380000Y-98147500D03*
%TD*%
D16*
%TO.C,R5*%
X122832500Y-95504000D03*
X121007500Y-95504000D03*
%TD*%
D12*
%TO.C,SW1*%
X106716000Y-92900000D03*
X106716000Y-84900000D03*
X111216000Y-92900000D03*
X111216000Y-84900000D03*
%TD*%
D13*
%TO.C,D5*%
X111506000Y-77802500D03*
X111506000Y-79677500D03*
%TD*%
D15*
%TO.C,R6*%
X121007500Y-92710000D03*
X122832500Y-92710000D03*
%TD*%
D12*
%TO.C,SW2*%
X123408000Y-103950000D03*
X123408000Y-111950000D03*
X118908000Y-103950000D03*
X118908000Y-111950000D03*
%TD*%
D10*
%TO.C,D2*%
X121920000Y-99997500D03*
X121920000Y-98122500D03*
%TD*%
D17*
%TO.C,J2*%
X126542800Y-102560000D03*
D18*
X126542800Y-100020000D03*
X126542800Y-97480000D03*
X126542800Y-94940000D03*
X126542800Y-92400000D03*
X126542800Y-89860000D03*
X126542800Y-87320000D03*
X126542800Y-84780000D03*
%TD*%
D10*
%TO.C,D4*%
X105156000Y-79677500D03*
X105156000Y-77802500D03*
%TD*%
%TO.C,D3*%
X108204000Y-99997500D03*
X108204000Y-98122500D03*
%TD*%
M02*
