%TF.GenerationSoftware,KiCad,Pcbnew,8.0.1*%
%TF.CreationDate,2024-05-01T13:03:36+02:00*%
%TF.ProjectId,top_led_btn_2MU_TOP,746f705f-6c65-4645-9f62-746e5f324d55,rev?*%
%TF.SameCoordinates,Original*%
%TF.FileFunction,Copper,L1,Top*%
%TF.FilePolarity,Positive*%
%FSLAX46Y46*%
G04 Gerber Fmt 4.6, Leading zero omitted, Abs format (unit mm)*
G04 Created by KiCad (PCBNEW 8.0.1) date 2024-05-01 13:03:36*
%MOMM*%
%LPD*%
G01*
G04 APERTURE LIST*
G04 Aperture macros list*
%AMRoundRect*
0 Rectangle with rounded corners*
0 $1 Rounding radius*
0 $2 $3 $4 $5 $6 $7 $8 $9 X,Y pos of 4 corners*
0 Add a 4 corners polygon primitive as box body*
4,1,4,$2,$3,$4,$5,$6,$7,$8,$9,$2,$3,0*
0 Add four circle primitives for the rounded corners*
1,1,$1+$1,$2,$3*
1,1,$1+$1,$4,$5*
1,1,$1+$1,$6,$7*
1,1,$1+$1,$8,$9*
0 Add four rect primitives between the rounded corners*
20,1,$1+$1,$2,$3,$4,$5,0*
20,1,$1+$1,$4,$5,$6,$7,0*
20,1,$1+$1,$6,$7,$8,$9,0*
20,1,$1+$1,$8,$9,$2,$3,0*%
G04 Aperture macros list end*
%TA.AperFunction,SMDPad,CuDef*%
%ADD10RoundRect,0.243750X0.456250X-0.243750X0.456250X0.243750X-0.456250X0.243750X-0.456250X-0.243750X0*%
%TD*%
%TA.AperFunction,SMDPad,CuDef*%
%ADD11RoundRect,0.243750X-0.456250X0.243750X-0.456250X-0.243750X0.456250X-0.243750X0.456250X0.243750X0*%
%TD*%
%TA.AperFunction,SMDPad,CuDef*%
%ADD12R,1.500000X1.500000*%
%TD*%
%TA.AperFunction,SMDPad,CuDef*%
%ADD13RoundRect,0.250000X0.450000X-0.262500X0.450000X0.262500X-0.450000X0.262500X-0.450000X-0.262500X0*%
%TD*%
%TA.AperFunction,SMDPad,CuDef*%
%ADD14RoundRect,0.250000X-0.262500X-0.450000X0.262500X-0.450000X0.262500X0.450000X-0.262500X0.450000X0*%
%TD*%
%TA.AperFunction,SMDPad,CuDef*%
%ADD15RoundRect,0.250000X0.262500X0.450000X-0.262500X0.450000X-0.262500X-0.450000X0.262500X-0.450000X0*%
%TD*%
%TA.AperFunction,ComponentPad*%
%ADD16R,1.700000X1.700000*%
%TD*%
%TA.AperFunction,ComponentPad*%
%ADD17O,1.700000X1.700000*%
%TD*%
%TA.AperFunction,ViaPad*%
%ADD18C,0.800000*%
%TD*%
%TA.AperFunction,Conductor*%
%ADD19C,0.400000*%
%TD*%
G04 APERTURE END LIST*
D10*
%TO.P,D6,1,K*%
%TO.N,Net-(D6-K)*%
X117856000Y-79677500D03*
%TO.P,D6,2,A*%
%TO.N,Net-(D4-A)*%
X117856000Y-77802500D03*
%TD*%
D11*
%TO.P,D1,1,K*%
%TO.N,Net-(D1-K)*%
X115570000Y-87962500D03*
%TO.P,D1,2,A*%
%TO.N,Net-(D1-A)*%
X115570000Y-89837500D03*
%TD*%
D12*
%TO.P,SW3,1,1*%
%TO.N,GND*%
X108204000Y-111850000D03*
%TO.P,SW3,2,2*%
%TO.N,Net-(D3-K)*%
X108204000Y-104050000D03*
%TD*%
D11*
%TO.P,D7,1,K*%
%TO.N,Net-(D4-A)*%
X124206000Y-77802500D03*
%TO.P,D7,2,A*%
%TO.N,Net-(D6-K)*%
X124206000Y-79677500D03*
%TD*%
D13*
%TO.P,R3,1*%
%TO.N,+3V3*%
X110744000Y-99972500D03*
%TO.P,R3,2*%
%TO.N,Net-(D3-A)*%
X110744000Y-98147500D03*
%TD*%
D14*
%TO.P,R4,1*%
%TO.N,Net-(D4-A)*%
X121007500Y-89916000D03*
%TO.P,R4,2*%
%TO.N,Net-(J2-Pin_6)*%
X122832500Y-89916000D03*
%TD*%
D13*
%TO.P,R1,1*%
%TO.N,+3V3*%
X113030000Y-89812500D03*
%TO.P,R1,2*%
%TO.N,Net-(D1-A)*%
X113030000Y-87987500D03*
%TD*%
%TO.P,R2,1*%
%TO.N,+3V3*%
X119380000Y-99972500D03*
%TO.P,R2,2*%
%TO.N,Net-(D2-A)*%
X119380000Y-98147500D03*
%TD*%
D15*
%TO.P,R5,1*%
%TO.N,Net-(J2-Pin_3)*%
X122832500Y-95504000D03*
%TO.P,R5,2*%
%TO.N,Net-(D4-K)*%
X121007500Y-95504000D03*
%TD*%
D12*
%TO.P,SW1,1,1*%
%TO.N,GND*%
X108204000Y-92800000D03*
%TO.P,SW1,2,2*%
%TO.N,Net-(D1-K)*%
X108204000Y-85000000D03*
%TD*%
D11*
%TO.P,D5,1,K*%
%TO.N,Net-(D4-A)*%
X111506000Y-77802500D03*
%TO.P,D5,2,A*%
%TO.N,Net-(D4-K)*%
X111506000Y-79677500D03*
%TD*%
D14*
%TO.P,R6,1*%
%TO.N,Net-(D6-K)*%
X121007500Y-92710000D03*
%TO.P,R6,2*%
%TO.N,Net-(J2-Pin_4)*%
X122832500Y-92710000D03*
%TD*%
D12*
%TO.P,SW2,1,1*%
%TO.N,GND*%
X121920000Y-111850000D03*
%TO.P,SW2,2,2*%
%TO.N,Net-(D2-K)*%
X121920000Y-104050000D03*
%TD*%
D10*
%TO.P,D2,1,K*%
%TO.N,Net-(D2-K)*%
X121920000Y-99997500D03*
%TO.P,D2,2,A*%
%TO.N,Net-(D2-A)*%
X121920000Y-98122500D03*
%TD*%
D16*
%TO.P,J2,1,Pin_1*%
%TO.N,Net-(D3-K)*%
X126542800Y-102560000D03*
D17*
%TO.P,J2,2,Pin_2*%
%TO.N,Net-(D2-K)*%
X126542800Y-100020000D03*
%TO.P,J2,3,Pin_3*%
%TO.N,Net-(J2-Pin_3)*%
X126542800Y-97480000D03*
%TO.P,J2,4,Pin_4*%
%TO.N,Net-(J2-Pin_4)*%
X126542800Y-94940000D03*
%TO.P,J2,5,Pin_5*%
%TO.N,GND*%
X126542800Y-92400000D03*
%TO.P,J2,6,Pin_6*%
%TO.N,Net-(J2-Pin_6)*%
X126542800Y-89860000D03*
%TO.P,J2,7,Pin_7*%
%TO.N,+3V3*%
X126542800Y-87320000D03*
%TO.P,J2,8,Pin_8*%
%TO.N,Net-(D1-K)*%
X126542800Y-84780000D03*
%TD*%
D10*
%TO.P,D4,1,K*%
%TO.N,Net-(D4-K)*%
X105156000Y-79677500D03*
%TO.P,D4,2,A*%
%TO.N,Net-(D4-A)*%
X105156000Y-77802500D03*
%TD*%
%TO.P,D3,1,K*%
%TO.N,Net-(D3-K)*%
X108204000Y-99997500D03*
%TO.P,D3,2,A*%
%TO.N,Net-(D3-A)*%
X108204000Y-98122500D03*
%TD*%
D18*
%TO.N,Net-(D1-K)*%
X114195000Y-85000000D03*
%TO.N,GND*%
X128016000Y-110490000D03*
X115316000Y-110998000D03*
X102362000Y-107696000D03*
X121412000Y-82296000D03*
X115824000Y-81280000D03*
X128778000Y-78232000D03*
X102870000Y-82804000D03*
X117094000Y-96012000D03*
X102616000Y-95758000D03*
X115316000Y-103378000D03*
%TO.N,+3V3*%
X114657500Y-91440000D03*
%TD*%
D19*
%TO.N,Net-(D4-K)*%
X117094000Y-91948000D02*
X120650000Y-95504000D01*
%TO.N,Net-(J2-Pin_3)*%
X126542800Y-97480000D02*
X126055000Y-97480000D01*
%TO.N,Net-(D4-K)*%
X111506000Y-79677500D02*
X111506000Y-80010000D01*
%TO.N,Net-(J2-Pin_3)*%
X126055000Y-97480000D02*
X124079000Y-95504000D01*
X124079000Y-95504000D02*
X122832500Y-95504000D01*
%TO.N,Net-(D4-K)*%
X111506000Y-80010000D02*
X117094000Y-85598000D01*
X120650000Y-95504000D02*
X121007500Y-95504000D01*
X117094000Y-85598000D02*
X117094000Y-91948000D01*
%TO.N,Net-(D4-A)*%
X121007500Y-89916000D02*
X121007500Y-86002500D01*
X121007500Y-86002500D02*
X125730000Y-81280000D01*
X124792500Y-77802500D02*
X124206000Y-77802500D01*
X125730000Y-81280000D02*
X125730000Y-78740000D01*
X125730000Y-78740000D02*
X124792500Y-77802500D01*
%TO.N,Net-(J2-Pin_6)*%
X122832500Y-89916000D02*
X122888500Y-89860000D01*
X122888500Y-89860000D02*
X126542800Y-89860000D01*
%TO.N,Net-(D6-K)*%
X124206000Y-79677500D02*
X118110000Y-79677500D01*
X118110000Y-79677500D02*
X118110000Y-91440000D01*
X118110000Y-91440000D02*
X119380000Y-92710000D01*
X119380000Y-92710000D02*
X121007500Y-92710000D01*
%TO.N,Net-(D2-K)*%
X126542800Y-100020000D02*
X121942500Y-100020000D01*
%TO.N,Net-(D3-K)*%
X126542800Y-103954700D02*
X126542800Y-102560000D01*
%TO.N,Net-(D2-K)*%
X121942500Y-100020000D02*
X121920000Y-99997500D01*
%TO.N,Net-(J2-Pin_4)*%
X126542800Y-94940000D02*
X126089688Y-94940000D01*
%TO.N,Net-(D3-K)*%
X123817500Y-106680000D02*
X126542800Y-103954700D01*
X108204000Y-105029000D02*
X109855000Y-106680000D01*
X109855000Y-106680000D02*
X123817500Y-106680000D01*
%TO.N,Net-(J2-Pin_4)*%
X123859688Y-92710000D02*
X122832500Y-92710000D01*
X126089688Y-94940000D02*
X123859688Y-92710000D01*
%TO.N,Net-(D3-K)*%
X108204000Y-104050000D02*
X108204000Y-105029000D01*
%TO.N,Net-(D1-A)*%
X115403750Y-89837500D02*
X115570000Y-89837500D01*
X113553750Y-87987500D02*
X115403750Y-89837500D01*
X113030000Y-87987500D02*
X113553750Y-87987500D01*
%TO.N,Net-(D1-K)*%
X115570000Y-86375000D02*
X115570000Y-87962500D01*
X114195000Y-85000000D02*
X108204000Y-85000000D01*
X114292500Y-85097500D02*
X115570000Y-86375000D01*
X114292500Y-85097500D02*
X114195000Y-85000000D01*
%TO.N,Net-(D2-A)*%
X119380000Y-98147500D02*
X121895000Y-98147500D01*
X121895000Y-98147500D02*
X121920000Y-98122500D01*
%TO.N,Net-(D2-K)*%
X121920000Y-104050000D02*
X121920000Y-99997500D01*
%TO.N,Net-(D3-K)*%
X108204000Y-104050000D02*
X108204000Y-99997500D01*
%TO.N,Net-(D3-A)*%
X108204000Y-98122500D02*
X110719000Y-98122500D01*
X110719000Y-98122500D02*
X110744000Y-98147500D01*
%TO.N,Net-(D4-A)*%
X117856000Y-77802500D02*
X124206000Y-77802500D01*
X111506000Y-77802500D02*
X117856000Y-77802500D01*
X105156000Y-77802500D02*
X111506000Y-77802500D01*
%TO.N,Net-(D4-K)*%
X105156000Y-79677500D02*
X111506000Y-79677500D01*
%TO.N,Net-(D6-K)*%
X117856000Y-79677500D02*
X124206000Y-79677500D01*
%TO.N,+3V3*%
X115927500Y-99972500D02*
X114657500Y-99972500D01*
X110744000Y-99972500D02*
X115927500Y-99972500D01*
X114657500Y-99972500D02*
X114657500Y-91440000D01*
X114657500Y-91440000D02*
X113030000Y-89812500D01*
X119380000Y-99972500D02*
X115927500Y-99972500D01*
%TD*%
%TA.AperFunction,Conductor*%
%TO.N,GND*%
G36*
X120704487Y-100432250D02*
G01*
X120755687Y-100479792D01*
X120766835Y-100504202D01*
X120780498Y-100545432D01*
X120784638Y-100557925D01*
X120784640Y-100557928D01*
X120784642Y-100557933D01*
X120875971Y-100705999D01*
X120875974Y-100706003D01*
X120998996Y-100829025D01*
X120999000Y-100829028D01*
X121147066Y-100920357D01*
X121147069Y-100920358D01*
X121147075Y-100920362D01*
X121147080Y-100920363D01*
X121147892Y-100920742D01*
X121148364Y-100921157D01*
X121153222Y-100924154D01*
X121152710Y-100924983D01*
X121200336Y-100966908D01*
X121219500Y-101033130D01*
X121219500Y-102677648D01*
X121199815Y-102744687D01*
X121147011Y-102790442D01*
X121108755Y-102800938D01*
X121062516Y-102805909D01*
X120927671Y-102856202D01*
X120927664Y-102856206D01*
X120812455Y-102942452D01*
X120812452Y-102942455D01*
X120726206Y-103057664D01*
X120726202Y-103057671D01*
X120675908Y-103192517D01*
X120669501Y-103252116D01*
X120669501Y-103252123D01*
X120669500Y-103252135D01*
X120669500Y-104847870D01*
X120669501Y-104847876D01*
X120675908Y-104907483D01*
X120726202Y-105042328D01*
X120726206Y-105042335D01*
X120812452Y-105157544D01*
X120812455Y-105157547D01*
X120927664Y-105243793D01*
X120927671Y-105243797D01*
X121062517Y-105294091D01*
X121062516Y-105294091D01*
X121069444Y-105294835D01*
X121122127Y-105300500D01*
X122717872Y-105300499D01*
X122777483Y-105294091D01*
X122912331Y-105243796D01*
X123027546Y-105157546D01*
X123113796Y-105042331D01*
X123164091Y-104907483D01*
X123170500Y-104847873D01*
X123170499Y-103252128D01*
X123164091Y-103192517D01*
X123113796Y-103057669D01*
X123113795Y-103057668D01*
X123113793Y-103057664D01*
X123027547Y-102942455D01*
X123027544Y-102942452D01*
X122912335Y-102856206D01*
X122912328Y-102856202D01*
X122777483Y-102805908D01*
X122731243Y-102800937D01*
X122666693Y-102774199D01*
X122626845Y-102716806D01*
X122620500Y-102677648D01*
X122620500Y-101033130D01*
X122640185Y-100966091D01*
X122687276Y-100924961D01*
X122686778Y-100924154D01*
X122691623Y-100921165D01*
X122692108Y-100920742D01*
X122692915Y-100920365D01*
X122692925Y-100920362D01*
X122841003Y-100829026D01*
X122913210Y-100756819D01*
X122974533Y-100723334D01*
X123000891Y-100720500D01*
X125320089Y-100720500D01*
X125387128Y-100740185D01*
X125421664Y-100773377D01*
X125504303Y-100891399D01*
X125504304Y-100891400D01*
X125504305Y-100891401D01*
X125626231Y-101013327D01*
X125659715Y-101074648D01*
X125654731Y-101144340D01*
X125612860Y-101200274D01*
X125581883Y-101217189D01*
X125450469Y-101266203D01*
X125450464Y-101266206D01*
X125335255Y-101352452D01*
X125335252Y-101352455D01*
X125249006Y-101467664D01*
X125249002Y-101467671D01*
X125198708Y-101602517D01*
X125192301Y-101662116D01*
X125192301Y-101662123D01*
X125192300Y-101662135D01*
X125192300Y-103457870D01*
X125192301Y-103457876D01*
X125198708Y-103517483D01*
X125249002Y-103652328D01*
X125249006Y-103652335D01*
X125335252Y-103767544D01*
X125335253Y-103767544D01*
X125335254Y-103767546D01*
X125379934Y-103800994D01*
X125451761Y-103854764D01*
X125493631Y-103910698D01*
X125498615Y-103980390D01*
X125465130Y-104041711D01*
X123563662Y-105943181D01*
X123502339Y-105976666D01*
X123475981Y-105979500D01*
X110196519Y-105979500D01*
X110129480Y-105959815D01*
X110108838Y-105943181D01*
X109392513Y-105226856D01*
X109359028Y-105165533D01*
X109364012Y-105095841D01*
X109380928Y-105064863D01*
X109397796Y-105042331D01*
X109448091Y-104907483D01*
X109454500Y-104847873D01*
X109454499Y-103252128D01*
X109448091Y-103192517D01*
X109397796Y-103057669D01*
X109397795Y-103057668D01*
X109397793Y-103057664D01*
X109311547Y-102942455D01*
X109311544Y-102942452D01*
X109196335Y-102856206D01*
X109196328Y-102856202D01*
X109061483Y-102805908D01*
X109015243Y-102800937D01*
X108950693Y-102774199D01*
X108910845Y-102716806D01*
X108904500Y-102677648D01*
X108904500Y-101033130D01*
X108924185Y-100966091D01*
X108971276Y-100924961D01*
X108970778Y-100924154D01*
X108975623Y-100921165D01*
X108976108Y-100920742D01*
X108976915Y-100920365D01*
X108976925Y-100920362D01*
X109125003Y-100829026D01*
X109248026Y-100706003D01*
X109339362Y-100557925D01*
X109357163Y-100504204D01*
X109396933Y-100446760D01*
X109461449Y-100419936D01*
X109530225Y-100432250D01*
X109581425Y-100479792D01*
X109592573Y-100504202D01*
X109609184Y-100554327D01*
X109609187Y-100554336D01*
X109611399Y-100557922D01*
X109701288Y-100703656D01*
X109825344Y-100827712D01*
X109974666Y-100919814D01*
X110141203Y-100974999D01*
X110243991Y-100985500D01*
X111244008Y-100985499D01*
X111244016Y-100985498D01*
X111244019Y-100985498D01*
X111300302Y-100979748D01*
X111346797Y-100974999D01*
X111513334Y-100919814D01*
X111662656Y-100827712D01*
X111781049Y-100709319D01*
X111842372Y-100675834D01*
X111868730Y-100673000D01*
X114588507Y-100673000D01*
X114726493Y-100673000D01*
X115858507Y-100673000D01*
X118255270Y-100673000D01*
X118322309Y-100692685D01*
X118342951Y-100709319D01*
X118461344Y-100827712D01*
X118610666Y-100919814D01*
X118777203Y-100974999D01*
X118879991Y-100985500D01*
X119880008Y-100985499D01*
X119880016Y-100985498D01*
X119880019Y-100985498D01*
X119936302Y-100979748D01*
X119982797Y-100974999D01*
X120149334Y-100919814D01*
X120298656Y-100827712D01*
X120422712Y-100703656D01*
X120514814Y-100554334D01*
X120531426Y-100504200D01*
X120571195Y-100446760D01*
X120635710Y-100419936D01*
X120704487Y-100432250D01*
G37*
%TD.AperFunction*%
%TA.AperFunction,Conductor*%
G36*
X116360366Y-90830947D02*
G01*
X116391559Y-90893467D01*
X116393500Y-90915323D01*
X116393500Y-91879006D01*
X116393500Y-92016994D01*
X116393500Y-92016996D01*
X116393499Y-92016996D01*
X116420418Y-92152322D01*
X116420421Y-92152332D01*
X116473222Y-92279807D01*
X116549887Y-92394545D01*
X116549888Y-92394546D01*
X119958181Y-95802837D01*
X119991666Y-95864160D01*
X119994500Y-95890517D01*
X119994500Y-96004000D01*
X119994501Y-96004019D01*
X120005000Y-96106796D01*
X120005001Y-96106799D01*
X120031743Y-96187500D01*
X120060186Y-96273334D01*
X120152288Y-96422656D01*
X120276344Y-96546712D01*
X120425666Y-96638814D01*
X120592203Y-96693999D01*
X120694991Y-96704500D01*
X121320008Y-96704499D01*
X121320016Y-96704498D01*
X121320019Y-96704498D01*
X121376302Y-96698748D01*
X121422797Y-96693999D01*
X121589334Y-96638814D01*
X121738656Y-96546712D01*
X121832319Y-96453049D01*
X121893642Y-96419564D01*
X121963334Y-96424548D01*
X122007681Y-96453049D01*
X122101344Y-96546712D01*
X122250666Y-96638814D01*
X122417203Y-96693999D01*
X122519991Y-96704500D01*
X123145008Y-96704499D01*
X123145016Y-96704498D01*
X123145019Y-96704498D01*
X123201302Y-96698748D01*
X123247797Y-96693999D01*
X123414334Y-96638814D01*
X123563656Y-96546712D01*
X123687712Y-96422656D01*
X123727191Y-96358648D01*
X123779135Y-96311927D01*
X123848098Y-96300703D01*
X123912180Y-96328545D01*
X123920409Y-96336066D01*
X125167000Y-97582657D01*
X125200485Y-97643980D01*
X125202847Y-97659528D01*
X125207736Y-97715404D01*
X125207738Y-97715413D01*
X125268894Y-97943655D01*
X125268896Y-97943659D01*
X125268897Y-97943663D01*
X125368765Y-98157830D01*
X125368767Y-98157834D01*
X125504301Y-98351395D01*
X125504306Y-98351402D01*
X125671397Y-98518493D01*
X125671403Y-98518498D01*
X125856958Y-98648425D01*
X125900583Y-98703002D01*
X125907777Y-98772500D01*
X125876254Y-98834855D01*
X125856958Y-98851575D01*
X125671397Y-98981505D01*
X125504306Y-99148596D01*
X125421664Y-99266623D01*
X125367087Y-99310248D01*
X125320089Y-99319500D01*
X123045892Y-99319500D01*
X122978853Y-99299815D01*
X122958211Y-99283182D01*
X122910710Y-99235681D01*
X122841003Y-99165974D01*
X122840301Y-99165541D01*
X122839921Y-99165118D01*
X122835336Y-99161493D01*
X122835955Y-99160709D01*
X122793575Y-99113598D01*
X122782349Y-99044636D01*
X122810188Y-98980552D01*
X122835455Y-98958657D01*
X122835336Y-98958507D01*
X122838687Y-98955856D01*
X122840299Y-98954459D01*
X122841003Y-98954026D01*
X122964026Y-98831003D01*
X123055362Y-98682925D01*
X123110087Y-98517775D01*
X123120500Y-98415848D01*
X123120500Y-97829152D01*
X123110087Y-97727225D01*
X123055362Y-97562075D01*
X123055358Y-97562069D01*
X123055357Y-97562066D01*
X122964028Y-97414000D01*
X122964025Y-97413996D01*
X122841003Y-97290974D01*
X122840999Y-97290971D01*
X122692933Y-97199642D01*
X122692927Y-97199639D01*
X122692925Y-97199638D01*
X122692922Y-97199637D01*
X122527776Y-97144913D01*
X122425855Y-97134500D01*
X122425848Y-97134500D01*
X121414152Y-97134500D01*
X121414144Y-97134500D01*
X121312223Y-97144913D01*
X121147077Y-97199637D01*
X121147066Y-97199642D01*
X120999000Y-97290971D01*
X120879289Y-97410682D01*
X120817966Y-97444166D01*
X120791608Y-97447000D01*
X120504730Y-97447000D01*
X120437691Y-97427315D01*
X120417049Y-97410681D01*
X120298657Y-97292289D01*
X120298656Y-97292288D01*
X120149334Y-97200186D01*
X119982797Y-97145001D01*
X119982795Y-97145000D01*
X119880010Y-97134500D01*
X118879998Y-97134500D01*
X118879980Y-97134501D01*
X118777203Y-97145000D01*
X118777200Y-97145001D01*
X118610668Y-97200185D01*
X118610663Y-97200187D01*
X118461342Y-97292289D01*
X118337289Y-97416342D01*
X118245187Y-97565663D01*
X118245185Y-97565668D01*
X118228980Y-97614571D01*
X118190001Y-97732203D01*
X118190001Y-97732204D01*
X118190000Y-97732204D01*
X118179500Y-97834983D01*
X118179500Y-98460001D01*
X118179501Y-98460019D01*
X118190000Y-98562796D01*
X118190001Y-98562799D01*
X118229810Y-98682933D01*
X118245186Y-98729334D01*
X118334414Y-98873997D01*
X118337289Y-98878657D01*
X118430951Y-98972319D01*
X118464436Y-99033642D01*
X118459452Y-99103334D01*
X118430951Y-99147681D01*
X118342951Y-99235681D01*
X118281628Y-99269166D01*
X118255270Y-99272000D01*
X115482000Y-99272000D01*
X115414961Y-99252315D01*
X115369206Y-99199511D01*
X115358000Y-99148000D01*
X115358000Y-92055391D01*
X115377685Y-91988352D01*
X115389852Y-91972417D01*
X115390033Y-91972216D01*
X115484679Y-91808284D01*
X115543174Y-91628256D01*
X115562960Y-91440000D01*
X115543174Y-91251744D01*
X115484679Y-91071716D01*
X115449912Y-91011498D01*
X115433440Y-90943600D01*
X115456293Y-90877573D01*
X115511214Y-90834382D01*
X115557300Y-90825500D01*
X116075843Y-90825500D01*
X116075848Y-90825500D01*
X116177775Y-90815087D01*
X116230496Y-90797616D01*
X116300324Y-90795215D01*
X116360366Y-90830947D01*
G37*
%TD.AperFunction*%
%TA.AperFunction,Conductor*%
G36*
X123169647Y-80397685D02*
G01*
X123190288Y-80414317D01*
X123284997Y-80509026D01*
X123284999Y-80509027D01*
X123285000Y-80509028D01*
X123433066Y-80600357D01*
X123433069Y-80600358D01*
X123433075Y-80600362D01*
X123598225Y-80655087D01*
X123700152Y-80665500D01*
X123700157Y-80665500D01*
X124711843Y-80665500D01*
X124711848Y-80665500D01*
X124813775Y-80655087D01*
X124866496Y-80637616D01*
X124936324Y-80635215D01*
X124996366Y-80670947D01*
X125027559Y-80733467D01*
X125029500Y-80755323D01*
X125029500Y-80938480D01*
X125009815Y-81005519D01*
X124993181Y-81026161D01*
X120463388Y-85555953D01*
X120463387Y-85555954D01*
X120386722Y-85670692D01*
X120333921Y-85798167D01*
X120333918Y-85798179D01*
X120308007Y-85928445D01*
X120308004Y-85928460D01*
X120307000Y-85933499D01*
X120307000Y-88791270D01*
X120287315Y-88858309D01*
X120270681Y-88878951D01*
X120152289Y-88997342D01*
X120060187Y-89146663D01*
X120060186Y-89146666D01*
X120005001Y-89313203D01*
X120005001Y-89313204D01*
X120005000Y-89313204D01*
X119994500Y-89415983D01*
X119994500Y-90416001D01*
X119994501Y-90416019D01*
X120005000Y-90518796D01*
X120005001Y-90518799D01*
X120054346Y-90667710D01*
X120060186Y-90685334D01*
X120152288Y-90834656D01*
X120276344Y-90958712D01*
X120425666Y-91050814D01*
X120592203Y-91105999D01*
X120694991Y-91116500D01*
X121320008Y-91116499D01*
X121320016Y-91116498D01*
X121320019Y-91116498D01*
X121376302Y-91110748D01*
X121422797Y-91105999D01*
X121589334Y-91050814D01*
X121738656Y-90958712D01*
X121832319Y-90865049D01*
X121893642Y-90831564D01*
X121963334Y-90836548D01*
X122007681Y-90865049D01*
X122101344Y-90958712D01*
X122250666Y-91050814D01*
X122417203Y-91105999D01*
X122519991Y-91116500D01*
X123145008Y-91116499D01*
X123145016Y-91116498D01*
X123145019Y-91116498D01*
X123201302Y-91110748D01*
X123247797Y-91105999D01*
X123414334Y-91050814D01*
X123563656Y-90958712D01*
X123687712Y-90834656D01*
X123779814Y-90685334D01*
X123793015Y-90645493D01*
X123832788Y-90588050D01*
X123897304Y-90561228D01*
X123910721Y-90560500D01*
X125320089Y-90560500D01*
X125387128Y-90580185D01*
X125421664Y-90613377D01*
X125504305Y-90731402D01*
X125671397Y-90898493D01*
X125671403Y-90898498D01*
X125857394Y-91028730D01*
X125901019Y-91083307D01*
X125908213Y-91152805D01*
X125876690Y-91215160D01*
X125857395Y-91231880D01*
X125671722Y-91361890D01*
X125671720Y-91361891D01*
X125504691Y-91528920D01*
X125504686Y-91528926D01*
X125369200Y-91722420D01*
X125369199Y-91722422D01*
X125269370Y-91936507D01*
X125269367Y-91936513D01*
X125212164Y-92149999D01*
X125212164Y-92150000D01*
X126109788Y-92150000D01*
X126076875Y-92207007D01*
X126042800Y-92334174D01*
X126042800Y-92465826D01*
X126076875Y-92592993D01*
X126109788Y-92650000D01*
X125212164Y-92650000D01*
X125246785Y-92779209D01*
X125245122Y-92849058D01*
X125205960Y-92906921D01*
X125141731Y-92934425D01*
X125072829Y-92922839D01*
X125039329Y-92898983D01*
X124306233Y-92165887D01*
X124191495Y-92089222D01*
X124064020Y-92036421D01*
X124064010Y-92036418D01*
X123928684Y-92009500D01*
X123928682Y-92009500D01*
X123928681Y-92009500D01*
X123890908Y-92009500D01*
X123823869Y-91989815D01*
X123785363Y-91945728D01*
X123783605Y-91946813D01*
X123777252Y-91936513D01*
X123687712Y-91791344D01*
X123563656Y-91667288D01*
X123414334Y-91575186D01*
X123247797Y-91520001D01*
X123247795Y-91520000D01*
X123145010Y-91509500D01*
X122519998Y-91509500D01*
X122519980Y-91509501D01*
X122417203Y-91520000D01*
X122417200Y-91520001D01*
X122250668Y-91575185D01*
X122250663Y-91575187D01*
X122101342Y-91667289D01*
X122007681Y-91760951D01*
X121946358Y-91794436D01*
X121876666Y-91789452D01*
X121832319Y-91760951D01*
X121738657Y-91667289D01*
X121738656Y-91667288D01*
X121589334Y-91575186D01*
X121422797Y-91520001D01*
X121422795Y-91520000D01*
X121320010Y-91509500D01*
X120694998Y-91509500D01*
X120694980Y-91509501D01*
X120592203Y-91520000D01*
X120592200Y-91520001D01*
X120425668Y-91575185D01*
X120425663Y-91575187D01*
X120276342Y-91667289D01*
X120152289Y-91791342D01*
X120142068Y-91807913D01*
X120062752Y-91936507D01*
X120056395Y-91946813D01*
X120054600Y-91945706D01*
X120015313Y-91990337D01*
X119949092Y-92009500D01*
X119721519Y-92009500D01*
X119654480Y-91989815D01*
X119633838Y-91973181D01*
X118846819Y-91186162D01*
X118813334Y-91124839D01*
X118810500Y-91098481D01*
X118810500Y-80526891D01*
X118830185Y-80459852D01*
X118846821Y-80439208D01*
X118871713Y-80414317D01*
X118933036Y-80380833D01*
X118959392Y-80378000D01*
X123102608Y-80378000D01*
X123169647Y-80397685D01*
G37*
%TD.AperFunction*%
%TA.AperFunction,Conductor*%
G36*
X116819647Y-78522685D02*
G01*
X116840289Y-78539318D01*
X116934997Y-78634026D01*
X116934999Y-78634027D01*
X116935000Y-78634028D01*
X116935703Y-78634462D01*
X116936083Y-78634885D01*
X116940664Y-78638507D01*
X116940045Y-78639289D01*
X116982428Y-78686410D01*
X116993649Y-78755372D01*
X116965806Y-78819454D01*
X116940544Y-78841342D01*
X116940664Y-78841493D01*
X116937315Y-78844140D01*
X116935703Y-78845538D01*
X116935000Y-78845971D01*
X116934996Y-78845974D01*
X116811974Y-78968996D01*
X116811971Y-78969000D01*
X116720642Y-79117066D01*
X116720637Y-79117077D01*
X116665913Y-79282223D01*
X116655500Y-79384144D01*
X116655500Y-79970855D01*
X116665913Y-80072776D01*
X116720637Y-80237922D01*
X116720642Y-80237933D01*
X116811971Y-80385999D01*
X116811974Y-80386003D01*
X116934996Y-80509025D01*
X116935000Y-80509028D01*
X117083066Y-80600357D01*
X117083069Y-80600358D01*
X117083075Y-80600362D01*
X117188255Y-80635215D01*
X117248224Y-80655087D01*
X117258380Y-80656124D01*
X117298102Y-80660182D01*
X117362793Y-80686577D01*
X117402945Y-80743758D01*
X117409500Y-80783540D01*
X117409500Y-84623481D01*
X117389815Y-84690520D01*
X117337011Y-84736275D01*
X117267853Y-84746219D01*
X117204297Y-84717194D01*
X117197819Y-84711162D01*
X112716157Y-80229500D01*
X112682672Y-80168177D01*
X112686131Y-80102816D01*
X112696087Y-80072775D01*
X112706500Y-79970848D01*
X112706500Y-79384152D01*
X112696087Y-79282225D01*
X112641362Y-79117075D01*
X112641358Y-79117069D01*
X112641357Y-79117066D01*
X112550028Y-78969000D01*
X112550025Y-78968996D01*
X112427004Y-78845975D01*
X112427003Y-78845974D01*
X112426301Y-78845541D01*
X112425921Y-78845118D01*
X112421336Y-78841493D01*
X112421955Y-78840709D01*
X112379575Y-78793598D01*
X112368349Y-78724636D01*
X112396188Y-78660552D01*
X112421455Y-78638657D01*
X112421336Y-78638507D01*
X112424687Y-78635856D01*
X112426299Y-78634459D01*
X112427003Y-78634026D01*
X112521711Y-78539318D01*
X112583035Y-78505834D01*
X112609392Y-78503000D01*
X116752608Y-78503000D01*
X116819647Y-78522685D01*
G37*
%TD.AperFunction*%
%TA.AperFunction,Conductor*%
G36*
X130502539Y-74180185D02*
G01*
X130548294Y-74232989D01*
X130559500Y-74284500D01*
X130559500Y-115035500D01*
X130539815Y-115102539D01*
X130487011Y-115148294D01*
X130435500Y-115159500D01*
X99684500Y-115159500D01*
X99617461Y-115139815D01*
X99571706Y-115087011D01*
X99560500Y-115035500D01*
X99560500Y-112100000D01*
X106954000Y-112100000D01*
X106954000Y-112647844D01*
X106960401Y-112707372D01*
X106960403Y-112707379D01*
X107010645Y-112842086D01*
X107010649Y-112842093D01*
X107096809Y-112957187D01*
X107096812Y-112957190D01*
X107211906Y-113043350D01*
X107211913Y-113043354D01*
X107346620Y-113093596D01*
X107346627Y-113093598D01*
X107406155Y-113099999D01*
X107406172Y-113100000D01*
X107954000Y-113100000D01*
X107954000Y-112100000D01*
X108454000Y-112100000D01*
X108454000Y-113100000D01*
X109001828Y-113100000D01*
X109001844Y-113099999D01*
X109061372Y-113093598D01*
X109061379Y-113093596D01*
X109196086Y-113043354D01*
X109196093Y-113043350D01*
X109311187Y-112957190D01*
X109311190Y-112957187D01*
X109397350Y-112842093D01*
X109397354Y-112842086D01*
X109447596Y-112707379D01*
X109447598Y-112707372D01*
X109453999Y-112647844D01*
X109454000Y-112647827D01*
X109454000Y-112100000D01*
X120670000Y-112100000D01*
X120670000Y-112647844D01*
X120676401Y-112707372D01*
X120676403Y-112707379D01*
X120726645Y-112842086D01*
X120726649Y-112842093D01*
X120812809Y-112957187D01*
X120812812Y-112957190D01*
X120927906Y-113043350D01*
X120927913Y-113043354D01*
X121062620Y-113093596D01*
X121062627Y-113093598D01*
X121122155Y-113099999D01*
X121122172Y-113100000D01*
X121670000Y-113100000D01*
X121670000Y-112100000D01*
X122170000Y-112100000D01*
X122170000Y-113100000D01*
X122717828Y-113100000D01*
X122717844Y-113099999D01*
X122777372Y-113093598D01*
X122777379Y-113093596D01*
X122912086Y-113043354D01*
X122912093Y-113043350D01*
X123027187Y-112957190D01*
X123027190Y-112957187D01*
X123113350Y-112842093D01*
X123113354Y-112842086D01*
X123163596Y-112707379D01*
X123163598Y-112707372D01*
X123169999Y-112647844D01*
X123170000Y-112647827D01*
X123170000Y-112100000D01*
X122170000Y-112100000D01*
X121670000Y-112100000D01*
X120670000Y-112100000D01*
X109454000Y-112100000D01*
X108454000Y-112100000D01*
X107954000Y-112100000D01*
X106954000Y-112100000D01*
X99560500Y-112100000D01*
X99560500Y-111600000D01*
X106954000Y-111600000D01*
X107954000Y-111600000D01*
X107954000Y-110600000D01*
X108454000Y-110600000D01*
X108454000Y-111600000D01*
X109454000Y-111600000D01*
X120670000Y-111600000D01*
X121670000Y-111600000D01*
X121670000Y-110600000D01*
X122170000Y-110600000D01*
X122170000Y-111600000D01*
X123170000Y-111600000D01*
X123170000Y-111052172D01*
X123169999Y-111052155D01*
X123163598Y-110992627D01*
X123163596Y-110992620D01*
X123113354Y-110857913D01*
X123113350Y-110857906D01*
X123027190Y-110742812D01*
X123027187Y-110742809D01*
X122912093Y-110656649D01*
X122912086Y-110656645D01*
X122777379Y-110606403D01*
X122777372Y-110606401D01*
X122717844Y-110600000D01*
X122170000Y-110600000D01*
X121670000Y-110600000D01*
X121122155Y-110600000D01*
X121062627Y-110606401D01*
X121062620Y-110606403D01*
X120927913Y-110656645D01*
X120927906Y-110656649D01*
X120812812Y-110742809D01*
X120812809Y-110742812D01*
X120726649Y-110857906D01*
X120726645Y-110857913D01*
X120676403Y-110992620D01*
X120676401Y-110992627D01*
X120670000Y-111052155D01*
X120670000Y-111600000D01*
X109454000Y-111600000D01*
X109454000Y-111052172D01*
X109453999Y-111052155D01*
X109447598Y-110992627D01*
X109447596Y-110992620D01*
X109397354Y-110857913D01*
X109397350Y-110857906D01*
X109311190Y-110742812D01*
X109311187Y-110742809D01*
X109196093Y-110656649D01*
X109196086Y-110656645D01*
X109061379Y-110606403D01*
X109061372Y-110606401D01*
X109001844Y-110600000D01*
X108454000Y-110600000D01*
X107954000Y-110600000D01*
X107406155Y-110600000D01*
X107346627Y-110606401D01*
X107346620Y-110606403D01*
X107211913Y-110656645D01*
X107211906Y-110656649D01*
X107096812Y-110742809D01*
X107096809Y-110742812D01*
X107010649Y-110857906D01*
X107010645Y-110857913D01*
X106960403Y-110992620D01*
X106960401Y-110992627D01*
X106954000Y-111052155D01*
X106954000Y-111600000D01*
X99560500Y-111600000D01*
X99560500Y-93050000D01*
X106954000Y-93050000D01*
X106954000Y-93597844D01*
X106960401Y-93657372D01*
X106960403Y-93657379D01*
X107010645Y-93792086D01*
X107010649Y-93792093D01*
X107096809Y-93907187D01*
X107096812Y-93907190D01*
X107211906Y-93993350D01*
X107211913Y-93993354D01*
X107346620Y-94043596D01*
X107346627Y-94043598D01*
X107406155Y-94049999D01*
X107406172Y-94050000D01*
X107954000Y-94050000D01*
X107954000Y-93050000D01*
X108454000Y-93050000D01*
X108454000Y-94050000D01*
X109001828Y-94050000D01*
X109001844Y-94049999D01*
X109061372Y-94043598D01*
X109061379Y-94043596D01*
X109196086Y-93993354D01*
X109196093Y-93993350D01*
X109311187Y-93907190D01*
X109311190Y-93907187D01*
X109397350Y-93792093D01*
X109397354Y-93792086D01*
X109447596Y-93657379D01*
X109447598Y-93657372D01*
X109453999Y-93597844D01*
X109454000Y-93597827D01*
X109454000Y-93050000D01*
X108454000Y-93050000D01*
X107954000Y-93050000D01*
X106954000Y-93050000D01*
X99560500Y-93050000D01*
X99560500Y-92550000D01*
X106954000Y-92550000D01*
X107954000Y-92550000D01*
X107954000Y-91550000D01*
X108454000Y-91550000D01*
X108454000Y-92550000D01*
X109454000Y-92550000D01*
X109454000Y-92002172D01*
X109453999Y-92002155D01*
X109447598Y-91942627D01*
X109447596Y-91942620D01*
X109397354Y-91807913D01*
X109397350Y-91807906D01*
X109311190Y-91692812D01*
X109311187Y-91692809D01*
X109196093Y-91606649D01*
X109196086Y-91606645D01*
X109061379Y-91556403D01*
X109061372Y-91556401D01*
X109001844Y-91550000D01*
X108454000Y-91550000D01*
X107954000Y-91550000D01*
X107406155Y-91550000D01*
X107346627Y-91556401D01*
X107346620Y-91556403D01*
X107211913Y-91606645D01*
X107211906Y-91606649D01*
X107096812Y-91692809D01*
X107096809Y-91692812D01*
X107010649Y-91807906D01*
X107010645Y-91807913D01*
X106960403Y-91942620D01*
X106960401Y-91942627D01*
X106954000Y-92002155D01*
X106954000Y-92550000D01*
X99560500Y-92550000D01*
X99560500Y-79970855D01*
X103955500Y-79970855D01*
X103965913Y-80072776D01*
X104020637Y-80237922D01*
X104020642Y-80237933D01*
X104111971Y-80385999D01*
X104111974Y-80386003D01*
X104234996Y-80509025D01*
X104235000Y-80509028D01*
X104383066Y-80600357D01*
X104383069Y-80600358D01*
X104383075Y-80600362D01*
X104548225Y-80655087D01*
X104650152Y-80665500D01*
X104650157Y-80665500D01*
X105661843Y-80665500D01*
X105661848Y-80665500D01*
X105763775Y-80655087D01*
X105928925Y-80600362D01*
X106077003Y-80509026D01*
X106171711Y-80414318D01*
X106233035Y-80380834D01*
X106259392Y-80378000D01*
X110402608Y-80378000D01*
X110469647Y-80397685D01*
X110490288Y-80414317D01*
X110584997Y-80509026D01*
X110584999Y-80509027D01*
X110585000Y-80509028D01*
X110733066Y-80600357D01*
X110733069Y-80600358D01*
X110733075Y-80600362D01*
X110898225Y-80655087D01*
X111000152Y-80665500D01*
X111119481Y-80665500D01*
X111186520Y-80685185D01*
X111207162Y-80701819D01*
X114394259Y-83888916D01*
X114427744Y-83950239D01*
X114422760Y-84019931D01*
X114380888Y-84075864D01*
X114315424Y-84100281D01*
X114293611Y-84099917D01*
X114289646Y-84099500D01*
X114100354Y-84099500D01*
X114087788Y-84102171D01*
X113915197Y-84138855D01*
X113915192Y-84138857D01*
X113742270Y-84215848D01*
X113742265Y-84215851D01*
X113659729Y-84275818D01*
X113593923Y-84299298D01*
X113586844Y-84299500D01*
X109576351Y-84299500D01*
X109509312Y-84279815D01*
X109463557Y-84227011D01*
X109453061Y-84188752D01*
X109448091Y-84142516D01*
X109397797Y-84007671D01*
X109397793Y-84007664D01*
X109311547Y-83892455D01*
X109311544Y-83892452D01*
X109196335Y-83806206D01*
X109196328Y-83806202D01*
X109061482Y-83755908D01*
X109061483Y-83755908D01*
X109001883Y-83749501D01*
X109001881Y-83749500D01*
X109001873Y-83749500D01*
X109001864Y-83749500D01*
X107406129Y-83749500D01*
X107406123Y-83749501D01*
X107346516Y-83755908D01*
X107211671Y-83806202D01*
X107211664Y-83806206D01*
X107096455Y-83892452D01*
X107096452Y-83892455D01*
X107010206Y-84007664D01*
X107010202Y-84007671D01*
X106959908Y-84142517D01*
X106953501Y-84202116D01*
X106953500Y-84202135D01*
X106953500Y-85797870D01*
X106953501Y-85797876D01*
X106959908Y-85857483D01*
X107010202Y-85992328D01*
X107010206Y-85992335D01*
X107096452Y-86107544D01*
X107096455Y-86107547D01*
X107211664Y-86193793D01*
X107211671Y-86193797D01*
X107346517Y-86244091D01*
X107346516Y-86244091D01*
X107353444Y-86244835D01*
X107406127Y-86250500D01*
X109001872Y-86250499D01*
X109061483Y-86244091D01*
X109196331Y-86193796D01*
X109311546Y-86107546D01*
X109397796Y-85992331D01*
X109448091Y-85857483D01*
X109453062Y-85811242D01*
X109479799Y-85746694D01*
X109537191Y-85706846D01*
X109576351Y-85700500D01*
X113586844Y-85700500D01*
X113653883Y-85720185D01*
X113659729Y-85724182D01*
X113742265Y-85784148D01*
X113742270Y-85784151D01*
X113915191Y-85861142D01*
X113915193Y-85861142D01*
X113915197Y-85861144D01*
X114070130Y-85894075D01*
X114131607Y-85927266D01*
X114132026Y-85927683D01*
X114833181Y-86628838D01*
X114866666Y-86690161D01*
X114869500Y-86716519D01*
X114869500Y-86926868D01*
X114849815Y-86993907D01*
X114802724Y-87035041D01*
X114803221Y-87035846D01*
X114798400Y-87038819D01*
X114797911Y-87039247D01*
X114797075Y-87039636D01*
X114649000Y-87130971D01*
X114648996Y-87130974D01*
X114525974Y-87253996D01*
X114525971Y-87254000D01*
X114434642Y-87402066D01*
X114434638Y-87402075D01*
X114416837Y-87455796D01*
X114377064Y-87513240D01*
X114312548Y-87540063D01*
X114243772Y-87527748D01*
X114192572Y-87480204D01*
X114181425Y-87455796D01*
X114164814Y-87405666D01*
X114072712Y-87256344D01*
X113948656Y-87132288D01*
X113799334Y-87040186D01*
X113632797Y-86985001D01*
X113632795Y-86985000D01*
X113530010Y-86974500D01*
X112529998Y-86974500D01*
X112529980Y-86974501D01*
X112427203Y-86985000D01*
X112427200Y-86985001D01*
X112260668Y-87040185D01*
X112260663Y-87040187D01*
X112111342Y-87132289D01*
X111987289Y-87256342D01*
X111895187Y-87405663D01*
X111895185Y-87405668D01*
X111867349Y-87489670D01*
X111840001Y-87572203D01*
X111840001Y-87572204D01*
X111840000Y-87572204D01*
X111829500Y-87674983D01*
X111829500Y-88300001D01*
X111829501Y-88300019D01*
X111840000Y-88402796D01*
X111840001Y-88402799D01*
X111868375Y-88488425D01*
X111895186Y-88569334D01*
X111985341Y-88715500D01*
X111987289Y-88718657D01*
X112080951Y-88812319D01*
X112114436Y-88873642D01*
X112109452Y-88943334D01*
X112080951Y-88987681D01*
X111987289Y-89081342D01*
X111895187Y-89230663D01*
X111895186Y-89230666D01*
X111840001Y-89397203D01*
X111840001Y-89397204D01*
X111840000Y-89397204D01*
X111829500Y-89499983D01*
X111829500Y-90125001D01*
X111829501Y-90125019D01*
X111840000Y-90227796D01*
X111840001Y-90227799D01*
X111895185Y-90394331D01*
X111895187Y-90394336D01*
X111908561Y-90416019D01*
X111987288Y-90543656D01*
X112111344Y-90667712D01*
X112260666Y-90759814D01*
X112427203Y-90814999D01*
X112529991Y-90825500D01*
X113000980Y-90825499D01*
X113068019Y-90845183D01*
X113088661Y-90861818D01*
X113730995Y-91504152D01*
X113764480Y-91565475D01*
X113766634Y-91578869D01*
X113771825Y-91628249D01*
X113771827Y-91628260D01*
X113830318Y-91808277D01*
X113830321Y-91808284D01*
X113924966Y-91972215D01*
X113925148Y-91972417D01*
X113925216Y-91972559D01*
X113928785Y-91977471D01*
X113927886Y-91978123D01*
X113955379Y-92035408D01*
X113957000Y-92055391D01*
X113957000Y-99148000D01*
X113937315Y-99215039D01*
X113884511Y-99260794D01*
X113833000Y-99272000D01*
X111868730Y-99272000D01*
X111801691Y-99252315D01*
X111781049Y-99235681D01*
X111693049Y-99147681D01*
X111659564Y-99086358D01*
X111664548Y-99016666D01*
X111693049Y-98972319D01*
X111711344Y-98954024D01*
X111786712Y-98878656D01*
X111878814Y-98729334D01*
X111933999Y-98562797D01*
X111944500Y-98460009D01*
X111944499Y-97834992D01*
X111943902Y-97829152D01*
X111933999Y-97732203D01*
X111933998Y-97732200D01*
X111909917Y-97659528D01*
X111878814Y-97565666D01*
X111786712Y-97416344D01*
X111662656Y-97292288D01*
X111513334Y-97200186D01*
X111346797Y-97145001D01*
X111346795Y-97145000D01*
X111244010Y-97134500D01*
X110243998Y-97134500D01*
X110243980Y-97134501D01*
X110141203Y-97145000D01*
X110141200Y-97145001D01*
X109974668Y-97200185D01*
X109974663Y-97200187D01*
X109825342Y-97292289D01*
X109731951Y-97385681D01*
X109670628Y-97419166D01*
X109644270Y-97422000D01*
X109307392Y-97422000D01*
X109240353Y-97402315D01*
X109219711Y-97385682D01*
X109219710Y-97385681D01*
X109125003Y-97290974D01*
X109125000Y-97290972D01*
X109124999Y-97290971D01*
X108976933Y-97199642D01*
X108976927Y-97199639D01*
X108976925Y-97199638D01*
X108976922Y-97199637D01*
X108811776Y-97144913D01*
X108709855Y-97134500D01*
X108709848Y-97134500D01*
X107698152Y-97134500D01*
X107698144Y-97134500D01*
X107596223Y-97144913D01*
X107431077Y-97199637D01*
X107431066Y-97199642D01*
X107283000Y-97290971D01*
X107282996Y-97290974D01*
X107159974Y-97413996D01*
X107159971Y-97414000D01*
X107068642Y-97562066D01*
X107068637Y-97562077D01*
X107013913Y-97727223D01*
X107003500Y-97829144D01*
X107003500Y-98415855D01*
X107013913Y-98517776D01*
X107068637Y-98682922D01*
X107068642Y-98682933D01*
X107159971Y-98830999D01*
X107159974Y-98831003D01*
X107282996Y-98954025D01*
X107283000Y-98954028D01*
X107283703Y-98954462D01*
X107284083Y-98954885D01*
X107288664Y-98958507D01*
X107288045Y-98959289D01*
X107330428Y-99006410D01*
X107341649Y-99075372D01*
X107313806Y-99139454D01*
X107288544Y-99161342D01*
X107288664Y-99161493D01*
X107285315Y-99164140D01*
X107283703Y-99165538D01*
X107283000Y-99165971D01*
X107282996Y-99165974D01*
X107159974Y-99288996D01*
X107159971Y-99289000D01*
X107068642Y-99437066D01*
X107068637Y-99437077D01*
X107013913Y-99602223D01*
X107003500Y-99704144D01*
X107003500Y-100290855D01*
X107013913Y-100392776D01*
X107068637Y-100557922D01*
X107068642Y-100557933D01*
X107159971Y-100705999D01*
X107159974Y-100706003D01*
X107282996Y-100829025D01*
X107283000Y-100829028D01*
X107431066Y-100920357D01*
X107431069Y-100920358D01*
X107431075Y-100920362D01*
X107431080Y-100920363D01*
X107431892Y-100920742D01*
X107432364Y-100921157D01*
X107437222Y-100924154D01*
X107436710Y-100924983D01*
X107484336Y-100966908D01*
X107503500Y-101033130D01*
X107503500Y-102677648D01*
X107483815Y-102744687D01*
X107431011Y-102790442D01*
X107392755Y-102800938D01*
X107346516Y-102805909D01*
X107211671Y-102856202D01*
X107211664Y-102856206D01*
X107096455Y-102942452D01*
X107096452Y-102942455D01*
X107010206Y-103057664D01*
X107010202Y-103057671D01*
X106959908Y-103192517D01*
X106953501Y-103252116D01*
X106953501Y-103252123D01*
X106953500Y-103252135D01*
X106953500Y-104847870D01*
X106953501Y-104847876D01*
X106959908Y-104907483D01*
X107010202Y-105042328D01*
X107010206Y-105042335D01*
X107096452Y-105157544D01*
X107096455Y-105157547D01*
X107211664Y-105243793D01*
X107211671Y-105243797D01*
X107256618Y-105260561D01*
X107346517Y-105294091D01*
X107406127Y-105300500D01*
X107476664Y-105300499D01*
X107543703Y-105320183D01*
X107577758Y-105357137D01*
X107579841Y-105355746D01*
X107659887Y-105475545D01*
X109408454Y-107224112D01*
X109523192Y-107300777D01*
X109650667Y-107353578D01*
X109650672Y-107353580D01*
X109650676Y-107353580D01*
X109650677Y-107353581D01*
X109786003Y-107380500D01*
X109786006Y-107380500D01*
X123886496Y-107380500D01*
X123977540Y-107362389D01*
X124021828Y-107353580D01*
X124085569Y-107327177D01*
X124149307Y-107300777D01*
X124149308Y-107300776D01*
X124149311Y-107300775D01*
X124264043Y-107224114D01*
X127086914Y-104401243D01*
X127163575Y-104286511D01*
X127216380Y-104159029D01*
X127216380Y-104159025D01*
X127216382Y-104159022D01*
X127221734Y-104132111D01*
X127221734Y-104132109D01*
X127243300Y-104023693D01*
X127243433Y-104022344D01*
X127243700Y-104021682D01*
X127244489Y-104017717D01*
X127245241Y-104017866D01*
X127269595Y-103957557D01*
X127326630Y-103917198D01*
X127366836Y-103910499D01*
X127440671Y-103910499D01*
X127440672Y-103910499D01*
X127500283Y-103904091D01*
X127635131Y-103853796D01*
X127750346Y-103767546D01*
X127836596Y-103652331D01*
X127886891Y-103517483D01*
X127893300Y-103457873D01*
X127893299Y-101662128D01*
X127886891Y-101602517D01*
X127836596Y-101467669D01*
X127836595Y-101467668D01*
X127836593Y-101467664D01*
X127750347Y-101352455D01*
X127750344Y-101352452D01*
X127635135Y-101266206D01*
X127635128Y-101266202D01*
X127503717Y-101217189D01*
X127447783Y-101175318D01*
X127423366Y-101109853D01*
X127438218Y-101041580D01*
X127459363Y-101013332D01*
X127581295Y-100891401D01*
X127716835Y-100697830D01*
X127816703Y-100483663D01*
X127877863Y-100255408D01*
X127898459Y-100020000D01*
X127877863Y-99784592D01*
X127816703Y-99556337D01*
X127716835Y-99342171D01*
X127694483Y-99310248D01*
X127581294Y-99148597D01*
X127414202Y-98981506D01*
X127414196Y-98981501D01*
X127228642Y-98851575D01*
X127185017Y-98796998D01*
X127177823Y-98727500D01*
X127209346Y-98665145D01*
X127228642Y-98648425D01*
X127350931Y-98562797D01*
X127414201Y-98518495D01*
X127581295Y-98351401D01*
X127716835Y-98157830D01*
X127816703Y-97943663D01*
X127877863Y-97715408D01*
X127898459Y-97480000D01*
X127877863Y-97244592D01*
X127816703Y-97016337D01*
X127716835Y-96802171D01*
X127648446Y-96704500D01*
X127581294Y-96608597D01*
X127414202Y-96441506D01*
X127414196Y-96441501D01*
X127228642Y-96311575D01*
X127185017Y-96256998D01*
X127177823Y-96187500D01*
X127209346Y-96125145D01*
X127228642Y-96108425D01*
X127250826Y-96092891D01*
X127414201Y-95978495D01*
X127581295Y-95811401D01*
X127716835Y-95617830D01*
X127816703Y-95403663D01*
X127877863Y-95175408D01*
X127898459Y-94940000D01*
X127877863Y-94704592D01*
X127816703Y-94476337D01*
X127716835Y-94262171D01*
X127581295Y-94068599D01*
X127581294Y-94068597D01*
X127414202Y-93901506D01*
X127414201Y-93901505D01*
X127228205Y-93771269D01*
X127184581Y-93716692D01*
X127177388Y-93647193D01*
X127208910Y-93584839D01*
X127228205Y-93568119D01*
X127413882Y-93438105D01*
X127580905Y-93271082D01*
X127716400Y-93077578D01*
X127816229Y-92863492D01*
X127816232Y-92863486D01*
X127873436Y-92650000D01*
X126975812Y-92650000D01*
X127008725Y-92592993D01*
X127042800Y-92465826D01*
X127042800Y-92334174D01*
X127008725Y-92207007D01*
X126975812Y-92150000D01*
X127873436Y-92150000D01*
X127873435Y-92149999D01*
X127816232Y-91936513D01*
X127816229Y-91936507D01*
X127716400Y-91722422D01*
X127716399Y-91722420D01*
X127580913Y-91528926D01*
X127580908Y-91528920D01*
X127413878Y-91361890D01*
X127228205Y-91231879D01*
X127184580Y-91177302D01*
X127177388Y-91107804D01*
X127208910Y-91045449D01*
X127228206Y-91028730D01*
X127349784Y-90943600D01*
X127414201Y-90898495D01*
X127581295Y-90731401D01*
X127716835Y-90537830D01*
X127816703Y-90323663D01*
X127877863Y-90095408D01*
X127898459Y-89860000D01*
X127877863Y-89624592D01*
X127816703Y-89396337D01*
X127716835Y-89182171D01*
X127694483Y-89150248D01*
X127581294Y-88988597D01*
X127414202Y-88821506D01*
X127414196Y-88821501D01*
X127228642Y-88691575D01*
X127185017Y-88636998D01*
X127177823Y-88567500D01*
X127209346Y-88505145D01*
X127228642Y-88488425D01*
X127350931Y-88402797D01*
X127414201Y-88358495D01*
X127581295Y-88191401D01*
X127716835Y-87997830D01*
X127816703Y-87783663D01*
X127877863Y-87555408D01*
X127898459Y-87320000D01*
X127877863Y-87084592D01*
X127816703Y-86856337D01*
X127716835Y-86642171D01*
X127707500Y-86628838D01*
X127581294Y-86448597D01*
X127414202Y-86281506D01*
X127414196Y-86281501D01*
X127228642Y-86151575D01*
X127185017Y-86096998D01*
X127177823Y-86027500D01*
X127209346Y-85965145D01*
X127228642Y-85948425D01*
X127257176Y-85928445D01*
X127414201Y-85818495D01*
X127581295Y-85651401D01*
X127716835Y-85457830D01*
X127816703Y-85243663D01*
X127877863Y-85015408D01*
X127898459Y-84780000D01*
X127895503Y-84746219D01*
X127890630Y-84690520D01*
X127877863Y-84544592D01*
X127816703Y-84316337D01*
X127716835Y-84102171D01*
X127659251Y-84019931D01*
X127581294Y-83908597D01*
X127414202Y-83741506D01*
X127414195Y-83741501D01*
X127220634Y-83605967D01*
X127220630Y-83605965D01*
X127220628Y-83605964D01*
X127006463Y-83506097D01*
X127006459Y-83506096D01*
X127006455Y-83506094D01*
X126778213Y-83444938D01*
X126778203Y-83444936D01*
X126542801Y-83424341D01*
X126542799Y-83424341D01*
X126307396Y-83444936D01*
X126307386Y-83444938D01*
X126079144Y-83506094D01*
X126079135Y-83506098D01*
X125864971Y-83605964D01*
X125864969Y-83605965D01*
X125671397Y-83741505D01*
X125504305Y-83908597D01*
X125368765Y-84102169D01*
X125368764Y-84102171D01*
X125268898Y-84316335D01*
X125268894Y-84316344D01*
X125207738Y-84544586D01*
X125207736Y-84544596D01*
X125187141Y-84779999D01*
X125187141Y-84780000D01*
X125207736Y-85015403D01*
X125207738Y-85015413D01*
X125268894Y-85243655D01*
X125268896Y-85243659D01*
X125268897Y-85243663D01*
X125368765Y-85457830D01*
X125368767Y-85457834D01*
X125504301Y-85651395D01*
X125504306Y-85651402D01*
X125671397Y-85818493D01*
X125671403Y-85818498D01*
X125856958Y-85948425D01*
X125900583Y-86003002D01*
X125907777Y-86072500D01*
X125876254Y-86134855D01*
X125856958Y-86151575D01*
X125671397Y-86281505D01*
X125504305Y-86448597D01*
X125368765Y-86642169D01*
X125368764Y-86642171D01*
X125268898Y-86856335D01*
X125268894Y-86856344D01*
X125207738Y-87084586D01*
X125207736Y-87084596D01*
X125187141Y-87319999D01*
X125187141Y-87320000D01*
X125207736Y-87555403D01*
X125207738Y-87555413D01*
X125268894Y-87783655D01*
X125268896Y-87783659D01*
X125268897Y-87783663D01*
X125368765Y-87997830D01*
X125368767Y-87997834D01*
X125504301Y-88191395D01*
X125504306Y-88191402D01*
X125671397Y-88358493D01*
X125671403Y-88358498D01*
X125856958Y-88488425D01*
X125900583Y-88543002D01*
X125907777Y-88612500D01*
X125876254Y-88674855D01*
X125856958Y-88691575D01*
X125671397Y-88821505D01*
X125504306Y-88988596D01*
X125421664Y-89106623D01*
X125367087Y-89150248D01*
X125320089Y-89159500D01*
X123856937Y-89159500D01*
X123789898Y-89139815D01*
X123751398Y-89100596D01*
X123687712Y-88997344D01*
X123563657Y-88873289D01*
X123563656Y-88873288D01*
X123414334Y-88781186D01*
X123247797Y-88726001D01*
X123247795Y-88726000D01*
X123145010Y-88715500D01*
X122519998Y-88715500D01*
X122519980Y-88715501D01*
X122417203Y-88726000D01*
X122417200Y-88726001D01*
X122250668Y-88781185D01*
X122250663Y-88781187D01*
X122101342Y-88873289D01*
X122007681Y-88966951D01*
X121946358Y-89000436D01*
X121876666Y-88995452D01*
X121832319Y-88966951D01*
X121744319Y-88878951D01*
X121710834Y-88817628D01*
X121708000Y-88791270D01*
X121708000Y-86344019D01*
X121727685Y-86276980D01*
X121744319Y-86256338D01*
X126274112Y-81726545D01*
X126274114Y-81726543D01*
X126350775Y-81611811D01*
X126403580Y-81484328D01*
X126430500Y-81348994D01*
X126430500Y-81211006D01*
X126430500Y-78671007D01*
X126430500Y-78671004D01*
X126403581Y-78535677D01*
X126403580Y-78535676D01*
X126403580Y-78535672D01*
X126390047Y-78503000D01*
X126350777Y-78408192D01*
X126274112Y-78293454D01*
X126274111Y-78293453D01*
X125420934Y-77440277D01*
X125390909Y-77391600D01*
X125341362Y-77242075D01*
X125341358Y-77242069D01*
X125341357Y-77242066D01*
X125250028Y-77094000D01*
X125250025Y-77093996D01*
X125127003Y-76970974D01*
X125126999Y-76970971D01*
X124978933Y-76879642D01*
X124978927Y-76879639D01*
X124978925Y-76879638D01*
X124978922Y-76879637D01*
X124813776Y-76824913D01*
X124711855Y-76814500D01*
X124711848Y-76814500D01*
X123700152Y-76814500D01*
X123700144Y-76814500D01*
X123598223Y-76824913D01*
X123433077Y-76879637D01*
X123433066Y-76879642D01*
X123285000Y-76970971D01*
X123190289Y-77065682D01*
X123128965Y-77099166D01*
X123102608Y-77102000D01*
X118959392Y-77102000D01*
X118892353Y-77082315D01*
X118871711Y-77065682D01*
X118777003Y-76970974D01*
X118777000Y-76970972D01*
X118776999Y-76970971D01*
X118628933Y-76879642D01*
X118628927Y-76879639D01*
X118628925Y-76879638D01*
X118628922Y-76879637D01*
X118463776Y-76824913D01*
X118361855Y-76814500D01*
X118361848Y-76814500D01*
X117350152Y-76814500D01*
X117350144Y-76814500D01*
X117248223Y-76824913D01*
X117083077Y-76879637D01*
X117083066Y-76879642D01*
X116935000Y-76970971D01*
X116840289Y-77065682D01*
X116778965Y-77099166D01*
X116752608Y-77102000D01*
X112609392Y-77102000D01*
X112542353Y-77082315D01*
X112521711Y-77065682D01*
X112427003Y-76970974D01*
X112427000Y-76970972D01*
X112426999Y-76970971D01*
X112278933Y-76879642D01*
X112278927Y-76879639D01*
X112278925Y-76879638D01*
X112278922Y-76879637D01*
X112113776Y-76824913D01*
X112011855Y-76814500D01*
X112011848Y-76814500D01*
X111000152Y-76814500D01*
X111000144Y-76814500D01*
X110898223Y-76824913D01*
X110733077Y-76879637D01*
X110733066Y-76879642D01*
X110585000Y-76970971D01*
X110490289Y-77065682D01*
X110428965Y-77099166D01*
X110402608Y-77102000D01*
X106259392Y-77102000D01*
X106192353Y-77082315D01*
X106171711Y-77065682D01*
X106077003Y-76970974D01*
X106077000Y-76970972D01*
X106076999Y-76970971D01*
X105928933Y-76879642D01*
X105928927Y-76879639D01*
X105928925Y-76879638D01*
X105928922Y-76879637D01*
X105763776Y-76824913D01*
X105661855Y-76814500D01*
X105661848Y-76814500D01*
X104650152Y-76814500D01*
X104650144Y-76814500D01*
X104548223Y-76824913D01*
X104383077Y-76879637D01*
X104383066Y-76879642D01*
X104235000Y-76970971D01*
X104234996Y-76970974D01*
X104111974Y-77093996D01*
X104111971Y-77094000D01*
X104020642Y-77242066D01*
X104020637Y-77242077D01*
X103965913Y-77407223D01*
X103955500Y-77509144D01*
X103955500Y-78095855D01*
X103965913Y-78197776D01*
X104020637Y-78362922D01*
X104020642Y-78362933D01*
X104111971Y-78510999D01*
X104111974Y-78511003D01*
X104234996Y-78634025D01*
X104235000Y-78634028D01*
X104235703Y-78634462D01*
X104236083Y-78634885D01*
X104240664Y-78638507D01*
X104240045Y-78639289D01*
X104282428Y-78686410D01*
X104293649Y-78755372D01*
X104265806Y-78819454D01*
X104240544Y-78841342D01*
X104240664Y-78841493D01*
X104237315Y-78844140D01*
X104235703Y-78845538D01*
X104235000Y-78845971D01*
X104234996Y-78845974D01*
X104111974Y-78968996D01*
X104111971Y-78969000D01*
X104020642Y-79117066D01*
X104020637Y-79117077D01*
X103965913Y-79282223D01*
X103955500Y-79384144D01*
X103955500Y-79970855D01*
X99560500Y-79970855D01*
X99560500Y-74284500D01*
X99580185Y-74217461D01*
X99632989Y-74171706D01*
X99684500Y-74160500D01*
X130435500Y-74160500D01*
X130502539Y-74180185D01*
G37*
%TD.AperFunction*%
%TD*%
M02*
