%TF.GenerationSoftware,KiCad,Pcbnew,8.0.1*%
%TF.CreationDate,2024-04-26T00:23:44+02:00*%
%TF.ProjectId,controller_lpc1115_2MU_v1.04,636f6e74-726f-46c6-9c65-725f6c706331,rev?*%
%TF.SameCoordinates,Original*%
%TF.FileFunction,Copper,L1,Top*%
%TF.FilePolarity,Positive*%
%FSLAX46Y46*%
G04 Gerber Fmt 4.6, Leading zero omitted, Abs format (unit mm)*
G04 Created by KiCad (PCBNEW 8.0.1) date 2024-04-26 00:23:44*
%MOMM*%
%LPD*%
G01*
G04 APERTURE LIST*
G04 Aperture macros list*
%AMRoundRect*
0 Rectangle with rounded corners*
0 $1 Rounding radius*
0 $2 $3 $4 $5 $6 $7 $8 $9 X,Y pos of 4 corners*
0 Add a 4 corners polygon primitive as box body*
4,1,4,$2,$3,$4,$5,$6,$7,$8,$9,$2,$3,0*
0 Add four circle primitives for the rounded corners*
1,1,$1+$1,$2,$3*
1,1,$1+$1,$4,$5*
1,1,$1+$1,$6,$7*
1,1,$1+$1,$8,$9*
0 Add four rect primitives between the rounded corners*
20,1,$1+$1,$2,$3,$4,$5,0*
20,1,$1+$1,$4,$5,$6,$7,0*
20,1,$1+$1,$6,$7,$8,$9,0*
20,1,$1+$1,$8,$9,$2,$3,0*%
G04 Aperture macros list end*
%ADD10C,0.150000*%
%TA.AperFunction,NonConductor*%
%ADD11C,0.150000*%
%TD*%
%TA.AperFunction,SMDPad,CuDef*%
%ADD12RoundRect,0.250000X-0.450000X0.262500X-0.450000X-0.262500X0.450000X-0.262500X0.450000X0.262500X0*%
%TD*%
%TA.AperFunction,SMDPad,CuDef*%
%ADD13C,1.000000*%
%TD*%
%TA.AperFunction,SMDPad,CuDef*%
%ADD14RoundRect,0.250000X0.262500X0.450000X-0.262500X0.450000X-0.262500X-0.450000X0.262500X-0.450000X0*%
%TD*%
%TA.AperFunction,ComponentPad*%
%ADD15R,1.700000X1.700000*%
%TD*%
%TA.AperFunction,ComponentPad*%
%ADD16O,1.700000X1.700000*%
%TD*%
%TA.AperFunction,ComponentPad*%
%ADD17C,1.700000*%
%TD*%
%TA.AperFunction,SMDPad,CuDef*%
%ADD18RoundRect,0.250000X-0.475000X0.250000X-0.475000X-0.250000X0.475000X-0.250000X0.475000X0.250000X0*%
%TD*%
%TA.AperFunction,SMDPad,CuDef*%
%ADD19RoundRect,0.150000X0.512500X0.150000X-0.512500X0.150000X-0.512500X-0.150000X0.512500X-0.150000X0*%
%TD*%
%TA.AperFunction,SMDPad,CuDef*%
%ADD20RoundRect,0.250000X-0.250000X-0.475000X0.250000X-0.475000X0.250000X0.475000X-0.250000X0.475000X0*%
%TD*%
%TA.AperFunction,SMDPad,CuDef*%
%ADD21RoundRect,0.375000X0.375000X-0.625000X0.375000X0.625000X-0.375000X0.625000X-0.375000X-0.625000X0*%
%TD*%
%TA.AperFunction,SMDPad,CuDef*%
%ADD22RoundRect,0.500000X1.400000X-0.500000X1.400000X0.500000X-1.400000X0.500000X-1.400000X-0.500000X0*%
%TD*%
%TA.AperFunction,ComponentPad*%
%ADD23R,1.350000X1.350000*%
%TD*%
%TA.AperFunction,ComponentPad*%
%ADD24O,1.350000X1.350000*%
%TD*%
%TA.AperFunction,SMDPad,CuDef*%
%ADD25RoundRect,0.250000X0.250000X0.475000X-0.250000X0.475000X-0.250000X-0.475000X0.250000X-0.475000X0*%
%TD*%
%TA.AperFunction,ComponentPad*%
%ADD26R,1.600000X1.600000*%
%TD*%
%TA.AperFunction,ComponentPad*%
%ADD27C,1.600000*%
%TD*%
%TA.AperFunction,SMDPad,CuDef*%
%ADD28RoundRect,0.225000X-0.375000X0.225000X-0.375000X-0.225000X0.375000X-0.225000X0.375000X0.225000X0*%
%TD*%
%TA.AperFunction,ComponentPad*%
%ADD29C,2.400000*%
%TD*%
%TA.AperFunction,SMDPad,CuDef*%
%ADD30RoundRect,0.250000X-0.262500X-0.450000X0.262500X-0.450000X0.262500X0.450000X-0.262500X0.450000X0*%
%TD*%
%TA.AperFunction,SMDPad,CuDef*%
%ADD31R,1.000000X0.900000*%
%TD*%
%TA.AperFunction,SMDPad,CuDef*%
%ADD32RoundRect,0.250000X0.400000X1.450000X-0.400000X1.450000X-0.400000X-1.450000X0.400000X-1.450000X0*%
%TD*%
%TA.AperFunction,SMDPad,CuDef*%
%ADD33RoundRect,0.250000X0.600000X-0.400000X0.600000X0.400000X-0.600000X0.400000X-0.600000X-0.400000X0*%
%TD*%
%TA.AperFunction,ComponentPad*%
%ADD34R,1.800000X1.800000*%
%TD*%
%TA.AperFunction,ComponentPad*%
%ADD35C,1.800000*%
%TD*%
%TA.AperFunction,SMDPad,CuDef*%
%ADD36RoundRect,0.250000X0.475000X-0.250000X0.475000X0.250000X-0.475000X0.250000X-0.475000X-0.250000X0*%
%TD*%
%TA.AperFunction,SMDPad,CuDef*%
%ADD37RoundRect,0.250000X0.450000X-0.262500X0.450000X0.262500X-0.450000X0.262500X-0.450000X-0.262500X0*%
%TD*%
%TA.AperFunction,SMDPad,CuDef*%
%ADD38RoundRect,0.150000X-0.150000X0.587500X-0.150000X-0.587500X0.150000X-0.587500X0.150000X0.587500X0*%
%TD*%
%TA.AperFunction,SMDPad,CuDef*%
%ADD39RoundRect,0.150000X0.587500X0.150000X-0.587500X0.150000X-0.587500X-0.150000X0.587500X-0.150000X0*%
%TD*%
%TA.AperFunction,ViaPad*%
%ADD40C,1.006400*%
%TD*%
%TA.AperFunction,ViaPad*%
%ADD41C,0.706400*%
%TD*%
%TA.AperFunction,ViaPad*%
%ADD42C,0.600000*%
%TD*%
%TA.AperFunction,Conductor*%
%ADD43C,0.254000*%
%TD*%
%TA.AperFunction,Conductor*%
%ADD44C,0.609600*%
%TD*%
%TA.AperFunction,Conductor*%
%ADD45C,0.406400*%
%TD*%
%TA.AperFunction,Conductor*%
%ADD46C,0.812800*%
%TD*%
G04 APERTURE END LIST*
D10*
D11*
X162890077Y-134648580D02*
X162842458Y-134696200D01*
X162842458Y-134696200D02*
X162699601Y-134743819D01*
X162699601Y-134743819D02*
X162604363Y-134743819D01*
X162604363Y-134743819D02*
X162461506Y-134696200D01*
X162461506Y-134696200D02*
X162366268Y-134600961D01*
X162366268Y-134600961D02*
X162318649Y-134505723D01*
X162318649Y-134505723D02*
X162271030Y-134315247D01*
X162271030Y-134315247D02*
X162271030Y-134172390D01*
X162271030Y-134172390D02*
X162318649Y-133981914D01*
X162318649Y-133981914D02*
X162366268Y-133886676D01*
X162366268Y-133886676D02*
X162461506Y-133791438D01*
X162461506Y-133791438D02*
X162604363Y-133743819D01*
X162604363Y-133743819D02*
X162699601Y-133743819D01*
X162699601Y-133743819D02*
X162842458Y-133791438D01*
X162842458Y-133791438D02*
X162890077Y-133839057D01*
X163747220Y-134077152D02*
X163747220Y-134743819D01*
X163318649Y-134077152D02*
X163318649Y-134600961D01*
X163318649Y-134600961D02*
X163366268Y-134696200D01*
X163366268Y-134696200D02*
X163461506Y-134743819D01*
X163461506Y-134743819D02*
X163604363Y-134743819D01*
X163604363Y-134743819D02*
X163699601Y-134696200D01*
X163699601Y-134696200D02*
X163747220Y-134648580D01*
D12*
%TO.P,R10,1*%
%TO.N,/RESET*%
X141478000Y-79097500D03*
%TO.P,R10,2*%
%TO.N,+3V3*%
X141478000Y-80922500D03*
%TD*%
D13*
%TO.P,TP7,1,1*%
%TO.N,/EIB_IN*%
X159258000Y-78232000D03*
%TD*%
%TO.P,TP4,1,1*%
%TO.N,Net-(D3-K)*%
X161798000Y-83058000D03*
%TD*%
D14*
%TO.P,R21,1*%
%TO.N,/ISP_EN*%
X142898500Y-86868000D03*
%TO.P,R21,2*%
%TO.N,+3V3*%
X141073500Y-86868000D03*
%TD*%
D15*
%TO.P,J2,1,Pin_1*%
%TO.N,/LT1*%
X136906000Y-114300000D03*
D16*
%TO.P,J2,2,Pin_2*%
%TO.N,/LT6*%
X136906000Y-111760000D03*
%TO.P,J2,3,Pin_3*%
%TO.N,/LT7*%
X136906000Y-109220000D03*
%TO.P,J2,4,Pin_4*%
%TO.N,/LT9*%
X136906000Y-106680000D03*
%TO.P,J2,5,Pin_5*%
%TO.N,GND*%
X136906000Y-104140000D03*
%TO.P,J2,6,Pin_6*%
X136906000Y-101600000D03*
%TO.P,J2,7,Pin_7*%
%TO.N,+3V3*%
X136906000Y-99060000D03*
%TO.P,J2,8,Pin_8*%
%TO.N,/PROG*%
X136906000Y-96520000D03*
%TD*%
D15*
%TO.P,SW1,1,1*%
%TO.N,/PROG*%
X140244000Y-125424000D03*
D17*
X140244000Y-118924000D03*
%TO.P,SW1,2,2*%
%TO.N,GND*%
X144744000Y-125424000D03*
X144744000Y-118924000D03*
%TD*%
D18*
%TO.P,C8,1*%
%TO.N,GND*%
X146050000Y-79060000D03*
%TO.P,C8,2*%
%TO.N,/EIB_IN*%
X146050000Y-80960000D03*
%TD*%
D19*
%TO.P,U1,1,BOOST*%
%TO.N,Net-(U1-BOOST)*%
X143377500Y-131760000D03*
%TO.P,U1,2,GND*%
%TO.N,GND*%
X143377500Y-130810000D03*
%TO.P,U1,3,VFB*%
%TO.N,Net-(U1-VFB)*%
X143377500Y-129860000D03*
%TO.P,U1,4,EN*%
%TO.N,Net-(U1-EN)*%
X141102500Y-129860000D03*
%TO.P,U1,5,VIN*%
%TO.N,/EIB_DC*%
X141102500Y-130810000D03*
%TO.P,U1,6,SW*%
%TO.N,Net-(D5-K)*%
X141102500Y-131760000D03*
%TD*%
D20*
%TO.P,C6,1*%
%TO.N,GND*%
X145100000Y-103886000D03*
%TO.P,C6,2*%
%TO.N,+3V3*%
X147000000Y-103886000D03*
%TD*%
D21*
%TO.P,Q1,1,B*%
%TO.N,Net-(Q1-B)*%
X148576000Y-90018000D03*
%TO.P,Q1,2,C*%
%TO.N,Net-(Q1-C)*%
X150876000Y-90018000D03*
D22*
X150876000Y-83718000D03*
D21*
%TO.P,Q1,3,E*%
%TO.N,Net-(D3-K)*%
X153176000Y-90018000D03*
%TD*%
D23*
%TO.P,J3,1,Pin_1*%
%TO.N,+3V3*%
X136906000Y-89916000D03*
D24*
%TO.P,J3,2,Pin_2*%
%TO.N,/SWDIO*%
X136906000Y-91916000D03*
%TO.P,J3,3,Pin_3*%
%TO.N,/IO15*%
X138906000Y-89916000D03*
%TO.P,J3,4,Pin_4*%
%TO.N,/SWCLK*%
X138906000Y-91916000D03*
%TO.P,J3,5,Pin_5*%
%TO.N,/IO14*%
X140906000Y-89916000D03*
%TO.P,J3,6,Pin_6*%
%TO.N,unconnected-(J3-Pin_6-Pad6)*%
X140906000Y-91916000D03*
%TO.P,J3,7,Pin_7*%
%TO.N,/ISP_EN*%
X142906000Y-89916000D03*
%TO.P,J3,8,Pin_8*%
%TO.N,unconnected-(J3-Pin_8-Pad8)*%
X142906000Y-91916000D03*
%TO.P,J3,9,Pin_9*%
%TO.N,GND*%
X144906000Y-89916000D03*
%TO.P,J3,10,Pin_10*%
%TO.N,/RESET*%
X144906000Y-91916000D03*
%TD*%
D25*
%TO.P,C2,1*%
%TO.N,GND*%
X155128000Y-100330000D03*
%TO.P,C2,2*%
%TO.N,Net-(IC1-XTALIN)*%
X153228000Y-100330000D03*
%TD*%
D26*
%TO.P,C5,1*%
%TO.N,/EIB_DC*%
X152146000Y-112522000D03*
D27*
%TO.P,C5,2*%
%TO.N,GND*%
X148646000Y-112522000D03*
%TD*%
D12*
%TO.P,R11,1*%
%TO.N,Net-(Q1-B)*%
X148844000Y-93575500D03*
%TO.P,R11,2*%
%TO.N,Net-(D10-A)*%
X148844000Y-95400500D03*
%TD*%
D28*
%TO.P,D3,1,K*%
%TO.N,Net-(D3-K)*%
X159512000Y-87504000D03*
%TO.P,D3,2,A*%
%TO.N,Net-(D2-A)*%
X159512000Y-90804000D03*
%TD*%
%TO.P,D2,1,K*%
%TO.N,Net-(D2-K)*%
X162052000Y-87504000D03*
%TO.P,D2,2,A*%
%TO.N,Net-(D2-A)*%
X162052000Y-90804000D03*
%TD*%
D25*
%TO.P,C12,1*%
%TO.N,GND*%
X142428000Y-127762000D03*
%TO.P,C12,2*%
%TO.N,/EIB_DC*%
X140528000Y-127762000D03*
%TD*%
D29*
%TO.P,L2,1,1*%
%TO.N,Net-(D2-K)*%
X161798000Y-119166000D03*
%TO.P,L2,2,2*%
%TO.N,/EIB_DC*%
X161798000Y-124166000D03*
%TD*%
D12*
%TO.P,R23,1*%
%TO.N,GND*%
X146228750Y-130418375D03*
%TO.P,R23,2*%
%TO.N,Net-(U1-VFB)*%
X146228750Y-132243375D03*
%TD*%
D30*
%TO.P,R7,1*%
%TO.N,Net-(Q3-B)*%
X155551500Y-79883000D03*
%TO.P,R7,2*%
%TO.N,+3V3*%
X157376500Y-79883000D03*
%TD*%
%TO.P,R12,1*%
%TO.N,Net-(D3-K)*%
X155551500Y-86614000D03*
%TO.P,R12,2*%
%TO.N,Net-(C1-Pad1)*%
X157376500Y-86614000D03*
%TD*%
D31*
%TO.P,X1,1,EN*%
%TO.N,+3V3*%
X153357000Y-105931000D03*
%TO.P,X1,2,GND*%
%TO.N,GND*%
X155507000Y-105931000D03*
%TO.P,X1,3,OUT*%
%TO.N,Net-(X1-OUT)*%
X155507000Y-104381000D03*
%TO.P,X1,4,V+*%
%TO.N,+3V3*%
X153357000Y-104381000D03*
%TD*%
D32*
%TO.P,L1,1,1*%
%TO.N,Net-(D5-K)*%
X138216600Y-129692400D03*
%TO.P,L1,2,2*%
%TO.N,+3V3*%
X133766600Y-129692400D03*
%TD*%
D33*
%TO.P,D1,1,K*%
%TO.N,/BUS_V*%
X138684000Y-82268000D03*
%TO.P,D1,2,A*%
%TO.N,GND*%
X138684000Y-78768000D03*
%TD*%
D12*
%TO.P,R4,1*%
%TO.N,Net-(Q2-C)*%
X151130000Y-93575500D03*
%TO.P,R4,2*%
%TO.N,Net-(D10-A)*%
X151130000Y-95400500D03*
%TD*%
D13*
%TO.P,TP5,1,1*%
%TO.N,Net-(D10-A)*%
X154432000Y-116332000D03*
%TD*%
D30*
%TO.P,R8,1*%
%TO.N,Net-(Q3-B)*%
X155551500Y-82169000D03*
%TO.P,R8,2*%
%TO.N,GND*%
X157376500Y-82169000D03*
%TD*%
D13*
%TO.P,TP1,1,1*%
%TO.N,Net-(D2-K)*%
X161798000Y-80010000D03*
%TD*%
D26*
%TO.P,C3,1*%
%TO.N,+3V3*%
X135890000Y-123633113D03*
D27*
%TO.P,C3,2*%
%TO.N,GND*%
X135890000Y-121133113D03*
%TD*%
D34*
%TO.P,D4,1,K*%
%TO.N,/PROG*%
X144785000Y-114554000D03*
D35*
%TO.P,D4,2,A*%
%TO.N,Net-(D4-A)*%
X142245000Y-114554000D03*
%TD*%
D36*
%TO.P,C7,1*%
%TO.N,GND*%
X153848750Y-132280875D03*
%TO.P,C7,2*%
%TO.N,+3V3*%
X153848750Y-130380875D03*
%TD*%
D14*
%TO.P,R13,1*%
%TO.N,/EIB_DC*%
X137691500Y-117475000D03*
%TO.P,R13,2*%
%TO.N,/BUS_V*%
X135866500Y-117475000D03*
%TD*%
D30*
%TO.P,R3,1*%
%TO.N,GND*%
X155551500Y-89408000D03*
%TO.P,R3,2*%
%TO.N,Net-(D3-K)*%
X157376500Y-89408000D03*
%TD*%
D37*
%TO.P,R9,1*%
%TO.N,+3V3*%
X148336000Y-80922500D03*
%TO.P,R9,2*%
%TO.N,/EIB_IN*%
X148336000Y-79097500D03*
%TD*%
D25*
%TO.P,C11,1*%
%TO.N,GND*%
X155382000Y-107950000D03*
%TO.P,C11,2*%
%TO.N,+3V3*%
X153482000Y-107950000D03*
%TD*%
D13*
%TO.P,TP3,1,1*%
%TO.N,/EIB_DC*%
X156210000Y-128016000D03*
%TD*%
D37*
%TO.P,R22,1*%
%TO.N,Net-(U1-VFB)*%
X151308750Y-132243375D03*
%TO.P,R22,2*%
%TO.N,+3V3*%
X151308750Y-130418375D03*
%TD*%
D38*
%TO.P,Q3,1,B*%
%TO.N,Net-(Q3-B)*%
X152334000Y-79072500D03*
%TO.P,Q3,2,E*%
%TO.N,/EIB_IN*%
X150434000Y-79072500D03*
%TO.P,Q3,3,C*%
%TO.N,GND*%
X151384000Y-80947500D03*
%TD*%
D37*
%TO.P,R6,1*%
%TO.N,GND*%
X153162000Y-97940500D03*
%TO.P,R6,2*%
%TO.N,Net-(Q2-B)*%
X153162000Y-96115500D03*
%TD*%
D12*
%TO.P,R17,1*%
%TO.N,+3V3*%
X155194000Y-96115500D03*
%TO.P,R17,2*%
%TO.N,/PWM*%
X155194000Y-97940500D03*
%TD*%
D18*
%TO.P,C20,1*%
%TO.N,GND*%
X134366000Y-80330000D03*
%TO.P,C20,2*%
%TO.N,/BUS_V*%
X134366000Y-82230000D03*
%TD*%
D25*
%TO.P,C18,1*%
%TO.N,Net-(X1-OUT)*%
X155128000Y-102439950D03*
%TO.P,C18,2*%
%TO.N,Net-(IC1-XTALIN)*%
X153228000Y-102439950D03*
%TD*%
D39*
%TO.P,Q2,1,B*%
%TO.N,Net-(Q2-B)*%
X155115500Y-94168000D03*
%TO.P,Q2,2,E*%
%TO.N,Net-(Q1-C)*%
X155115500Y-92268000D03*
%TO.P,Q2,3,C*%
%TO.N,Net-(Q2-C)*%
X153240500Y-93218000D03*
%TD*%
D25*
%TO.P,C17,1*%
%TO.N,Net-(U1-BOOST)*%
X142936000Y-133604000D03*
%TO.P,C17,2*%
%TO.N,Net-(D5-K)*%
X141036000Y-133604000D03*
%TD*%
%TO.P,C1,1*%
%TO.N,Net-(C1-Pad1)*%
X157414000Y-84328000D03*
%TO.P,C1,2*%
%TO.N,Net-(Q3-B)*%
X155514000Y-84328000D03*
%TD*%
D13*
%TO.P,TP6,1,1*%
%TO.N,/EIB_OUT*%
X150114000Y-106426000D03*
%TD*%
D18*
%TO.P,C9,1*%
%TO.N,GND*%
X143764000Y-79060000D03*
%TO.P,C9,2*%
%TO.N,/RESET*%
X143764000Y-80960000D03*
%TD*%
D36*
%TO.P,C16,1*%
%TO.N,Net-(U1-VFB)*%
X148768750Y-132280875D03*
%TO.P,C16,2*%
%TO.N,+3V3*%
X148768750Y-130380875D03*
%TD*%
D37*
%TO.P,R16,1*%
%TO.N,/BUS_V*%
X136398000Y-82192500D03*
%TO.P,R16,2*%
%TO.N,GND*%
X136398000Y-80367500D03*
%TD*%
D15*
%TO.P,J1,1,Pin_1*%
%TO.N,Net-(D2-A)*%
X159512000Y-93990000D03*
D16*
%TO.P,J1,2,Pin_2*%
%TO.N,GND*%
X159512000Y-96530000D03*
%TO.P,J1,3,Pin_3*%
%TO.N,+3V3*%
X159512000Y-99070000D03*
%TO.P,J1,4,Pin_4*%
%TO.N,/PWM*%
X159512000Y-101610000D03*
%TO.P,J1,5,Pin_5*%
%TO.N,/IO7*%
X159512000Y-104150000D03*
%TO.P,J1,6,Pin_6*%
%TO.N,/IO5*%
X159512000Y-106690000D03*
%TO.P,J1,7,Pin_7*%
%TO.N,/IO6*%
X159512000Y-109230000D03*
%TO.P,J1,8,Pin_8*%
%TO.N,/APROG*%
X159512000Y-111770000D03*
%TO.P,J1,9,Pin_9*%
%TO.N,/EIB_DC*%
X159512000Y-114310000D03*
%TD*%
D13*
%TO.P,TP2,1,1*%
%TO.N,+3V3*%
X156210000Y-130302000D03*
%TD*%
D40*
%TO.N,GND*%
X133858000Y-134112000D03*
D41*
X144780000Y-112522000D03*
X161544000Y-102870000D03*
X133096000Y-125984000D03*
X144526000Y-108966000D03*
X137736000Y-86116000D03*
X136086000Y-86096000D03*
X156069400Y-115590800D03*
X155481300Y-113071400D03*
X140970000Y-106426000D03*
D42*
X148336000Y-101600000D03*
X151892000Y-96774000D03*
D41*
X149860000Y-119380000D03*
D42*
X153670000Y-83566000D03*
D41*
X142494000Y-122174000D03*
X139700000Y-110236000D03*
X161798000Y-110490000D03*
X147066000Y-108458000D03*
X149860000Y-124460000D03*
X141732000Y-96520000D03*
D42*
X154178000Y-87884000D03*
X156210000Y-101092000D03*
X152146000Y-101092000D03*
D41*
X136906000Y-86106000D03*
X154686000Y-124460000D03*
D42*
X136398000Y-78740000D03*
X148082000Y-85598000D03*
X160020000Y-83820000D03*
D41*
X154686000Y-119380000D03*
D42*
X143764000Y-77724000D03*
X134366000Y-78740000D03*
D41*
X155956000Y-134112000D03*
X162814000Y-127000000D03*
D42*
X145288000Y-105156000D03*
X144780000Y-96774000D03*
%TO.N,Net-(IC1-XTALIN)*%
X152294500Y-102439950D03*
%TO.N,+3V3*%
X152195900Y-104344950D03*
X150114000Y-131318000D03*
X146050000Y-101600000D03*
X158496000Y-80264000D03*
X144780000Y-128270000D03*
X145555024Y-101105024D03*
X146558000Y-85852000D03*
%TO.N,/EIB_OUT*%
X149388775Y-106135225D03*
%TO.N,/EIB_DC*%
X139446000Y-130556000D03*
X138938000Y-117348000D03*
%TO.N,/EIB_IN*%
X148971000Y-97028000D03*
X149860000Y-98552000D03*
X151165612Y-105134617D03*
D40*
%TO.N,/BUS_V*%
X134602799Y-99042799D03*
D42*
X133604000Y-83566000D03*
X144780000Y-101642800D03*
%TO.N,/PROG*%
X136144000Y-118872000D03*
X148336000Y-100076000D03*
D41*
%TO.N,/IO5*%
X148678300Y-110064050D03*
D42*
X148518300Y-103994050D03*
D41*
%TO.N,/LT1*%
X143565081Y-109539419D03*
%TO.N,/LT6*%
X144780000Y-107950000D03*
%TO.N,/APROG*%
X142868500Y-108712000D03*
X141986000Y-111252000D03*
D42*
%TO.N,/SWCLK*%
X142645050Y-99314000D03*
%TO.N,/LT9*%
X143253144Y-104902000D03*
%TO.N,/IO12*%
X146812000Y-127254000D03*
X144015144Y-105156000D03*
%TO.N,/PWM*%
X145796000Y-96774000D03*
%TO.N,Net-(Q1-B)*%
X149098000Y-87376000D03*
%TO.N,Net-(D3-K)*%
X153162000Y-87376000D03*
%TO.N,Net-(Q2-B)*%
X153940319Y-96998947D03*
%TO.N,Net-(D10-A)*%
X156210000Y-99568000D03*
X152654000Y-94488000D03*
X157226000Y-115570000D03*
%TO.N,Net-(Q1-C)*%
X148590000Y-83566000D03*
%TO.N,Net-(U1-EN)*%
X141224000Y-129286000D03*
D40*
%TO.N,Net-(D5-K)*%
X138096800Y-132381800D03*
%TD*%
D43*
%TO.N,GND*%
X155128000Y-100330000D02*
X155448000Y-100330000D01*
X153162000Y-97940500D02*
X153058500Y-97940500D01*
D44*
X159333100Y-96508950D02*
X159333000Y-96509050D01*
D43*
X153058500Y-97940500D02*
X151892000Y-96774000D01*
D44*
X136906000Y-101600000D02*
X136906000Y-104140000D01*
D43*
X155448000Y-100330000D02*
X156210000Y-101092000D01*
D45*
%TO.N,Net-(C1-Pad1)*%
X157376500Y-84365500D02*
X157414000Y-84328000D01*
X157376500Y-86614000D02*
X157376500Y-84365500D01*
%TO.N,Net-(IC1-XTALIN)*%
X153228000Y-100330000D02*
X153228000Y-102439950D01*
X153228000Y-102439950D02*
X152294500Y-102439950D01*
%TO.N,+3V3*%
X146558000Y-85852000D02*
X146558000Y-82700500D01*
D44*
X151346250Y-130380875D02*
X151308750Y-130418375D01*
X148768750Y-130380875D02*
X148768750Y-130480750D01*
D45*
X139559950Y-88381550D02*
X141073500Y-86868000D01*
D44*
X153848750Y-130380875D02*
X151346250Y-130380875D01*
D45*
X137424450Y-88381550D02*
X139559950Y-88381550D01*
X141073500Y-86868000D02*
X141073500Y-81327000D01*
D44*
X156131125Y-130380875D02*
X156210000Y-130302000D01*
X155194000Y-96115500D02*
X156557500Y-96115500D01*
X136863425Y-89873425D02*
X136906000Y-89916000D01*
D45*
X152231950Y-104381000D02*
X152195900Y-104344950D01*
D44*
X136906000Y-99060000D02*
X137414000Y-99060000D01*
X135890000Y-128524000D02*
X134721600Y-129692400D01*
X150114000Y-130418375D02*
X148806250Y-130418375D01*
X136759550Y-89873425D02*
X136863425Y-89873425D01*
X137414000Y-99060000D02*
X139192000Y-100838000D01*
X145288000Y-100838000D02*
X146050000Y-101600000D01*
D45*
X153357000Y-105931000D02*
X153357000Y-107825000D01*
D44*
X148768750Y-128956750D02*
X148768750Y-130380875D01*
D45*
X157376500Y-79883000D02*
X158115000Y-79883000D01*
X153357000Y-104381000D02*
X152231950Y-104381000D01*
X136906000Y-88900000D02*
X137424450Y-88381550D01*
X158115000Y-79883000D02*
X158496000Y-80264000D01*
D44*
X150114000Y-131318000D02*
X150114000Y-130418375D01*
D45*
X136906000Y-89916000D02*
X136906000Y-88900000D01*
D44*
X148082000Y-128270000D02*
X148768750Y-128956750D01*
D45*
X153357000Y-104381000D02*
X153357000Y-105931000D01*
X141073500Y-81327000D02*
X141478000Y-80922500D01*
D44*
X134721600Y-129692400D02*
X133766600Y-129692400D01*
X139192000Y-100838000D02*
X145288000Y-100838000D01*
X151308750Y-130418375D02*
X150114000Y-130418375D01*
X144780000Y-128270000D02*
X148082000Y-128270000D01*
X135890000Y-123633113D02*
X135890000Y-128524000D01*
D45*
X153357000Y-107825000D02*
X153482000Y-107950000D01*
D44*
X147000000Y-102550000D02*
X146050000Y-101600000D01*
D45*
X146558000Y-82700500D02*
X148336000Y-80922500D01*
D44*
X156557500Y-96115500D02*
X159512000Y-99070000D01*
X153848750Y-130380875D02*
X156131125Y-130380875D01*
X147000000Y-103886000D02*
X147000000Y-102550000D01*
X148806250Y-130418375D02*
X148768750Y-130380875D01*
D45*
%TO.N,/EIB_OUT*%
X150114000Y-106426000D02*
X149679550Y-106426000D01*
X149679550Y-106426000D02*
X149388775Y-106135225D01*
D44*
%TO.N,/EIB_DC*%
X139446000Y-127099462D02*
X137691500Y-125344962D01*
X139446000Y-130556000D02*
X139446000Y-127762000D01*
X139446000Y-130556000D02*
X139700000Y-130810000D01*
X156210000Y-128016000D02*
X157948000Y-128016000D01*
X138938000Y-117348000D02*
X137818500Y-117348000D01*
X139446000Y-127762000D02*
X139446000Y-127099462D01*
X137691500Y-125344962D02*
X137691500Y-117475000D01*
X137818500Y-117348000D02*
X137691500Y-117475000D01*
X157948000Y-128016000D02*
X161798000Y-124166000D01*
X139700000Y-130810000D02*
X141102500Y-130810000D01*
X140528000Y-127762000D02*
X139446000Y-127762000D01*
D45*
%TO.N,/EIB_IN*%
X147066000Y-88138000D02*
X145542000Y-86614000D01*
X147066000Y-95504000D02*
X147066000Y-88138000D01*
X150434000Y-79072500D02*
X148361000Y-79072500D01*
X145542000Y-86614000D02*
X145542000Y-81468000D01*
X150434000Y-78420000D02*
X150434000Y-79072500D01*
X148971000Y-97028000D02*
X148590000Y-97028000D01*
X151130000Y-77724000D02*
X150434000Y-78420000D01*
X148326500Y-79097500D02*
X146464000Y-80960000D01*
X146464000Y-80960000D02*
X146050000Y-80960000D01*
X159258000Y-78232000D02*
X158750000Y-77724000D01*
X150368000Y-104337005D02*
X151165612Y-105134617D01*
X158750000Y-77724000D02*
X151130000Y-77724000D01*
X150368000Y-99060000D02*
X150368000Y-104337005D01*
X145542000Y-81468000D02*
X146050000Y-80960000D01*
X148361000Y-79072500D02*
X148336000Y-79097500D01*
X148590000Y-97028000D02*
X147066000Y-95504000D01*
X149860000Y-98552000D02*
X150368000Y-99060000D01*
X148336000Y-79097500D02*
X148326500Y-79097500D01*
%TO.N,/RESET*%
X146304000Y-89154000D02*
X146304000Y-91186000D01*
X144272000Y-87122000D02*
X144272000Y-81468000D01*
X141901500Y-79097500D02*
X143764000Y-80960000D01*
X141478000Y-79097500D02*
X141901500Y-79097500D01*
X146304000Y-91186000D02*
X145574000Y-91916000D01*
X144272000Y-81468000D02*
X143764000Y-80960000D01*
X144272000Y-87122000D02*
X146304000Y-89154000D01*
X145574000Y-91916000D02*
X144906000Y-91916000D01*
%TO.N,Net-(Q3-B)*%
X155551500Y-82169000D02*
X155551500Y-79883000D01*
X155551500Y-79883000D02*
X153144500Y-79883000D01*
X155514000Y-82206500D02*
X155551500Y-82169000D01*
X153144500Y-79883000D02*
X152334000Y-79072500D01*
X155514000Y-84328000D02*
X155514000Y-82206500D01*
D43*
%TO.N,/BUS_V*%
X138430000Y-105410000D02*
X134822300Y-105410000D01*
D45*
X136360500Y-82230000D02*
X136398000Y-82192500D01*
X136398000Y-82192500D02*
X138608500Y-82192500D01*
X135866500Y-117475000D02*
X134822300Y-116430800D01*
X134822300Y-99262300D02*
X134602799Y-99042799D01*
X134822300Y-116430800D02*
X134822300Y-105410000D01*
X134366000Y-82230000D02*
X136360500Y-82230000D01*
X142197200Y-101642800D02*
X138430000Y-105410000D01*
X133604000Y-83566000D02*
X133604000Y-82992000D01*
X144780000Y-101642800D02*
X142197200Y-101642800D01*
X134822300Y-105410000D02*
X134822300Y-99262300D01*
X138608500Y-82192500D02*
X138684000Y-82268000D01*
X133604000Y-82992000D02*
X134366000Y-82230000D01*
%TO.N,/PROG*%
X134874000Y-118872000D02*
X133604000Y-117602000D01*
X140918000Y-118924000D02*
X140244000Y-118924000D01*
X133604000Y-117602000D02*
X133604000Y-98298000D01*
X144785000Y-115057000D02*
X140918000Y-118924000D01*
X144785000Y-114554000D02*
X144785000Y-115057000D01*
X133604000Y-98298000D02*
X135392950Y-96509050D01*
X148336000Y-100076000D02*
X140462000Y-100076000D01*
X135392950Y-96509050D02*
X136879700Y-96509050D01*
X140462000Y-100076000D02*
X136906000Y-96520000D01*
X136144000Y-118872000D02*
X134874000Y-118872000D01*
%TO.N,/ISP_EN*%
X142898500Y-86868000D02*
X142898500Y-89908500D01*
X142898500Y-89908500D02*
X142906000Y-89916000D01*
%TO.N,/IO5*%
X148518300Y-104954050D02*
X148668300Y-105104050D01*
X148668300Y-107454050D02*
X148678300Y-110064050D01*
X148668300Y-105104050D02*
X148668300Y-107454050D01*
X148518300Y-103994050D02*
X148518300Y-104954050D01*
%TO.N,/LT1*%
X140191110Y-114289050D02*
X136879700Y-114289050D01*
X143565081Y-109539419D02*
X143565081Y-110915079D01*
X143565081Y-110915079D02*
X140191110Y-114289050D01*
%TO.N,/LT6*%
X144780000Y-107950000D02*
X140462000Y-107950000D01*
X136879700Y-111532300D02*
X136879700Y-111749050D01*
X140462000Y-107950000D02*
X136879700Y-111532300D01*
D43*
%TO.N,/APROG*%
X141986000Y-111252000D02*
X142868500Y-110369500D01*
X142868500Y-110369500D02*
X142868500Y-108712000D01*
D45*
%TO.N,/SWCLK*%
X140970000Y-99314000D02*
X138906000Y-97250000D01*
X142645050Y-99314000D02*
X140970000Y-99314000D01*
X138906000Y-97250000D02*
X138906000Y-91916000D01*
D43*
%TO.N,/LT9*%
X143253144Y-104902000D02*
X143253144Y-106431712D01*
X143253144Y-106431712D02*
X142496856Y-107188000D01*
X142496856Y-107188000D02*
X137414000Y-107188000D01*
X137414000Y-107188000D02*
X136906000Y-106680000D01*
D45*
%TO.N,/IO12*%
X146812000Y-127254000D02*
X146812000Y-110236000D01*
D43*
X145542000Y-106682856D02*
X145542000Y-108966000D01*
D45*
X146812000Y-110236000D02*
X145542000Y-108966000D01*
D43*
X144015144Y-105156000D02*
X145542000Y-106682856D01*
D45*
%TO.N,/PWM*%
X155842500Y-97940500D02*
X159512000Y-101610000D01*
X154686000Y-99060000D02*
X155194000Y-98552000D01*
X145796000Y-96774000D02*
X146812000Y-97790000D01*
X152400000Y-99060000D02*
X154686000Y-99060000D01*
X151130000Y-97790000D02*
X152400000Y-99060000D01*
X155194000Y-97940500D02*
X155842500Y-97940500D01*
X146812000Y-97790000D02*
X151130000Y-97790000D01*
X155194000Y-98552000D02*
X155194000Y-97940500D01*
%TO.N,Net-(Q1-B)*%
X148576000Y-93307500D02*
X148844000Y-93575500D01*
X148576000Y-87898000D02*
X149098000Y-87376000D01*
X148576000Y-90018000D02*
X148576000Y-87898000D01*
X148576000Y-90018000D02*
X148576000Y-93307500D01*
%TO.N,Net-(D3-K)*%
X159892000Y-87504000D02*
X161798000Y-85598000D01*
X155551500Y-86614000D02*
X153924000Y-86614000D01*
X153176000Y-90018000D02*
X153836000Y-90678000D01*
X153162000Y-87376000D02*
X153176000Y-87390000D01*
X159512000Y-87504000D02*
X159892000Y-87504000D01*
X158496000Y-89408000D02*
X159512000Y-88392000D01*
X153176000Y-87390000D02*
X153176000Y-90018000D01*
X157376500Y-89408000D02*
X158496000Y-89408000D01*
X153836000Y-90678000D02*
X156972000Y-90678000D01*
X161798000Y-85598000D02*
X161798000Y-83058000D01*
X153924000Y-86614000D02*
X153162000Y-87376000D01*
X159512000Y-88392000D02*
X159512000Y-87504000D01*
X156972000Y-90678000D02*
X157376500Y-90273500D01*
X157376500Y-90273500D02*
X157376500Y-89408000D01*
%TO.N,Net-(U1-VFB)*%
X146228750Y-132243375D02*
X147574000Y-132243375D01*
X148731250Y-132243375D02*
X148768750Y-132280875D01*
X147505554Y-132174929D02*
X147574000Y-132243375D01*
X151218125Y-132334000D02*
X148821875Y-132334000D01*
X147505554Y-129725554D02*
X147505554Y-132174929D01*
X147066000Y-129286000D02*
X147505554Y-129725554D01*
X143951500Y-129286000D02*
X147066000Y-129286000D01*
X147574000Y-132243375D02*
X148731250Y-132243375D01*
X143377500Y-129860000D02*
X143951500Y-129286000D01*
X151308750Y-132243375D02*
X151218125Y-132334000D01*
X146319375Y-132334000D02*
X146228750Y-132243375D01*
X148821875Y-132334000D02*
X148768750Y-132280875D01*
%TO.N,Net-(Q2-B)*%
X153162000Y-95504000D02*
X153162000Y-96012000D01*
X153940319Y-96998947D02*
X153940319Y-96893819D01*
X153940319Y-96893819D02*
X153162000Y-96115500D01*
X155115500Y-94168000D02*
X154498000Y-94168000D01*
X154498000Y-94168000D02*
X153162000Y-95504000D01*
%TO.N,Net-(Q2-C)*%
X151130000Y-93575500D02*
X152883000Y-93575500D01*
X152883000Y-93575500D02*
X153240500Y-93218000D01*
%TO.N,Net-(U1-BOOST)*%
X143377500Y-131760000D02*
X143377500Y-133162500D01*
X143377500Y-133162500D02*
X142936000Y-133604000D01*
%TO.N,Net-(X1-OUT)*%
X155507000Y-104381000D02*
X155507000Y-102818950D01*
X155507000Y-102818950D02*
X155128000Y-102439950D01*
D44*
%TO.N,Net-(D2-A)*%
X159512000Y-93990000D02*
X159512000Y-90804000D01*
X159512000Y-90804000D02*
X162052000Y-90804000D01*
D45*
%TO.N,Net-(D2-K)*%
X161798000Y-80010000D02*
X163322000Y-81534000D01*
D44*
X162688000Y-87504000D02*
X163322000Y-88138000D01*
X163322000Y-117642000D02*
X161798000Y-119166000D01*
X162052000Y-87504000D02*
X162688000Y-87504000D01*
X163322000Y-88138000D02*
X163322000Y-117642000D01*
D45*
X163322000Y-81534000D02*
X163322000Y-88646000D01*
%TO.N,Net-(D10-A)*%
X156210000Y-99568000D02*
X157734000Y-101092000D01*
X152654000Y-94488000D02*
X151741500Y-95400500D01*
X155448000Y-114300000D02*
X157734000Y-114300000D01*
X151741500Y-95400500D02*
X151130000Y-95400500D01*
X148844000Y-95400500D02*
X151130000Y-95400500D01*
X154432000Y-116332000D02*
X154432000Y-115316000D01*
X157734000Y-101092000D02*
X157734000Y-114300000D01*
X157734000Y-115062000D02*
X157226000Y-115570000D01*
X154432000Y-115316000D02*
X155448000Y-114300000D01*
X157734000Y-114300000D02*
X157734000Y-115062000D01*
D43*
%TO.N,unconnected-(J3-Pin_8-Pad8)*%
X142759550Y-92051225D02*
X142759550Y-91873425D01*
D45*
%TO.N,Net-(Q1-C)*%
X150876000Y-90932000D02*
X152212000Y-92268000D01*
X150724000Y-83566000D02*
X150876000Y-83718000D01*
X152212000Y-92268000D02*
X155115500Y-92268000D01*
X150876000Y-90018000D02*
X150876000Y-90932000D01*
X148590000Y-83566000D02*
X150724000Y-83566000D01*
X150876000Y-90018000D02*
X150876000Y-83718000D01*
%TO.N,Net-(U1-EN)*%
X141224000Y-129738500D02*
X141102500Y-129860000D01*
X141224000Y-129286000D02*
X141224000Y-129738500D01*
D46*
%TO.N,Net-(D5-K)*%
X138096800Y-132381800D02*
X138096800Y-129812200D01*
X138096800Y-129812200D02*
X138216600Y-129692400D01*
D45*
X141102500Y-131760000D02*
X141036000Y-131826500D01*
D46*
X139319000Y-133604000D02*
X141036000Y-133604000D01*
D45*
X141036000Y-131826500D02*
X141036000Y-133604000D01*
D46*
X138096800Y-132381800D02*
X139319000Y-133604000D01*
%TD*%
%TA.AperFunction,Conductor*%
%TO.N,GND*%
G36*
X164455639Y-77186635D02*
G01*
X164501394Y-77239439D01*
X164512600Y-77290950D01*
X164512600Y-133047981D01*
X164492915Y-133115020D01*
X164440111Y-133160775D01*
X164370953Y-133170719D01*
X164352875Y-133162463D01*
X164327720Y-133162463D01*
X161689205Y-133162463D01*
X161689205Y-135094450D01*
X161669520Y-135161489D01*
X161616716Y-135207244D01*
X161565205Y-135218450D01*
X132687600Y-135218450D01*
X132620561Y-135198765D01*
X132574806Y-135145961D01*
X132563600Y-135094450D01*
X132563600Y-131700130D01*
X132583285Y-131633091D01*
X132636089Y-131587336D01*
X132705247Y-131577392D01*
X132768803Y-131606417D01*
X132775281Y-131612449D01*
X132897944Y-131735112D01*
X133047266Y-131827214D01*
X133213803Y-131882399D01*
X133316591Y-131892900D01*
X134216608Y-131892899D01*
X134216616Y-131892898D01*
X134216619Y-131892898D01*
X134272902Y-131887148D01*
X134319397Y-131882399D01*
X134485934Y-131827214D01*
X134635256Y-131735112D01*
X134759312Y-131611056D01*
X134851414Y-131461734D01*
X134906599Y-131295197D01*
X134917100Y-131192409D01*
X134917099Y-130565925D01*
X134936783Y-130498887D01*
X134989587Y-130453132D01*
X134993647Y-130451365D01*
X135103047Y-130406051D01*
X135103049Y-130406049D01*
X135103053Y-130406048D01*
X135168809Y-130362111D01*
X135234949Y-130317918D01*
X135347118Y-130205749D01*
X135347119Y-130205747D01*
X135354185Y-130198681D01*
X135354188Y-130198677D01*
X136403345Y-129149520D01*
X136403349Y-129149518D01*
X136515518Y-129037349D01*
X136603648Y-128905453D01*
X136664353Y-128758897D01*
X136670721Y-128726883D01*
X136688898Y-128635500D01*
X136695300Y-128603318D01*
X136695300Y-125667663D01*
X136714985Y-125600624D01*
X136767789Y-125554869D01*
X136836947Y-125544925D01*
X136900503Y-125573950D01*
X136933861Y-125620211D01*
X136977848Y-125726408D01*
X136977855Y-125726421D01*
X137065981Y-125858310D01*
X137065984Y-125858314D01*
X137182470Y-125974800D01*
X137182492Y-125974820D01*
X138487891Y-127280219D01*
X138521376Y-127341542D01*
X138516392Y-127411234D01*
X138474520Y-127467167D01*
X138409056Y-127491584D01*
X138400210Y-127491900D01*
X137766598Y-127491900D01*
X137766580Y-127491901D01*
X137663803Y-127502400D01*
X137663800Y-127502401D01*
X137497268Y-127557585D01*
X137497263Y-127557587D01*
X137347942Y-127649689D01*
X137223889Y-127773742D01*
X137131787Y-127923063D01*
X137131785Y-127923068D01*
X137103949Y-128007070D01*
X137076601Y-128089603D01*
X137076601Y-128089604D01*
X137076600Y-128089604D01*
X137066100Y-128192383D01*
X137066100Y-131192401D01*
X137066101Y-131192418D01*
X137076600Y-131295196D01*
X137076601Y-131295199D01*
X137124106Y-131438558D01*
X137131786Y-131461734D01*
X137171439Y-131526022D01*
X137189900Y-131591118D01*
X137189900Y-131918226D01*
X137175259Y-131976678D01*
X137165015Y-131995842D01*
X137107623Y-132185037D01*
X137107622Y-132185039D01*
X137088244Y-132381800D01*
X137107622Y-132578560D01*
X137107623Y-132578562D01*
X137165016Y-132767759D01*
X137258214Y-132942122D01*
X137258216Y-132942125D01*
X137383642Y-133094957D01*
X137536474Y-133220383D01*
X137536477Y-133220385D01*
X137603807Y-133256373D01*
X137710842Y-133313584D01*
X137710845Y-133313585D01*
X137710850Y-133313587D01*
X137731632Y-133319891D01*
X137783321Y-133350871D01*
X138740881Y-134308432D01*
X138740885Y-134308435D01*
X138889415Y-134407680D01*
X138889421Y-134407683D01*
X138889422Y-134407684D01*
X139054467Y-134476048D01*
X139054471Y-134476048D01*
X139054472Y-134476049D01*
X139229675Y-134510900D01*
X139229678Y-134510900D01*
X139408322Y-134510900D01*
X140105170Y-134510900D01*
X140172209Y-134530585D01*
X140192851Y-134547219D01*
X140193288Y-134547656D01*
X140317344Y-134671712D01*
X140466666Y-134763814D01*
X140633203Y-134818999D01*
X140735991Y-134829500D01*
X141336008Y-134829499D01*
X141336016Y-134829498D01*
X141336019Y-134829498D01*
X141392302Y-134823748D01*
X141438797Y-134818999D01*
X141605334Y-134763814D01*
X141754656Y-134671712D01*
X141878712Y-134547656D01*
X141880461Y-134544819D01*
X141882169Y-134543283D01*
X141883193Y-134541989D01*
X141883414Y-134542163D01*
X141932406Y-134498096D01*
X142001368Y-134486872D01*
X142065451Y-134514713D01*
X142091537Y-134544817D01*
X142093288Y-134547656D01*
X142217344Y-134671712D01*
X142366666Y-134763814D01*
X142533203Y-134818999D01*
X142635991Y-134829500D01*
X143236008Y-134829499D01*
X143236016Y-134829498D01*
X143236019Y-134829498D01*
X143292302Y-134823748D01*
X143338797Y-134818999D01*
X143505334Y-134763814D01*
X143654656Y-134671712D01*
X143778712Y-134547656D01*
X143870814Y-134398334D01*
X143925999Y-134231797D01*
X143936500Y-134129009D01*
X143936499Y-133630138D01*
X143956183Y-133563100D01*
X143957357Y-133561308D01*
X144001111Y-133495827D01*
X144054157Y-133367762D01*
X144062221Y-133327219D01*
X144064934Y-133313585D01*
X144064934Y-133313584D01*
X144064934Y-133313583D01*
X144081200Y-133231809D01*
X144081200Y-133093192D01*
X144081200Y-132623141D01*
X144100885Y-132556102D01*
X144144974Y-132517898D01*
X144143683Y-132515715D01*
X144150398Y-132511744D01*
X144291865Y-132428081D01*
X144408081Y-132311865D01*
X144491744Y-132170398D01*
X144537598Y-132012569D01*
X144540500Y-131975694D01*
X144540500Y-131544306D01*
X144537598Y-131507431D01*
X144534704Y-131497471D01*
X144491745Y-131349606D01*
X144491745Y-131349605D01*
X144491744Y-131349604D01*
X144491744Y-131349602D01*
X144490574Y-131347624D01*
X144490130Y-131345874D01*
X144488647Y-131342446D01*
X144489200Y-131342206D01*
X144473396Y-131279901D01*
X144488753Y-131227603D01*
X144488184Y-131227357D01*
X144490182Y-131222738D01*
X144490581Y-131221382D01*
X144491281Y-131220197D01*
X144537100Y-131062486D01*
X144537295Y-131060001D01*
X144537295Y-131060000D01*
X144271815Y-131060000D01*
X144208694Y-131042732D01*
X144150396Y-131008255D01*
X144150393Y-131008254D01*
X143992573Y-130962402D01*
X143992567Y-130962401D01*
X143955701Y-130959500D01*
X143955694Y-130959500D01*
X143251500Y-130959500D01*
X143184461Y-130939815D01*
X143138706Y-130887011D01*
X143127500Y-130835500D01*
X143127500Y-130784500D01*
X143147185Y-130717461D01*
X143199989Y-130671706D01*
X143251500Y-130660500D01*
X143955686Y-130660500D01*
X143955694Y-130660500D01*
X143992569Y-130657598D01*
X143992571Y-130657597D01*
X143992573Y-130657597D01*
X144034191Y-130645505D01*
X144150398Y-130611744D01*
X144208694Y-130577268D01*
X144271815Y-130560000D01*
X144537295Y-130560000D01*
X144537295Y-130559998D01*
X144537100Y-130557511D01*
X144537099Y-130557505D01*
X144491283Y-130399806D01*
X144491281Y-130399801D01*
X144490578Y-130398612D01*
X144490310Y-130397558D01*
X144488184Y-130392644D01*
X144488976Y-130392300D01*
X144473395Y-130330888D01*
X144489009Y-130277714D01*
X144488646Y-130277557D01*
X144489920Y-130274612D01*
X144490579Y-130272369D01*
X144491742Y-130270401D01*
X144491744Y-130270398D01*
X144525505Y-130154191D01*
X144537597Y-130112573D01*
X144537598Y-130112568D01*
X144538275Y-130103969D01*
X144563160Y-130038681D01*
X144619392Y-129997211D01*
X144661893Y-129989700D01*
X144904750Y-129989700D01*
X144971789Y-130009385D01*
X145017544Y-130062189D01*
X145028750Y-130113700D01*
X145028750Y-130168375D01*
X146354750Y-130168375D01*
X146421789Y-130188060D01*
X146467544Y-130240864D01*
X146478750Y-130292375D01*
X146478750Y-130544375D01*
X146459065Y-130611414D01*
X146406261Y-130657169D01*
X146354750Y-130668375D01*
X145028751Y-130668375D01*
X145028751Y-130730861D01*
X145039244Y-130833572D01*
X145094391Y-130999994D01*
X145094393Y-130999999D01*
X145186434Y-131149220D01*
X145280054Y-131242840D01*
X145313539Y-131304163D01*
X145308555Y-131373855D01*
X145280055Y-131418202D01*
X145186037Y-131512220D01*
X145093937Y-131661538D01*
X145093936Y-131661541D01*
X145038751Y-131828078D01*
X145038751Y-131828079D01*
X145038750Y-131828079D01*
X145028250Y-131930858D01*
X145028250Y-132555876D01*
X145028251Y-132555894D01*
X145038750Y-132658671D01*
X145038751Y-132658674D01*
X145093935Y-132825206D01*
X145093937Y-132825211D01*
X145112616Y-132855494D01*
X145186038Y-132974531D01*
X145310094Y-133098587D01*
X145459416Y-133190689D01*
X145625953Y-133245874D01*
X145728741Y-133256375D01*
X146728758Y-133256374D01*
X146728766Y-133256373D01*
X146728769Y-133256373D01*
X146785052Y-133250623D01*
X146831547Y-133245874D01*
X146998084Y-133190689D01*
X147147406Y-133098587D01*
X147262599Y-132983394D01*
X147323922Y-132949909D01*
X147350280Y-132947075D01*
X147504691Y-132947075D01*
X147504692Y-132947075D01*
X147599528Y-132947075D01*
X147666567Y-132966760D01*
X147696793Y-132994163D01*
X147701036Y-132999529D01*
X147701038Y-132999531D01*
X147825094Y-133123587D01*
X147974416Y-133215689D01*
X148140953Y-133270874D01*
X148243741Y-133281375D01*
X149293758Y-133281374D01*
X149293766Y-133281373D01*
X149293769Y-133281373D01*
X149350052Y-133275623D01*
X149396547Y-133270874D01*
X149563084Y-133215689D01*
X149712406Y-133123587D01*
X149761974Y-133074019D01*
X149823297Y-133040534D01*
X149849655Y-133037700D01*
X150277845Y-133037700D01*
X150344884Y-133057385D01*
X150365526Y-133074019D01*
X150390094Y-133098587D01*
X150539416Y-133190689D01*
X150705953Y-133245874D01*
X150808741Y-133256375D01*
X151808758Y-133256374D01*
X151808766Y-133256373D01*
X151808769Y-133256373D01*
X151865052Y-133250623D01*
X151911547Y-133245874D01*
X152078084Y-133190689D01*
X152227406Y-133098587D01*
X152351462Y-132974531D01*
X152443564Y-132825209D01*
X152444663Y-132821891D01*
X152446031Y-132819914D01*
X152446614Y-132818666D01*
X152446827Y-132818765D01*
X152484428Y-132764447D01*
X152548942Y-132737618D01*
X152617719Y-132749927D01*
X152668923Y-132797466D01*
X152680075Y-132821882D01*
X152689390Y-132849992D01*
X152689393Y-132849999D01*
X152781434Y-132999220D01*
X152905404Y-133123190D01*
X153054625Y-133215231D01*
X153054630Y-133215233D01*
X153221052Y-133270380D01*
X153221059Y-133270381D01*
X153323769Y-133280874D01*
X153598749Y-133280874D01*
X153598750Y-133280873D01*
X153598750Y-132530875D01*
X154098750Y-132530875D01*
X154098750Y-133280874D01*
X154373722Y-133280874D01*
X154373736Y-133280873D01*
X154476447Y-133270380D01*
X154642869Y-133215233D01*
X154642874Y-133215231D01*
X154792095Y-133123190D01*
X154916065Y-132999220D01*
X155008106Y-132849999D01*
X155008108Y-132849994D01*
X155063255Y-132683572D01*
X155063256Y-132683565D01*
X155073749Y-132580861D01*
X155073750Y-132580848D01*
X155073750Y-132530875D01*
X154098750Y-132530875D01*
X153598750Y-132530875D01*
X153598750Y-132154875D01*
X153618435Y-132087836D01*
X153671239Y-132042081D01*
X153722750Y-132030875D01*
X155073749Y-132030875D01*
X155073749Y-131980903D01*
X155073748Y-131980888D01*
X155063255Y-131878177D01*
X155008108Y-131711755D01*
X155008106Y-131711750D01*
X154916065Y-131562529D01*
X154792094Y-131438558D01*
X154792091Y-131438556D01*
X154789089Y-131436704D01*
X154787463Y-131434896D01*
X154786427Y-131434077D01*
X154786567Y-131433899D01*
X154742367Y-131384755D01*
X154731147Y-131315792D01*
X154758993Y-131251711D01*
X154789094Y-131225629D01*
X154792406Y-131223587D01*
X154793499Y-131222494D01*
X154794433Y-131221983D01*
X154798069Y-131219109D01*
X154798560Y-131219730D01*
X154854822Y-131189009D01*
X154881180Y-131186175D01*
X155710699Y-131186175D01*
X155769151Y-131200816D01*
X155803374Y-131219109D01*
X155824453Y-131230376D01*
X155825273Y-131230814D01*
X156013868Y-131288024D01*
X156210000Y-131307341D01*
X156406132Y-131288024D01*
X156594727Y-131230814D01*
X156595547Y-131230376D01*
X156768532Y-131137913D01*
X156768538Y-131137910D01*
X156920883Y-131012883D01*
X157045910Y-130860538D01*
X157138814Y-130686727D01*
X157196024Y-130498132D01*
X157215341Y-130302000D01*
X157196024Y-130105868D01*
X157138814Y-129917273D01*
X157138811Y-129917269D01*
X157138811Y-129917266D01*
X157045913Y-129743467D01*
X157045909Y-129743460D01*
X156920883Y-129591116D01*
X156768539Y-129466090D01*
X156768532Y-129466086D01*
X156594733Y-129373188D01*
X156594727Y-129373186D01*
X156406132Y-129315976D01*
X156406129Y-129315975D01*
X156210000Y-129296659D01*
X156013870Y-129315975D01*
X155825266Y-129373188D01*
X155651467Y-129466086D01*
X155651460Y-129466090D01*
X155552352Y-129547428D01*
X155488042Y-129574741D01*
X155473687Y-129575575D01*
X154881180Y-129575575D01*
X154814141Y-129555890D01*
X154793499Y-129539256D01*
X154792407Y-129538164D01*
X154792406Y-129538163D01*
X154683614Y-129471060D01*
X154643086Y-129446062D01*
X154643081Y-129446060D01*
X154616364Y-129437207D01*
X154476547Y-129390876D01*
X154476545Y-129390875D01*
X154373760Y-129380375D01*
X153323748Y-129380375D01*
X153323730Y-129380376D01*
X153220953Y-129390875D01*
X153220950Y-129390876D01*
X153054418Y-129446060D01*
X153054413Y-129446062D01*
X152905092Y-129538164D01*
X152904001Y-129539256D01*
X152903066Y-129539766D01*
X152899431Y-129542641D01*
X152898939Y-129542019D01*
X152842678Y-129572741D01*
X152816320Y-129575575D01*
X152282695Y-129575575D01*
X152217599Y-129557114D01*
X152078084Y-129471061D01*
X151911547Y-129415876D01*
X151911545Y-129415875D01*
X151808760Y-129405375D01*
X150808748Y-129405375D01*
X150808730Y-129405376D01*
X150705953Y-129415875D01*
X150705950Y-129415876D01*
X150539418Y-129471060D01*
X150539413Y-129471062D01*
X150390092Y-129563164D01*
X150376501Y-129576756D01*
X150315178Y-129610241D01*
X150288820Y-129613075D01*
X149838680Y-129613075D01*
X149771641Y-129593390D01*
X149750999Y-129576756D01*
X149712406Y-129538163D01*
X149712402Y-129538160D01*
X149632953Y-129489155D01*
X149586228Y-129437207D01*
X149574050Y-129383617D01*
X149574050Y-128877433D01*
X149566090Y-128837417D01*
X149556728Y-128790353D01*
X149555412Y-128783738D01*
X149543103Y-128721853D01*
X149543101Y-128721849D01*
X149535929Y-128704531D01*
X149494004Y-128603316D01*
X149482398Y-128575297D01*
X149482396Y-128575294D01*
X149482394Y-128575290D01*
X149394268Y-128443401D01*
X149394265Y-128443397D01*
X149279003Y-128328135D01*
X149278972Y-128328106D01*
X148966866Y-128016000D01*
X155204659Y-128016000D01*
X155223975Y-128212129D01*
X155223976Y-128212132D01*
X155277870Y-128389797D01*
X155281188Y-128400733D01*
X155374086Y-128574532D01*
X155374090Y-128574539D01*
X155499116Y-128726883D01*
X155651460Y-128851909D01*
X155651467Y-128851913D01*
X155825266Y-128944811D01*
X155825269Y-128944811D01*
X155825273Y-128944814D01*
X156013868Y-129002024D01*
X156210000Y-129021341D01*
X156406132Y-129002024D01*
X156594727Y-128944814D01*
X156768538Y-128851910D01*
X156771542Y-128849445D01*
X156773422Y-128848646D01*
X156773601Y-128848527D01*
X156773623Y-128848560D01*
X156835853Y-128822133D01*
X156850205Y-128821300D01*
X157862551Y-128821300D01*
X157862571Y-128821301D01*
X157868685Y-128821301D01*
X158027317Y-128821301D01*
X158131982Y-128800480D01*
X158182897Y-128790353D01*
X158329453Y-128729648D01*
X158341116Y-128721854D01*
X158341120Y-128721853D01*
X158439400Y-128656184D01*
X158461349Y-128641518D01*
X158573518Y-128529349D01*
X158573519Y-128529347D01*
X158580585Y-128522281D01*
X158580588Y-128522277D01*
X161255512Y-125847352D01*
X161316833Y-125813869D01*
X161379743Y-125816545D01*
X161418535Y-125828511D01*
X161418536Y-125828511D01*
X161418542Y-125828513D01*
X161670565Y-125866500D01*
X161925435Y-125866500D01*
X162177458Y-125828513D01*
X162421004Y-125753389D01*
X162650634Y-125642805D01*
X162861217Y-125499232D01*
X163048050Y-125325877D01*
X163206959Y-125126612D01*
X163334393Y-124905888D01*
X163427508Y-124668637D01*
X163484222Y-124420157D01*
X163503268Y-124166000D01*
X163502111Y-124150566D01*
X163484222Y-123911845D01*
X163427509Y-123663369D01*
X163427508Y-123663363D01*
X163334393Y-123426112D01*
X163206959Y-123205388D01*
X163048050Y-123006123D01*
X162861217Y-122832768D01*
X162650634Y-122689195D01*
X162650630Y-122689193D01*
X162650627Y-122689191D01*
X162650626Y-122689190D01*
X162421006Y-122578612D01*
X162421008Y-122578612D01*
X162177466Y-122503489D01*
X162177462Y-122503488D01*
X162177458Y-122503487D01*
X162056231Y-122485214D01*
X161925440Y-122465500D01*
X161925435Y-122465500D01*
X161670565Y-122465500D01*
X161670559Y-122465500D01*
X161513609Y-122489157D01*
X161418542Y-122503487D01*
X161418539Y-122503488D01*
X161418533Y-122503489D01*
X161174992Y-122578612D01*
X160945373Y-122689190D01*
X160945372Y-122689191D01*
X160734782Y-122832768D01*
X160547952Y-123006121D01*
X160547950Y-123006123D01*
X160389041Y-123205388D01*
X160261608Y-123426109D01*
X160168492Y-123663362D01*
X160168490Y-123663369D01*
X160111777Y-123911845D01*
X160092732Y-124165995D01*
X160092732Y-124166004D01*
X160111777Y-124420155D01*
X160111777Y-124420157D01*
X160151012Y-124592057D01*
X160146739Y-124661796D01*
X160117802Y-124707330D01*
X157650753Y-127174381D01*
X157589430Y-127207866D01*
X157563072Y-127210700D01*
X156850205Y-127210700D01*
X156783166Y-127191015D01*
X156771542Y-127182555D01*
X156768538Y-127180090D01*
X156768532Y-127180086D01*
X156594733Y-127087188D01*
X156594727Y-127087186D01*
X156406132Y-127029976D01*
X156406129Y-127029975D01*
X156210000Y-127010659D01*
X156013870Y-127029975D01*
X155825266Y-127087188D01*
X155651467Y-127180086D01*
X155651460Y-127180090D01*
X155499116Y-127305116D01*
X155374090Y-127457460D01*
X155374086Y-127457467D01*
X155281188Y-127631266D01*
X155223975Y-127819870D01*
X155204659Y-128016000D01*
X148966866Y-128016000D01*
X148711858Y-127760992D01*
X148711838Y-127760970D01*
X148595352Y-127644484D01*
X148595348Y-127644481D01*
X148463459Y-127556355D01*
X148463446Y-127556348D01*
X148316901Y-127495648D01*
X148316891Y-127495645D01*
X148161317Y-127464699D01*
X148161315Y-127464699D01*
X148002685Y-127464699D01*
X147996571Y-127464699D01*
X147996551Y-127464700D01*
X147732581Y-127464700D01*
X147665542Y-127445015D01*
X147619787Y-127392211D01*
X147609361Y-127326817D01*
X147617565Y-127254003D01*
X147617565Y-127253996D01*
X147597369Y-127074750D01*
X147597366Y-127074737D01*
X147537789Y-126904478D01*
X147534704Y-126899567D01*
X147515700Y-126833599D01*
X147515700Y-113350109D01*
X147535385Y-113283070D01*
X147552019Y-113262428D01*
X148246000Y-112568447D01*
X148246000Y-112574661D01*
X148273259Y-112676394D01*
X148325920Y-112767606D01*
X148400394Y-112842080D01*
X148491606Y-112894741D01*
X148593339Y-112922000D01*
X148599553Y-112922000D01*
X147920526Y-113601025D01*
X147993513Y-113652132D01*
X147993521Y-113652136D01*
X148199668Y-113748264D01*
X148199682Y-113748269D01*
X148419389Y-113807139D01*
X148419400Y-113807141D01*
X148645998Y-113826966D01*
X148646002Y-113826966D01*
X148872599Y-113807141D01*
X148872610Y-113807139D01*
X149092317Y-113748269D01*
X149092331Y-113748264D01*
X149298478Y-113652136D01*
X149371471Y-113601024D01*
X149140317Y-113369870D01*
X150845500Y-113369870D01*
X150845501Y-113369876D01*
X150851908Y-113429483D01*
X150902202Y-113564328D01*
X150902206Y-113564335D01*
X150988452Y-113679544D01*
X150988455Y-113679547D01*
X151103664Y-113765793D01*
X151103671Y-113765797D01*
X151238517Y-113816091D01*
X151238516Y-113816091D01*
X151245444Y-113816835D01*
X151298127Y-113822500D01*
X152993872Y-113822499D01*
X153053483Y-113816091D01*
X153188331Y-113765796D01*
X153303546Y-113679546D01*
X153389796Y-113564331D01*
X153440091Y-113429483D01*
X153446500Y-113369873D01*
X153446499Y-111674128D01*
X153440091Y-111614517D01*
X153435103Y-111601144D01*
X153389797Y-111479671D01*
X153389793Y-111479664D01*
X153303547Y-111364455D01*
X153303544Y-111364452D01*
X153188335Y-111278206D01*
X153188328Y-111278202D01*
X153053482Y-111227908D01*
X153053483Y-111227908D01*
X152993883Y-111221501D01*
X152993881Y-111221500D01*
X152993873Y-111221500D01*
X152993864Y-111221500D01*
X151298129Y-111221500D01*
X151298123Y-111221501D01*
X151238516Y-111227908D01*
X151103671Y-111278202D01*
X151103664Y-111278206D01*
X150988455Y-111364452D01*
X150988452Y-111364455D01*
X150902206Y-111479664D01*
X150902202Y-111479671D01*
X150851908Y-111614517D01*
X150845501Y-111674116D01*
X150845501Y-111674123D01*
X150845500Y-111674135D01*
X150845500Y-113369870D01*
X149140317Y-113369870D01*
X148692447Y-112922000D01*
X148698661Y-112922000D01*
X148800394Y-112894741D01*
X148891606Y-112842080D01*
X148966080Y-112767606D01*
X149018741Y-112676394D01*
X149046000Y-112574661D01*
X149046000Y-112568447D01*
X149725024Y-113247471D01*
X149776136Y-113174478D01*
X149872264Y-112968331D01*
X149872269Y-112968317D01*
X149931139Y-112748610D01*
X149931141Y-112748599D01*
X149950966Y-112522002D01*
X149950966Y-112521997D01*
X149931141Y-112295400D01*
X149931139Y-112295389D01*
X149872269Y-112075682D01*
X149872264Y-112075668D01*
X149776136Y-111869521D01*
X149776132Y-111869513D01*
X149725025Y-111796526D01*
X149046000Y-112475551D01*
X149046000Y-112469339D01*
X149018741Y-112367606D01*
X148966080Y-112276394D01*
X148891606Y-112201920D01*
X148800394Y-112149259D01*
X148698661Y-112122000D01*
X148692448Y-112122000D01*
X149371472Y-111442974D01*
X149298478Y-111391863D01*
X149092331Y-111295735D01*
X149092317Y-111295730D01*
X148872610Y-111236860D01*
X148872599Y-111236858D01*
X148646002Y-111217034D01*
X148645998Y-111217034D01*
X148419400Y-111236858D01*
X148419389Y-111236860D01*
X148199682Y-111295730D01*
X148199673Y-111295734D01*
X147993516Y-111391866D01*
X147993512Y-111391868D01*
X147920526Y-111442973D01*
X147920526Y-111442974D01*
X148599553Y-112122000D01*
X148593339Y-112122000D01*
X148491606Y-112149259D01*
X148400394Y-112201920D01*
X148325920Y-112276394D01*
X148273259Y-112367606D01*
X148246000Y-112469339D01*
X148246000Y-112475552D01*
X147552019Y-111781571D01*
X147518534Y-111720248D01*
X147515700Y-111693890D01*
X147515700Y-110166695D01*
X147515700Y-110166692D01*
X147512800Y-110152115D01*
X147488657Y-110030738D01*
X147446897Y-109929920D01*
X147435614Y-109902679D01*
X147435609Y-109902670D01*
X147426184Y-109888565D01*
X147426183Y-109888563D01*
X147358598Y-109787414D01*
X147257487Y-109686303D01*
X147257456Y-109686274D01*
X146205819Y-108634637D01*
X146172334Y-108573314D01*
X146169500Y-108546956D01*
X146169500Y-106621057D01*
X146169500Y-106621053D01*
X146168245Y-106614746D01*
X146145385Y-106499821D01*
X146138009Y-106482015D01*
X146098086Y-106385628D01*
X146098079Y-106385616D01*
X146029410Y-106282847D01*
X146029407Y-106282843D01*
X144886319Y-105139755D01*
X144852834Y-105078432D01*
X144850000Y-105052074D01*
X144850000Y-104136000D01*
X144100000Y-104136000D01*
X144100000Y-104230061D01*
X144080315Y-104297100D01*
X144027511Y-104342855D01*
X143989884Y-104353280D01*
X143911374Y-104362126D01*
X143842552Y-104350072D01*
X143809809Y-104326587D01*
X143755406Y-104272184D01*
X143602667Y-104176211D01*
X143432398Y-104116631D01*
X143432393Y-104116630D01*
X143253148Y-104096435D01*
X143253140Y-104096435D01*
X143073894Y-104116630D01*
X143073889Y-104116631D01*
X142903620Y-104176211D01*
X142750881Y-104272184D01*
X142623328Y-104399737D01*
X142527355Y-104552476D01*
X142467775Y-104722745D01*
X142467774Y-104722750D01*
X142447579Y-104901996D01*
X142447579Y-104902003D01*
X142467774Y-105081249D01*
X142467775Y-105081254D01*
X142527355Y-105251524D01*
X142606637Y-105377698D01*
X142625644Y-105443671D01*
X142625644Y-106120431D01*
X142605959Y-106187470D01*
X142589325Y-106208112D01*
X142273256Y-106524181D01*
X142211933Y-106557666D01*
X142185575Y-106560500D01*
X138364828Y-106560500D01*
X138297789Y-106540815D01*
X138252034Y-106488011D01*
X138241300Y-106447306D01*
X138241063Y-106444592D01*
X138192285Y-106262547D01*
X138193948Y-106192701D01*
X138233110Y-106134838D01*
X138297339Y-106107334D01*
X138336252Y-106108840D01*
X138360689Y-106113701D01*
X138360692Y-106113701D01*
X138499310Y-106113701D01*
X138590872Y-106095487D01*
X138635262Y-106086657D01*
X138763327Y-106033611D01*
X138878583Y-105956599D01*
X142452363Y-102382819D01*
X142513686Y-102349334D01*
X142540044Y-102346500D01*
X144359601Y-102346500D01*
X144425571Y-102365505D01*
X144430478Y-102368589D01*
X144430481Y-102368590D01*
X144600745Y-102428168D01*
X144600750Y-102428169D01*
X144659459Y-102434784D01*
X144723873Y-102461850D01*
X144763428Y-102519445D01*
X144765566Y-102589282D01*
X144729608Y-102649188D01*
X144684580Y-102675710D01*
X144530880Y-102726641D01*
X144530875Y-102726643D01*
X144381654Y-102818684D01*
X144257684Y-102942654D01*
X144165643Y-103091875D01*
X144165641Y-103091880D01*
X144110494Y-103258302D01*
X144110493Y-103258309D01*
X144100000Y-103361013D01*
X144100000Y-103636000D01*
X144850000Y-103636000D01*
X144850000Y-102660999D01*
X144833881Y-102644880D01*
X144800396Y-102583557D01*
X144805380Y-102513865D01*
X144847252Y-102457932D01*
X144907676Y-102433979D01*
X144959255Y-102428168D01*
X145129522Y-102368589D01*
X145282262Y-102272616D01*
X145345325Y-102209553D01*
X145406648Y-102176068D01*
X145476340Y-102181052D01*
X145520687Y-102209553D01*
X145881025Y-102569891D01*
X145914510Y-102631214D01*
X145909526Y-102700906D01*
X145867654Y-102756839D01*
X145802190Y-102781256D01*
X145733917Y-102766404D01*
X145728247Y-102763111D01*
X145669124Y-102726643D01*
X145669119Y-102726641D01*
X145502697Y-102671494D01*
X145502690Y-102671493D01*
X145399986Y-102661000D01*
X145350000Y-102661000D01*
X145350000Y-105110999D01*
X145399972Y-105110999D01*
X145399986Y-105110998D01*
X145502697Y-105100505D01*
X145669119Y-105045358D01*
X145669124Y-105045356D01*
X145818345Y-104953315D01*
X145942318Y-104829342D01*
X145944165Y-104826348D01*
X145945969Y-104824724D01*
X145946798Y-104823677D01*
X145946976Y-104823818D01*
X145996110Y-104779621D01*
X146065073Y-104768396D01*
X146129156Y-104796236D01*
X146155243Y-104826341D01*
X146157288Y-104829656D01*
X146281344Y-104953712D01*
X146430666Y-105045814D01*
X146597203Y-105100999D01*
X146699991Y-105111500D01*
X147300008Y-105111499D01*
X147300016Y-105111498D01*
X147300019Y-105111498D01*
X147356302Y-105105748D01*
X147402797Y-105100999D01*
X147569334Y-105045814D01*
X147639880Y-105002300D01*
X147707268Y-104983861D01*
X147773932Y-105004783D01*
X147818702Y-105058424D01*
X147826591Y-105083646D01*
X147832545Y-105113578D01*
X147834510Y-105123452D01*
X147834510Y-105123455D01*
X147841640Y-105159305D01*
X147841643Y-105159314D01*
X147894687Y-105287374D01*
X147894688Y-105287376D01*
X147894689Y-105287377D01*
X147943702Y-105360732D01*
X147964580Y-105427406D01*
X147964600Y-105429620D01*
X147964600Y-107378841D01*
X147964329Y-107384575D01*
X147964599Y-107455037D01*
X147964600Y-107455512D01*
X147964600Y-107526198D01*
X147964892Y-107531948D01*
X147972606Y-109545242D01*
X147955995Y-109607716D01*
X147894110Y-109714905D01*
X147842346Y-109874221D01*
X147838656Y-109885578D01*
X147819898Y-110064050D01*
X147838656Y-110242522D01*
X147838657Y-110242525D01*
X147894108Y-110413188D01*
X147894111Y-110413194D01*
X147983838Y-110568606D01*
X148024786Y-110614083D01*
X148103911Y-110701962D01*
X148103914Y-110701964D01*
X148103917Y-110701967D01*
X148166997Y-110747797D01*
X148249099Y-110807448D01*
X148413034Y-110880437D01*
X148413039Y-110880439D01*
X148588573Y-110917750D01*
X148768027Y-110917750D01*
X148943561Y-110880439D01*
X149107501Y-110807448D01*
X149252683Y-110701967D01*
X149253369Y-110701206D01*
X149278698Y-110673073D01*
X149372762Y-110568606D01*
X149462489Y-110413194D01*
X149517944Y-110242522D01*
X149536702Y-110064050D01*
X149517944Y-109885578D01*
X149462489Y-109714906D01*
X149396604Y-109600790D01*
X149379993Y-109539270D01*
X149372000Y-107452777D01*
X149372000Y-107370729D01*
X149391685Y-107303690D01*
X149444489Y-107257935D01*
X149513647Y-107247991D01*
X149554453Y-107261371D01*
X149668262Y-107322203D01*
X149729273Y-107354814D01*
X149917868Y-107412024D01*
X150114000Y-107431341D01*
X150310132Y-107412024D01*
X150498727Y-107354814D01*
X150672538Y-107261910D01*
X150824883Y-107136883D01*
X150949910Y-106984538D01*
X151027593Y-106839204D01*
X151042811Y-106810733D01*
X151042811Y-106810732D01*
X151042814Y-106810727D01*
X151100024Y-106622132D01*
X151119341Y-106426000D01*
X151100024Y-106229868D01*
X151082407Y-106171793D01*
X151060459Y-106099440D01*
X151059835Y-106029573D01*
X151097083Y-105970460D01*
X151160377Y-105940869D01*
X151165236Y-105940224D01*
X151165610Y-105940181D01*
X151165612Y-105940182D01*
X151260352Y-105929507D01*
X151344861Y-105919986D01*
X151344864Y-105919985D01*
X151344867Y-105919985D01*
X151515134Y-105860406D01*
X151667874Y-105764433D01*
X151795428Y-105636879D01*
X151891401Y-105484139D01*
X151950980Y-105313872D01*
X151953966Y-105287377D01*
X151958342Y-105248534D01*
X151985408Y-105184120D01*
X152043003Y-105144565D01*
X152095445Y-105139197D01*
X152195896Y-105150515D01*
X152195900Y-105150515D01*
X152195903Y-105150515D01*
X152256440Y-105143694D01*
X152325262Y-105155748D01*
X152376642Y-105203097D01*
X152394266Y-105270708D01*
X152386506Y-105310246D01*
X152362909Y-105373514D01*
X152362908Y-105373516D01*
X152356501Y-105433116D01*
X152356500Y-105433135D01*
X152356500Y-106428870D01*
X152356501Y-106428876D01*
X152362908Y-106488483D01*
X152413202Y-106623328D01*
X152413206Y-106623335D01*
X152463112Y-106690000D01*
X152499454Y-106738546D01*
X152603612Y-106816519D01*
X152645482Y-106872451D01*
X152653300Y-106915784D01*
X152653300Y-106948460D01*
X152634839Y-107013556D01*
X152547189Y-107155659D01*
X152547185Y-107155668D01*
X152547115Y-107155880D01*
X152492001Y-107322203D01*
X152492001Y-107322204D01*
X152492000Y-107322204D01*
X152481500Y-107424983D01*
X152481500Y-108475001D01*
X152481501Y-108475019D01*
X152492000Y-108577796D01*
X152492001Y-108577799D01*
X152547185Y-108744331D01*
X152547187Y-108744336D01*
X152579067Y-108796021D01*
X152639288Y-108893656D01*
X152763344Y-109017712D01*
X152912666Y-109109814D01*
X153079203Y-109164999D01*
X153181991Y-109175500D01*
X153782008Y-109175499D01*
X153782016Y-109175498D01*
X153782019Y-109175498D01*
X153838302Y-109169748D01*
X153884797Y-109164999D01*
X154051334Y-109109814D01*
X154200656Y-109017712D01*
X154324712Y-108893656D01*
X154326752Y-108890347D01*
X154328745Y-108888555D01*
X154329193Y-108887989D01*
X154329289Y-108888065D01*
X154378694Y-108843623D01*
X154447656Y-108832395D01*
X154511740Y-108860234D01*
X154537829Y-108890339D01*
X154539681Y-108893341D01*
X154539683Y-108893344D01*
X154663654Y-109017315D01*
X154812875Y-109109356D01*
X154812880Y-109109358D01*
X154979302Y-109164505D01*
X154979309Y-109164506D01*
X155082019Y-109174999D01*
X155131999Y-109174998D01*
X155132000Y-109174998D01*
X155132000Y-108200000D01*
X155632000Y-108200000D01*
X155632000Y-109174999D01*
X155681972Y-109174999D01*
X155681986Y-109174998D01*
X155784697Y-109164505D01*
X155951119Y-109109358D01*
X155951124Y-109109356D01*
X156100345Y-109017315D01*
X156224315Y-108893345D01*
X156316356Y-108744124D01*
X156316358Y-108744119D01*
X156371505Y-108577697D01*
X156371506Y-108577690D01*
X156381999Y-108474986D01*
X156382000Y-108474973D01*
X156382000Y-108200000D01*
X155632000Y-108200000D01*
X155132000Y-108200000D01*
X155132000Y-107700000D01*
X155632000Y-107700000D01*
X156381999Y-107700000D01*
X156381999Y-107425028D01*
X156381998Y-107425013D01*
X156371505Y-107322302D01*
X156316358Y-107155880D01*
X156316356Y-107155875D01*
X156224316Y-107006655D01*
X156221947Y-107003659D01*
X156220962Y-107001218D01*
X156220525Y-107000509D01*
X156220646Y-107000434D01*
X156195809Y-106938862D01*
X156208851Y-106870221D01*
X156244905Y-106827484D01*
X156364191Y-106738186D01*
X156450350Y-106623093D01*
X156450354Y-106623086D01*
X156500596Y-106488379D01*
X156500598Y-106488372D01*
X156506999Y-106428844D01*
X156507000Y-106428827D01*
X156507000Y-106181000D01*
X155757000Y-106181000D01*
X155757000Y-106800000D01*
X155737315Y-106867039D01*
X155684511Y-106912794D01*
X155633000Y-106924000D01*
X155632000Y-106924000D01*
X155632000Y-107700000D01*
X155132000Y-107700000D01*
X155132000Y-106806000D01*
X155151685Y-106738961D01*
X155204489Y-106693206D01*
X155256000Y-106682000D01*
X155257000Y-106682000D01*
X155257000Y-105805000D01*
X155276685Y-105737961D01*
X155329489Y-105692206D01*
X155381000Y-105681000D01*
X156507000Y-105681000D01*
X156507000Y-105433172D01*
X156506999Y-105433155D01*
X156500598Y-105373627D01*
X156500597Y-105373623D01*
X156450350Y-105238907D01*
X156444228Y-105230729D01*
X156419809Y-105165265D01*
X156434659Y-105096992D01*
X156444223Y-105082111D01*
X156450796Y-105073331D01*
X156501091Y-104938483D01*
X156507500Y-104878873D01*
X156507499Y-103883128D01*
X156501091Y-103823517D01*
X156469904Y-103739901D01*
X156450797Y-103688671D01*
X156450793Y-103688664D01*
X156398372Y-103618639D01*
X156364546Y-103573454D01*
X156260387Y-103495480D01*
X156218518Y-103439549D01*
X156210700Y-103396216D01*
X156210700Y-102894393D01*
X156210701Y-102894372D01*
X156210701Y-102749639D01*
X156183658Y-102613693D01*
X156183656Y-102613685D01*
X156137938Y-102503311D01*
X156128499Y-102455859D01*
X156128499Y-101914948D01*
X156128498Y-101914931D01*
X156117999Y-101812153D01*
X156117998Y-101812150D01*
X156086067Y-101715789D01*
X156062814Y-101645616D01*
X155970712Y-101496294D01*
X155946720Y-101472302D01*
X155913235Y-101410979D01*
X155918219Y-101341287D01*
X155946723Y-101296937D01*
X155970314Y-101273346D01*
X156062356Y-101124124D01*
X156062358Y-101124119D01*
X156117505Y-100957697D01*
X156117506Y-100957690D01*
X156127999Y-100854986D01*
X156127999Y-100780545D01*
X156147683Y-100713505D01*
X156200486Y-100667749D01*
X156269644Y-100657805D01*
X156333201Y-100686829D01*
X156339680Y-100692862D01*
X156993981Y-101347163D01*
X157027466Y-101408486D01*
X157030300Y-101434844D01*
X157030300Y-113472300D01*
X157010615Y-113539339D01*
X156957811Y-113585094D01*
X156906300Y-113596300D01*
X155523442Y-113596300D01*
X155523422Y-113596299D01*
X155517308Y-113596299D01*
X155378692Y-113596299D01*
X155378690Y-113596299D01*
X155242743Y-113623341D01*
X155242735Y-113623343D01*
X155114676Y-113676386D01*
X154999416Y-113753400D01*
X154950408Y-113802408D01*
X154901400Y-113851417D01*
X154901397Y-113851420D01*
X153983420Y-114769397D01*
X153983417Y-114769400D01*
X153947911Y-114804906D01*
X153885400Y-114867416D01*
X153825340Y-114957304D01*
X153825339Y-114957305D01*
X153808393Y-114982665D01*
X153808385Y-114982679D01*
X153755343Y-115110735D01*
X153755341Y-115110743D01*
X153728299Y-115246689D01*
X153728299Y-115391421D01*
X153728300Y-115391442D01*
X153728300Y-115567995D01*
X153708615Y-115635034D01*
X153700153Y-115646660D01*
X153596091Y-115773460D01*
X153596086Y-115773467D01*
X153503188Y-115947266D01*
X153445975Y-116135870D01*
X153426659Y-116332000D01*
X153445975Y-116528129D01*
X153445976Y-116528132D01*
X153478196Y-116634348D01*
X153503188Y-116716733D01*
X153596086Y-116890532D01*
X153596090Y-116890539D01*
X153721116Y-117042883D01*
X153873460Y-117167909D01*
X153873467Y-117167913D01*
X154047266Y-117260811D01*
X154047269Y-117260811D01*
X154047273Y-117260814D01*
X154235868Y-117318024D01*
X154432000Y-117337341D01*
X154628132Y-117318024D01*
X154816727Y-117260814D01*
X154990538Y-117167910D01*
X155142883Y-117042883D01*
X155267910Y-116890538D01*
X155357738Y-116722482D01*
X155360811Y-116716733D01*
X155360811Y-116716732D01*
X155360814Y-116716727D01*
X155418024Y-116528132D01*
X155437341Y-116332000D01*
X155418024Y-116135868D01*
X155360814Y-115947273D01*
X155360811Y-115947269D01*
X155360811Y-115947266D01*
X155267913Y-115773467D01*
X155267909Y-115773460D01*
X155204797Y-115696558D01*
X155177484Y-115632248D01*
X155189275Y-115563380D01*
X155212966Y-115530215D01*
X155703163Y-115040019D01*
X155764486Y-115006534D01*
X155790844Y-115003700D01*
X156412060Y-115003700D01*
X156479099Y-115023385D01*
X156524854Y-115076189D01*
X156534798Y-115145347D01*
X156517054Y-115193672D01*
X156500211Y-115220476D01*
X156440631Y-115390745D01*
X156440630Y-115390750D01*
X156420435Y-115569996D01*
X156420435Y-115570003D01*
X156440630Y-115749249D01*
X156440631Y-115749254D01*
X156500211Y-115919523D01*
X156596184Y-116072262D01*
X156723738Y-116199816D01*
X156876478Y-116295789D01*
X157003360Y-116340187D01*
X157046745Y-116355368D01*
X157046750Y-116355369D01*
X157225996Y-116375565D01*
X157226000Y-116375565D01*
X157226004Y-116375565D01*
X157405249Y-116355369D01*
X157405252Y-116355368D01*
X157405255Y-116355368D01*
X157575522Y-116295789D01*
X157728262Y-116199816D01*
X157855816Y-116072262D01*
X157951789Y-115919522D01*
X157985572Y-115822974D01*
X158014930Y-115776250D01*
X158182579Y-115608602D01*
X158182583Y-115608600D01*
X158280600Y-115510583D01*
X158357611Y-115395327D01*
X158383195Y-115333562D01*
X158427035Y-115279158D01*
X158493329Y-115257093D01*
X158561029Y-115274372D01*
X158585437Y-115293333D01*
X158640599Y-115348495D01*
X158701904Y-115391421D01*
X158834165Y-115484032D01*
X158834167Y-115484033D01*
X158834170Y-115484035D01*
X159048337Y-115583903D01*
X159048343Y-115583904D01*
X159048344Y-115583905D01*
X159085262Y-115593797D01*
X159276592Y-115645063D01*
X159464918Y-115661539D01*
X159511999Y-115665659D01*
X159512000Y-115665659D01*
X159512001Y-115665659D01*
X159551234Y-115662226D01*
X159747408Y-115645063D01*
X159975663Y-115583903D01*
X160189830Y-115484035D01*
X160383401Y-115348495D01*
X160550495Y-115181401D01*
X160686035Y-114987830D01*
X160785903Y-114773663D01*
X160847063Y-114545408D01*
X160867659Y-114310000D01*
X160847063Y-114074592D01*
X160785903Y-113846337D01*
X160686035Y-113632171D01*
X160679853Y-113623341D01*
X160550494Y-113438597D01*
X160383402Y-113271506D01*
X160383396Y-113271501D01*
X160197842Y-113141575D01*
X160154217Y-113086998D01*
X160147023Y-113017500D01*
X160178546Y-112955145D01*
X160197842Y-112938425D01*
X160287632Y-112875553D01*
X160383401Y-112808495D01*
X160550495Y-112641401D01*
X160686035Y-112447830D01*
X160785903Y-112233663D01*
X160847063Y-112005408D01*
X160867659Y-111770000D01*
X160847063Y-111534592D01*
X160785903Y-111306337D01*
X160686035Y-111092171D01*
X160672979Y-111073524D01*
X160550494Y-110898597D01*
X160383402Y-110731506D01*
X160383396Y-110731501D01*
X160197842Y-110601575D01*
X160154217Y-110546998D01*
X160147023Y-110477500D01*
X160178546Y-110415145D01*
X160197842Y-110398425D01*
X160342517Y-110297122D01*
X160383401Y-110268495D01*
X160550495Y-110101401D01*
X160686035Y-109907830D01*
X160785903Y-109693663D01*
X160847063Y-109465408D01*
X160867659Y-109230000D01*
X160847063Y-108994592D01*
X160785917Y-108766389D01*
X160785905Y-108766344D01*
X160785904Y-108766343D01*
X160785903Y-108766337D01*
X160686035Y-108552171D01*
X160682384Y-108546956D01*
X160550494Y-108358597D01*
X160383402Y-108191506D01*
X160383396Y-108191501D01*
X160197842Y-108061575D01*
X160154217Y-108006998D01*
X160147023Y-107937500D01*
X160178546Y-107875145D01*
X160197842Y-107858425D01*
X160246776Y-107824161D01*
X160383401Y-107728495D01*
X160550495Y-107561401D01*
X160686035Y-107367830D01*
X160785903Y-107153663D01*
X160847063Y-106925408D01*
X160867659Y-106690000D01*
X160847063Y-106454592D01*
X160785903Y-106226337D01*
X160686035Y-106012171D01*
X160647124Y-105956599D01*
X160550494Y-105818597D01*
X160383402Y-105651506D01*
X160383396Y-105651501D01*
X160197842Y-105521575D01*
X160154217Y-105466998D01*
X160147023Y-105397500D01*
X160178546Y-105335145D01*
X160197842Y-105318425D01*
X160246776Y-105284161D01*
X160383401Y-105188495D01*
X160550495Y-105021401D01*
X160686035Y-104827830D01*
X160785903Y-104613663D01*
X160847063Y-104385408D01*
X160867659Y-104150000D01*
X160847063Y-103914592D01*
X160793619Y-103715134D01*
X160785905Y-103686344D01*
X160785904Y-103686343D01*
X160785903Y-103686337D01*
X160686035Y-103472171D01*
X160679208Y-103462420D01*
X160550494Y-103278597D01*
X160383402Y-103111506D01*
X160383396Y-103111501D01*
X160197842Y-102981575D01*
X160154217Y-102926998D01*
X160147023Y-102857500D01*
X160178546Y-102795145D01*
X160197842Y-102778425D01*
X160238948Y-102749642D01*
X160383401Y-102648495D01*
X160550495Y-102481401D01*
X160686035Y-102287830D01*
X160785903Y-102073663D01*
X160847063Y-101845408D01*
X160867659Y-101610000D01*
X160847063Y-101374592D01*
X160785903Y-101146337D01*
X160686035Y-100932171D01*
X160684556Y-100930058D01*
X160550494Y-100738597D01*
X160383402Y-100571506D01*
X160383396Y-100571501D01*
X160197842Y-100441575D01*
X160154217Y-100386998D01*
X160147023Y-100317500D01*
X160178546Y-100255145D01*
X160197842Y-100238425D01*
X160220026Y-100222891D01*
X160383401Y-100108495D01*
X160550495Y-99941401D01*
X160686035Y-99747830D01*
X160785903Y-99533663D01*
X160847063Y-99305408D01*
X160867659Y-99070000D01*
X160847063Y-98834592D01*
X160785903Y-98606337D01*
X160686035Y-98392171D01*
X160672907Y-98373421D01*
X160550494Y-98198597D01*
X160383402Y-98031506D01*
X160383401Y-98031505D01*
X160197405Y-97901269D01*
X160153781Y-97846692D01*
X160146588Y-97777193D01*
X160178110Y-97714839D01*
X160197405Y-97698119D01*
X160383082Y-97568105D01*
X160550105Y-97401082D01*
X160685600Y-97207578D01*
X160785429Y-96993492D01*
X160785432Y-96993486D01*
X160842636Y-96780000D01*
X159945012Y-96780000D01*
X159977925Y-96722993D01*
X160012000Y-96595826D01*
X160012000Y-96464174D01*
X159977925Y-96337007D01*
X159945012Y-96280000D01*
X160842636Y-96280000D01*
X160842635Y-96279999D01*
X160785432Y-96066513D01*
X160785429Y-96066507D01*
X160685600Y-95852422D01*
X160685599Y-95852420D01*
X160550113Y-95658926D01*
X160550108Y-95658920D01*
X160428053Y-95536865D01*
X160394568Y-95475542D01*
X160399552Y-95405850D01*
X160441424Y-95349917D01*
X160472400Y-95333002D01*
X160561847Y-95299641D01*
X160604326Y-95283798D01*
X160604326Y-95283797D01*
X160604331Y-95283796D01*
X160719546Y-95197546D01*
X160805796Y-95082331D01*
X160856091Y-94947483D01*
X160862500Y-94887873D01*
X160862499Y-93092128D01*
X160856091Y-93032517D01*
X160851327Y-93019745D01*
X160805797Y-92897671D01*
X160805793Y-92897664D01*
X160719547Y-92782455D01*
X160719544Y-92782452D01*
X160604335Y-92696206D01*
X160604328Y-92696202D01*
X160469483Y-92645908D01*
X160428043Y-92641453D01*
X160363492Y-92614714D01*
X160323645Y-92557321D01*
X160317300Y-92518164D01*
X160317300Y-91733300D01*
X160336985Y-91666261D01*
X160389789Y-91620506D01*
X160441300Y-91609300D01*
X161200677Y-91609300D01*
X161265773Y-91627761D01*
X161368303Y-91691003D01*
X161529292Y-91744349D01*
X161628655Y-91754500D01*
X162392700Y-91754499D01*
X162459739Y-91774183D01*
X162505494Y-91826987D01*
X162516700Y-91878499D01*
X162516700Y-117257071D01*
X162497015Y-117324110D01*
X162480381Y-117344753D01*
X162340488Y-117484645D01*
X162279165Y-117518129D01*
X162216259Y-117515455D01*
X162177461Y-117503488D01*
X162177458Y-117503487D01*
X162052452Y-117484645D01*
X161925440Y-117465500D01*
X161925435Y-117465500D01*
X161670565Y-117465500D01*
X161670559Y-117465500D01*
X161513609Y-117489157D01*
X161418542Y-117503487D01*
X161418539Y-117503488D01*
X161418533Y-117503489D01*
X161174992Y-117578612D01*
X160945373Y-117689190D01*
X160945372Y-117689191D01*
X160734782Y-117832768D01*
X160547952Y-118006121D01*
X160547950Y-118006123D01*
X160389041Y-118205388D01*
X160261608Y-118426109D01*
X160168492Y-118663362D01*
X160168490Y-118663369D01*
X160111777Y-118911845D01*
X160092732Y-119165995D01*
X160092732Y-119166004D01*
X160111777Y-119420154D01*
X160153244Y-119601834D01*
X160168492Y-119668637D01*
X160261607Y-119905888D01*
X160389041Y-120126612D01*
X160547950Y-120325877D01*
X160734783Y-120499232D01*
X160945366Y-120642805D01*
X160945371Y-120642807D01*
X160945372Y-120642808D01*
X160945373Y-120642809D01*
X161036693Y-120686786D01*
X161174992Y-120753387D01*
X161174993Y-120753387D01*
X161174996Y-120753389D01*
X161418542Y-120828513D01*
X161670565Y-120866500D01*
X161925435Y-120866500D01*
X162177458Y-120828513D01*
X162421004Y-120753389D01*
X162650634Y-120642805D01*
X162861217Y-120499232D01*
X163048050Y-120325877D01*
X163206959Y-120126612D01*
X163334393Y-119905888D01*
X163427508Y-119668637D01*
X163484222Y-119420157D01*
X163493657Y-119294249D01*
X163503268Y-119166004D01*
X163503268Y-119165995D01*
X163484222Y-118911845D01*
X163471972Y-118858174D01*
X163444986Y-118739939D01*
X163449259Y-118670203D01*
X163478194Y-118624670D01*
X163835345Y-118267520D01*
X163835349Y-118267518D01*
X163947518Y-118155349D01*
X164035648Y-118023453D01*
X164092051Y-117887283D01*
X164096353Y-117876898D01*
X164127300Y-117721316D01*
X164127300Y-117562685D01*
X164127300Y-88058685D01*
X164113379Y-87988696D01*
X164096353Y-87903102D01*
X164069108Y-87837327D01*
X164069108Y-87837326D01*
X164035139Y-87755317D01*
X164025700Y-87707865D01*
X164025700Y-81464692D01*
X164022207Y-81447132D01*
X164012765Y-81399666D01*
X164012764Y-81399663D01*
X164000459Y-81337799D01*
X163998657Y-81328738D01*
X163966185Y-81250344D01*
X163945613Y-81200677D01*
X163945612Y-81200675D01*
X163945611Y-81200673D01*
X163938480Y-81190001D01*
X163933926Y-81183186D01*
X163868598Y-81085414D01*
X163767487Y-80984303D01*
X163767456Y-80984274D01*
X162835824Y-80052642D01*
X162802339Y-79991319D01*
X162800102Y-79977115D01*
X162784024Y-79813868D01*
X162726814Y-79625273D01*
X162726811Y-79625269D01*
X162726811Y-79625266D01*
X162633913Y-79451467D01*
X162633909Y-79451460D01*
X162508883Y-79299116D01*
X162356539Y-79174090D01*
X162356532Y-79174086D01*
X162182733Y-79081188D01*
X162182727Y-79081186D01*
X162056997Y-79043046D01*
X161994129Y-79023975D01*
X161798000Y-79004659D01*
X161601870Y-79023975D01*
X161413266Y-79081188D01*
X161239467Y-79174086D01*
X161239460Y-79174090D01*
X161087116Y-79299116D01*
X160962090Y-79451460D01*
X160962086Y-79451467D01*
X160869188Y-79625266D01*
X160811975Y-79813870D01*
X160792659Y-80010000D01*
X160811975Y-80206129D01*
X160869188Y-80394733D01*
X160962086Y-80568532D01*
X160962090Y-80568539D01*
X161087116Y-80720883D01*
X161239460Y-80845909D01*
X161239467Y-80845913D01*
X161413266Y-80938811D01*
X161413269Y-80938811D01*
X161413273Y-80938814D01*
X161601868Y-80996024D01*
X161765115Y-81012102D01*
X161829902Y-81038263D01*
X161840642Y-81047824D01*
X162581981Y-81789163D01*
X162615466Y-81850486D01*
X162618300Y-81876844D01*
X162618300Y-82174736D01*
X162598615Y-82241775D01*
X162545811Y-82287530D01*
X162476653Y-82297474D01*
X162415635Y-82270589D01*
X162356539Y-82222091D01*
X162356532Y-82222086D01*
X162182733Y-82129188D01*
X162182727Y-82129186D01*
X161994132Y-82071976D01*
X161994129Y-82071975D01*
X161798000Y-82052659D01*
X161601870Y-82071975D01*
X161413266Y-82129188D01*
X161239467Y-82222086D01*
X161239460Y-82222090D01*
X161087116Y-82347116D01*
X160962090Y-82499460D01*
X160962086Y-82499467D01*
X160869188Y-82673266D01*
X160811975Y-82861870D01*
X160792659Y-83058000D01*
X160811975Y-83254129D01*
X160811976Y-83254132D01*
X160861836Y-83418499D01*
X160869188Y-83442733D01*
X160962086Y-83616532D01*
X160962090Y-83616539D01*
X161066153Y-83743338D01*
X161093466Y-83807647D01*
X161094300Y-83822003D01*
X161094300Y-85255155D01*
X161074615Y-85322194D01*
X161057981Y-85342836D01*
X159883635Y-86517181D01*
X159822312Y-86550666D01*
X159795954Y-86553500D01*
X159088662Y-86553500D01*
X159088644Y-86553501D01*
X158989292Y-86563650D01*
X158989289Y-86563651D01*
X158828305Y-86616996D01*
X158828294Y-86617001D01*
X158683959Y-86706029D01*
X158601180Y-86788808D01*
X158539856Y-86822292D01*
X158470165Y-86817308D01*
X158414231Y-86775436D01*
X158389815Y-86709971D01*
X158389499Y-86701142D01*
X158389499Y-86113992D01*
X158387933Y-86098666D01*
X158378999Y-86011203D01*
X158378998Y-86011200D01*
X158372101Y-85990386D01*
X158323814Y-85844666D01*
X158231712Y-85695344D01*
X158119172Y-85582804D01*
X158085687Y-85521481D01*
X158090671Y-85451789D01*
X158127687Y-85400957D01*
X158127549Y-85400819D01*
X158128429Y-85399938D01*
X158129949Y-85397852D01*
X158132650Y-85395715D01*
X158132656Y-85395712D01*
X158256712Y-85271656D01*
X158348814Y-85122334D01*
X158403999Y-84955797D01*
X158414500Y-84853009D01*
X158414499Y-83802992D01*
X158408600Y-83745249D01*
X158403999Y-83700203D01*
X158403998Y-83700200D01*
X158388978Y-83654874D01*
X158348814Y-83533666D01*
X158256712Y-83384344D01*
X158183195Y-83310827D01*
X158149710Y-83249504D01*
X158154694Y-83179812D01*
X158183196Y-83135464D01*
X158231315Y-83087345D01*
X158323356Y-82938124D01*
X158323358Y-82938119D01*
X158378505Y-82771697D01*
X158378506Y-82771690D01*
X158388999Y-82668986D01*
X158389000Y-82668973D01*
X158389000Y-82419000D01*
X157250500Y-82419000D01*
X157183461Y-82399315D01*
X157137706Y-82346511D01*
X157126500Y-82295000D01*
X157126500Y-82043000D01*
X157146185Y-81975961D01*
X157198989Y-81930206D01*
X157250500Y-81919000D01*
X158388999Y-81919000D01*
X158388999Y-81669028D01*
X158388998Y-81669013D01*
X158378505Y-81566302D01*
X158323358Y-81399880D01*
X158323356Y-81399875D01*
X158227525Y-81244509D01*
X158229170Y-81243493D01*
X158206689Y-81187789D01*
X158219720Y-81119145D01*
X158267794Y-81068444D01*
X158335648Y-81051781D01*
X158343977Y-81052437D01*
X158495996Y-81069565D01*
X158496000Y-81069565D01*
X158496004Y-81069565D01*
X158675249Y-81049369D01*
X158675252Y-81049368D01*
X158675255Y-81049368D01*
X158845522Y-80989789D01*
X158998262Y-80893816D01*
X159125816Y-80766262D01*
X159221789Y-80613522D01*
X159281368Y-80443255D01*
X159281369Y-80443249D01*
X159301565Y-80264003D01*
X159301565Y-80263996D01*
X159281369Y-80084750D01*
X159281368Y-80084745D01*
X159260490Y-80025079D01*
X159221789Y-79914478D01*
X159216963Y-79906798D01*
X159143789Y-79790342D01*
X159125816Y-79761738D01*
X158998262Y-79634184D01*
X158845522Y-79538211D01*
X158845520Y-79538210D01*
X158748975Y-79504427D01*
X158702249Y-79475067D01*
X158665940Y-79438758D01*
X158665920Y-79438736D01*
X158563585Y-79336401D01*
X158494611Y-79290315D01*
X158448327Y-79259389D01*
X158448325Y-79259388D01*
X158448322Y-79259386D01*
X158412383Y-79244499D01*
X158357980Y-79200657D01*
X158342131Y-79168944D01*
X158339040Y-79159615D01*
X158323814Y-79113666D01*
X158231712Y-78964344D01*
X158107656Y-78840288D01*
X157958334Y-78748186D01*
X157791797Y-78693001D01*
X157791795Y-78693000D01*
X157689010Y-78682500D01*
X157063998Y-78682500D01*
X157063980Y-78682501D01*
X156961203Y-78693000D01*
X156961200Y-78693001D01*
X156794668Y-78748185D01*
X156794663Y-78748187D01*
X156645342Y-78840289D01*
X156551681Y-78933951D01*
X156490358Y-78967436D01*
X156420666Y-78962452D01*
X156376319Y-78933951D01*
X156282657Y-78840289D01*
X156282656Y-78840288D01*
X156133334Y-78748186D01*
X155966797Y-78693001D01*
X155966795Y-78693000D01*
X155864010Y-78682500D01*
X155238998Y-78682500D01*
X155238980Y-78682501D01*
X155136203Y-78693000D01*
X155136200Y-78693001D01*
X154969668Y-78748185D01*
X154969663Y-78748187D01*
X154820342Y-78840289D01*
X154696289Y-78964342D01*
X154696288Y-78964344D01*
X154624219Y-79081188D01*
X154600395Y-79119813D01*
X154597736Y-79118172D01*
X154560842Y-79160114D01*
X154494584Y-79179300D01*
X153487344Y-79179300D01*
X153420305Y-79159615D01*
X153399663Y-79142981D01*
X153170819Y-78914137D01*
X153137334Y-78852814D01*
X153134500Y-78826456D01*
X153134500Y-78551700D01*
X153154185Y-78484661D01*
X153206989Y-78438906D01*
X153258500Y-78427700D01*
X158179880Y-78427700D01*
X158246919Y-78447385D01*
X158292674Y-78500189D01*
X158298540Y-78515704D01*
X158329186Y-78616728D01*
X158422086Y-78790532D01*
X158422090Y-78790539D01*
X158547116Y-78942883D01*
X158699460Y-79067909D01*
X158699467Y-79067913D01*
X158873266Y-79160811D01*
X158873269Y-79160811D01*
X158873273Y-79160814D01*
X159061868Y-79218024D01*
X159258000Y-79237341D01*
X159454132Y-79218024D01*
X159642727Y-79160814D01*
X159644971Y-79159615D01*
X159784797Y-79084876D01*
X159816538Y-79067910D01*
X159968883Y-78942883D01*
X160093910Y-78790538D01*
X160151816Y-78682203D01*
X160186811Y-78616733D01*
X160186813Y-78616728D01*
X160186814Y-78616727D01*
X160244024Y-78428132D01*
X160263341Y-78232000D01*
X160244024Y-78035868D01*
X160186814Y-77847273D01*
X160186811Y-77847269D01*
X160186811Y-77847266D01*
X160093913Y-77673467D01*
X160093909Y-77673460D01*
X159968883Y-77521116D01*
X159816536Y-77396088D01*
X159813486Y-77394050D01*
X159812248Y-77392569D01*
X159811829Y-77392225D01*
X159811894Y-77392145D01*
X159768682Y-77340436D01*
X159759977Y-77271111D01*
X159790134Y-77208084D01*
X159849578Y-77171367D01*
X159882380Y-77166950D01*
X164388600Y-77166950D01*
X164455639Y-77186635D01*
G37*
%TD.AperFunction*%
%TA.AperFunction,Conductor*%
G36*
X146058599Y-115908694D02*
G01*
X146100477Y-115964623D01*
X146108300Y-116007970D01*
X146108300Y-118125492D01*
X146088615Y-118192531D01*
X146035811Y-118238286D01*
X145966653Y-118248230D01*
X145903097Y-118219205D01*
X145882725Y-118196615D01*
X145858925Y-118162626D01*
X145858925Y-118162625D01*
X145226962Y-118794589D01*
X145209925Y-118731007D01*
X145144099Y-118616993D01*
X145051007Y-118523901D01*
X144936993Y-118458075D01*
X144873410Y-118441037D01*
X145505373Y-117809073D01*
X145505373Y-117809072D01*
X145421583Y-117750402D01*
X145421579Y-117750400D01*
X145207492Y-117650570D01*
X145207483Y-117650566D01*
X144979326Y-117589432D01*
X144979315Y-117589430D01*
X144744002Y-117568843D01*
X144743998Y-117568843D01*
X144508684Y-117589430D01*
X144508673Y-117589432D01*
X144280516Y-117650566D01*
X144280507Y-117650570D01*
X144066419Y-117750401D01*
X143982625Y-117809072D01*
X144614590Y-118441037D01*
X144551007Y-118458075D01*
X144436993Y-118523901D01*
X144343901Y-118616993D01*
X144278075Y-118731007D01*
X144261037Y-118794589D01*
X143629073Y-118162625D01*
X143629072Y-118162625D01*
X143570401Y-118246419D01*
X143470570Y-118460507D01*
X143470566Y-118460516D01*
X143409432Y-118688673D01*
X143409430Y-118688684D01*
X143388843Y-118923998D01*
X143388843Y-118924001D01*
X143409430Y-119159315D01*
X143409432Y-119159326D01*
X143470566Y-119387483D01*
X143470570Y-119387492D01*
X143570400Y-119601579D01*
X143570402Y-119601583D01*
X143629072Y-119685373D01*
X143629073Y-119685373D01*
X144261037Y-119053409D01*
X144278075Y-119116993D01*
X144343901Y-119231007D01*
X144436993Y-119324099D01*
X144551007Y-119389925D01*
X144614590Y-119406962D01*
X143982625Y-120038925D01*
X144066421Y-120097599D01*
X144280507Y-120197429D01*
X144280516Y-120197433D01*
X144508673Y-120258567D01*
X144508684Y-120258569D01*
X144743998Y-120279157D01*
X144744002Y-120279157D01*
X144979315Y-120258569D01*
X144979326Y-120258567D01*
X145207483Y-120197433D01*
X145207492Y-120197429D01*
X145421578Y-120097600D01*
X145421582Y-120097598D01*
X145505373Y-120038926D01*
X145505373Y-120038925D01*
X144873409Y-119406962D01*
X144936993Y-119389925D01*
X145051007Y-119324099D01*
X145144099Y-119231007D01*
X145209925Y-119116993D01*
X145226962Y-119053410D01*
X145858925Y-119685373D01*
X145882725Y-119651384D01*
X145937302Y-119607759D01*
X146006801Y-119600567D01*
X146069155Y-119632089D01*
X146104569Y-119692319D01*
X146108300Y-119722508D01*
X146108300Y-124625492D01*
X146088615Y-124692531D01*
X146035811Y-124738286D01*
X145966653Y-124748230D01*
X145903097Y-124719205D01*
X145882725Y-124696615D01*
X145858925Y-124662626D01*
X145858925Y-124662625D01*
X145226962Y-125294589D01*
X145209925Y-125231007D01*
X145144099Y-125116993D01*
X145051007Y-125023901D01*
X144936993Y-124958075D01*
X144873410Y-124941037D01*
X145505373Y-124309073D01*
X145505373Y-124309072D01*
X145421583Y-124250402D01*
X145421579Y-124250400D01*
X145207492Y-124150570D01*
X145207483Y-124150566D01*
X144979326Y-124089432D01*
X144979315Y-124089430D01*
X144744002Y-124068843D01*
X144743998Y-124068843D01*
X144508684Y-124089430D01*
X144508673Y-124089432D01*
X144280516Y-124150566D01*
X144280507Y-124150570D01*
X144066419Y-124250401D01*
X143982625Y-124309072D01*
X144614590Y-124941037D01*
X144551007Y-124958075D01*
X144436993Y-125023901D01*
X144343901Y-125116993D01*
X144278075Y-125231007D01*
X144261037Y-125294589D01*
X143629073Y-124662625D01*
X143629072Y-124662625D01*
X143570401Y-124746419D01*
X143470570Y-124960507D01*
X143470566Y-124960516D01*
X143409432Y-125188673D01*
X143409430Y-125188684D01*
X143388843Y-125423998D01*
X143388843Y-125424001D01*
X143409430Y-125659315D01*
X143409432Y-125659326D01*
X143470566Y-125887483D01*
X143470570Y-125887492D01*
X143570400Y-126101579D01*
X143570402Y-126101583D01*
X143629072Y-126185373D01*
X143629073Y-126185373D01*
X144261037Y-125553409D01*
X144278075Y-125616993D01*
X144343901Y-125731007D01*
X144436993Y-125824099D01*
X144551007Y-125889925D01*
X144614590Y-125906962D01*
X143982625Y-126538925D01*
X144066421Y-126597599D01*
X144280507Y-126697429D01*
X144280516Y-126697433D01*
X144508673Y-126758567D01*
X144508684Y-126758569D01*
X144743998Y-126779157D01*
X144744002Y-126779157D01*
X144979315Y-126758569D01*
X144979326Y-126758567D01*
X145207483Y-126697433D01*
X145207492Y-126697429D01*
X145421578Y-126597600D01*
X145421582Y-126597598D01*
X145505373Y-126538926D01*
X145505373Y-126538925D01*
X144873409Y-125906962D01*
X144936993Y-125889925D01*
X145051007Y-125824099D01*
X145144099Y-125731007D01*
X145209925Y-125616993D01*
X145226962Y-125553410D01*
X145858925Y-126185373D01*
X145882725Y-126151384D01*
X145937302Y-126107759D01*
X146006801Y-126100567D01*
X146069155Y-126132089D01*
X146104569Y-126192319D01*
X146108300Y-126222508D01*
X146108300Y-126833599D01*
X146089296Y-126899567D01*
X146086210Y-126904478D01*
X146026633Y-127074737D01*
X146026630Y-127074750D01*
X146006435Y-127253996D01*
X146006435Y-127254003D01*
X146014639Y-127326817D01*
X146002585Y-127395638D01*
X145955235Y-127447018D01*
X145891419Y-127464700D01*
X144789315Y-127464700D01*
X144784596Y-127464435D01*
X144775404Y-127464435D01*
X144770685Y-127464700D01*
X144700680Y-127464700D01*
X144545110Y-127495644D01*
X144545101Y-127495647D01*
X144398553Y-127556348D01*
X144398540Y-127556355D01*
X144266651Y-127644481D01*
X144266647Y-127644484D01*
X144154484Y-127756647D01*
X144154481Y-127756651D01*
X144066355Y-127888540D01*
X144066348Y-127888553D01*
X144005647Y-128035101D01*
X144005644Y-128035110D01*
X143974700Y-128190680D01*
X143974700Y-128260686D01*
X143974435Y-128265402D01*
X143974435Y-128274600D01*
X143974700Y-128279319D01*
X143974700Y-128349315D01*
X143981284Y-128382419D01*
X143991684Y-128434703D01*
X143985455Y-128504295D01*
X143942592Y-128559471D01*
X143887970Y-128580122D01*
X143888167Y-128581110D01*
X143882241Y-128582288D01*
X143882222Y-128582296D01*
X143882187Y-128582299D01*
X143746244Y-128609340D01*
X143746238Y-128609342D01*
X143683089Y-128635500D01*
X143683088Y-128635500D01*
X143618174Y-128662387D01*
X143618172Y-128662388D01*
X143543244Y-128712453D01*
X143476567Y-128733330D01*
X143409187Y-128714844D01*
X143362497Y-128662865D01*
X143351322Y-128593895D01*
X143360222Y-128563022D01*
X143360086Y-128562977D01*
X143361235Y-128559508D01*
X143361977Y-128556936D01*
X143362359Y-128556115D01*
X143417505Y-128389697D01*
X143417506Y-128389690D01*
X143427999Y-128286986D01*
X143428000Y-128286973D01*
X143428000Y-128012000D01*
X142678000Y-128012000D01*
X142678000Y-128995041D01*
X142658315Y-129062080D01*
X142610737Y-129103305D01*
X142611317Y-129104285D01*
X142605933Y-129107468D01*
X142605511Y-129107835D01*
X142604715Y-129108189D01*
X142463137Y-129191917D01*
X142463129Y-129191923D01*
X142346923Y-129308129D01*
X142346914Y-129308140D01*
X142346729Y-129308455D01*
X142346519Y-129308650D01*
X142342139Y-129314298D01*
X142341227Y-129313591D01*
X142295657Y-129356136D01*
X142226915Y-129368637D01*
X142162327Y-129341988D01*
X142138143Y-129314078D01*
X142137861Y-129314298D01*
X142133823Y-129309092D01*
X142133271Y-129308455D01*
X142133085Y-129308140D01*
X142133079Y-129308133D01*
X142121605Y-129296659D01*
X142049910Y-129224964D01*
X142016427Y-129163644D01*
X142014374Y-129151179D01*
X142011411Y-129124878D01*
X142023468Y-129056058D01*
X142070818Y-129004680D01*
X142134631Y-128986999D01*
X142177999Y-128986998D01*
X142178000Y-128986998D01*
X142178000Y-126537000D01*
X142678000Y-126537000D01*
X142678000Y-127512000D01*
X143427999Y-127512000D01*
X143427999Y-127237028D01*
X143427998Y-127237013D01*
X143417505Y-127134302D01*
X143362358Y-126967880D01*
X143362356Y-126967875D01*
X143270315Y-126818654D01*
X143146345Y-126694684D01*
X142997124Y-126602643D01*
X142997119Y-126602641D01*
X142830697Y-126547494D01*
X142830690Y-126547493D01*
X142727986Y-126537000D01*
X142678000Y-126537000D01*
X142178000Y-126537000D01*
X142177999Y-126536999D01*
X142128029Y-126537000D01*
X142128011Y-126537001D01*
X142025302Y-126547494D01*
X141858880Y-126602641D01*
X141858875Y-126602643D01*
X141709649Y-126694687D01*
X141707805Y-126696146D01*
X141706301Y-126696752D01*
X141703509Y-126698475D01*
X141703214Y-126697997D01*
X141643009Y-126722285D01*
X141574368Y-126709243D01*
X141523674Y-126661161D01*
X141507022Y-126593304D01*
X141529700Y-126527218D01*
X141531632Y-126524565D01*
X141537795Y-126516332D01*
X141537796Y-126516331D01*
X141588091Y-126381483D01*
X141594500Y-126321873D01*
X141594499Y-124526128D01*
X141588091Y-124466517D01*
X141537796Y-124331669D01*
X141537795Y-124331668D01*
X141537793Y-124331664D01*
X141451547Y-124216455D01*
X141451544Y-124216452D01*
X141336335Y-124130206D01*
X141336328Y-124130202D01*
X141201482Y-124079908D01*
X141201483Y-124079908D01*
X141141883Y-124073501D01*
X141141881Y-124073500D01*
X141141873Y-124073500D01*
X141141864Y-124073500D01*
X139346129Y-124073500D01*
X139346123Y-124073501D01*
X139286516Y-124079908D01*
X139151671Y-124130202D01*
X139151664Y-124130206D01*
X139036455Y-124216452D01*
X139036452Y-124216455D01*
X138950206Y-124331664D01*
X138950202Y-124331671D01*
X138899908Y-124466517D01*
X138893501Y-124526116D01*
X138893501Y-124526123D01*
X138893500Y-124526135D01*
X138893500Y-125108734D01*
X138873815Y-125175773D01*
X138821011Y-125221528D01*
X138751853Y-125231472D01*
X138688297Y-125202447D01*
X138681819Y-125196415D01*
X138533119Y-125047715D01*
X138499634Y-124986392D01*
X138496800Y-124960034D01*
X138496800Y-118494930D01*
X138516485Y-118427891D01*
X138533119Y-118407249D01*
X138546712Y-118393656D01*
X138638814Y-118244334D01*
X138640816Y-118238293D01*
X138680590Y-118180849D01*
X138745106Y-118154028D01*
X138758521Y-118153300D01*
X138918630Y-118153300D01*
X138985669Y-118172985D01*
X139031424Y-118225789D01*
X139041368Y-118294947D01*
X139031012Y-118329705D01*
X138970098Y-118460335D01*
X138970094Y-118460344D01*
X138908938Y-118688586D01*
X138908936Y-118688596D01*
X138888341Y-118923999D01*
X138888341Y-118924000D01*
X138908936Y-119159403D01*
X138908938Y-119159413D01*
X138970094Y-119387655D01*
X138970096Y-119387659D01*
X138970097Y-119387663D01*
X139046913Y-119552394D01*
X139069965Y-119601830D01*
X139069967Y-119601834D01*
X139122834Y-119677335D01*
X139205505Y-119795401D01*
X139372599Y-119962495D01*
X139469384Y-120030265D01*
X139566165Y-120098032D01*
X139566167Y-120098033D01*
X139566170Y-120098035D01*
X139780337Y-120197903D01*
X140008592Y-120259063D01*
X140196918Y-120275539D01*
X140243999Y-120279659D01*
X140244000Y-120279659D01*
X140244001Y-120279659D01*
X140283234Y-120276226D01*
X140479408Y-120259063D01*
X140707663Y-120197903D01*
X140921830Y-120098035D01*
X141115401Y-119962495D01*
X141282495Y-119795401D01*
X141418035Y-119601830D01*
X141517903Y-119387663D01*
X141534333Y-119326340D01*
X141566424Y-119270756D01*
X144846363Y-115990818D01*
X144907686Y-115957333D01*
X144934044Y-115954499D01*
X145732871Y-115954499D01*
X145732872Y-115954499D01*
X145792483Y-115948091D01*
X145869081Y-115919522D01*
X145935641Y-115894697D01*
X145936365Y-115896640D01*
X145993132Y-115884285D01*
X146058599Y-115908694D01*
G37*
%TD.AperFunction*%
%TA.AperFunction,Conductor*%
G36*
X150459544Y-77186635D02*
G01*
X150505299Y-77239439D01*
X150515243Y-77308597D01*
X150486218Y-77372153D01*
X150480186Y-77378631D01*
X149985420Y-77873397D01*
X149985416Y-77873399D01*
X149985417Y-77873400D01*
X149917104Y-77941712D01*
X149892547Y-77960760D01*
X149882139Y-77966915D01*
X149765920Y-78083133D01*
X149765917Y-78083137D01*
X149687756Y-78215302D01*
X149682256Y-78224602D01*
X149666336Y-78279396D01*
X149628732Y-78338280D01*
X149565259Y-78367487D01*
X149547261Y-78368800D01*
X149432530Y-78368800D01*
X149365491Y-78349115D01*
X149344849Y-78332481D01*
X149254657Y-78242289D01*
X149254656Y-78242288D01*
X149105334Y-78150186D01*
X148938797Y-78095001D01*
X148938795Y-78095000D01*
X148836010Y-78084500D01*
X147835998Y-78084500D01*
X147835980Y-78084501D01*
X147733203Y-78095000D01*
X147733200Y-78095001D01*
X147566668Y-78150185D01*
X147566663Y-78150187D01*
X147417345Y-78242287D01*
X147304446Y-78355186D01*
X147243123Y-78388670D01*
X147173431Y-78383686D01*
X147122549Y-78346637D01*
X147122424Y-78346763D01*
X147121627Y-78345966D01*
X147119502Y-78344419D01*
X147117317Y-78341656D01*
X146993345Y-78217684D01*
X146844124Y-78125643D01*
X146844119Y-78125641D01*
X146677697Y-78070494D01*
X146677690Y-78070493D01*
X146574986Y-78060000D01*
X146300000Y-78060000D01*
X146300000Y-79186000D01*
X146280315Y-79253039D01*
X146227511Y-79298794D01*
X146176000Y-79310000D01*
X143638000Y-79310000D01*
X143570961Y-79290315D01*
X143525206Y-79237511D01*
X143514000Y-79186000D01*
X143514000Y-78060000D01*
X144014000Y-78060000D01*
X144014000Y-78810000D01*
X145800000Y-78810000D01*
X145800000Y-78060000D01*
X145525029Y-78060000D01*
X145525012Y-78060001D01*
X145422302Y-78070494D01*
X145255880Y-78125641D01*
X145255875Y-78125643D01*
X145106654Y-78217684D01*
X144994681Y-78329658D01*
X144933358Y-78363143D01*
X144863666Y-78358159D01*
X144819319Y-78329658D01*
X144707345Y-78217684D01*
X144558124Y-78125643D01*
X144558119Y-78125641D01*
X144391697Y-78070494D01*
X144391690Y-78070493D01*
X144288986Y-78060000D01*
X144014000Y-78060000D01*
X143514000Y-78060000D01*
X143239029Y-78060000D01*
X143239012Y-78060001D01*
X143136302Y-78070494D01*
X142969880Y-78125641D01*
X142969875Y-78125643D01*
X142820654Y-78217684D01*
X142696682Y-78341656D01*
X142694492Y-78344426D01*
X142692509Y-78345829D01*
X142691576Y-78346763D01*
X142691416Y-78346603D01*
X142637465Y-78384796D01*
X142567666Y-78387927D01*
X142509553Y-78355185D01*
X142396657Y-78242289D01*
X142396656Y-78242288D01*
X142247334Y-78150186D01*
X142080797Y-78095001D01*
X142080795Y-78095000D01*
X141978010Y-78084500D01*
X140977998Y-78084500D01*
X140977980Y-78084501D01*
X140875203Y-78095000D01*
X140875200Y-78095001D01*
X140708668Y-78150185D01*
X140708663Y-78150187D01*
X140559342Y-78242289D01*
X140435289Y-78366342D01*
X140343187Y-78515663D01*
X140343185Y-78515668D01*
X140339310Y-78527363D01*
X140288001Y-78682203D01*
X140288001Y-78682204D01*
X140288000Y-78682204D01*
X140277500Y-78784983D01*
X140277500Y-78962138D01*
X140257815Y-79029177D01*
X140205011Y-79074932D01*
X140135853Y-79084876D01*
X140072297Y-79055851D01*
X140065819Y-79049819D01*
X140034000Y-79018000D01*
X138934000Y-79018000D01*
X138934000Y-79917999D01*
X139333972Y-79917999D01*
X139333986Y-79917998D01*
X139436697Y-79907505D01*
X139603119Y-79852358D01*
X139603124Y-79852356D01*
X139752345Y-79760315D01*
X139876315Y-79636345D01*
X139968356Y-79487124D01*
X139968358Y-79487119D01*
X140023505Y-79320697D01*
X140023506Y-79320689D01*
X140030142Y-79255737D01*
X140056537Y-79191045D01*
X140113718Y-79150893D01*
X140183529Y-79148029D01*
X140243806Y-79183362D01*
X140275411Y-79245675D01*
X140277500Y-79268337D01*
X140277500Y-79410000D01*
X140277501Y-79410019D01*
X140288000Y-79512796D01*
X140288001Y-79512799D01*
X140325272Y-79625273D01*
X140343186Y-79679334D01*
X140394525Y-79762569D01*
X140435289Y-79828657D01*
X140528951Y-79922319D01*
X140562436Y-79983642D01*
X140557452Y-80053334D01*
X140528951Y-80097681D01*
X140435289Y-80191342D01*
X140343187Y-80340663D01*
X140343185Y-80340668D01*
X140325272Y-80394727D01*
X140288001Y-80507203D01*
X140288001Y-80507204D01*
X140288000Y-80507204D01*
X140277500Y-80609983D01*
X140277500Y-81235001D01*
X140277501Y-81235019D01*
X140288000Y-81337796D01*
X140288001Y-81337799D01*
X140343185Y-81504331D01*
X140343188Y-81504338D01*
X140351338Y-81517550D01*
X140369800Y-81582648D01*
X140369800Y-85746470D01*
X140350115Y-85813509D01*
X140333481Y-85834151D01*
X140218289Y-85949342D01*
X140126187Y-86098663D01*
X140126186Y-86098666D01*
X140071001Y-86265203D01*
X140071001Y-86265204D01*
X140071000Y-86265204D01*
X140060500Y-86367983D01*
X140060500Y-86834455D01*
X140040815Y-86901494D01*
X140024181Y-86922136D01*
X139304787Y-87641531D01*
X139243464Y-87675016D01*
X139217106Y-87677850D01*
X137499892Y-87677850D01*
X137499872Y-87677849D01*
X137493758Y-87677849D01*
X137355141Y-87677849D01*
X137355139Y-87677849D01*
X137219193Y-87704891D01*
X137219185Y-87704893D01*
X137091126Y-87757936D01*
X136975866Y-87834950D01*
X136934111Y-87876706D01*
X136877850Y-87932967D01*
X136877847Y-87932970D01*
X136457420Y-88353397D01*
X136457417Y-88353400D01*
X136432153Y-88378664D01*
X136359400Y-88451416D01*
X136354130Y-88459304D01*
X136306633Y-88530389D01*
X136287441Y-88559112D01*
X136282387Y-88566676D01*
X136239813Y-88669460D01*
X136195972Y-88723863D01*
X136138509Y-88745296D01*
X136123519Y-88746907D01*
X135988671Y-88797202D01*
X135988664Y-88797206D01*
X135873455Y-88883452D01*
X135873452Y-88883455D01*
X135787206Y-88998664D01*
X135787202Y-88998671D01*
X135736908Y-89133517D01*
X135730501Y-89193116D01*
X135730500Y-89193135D01*
X135730500Y-90638870D01*
X135730501Y-90638876D01*
X135736908Y-90698483D01*
X135787202Y-90833328D01*
X135787206Y-90833335D01*
X135849090Y-90916000D01*
X135873454Y-90948546D01*
X135959105Y-91012664D01*
X136000975Y-91068597D01*
X136005959Y-91138289D01*
X135983748Y-91186656D01*
X135902288Y-91294528D01*
X135805184Y-91489537D01*
X135745564Y-91699081D01*
X135725464Y-91915999D01*
X135725464Y-91916000D01*
X135745564Y-92132918D01*
X135805184Y-92342462D01*
X135875506Y-92483686D01*
X135902288Y-92537472D01*
X136033573Y-92711322D01*
X136194568Y-92858088D01*
X136194575Y-92858092D01*
X136194576Y-92858093D01*
X136379786Y-92972770D01*
X136379792Y-92972773D01*
X136402664Y-92981633D01*
X136582931Y-93051470D01*
X136797074Y-93091500D01*
X136797076Y-93091500D01*
X137014924Y-93091500D01*
X137014926Y-93091500D01*
X137229069Y-93051470D01*
X137432210Y-92972772D01*
X137617432Y-92858088D01*
X137778427Y-92711322D01*
X137807047Y-92673422D01*
X137863153Y-92631787D01*
X137932865Y-92627094D01*
X137994048Y-92660836D01*
X138004946Y-92673414D01*
X138033573Y-92711322D01*
X138033576Y-92711325D01*
X138033578Y-92711327D01*
X138161838Y-92828251D01*
X138198120Y-92887962D01*
X138202300Y-92919888D01*
X138202300Y-95623504D01*
X138182615Y-95690543D01*
X138129811Y-95736298D01*
X138060653Y-95746242D01*
X137997097Y-95717217D01*
X137976726Y-95694628D01*
X137944495Y-95648598D01*
X137777402Y-95481506D01*
X137777395Y-95481501D01*
X137583834Y-95345967D01*
X137583830Y-95345965D01*
X137507132Y-95310200D01*
X137369663Y-95246097D01*
X137369659Y-95246096D01*
X137369655Y-95246094D01*
X137141413Y-95184938D01*
X137141403Y-95184936D01*
X136906001Y-95164341D01*
X136905999Y-95164341D01*
X136670596Y-95184936D01*
X136670586Y-95184938D01*
X136442344Y-95246094D01*
X136442335Y-95246098D01*
X136228171Y-95345964D01*
X136228169Y-95345965D01*
X136034597Y-95481505D01*
X135867506Y-95648596D01*
X135794772Y-95752473D01*
X135740196Y-95796098D01*
X135693197Y-95805350D01*
X135323639Y-95805350D01*
X135187693Y-95832391D01*
X135187683Y-95832394D01*
X135059626Y-95885436D01*
X134944366Y-95962450D01*
X134918187Y-95988630D01*
X134846350Y-96060467D01*
X134846347Y-96060470D01*
X133155420Y-97751397D01*
X133155417Y-97751400D01*
X133129624Y-97777193D01*
X133057400Y-97849416D01*
X133040403Y-97874855D01*
X133004633Y-97928389D01*
X132980389Y-97964673D01*
X132980386Y-97964678D01*
X132927343Y-98092735D01*
X132927341Y-98092743D01*
X132900299Y-98228689D01*
X132900299Y-98373421D01*
X132900300Y-98373442D01*
X132900300Y-117527556D01*
X132900299Y-117527582D01*
X132900299Y-117532692D01*
X132900299Y-117671308D01*
X132900299Y-117671310D01*
X132900298Y-117671310D01*
X132922422Y-117782528D01*
X132922423Y-117782528D01*
X132927344Y-117807266D01*
X132980386Y-117935323D01*
X133057401Y-118050585D01*
X133159736Y-118152920D01*
X133159758Y-118152940D01*
X134324274Y-119317456D01*
X134324303Y-119317487D01*
X134425414Y-119418598D01*
X134540676Y-119495613D01*
X134668733Y-119548655D01*
X134668738Y-119548657D01*
X134668742Y-119548657D01*
X134668743Y-119548658D01*
X134804688Y-119575700D01*
X134804691Y-119575700D01*
X134804692Y-119575700D01*
X135723601Y-119575700D01*
X135789571Y-119594705D01*
X135794478Y-119597789D01*
X135794482Y-119597790D01*
X135794483Y-119597791D01*
X135796258Y-119598412D01*
X135797254Y-119599126D01*
X135800760Y-119600815D01*
X135800464Y-119601428D01*
X135853036Y-119639129D01*
X135878788Y-119704080D01*
X135865337Y-119772643D01*
X135816953Y-119823049D01*
X135766119Y-119838984D01*
X135663399Y-119847971D01*
X135663389Y-119847973D01*
X135443682Y-119906843D01*
X135443673Y-119906847D01*
X135237516Y-120002979D01*
X135237512Y-120002981D01*
X135164526Y-120054086D01*
X135164526Y-120054087D01*
X135843553Y-120733113D01*
X135837339Y-120733113D01*
X135735606Y-120760372D01*
X135644394Y-120813033D01*
X135569920Y-120887507D01*
X135517259Y-120978719D01*
X135490000Y-121080452D01*
X135490000Y-121086665D01*
X134810974Y-120407639D01*
X134810973Y-120407639D01*
X134759868Y-120480625D01*
X134759866Y-120480629D01*
X134663734Y-120686786D01*
X134663730Y-120686795D01*
X134604860Y-120906502D01*
X134604858Y-120906513D01*
X134585034Y-121133110D01*
X134585034Y-121133115D01*
X134604858Y-121359712D01*
X134604860Y-121359723D01*
X134663730Y-121579430D01*
X134663735Y-121579444D01*
X134759863Y-121785591D01*
X134810974Y-121858585D01*
X135490000Y-121179559D01*
X135490000Y-121185774D01*
X135517259Y-121287507D01*
X135569920Y-121378719D01*
X135644394Y-121453193D01*
X135735606Y-121505854D01*
X135837339Y-121533113D01*
X135843551Y-121533113D01*
X135159352Y-122217312D01*
X135149506Y-122266307D01*
X135100890Y-122316490D01*
X135045367Y-122331162D01*
X135045423Y-122332212D01*
X135045429Y-122332259D01*
X135045426Y-122332259D01*
X135045436Y-122332437D01*
X135042123Y-122332614D01*
X134982516Y-122339021D01*
X134847671Y-122389315D01*
X134847664Y-122389319D01*
X134732455Y-122475565D01*
X134732452Y-122475568D01*
X134646206Y-122590777D01*
X134646202Y-122590784D01*
X134595908Y-122725630D01*
X134589501Y-122785229D01*
X134589500Y-122785248D01*
X134589500Y-124480983D01*
X134589501Y-124480989D01*
X134595908Y-124540596D01*
X134646202Y-124675441D01*
X134646206Y-124675448D01*
X134732452Y-124790657D01*
X134732455Y-124790660D01*
X134847664Y-124876906D01*
X134847671Y-124876910D01*
X134893798Y-124894114D01*
X134982517Y-124927204D01*
X134982521Y-124927204D01*
X134989209Y-124928785D01*
X135049927Y-124963355D01*
X135082316Y-125025265D01*
X135084700Y-125049463D01*
X135084700Y-127864044D01*
X135065015Y-127931083D01*
X135012211Y-127976838D01*
X134943053Y-127986782D01*
X134879497Y-127957757D01*
X134855161Y-127929141D01*
X134830126Y-127888553D01*
X134759312Y-127773744D01*
X134635256Y-127649688D01*
X134485934Y-127557586D01*
X134319397Y-127502401D01*
X134319395Y-127502400D01*
X134216610Y-127491900D01*
X133316598Y-127491900D01*
X133316580Y-127491901D01*
X133213803Y-127502400D01*
X133213800Y-127502401D01*
X133047268Y-127557585D01*
X133047263Y-127557587D01*
X132897942Y-127649689D01*
X132775281Y-127772351D01*
X132713958Y-127805836D01*
X132644266Y-127800852D01*
X132588333Y-127758980D01*
X132563916Y-127693516D01*
X132563600Y-127684670D01*
X132563600Y-83689809D01*
X132583285Y-83622770D01*
X132636089Y-83577015D01*
X132705247Y-83567071D01*
X132768803Y-83596096D01*
X132806577Y-83654874D01*
X132810820Y-83675926D01*
X132818630Y-83745249D01*
X132818631Y-83745254D01*
X132878211Y-83915523D01*
X132974184Y-84068262D01*
X133101738Y-84195816D01*
X133254478Y-84291789D01*
X133424745Y-84351368D01*
X133424750Y-84351369D01*
X133603996Y-84371565D01*
X133604000Y-84371565D01*
X133604004Y-84371565D01*
X133783249Y-84351369D01*
X133783252Y-84351368D01*
X133783255Y-84351368D01*
X133953522Y-84291789D01*
X134106262Y-84195816D01*
X134233816Y-84068262D01*
X134329789Y-83915522D01*
X134389368Y-83745255D01*
X134394444Y-83700203D01*
X134409565Y-83566003D01*
X134409565Y-83565996D01*
X134389369Y-83386753D01*
X134389368Y-83386752D01*
X134389368Y-83386745D01*
X134389365Y-83386737D01*
X134388306Y-83382094D01*
X134392579Y-83312355D01*
X134433876Y-83255996D01*
X134499088Y-83230912D01*
X134509197Y-83230499D01*
X134891002Y-83230499D01*
X134891008Y-83230499D01*
X134993797Y-83219999D01*
X135160334Y-83164814D01*
X135309656Y-83072712D01*
X135320523Y-83061844D01*
X135381843Y-83028359D01*
X135451535Y-83033341D01*
X135473301Y-83043985D01*
X135628659Y-83139810D01*
X135628660Y-83139810D01*
X135628666Y-83139814D01*
X135795203Y-83194999D01*
X135897991Y-83205500D01*
X136898008Y-83205499D01*
X136898016Y-83205498D01*
X136898019Y-83205498D01*
X136979818Y-83197142D01*
X137000797Y-83194999D01*
X137167334Y-83139814D01*
X137297880Y-83059292D01*
X137365271Y-83040852D01*
X137431935Y-83061774D01*
X137468515Y-83099735D01*
X137490771Y-83135819D01*
X137491288Y-83136656D01*
X137615344Y-83260712D01*
X137764666Y-83352814D01*
X137931203Y-83407999D01*
X138033991Y-83418500D01*
X139334008Y-83418499D01*
X139436797Y-83407999D01*
X139603334Y-83352814D01*
X139752656Y-83260712D01*
X139876712Y-83136656D01*
X139968814Y-82987334D01*
X140023999Y-82820797D01*
X140034500Y-82718009D01*
X140034499Y-81817992D01*
X140032170Y-81795196D01*
X140023999Y-81715203D01*
X140023998Y-81715200D01*
X140011890Y-81678660D01*
X139968814Y-81548666D01*
X139876712Y-81399344D01*
X139752656Y-81275288D01*
X139631692Y-81200677D01*
X139603336Y-81183187D01*
X139603331Y-81183185D01*
X139584056Y-81176798D01*
X139436797Y-81128001D01*
X139436795Y-81128000D01*
X139334010Y-81117500D01*
X138033998Y-81117500D01*
X138033981Y-81117501D01*
X137931203Y-81128000D01*
X137931200Y-81128001D01*
X137764668Y-81183185D01*
X137764663Y-81183187D01*
X137615345Y-81275287D01*
X137522681Y-81367951D01*
X137461357Y-81401435D01*
X137391666Y-81396451D01*
X137347389Y-81368021D01*
X137347319Y-81367951D01*
X137346763Y-81367395D01*
X137313231Y-81306101D01*
X137318160Y-81236406D01*
X137346695Y-81191964D01*
X137440317Y-81098342D01*
X137532356Y-80949124D01*
X137532358Y-80949119D01*
X137587505Y-80782697D01*
X137587506Y-80782690D01*
X137597999Y-80679986D01*
X137598000Y-80679973D01*
X137598000Y-80617500D01*
X135243862Y-80617500D01*
X135176823Y-80597815D01*
X135156181Y-80581181D01*
X135155000Y-80580000D01*
X133141001Y-80580000D01*
X133141001Y-80629986D01*
X133151494Y-80732697D01*
X133206641Y-80899119D01*
X133206643Y-80899124D01*
X133298684Y-81048345D01*
X133422655Y-81172316D01*
X133422659Y-81172319D01*
X133425656Y-81174168D01*
X133427279Y-81175972D01*
X133428323Y-81176798D01*
X133428181Y-81176976D01*
X133472381Y-81226116D01*
X133483602Y-81295079D01*
X133455759Y-81359161D01*
X133425661Y-81385241D01*
X133422349Y-81387283D01*
X133422343Y-81387288D01*
X133298289Y-81511342D01*
X133206187Y-81660663D01*
X133206185Y-81660668D01*
X133200223Y-81678660D01*
X133151001Y-81827203D01*
X133151001Y-81827204D01*
X133151000Y-81827204D01*
X133140500Y-81929983D01*
X133140500Y-82408953D01*
X133120815Y-82475992D01*
X133104183Y-82496633D01*
X133057399Y-82543418D01*
X132998750Y-82631191D01*
X132998751Y-82631192D01*
X132980391Y-82658669D01*
X132980387Y-82658676D01*
X132927342Y-82786739D01*
X132927341Y-82786743D01*
X132900299Y-82922689D01*
X132900299Y-83067421D01*
X132900300Y-83067442D01*
X132900300Y-83145599D01*
X132881296Y-83211567D01*
X132878210Y-83216478D01*
X132818633Y-83386737D01*
X132818630Y-83386750D01*
X132810820Y-83456073D01*
X132783754Y-83520487D01*
X132726159Y-83560043D01*
X132656322Y-83562180D01*
X132596415Y-83526222D01*
X132565460Y-83463584D01*
X132563600Y-83442190D01*
X132563600Y-80080000D01*
X133141000Y-80080000D01*
X134116000Y-80080000D01*
X134116000Y-79330000D01*
X134616000Y-79330000D01*
X134616000Y-80080000D01*
X135545138Y-80080000D01*
X135612177Y-80099685D01*
X135632819Y-80116319D01*
X135634000Y-80117500D01*
X136148000Y-80117500D01*
X136648000Y-80117500D01*
X137597999Y-80117500D01*
X137597999Y-80055028D01*
X137597998Y-80055013D01*
X137590111Y-79977806D01*
X137602881Y-79909113D01*
X137650761Y-79858229D01*
X137718551Y-79841308D01*
X137757769Y-79850850D01*
X137758023Y-79850086D01*
X137931302Y-79907505D01*
X137931309Y-79907506D01*
X138034019Y-79917999D01*
X138433999Y-79917999D01*
X138434000Y-79917998D01*
X138434000Y-79018000D01*
X137334001Y-79018000D01*
X137334001Y-79217971D01*
X137334002Y-79217991D01*
X137341888Y-79295195D01*
X137329118Y-79363887D01*
X137281237Y-79414771D01*
X137213447Y-79431691D01*
X137174229Y-79422150D01*
X137173977Y-79422914D01*
X137000697Y-79365494D01*
X137000690Y-79365493D01*
X136897986Y-79355000D01*
X136648000Y-79355000D01*
X136648000Y-80117500D01*
X136148000Y-80117500D01*
X136148000Y-79355000D01*
X135898029Y-79355000D01*
X135898012Y-79355001D01*
X135795302Y-79365494D01*
X135628880Y-79420641D01*
X135628875Y-79420643D01*
X135473509Y-79516475D01*
X135471826Y-79513747D01*
X135420258Y-79534544D01*
X135351618Y-79521495D01*
X135320478Y-79498817D01*
X135309345Y-79487684D01*
X135160124Y-79395643D01*
X135160119Y-79395641D01*
X134993697Y-79340494D01*
X134993690Y-79340493D01*
X134890986Y-79330000D01*
X134616000Y-79330000D01*
X134116000Y-79330000D01*
X133841029Y-79330000D01*
X133841012Y-79330001D01*
X133738302Y-79340494D01*
X133571880Y-79395641D01*
X133571875Y-79395643D01*
X133422654Y-79487684D01*
X133298684Y-79611654D01*
X133206643Y-79760875D01*
X133206641Y-79760880D01*
X133151494Y-79927302D01*
X133151493Y-79927309D01*
X133141000Y-80030013D01*
X133141000Y-80080000D01*
X132563600Y-80080000D01*
X132563600Y-78518000D01*
X137334000Y-78518000D01*
X138434000Y-78518000D01*
X138434000Y-77618000D01*
X138934000Y-77618000D01*
X138934000Y-78518000D01*
X140033999Y-78518000D01*
X140033999Y-78318028D01*
X140033998Y-78318013D01*
X140023505Y-78215302D01*
X139968358Y-78048880D01*
X139968356Y-78048875D01*
X139876315Y-77899654D01*
X139752345Y-77775684D01*
X139603124Y-77683643D01*
X139603119Y-77683641D01*
X139436697Y-77628494D01*
X139436690Y-77628493D01*
X139333986Y-77618000D01*
X138934000Y-77618000D01*
X138434000Y-77618000D01*
X138034028Y-77618000D01*
X138034012Y-77618001D01*
X137931302Y-77628494D01*
X137764880Y-77683641D01*
X137764875Y-77683643D01*
X137615654Y-77775684D01*
X137491684Y-77899654D01*
X137399643Y-78048875D01*
X137399641Y-78048880D01*
X137344494Y-78215302D01*
X137344493Y-78215309D01*
X137334000Y-78318013D01*
X137334000Y-78518000D01*
X132563600Y-78518000D01*
X132563600Y-77290950D01*
X132583285Y-77223911D01*
X132636089Y-77178156D01*
X132687600Y-77166950D01*
X150392505Y-77166950D01*
X150459544Y-77186635D01*
G37*
%TD.AperFunction*%
%TA.AperFunction,Conductor*%
G36*
X141959359Y-108673385D02*
G01*
X142005114Y-108726189D01*
X142015640Y-108764737D01*
X142028856Y-108890472D01*
X142029891Y-108893656D01*
X142084308Y-109061138D01*
X142084311Y-109061144D01*
X142174038Y-109216556D01*
X142209149Y-109255550D01*
X142239379Y-109318541D01*
X142241000Y-109338523D01*
X142241000Y-110058219D01*
X142221315Y-110125258D01*
X142204681Y-110145900D01*
X141988600Y-110361981D01*
X141927277Y-110395466D01*
X141900919Y-110398300D01*
X141896273Y-110398300D01*
X141720739Y-110435610D01*
X141720734Y-110435612D01*
X141556799Y-110508601D01*
X141411614Y-110614085D01*
X141411611Y-110614087D01*
X141291537Y-110747445D01*
X141201811Y-110902855D01*
X141201808Y-110902861D01*
X141146378Y-111073460D01*
X141146356Y-111073528D01*
X141127598Y-111252000D01*
X141146356Y-111430472D01*
X141146357Y-111430475D01*
X141201808Y-111601138D01*
X141201811Y-111601144D01*
X141291538Y-111756556D01*
X141348146Y-111819426D01*
X141415965Y-111894747D01*
X141414915Y-111895692D01*
X141447685Y-111948876D01*
X141446360Y-112018733D01*
X141415748Y-112069228D01*
X139935947Y-113549031D01*
X139874624Y-113582516D01*
X139848266Y-113585350D01*
X138380499Y-113585350D01*
X138313460Y-113565665D01*
X138267705Y-113512861D01*
X138256499Y-113461350D01*
X138256499Y-113402129D01*
X138256498Y-113402123D01*
X138253031Y-113369872D01*
X138250091Y-113342517D01*
X138233801Y-113298842D01*
X138199797Y-113207671D01*
X138199793Y-113207664D01*
X138113547Y-113092455D01*
X138113544Y-113092452D01*
X137998335Y-113006206D01*
X137998328Y-113006202D01*
X137866917Y-112957189D01*
X137810983Y-112915318D01*
X137786566Y-112849853D01*
X137801418Y-112781580D01*
X137822563Y-112753332D01*
X137944495Y-112631401D01*
X138080035Y-112437830D01*
X138179903Y-112223663D01*
X138241063Y-111995408D01*
X138261659Y-111760000D01*
X138241063Y-111524592D01*
X138197943Y-111363665D01*
X138183838Y-111311022D01*
X138185501Y-111241172D01*
X138215930Y-111191250D01*
X140717163Y-108690019D01*
X140778486Y-108656534D01*
X140804844Y-108653700D01*
X141892320Y-108653700D01*
X141959359Y-108673385D01*
G37*
%TD.AperFunction*%
%TA.AperFunction,Conductor*%
G36*
X144322908Y-108673385D02*
G01*
X144328754Y-108677382D01*
X144350794Y-108693395D01*
X144350795Y-108693395D01*
X144350799Y-108693398D01*
X144484497Y-108752924D01*
X144514734Y-108766387D01*
X144514739Y-108766389D01*
X144690273Y-108803700D01*
X144714299Y-108803700D01*
X144781338Y-108823385D01*
X144827093Y-108876189D01*
X144838299Y-108927700D01*
X144838299Y-109035308D01*
X144838299Y-109035310D01*
X144838298Y-109035310D01*
X144865341Y-109171256D01*
X144865343Y-109171264D01*
X144918385Y-109299320D01*
X144918392Y-109299333D01*
X144995400Y-109414582D01*
X144995403Y-109414586D01*
X146071981Y-110491163D01*
X146105466Y-110552486D01*
X146108300Y-110578844D01*
X146108300Y-113100029D01*
X146088615Y-113167068D01*
X146035811Y-113212823D01*
X145966653Y-113222767D01*
X145935925Y-113212540D01*
X145935641Y-113213303D01*
X145792482Y-113159908D01*
X145792483Y-113159908D01*
X145732883Y-113153501D01*
X145732881Y-113153500D01*
X145732873Y-113153500D01*
X145732864Y-113153500D01*
X143837129Y-113153500D01*
X143837123Y-113153501D01*
X143777516Y-113159908D01*
X143642671Y-113210202D01*
X143642664Y-113210206D01*
X143527455Y-113296452D01*
X143527452Y-113296455D01*
X143441206Y-113411664D01*
X143441203Y-113411670D01*
X143412544Y-113488508D01*
X143370672Y-113544441D01*
X143305208Y-113568858D01*
X143236935Y-113554006D01*
X143205135Y-113529158D01*
X143196784Y-113520087D01*
X143196778Y-113520082D01*
X143196777Y-113520081D01*
X143013634Y-113377535D01*
X143013628Y-113377531D01*
X142809504Y-113267064D01*
X142809495Y-113267061D01*
X142589985Y-113191702D01*
X142565058Y-113187543D01*
X142502173Y-113157092D01*
X142465734Y-113097477D01*
X142467310Y-113027625D01*
X142497786Y-112977555D01*
X144111681Y-111363662D01*
X144149984Y-111306337D01*
X144188692Y-111248406D01*
X144212803Y-111190197D01*
X144241739Y-111120340D01*
X144268782Y-110984387D01*
X144268782Y-110845770D01*
X144268782Y-110840660D01*
X144268781Y-110840634D01*
X144268781Y-110061199D01*
X144285394Y-109999199D01*
X144349270Y-109888563D01*
X144404725Y-109717891D01*
X144423483Y-109539419D01*
X144404725Y-109360947D01*
X144349270Y-109190275D01*
X144259543Y-109034863D01*
X144212511Y-108982629D01*
X144139469Y-108901506D01*
X144139465Y-108901503D01*
X144139464Y-108901502D01*
X144107140Y-108878017D01*
X144064475Y-108822689D01*
X144058496Y-108753075D01*
X144091101Y-108691280D01*
X144151940Y-108656923D01*
X144180026Y-108653700D01*
X144255869Y-108653700D01*
X144322908Y-108673385D01*
G37*
%TD.AperFunction*%
%TA.AperFunction,Conductor*%
G36*
X146281636Y-92306062D02*
G01*
X146337569Y-92347935D01*
X146361984Y-92413400D01*
X146362300Y-92422243D01*
X146362300Y-95429556D01*
X146362299Y-95429582D01*
X146362299Y-95434692D01*
X146362299Y-95573308D01*
X146377275Y-95648596D01*
X146377276Y-95648598D01*
X146377276Y-95648600D01*
X146389341Y-95709254D01*
X146389344Y-95709266D01*
X146442386Y-95837323D01*
X146519401Y-95952585D01*
X146621736Y-96054920D01*
X146621758Y-96054940D01*
X147441437Y-96874619D01*
X147474922Y-96935942D01*
X147469938Y-97005634D01*
X147428066Y-97061567D01*
X147362602Y-97085984D01*
X147353756Y-97086300D01*
X147154844Y-97086300D01*
X147087805Y-97066615D01*
X147067163Y-97049981D01*
X146584932Y-96567750D01*
X146555571Y-96521023D01*
X146542691Y-96484215D01*
X146521789Y-96424478D01*
X146514890Y-96413499D01*
X146473618Y-96347814D01*
X146425816Y-96271738D01*
X146298262Y-96144184D01*
X146275531Y-96129901D01*
X146145523Y-96048211D01*
X145975254Y-95988631D01*
X145975249Y-95988630D01*
X145796004Y-95968435D01*
X145795996Y-95968435D01*
X145616750Y-95988630D01*
X145616745Y-95988631D01*
X145446476Y-96048211D01*
X145293737Y-96144184D01*
X145166184Y-96271737D01*
X145070211Y-96424476D01*
X145010631Y-96594745D01*
X145010630Y-96594750D01*
X144990435Y-96773996D01*
X144990435Y-96774003D01*
X145010630Y-96953249D01*
X145010631Y-96953254D01*
X145070211Y-97123523D01*
X145135499Y-97227427D01*
X145166184Y-97276262D01*
X145293738Y-97403816D01*
X145351154Y-97439893D01*
X145433954Y-97491920D01*
X145446478Y-97499789D01*
X145543024Y-97533571D01*
X145589750Y-97562932D01*
X146262274Y-98235456D01*
X146262303Y-98235487D01*
X146363413Y-98336597D01*
X146363418Y-98336601D01*
X146392900Y-98356300D01*
X146441964Y-98389083D01*
X146478673Y-98413611D01*
X146478678Y-98413613D01*
X146606735Y-98466656D01*
X146606736Y-98466656D01*
X146606738Y-98466657D01*
X146606742Y-98466657D01*
X146606743Y-98466658D01*
X146742689Y-98493701D01*
X146742692Y-98493701D01*
X146887422Y-98493701D01*
X146887442Y-98493700D01*
X148937053Y-98493700D01*
X149004092Y-98513385D01*
X149049847Y-98566189D01*
X149060273Y-98603817D01*
X149074630Y-98731249D01*
X149074631Y-98731254D01*
X149134211Y-98901523D01*
X149173769Y-98964478D01*
X149230184Y-99054262D01*
X149357738Y-99181816D01*
X149448080Y-99238582D01*
X149509691Y-99277295D01*
X149510478Y-99277789D01*
X149581255Y-99302554D01*
X149638030Y-99343275D01*
X149663778Y-99408228D01*
X149664300Y-99419596D01*
X149664300Y-104262561D01*
X149664299Y-104262587D01*
X149664299Y-104406315D01*
X149689565Y-104533329D01*
X149691342Y-104542262D01*
X149691344Y-104542270D01*
X149742632Y-104666092D01*
X149744389Y-104670332D01*
X149795729Y-104747169D01*
X149821401Y-104785590D01*
X149923736Y-104887925D01*
X149923758Y-104887945D01*
X150248835Y-105213022D01*
X150282320Y-105274345D01*
X150277336Y-105344037D01*
X150235464Y-105399970D01*
X150170000Y-105424387D01*
X150149001Y-105424106D01*
X150114001Y-105420659D01*
X150114000Y-105420659D01*
X149917870Y-105439975D01*
X149883638Y-105450359D01*
X149813771Y-105450980D01*
X149781674Y-105436691D01*
X149738298Y-105409436D01*
X149568029Y-105349856D01*
X149568025Y-105349855D01*
X149482116Y-105340176D01*
X149417702Y-105313109D01*
X149378147Y-105255514D01*
X149372000Y-105216956D01*
X149372000Y-105179492D01*
X149372001Y-105179471D01*
X149372001Y-105034738D01*
X149344958Y-104898793D01*
X149344956Y-104898785D01*
X149291914Y-104770729D01*
X149291905Y-104770713D01*
X149282070Y-104755994D01*
X149282067Y-104755990D01*
X149242897Y-104697366D01*
X149222020Y-104630688D01*
X149222000Y-104628477D01*
X149222000Y-104414449D01*
X149241005Y-104348478D01*
X149244089Y-104343572D01*
X149303668Y-104173305D01*
X149303669Y-104173299D01*
X149323865Y-103994053D01*
X149323865Y-103994046D01*
X149303669Y-103814800D01*
X149303668Y-103814795D01*
X149259535Y-103688671D01*
X149244089Y-103644528D01*
X149238730Y-103636000D01*
X149190713Y-103559581D01*
X149148116Y-103491788D01*
X149020562Y-103364234D01*
X148965656Y-103329734D01*
X148867823Y-103268261D01*
X148697554Y-103208681D01*
X148697549Y-103208680D01*
X148518304Y-103188485D01*
X148518296Y-103188485D01*
X148339050Y-103208680D01*
X148339045Y-103208681D01*
X148168774Y-103268262D01*
X148157487Y-103275354D01*
X148090249Y-103294350D01*
X148023415Y-103273980D01*
X147978204Y-103220710D01*
X147973814Y-103209361D01*
X147973589Y-103208681D01*
X147934814Y-103091666D01*
X147842712Y-102942344D01*
X147841619Y-102941251D01*
X147841108Y-102940316D01*
X147838234Y-102936681D01*
X147838855Y-102936189D01*
X147808134Y-102879928D01*
X147805300Y-102853570D01*
X147805300Y-102635450D01*
X147805301Y-102635429D01*
X147805301Y-102470682D01*
X147774354Y-102315108D01*
X147774353Y-102315107D01*
X147774353Y-102315103D01*
X147771845Y-102309047D01*
X147713651Y-102168554D01*
X147713650Y-102168553D01*
X147713648Y-102168547D01*
X147697956Y-102145062D01*
X147625518Y-102036651D01*
X147625516Y-102036648D01*
X147510253Y-101921385D01*
X147510222Y-101921356D01*
X146580247Y-100991381D01*
X146546762Y-100930058D01*
X146551746Y-100860366D01*
X146593618Y-100804433D01*
X146659082Y-100780016D01*
X146667928Y-100779700D01*
X147915601Y-100779700D01*
X147981571Y-100798705D01*
X147986478Y-100801789D01*
X147986481Y-100801790D01*
X148156745Y-100861368D01*
X148156750Y-100861369D01*
X148335996Y-100881565D01*
X148336000Y-100881565D01*
X148336004Y-100881565D01*
X148515249Y-100861369D01*
X148515252Y-100861368D01*
X148515255Y-100861368D01*
X148685522Y-100801789D01*
X148838262Y-100705816D01*
X148965816Y-100578262D01*
X149061789Y-100425522D01*
X149121368Y-100255255D01*
X149121369Y-100255249D01*
X149141565Y-100076003D01*
X149141565Y-100075996D01*
X149121369Y-99896750D01*
X149121368Y-99896745D01*
X149074814Y-99763701D01*
X149061789Y-99726478D01*
X149054087Y-99714221D01*
X148986466Y-99606603D01*
X148965816Y-99573738D01*
X148838262Y-99446184D01*
X148810527Y-99428757D01*
X148685523Y-99350211D01*
X148515254Y-99290631D01*
X148515249Y-99290630D01*
X148336004Y-99270435D01*
X148335996Y-99270435D01*
X148156750Y-99290630D01*
X148156745Y-99290631D01*
X147986481Y-99350209D01*
X147986478Y-99350211D01*
X147981571Y-99353294D01*
X147915601Y-99372300D01*
X143567997Y-99372300D01*
X143500958Y-99352615D01*
X143455203Y-99299811D01*
X143444777Y-99262183D01*
X143430419Y-99134750D01*
X143430418Y-99134745D01*
X143392452Y-99026244D01*
X143370839Y-98964478D01*
X143274866Y-98811738D01*
X143147312Y-98684184D01*
X143103796Y-98656841D01*
X142994573Y-98588211D01*
X142824304Y-98528631D01*
X142824299Y-98528630D01*
X142645054Y-98508435D01*
X142645046Y-98508435D01*
X142465800Y-98528630D01*
X142465795Y-98528631D01*
X142295531Y-98588209D01*
X142295528Y-98588211D01*
X142290621Y-98591294D01*
X142224651Y-98610300D01*
X141312844Y-98610300D01*
X141245805Y-98590615D01*
X141225163Y-98573981D01*
X139646019Y-96994837D01*
X139612534Y-96933514D01*
X139609700Y-96907156D01*
X139609700Y-92919888D01*
X139629385Y-92852849D01*
X139650162Y-92828251D01*
X139710405Y-92773332D01*
X139778427Y-92711322D01*
X139807047Y-92673422D01*
X139863153Y-92631787D01*
X139932865Y-92627094D01*
X139994048Y-92660836D01*
X140004946Y-92673414D01*
X140033573Y-92711322D01*
X140194568Y-92858088D01*
X140194575Y-92858092D01*
X140194576Y-92858093D01*
X140379786Y-92972770D01*
X140379792Y-92972773D01*
X140402664Y-92981633D01*
X140582931Y-93051470D01*
X140797074Y-93091500D01*
X140797076Y-93091500D01*
X141014924Y-93091500D01*
X141014926Y-93091500D01*
X141229069Y-93051470D01*
X141432210Y-92972772D01*
X141617432Y-92858088D01*
X141778427Y-92711322D01*
X141807047Y-92673422D01*
X141863153Y-92631787D01*
X141932865Y-92627094D01*
X141994048Y-92660836D01*
X142004946Y-92673414D01*
X142033573Y-92711322D01*
X142194568Y-92858088D01*
X142194575Y-92858092D01*
X142194576Y-92858093D01*
X142379786Y-92972770D01*
X142379792Y-92972773D01*
X142402664Y-92981633D01*
X142582931Y-93051470D01*
X142797074Y-93091500D01*
X142797076Y-93091500D01*
X143014924Y-93091500D01*
X143014926Y-93091500D01*
X143229069Y-93051470D01*
X143432210Y-92972772D01*
X143617432Y-92858088D01*
X143778427Y-92711322D01*
X143807047Y-92673422D01*
X143863153Y-92631787D01*
X143932865Y-92627094D01*
X143994048Y-92660836D01*
X144004946Y-92673414D01*
X144033573Y-92711322D01*
X144194568Y-92858088D01*
X144194575Y-92858092D01*
X144194576Y-92858093D01*
X144379786Y-92972770D01*
X144379792Y-92972773D01*
X144402664Y-92981633D01*
X144582931Y-93051470D01*
X144797074Y-93091500D01*
X144797076Y-93091500D01*
X145014924Y-93091500D01*
X145014926Y-93091500D01*
X145229069Y-93051470D01*
X145432210Y-92972772D01*
X145617432Y-92858088D01*
X145778427Y-92711322D01*
X145896249Y-92555297D01*
X145926306Y-92526929D01*
X146022583Y-92462600D01*
X146120600Y-92364583D01*
X146120601Y-92364581D01*
X146127667Y-92357515D01*
X146127670Y-92357510D01*
X146150621Y-92334559D01*
X146211945Y-92301076D01*
X146281636Y-92306062D01*
G37*
%TD.AperFunction*%
%TA.AperFunction,Conductor*%
G36*
X138410128Y-101204638D02*
G01*
X138443628Y-101228494D01*
X138563356Y-101348222D01*
X138563385Y-101348253D01*
X138678647Y-101463515D01*
X138678652Y-101463519D01*
X138707170Y-101482573D01*
X138764208Y-101520685D01*
X138810547Y-101551648D01*
X138957103Y-101612354D01*
X139112680Y-101643300D01*
X139112684Y-101643301D01*
X139112685Y-101643301D01*
X139277430Y-101643301D01*
X139277450Y-101643300D01*
X140902156Y-101643300D01*
X140969195Y-101662985D01*
X141014950Y-101715789D01*
X141024894Y-101784947D01*
X140995869Y-101848503D01*
X140989837Y-101854981D01*
X138431345Y-104413471D01*
X138370022Y-104446956D01*
X138300330Y-104441972D01*
X138245288Y-104401276D01*
X138236636Y-104390000D01*
X137339012Y-104390000D01*
X137371925Y-104332993D01*
X137406000Y-104205826D01*
X137406000Y-104074174D01*
X137371925Y-103947007D01*
X137339012Y-103890000D01*
X138236636Y-103890000D01*
X138236635Y-103889999D01*
X138179432Y-103676513D01*
X138179429Y-103676507D01*
X138079600Y-103462422D01*
X138079599Y-103462420D01*
X137944113Y-103268926D01*
X137944108Y-103268920D01*
X137777082Y-103101894D01*
X137590968Y-102971575D01*
X137547344Y-102916998D01*
X137540151Y-102847499D01*
X137571673Y-102785145D01*
X137590968Y-102768425D01*
X137777082Y-102638105D01*
X137944105Y-102471082D01*
X138079600Y-102277578D01*
X138179429Y-102063492D01*
X138179432Y-102063486D01*
X138236636Y-101850000D01*
X137339012Y-101850000D01*
X137371925Y-101792993D01*
X137406000Y-101665826D01*
X137406000Y-101534174D01*
X137371925Y-101407007D01*
X137339012Y-101350000D01*
X138236636Y-101350000D01*
X138236635Y-101349999D01*
X138236172Y-101348269D01*
X138237835Y-101278419D01*
X138276997Y-101220556D01*
X138341225Y-101193052D01*
X138410128Y-101204638D01*
G37*
%TD.AperFunction*%
%TA.AperFunction,Conductor*%
G36*
X151276903Y-98932531D02*
G01*
X151283381Y-98938563D01*
X151850274Y-99505456D01*
X151850303Y-99505487D01*
X151951413Y-99606597D01*
X151951421Y-99606603D01*
X152050215Y-99672615D01*
X152066664Y-99683605D01*
X152066673Y-99683611D01*
X152150952Y-99718520D01*
X152205356Y-99762360D01*
X152227421Y-99828654D01*
X152227500Y-99833081D01*
X152227500Y-100855001D01*
X152227501Y-100855019D01*
X152238000Y-100957796D01*
X152238001Y-100957799D01*
X152293185Y-101124331D01*
X152293187Y-101124336D01*
X152385289Y-101273657D01*
X152408926Y-101297294D01*
X152442411Y-101358617D01*
X152437427Y-101428309D01*
X152408926Y-101472656D01*
X152385288Y-101496293D01*
X152385285Y-101496297D01*
X152332214Y-101582339D01*
X152280266Y-101629064D01*
X152240559Y-101640462D01*
X152115250Y-101654580D01*
X152115245Y-101654581D01*
X151944976Y-101714161D01*
X151792237Y-101810134D01*
X151664684Y-101937687D01*
X151568711Y-102090426D01*
X151509131Y-102260695D01*
X151509130Y-102260700D01*
X151488935Y-102439946D01*
X151488935Y-102439953D01*
X151509130Y-102619199D01*
X151509131Y-102619204D01*
X151568711Y-102789473D01*
X151627834Y-102883566D01*
X151664684Y-102942212D01*
X151792238Y-103069766D01*
X151944978Y-103165739D01*
X152067699Y-103208681D01*
X152115245Y-103225318D01*
X152115250Y-103225319D01*
X152194610Y-103234260D01*
X152240558Y-103239437D01*
X152304973Y-103266503D01*
X152332215Y-103297560D01*
X152368945Y-103357109D01*
X152387385Y-103424502D01*
X152366462Y-103491165D01*
X152312820Y-103535935D01*
X152249523Y-103545426D01*
X152195904Y-103539385D01*
X152195896Y-103539385D01*
X152016650Y-103559580D01*
X152016645Y-103559581D01*
X151846376Y-103619161D01*
X151693637Y-103715134D01*
X151566084Y-103842687D01*
X151470109Y-103995430D01*
X151419030Y-104141405D01*
X151378309Y-104198181D01*
X151313356Y-104223928D01*
X151244794Y-104210472D01*
X151214308Y-104188131D01*
X151108019Y-104081842D01*
X151074534Y-104020519D01*
X151071700Y-103994161D01*
X151071700Y-99026244D01*
X151091385Y-98959205D01*
X151144189Y-98913450D01*
X151213347Y-98903506D01*
X151276903Y-98932531D01*
G37*
%TD.AperFunction*%
%TA.AperFunction,Conductor*%
G36*
X137156000Y-103706988D02*
G01*
X137098993Y-103674075D01*
X136971826Y-103640000D01*
X136840174Y-103640000D01*
X136713007Y-103674075D01*
X136656000Y-103706988D01*
X136656000Y-102033012D01*
X136713007Y-102065925D01*
X136840174Y-102100000D01*
X136971826Y-102100000D01*
X137098993Y-102065925D01*
X137156000Y-102033012D01*
X137156000Y-103706988D01*
G37*
%TD.AperFunction*%
%TA.AperFunction,Conductor*%
G36*
X150075509Y-96123885D02*
G01*
X150096151Y-96140519D01*
X150211344Y-96255712D01*
X150360666Y-96347814D01*
X150527203Y-96402999D01*
X150629991Y-96413500D01*
X151630008Y-96413499D01*
X151630016Y-96413498D01*
X151630019Y-96413498D01*
X151686302Y-96407748D01*
X151732797Y-96402999D01*
X151804880Y-96379112D01*
X151874707Y-96376710D01*
X151934749Y-96412441D01*
X151965942Y-96474961D01*
X151967242Y-96484215D01*
X151972001Y-96530797D01*
X151972001Y-96530799D01*
X152027185Y-96697331D01*
X152027187Y-96697336D01*
X152062069Y-96753888D01*
X152113336Y-96837007D01*
X152119289Y-96846657D01*
X152213304Y-96940672D01*
X152246789Y-97001995D01*
X152241805Y-97071687D01*
X152213305Y-97116034D01*
X152119682Y-97209657D01*
X152027643Y-97358875D01*
X152027639Y-97358884D01*
X152007849Y-97418606D01*
X151968076Y-97476050D01*
X151903560Y-97502872D01*
X151834784Y-97490556D01*
X151802463Y-97467281D01*
X151680940Y-97345758D01*
X151680920Y-97345736D01*
X151578585Y-97243401D01*
X151463323Y-97166386D01*
X151335264Y-97113343D01*
X151335256Y-97113341D01*
X151199310Y-97086299D01*
X151199308Y-97086299D01*
X151060692Y-97086299D01*
X151054578Y-97086299D01*
X151054558Y-97086300D01*
X149893947Y-97086300D01*
X149826908Y-97066615D01*
X149781153Y-97013811D01*
X149770727Y-96976183D01*
X149756369Y-96848750D01*
X149756368Y-96848745D01*
X149730215Y-96774003D01*
X149696789Y-96678478D01*
X149600816Y-96525738D01*
X149600814Y-96525736D01*
X149597078Y-96521051D01*
X149570667Y-96456366D01*
X149583421Y-96387670D01*
X149628924Y-96338197D01*
X149762656Y-96255712D01*
X149877849Y-96140519D01*
X149939172Y-96107034D01*
X149965530Y-96104200D01*
X150008470Y-96104200D01*
X150075509Y-96123885D01*
G37*
%TD.AperFunction*%
%TA.AperFunction,Conductor*%
G36*
X154561623Y-87337385D02*
G01*
X154597781Y-87378799D01*
X154600395Y-87377187D01*
X154604185Y-87383332D01*
X154604186Y-87383334D01*
X154696288Y-87532656D01*
X154820344Y-87656712D01*
X154969666Y-87748814D01*
X155136203Y-87803999D01*
X155238991Y-87814500D01*
X155864008Y-87814499D01*
X155864016Y-87814498D01*
X155864019Y-87814498D01*
X155920302Y-87808748D01*
X155966797Y-87803999D01*
X156133334Y-87748814D01*
X156282656Y-87656712D01*
X156376319Y-87563049D01*
X156437642Y-87529564D01*
X156507334Y-87534548D01*
X156551681Y-87563049D01*
X156645344Y-87656712D01*
X156794666Y-87748814D01*
X156961203Y-87803999D01*
X157063991Y-87814500D01*
X157689008Y-87814499D01*
X157689016Y-87814498D01*
X157689019Y-87814498D01*
X157745302Y-87808748D01*
X157791797Y-87803999D01*
X157958334Y-87748814D01*
X158107656Y-87656712D01*
X158199822Y-87564545D01*
X158261141Y-87531063D01*
X158330833Y-87536047D01*
X158386767Y-87577918D01*
X158411184Y-87643382D01*
X158411500Y-87652228D01*
X158411500Y-87777336D01*
X158411501Y-87777355D01*
X158421650Y-87876707D01*
X158421651Y-87876710D01*
X158474996Y-88037694D01*
X158475001Y-88037705D01*
X158564029Y-88182040D01*
X158567448Y-88186364D01*
X158593588Y-88251160D01*
X158580547Y-88319802D01*
X158557862Y-88350956D01*
X158413145Y-88495672D01*
X158351822Y-88529156D01*
X158282130Y-88524172D01*
X158238719Y-88492550D01*
X158236819Y-88494451D01*
X158107657Y-88365289D01*
X158107656Y-88365288D01*
X157958334Y-88273186D01*
X157791797Y-88218001D01*
X157791795Y-88218000D01*
X157689010Y-88207500D01*
X157063998Y-88207500D01*
X157063980Y-88207501D01*
X156961203Y-88218000D01*
X156961200Y-88218001D01*
X156794668Y-88273185D01*
X156794663Y-88273187D01*
X156645345Y-88365287D01*
X156551327Y-88459305D01*
X156490003Y-88492789D01*
X156420312Y-88487805D01*
X156375965Y-88459304D01*
X156282345Y-88365684D01*
X156133124Y-88273643D01*
X156133119Y-88273641D01*
X155966697Y-88218494D01*
X155966690Y-88218493D01*
X155863986Y-88208000D01*
X155801500Y-88208000D01*
X155801500Y-89534000D01*
X155781815Y-89601039D01*
X155729011Y-89646794D01*
X155677500Y-89658000D01*
X155425500Y-89658000D01*
X155358461Y-89638315D01*
X155312706Y-89585511D01*
X155301500Y-89534000D01*
X155301500Y-88208000D01*
X155301499Y-88207999D01*
X155239028Y-88208000D01*
X155239011Y-88208001D01*
X155136302Y-88218494D01*
X154969880Y-88273641D01*
X154969875Y-88273643D01*
X154820654Y-88365684D01*
X154696684Y-88489654D01*
X154604643Y-88638875D01*
X154604641Y-88638880D01*
X154549494Y-88805302D01*
X154549493Y-88805309D01*
X154539726Y-88900912D01*
X154513330Y-88965604D01*
X154456149Y-89005755D01*
X154386338Y-89008618D01*
X154326061Y-88973283D01*
X154305280Y-88943403D01*
X154293032Y-88918707D01*
X154293030Y-88918704D01*
X154173722Y-88770278D01*
X154173721Y-88770277D01*
X154025295Y-88650969D01*
X153948605Y-88612934D01*
X153897292Y-88565512D01*
X153879700Y-88501846D01*
X153879700Y-87769709D01*
X153886658Y-87728756D01*
X153913435Y-87652228D01*
X153921572Y-87628974D01*
X153950928Y-87582252D01*
X154179164Y-87354016D01*
X154240486Y-87320534D01*
X154266844Y-87317700D01*
X154494584Y-87317700D01*
X154561623Y-87337385D01*
G37*
%TD.AperFunction*%
%TA.AperFunction,Conductor*%
G36*
X151452834Y-78498862D02*
G01*
X151508767Y-78540734D01*
X151533184Y-78606198D01*
X151533500Y-78615044D01*
X151533500Y-79725701D01*
X151536401Y-79762567D01*
X151536402Y-79762573D01*
X151582254Y-79920393D01*
X151582255Y-79920396D01*
X151582256Y-79920398D01*
X151616732Y-79978694D01*
X151634000Y-80041814D01*
X151634000Y-80697500D01*
X152184000Y-80697500D01*
X152184000Y-80434500D01*
X152203685Y-80367461D01*
X152256489Y-80321706D01*
X152308000Y-80310500D01*
X152525454Y-80310500D01*
X152592493Y-80330185D01*
X152613135Y-80346819D01*
X152695914Y-80429598D01*
X152811176Y-80506613D01*
X152939235Y-80559656D01*
X152939236Y-80559656D01*
X152939238Y-80559657D01*
X152939242Y-80559657D01*
X152939243Y-80559658D01*
X153075188Y-80586701D01*
X153075191Y-80586701D01*
X153219922Y-80586701D01*
X153219942Y-80586700D01*
X154494584Y-80586700D01*
X154561623Y-80606385D01*
X154597781Y-80647799D01*
X154600395Y-80646187D01*
X154604185Y-80652332D01*
X154604186Y-80652334D01*
X154653754Y-80732697D01*
X154696289Y-80801657D01*
X154811481Y-80916849D01*
X154844966Y-80978172D01*
X154847800Y-81004530D01*
X154847800Y-81047470D01*
X154828115Y-81114509D01*
X154811481Y-81135151D01*
X154696289Y-81250342D01*
X154604187Y-81399663D01*
X154604187Y-81399664D01*
X154604186Y-81399666D01*
X154549001Y-81566203D01*
X154549001Y-81566204D01*
X154549000Y-81566204D01*
X154538500Y-81668983D01*
X154538500Y-82669001D01*
X154538501Y-82669019D01*
X154549000Y-82771796D01*
X154549001Y-82771799D01*
X154578848Y-82861870D01*
X154604186Y-82938334D01*
X154696096Y-83087345D01*
X154696289Y-83087657D01*
X154744451Y-83135819D01*
X154777936Y-83197142D01*
X154772952Y-83266834D01*
X154744451Y-83311181D01*
X154671289Y-83384342D01*
X154579187Y-83533663D01*
X154579185Y-83533668D01*
X154564000Y-83579494D01*
X154524001Y-83700203D01*
X154524001Y-83700204D01*
X154524000Y-83700204D01*
X154513500Y-83802983D01*
X154513500Y-84853001D01*
X154513501Y-84853019D01*
X154524000Y-84955796D01*
X154524001Y-84955799D01*
X154579185Y-85122331D01*
X154579187Y-85122336D01*
X154614069Y-85178888D01*
X154671288Y-85271656D01*
X154795344Y-85395712D01*
X154795346Y-85395713D01*
X154798056Y-85397856D01*
X154799433Y-85399801D01*
X154800451Y-85400819D01*
X154800277Y-85400992D01*
X154838433Y-85454878D01*
X154841573Y-85524677D01*
X154808828Y-85582804D01*
X154696287Y-85695345D01*
X154672947Y-85733186D01*
X154616139Y-85825288D01*
X154600395Y-85850813D01*
X154597736Y-85849172D01*
X154560842Y-85891114D01*
X154494584Y-85910300D01*
X153999443Y-85910300D01*
X153999423Y-85910299D01*
X153993309Y-85910299D01*
X153854692Y-85910299D01*
X153854689Y-85910299D01*
X153718745Y-85937339D01*
X153718736Y-85937342D01*
X153628180Y-85974852D01*
X153590678Y-85990386D01*
X153590674Y-85990388D01*
X153590673Y-85990389D01*
X153556942Y-86012927D01*
X153475416Y-86067400D01*
X153444154Y-86098663D01*
X153377400Y-86165417D01*
X153377397Y-86165420D01*
X152955749Y-86587067D01*
X152909024Y-86616427D01*
X152812476Y-86650211D01*
X152812475Y-86650212D01*
X152659737Y-86746184D01*
X152532184Y-86873737D01*
X152436211Y-87026476D01*
X152376631Y-87196745D01*
X152376630Y-87196750D01*
X152356435Y-87375996D01*
X152356435Y-87376003D01*
X152376630Y-87555249D01*
X152376631Y-87555254D01*
X152436211Y-87725524D01*
X152453293Y-87752708D01*
X152472300Y-87818681D01*
X152472300Y-88501846D01*
X152452615Y-88568885D01*
X152403395Y-88612934D01*
X152326704Y-88650969D01*
X152178278Y-88770277D01*
X152178277Y-88770278D01*
X152122647Y-88839486D01*
X152065304Y-88879405D01*
X151995482Y-88881985D01*
X151935349Y-88846406D01*
X151929353Y-88839486D01*
X151873722Y-88770278D01*
X151873721Y-88770277D01*
X151725295Y-88650969D01*
X151648605Y-88612934D01*
X151597292Y-88565512D01*
X151579700Y-88501846D01*
X151579700Y-85342499D01*
X151599385Y-85275460D01*
X151652189Y-85229705D01*
X151703700Y-85218499D01*
X152334028Y-85218499D01*
X152334036Y-85218499D01*
X152453418Y-85207886D01*
X152649049Y-85151909D01*
X152829407Y-85057698D01*
X152987109Y-84929109D01*
X153115698Y-84771407D01*
X153209909Y-84591049D01*
X153265886Y-84395418D01*
X153276500Y-84276037D01*
X153276499Y-83159964D01*
X153265886Y-83040582D01*
X153209909Y-82844951D01*
X153115698Y-82664593D01*
X153016893Y-82543418D01*
X152987109Y-82506890D01*
X152829409Y-82378304D01*
X152829410Y-82378304D01*
X152829407Y-82378302D01*
X152649049Y-82284091D01*
X152649048Y-82284090D01*
X152649045Y-82284089D01*
X152531829Y-82250550D01*
X152453418Y-82228114D01*
X152453415Y-82228113D01*
X152453413Y-82228113D01*
X152380631Y-82221642D01*
X152334037Y-82217500D01*
X152334033Y-82217500D01*
X152070101Y-82217500D01*
X152003062Y-82197815D01*
X151957307Y-82145011D01*
X151947363Y-82075853D01*
X151976388Y-82012297D01*
X151982420Y-82005818D01*
X152051681Y-81936557D01*
X152051685Y-81936552D01*
X152135282Y-81795196D01*
X152135283Y-81795193D01*
X152181099Y-81637495D01*
X152181100Y-81637489D01*
X152183999Y-81600649D01*
X152184000Y-81600634D01*
X152184000Y-81197500D01*
X150584000Y-81197500D01*
X150584000Y-81600649D01*
X150586899Y-81637489D01*
X150586900Y-81637495D01*
X150632716Y-81795193D01*
X150632717Y-81795196D01*
X150716314Y-81936552D01*
X150716321Y-81936561D01*
X150785579Y-82005819D01*
X150819064Y-82067142D01*
X150814080Y-82136834D01*
X150772208Y-82192767D01*
X150706744Y-82217184D01*
X150697898Y-82217500D01*
X149417971Y-82217500D01*
X149417965Y-82217500D01*
X149417964Y-82217501D01*
X149406316Y-82218536D01*
X149298584Y-82228113D01*
X149102954Y-82284089D01*
X149012772Y-82331196D01*
X148922593Y-82378302D01*
X148922591Y-82378303D01*
X148922590Y-82378304D01*
X148764890Y-82506890D01*
X148636301Y-82664594D01*
X148616522Y-82702458D01*
X148568034Y-82752765D01*
X148520498Y-82768265D01*
X148410750Y-82780630D01*
X148240478Y-82840210D01*
X148087737Y-82936184D01*
X147960184Y-83063737D01*
X147864211Y-83216476D01*
X147804631Y-83386745D01*
X147804630Y-83386750D01*
X147784435Y-83565996D01*
X147784435Y-83566003D01*
X147804630Y-83745249D01*
X147804631Y-83745254D01*
X147864211Y-83915523D01*
X147960184Y-84068262D01*
X148087738Y-84195816D01*
X148240478Y-84291789D01*
X148410745Y-84351368D01*
X148417318Y-84353668D01*
X148416497Y-84356012D01*
X148467413Y-84384492D01*
X148498059Y-84437164D01*
X148542091Y-84591049D01*
X148636302Y-84771407D01*
X148636304Y-84771409D01*
X148764890Y-84929109D01*
X148858803Y-85005684D01*
X148922593Y-85057698D01*
X149102951Y-85151909D01*
X149298582Y-85207886D01*
X149417963Y-85218500D01*
X150048300Y-85218499D01*
X150115339Y-85238183D01*
X150161094Y-85290987D01*
X150172300Y-85342499D01*
X150172300Y-88501846D01*
X150152615Y-88568885D01*
X150103395Y-88612934D01*
X150026704Y-88650969D01*
X149878278Y-88770277D01*
X149878277Y-88770278D01*
X149822647Y-88839486D01*
X149765304Y-88879405D01*
X149695482Y-88881985D01*
X149635349Y-88846406D01*
X149629353Y-88839486D01*
X149573722Y-88770278D01*
X149573721Y-88770277D01*
X149425295Y-88650969D01*
X149348605Y-88612934D01*
X149297292Y-88565512D01*
X149279700Y-88501846D01*
X149279700Y-88248495D01*
X149299385Y-88181456D01*
X149352189Y-88135701D01*
X149362746Y-88131453D01*
X149447522Y-88101789D01*
X149600262Y-88005816D01*
X149727816Y-87878262D01*
X149823789Y-87725522D01*
X149883368Y-87555255D01*
X149883369Y-87555249D01*
X149903565Y-87376003D01*
X149903565Y-87375996D01*
X149883369Y-87196750D01*
X149883368Y-87196745D01*
X149823788Y-87026476D01*
X149784582Y-86964080D01*
X149727816Y-86873738D01*
X149600262Y-86746184D01*
X149447523Y-86650211D01*
X149277254Y-86590631D01*
X149277249Y-86590630D01*
X149098004Y-86570435D01*
X149097996Y-86570435D01*
X148918750Y-86590630D01*
X148918745Y-86590631D01*
X148748476Y-86650211D01*
X148595737Y-86746184D01*
X148468184Y-86873737D01*
X148372212Y-87026475D01*
X148372211Y-87026476D01*
X148338427Y-87123024D01*
X148309067Y-87169749D01*
X148161117Y-87317700D01*
X148127420Y-87351397D01*
X148127417Y-87351400D01*
X148102821Y-87375996D01*
X148029400Y-87449416D01*
X147973782Y-87532656D01*
X147952387Y-87564675D01*
X147899343Y-87692735D01*
X147899342Y-87692740D01*
X147892474Y-87727266D01*
X147860088Y-87789176D01*
X147799371Y-87823749D01*
X147729602Y-87820008D01*
X147672931Y-87779140D01*
X147667755Y-87771963D01*
X147612598Y-87689414D01*
X147511487Y-87588303D01*
X147511456Y-87588274D01*
X146745898Y-86822716D01*
X146712413Y-86761393D01*
X146717397Y-86691701D01*
X146759269Y-86635768D01*
X146792623Y-86617993D01*
X146907522Y-86577789D01*
X147060262Y-86481816D01*
X147187816Y-86354262D01*
X147283789Y-86201522D01*
X147343368Y-86031255D01*
X147345433Y-86012927D01*
X147363565Y-85852003D01*
X147363565Y-85851996D01*
X147343369Y-85672750D01*
X147343366Y-85672737D01*
X147283789Y-85502478D01*
X147280704Y-85497567D01*
X147261700Y-85431599D01*
X147261700Y-83043343D01*
X147281385Y-82976304D01*
X147298014Y-82955666D01*
X148281863Y-81971817D01*
X148343186Y-81938333D01*
X148369544Y-81935499D01*
X148836002Y-81935499D01*
X148836008Y-81935499D01*
X148938797Y-81924999D01*
X149105334Y-81869814D01*
X149254656Y-81777712D01*
X149378712Y-81653656D01*
X149470814Y-81504334D01*
X149525999Y-81337797D01*
X149536500Y-81235009D01*
X149536499Y-80609992D01*
X149532264Y-80568538D01*
X149525999Y-80507203D01*
X149525998Y-80507200D01*
X149525803Y-80506611D01*
X149470814Y-80340666D01*
X149378712Y-80191344D01*
X149285049Y-80097681D01*
X149251564Y-80036358D01*
X149256548Y-79966666D01*
X149285049Y-79922319D01*
X149305052Y-79902316D01*
X149378712Y-79828656D01*
X149378714Y-79828652D01*
X149382957Y-79823288D01*
X149439980Y-79782912D01*
X149480222Y-79776200D01*
X149547261Y-79776200D01*
X149614300Y-79795885D01*
X149660055Y-79848689D01*
X149666334Y-79865596D01*
X149682256Y-79920398D01*
X149742799Y-80022772D01*
X149765917Y-80061862D01*
X149765923Y-80061870D01*
X149882129Y-80178076D01*
X149882133Y-80178079D01*
X149882135Y-80178081D01*
X150023602Y-80261744D01*
X150065224Y-80273836D01*
X150181426Y-80307597D01*
X150181429Y-80307597D01*
X150181431Y-80307598D01*
X150218306Y-80310500D01*
X150218314Y-80310500D01*
X150460000Y-80310500D01*
X150527039Y-80330185D01*
X150572794Y-80382989D01*
X150584000Y-80434500D01*
X150584000Y-80697500D01*
X151134000Y-80697500D01*
X151134000Y-80041814D01*
X151151267Y-79978694D01*
X151185744Y-79920398D01*
X151231598Y-79762569D01*
X151234500Y-79725694D01*
X151234500Y-78666044D01*
X151254185Y-78599005D01*
X151270819Y-78578363D01*
X151321819Y-78527363D01*
X151383142Y-78493878D01*
X151452834Y-78498862D01*
G37*
%TD.AperFunction*%
%TD*%
M02*
