M48
; DRILL file {KiCad 8.0.1} date 2024-04-28T15:11:06+0200
; FORMAT={-:-/ absolute / inch / decimal}
; #@! TF.CreationDate,2024-04-28T15:11:06+02:00
; #@! TF.GenerationSoftware,Kicad,Pcbnew,8.0.1
; #@! TF.FileFunction,Plated,1,2,PTH
FMAT,2
INCH
; #@! TA.AperFunction,Plated,PTH,ViaDrill
T1C0.0118
; #@! TA.AperFunction,Plated,PTH,ViaDrill
T2C0.0236
; #@! TA.AperFunction,Plated,PTH,ComponentDrill
T3C0.0315
; #@! TA.AperFunction,Plated,PTH,ComponentDrill
T4C0.0354
; #@! TA.AperFunction,Plated,PTH,ComponentDrill
T5C0.0394
; #@! TA.AperFunction,Plated,PTH,ComponentDrill
T6C0.0472
%
G90
G05
T1
X4.9461Y-4.2461
X5.0561Y-4.0161
X5.0861Y-3.5961
X5.1361Y-3.6661
X5.1761Y-3.8061
X5.2161Y-3.8861
X5.2261Y-4.5161
X5.2661Y-3.3461
X5.3261Y-4.0061
X5.415Y-4.1961
X5.4161Y-3.7161
X5.5261Y-4.0061
X5.5261Y-4.1961
X5.5461Y-3.4661
X5.6061Y-3.5761
X5.6753Y-4.2506
X5.6761Y-4.2961
X5.7745Y-4.2275
X5.7961Y-3.8061
X5.8461Y-3.6961
X5.8761Y-4.4761
X5.8861Y-3.6061
X5.8929Y-3.9596
X5.9136Y-3.7583
X5.9361Y-3.7961
X5.9461Y-3.7309
X5.9561Y-3.8961
X5.9761Y-3.8061
X6.0361Y-3.6561
X6.0476Y-3.9876
X6.0861Y-3.776
X6.0861Y-3.8261
X6.087Y-4.0575
X6.0961Y-3.746
X6.1181Y-4.0981
X6.1319Y-3.9533
X6.1761Y-4.4661
X6.1931Y-4.102
X6.2245Y-3.8061
X6.2261Y-3.8561
X6.2261Y-3.9461
X6.2456Y-3.8367
X6.2461Y-4.0961
X6.2461Y-4.2561
X6.2861Y-3.9461
X6.3061Y-4.2561
X6.3161Y-3.7221
X6.3461Y-4.0061
X6.4061Y-3.9711
X6.4073Y-4.1668
X6.4161Y-3.8061
X6.4161Y-3.8461
X6.4161Y-4.0861
X6.4261Y-3.6861
X6.5061Y-4.1161
X6.7661Y-4.1761
X6.7861Y-3.9761
X6.7861Y-4.1361
X6.8357Y-3.5288
X6.8361Y-3.4961
X6.8365Y-3.4639
X6.8461Y-3.8761
X6.8561Y-3.9361
X6.9261Y-4.4061
X6.9361Y-3.3661
X6.9361Y-3.9561
X6.9361Y-4.1561
X7.0661Y-4.3461
X7.1261Y-3.3961
X7.1261Y-3.4761
X7.1661Y-3.7661
T2
X4.9461Y-3.3761
X5.0143Y-3.543
X6.3268Y-3.4055
T3
X5.3587Y-3.4561
X5.4571Y-3.4561
X5.7961Y-3.9583
X5.7961Y-4.0961
X6.6074Y-3.4961
X6.6074Y-3.5749
X6.6074Y-3.6536
X6.6074Y-3.7324
X6.6074Y-3.8111
X6.6861Y-3.4961
X6.6861Y-3.5749
X6.6861Y-3.6536
X6.6861Y-3.7324
X6.6861Y-3.8111
T4
X5.7161Y-3.7063
X5.7161Y-3.8063
T5
X5.2882Y-3.6276
X5.2882Y-3.8047
X5.5441Y-3.6276
X5.5441Y-3.8047
X5.7257Y-4.3861
X5.7261Y-3.4961
X5.8257Y-4.3861
X5.8261Y-3.4961
X5.9257Y-4.3861
X5.9261Y-3.4961
X6.0257Y-4.3861
X6.0261Y-3.4961
X6.1257Y-4.3861
X6.1261Y-3.4961
X6.2257Y-4.3861
X6.2261Y-3.4961
X6.3257Y-4.3861
X6.3261Y-3.4961
X6.4257Y-4.3861
X6.4261Y-3.4961
X6.5257Y-4.3861
T6
X5.3377Y-4.4761
X5.5346Y-4.4761
M30
