%TF.GenerationSoftware,KiCad,Pcbnew,8.0.1*%
%TF.CreationDate,2024-04-13T01:21:34+02:00*%
%TF.ProjectId,controller_lpc1115_2MU_v1.04,636f6e74-726f-46c6-9c65-725f6c706331,rev?*%
%TF.SameCoordinates,Original*%
%TF.FileFunction,Drillmap*%
%TF.FilePolarity,Positive*%
%FSLAX45Y45*%
G04 Gerber Fmt 4.5, Leading zero omitted, Abs format (unit mm)*
G04 Created by KiCad (PCBNEW 8.0.1) date 2024-04-13 01:21:34*
%MOMM*%
%LPD*%
G01*
G04 APERTURE LIST*
%ADD10C,0.050000*%
%ADD11C,0.200000*%
G04 APERTURE END LIST*
D10*
X16453810Y-7714145D02*
X13253810Y-7714145D01*
X16453810Y-13524395D02*
X16453810Y-7714145D01*
X13253810Y-13524395D02*
X16453810Y-13524395D01*
X13253810Y-7714145D02*
X13253810Y-13524395D01*
D11*
X13512087Y-13838379D02*
X13512087Y-13638379D01*
X13512087Y-13638379D02*
X13559706Y-13638379D01*
X13559706Y-13638379D02*
X13588277Y-13647903D01*
X13588277Y-13647903D02*
X13607325Y-13666950D01*
X13607325Y-13666950D02*
X13616849Y-13685998D01*
X13616849Y-13685998D02*
X13626372Y-13724093D01*
X13626372Y-13724093D02*
X13626372Y-13752664D01*
X13626372Y-13752664D02*
X13616849Y-13790760D01*
X13616849Y-13790760D02*
X13607325Y-13809807D01*
X13607325Y-13809807D02*
X13588277Y-13828855D01*
X13588277Y-13828855D02*
X13559706Y-13838379D01*
X13559706Y-13838379D02*
X13512087Y-13838379D01*
X13712087Y-13838379D02*
X13712087Y-13705045D01*
X13712087Y-13743141D02*
X13721611Y-13724093D01*
X13721611Y-13724093D02*
X13731134Y-13714569D01*
X13731134Y-13714569D02*
X13750182Y-13705045D01*
X13750182Y-13705045D02*
X13769230Y-13705045D01*
X13835896Y-13838379D02*
X13835896Y-13705045D01*
X13835896Y-13638379D02*
X13826372Y-13647903D01*
X13826372Y-13647903D02*
X13835896Y-13657426D01*
X13835896Y-13657426D02*
X13845420Y-13647903D01*
X13845420Y-13647903D02*
X13835896Y-13638379D01*
X13835896Y-13638379D02*
X13835896Y-13657426D01*
X13959706Y-13838379D02*
X13940658Y-13828855D01*
X13940658Y-13828855D02*
X13931134Y-13809807D01*
X13931134Y-13809807D02*
X13931134Y-13638379D01*
X14064468Y-13838379D02*
X14045420Y-13828855D01*
X14045420Y-13828855D02*
X14035896Y-13809807D01*
X14035896Y-13809807D02*
X14035896Y-13638379D01*
X14293039Y-13838379D02*
X14293039Y-13638379D01*
X14293039Y-13638379D02*
X14359706Y-13781236D01*
X14359706Y-13781236D02*
X14426372Y-13638379D01*
X14426372Y-13638379D02*
X14426372Y-13838379D01*
X14607325Y-13838379D02*
X14607325Y-13733617D01*
X14607325Y-13733617D02*
X14597801Y-13714569D01*
X14597801Y-13714569D02*
X14578753Y-13705045D01*
X14578753Y-13705045D02*
X14540658Y-13705045D01*
X14540658Y-13705045D02*
X14521611Y-13714569D01*
X14607325Y-13828855D02*
X14588277Y-13838379D01*
X14588277Y-13838379D02*
X14540658Y-13838379D01*
X14540658Y-13838379D02*
X14521611Y-13828855D01*
X14521611Y-13828855D02*
X14512087Y-13809807D01*
X14512087Y-13809807D02*
X14512087Y-13790760D01*
X14512087Y-13790760D02*
X14521611Y-13771712D01*
X14521611Y-13771712D02*
X14540658Y-13762188D01*
X14540658Y-13762188D02*
X14588277Y-13762188D01*
X14588277Y-13762188D02*
X14607325Y-13752664D01*
X14702563Y-13705045D02*
X14702563Y-13905045D01*
X14702563Y-13714569D02*
X14721611Y-13705045D01*
X14721611Y-13705045D02*
X14759706Y-13705045D01*
X14759706Y-13705045D02*
X14778753Y-13714569D01*
X14778753Y-13714569D02*
X14788277Y-13724093D01*
X14788277Y-13724093D02*
X14797801Y-13743141D01*
X14797801Y-13743141D02*
X14797801Y-13800283D01*
X14797801Y-13800283D02*
X14788277Y-13819331D01*
X14788277Y-13819331D02*
X14778753Y-13828855D01*
X14778753Y-13828855D02*
X14759706Y-13838379D01*
X14759706Y-13838379D02*
X14721611Y-13838379D01*
X14721611Y-13838379D02*
X14702563Y-13828855D01*
X14883515Y-13819331D02*
X14893039Y-13828855D01*
X14893039Y-13828855D02*
X14883515Y-13838379D01*
X14883515Y-13838379D02*
X14873992Y-13828855D01*
X14873992Y-13828855D02*
X14883515Y-13819331D01*
X14883515Y-13819331D02*
X14883515Y-13838379D01*
X14883515Y-13714569D02*
X14893039Y-13724093D01*
X14893039Y-13724093D02*
X14883515Y-13733617D01*
X14883515Y-13733617D02*
X14873992Y-13724093D01*
X14873992Y-13724093D02*
X14883515Y-13714569D01*
X14883515Y-13714569D02*
X14883515Y-13733617D01*
M02*
