%TF.GenerationSoftware,KiCad,Pcbnew,8.0.1*%
%TF.CreationDate,2024-04-28T15:11:04+02:00*%
%TF.ProjectId,controller_lpc1115_2MU_v1.04,636f6e74-726f-46c6-9c65-725f6c706331,rev?*%
%TF.SameCoordinates,Original*%
%TF.FileFunction,Soldermask,Bot*%
%TF.FilePolarity,Negative*%
%FSLAX46Y46*%
G04 Gerber Fmt 4.6, Leading zero omitted, Abs format (unit mm)*
G04 Created by KiCad (PCBNEW 8.0.1) date 2024-04-28 15:11:04*
%MOMM*%
%LPD*%
G01*
G04 APERTURE LIST*
G04 Aperture macros list*
%AMRoundRect*
0 Rectangle with rounded corners*
0 $1 Rounding radius*
0 $2 $3 $4 $5 $6 $7 $8 $9 X,Y pos of 4 corners*
0 Add a 4 corners polygon primitive as box body*
4,1,4,$2,$3,$4,$5,$6,$7,$8,$9,$2,$3,0*
0 Add four circle primitives for the rounded corners*
1,1,$1+$1,$2,$3*
1,1,$1+$1,$4,$5*
1,1,$1+$1,$6,$7*
1,1,$1+$1,$8,$9*
0 Add four rect primitives between the rounded corners*
20,1,$1+$1,$2,$3,$4,$5,0*
20,1,$1+$1,$4,$5,$6,$7,0*
20,1,$1+$1,$6,$7,$8,$9,0*
20,1,$1+$1,$8,$9,$2,$3,0*%
G04 Aperture macros list end*
%ADD10R,1.700000X1.700000*%
%ADD11O,1.700000X1.700000*%
%ADD12C,1.700000*%
%ADD13R,1.350000X1.350000*%
%ADD14O,1.350000X1.350000*%
%ADD15R,1.600000X1.600000*%
%ADD16C,1.600000*%
%ADD17C,2.400000*%
%ADD18R,1.800000X1.800000*%
%ADD19C,1.800000*%
%ADD20RoundRect,0.250000X-0.262500X-0.450000X0.262500X-0.450000X0.262500X0.450000X-0.262500X0.450000X0*%
%ADD21RoundRect,0.250000X-0.475000X0.250000X-0.475000X-0.250000X0.475000X-0.250000X0.475000X0.250000X0*%
%ADD22RoundRect,0.250000X0.262500X0.450000X-0.262500X0.450000X-0.262500X-0.450000X0.262500X-0.450000X0*%
%ADD23RoundRect,0.250000X-0.400000X-0.600000X0.400000X-0.600000X0.400000X0.600000X-0.400000X0.600000X0*%
%ADD24RoundRect,0.250000X-0.450000X0.262500X-0.450000X-0.262500X0.450000X-0.262500X0.450000X0.262500X0*%
%ADD25RoundRect,0.075000X0.075000X-0.662500X0.075000X0.662500X-0.075000X0.662500X-0.075000X-0.662500X0*%
%ADD26RoundRect,0.075000X0.662500X-0.075000X0.662500X0.075000X-0.662500X0.075000X-0.662500X-0.075000X0*%
%ADD27RoundRect,0.225000X0.225000X0.375000X-0.225000X0.375000X-0.225000X-0.375000X0.225000X-0.375000X0*%
%ADD28RoundRect,0.250000X-0.300000X-0.300000X0.300000X-0.300000X0.300000X0.300000X-0.300000X0.300000X0*%
G04 APERTURE END LIST*
D10*
%TO.C,J2*%
X145444000Y-88802000D03*
D11*
X147984000Y-88802000D03*
X150524000Y-88802000D03*
X153064000Y-88802000D03*
X155604000Y-88802000D03*
X158144000Y-88802000D03*
X160684000Y-88802000D03*
X163224000Y-88802000D03*
%TD*%
D10*
%TO.C,SW1*%
X134320000Y-92140000D03*
D12*
X140820000Y-92140000D03*
X134320000Y-96640000D03*
X140820000Y-96640000D03*
%TD*%
D13*
%TO.C,J3*%
X169828000Y-88802000D03*
D14*
X167828000Y-88802000D03*
X169828000Y-90802000D03*
X167828000Y-90802000D03*
X169828000Y-92802000D03*
X167828000Y-92802000D03*
X169828000Y-94802000D03*
X167828000Y-94802000D03*
X169828000Y-96802000D03*
X167828000Y-96802000D03*
%TD*%
D15*
%TO.C,C5*%
X147222000Y-104042000D03*
D16*
X147222000Y-100542000D03*
%TD*%
D17*
%TO.C,L2*%
X140578000Y-113694000D03*
X135578000Y-113694000D03*
%TD*%
D15*
%TO.C,C3*%
X136110887Y-87786000D03*
D16*
X138610887Y-87786000D03*
%TD*%
D18*
%TO.C,D4*%
X145190000Y-96681000D03*
D19*
X145190000Y-94141000D03*
%TD*%
D10*
%TO.C,J1*%
X165754000Y-111408000D03*
D11*
X163214000Y-111408000D03*
X160674000Y-111408000D03*
X158134000Y-111408000D03*
X155594000Y-111408000D03*
X153054000Y-111408000D03*
X150514000Y-111408000D03*
X147974000Y-111408000D03*
X145434000Y-111408000D03*
%TD*%
D20*
%TO.C,R20*%
X127513500Y-98454000D03*
X129338500Y-98454000D03*
%TD*%
D21*
%TO.C,C4*%
X152556000Y-101568000D03*
X152556000Y-103468000D03*
%TD*%
D22*
%TO.C,R19*%
X129338500Y-100994000D03*
X127513500Y-100994000D03*
%TD*%
D23*
%TO.C,D10*%
X139376000Y-108868000D03*
X142876000Y-108868000D03*
%TD*%
D21*
%TO.C,C15*%
X133760000Y-86074000D03*
X133760000Y-87974000D03*
%TD*%
D20*
%TO.C,R14*%
X144277500Y-91850000D03*
X146102500Y-91850000D03*
%TD*%
%TO.C,R2*%
X127513500Y-92866000D03*
X129338500Y-92866000D03*
%TD*%
D22*
%TO.C,R15*%
X156516500Y-105820000D03*
X154691500Y-105820000D03*
%TD*%
D24*
%TO.C,R18*%
X176686000Y-101859500D03*
X176686000Y-103684500D03*
%TD*%
D22*
%TO.C,R1*%
X129338500Y-95152000D03*
X127513500Y-95152000D03*
%TD*%
D25*
%TO.C,IC1*%
X160269950Y-101580550D03*
X159769950Y-101580550D03*
X159269950Y-101580550D03*
X158769950Y-101580550D03*
X158269950Y-101580550D03*
X157769950Y-101580550D03*
X157269950Y-101580550D03*
X156769950Y-101580550D03*
X156269950Y-101580550D03*
X155769950Y-101580550D03*
X155269950Y-101580550D03*
X154769950Y-101580550D03*
D26*
X153357450Y-100168050D03*
X153357450Y-99668050D03*
X153357450Y-99168050D03*
X153357450Y-98668050D03*
X153357450Y-98168050D03*
X153357450Y-97668050D03*
X153357450Y-97168050D03*
X153357450Y-96668050D03*
X153357450Y-96168050D03*
X153357450Y-95668050D03*
X153357450Y-95168050D03*
X153357450Y-94668050D03*
D25*
X154769950Y-93255550D03*
X155269950Y-93255550D03*
X155769950Y-93255550D03*
X156269950Y-93255550D03*
X156769950Y-93255550D03*
X157269950Y-93255550D03*
X157769950Y-93255550D03*
X158269950Y-93255550D03*
X158769950Y-93255550D03*
X159269950Y-93255550D03*
X159769950Y-93255550D03*
X160269950Y-93255550D03*
D26*
X161682450Y-94668050D03*
X161682450Y-95168050D03*
X161682450Y-95668050D03*
X161682450Y-96168050D03*
X161682450Y-96668050D03*
X161682450Y-97168050D03*
X161682450Y-97668050D03*
X161682450Y-98168050D03*
X161682450Y-98668050D03*
X161682450Y-99168050D03*
X161682450Y-99668050D03*
X161682450Y-100168050D03*
%TD*%
D27*
%TO.C,D6*%
X137188000Y-108868000D03*
X133888000Y-108868000D03*
%TD*%
D28*
%TO.C,D5*%
X128092800Y-87887600D03*
X130892800Y-87887600D03*
%TD*%
D21*
%TO.C,C10*%
X174654000Y-101822000D03*
X174654000Y-103722000D03*
%TD*%
D24*
%TO.C,R5*%
X172368000Y-101859500D03*
X172368000Y-103684500D03*
%TD*%
M02*
