%TF.GenerationSoftware,KiCad,Pcbnew,8.0.1*%
%TF.CreationDate,2024-04-28T15:11:03+02:00*%
%TF.ProjectId,controller_lpc1115_2MU_v1.04,636f6e74-726f-46c6-9c65-725f6c706331,rev?*%
%TF.SameCoordinates,Original*%
%TF.FileFunction,Paste,Top*%
%TF.FilePolarity,Positive*%
%FSLAX46Y46*%
G04 Gerber Fmt 4.6, Leading zero omitted, Abs format (unit mm)*
G04 Created by KiCad (PCBNEW 8.0.1) date 2024-04-28 15:11:03*
%MOMM*%
%LPD*%
G01*
G04 APERTURE LIST*
G04 Aperture macros list*
%AMRoundRect*
0 Rectangle with rounded corners*
0 $1 Rounding radius*
0 $2 $3 $4 $5 $6 $7 $8 $9 X,Y pos of 4 corners*
0 Add a 4 corners polygon primitive as box body*
4,1,4,$2,$3,$4,$5,$6,$7,$8,$9,$2,$3,0*
0 Add four circle primitives for the rounded corners*
1,1,$1+$1,$2,$3*
1,1,$1+$1,$4,$5*
1,1,$1+$1,$6,$7*
1,1,$1+$1,$8,$9*
0 Add four rect primitives between the rounded corners*
20,1,$1+$1,$2,$3,$4,$5,0*
20,1,$1+$1,$4,$5,$6,$7,0*
20,1,$1+$1,$6,$7,$8,$9,0*
20,1,$1+$1,$8,$9,$2,$3,0*%
G04 Aperture macros list end*
%ADD10C,0.150000*%
%ADD11RoundRect,0.250000X0.262500X0.450000X-0.262500X0.450000X-0.262500X-0.450000X0.262500X-0.450000X0*%
%ADD12RoundRect,0.250000X0.450000X-0.262500X0.450000X0.262500X-0.450000X0.262500X-0.450000X-0.262500X0*%
%ADD13RoundRect,0.250000X0.250000X0.475000X-0.250000X0.475000X-0.250000X-0.475000X0.250000X-0.475000X0*%
%ADD14RoundRect,0.150000X0.150000X-0.512500X0.150000X0.512500X-0.150000X0.512500X-0.150000X-0.512500X0*%
%ADD15RoundRect,0.250000X-0.475000X0.250000X-0.475000X-0.250000X0.475000X-0.250000X0.475000X0.250000X0*%
%ADD16RoundRect,0.375000X-0.625000X-0.375000X0.625000X-0.375000X0.625000X0.375000X-0.625000X0.375000X0*%
%ADD17RoundRect,0.500000X-0.500000X-1.400000X0.500000X-1.400000X0.500000X1.400000X-0.500000X1.400000X0*%
%ADD18RoundRect,0.250000X0.475000X-0.250000X0.475000X0.250000X-0.475000X0.250000X-0.475000X-0.250000X0*%
%ADD19RoundRect,0.225000X0.225000X0.375000X-0.225000X0.375000X-0.225000X-0.375000X0.225000X-0.375000X0*%
%ADD20RoundRect,0.250000X-0.450000X0.262500X-0.450000X-0.262500X0.450000X-0.262500X0.450000X0.262500X0*%
%ADD21R,0.900000X1.000000*%
%ADD22RoundRect,0.250000X1.450000X-0.400000X1.450000X0.400000X-1.450000X0.400000X-1.450000X-0.400000X0*%
%ADD23RoundRect,0.250000X-0.400000X-0.600000X0.400000X-0.600000X0.400000X0.600000X-0.400000X0.600000X0*%
%ADD24RoundRect,0.250000X-0.250000X-0.475000X0.250000X-0.475000X0.250000X0.475000X-0.250000X0.475000X0*%
%ADD25RoundRect,0.250000X-0.262500X-0.450000X0.262500X-0.450000X0.262500X0.450000X-0.262500X0.450000X0*%
%ADD26RoundRect,0.150000X0.150000X-0.587500X0.150000X0.587500X-0.150000X0.587500X-0.150000X-0.587500X0*%
G04 APERTURE END LIST*
D10*
X127758819Y-115868220D02*
X126758819Y-115868220D01*
X126758819Y-115868220D02*
X126758819Y-115487268D01*
X126758819Y-115487268D02*
X126806438Y-115392030D01*
X126806438Y-115392030D02*
X126854057Y-115344411D01*
X126854057Y-115344411D02*
X126949295Y-115296792D01*
X126949295Y-115296792D02*
X127092152Y-115296792D01*
X127092152Y-115296792D02*
X127187390Y-115344411D01*
X127187390Y-115344411D02*
X127235009Y-115392030D01*
X127235009Y-115392030D02*
X127282628Y-115487268D01*
X127282628Y-115487268D02*
X127282628Y-115868220D01*
X127758819Y-114439649D02*
X127235009Y-114439649D01*
X127235009Y-114439649D02*
X127139771Y-114487268D01*
X127139771Y-114487268D02*
X127092152Y-114582506D01*
X127092152Y-114582506D02*
X127092152Y-114772982D01*
X127092152Y-114772982D02*
X127139771Y-114868220D01*
X127711200Y-114439649D02*
X127758819Y-114534887D01*
X127758819Y-114534887D02*
X127758819Y-114772982D01*
X127758819Y-114772982D02*
X127711200Y-114868220D01*
X127711200Y-114868220D02*
X127615961Y-114915839D01*
X127615961Y-114915839D02*
X127520723Y-114915839D01*
X127520723Y-114915839D02*
X127425485Y-114868220D01*
X127425485Y-114868220D02*
X127377866Y-114772982D01*
X127377866Y-114772982D02*
X127377866Y-114534887D01*
X127377866Y-114534887D02*
X127330247Y-114439649D01*
X127711200Y-114011077D02*
X127758819Y-113915839D01*
X127758819Y-113915839D02*
X127758819Y-113725363D01*
X127758819Y-113725363D02*
X127711200Y-113630125D01*
X127711200Y-113630125D02*
X127615961Y-113582506D01*
X127615961Y-113582506D02*
X127568342Y-113582506D01*
X127568342Y-113582506D02*
X127473104Y-113630125D01*
X127473104Y-113630125D02*
X127425485Y-113725363D01*
X127425485Y-113725363D02*
X127425485Y-113868220D01*
X127425485Y-113868220D02*
X127377866Y-113963458D01*
X127377866Y-113963458D02*
X127282628Y-114011077D01*
X127282628Y-114011077D02*
X127235009Y-114011077D01*
X127235009Y-114011077D02*
X127139771Y-113963458D01*
X127139771Y-113963458D02*
X127092152Y-113868220D01*
X127092152Y-113868220D02*
X127092152Y-113725363D01*
X127092152Y-113725363D02*
X127139771Y-113630125D01*
X127092152Y-113296791D02*
X127092152Y-112915839D01*
X126758819Y-113153934D02*
X127615961Y-113153934D01*
X127615961Y-113153934D02*
X127711200Y-113106315D01*
X127711200Y-113106315D02*
X127758819Y-113011077D01*
X127758819Y-113011077D02*
X127758819Y-112915839D01*
X127711200Y-112201553D02*
X127758819Y-112296791D01*
X127758819Y-112296791D02*
X127758819Y-112487267D01*
X127758819Y-112487267D02*
X127711200Y-112582505D01*
X127711200Y-112582505D02*
X127615961Y-112630124D01*
X127615961Y-112630124D02*
X127235009Y-112630124D01*
X127235009Y-112630124D02*
X127139771Y-112582505D01*
X127139771Y-112582505D02*
X127092152Y-112487267D01*
X127092152Y-112487267D02*
X127092152Y-112296791D01*
X127092152Y-112296791D02*
X127139771Y-112201553D01*
X127139771Y-112201553D02*
X127235009Y-112153934D01*
X127235009Y-112153934D02*
X127330247Y-112153934D01*
X127330247Y-112153934D02*
X127425485Y-112630124D01*
D11*
%TO.C,R10*%
X180646500Y-93374000D03*
X178821500Y-93374000D03*
%TD*%
D12*
%TO.C,R21*%
X172876000Y-94794500D03*
X172876000Y-92969500D03*
%TD*%
D13*
%TO.C,C8*%
X180684000Y-97946000D03*
X178784000Y-97946000D03*
%TD*%
D14*
%TO.C,U1*%
X127984000Y-95273500D03*
X128934000Y-95273500D03*
X129884000Y-95273500D03*
X129884000Y-92998500D03*
X128934000Y-92998500D03*
X127984000Y-92998500D03*
%TD*%
D15*
%TO.C,C6*%
X155858000Y-96996000D03*
X155858000Y-98896000D03*
%TD*%
D16*
%TO.C,Q1*%
X169726000Y-100472000D03*
X169726000Y-102772000D03*
D17*
X176026000Y-102772000D03*
D16*
X169726000Y-105072000D03*
%TD*%
D18*
%TO.C,C2*%
X159414000Y-107024000D03*
X159414000Y-105124000D03*
%TD*%
D11*
%TO.C,R11*%
X166168500Y-100740000D03*
X164343500Y-100740000D03*
%TD*%
D19*
%TO.C,D3*%
X172240000Y-111408000D03*
X168940000Y-111408000D03*
%TD*%
%TO.C,D2*%
X172240000Y-113948000D03*
X168940000Y-113948000D03*
%TD*%
D18*
%TO.C,C12*%
X131982000Y-94324000D03*
X131982000Y-92424000D03*
%TD*%
D11*
%TO.C,R23*%
X129325625Y-98124750D03*
X127500625Y-98124750D03*
%TD*%
D20*
%TO.C,R7*%
X179861000Y-107447500D03*
X179861000Y-109272500D03*
%TD*%
%TO.C,R12*%
X173130000Y-107447500D03*
X173130000Y-109272500D03*
%TD*%
D21*
%TO.C,X1*%
X153813000Y-105253000D03*
X153813000Y-107403000D03*
X155363000Y-107403000D03*
X155363000Y-105253000D03*
%TD*%
D22*
%TO.C,L1*%
X130051600Y-90112600D03*
X130051600Y-85662600D03*
%TD*%
D23*
%TO.C,D1*%
X177476000Y-90580000D03*
X180976000Y-90580000D03*
%TD*%
D11*
%TO.C,R4*%
X166168500Y-103026000D03*
X164343500Y-103026000D03*
%TD*%
D20*
%TO.C,R8*%
X177575000Y-107447500D03*
X177575000Y-109272500D03*
%TD*%
D24*
%TO.C,C7*%
X127463125Y-105744750D03*
X129363125Y-105744750D03*
%TD*%
D12*
%TO.C,R13*%
X142269000Y-89587500D03*
X142269000Y-87762500D03*
%TD*%
D20*
%TO.C,R3*%
X170336000Y-107447500D03*
X170336000Y-109272500D03*
%TD*%
D25*
%TO.C,R9*%
X178821500Y-100232000D03*
X180646500Y-100232000D03*
%TD*%
D18*
%TO.C,C11*%
X151794000Y-107278000D03*
X151794000Y-105378000D03*
%TD*%
D25*
%TO.C,R22*%
X127500625Y-103204750D03*
X129325625Y-103204750D03*
%TD*%
D26*
%TO.C,Q3*%
X178784000Y-104217500D03*
X180684000Y-104217500D03*
X179734000Y-102342500D03*
%TD*%
D25*
%TO.C,R6*%
X161803500Y-105058000D03*
X163628500Y-105058000D03*
%TD*%
D11*
%TO.C,R17*%
X163628500Y-107090000D03*
X161803500Y-107090000D03*
%TD*%
D13*
%TO.C,C20*%
X179414000Y-86262000D03*
X177514000Y-86262000D03*
%TD*%
D18*
%TO.C,C18*%
X157304050Y-107024000D03*
X157304050Y-105124000D03*
%TD*%
D26*
%TO.C,Q2*%
X165576000Y-107011500D03*
X167476000Y-107011500D03*
X166526000Y-105136500D03*
%TD*%
D18*
%TO.C,C17*%
X126140000Y-94832000D03*
X126140000Y-92932000D03*
%TD*%
%TO.C,C1*%
X175416000Y-109310000D03*
X175416000Y-107410000D03*
%TD*%
D13*
%TO.C,C9*%
X180684000Y-95660000D03*
X178784000Y-95660000D03*
%TD*%
D24*
%TO.C,C16*%
X127463125Y-100664750D03*
X129363125Y-100664750D03*
%TD*%
D25*
%TO.C,R16*%
X177551500Y-88294000D03*
X179376500Y-88294000D03*
%TD*%
M02*
