%TF.GenerationSoftware,KiCad,Pcbnew,8.0.1*%
%TF.CreationDate,2024-04-28T15:11:04+02:00*%
%TF.ProjectId,controller_lpc1115_2MU_v1.04,636f6e74-726f-46c6-9c65-725f6c706331,rev?*%
%TF.SameCoordinates,Original*%
%TF.FileFunction,Legend,Bot*%
%TF.FilePolarity,Positive*%
%FSLAX46Y46*%
G04 Gerber Fmt 4.6, Leading zero omitted, Abs format (unit mm)*
G04 Created by KiCad (PCBNEW 8.0.1) date 2024-04-28 15:11:04*
%MOMM*%
%LPD*%
G01*
G04 APERTURE LIST*
%ADD10C,0.150000*%
%ADD11C,0.120000*%
G04 APERTURE END LIST*
D10*
X161302458Y-114011152D02*
X161111982Y-114677819D01*
X161111982Y-114677819D02*
X160921506Y-114201628D01*
X160921506Y-114201628D02*
X160731030Y-114677819D01*
X160731030Y-114677819D02*
X160540554Y-114011152D01*
X160254839Y-114011152D02*
X160064363Y-114677819D01*
X160064363Y-114677819D02*
X159873887Y-114201628D01*
X159873887Y-114201628D02*
X159683411Y-114677819D01*
X159683411Y-114677819D02*
X159492935Y-114011152D01*
X159207220Y-114011152D02*
X159016744Y-114677819D01*
X159016744Y-114677819D02*
X158826268Y-114201628D01*
X158826268Y-114201628D02*
X158635792Y-114677819D01*
X158635792Y-114677819D02*
X158445316Y-114011152D01*
X158064363Y-114582580D02*
X158016744Y-114630200D01*
X158016744Y-114630200D02*
X158064363Y-114677819D01*
X158064363Y-114677819D02*
X158111982Y-114630200D01*
X158111982Y-114630200D02*
X158064363Y-114582580D01*
X158064363Y-114582580D02*
X158064363Y-114677819D01*
X157635792Y-114630200D02*
X157540554Y-114677819D01*
X157540554Y-114677819D02*
X157350078Y-114677819D01*
X157350078Y-114677819D02*
X157254840Y-114630200D01*
X157254840Y-114630200D02*
X157207221Y-114534961D01*
X157207221Y-114534961D02*
X157207221Y-114487342D01*
X157207221Y-114487342D02*
X157254840Y-114392104D01*
X157254840Y-114392104D02*
X157350078Y-114344485D01*
X157350078Y-114344485D02*
X157492935Y-114344485D01*
X157492935Y-114344485D02*
X157588173Y-114296866D01*
X157588173Y-114296866D02*
X157635792Y-114201628D01*
X157635792Y-114201628D02*
X157635792Y-114154009D01*
X157635792Y-114154009D02*
X157588173Y-114058771D01*
X157588173Y-114058771D02*
X157492935Y-114011152D01*
X157492935Y-114011152D02*
X157350078Y-114011152D01*
X157350078Y-114011152D02*
X157254840Y-114058771D01*
X156397697Y-114630200D02*
X156492935Y-114677819D01*
X156492935Y-114677819D02*
X156683411Y-114677819D01*
X156683411Y-114677819D02*
X156778649Y-114630200D01*
X156778649Y-114630200D02*
X156826268Y-114534961D01*
X156826268Y-114534961D02*
X156826268Y-114154009D01*
X156826268Y-114154009D02*
X156778649Y-114058771D01*
X156778649Y-114058771D02*
X156683411Y-114011152D01*
X156683411Y-114011152D02*
X156492935Y-114011152D01*
X156492935Y-114011152D02*
X156397697Y-114058771D01*
X156397697Y-114058771D02*
X156350078Y-114154009D01*
X156350078Y-114154009D02*
X156350078Y-114249247D01*
X156350078Y-114249247D02*
X156826268Y-114344485D01*
X155778649Y-114677819D02*
X155873887Y-114630200D01*
X155873887Y-114630200D02*
X155921506Y-114534961D01*
X155921506Y-114534961D02*
X155921506Y-113677819D01*
X155540553Y-114011152D02*
X155159601Y-114011152D01*
X155397696Y-114677819D02*
X155397696Y-113820676D01*
X155397696Y-113820676D02*
X155350077Y-113725438D01*
X155350077Y-113725438D02*
X155254839Y-113677819D01*
X155254839Y-113677819D02*
X155159601Y-113677819D01*
X154826267Y-114677819D02*
X154826267Y-113677819D01*
X154826267Y-114058771D02*
X154731029Y-114011152D01*
X154731029Y-114011152D02*
X154540553Y-114011152D01*
X154540553Y-114011152D02*
X154445315Y-114058771D01*
X154445315Y-114058771D02*
X154397696Y-114106390D01*
X154397696Y-114106390D02*
X154350077Y-114201628D01*
X154350077Y-114201628D02*
X154350077Y-114487342D01*
X154350077Y-114487342D02*
X154397696Y-114582580D01*
X154397696Y-114582580D02*
X154445315Y-114630200D01*
X154445315Y-114630200D02*
X154540553Y-114677819D01*
X154540553Y-114677819D02*
X154731029Y-114677819D01*
X154731029Y-114677819D02*
X154826267Y-114630200D01*
X153492934Y-114011152D02*
X153492934Y-114677819D01*
X153921505Y-114011152D02*
X153921505Y-114534961D01*
X153921505Y-114534961D02*
X153873886Y-114630200D01*
X153873886Y-114630200D02*
X153778648Y-114677819D01*
X153778648Y-114677819D02*
X153635791Y-114677819D01*
X153635791Y-114677819D02*
X153540553Y-114630200D01*
X153540553Y-114630200D02*
X153492934Y-114582580D01*
X153064362Y-114630200D02*
X152969124Y-114677819D01*
X152969124Y-114677819D02*
X152778648Y-114677819D01*
X152778648Y-114677819D02*
X152683410Y-114630200D01*
X152683410Y-114630200D02*
X152635791Y-114534961D01*
X152635791Y-114534961D02*
X152635791Y-114487342D01*
X152635791Y-114487342D02*
X152683410Y-114392104D01*
X152683410Y-114392104D02*
X152778648Y-114344485D01*
X152778648Y-114344485D02*
X152921505Y-114344485D01*
X152921505Y-114344485D02*
X153016743Y-114296866D01*
X153016743Y-114296866D02*
X153064362Y-114201628D01*
X153064362Y-114201628D02*
X153064362Y-114154009D01*
X153064362Y-114154009D02*
X153016743Y-114058771D01*
X153016743Y-114058771D02*
X152921505Y-114011152D01*
X152921505Y-114011152D02*
X152778648Y-114011152D01*
X152778648Y-114011152D02*
X152683410Y-114058771D01*
X152207219Y-114582580D02*
X152159600Y-114630200D01*
X152159600Y-114630200D02*
X152207219Y-114677819D01*
X152207219Y-114677819D02*
X152254838Y-114630200D01*
X152254838Y-114630200D02*
X152207219Y-114582580D01*
X152207219Y-114582580D02*
X152207219Y-114677819D01*
X151588172Y-114677819D02*
X151683410Y-114630200D01*
X151683410Y-114630200D02*
X151731029Y-114582580D01*
X151731029Y-114582580D02*
X151778648Y-114487342D01*
X151778648Y-114487342D02*
X151778648Y-114201628D01*
X151778648Y-114201628D02*
X151731029Y-114106390D01*
X151731029Y-114106390D02*
X151683410Y-114058771D01*
X151683410Y-114058771D02*
X151588172Y-114011152D01*
X151588172Y-114011152D02*
X151445315Y-114011152D01*
X151445315Y-114011152D02*
X151350077Y-114058771D01*
X151350077Y-114058771D02*
X151302458Y-114106390D01*
X151302458Y-114106390D02*
X151254839Y-114201628D01*
X151254839Y-114201628D02*
X151254839Y-114487342D01*
X151254839Y-114487342D02*
X151302458Y-114582580D01*
X151302458Y-114582580D02*
X151350077Y-114630200D01*
X151350077Y-114630200D02*
X151445315Y-114677819D01*
X151445315Y-114677819D02*
X151588172Y-114677819D01*
X150826267Y-114677819D02*
X150826267Y-114011152D01*
X150826267Y-114201628D02*
X150778648Y-114106390D01*
X150778648Y-114106390D02*
X150731029Y-114058771D01*
X150731029Y-114058771D02*
X150635791Y-114011152D01*
X150635791Y-114011152D02*
X150540553Y-114011152D01*
X149778648Y-114011152D02*
X149778648Y-114820676D01*
X149778648Y-114820676D02*
X149826267Y-114915914D01*
X149826267Y-114915914D02*
X149873886Y-114963533D01*
X149873886Y-114963533D02*
X149969124Y-115011152D01*
X149969124Y-115011152D02*
X150111981Y-115011152D01*
X150111981Y-115011152D02*
X150207219Y-114963533D01*
X149778648Y-114630200D02*
X149873886Y-114677819D01*
X149873886Y-114677819D02*
X150064362Y-114677819D01*
X150064362Y-114677819D02*
X150159600Y-114630200D01*
X150159600Y-114630200D02*
X150207219Y-114582580D01*
X150207219Y-114582580D02*
X150254838Y-114487342D01*
X150254838Y-114487342D02*
X150254838Y-114201628D01*
X150254838Y-114201628D02*
X150207219Y-114106390D01*
X150207219Y-114106390D02*
X150159600Y-114058771D01*
X150159600Y-114058771D02*
X150064362Y-114011152D01*
X150064362Y-114011152D02*
X149873886Y-114011152D01*
X149873886Y-114011152D02*
X149778648Y-114058771D01*
X132370857Y-98908819D02*
X132704190Y-98432628D01*
X132942285Y-98908819D02*
X132942285Y-97908819D01*
X132942285Y-97908819D02*
X132561333Y-97908819D01*
X132561333Y-97908819D02*
X132466095Y-97956438D01*
X132466095Y-97956438D02*
X132418476Y-98004057D01*
X132418476Y-98004057D02*
X132370857Y-98099295D01*
X132370857Y-98099295D02*
X132370857Y-98242152D01*
X132370857Y-98242152D02*
X132418476Y-98337390D01*
X132418476Y-98337390D02*
X132466095Y-98385009D01*
X132466095Y-98385009D02*
X132561333Y-98432628D01*
X132561333Y-98432628D02*
X132942285Y-98432628D01*
X131989904Y-98004057D02*
X131942285Y-97956438D01*
X131942285Y-97956438D02*
X131847047Y-97908819D01*
X131847047Y-97908819D02*
X131608952Y-97908819D01*
X131608952Y-97908819D02*
X131513714Y-97956438D01*
X131513714Y-97956438D02*
X131466095Y-98004057D01*
X131466095Y-98004057D02*
X131418476Y-98099295D01*
X131418476Y-98099295D02*
X131418476Y-98194533D01*
X131418476Y-98194533D02*
X131466095Y-98337390D01*
X131466095Y-98337390D02*
X132037523Y-98908819D01*
X132037523Y-98908819D02*
X131418476Y-98908819D01*
X130799428Y-97908819D02*
X130704190Y-97908819D01*
X130704190Y-97908819D02*
X130608952Y-97956438D01*
X130608952Y-97956438D02*
X130561333Y-98004057D01*
X130561333Y-98004057D02*
X130513714Y-98099295D01*
X130513714Y-98099295D02*
X130466095Y-98289771D01*
X130466095Y-98289771D02*
X130466095Y-98527866D01*
X130466095Y-98527866D02*
X130513714Y-98718342D01*
X130513714Y-98718342D02*
X130561333Y-98813580D01*
X130561333Y-98813580D02*
X130608952Y-98861200D01*
X130608952Y-98861200D02*
X130704190Y-98908819D01*
X130704190Y-98908819D02*
X130799428Y-98908819D01*
X130799428Y-98908819D02*
X130894666Y-98861200D01*
X130894666Y-98861200D02*
X130942285Y-98813580D01*
X130942285Y-98813580D02*
X130989904Y-98718342D01*
X130989904Y-98718342D02*
X131037523Y-98527866D01*
X131037523Y-98527866D02*
X131037523Y-98289771D01*
X131037523Y-98289771D02*
X130989904Y-98099295D01*
X130989904Y-98099295D02*
X130942285Y-98004057D01*
X130942285Y-98004057D02*
X130894666Y-97956438D01*
X130894666Y-97956438D02*
X130799428Y-97908819D01*
X151137580Y-102351333D02*
X151185200Y-102303714D01*
X151185200Y-102303714D02*
X151232819Y-102160857D01*
X151232819Y-102160857D02*
X151232819Y-102065619D01*
X151232819Y-102065619D02*
X151185200Y-101922762D01*
X151185200Y-101922762D02*
X151089961Y-101827524D01*
X151089961Y-101827524D02*
X150994723Y-101779905D01*
X150994723Y-101779905D02*
X150804247Y-101732286D01*
X150804247Y-101732286D02*
X150661390Y-101732286D01*
X150661390Y-101732286D02*
X150470914Y-101779905D01*
X150470914Y-101779905D02*
X150375676Y-101827524D01*
X150375676Y-101827524D02*
X150280438Y-101922762D01*
X150280438Y-101922762D02*
X150232819Y-102065619D01*
X150232819Y-102065619D02*
X150232819Y-102160857D01*
X150232819Y-102160857D02*
X150280438Y-102303714D01*
X150280438Y-102303714D02*
X150328057Y-102351333D01*
X150566152Y-103208476D02*
X151232819Y-103208476D01*
X150185200Y-102970381D02*
X150899485Y-102732286D01*
X150899485Y-102732286D02*
X150899485Y-103351333D01*
X132370857Y-101448819D02*
X132704190Y-100972628D01*
X132942285Y-101448819D02*
X132942285Y-100448819D01*
X132942285Y-100448819D02*
X132561333Y-100448819D01*
X132561333Y-100448819D02*
X132466095Y-100496438D01*
X132466095Y-100496438D02*
X132418476Y-100544057D01*
X132418476Y-100544057D02*
X132370857Y-100639295D01*
X132370857Y-100639295D02*
X132370857Y-100782152D01*
X132370857Y-100782152D02*
X132418476Y-100877390D01*
X132418476Y-100877390D02*
X132466095Y-100925009D01*
X132466095Y-100925009D02*
X132561333Y-100972628D01*
X132561333Y-100972628D02*
X132942285Y-100972628D01*
X131418476Y-101448819D02*
X131989904Y-101448819D01*
X131704190Y-101448819D02*
X131704190Y-100448819D01*
X131704190Y-100448819D02*
X131799428Y-100591676D01*
X131799428Y-100591676D02*
X131894666Y-100686914D01*
X131894666Y-100686914D02*
X131989904Y-100734533D01*
X130942285Y-101448819D02*
X130751809Y-101448819D01*
X130751809Y-101448819D02*
X130656571Y-101401200D01*
X130656571Y-101401200D02*
X130608952Y-101353580D01*
X130608952Y-101353580D02*
X130513714Y-101210723D01*
X130513714Y-101210723D02*
X130466095Y-101020247D01*
X130466095Y-101020247D02*
X130466095Y-100639295D01*
X130466095Y-100639295D02*
X130513714Y-100544057D01*
X130513714Y-100544057D02*
X130561333Y-100496438D01*
X130561333Y-100496438D02*
X130656571Y-100448819D01*
X130656571Y-100448819D02*
X130847047Y-100448819D01*
X130847047Y-100448819D02*
X130942285Y-100496438D01*
X130942285Y-100496438D02*
X130989904Y-100544057D01*
X130989904Y-100544057D02*
X131037523Y-100639295D01*
X131037523Y-100639295D02*
X131037523Y-100877390D01*
X131037523Y-100877390D02*
X130989904Y-100972628D01*
X130989904Y-100972628D02*
X130942285Y-101020247D01*
X130942285Y-101020247D02*
X130847047Y-101067866D01*
X130847047Y-101067866D02*
X130656571Y-101067866D01*
X130656571Y-101067866D02*
X130561333Y-101020247D01*
X130561333Y-101020247D02*
X130513714Y-100972628D01*
X130513714Y-100972628D02*
X130466095Y-100877390D01*
X142340285Y-107290819D02*
X142340285Y-106290819D01*
X142340285Y-106290819D02*
X142102190Y-106290819D01*
X142102190Y-106290819D02*
X141959333Y-106338438D01*
X141959333Y-106338438D02*
X141864095Y-106433676D01*
X141864095Y-106433676D02*
X141816476Y-106528914D01*
X141816476Y-106528914D02*
X141768857Y-106719390D01*
X141768857Y-106719390D02*
X141768857Y-106862247D01*
X141768857Y-106862247D02*
X141816476Y-107052723D01*
X141816476Y-107052723D02*
X141864095Y-107147961D01*
X141864095Y-107147961D02*
X141959333Y-107243200D01*
X141959333Y-107243200D02*
X142102190Y-107290819D01*
X142102190Y-107290819D02*
X142340285Y-107290819D01*
X140816476Y-107290819D02*
X141387904Y-107290819D01*
X141102190Y-107290819D02*
X141102190Y-106290819D01*
X141102190Y-106290819D02*
X141197428Y-106433676D01*
X141197428Y-106433676D02*
X141292666Y-106528914D01*
X141292666Y-106528914D02*
X141387904Y-106576533D01*
X140197428Y-106290819D02*
X140102190Y-106290819D01*
X140102190Y-106290819D02*
X140006952Y-106338438D01*
X140006952Y-106338438D02*
X139959333Y-106386057D01*
X139959333Y-106386057D02*
X139911714Y-106481295D01*
X139911714Y-106481295D02*
X139864095Y-106671771D01*
X139864095Y-106671771D02*
X139864095Y-106909866D01*
X139864095Y-106909866D02*
X139911714Y-107100342D01*
X139911714Y-107100342D02*
X139959333Y-107195580D01*
X139959333Y-107195580D02*
X140006952Y-107243200D01*
X140006952Y-107243200D02*
X140102190Y-107290819D01*
X140102190Y-107290819D02*
X140197428Y-107290819D01*
X140197428Y-107290819D02*
X140292666Y-107243200D01*
X140292666Y-107243200D02*
X140340285Y-107195580D01*
X140340285Y-107195580D02*
X140387904Y-107100342D01*
X140387904Y-107100342D02*
X140435523Y-106909866D01*
X140435523Y-106909866D02*
X140435523Y-106671771D01*
X140435523Y-106671771D02*
X140387904Y-106481295D01*
X140387904Y-106481295D02*
X140340285Y-106386057D01*
X140340285Y-106386057D02*
X140292666Y-106338438D01*
X140292666Y-106338438D02*
X140197428Y-106290819D01*
X134402857Y-89923580D02*
X134450476Y-89971200D01*
X134450476Y-89971200D02*
X134593333Y-90018819D01*
X134593333Y-90018819D02*
X134688571Y-90018819D01*
X134688571Y-90018819D02*
X134831428Y-89971200D01*
X134831428Y-89971200D02*
X134926666Y-89875961D01*
X134926666Y-89875961D02*
X134974285Y-89780723D01*
X134974285Y-89780723D02*
X135021904Y-89590247D01*
X135021904Y-89590247D02*
X135021904Y-89447390D01*
X135021904Y-89447390D02*
X134974285Y-89256914D01*
X134974285Y-89256914D02*
X134926666Y-89161676D01*
X134926666Y-89161676D02*
X134831428Y-89066438D01*
X134831428Y-89066438D02*
X134688571Y-89018819D01*
X134688571Y-89018819D02*
X134593333Y-89018819D01*
X134593333Y-89018819D02*
X134450476Y-89066438D01*
X134450476Y-89066438D02*
X134402857Y-89114057D01*
X133450476Y-90018819D02*
X134021904Y-90018819D01*
X133736190Y-90018819D02*
X133736190Y-89018819D01*
X133736190Y-89018819D02*
X133831428Y-89161676D01*
X133831428Y-89161676D02*
X133926666Y-89256914D01*
X133926666Y-89256914D02*
X134021904Y-89304533D01*
X132545714Y-89018819D02*
X133021904Y-89018819D01*
X133021904Y-89018819D02*
X133069523Y-89495009D01*
X133069523Y-89495009D02*
X133021904Y-89447390D01*
X133021904Y-89447390D02*
X132926666Y-89399771D01*
X132926666Y-89399771D02*
X132688571Y-89399771D01*
X132688571Y-89399771D02*
X132593333Y-89447390D01*
X132593333Y-89447390D02*
X132545714Y-89495009D01*
X132545714Y-89495009D02*
X132498095Y-89590247D01*
X132498095Y-89590247D02*
X132498095Y-89828342D01*
X132498095Y-89828342D02*
X132545714Y-89923580D01*
X132545714Y-89923580D02*
X132593333Y-89971200D01*
X132593333Y-89971200D02*
X132688571Y-90018819D01*
X132688571Y-90018819D02*
X132926666Y-90018819D01*
X132926666Y-90018819D02*
X133021904Y-89971200D01*
X133021904Y-89971200D02*
X133069523Y-89923580D01*
X148184819Y-91207142D02*
X147708628Y-90873809D01*
X148184819Y-90635714D02*
X147184819Y-90635714D01*
X147184819Y-90635714D02*
X147184819Y-91016666D01*
X147184819Y-91016666D02*
X147232438Y-91111904D01*
X147232438Y-91111904D02*
X147280057Y-91159523D01*
X147280057Y-91159523D02*
X147375295Y-91207142D01*
X147375295Y-91207142D02*
X147518152Y-91207142D01*
X147518152Y-91207142D02*
X147613390Y-91159523D01*
X147613390Y-91159523D02*
X147661009Y-91111904D01*
X147661009Y-91111904D02*
X147708628Y-91016666D01*
X147708628Y-91016666D02*
X147708628Y-90635714D01*
X148184819Y-92159523D02*
X148184819Y-91588095D01*
X148184819Y-91873809D02*
X147184819Y-91873809D01*
X147184819Y-91873809D02*
X147327676Y-91778571D01*
X147327676Y-91778571D02*
X147422914Y-91683333D01*
X147422914Y-91683333D02*
X147470533Y-91588095D01*
X147518152Y-93016666D02*
X148184819Y-93016666D01*
X147137200Y-92778571D02*
X147851485Y-92540476D01*
X147851485Y-92540476D02*
X147851485Y-93159523D01*
X131640666Y-93320819D02*
X131973999Y-92844628D01*
X132212094Y-93320819D02*
X132212094Y-92320819D01*
X132212094Y-92320819D02*
X131831142Y-92320819D01*
X131831142Y-92320819D02*
X131735904Y-92368438D01*
X131735904Y-92368438D02*
X131688285Y-92416057D01*
X131688285Y-92416057D02*
X131640666Y-92511295D01*
X131640666Y-92511295D02*
X131640666Y-92654152D01*
X131640666Y-92654152D02*
X131688285Y-92749390D01*
X131688285Y-92749390D02*
X131735904Y-92797009D01*
X131735904Y-92797009D02*
X131831142Y-92844628D01*
X131831142Y-92844628D02*
X132212094Y-92844628D01*
X131259713Y-92416057D02*
X131212094Y-92368438D01*
X131212094Y-92368438D02*
X131116856Y-92320819D01*
X131116856Y-92320819D02*
X130878761Y-92320819D01*
X130878761Y-92320819D02*
X130783523Y-92368438D01*
X130783523Y-92368438D02*
X130735904Y-92416057D01*
X130735904Y-92416057D02*
X130688285Y-92511295D01*
X130688285Y-92511295D02*
X130688285Y-92606533D01*
X130688285Y-92606533D02*
X130735904Y-92749390D01*
X130735904Y-92749390D02*
X131307332Y-93320819D01*
X131307332Y-93320819D02*
X130688285Y-93320819D01*
X156246857Y-104496819D02*
X156580190Y-104020628D01*
X156818285Y-104496819D02*
X156818285Y-103496819D01*
X156818285Y-103496819D02*
X156437333Y-103496819D01*
X156437333Y-103496819D02*
X156342095Y-103544438D01*
X156342095Y-103544438D02*
X156294476Y-103592057D01*
X156294476Y-103592057D02*
X156246857Y-103687295D01*
X156246857Y-103687295D02*
X156246857Y-103830152D01*
X156246857Y-103830152D02*
X156294476Y-103925390D01*
X156294476Y-103925390D02*
X156342095Y-103973009D01*
X156342095Y-103973009D02*
X156437333Y-104020628D01*
X156437333Y-104020628D02*
X156818285Y-104020628D01*
X155294476Y-104496819D02*
X155865904Y-104496819D01*
X155580190Y-104496819D02*
X155580190Y-103496819D01*
X155580190Y-103496819D02*
X155675428Y-103639676D01*
X155675428Y-103639676D02*
X155770666Y-103734914D01*
X155770666Y-103734914D02*
X155865904Y-103782533D01*
X154389714Y-103496819D02*
X154865904Y-103496819D01*
X154865904Y-103496819D02*
X154913523Y-103973009D01*
X154913523Y-103973009D02*
X154865904Y-103925390D01*
X154865904Y-103925390D02*
X154770666Y-103877771D01*
X154770666Y-103877771D02*
X154532571Y-103877771D01*
X154532571Y-103877771D02*
X154437333Y-103925390D01*
X154437333Y-103925390D02*
X154389714Y-103973009D01*
X154389714Y-103973009D02*
X154342095Y-104068247D01*
X154342095Y-104068247D02*
X154342095Y-104306342D01*
X154342095Y-104306342D02*
X154389714Y-104401580D01*
X154389714Y-104401580D02*
X154437333Y-104449200D01*
X154437333Y-104449200D02*
X154532571Y-104496819D01*
X154532571Y-104496819D02*
X154770666Y-104496819D01*
X154770666Y-104496819D02*
X154865904Y-104449200D01*
X154865904Y-104449200D02*
X154913523Y-104401580D01*
X177140819Y-98827142D02*
X176664628Y-98493809D01*
X177140819Y-98255714D02*
X176140819Y-98255714D01*
X176140819Y-98255714D02*
X176140819Y-98636666D01*
X176140819Y-98636666D02*
X176188438Y-98731904D01*
X176188438Y-98731904D02*
X176236057Y-98779523D01*
X176236057Y-98779523D02*
X176331295Y-98827142D01*
X176331295Y-98827142D02*
X176474152Y-98827142D01*
X176474152Y-98827142D02*
X176569390Y-98779523D01*
X176569390Y-98779523D02*
X176617009Y-98731904D01*
X176617009Y-98731904D02*
X176664628Y-98636666D01*
X176664628Y-98636666D02*
X176664628Y-98255714D01*
X177140819Y-99779523D02*
X177140819Y-99208095D01*
X177140819Y-99493809D02*
X176140819Y-99493809D01*
X176140819Y-99493809D02*
X176283676Y-99398571D01*
X176283676Y-99398571D02*
X176378914Y-99303333D01*
X176378914Y-99303333D02*
X176426533Y-99208095D01*
X176569390Y-100350952D02*
X176521771Y-100255714D01*
X176521771Y-100255714D02*
X176474152Y-100208095D01*
X176474152Y-100208095D02*
X176378914Y-100160476D01*
X176378914Y-100160476D02*
X176331295Y-100160476D01*
X176331295Y-100160476D02*
X176236057Y-100208095D01*
X176236057Y-100208095D02*
X176188438Y-100255714D01*
X176188438Y-100255714D02*
X176140819Y-100350952D01*
X176140819Y-100350952D02*
X176140819Y-100541428D01*
X176140819Y-100541428D02*
X176188438Y-100636666D01*
X176188438Y-100636666D02*
X176236057Y-100684285D01*
X176236057Y-100684285D02*
X176331295Y-100731904D01*
X176331295Y-100731904D02*
X176378914Y-100731904D01*
X176378914Y-100731904D02*
X176474152Y-100684285D01*
X176474152Y-100684285D02*
X176521771Y-100636666D01*
X176521771Y-100636666D02*
X176569390Y-100541428D01*
X176569390Y-100541428D02*
X176569390Y-100350952D01*
X176569390Y-100350952D02*
X176617009Y-100255714D01*
X176617009Y-100255714D02*
X176664628Y-100208095D01*
X176664628Y-100208095D02*
X176759866Y-100160476D01*
X176759866Y-100160476D02*
X176950342Y-100160476D01*
X176950342Y-100160476D02*
X177045580Y-100208095D01*
X177045580Y-100208095D02*
X177093200Y-100255714D01*
X177093200Y-100255714D02*
X177140819Y-100350952D01*
X177140819Y-100350952D02*
X177140819Y-100541428D01*
X177140819Y-100541428D02*
X177093200Y-100636666D01*
X177093200Y-100636666D02*
X177045580Y-100684285D01*
X177045580Y-100684285D02*
X176950342Y-100731904D01*
X176950342Y-100731904D02*
X176759866Y-100731904D01*
X176759866Y-100731904D02*
X176664628Y-100684285D01*
X176664628Y-100684285D02*
X176617009Y-100636666D01*
X176617009Y-100636666D02*
X176569390Y-100541428D01*
X131640666Y-95606819D02*
X131973999Y-95130628D01*
X132212094Y-95606819D02*
X132212094Y-94606819D01*
X132212094Y-94606819D02*
X131831142Y-94606819D01*
X131831142Y-94606819D02*
X131735904Y-94654438D01*
X131735904Y-94654438D02*
X131688285Y-94702057D01*
X131688285Y-94702057D02*
X131640666Y-94797295D01*
X131640666Y-94797295D02*
X131640666Y-94940152D01*
X131640666Y-94940152D02*
X131688285Y-95035390D01*
X131688285Y-95035390D02*
X131735904Y-95083009D01*
X131735904Y-95083009D02*
X131831142Y-95130628D01*
X131831142Y-95130628D02*
X132212094Y-95130628D01*
X130688285Y-95606819D02*
X131259713Y-95606819D01*
X130973999Y-95606819D02*
X130973999Y-94606819D01*
X130973999Y-94606819D02*
X131069237Y-94749676D01*
X131069237Y-94749676D02*
X131164475Y-94844914D01*
X131164475Y-94844914D02*
X131259713Y-94892533D01*
X163932819Y-96461810D02*
X162932819Y-96461810D01*
X163837580Y-97509428D02*
X163885200Y-97461809D01*
X163885200Y-97461809D02*
X163932819Y-97318952D01*
X163932819Y-97318952D02*
X163932819Y-97223714D01*
X163932819Y-97223714D02*
X163885200Y-97080857D01*
X163885200Y-97080857D02*
X163789961Y-96985619D01*
X163789961Y-96985619D02*
X163694723Y-96938000D01*
X163694723Y-96938000D02*
X163504247Y-96890381D01*
X163504247Y-96890381D02*
X163361390Y-96890381D01*
X163361390Y-96890381D02*
X163170914Y-96938000D01*
X163170914Y-96938000D02*
X163075676Y-96985619D01*
X163075676Y-96985619D02*
X162980438Y-97080857D01*
X162980438Y-97080857D02*
X162932819Y-97223714D01*
X162932819Y-97223714D02*
X162932819Y-97318952D01*
X162932819Y-97318952D02*
X162980438Y-97461809D01*
X162980438Y-97461809D02*
X163028057Y-97509428D01*
X163932819Y-98461809D02*
X163932819Y-97890381D01*
X163932819Y-98176095D02*
X162932819Y-98176095D01*
X162932819Y-98176095D02*
X163075676Y-98080857D01*
X163075676Y-98080857D02*
X163170914Y-97985619D01*
X163170914Y-97985619D02*
X163218533Y-97890381D01*
X136276094Y-107322819D02*
X136276094Y-106322819D01*
X136276094Y-106322819D02*
X136037999Y-106322819D01*
X136037999Y-106322819D02*
X135895142Y-106370438D01*
X135895142Y-106370438D02*
X135799904Y-106465676D01*
X135799904Y-106465676D02*
X135752285Y-106560914D01*
X135752285Y-106560914D02*
X135704666Y-106751390D01*
X135704666Y-106751390D02*
X135704666Y-106894247D01*
X135704666Y-106894247D02*
X135752285Y-107084723D01*
X135752285Y-107084723D02*
X135799904Y-107179961D01*
X135799904Y-107179961D02*
X135895142Y-107275200D01*
X135895142Y-107275200D02*
X136037999Y-107322819D01*
X136037999Y-107322819D02*
X136276094Y-107322819D01*
X134847523Y-106322819D02*
X135037999Y-106322819D01*
X135037999Y-106322819D02*
X135133237Y-106370438D01*
X135133237Y-106370438D02*
X135180856Y-106418057D01*
X135180856Y-106418057D02*
X135276094Y-106560914D01*
X135276094Y-106560914D02*
X135323713Y-106751390D01*
X135323713Y-106751390D02*
X135323713Y-107132342D01*
X135323713Y-107132342D02*
X135276094Y-107227580D01*
X135276094Y-107227580D02*
X135228475Y-107275200D01*
X135228475Y-107275200D02*
X135133237Y-107322819D01*
X135133237Y-107322819D02*
X134942761Y-107322819D01*
X134942761Y-107322819D02*
X134847523Y-107275200D01*
X134847523Y-107275200D02*
X134799904Y-107227580D01*
X134799904Y-107227580D02*
X134752285Y-107132342D01*
X134752285Y-107132342D02*
X134752285Y-106894247D01*
X134752285Y-106894247D02*
X134799904Y-106799009D01*
X134799904Y-106799009D02*
X134847523Y-106751390D01*
X134847523Y-106751390D02*
X134942761Y-106703771D01*
X134942761Y-106703771D02*
X135133237Y-106703771D01*
X135133237Y-106703771D02*
X135228475Y-106751390D01*
X135228475Y-106751390D02*
X135276094Y-106799009D01*
X135276094Y-106799009D02*
X135323713Y-106894247D01*
X130180094Y-90272819D02*
X130180094Y-89272819D01*
X130180094Y-89272819D02*
X129941999Y-89272819D01*
X129941999Y-89272819D02*
X129799142Y-89320438D01*
X129799142Y-89320438D02*
X129703904Y-89415676D01*
X129703904Y-89415676D02*
X129656285Y-89510914D01*
X129656285Y-89510914D02*
X129608666Y-89701390D01*
X129608666Y-89701390D02*
X129608666Y-89844247D01*
X129608666Y-89844247D02*
X129656285Y-90034723D01*
X129656285Y-90034723D02*
X129703904Y-90129961D01*
X129703904Y-90129961D02*
X129799142Y-90225200D01*
X129799142Y-90225200D02*
X129941999Y-90272819D01*
X129941999Y-90272819D02*
X130180094Y-90272819D01*
X128703904Y-89272819D02*
X129180094Y-89272819D01*
X129180094Y-89272819D02*
X129227713Y-89749009D01*
X129227713Y-89749009D02*
X129180094Y-89701390D01*
X129180094Y-89701390D02*
X129084856Y-89653771D01*
X129084856Y-89653771D02*
X128846761Y-89653771D01*
X128846761Y-89653771D02*
X128751523Y-89701390D01*
X128751523Y-89701390D02*
X128703904Y-89749009D01*
X128703904Y-89749009D02*
X128656285Y-89844247D01*
X128656285Y-89844247D02*
X128656285Y-90082342D01*
X128656285Y-90082342D02*
X128703904Y-90177580D01*
X128703904Y-90177580D02*
X128751523Y-90225200D01*
X128751523Y-90225200D02*
X128846761Y-90272819D01*
X128846761Y-90272819D02*
X129084856Y-90272819D01*
X129084856Y-90272819D02*
X129180094Y-90225200D01*
X129180094Y-90225200D02*
X129227713Y-90177580D01*
X175013580Y-98827142D02*
X175061200Y-98779523D01*
X175061200Y-98779523D02*
X175108819Y-98636666D01*
X175108819Y-98636666D02*
X175108819Y-98541428D01*
X175108819Y-98541428D02*
X175061200Y-98398571D01*
X175061200Y-98398571D02*
X174965961Y-98303333D01*
X174965961Y-98303333D02*
X174870723Y-98255714D01*
X174870723Y-98255714D02*
X174680247Y-98208095D01*
X174680247Y-98208095D02*
X174537390Y-98208095D01*
X174537390Y-98208095D02*
X174346914Y-98255714D01*
X174346914Y-98255714D02*
X174251676Y-98303333D01*
X174251676Y-98303333D02*
X174156438Y-98398571D01*
X174156438Y-98398571D02*
X174108819Y-98541428D01*
X174108819Y-98541428D02*
X174108819Y-98636666D01*
X174108819Y-98636666D02*
X174156438Y-98779523D01*
X174156438Y-98779523D02*
X174204057Y-98827142D01*
X175108819Y-99779523D02*
X175108819Y-99208095D01*
X175108819Y-99493809D02*
X174108819Y-99493809D01*
X174108819Y-99493809D02*
X174251676Y-99398571D01*
X174251676Y-99398571D02*
X174346914Y-99303333D01*
X174346914Y-99303333D02*
X174394533Y-99208095D01*
X174108819Y-100398571D02*
X174108819Y-100493809D01*
X174108819Y-100493809D02*
X174156438Y-100589047D01*
X174156438Y-100589047D02*
X174204057Y-100636666D01*
X174204057Y-100636666D02*
X174299295Y-100684285D01*
X174299295Y-100684285D02*
X174489771Y-100731904D01*
X174489771Y-100731904D02*
X174727866Y-100731904D01*
X174727866Y-100731904D02*
X174918342Y-100684285D01*
X174918342Y-100684285D02*
X175013580Y-100636666D01*
X175013580Y-100636666D02*
X175061200Y-100589047D01*
X175061200Y-100589047D02*
X175108819Y-100493809D01*
X175108819Y-100493809D02*
X175108819Y-100398571D01*
X175108819Y-100398571D02*
X175061200Y-100303333D01*
X175061200Y-100303333D02*
X175013580Y-100255714D01*
X175013580Y-100255714D02*
X174918342Y-100208095D01*
X174918342Y-100208095D02*
X174727866Y-100160476D01*
X174727866Y-100160476D02*
X174489771Y-100160476D01*
X174489771Y-100160476D02*
X174299295Y-100208095D01*
X174299295Y-100208095D02*
X174204057Y-100255714D01*
X174204057Y-100255714D02*
X174156438Y-100303333D01*
X174156438Y-100303333D02*
X174108819Y-100398571D01*
X172822819Y-99811333D02*
X172346628Y-99478000D01*
X172822819Y-99239905D02*
X171822819Y-99239905D01*
X171822819Y-99239905D02*
X171822819Y-99620857D01*
X171822819Y-99620857D02*
X171870438Y-99716095D01*
X171870438Y-99716095D02*
X171918057Y-99763714D01*
X171918057Y-99763714D02*
X172013295Y-99811333D01*
X172013295Y-99811333D02*
X172156152Y-99811333D01*
X172156152Y-99811333D02*
X172251390Y-99763714D01*
X172251390Y-99763714D02*
X172299009Y-99716095D01*
X172299009Y-99716095D02*
X172346628Y-99620857D01*
X172346628Y-99620857D02*
X172346628Y-99239905D01*
X171822819Y-100716095D02*
X171822819Y-100239905D01*
X171822819Y-100239905D02*
X172299009Y-100192286D01*
X172299009Y-100192286D02*
X172251390Y-100239905D01*
X172251390Y-100239905D02*
X172203771Y-100335143D01*
X172203771Y-100335143D02*
X172203771Y-100573238D01*
X172203771Y-100573238D02*
X172251390Y-100668476D01*
X172251390Y-100668476D02*
X172299009Y-100716095D01*
X172299009Y-100716095D02*
X172394247Y-100763714D01*
X172394247Y-100763714D02*
X172632342Y-100763714D01*
X172632342Y-100763714D02*
X172727580Y-100716095D01*
X172727580Y-100716095D02*
X172775200Y-100668476D01*
X172775200Y-100668476D02*
X172822819Y-100573238D01*
X172822819Y-100573238D02*
X172822819Y-100335143D01*
X172822819Y-100335143D02*
X172775200Y-100239905D01*
X172775200Y-100239905D02*
X172727580Y-100192286D01*
D11*
%TO.C,R20*%
X128653064Y-97719000D02*
X128198936Y-97719000D01*
X128653064Y-99189000D02*
X128198936Y-99189000D01*
%TO.C,C4*%
X153291000Y-102779252D02*
X153291000Y-102256748D01*
X151821000Y-102779252D02*
X151821000Y-102256748D01*
%TO.C,R19*%
X128198936Y-100259000D02*
X128653064Y-100259000D01*
X128198936Y-101729000D02*
X128653064Y-101729000D01*
%TO.C,D10*%
X142876000Y-107758000D02*
X138466000Y-107758000D01*
X138466000Y-107758000D02*
X138466000Y-109978000D01*
X138466000Y-109978000D02*
X142876000Y-109978000D01*
%TO.C,C15*%
X134495000Y-87285252D02*
X134495000Y-86762748D01*
X133025000Y-87285252D02*
X133025000Y-86762748D01*
%TO.C,R14*%
X145417064Y-91115000D02*
X144962936Y-91115000D01*
X145417064Y-92585000D02*
X144962936Y-92585000D01*
%TO.C,R2*%
X128653064Y-92131000D02*
X128198936Y-92131000D01*
X128653064Y-93601000D02*
X128198936Y-93601000D01*
%TO.C,R15*%
X155376936Y-105085000D02*
X155831064Y-105085000D01*
X155376936Y-106555000D02*
X155831064Y-106555000D01*
%TO.C,R18*%
X177421000Y-102999064D02*
X177421000Y-102544936D01*
X175951000Y-102999064D02*
X175951000Y-102544936D01*
%TO.C,R1*%
X128198936Y-94417000D02*
X128653064Y-94417000D01*
X128198936Y-95887000D02*
X128653064Y-95887000D01*
%TO.C,IC1*%
X161129950Y-93808050D02*
X161129950Y-94258050D01*
X160679950Y-93808050D02*
X161129950Y-93808050D01*
X154359950Y-93808050D02*
X153909950Y-93808050D01*
X153909950Y-93808050D02*
X153909950Y-94258050D01*
X161129950Y-101028050D02*
X161129950Y-100578050D01*
X160679950Y-101028050D02*
X161129950Y-101028050D01*
X154359950Y-101028050D02*
X153909950Y-101028050D01*
X153909950Y-101028050D02*
X153909950Y-100578050D01*
X161149950Y-101958050D02*
X160679950Y-101618050D01*
X161149950Y-101278050D01*
X161149950Y-101958050D01*
G36*
X161149950Y-101958050D02*
G01*
X160679950Y-101618050D01*
X161149950Y-101278050D01*
X161149950Y-101958050D01*
G37*
%TO.C,D6*%
X133888000Y-107868000D02*
X137898000Y-107868000D01*
X137898000Y-109868000D02*
X137898000Y-107868000D01*
X133888000Y-109868000D02*
X137898000Y-109868000D01*
%TO.C,D5*%
X131142800Y-86887600D02*
X127282800Y-86887600D01*
X127282800Y-86887600D02*
X127282800Y-88887600D01*
X131142800Y-88887600D02*
X127282800Y-88887600D01*
%TO.C,C10*%
X175389000Y-103033252D02*
X175389000Y-102510748D01*
X173919000Y-103033252D02*
X173919000Y-102510748D01*
%TO.C,R5*%
X173103000Y-102999064D02*
X173103000Y-102544936D01*
X171633000Y-102999064D02*
X171633000Y-102544936D01*
%TD*%
M02*
