%TF.GenerationSoftware,KiCad,Pcbnew,8.0.1*%
%TF.CreationDate,2024-04-26T00:23:46+02:00*%
%TF.ProjectId,controller_lpc1115_2MU_v1.04,636f6e74-726f-46c6-9c65-725f6c706331,rev?*%
%TF.SameCoordinates,Original*%
%TF.FileFunction,Plated,1,2,PTH,Drill*%
%TF.FilePolarity,Positive*%
%FSLAX46Y46*%
G04 Gerber Fmt 4.6, Leading zero omitted, Abs format (unit mm)*
G04 Created by KiCad (PCBNEW 8.0.1) date 2024-04-26 00:23:46*
%MOMM*%
%LPD*%
G01*
G04 APERTURE LIST*
%TA.AperFunction,ViaDrill*%
%ADD10C,0.300000*%
%TD*%
%TA.AperFunction,ViaDrill*%
%ADD11C,0.600000*%
%TD*%
%TA.AperFunction,ComponentDrill*%
%ADD12C,0.800000*%
%TD*%
%TA.AperFunction,ComponentDrill*%
%ADD13C,0.900000*%
%TD*%
%TA.AperFunction,ComponentDrill*%
%ADD14C,1.000000*%
%TD*%
%TA.AperFunction,ComponentDrill*%
%ADD15C,1.200000*%
%TD*%
G04 APERTURE END LIST*
D10*
X133096000Y-125984000D03*
X133604000Y-83566000D03*
X134366000Y-78740000D03*
X136086000Y-86096000D03*
X136144000Y-118872000D03*
X136398000Y-78740000D03*
X136906000Y-86106000D03*
X137736000Y-86116000D03*
X138938000Y-117348000D03*
X139446000Y-130556000D03*
X139700000Y-110236000D03*
X140970000Y-106426000D03*
X141224000Y-129286000D03*
X141732000Y-96520000D03*
X141986000Y-111252000D03*
X142494000Y-122174000D03*
X142645050Y-99314000D03*
X142868500Y-108712000D03*
X143253144Y-104902000D03*
X143565081Y-109539419D03*
X143764000Y-77724000D03*
X144015144Y-105156000D03*
X144526000Y-108966000D03*
X144780000Y-96774000D03*
X144780000Y-101642800D03*
X144780000Y-107950000D03*
X144780000Y-112522000D03*
X144780000Y-128270000D03*
X145288000Y-105156000D03*
X145555024Y-101105024D03*
X145796000Y-96774000D03*
X146050000Y-101600000D03*
X146558000Y-85852000D03*
X146812000Y-127254000D03*
X147066000Y-108458000D03*
X148082000Y-85598000D03*
X148336000Y-100076000D03*
X148336000Y-101600000D03*
X148518300Y-103994050D03*
X148590000Y-83566000D03*
X148678300Y-110064050D03*
X148971000Y-97028000D03*
X149098000Y-87376000D03*
X149388775Y-106135225D03*
X149860000Y-98552000D03*
X149860000Y-119380000D03*
X149860000Y-124460000D03*
X150114000Y-131318000D03*
X151165612Y-105134617D03*
X151892000Y-96774000D03*
X152146000Y-101092000D03*
X152195900Y-104344950D03*
X152294500Y-102439950D03*
X152654000Y-94488000D03*
X153162000Y-87376000D03*
X153670000Y-83566000D03*
X153940319Y-96998947D03*
X154178000Y-87884000D03*
X154686000Y-119380000D03*
X154686000Y-124460000D03*
X155481300Y-113071400D03*
X155956000Y-134112000D03*
X156069400Y-115590800D03*
X156210000Y-99568000D03*
X156210000Y-101092000D03*
X157226000Y-115570000D03*
X158496000Y-80264000D03*
X160020000Y-83820000D03*
X161544000Y-102870000D03*
X161798000Y-110490000D03*
X162814000Y-127000000D03*
D11*
X133858000Y-134112000D03*
X134602799Y-99042799D03*
X138096800Y-132381800D03*
D12*
%TO.C,C3*%
X135890000Y-121133113D03*
X135890000Y-123633113D03*
%TO.C,J3*%
X136906000Y-89916000D03*
X136906000Y-91916000D03*
X138906000Y-89916000D03*
X138906000Y-91916000D03*
X140906000Y-89916000D03*
X140906000Y-91916000D03*
X142906000Y-89916000D03*
X142906000Y-91916000D03*
X144906000Y-89916000D03*
X144906000Y-91916000D03*
%TO.C,C5*%
X148646000Y-112522000D03*
X152146000Y-112522000D03*
D13*
%TO.C,D4*%
X142245000Y-114554000D03*
X144785000Y-114554000D03*
D14*
%TO.C,J2*%
X136906000Y-96520000D03*
X136906000Y-99060000D03*
X136906000Y-101600000D03*
X136906000Y-104140000D03*
X136906000Y-106680000D03*
X136906000Y-109220000D03*
X136906000Y-111760000D03*
X136906000Y-114300000D03*
%TO.C,SW1*%
X140244000Y-118924000D03*
X140244000Y-125424000D03*
X144744000Y-118924000D03*
X144744000Y-125424000D03*
%TO.C,J1*%
X159512000Y-93990000D03*
X159512000Y-96530000D03*
X159512000Y-99070000D03*
X159512000Y-101610000D03*
X159512000Y-104150000D03*
X159512000Y-106690000D03*
X159512000Y-109230000D03*
X159512000Y-111770000D03*
X159512000Y-114310000D03*
D15*
%TO.C,L2*%
X161798000Y-119166000D03*
X161798000Y-124166000D03*
M02*
