%TF.GenerationSoftware,KiCad,Pcbnew,8.0.1*%
%TF.CreationDate,2024-04-13T01:21:34+02:00*%
%TF.ProjectId,controller_lpc1115_2MU_v1.04,636f6e74-726f-46c6-9c65-725f6c706331,rev?*%
%TF.SameCoordinates,Original*%
%TF.FileFunction,Drillmap*%
%TF.FilePolarity,Positive*%
%FSLAX45Y45*%
G04 Gerber Fmt 4.5, Leading zero omitted, Abs format (unit mm)*
G04 Created by KiCad (PCBNEW 8.0.1) date 2024-04-13 01:21:34*
%MOMM*%
%LPD*%
G01*
G04 APERTURE LIST*
%ADD10C,0.050000*%
%ADD11C,0.200000*%
%ADD12C,0.100000*%
%ADD13C,0.120000*%
G04 APERTURE END LIST*
D10*
X16453810Y-7714145D02*
X13253810Y-7714145D01*
X16453810Y-13524395D02*
X16453810Y-7714145D01*
X13253810Y-13524395D02*
X16453810Y-13524395D01*
X13253810Y-7714145D02*
X13253810Y-13524395D01*
D11*
D12*
X13294600Y-12583400D02*
X13324600Y-12613400D01*
X13324600Y-12583400D02*
X13294600Y-12613400D01*
X13345400Y-8341600D02*
X13375400Y-8371600D01*
X13375400Y-8341600D02*
X13345400Y-8371600D01*
X13421600Y-7859000D02*
X13451600Y-7889000D01*
X13451600Y-7859000D02*
X13421600Y-7889000D01*
X13599400Y-11872200D02*
X13629400Y-11902200D01*
X13629400Y-11872200D02*
X13599400Y-11902200D01*
X13624800Y-7859000D02*
X13654800Y-7889000D01*
X13654800Y-7859000D02*
X13624800Y-7889000D01*
X13689610Y-8672975D02*
X13719610Y-8702975D01*
X13719610Y-8672975D02*
X13689610Y-8702975D01*
X13771610Y-8673975D02*
X13801610Y-8703975D01*
X13801610Y-8673975D02*
X13771610Y-8703975D01*
X13854610Y-8674975D02*
X13884610Y-8704975D01*
X13884610Y-8674975D02*
X13854610Y-8704975D01*
X13878800Y-11719800D02*
X13908800Y-11749800D01*
X13908800Y-11719800D02*
X13878800Y-11749800D01*
X13929600Y-13040600D02*
X13959600Y-13070600D01*
X13959600Y-13040600D02*
X13929600Y-13070600D01*
X13955000Y-11008600D02*
X13985000Y-11038600D01*
X13985000Y-11008600D02*
X13955000Y-11038600D01*
X14082000Y-10627600D02*
X14112000Y-10657600D01*
X14112000Y-10627600D02*
X14082000Y-10657600D01*
X14107400Y-12913600D02*
X14137400Y-12943600D01*
X14137400Y-12913600D02*
X14107400Y-12943600D01*
X14158200Y-9637000D02*
X14188200Y-9667000D01*
X14188200Y-9637000D02*
X14158200Y-9667000D01*
X14183600Y-11110200D02*
X14213600Y-11140200D01*
X14213600Y-11110200D02*
X14183600Y-11140200D01*
X14234400Y-12202400D02*
X14264400Y-12232400D01*
X14264400Y-12202400D02*
X14234400Y-12232400D01*
X14249505Y-9916400D02*
X14279505Y-9946400D01*
X14279505Y-9916400D02*
X14249505Y-9946400D01*
X14271850Y-10856200D02*
X14301850Y-10886200D01*
X14301850Y-10856200D02*
X14271850Y-10886200D01*
X14310314Y-10475200D02*
X14340314Y-10505200D01*
X14340314Y-10475200D02*
X14310314Y-10505200D01*
X14341508Y-10938942D02*
X14371508Y-10968942D01*
X14371508Y-10938942D02*
X14341508Y-10968942D01*
X14361400Y-7757400D02*
X14391400Y-7787400D01*
X14391400Y-7757400D02*
X14361400Y-7787400D01*
X14386514Y-10500600D02*
X14416514Y-10530600D01*
X14416514Y-10500600D02*
X14386514Y-10530600D01*
X14437600Y-10881600D02*
X14467600Y-10911600D01*
X14467600Y-10881600D02*
X14437600Y-10911600D01*
X14463000Y-9662400D02*
X14493000Y-9692400D01*
X14493000Y-9662400D02*
X14463000Y-9692400D01*
X14463000Y-10149280D02*
X14493000Y-10179280D01*
X14493000Y-10149280D02*
X14463000Y-10179280D01*
X14463000Y-10780000D02*
X14493000Y-10810000D01*
X14493000Y-10780000D02*
X14463000Y-10810000D01*
X14463000Y-11237200D02*
X14493000Y-11267200D01*
X14493000Y-11237200D02*
X14463000Y-11267200D01*
X14463000Y-12812000D02*
X14493000Y-12842000D01*
X14493000Y-12812000D02*
X14463000Y-12842000D01*
X14513800Y-10500600D02*
X14543800Y-10530600D01*
X14543800Y-10500600D02*
X14513800Y-10530600D01*
X14540502Y-10095502D02*
X14570502Y-10125502D01*
X14570502Y-10095502D02*
X14540502Y-10125502D01*
X14564600Y-9662400D02*
X14594600Y-9692400D01*
X14594600Y-9662400D02*
X14564600Y-9692400D01*
X14590000Y-10145000D02*
X14620000Y-10175000D01*
X14620000Y-10145000D02*
X14590000Y-10175000D01*
X14640800Y-8570200D02*
X14670800Y-8600200D01*
X14670800Y-8570200D02*
X14640800Y-8600200D01*
X14666200Y-12710400D02*
X14696200Y-12740400D01*
X14696200Y-12710400D02*
X14666200Y-12740400D01*
X14691600Y-10830800D02*
X14721600Y-10860800D01*
X14721600Y-10830800D02*
X14691600Y-10860800D01*
X14793200Y-8544800D02*
X14823200Y-8574800D01*
X14823200Y-8544800D02*
X14793200Y-8574800D01*
X14818600Y-9992600D02*
X14848600Y-10022600D01*
X14848600Y-9992600D02*
X14818600Y-10022600D01*
X14818600Y-10145000D02*
X14848600Y-10175000D01*
X14848600Y-10145000D02*
X14818600Y-10175000D01*
X14836830Y-10384405D02*
X14866830Y-10414405D01*
X14866830Y-10384405D02*
X14836830Y-10414405D01*
X14844000Y-8341600D02*
X14874000Y-8371600D01*
X14874000Y-8341600D02*
X14844000Y-8371600D01*
X14852830Y-10991405D02*
X14882830Y-11021405D01*
X14882830Y-10991405D02*
X14852830Y-11021405D01*
X14882100Y-9687800D02*
X14912100Y-9717800D01*
X14912100Y-9687800D02*
X14882100Y-9717800D01*
X14894800Y-8722600D02*
X14924800Y-8752600D01*
X14924800Y-8722600D02*
X14894800Y-8752600D01*
X14923877Y-10598523D02*
X14953877Y-10628523D01*
X14953877Y-10598523D02*
X14923877Y-10628523D01*
X14971000Y-9840200D02*
X15001000Y-9870200D01*
X15001000Y-9840200D02*
X14971000Y-9870200D01*
X14971000Y-11923000D02*
X15001000Y-11953000D01*
X15001000Y-11923000D02*
X14971000Y-11953000D01*
X14971000Y-12431000D02*
X15001000Y-12461000D01*
X15001000Y-12431000D02*
X14971000Y-12461000D01*
X14996400Y-13116800D02*
X15026400Y-13146800D01*
X15026400Y-13116800D02*
X14996400Y-13146800D01*
X15101561Y-10498462D02*
X15131561Y-10528462D01*
X15131561Y-10498462D02*
X15101561Y-10528462D01*
X15174200Y-9662400D02*
X15204200Y-9692400D01*
X15204200Y-9662400D02*
X15174200Y-9692400D01*
X15199600Y-10094200D02*
X15229600Y-10124200D01*
X15229600Y-10094200D02*
X15199600Y-10124200D01*
X15204590Y-10419495D02*
X15234590Y-10449495D01*
X15234590Y-10419495D02*
X15204590Y-10449495D01*
X15214450Y-10228995D02*
X15244450Y-10258995D01*
X15244450Y-10228995D02*
X15214450Y-10258995D01*
X15250400Y-9433800D02*
X15280400Y-9463800D01*
X15280400Y-9433800D02*
X15250400Y-9463800D01*
X15301200Y-8722600D02*
X15331200Y-8752600D01*
X15331200Y-8722600D02*
X15301200Y-8752600D01*
X15352000Y-8341600D02*
X15382000Y-8371600D01*
X15382000Y-8341600D02*
X15352000Y-8371600D01*
X15379032Y-9684895D02*
X15409032Y-9714895D01*
X15409032Y-9684895D02*
X15379032Y-9714895D01*
X15402800Y-8773400D02*
X15432800Y-8803400D01*
X15432800Y-8773400D02*
X15402800Y-8803400D01*
X15453600Y-11923000D02*
X15483600Y-11953000D01*
X15483600Y-11923000D02*
X15453600Y-11953000D01*
X15453600Y-12431000D02*
X15483600Y-12461000D01*
X15483600Y-12431000D02*
X15453600Y-12461000D01*
X15533130Y-11292140D02*
X15563130Y-11322140D01*
X15563130Y-11292140D02*
X15533130Y-11322140D01*
X15580600Y-13396200D02*
X15610600Y-13426200D01*
X15610600Y-13396200D02*
X15580600Y-13426200D01*
X15591940Y-11544080D02*
X15621940Y-11574080D01*
X15621940Y-11544080D02*
X15591940Y-11574080D01*
X15606000Y-9941800D02*
X15636000Y-9971800D01*
X15636000Y-9941800D02*
X15606000Y-9971800D01*
X15606000Y-10094200D02*
X15636000Y-10124200D01*
X15636000Y-10094200D02*
X15606000Y-10124200D01*
X15707600Y-11542000D02*
X15737600Y-11572000D01*
X15737600Y-11542000D02*
X15707600Y-11572000D01*
X15834600Y-8011400D02*
X15864600Y-8041400D01*
X15864600Y-8011400D02*
X15834600Y-8041400D01*
X15987000Y-8367000D02*
X16017000Y-8397000D01*
X16017000Y-8367000D02*
X15987000Y-8397000D01*
X16139400Y-10272000D02*
X16169400Y-10302000D01*
X16169400Y-10272000D02*
X16139400Y-10302000D01*
X16164800Y-11034000D02*
X16194800Y-11064000D01*
X16194800Y-11034000D02*
X16164800Y-11064000D01*
X16266400Y-12685000D02*
X16296400Y-12715000D01*
X16296400Y-12685000D02*
X16266400Y-12715000D01*
X13415800Y-13411200D02*
G75*
G02*
X13355800Y-13411200I-30000J0D01*
G01*
X13355800Y-13411200D02*
G75*
G02*
X13415800Y-13411200I30000J0D01*
G01*
X13490280Y-9904280D02*
G75*
G02*
X13430280Y-9904280I-30000J0D01*
G01*
X13430280Y-9904280D02*
G75*
G02*
X13490280Y-9904280I30000J0D01*
G01*
X13839680Y-13238180D02*
G75*
G02*
X13779680Y-13238180I-30000J0D01*
G01*
X13779680Y-13238180D02*
G75*
G02*
X13839680Y-13238180I30000J0D01*
G01*
X13589000Y-12073311D02*
X13589000Y-12153311D01*
X13549000Y-12113311D02*
X13629000Y-12113311D01*
X13589000Y-12323311D02*
X13589000Y-12403311D01*
X13549000Y-12363311D02*
X13629000Y-12363311D01*
X13690600Y-8951600D02*
X13690600Y-9031600D01*
X13650600Y-8991600D02*
X13730600Y-8991600D01*
X13690600Y-9151600D02*
X13690600Y-9231600D01*
X13650600Y-9191600D02*
X13730600Y-9191600D01*
X13890600Y-8951600D02*
X13890600Y-9031600D01*
X13850600Y-8991600D02*
X13930600Y-8991600D01*
X13890600Y-9151600D02*
X13890600Y-9231600D01*
X13850600Y-9191600D02*
X13930600Y-9191600D01*
X14090600Y-8951600D02*
X14090600Y-9031600D01*
X14050600Y-8991600D02*
X14130600Y-8991600D01*
X14090600Y-9151600D02*
X14090600Y-9231600D01*
X14050600Y-9191600D02*
X14130600Y-9191600D01*
X14290600Y-8951600D02*
X14290600Y-9031600D01*
X14250600Y-8991600D02*
X14330600Y-8991600D01*
X14290600Y-9151600D02*
X14290600Y-9231600D01*
X14250600Y-9191600D02*
X14330600Y-9191600D01*
X14490600Y-8951600D02*
X14490600Y-9031600D01*
X14450600Y-8991600D02*
X14530600Y-8991600D01*
X14490600Y-9151600D02*
X14490600Y-9231600D01*
X14450600Y-9191600D02*
X14530600Y-9191600D01*
X14864600Y-11212200D02*
X14864600Y-11292200D01*
X14824600Y-11252200D02*
X14904600Y-11252200D01*
X15214600Y-11212200D02*
X15214600Y-11292200D01*
X15174600Y-11252200D02*
X15254600Y-11252200D01*
X14256320Y-11487220D02*
X14256320Y-11423580D01*
X14192680Y-11423580D01*
X14192680Y-11487220D01*
X14256320Y-11487220D01*
X14510320Y-11487220D02*
X14510320Y-11423580D01*
X14446680Y-11423580D01*
X14446680Y-11487220D01*
X14510320Y-11487220D01*
X13690600Y-9702000D02*
X13740600Y-9652000D01*
X13690600Y-9602000D01*
X13640600Y-9652000D01*
X13690600Y-9702000D01*
X13690600Y-9956000D02*
X13740600Y-9906000D01*
X13690600Y-9856000D01*
X13640600Y-9906000D01*
X13690600Y-9956000D01*
X13690600Y-10210000D02*
X13740600Y-10160000D01*
X13690600Y-10110000D01*
X13640600Y-10160000D01*
X13690600Y-10210000D01*
X13690600Y-10464000D02*
X13740600Y-10414000D01*
X13690600Y-10364000D01*
X13640600Y-10414000D01*
X13690600Y-10464000D01*
X13690600Y-10718000D02*
X13740600Y-10668000D01*
X13690600Y-10618000D01*
X13640600Y-10668000D01*
X13690600Y-10718000D01*
X13690600Y-10972000D02*
X13740600Y-10922000D01*
X13690600Y-10872000D01*
X13640600Y-10922000D01*
X13690600Y-10972000D01*
X13690600Y-11226000D02*
X13740600Y-11176000D01*
X13690600Y-11126000D01*
X13640600Y-11176000D01*
X13690600Y-11226000D01*
X13690600Y-11480000D02*
X13740600Y-11430000D01*
X13690600Y-11380000D01*
X13640600Y-11430000D01*
X13690600Y-11480000D01*
X14024400Y-11942400D02*
X14074400Y-11892400D01*
X14024400Y-11842400D01*
X13974400Y-11892400D01*
X14024400Y-11942400D01*
X14024400Y-12592400D02*
X14074400Y-12542400D01*
X14024400Y-12492400D01*
X13974400Y-12542400D01*
X14024400Y-12592400D01*
X14474400Y-11942400D02*
X14524400Y-11892400D01*
X14474400Y-11842400D01*
X14424400Y-11892400D01*
X14474400Y-11942400D01*
X14474400Y-12592400D02*
X14524400Y-12542400D01*
X14474400Y-12492400D01*
X14424400Y-12542400D01*
X14474400Y-12592400D01*
X15951200Y-9449000D02*
X16001200Y-9399000D01*
X15951200Y-9349000D01*
X15901200Y-9399000D01*
X15951200Y-9449000D01*
X15951200Y-9703000D02*
X16001200Y-9653000D01*
X15951200Y-9603000D01*
X15901200Y-9653000D01*
X15951200Y-9703000D01*
X15951200Y-9957000D02*
X16001200Y-9907000D01*
X15951200Y-9857000D01*
X15901200Y-9907000D01*
X15951200Y-9957000D01*
X15951200Y-10211000D02*
X16001200Y-10161000D01*
X15951200Y-10111000D01*
X15901200Y-10161000D01*
X15951200Y-10211000D01*
X15951200Y-10465000D02*
X16001200Y-10415000D01*
X15951200Y-10365000D01*
X15901200Y-10415000D01*
X15951200Y-10465000D01*
X15951200Y-10719000D02*
X16001200Y-10669000D01*
X15951200Y-10619000D01*
X15901200Y-10669000D01*
X15951200Y-10719000D01*
X15951200Y-10973000D02*
X16001200Y-10923000D01*
X15951200Y-10873000D01*
X15901200Y-10923000D01*
X15951200Y-10973000D01*
X15951200Y-11227000D02*
X16001200Y-11177000D01*
X15951200Y-11127000D01*
X15901200Y-11177000D01*
X15951200Y-11227000D01*
X15951200Y-11481000D02*
X16001200Y-11431000D01*
X15951200Y-11381000D01*
X15901200Y-11431000D01*
X15951200Y-11481000D01*
D13*
X16119800Y-11856600D02*
X16239800Y-11976600D01*
X16239800Y-11856600D02*
X16119800Y-11976600D01*
X16239800Y-11916600D02*
G75*
G02*
X16119800Y-11916600I-60000J0D01*
G01*
X16119800Y-11916600D02*
G75*
G02*
X16239800Y-11916600I60000J0D01*
G01*
X16119800Y-12356600D02*
X16239800Y-12476600D01*
X16239800Y-12356600D02*
X16119800Y-12476600D01*
X16239800Y-12416600D02*
G75*
G02*
X16119800Y-12416600I-60000J0D01*
G01*
X16119800Y-12416600D02*
G75*
G02*
X16239800Y-12416600I60000J0D01*
G01*
D11*
X13512087Y-13838379D02*
X13512087Y-13638379D01*
X13512087Y-13638379D02*
X13559706Y-13638379D01*
X13559706Y-13638379D02*
X13588277Y-13647903D01*
X13588277Y-13647903D02*
X13607325Y-13666950D01*
X13607325Y-13666950D02*
X13616849Y-13685998D01*
X13616849Y-13685998D02*
X13626372Y-13724093D01*
X13626372Y-13724093D02*
X13626372Y-13752664D01*
X13626372Y-13752664D02*
X13616849Y-13790760D01*
X13616849Y-13790760D02*
X13607325Y-13809807D01*
X13607325Y-13809807D02*
X13588277Y-13828855D01*
X13588277Y-13828855D02*
X13559706Y-13838379D01*
X13559706Y-13838379D02*
X13512087Y-13838379D01*
X13712087Y-13838379D02*
X13712087Y-13705045D01*
X13712087Y-13743141D02*
X13721611Y-13724093D01*
X13721611Y-13724093D02*
X13731134Y-13714569D01*
X13731134Y-13714569D02*
X13750182Y-13705045D01*
X13750182Y-13705045D02*
X13769230Y-13705045D01*
X13835896Y-13838379D02*
X13835896Y-13705045D01*
X13835896Y-13638379D02*
X13826372Y-13647903D01*
X13826372Y-13647903D02*
X13835896Y-13657426D01*
X13835896Y-13657426D02*
X13845420Y-13647903D01*
X13845420Y-13647903D02*
X13835896Y-13638379D01*
X13835896Y-13638379D02*
X13835896Y-13657426D01*
X13959706Y-13838379D02*
X13940658Y-13828855D01*
X13940658Y-13828855D02*
X13931134Y-13809807D01*
X13931134Y-13809807D02*
X13931134Y-13638379D01*
X14064468Y-13838379D02*
X14045420Y-13828855D01*
X14045420Y-13828855D02*
X14035896Y-13809807D01*
X14035896Y-13809807D02*
X14035896Y-13638379D01*
X14293039Y-13838379D02*
X14293039Y-13638379D01*
X14293039Y-13638379D02*
X14359706Y-13781236D01*
X14359706Y-13781236D02*
X14426372Y-13638379D01*
X14426372Y-13638379D02*
X14426372Y-13838379D01*
X14607325Y-13838379D02*
X14607325Y-13733617D01*
X14607325Y-13733617D02*
X14597801Y-13714569D01*
X14597801Y-13714569D02*
X14578753Y-13705045D01*
X14578753Y-13705045D02*
X14540658Y-13705045D01*
X14540658Y-13705045D02*
X14521611Y-13714569D01*
X14607325Y-13828855D02*
X14588277Y-13838379D01*
X14588277Y-13838379D02*
X14540658Y-13838379D01*
X14540658Y-13838379D02*
X14521611Y-13828855D01*
X14521611Y-13828855D02*
X14512087Y-13809807D01*
X14512087Y-13809807D02*
X14512087Y-13790760D01*
X14512087Y-13790760D02*
X14521611Y-13771712D01*
X14521611Y-13771712D02*
X14540658Y-13762188D01*
X14540658Y-13762188D02*
X14588277Y-13762188D01*
X14588277Y-13762188D02*
X14607325Y-13752664D01*
X14702563Y-13705045D02*
X14702563Y-13905045D01*
X14702563Y-13714569D02*
X14721611Y-13705045D01*
X14721611Y-13705045D02*
X14759706Y-13705045D01*
X14759706Y-13705045D02*
X14778753Y-13714569D01*
X14778753Y-13714569D02*
X14788277Y-13724093D01*
X14788277Y-13724093D02*
X14797801Y-13743141D01*
X14797801Y-13743141D02*
X14797801Y-13800283D01*
X14797801Y-13800283D02*
X14788277Y-13819331D01*
X14788277Y-13819331D02*
X14778753Y-13828855D01*
X14778753Y-13828855D02*
X14759706Y-13838379D01*
X14759706Y-13838379D02*
X14721611Y-13838379D01*
X14721611Y-13838379D02*
X14702563Y-13828855D01*
X14883515Y-13819331D02*
X14893039Y-13828855D01*
X14893039Y-13828855D02*
X14883515Y-13838379D01*
X14883515Y-13838379D02*
X14873992Y-13828855D01*
X14873992Y-13828855D02*
X14883515Y-13819331D01*
X14883515Y-13819331D02*
X14883515Y-13838379D01*
X14883515Y-13714569D02*
X14893039Y-13724093D01*
X14893039Y-13724093D02*
X14883515Y-13733617D01*
X14883515Y-13733617D02*
X14873992Y-13724093D01*
X14873992Y-13724093D02*
X14883515Y-13714569D01*
X14883515Y-13714569D02*
X14883515Y-13733617D01*
D12*
X13221310Y-14151895D02*
X13251310Y-14181895D01*
X13251310Y-14151895D02*
X13221310Y-14181895D01*
D11*
X13550182Y-14058379D02*
X13569230Y-14058379D01*
X13569230Y-14058379D02*
X13588277Y-14067903D01*
X13588277Y-14067903D02*
X13597801Y-14077426D01*
X13597801Y-14077426D02*
X13607325Y-14096474D01*
X13607325Y-14096474D02*
X13616849Y-14134569D01*
X13616849Y-14134569D02*
X13616849Y-14182188D01*
X13616849Y-14182188D02*
X13607325Y-14220283D01*
X13607325Y-14220283D02*
X13597801Y-14239331D01*
X13597801Y-14239331D02*
X13588277Y-14248855D01*
X13588277Y-14248855D02*
X13569230Y-14258379D01*
X13569230Y-14258379D02*
X13550182Y-14258379D01*
X13550182Y-14258379D02*
X13531134Y-14248855D01*
X13531134Y-14248855D02*
X13521611Y-14239331D01*
X13521611Y-14239331D02*
X13512087Y-14220283D01*
X13512087Y-14220283D02*
X13502563Y-14182188D01*
X13502563Y-14182188D02*
X13502563Y-14134569D01*
X13502563Y-14134569D02*
X13512087Y-14096474D01*
X13512087Y-14096474D02*
X13521611Y-14077426D01*
X13521611Y-14077426D02*
X13531134Y-14067903D01*
X13531134Y-14067903D02*
X13550182Y-14058379D01*
X13702563Y-14239331D02*
X13712087Y-14248855D01*
X13712087Y-14248855D02*
X13702563Y-14258379D01*
X13702563Y-14258379D02*
X13693039Y-14248855D01*
X13693039Y-14248855D02*
X13702563Y-14239331D01*
X13702563Y-14239331D02*
X13702563Y-14258379D01*
X13778753Y-14058379D02*
X13902563Y-14058379D01*
X13902563Y-14058379D02*
X13835896Y-14134569D01*
X13835896Y-14134569D02*
X13864468Y-14134569D01*
X13864468Y-14134569D02*
X13883515Y-14144093D01*
X13883515Y-14144093D02*
X13893039Y-14153617D01*
X13893039Y-14153617D02*
X13902563Y-14172664D01*
X13902563Y-14172664D02*
X13902563Y-14220283D01*
X13902563Y-14220283D02*
X13893039Y-14239331D01*
X13893039Y-14239331D02*
X13883515Y-14248855D01*
X13883515Y-14248855D02*
X13864468Y-14258379D01*
X13864468Y-14258379D02*
X13807325Y-14258379D01*
X13807325Y-14258379D02*
X13788277Y-14248855D01*
X13788277Y-14248855D02*
X13778753Y-14239331D01*
X14026372Y-14058379D02*
X14045420Y-14058379D01*
X14045420Y-14058379D02*
X14064468Y-14067903D01*
X14064468Y-14067903D02*
X14073992Y-14077426D01*
X14073992Y-14077426D02*
X14083515Y-14096474D01*
X14083515Y-14096474D02*
X14093039Y-14134569D01*
X14093039Y-14134569D02*
X14093039Y-14182188D01*
X14093039Y-14182188D02*
X14083515Y-14220283D01*
X14083515Y-14220283D02*
X14073992Y-14239331D01*
X14073992Y-14239331D02*
X14064468Y-14248855D01*
X14064468Y-14248855D02*
X14045420Y-14258379D01*
X14045420Y-14258379D02*
X14026372Y-14258379D01*
X14026372Y-14258379D02*
X14007325Y-14248855D01*
X14007325Y-14248855D02*
X13997801Y-14239331D01*
X13997801Y-14239331D02*
X13988277Y-14220283D01*
X13988277Y-14220283D02*
X13978753Y-14182188D01*
X13978753Y-14182188D02*
X13978753Y-14134569D01*
X13978753Y-14134569D02*
X13988277Y-14096474D01*
X13988277Y-14096474D02*
X13997801Y-14077426D01*
X13997801Y-14077426D02*
X14007325Y-14067903D01*
X14007325Y-14067903D02*
X14026372Y-14058379D01*
X14216849Y-14058379D02*
X14235896Y-14058379D01*
X14235896Y-14058379D02*
X14254944Y-14067903D01*
X14254944Y-14067903D02*
X14264468Y-14077426D01*
X14264468Y-14077426D02*
X14273992Y-14096474D01*
X14273992Y-14096474D02*
X14283515Y-14134569D01*
X14283515Y-14134569D02*
X14283515Y-14182188D01*
X14283515Y-14182188D02*
X14273992Y-14220283D01*
X14273992Y-14220283D02*
X14264468Y-14239331D01*
X14264468Y-14239331D02*
X14254944Y-14248855D01*
X14254944Y-14248855D02*
X14235896Y-14258379D01*
X14235896Y-14258379D02*
X14216849Y-14258379D01*
X14216849Y-14258379D02*
X14197801Y-14248855D01*
X14197801Y-14248855D02*
X14188277Y-14239331D01*
X14188277Y-14239331D02*
X14178753Y-14220283D01*
X14178753Y-14220283D02*
X14169230Y-14182188D01*
X14169230Y-14182188D02*
X14169230Y-14134569D01*
X14169230Y-14134569D02*
X14178753Y-14096474D01*
X14178753Y-14096474D02*
X14188277Y-14077426D01*
X14188277Y-14077426D02*
X14197801Y-14067903D01*
X14197801Y-14067903D02*
X14216849Y-14058379D01*
X14369230Y-14258379D02*
X14369230Y-14125045D01*
X14369230Y-14144093D02*
X14378753Y-14134569D01*
X14378753Y-14134569D02*
X14397801Y-14125045D01*
X14397801Y-14125045D02*
X14426373Y-14125045D01*
X14426373Y-14125045D02*
X14445420Y-14134569D01*
X14445420Y-14134569D02*
X14454944Y-14153617D01*
X14454944Y-14153617D02*
X14454944Y-14258379D01*
X14454944Y-14153617D02*
X14464468Y-14134569D01*
X14464468Y-14134569D02*
X14483515Y-14125045D01*
X14483515Y-14125045D02*
X14512087Y-14125045D01*
X14512087Y-14125045D02*
X14531134Y-14134569D01*
X14531134Y-14134569D02*
X14540658Y-14153617D01*
X14540658Y-14153617D02*
X14540658Y-14258379D01*
X14635896Y-14258379D02*
X14635896Y-14125045D01*
X14635896Y-14144093D02*
X14645420Y-14134569D01*
X14645420Y-14134569D02*
X14664468Y-14125045D01*
X14664468Y-14125045D02*
X14693039Y-14125045D01*
X14693039Y-14125045D02*
X14712087Y-14134569D01*
X14712087Y-14134569D02*
X14721611Y-14153617D01*
X14721611Y-14153617D02*
X14721611Y-14258379D01*
X14721611Y-14153617D02*
X14731134Y-14134569D01*
X14731134Y-14134569D02*
X14750182Y-14125045D01*
X14750182Y-14125045D02*
X14778753Y-14125045D01*
X14778753Y-14125045D02*
X14797801Y-14134569D01*
X14797801Y-14134569D02*
X14807325Y-14153617D01*
X14807325Y-14153617D02*
X14807325Y-14258379D01*
X15197801Y-14048855D02*
X15026373Y-14305998D01*
X15454944Y-14058379D02*
X15473992Y-14058379D01*
X15473992Y-14058379D02*
X15493039Y-14067903D01*
X15493039Y-14067903D02*
X15502563Y-14077426D01*
X15502563Y-14077426D02*
X15512087Y-14096474D01*
X15512087Y-14096474D02*
X15521611Y-14134569D01*
X15521611Y-14134569D02*
X15521611Y-14182188D01*
X15521611Y-14182188D02*
X15512087Y-14220283D01*
X15512087Y-14220283D02*
X15502563Y-14239331D01*
X15502563Y-14239331D02*
X15493039Y-14248855D01*
X15493039Y-14248855D02*
X15473992Y-14258379D01*
X15473992Y-14258379D02*
X15454944Y-14258379D01*
X15454944Y-14258379D02*
X15435896Y-14248855D01*
X15435896Y-14248855D02*
X15426373Y-14239331D01*
X15426373Y-14239331D02*
X15416849Y-14220283D01*
X15416849Y-14220283D02*
X15407325Y-14182188D01*
X15407325Y-14182188D02*
X15407325Y-14134569D01*
X15407325Y-14134569D02*
X15416849Y-14096474D01*
X15416849Y-14096474D02*
X15426373Y-14077426D01*
X15426373Y-14077426D02*
X15435896Y-14067903D01*
X15435896Y-14067903D02*
X15454944Y-14058379D01*
X15607325Y-14239331D02*
X15616849Y-14248855D01*
X15616849Y-14248855D02*
X15607325Y-14258379D01*
X15607325Y-14258379D02*
X15597801Y-14248855D01*
X15597801Y-14248855D02*
X15607325Y-14239331D01*
X15607325Y-14239331D02*
X15607325Y-14258379D01*
X15740658Y-14058379D02*
X15759706Y-14058379D01*
X15759706Y-14058379D02*
X15778754Y-14067903D01*
X15778754Y-14067903D02*
X15788277Y-14077426D01*
X15788277Y-14077426D02*
X15797801Y-14096474D01*
X15797801Y-14096474D02*
X15807325Y-14134569D01*
X15807325Y-14134569D02*
X15807325Y-14182188D01*
X15807325Y-14182188D02*
X15797801Y-14220283D01*
X15797801Y-14220283D02*
X15788277Y-14239331D01*
X15788277Y-14239331D02*
X15778754Y-14248855D01*
X15778754Y-14248855D02*
X15759706Y-14258379D01*
X15759706Y-14258379D02*
X15740658Y-14258379D01*
X15740658Y-14258379D02*
X15721611Y-14248855D01*
X15721611Y-14248855D02*
X15712087Y-14239331D01*
X15712087Y-14239331D02*
X15702563Y-14220283D01*
X15702563Y-14220283D02*
X15693039Y-14182188D01*
X15693039Y-14182188D02*
X15693039Y-14134569D01*
X15693039Y-14134569D02*
X15702563Y-14096474D01*
X15702563Y-14096474D02*
X15712087Y-14077426D01*
X15712087Y-14077426D02*
X15721611Y-14067903D01*
X15721611Y-14067903D02*
X15740658Y-14058379D01*
X15997801Y-14258379D02*
X15883516Y-14258379D01*
X15940658Y-14258379D02*
X15940658Y-14058379D01*
X15940658Y-14058379D02*
X15921611Y-14086950D01*
X15921611Y-14086950D02*
X15902563Y-14105998D01*
X15902563Y-14105998D02*
X15883516Y-14115522D01*
X16188277Y-14258379D02*
X16073992Y-14258379D01*
X16131135Y-14258379D02*
X16131135Y-14058379D01*
X16131135Y-14058379D02*
X16112087Y-14086950D01*
X16112087Y-14086950D02*
X16093039Y-14105998D01*
X16093039Y-14105998D02*
X16073992Y-14115522D01*
X16302563Y-14144093D02*
X16283516Y-14134569D01*
X16283516Y-14134569D02*
X16273992Y-14125045D01*
X16273992Y-14125045D02*
X16264468Y-14105998D01*
X16264468Y-14105998D02*
X16264468Y-14096474D01*
X16264468Y-14096474D02*
X16273992Y-14077426D01*
X16273992Y-14077426D02*
X16283516Y-14067903D01*
X16283516Y-14067903D02*
X16302563Y-14058379D01*
X16302563Y-14058379D02*
X16340658Y-14058379D01*
X16340658Y-14058379D02*
X16359706Y-14067903D01*
X16359706Y-14067903D02*
X16369230Y-14077426D01*
X16369230Y-14077426D02*
X16378754Y-14096474D01*
X16378754Y-14096474D02*
X16378754Y-14105998D01*
X16378754Y-14105998D02*
X16369230Y-14125045D01*
X16369230Y-14125045D02*
X16359706Y-14134569D01*
X16359706Y-14134569D02*
X16340658Y-14144093D01*
X16340658Y-14144093D02*
X16302563Y-14144093D01*
X16302563Y-14144093D02*
X16283516Y-14153617D01*
X16283516Y-14153617D02*
X16273992Y-14163141D01*
X16273992Y-14163141D02*
X16264468Y-14182188D01*
X16264468Y-14182188D02*
X16264468Y-14220283D01*
X16264468Y-14220283D02*
X16273992Y-14239331D01*
X16273992Y-14239331D02*
X16283516Y-14248855D01*
X16283516Y-14248855D02*
X16302563Y-14258379D01*
X16302563Y-14258379D02*
X16340658Y-14258379D01*
X16340658Y-14258379D02*
X16359706Y-14248855D01*
X16359706Y-14248855D02*
X16369230Y-14239331D01*
X16369230Y-14239331D02*
X16378754Y-14220283D01*
X16378754Y-14220283D02*
X16378754Y-14182188D01*
X16378754Y-14182188D02*
X16369230Y-14163141D01*
X16369230Y-14163141D02*
X16359706Y-14153617D01*
X16359706Y-14153617D02*
X16340658Y-14144093D01*
X16454944Y-14058379D02*
X16454944Y-14096474D01*
X16531135Y-14058379D02*
X16531135Y-14096474D01*
X16826373Y-14334569D02*
X16816849Y-14325045D01*
X16816849Y-14325045D02*
X16797801Y-14296474D01*
X16797801Y-14296474D02*
X16788278Y-14277426D01*
X16788278Y-14277426D02*
X16778754Y-14248855D01*
X16778754Y-14248855D02*
X16769230Y-14201236D01*
X16769230Y-14201236D02*
X16769230Y-14163141D01*
X16769230Y-14163141D02*
X16778754Y-14115522D01*
X16778754Y-14115522D02*
X16788278Y-14086950D01*
X16788278Y-14086950D02*
X16797801Y-14067903D01*
X16797801Y-14067903D02*
X16816849Y-14039331D01*
X16816849Y-14039331D02*
X16826373Y-14029807D01*
X16883516Y-14058379D02*
X17016849Y-14058379D01*
X17016849Y-14058379D02*
X16931135Y-14258379D01*
X17197801Y-14258379D02*
X17083516Y-14258379D01*
X17140659Y-14258379D02*
X17140659Y-14058379D01*
X17140659Y-14058379D02*
X17121611Y-14086950D01*
X17121611Y-14086950D02*
X17102563Y-14105998D01*
X17102563Y-14105998D02*
X17083516Y-14115522D01*
X17435897Y-14258379D02*
X17435897Y-14058379D01*
X17521611Y-14258379D02*
X17521611Y-14153617D01*
X17521611Y-14153617D02*
X17512087Y-14134569D01*
X17512087Y-14134569D02*
X17493040Y-14125045D01*
X17493040Y-14125045D02*
X17464468Y-14125045D01*
X17464468Y-14125045D02*
X17445421Y-14134569D01*
X17445421Y-14134569D02*
X17435897Y-14144093D01*
X17645421Y-14258379D02*
X17626373Y-14248855D01*
X17626373Y-14248855D02*
X17616849Y-14239331D01*
X17616849Y-14239331D02*
X17607325Y-14220283D01*
X17607325Y-14220283D02*
X17607325Y-14163141D01*
X17607325Y-14163141D02*
X17616849Y-14144093D01*
X17616849Y-14144093D02*
X17626373Y-14134569D01*
X17626373Y-14134569D02*
X17645421Y-14125045D01*
X17645421Y-14125045D02*
X17673992Y-14125045D01*
X17673992Y-14125045D02*
X17693040Y-14134569D01*
X17693040Y-14134569D02*
X17702563Y-14144093D01*
X17702563Y-14144093D02*
X17712087Y-14163141D01*
X17712087Y-14163141D02*
X17712087Y-14220283D01*
X17712087Y-14220283D02*
X17702563Y-14239331D01*
X17702563Y-14239331D02*
X17693040Y-14248855D01*
X17693040Y-14248855D02*
X17673992Y-14258379D01*
X17673992Y-14258379D02*
X17645421Y-14258379D01*
X17826373Y-14258379D02*
X17807325Y-14248855D01*
X17807325Y-14248855D02*
X17797802Y-14229807D01*
X17797802Y-14229807D02*
X17797802Y-14058379D01*
X17978754Y-14248855D02*
X17959706Y-14258379D01*
X17959706Y-14258379D02*
X17921611Y-14258379D01*
X17921611Y-14258379D02*
X17902563Y-14248855D01*
X17902563Y-14248855D02*
X17893040Y-14229807D01*
X17893040Y-14229807D02*
X17893040Y-14153617D01*
X17893040Y-14153617D02*
X17902563Y-14134569D01*
X17902563Y-14134569D02*
X17921611Y-14125045D01*
X17921611Y-14125045D02*
X17959706Y-14125045D01*
X17959706Y-14125045D02*
X17978754Y-14134569D01*
X17978754Y-14134569D02*
X17988278Y-14153617D01*
X17988278Y-14153617D02*
X17988278Y-14172664D01*
X17988278Y-14172664D02*
X17893040Y-14191712D01*
X18064468Y-14248855D02*
X18083516Y-14258379D01*
X18083516Y-14258379D02*
X18121611Y-14258379D01*
X18121611Y-14258379D02*
X18140659Y-14248855D01*
X18140659Y-14248855D02*
X18150183Y-14229807D01*
X18150183Y-14229807D02*
X18150183Y-14220283D01*
X18150183Y-14220283D02*
X18140659Y-14201236D01*
X18140659Y-14201236D02*
X18121611Y-14191712D01*
X18121611Y-14191712D02*
X18093040Y-14191712D01*
X18093040Y-14191712D02*
X18073992Y-14182188D01*
X18073992Y-14182188D02*
X18064468Y-14163141D01*
X18064468Y-14163141D02*
X18064468Y-14153617D01*
X18064468Y-14153617D02*
X18073992Y-14134569D01*
X18073992Y-14134569D02*
X18093040Y-14125045D01*
X18093040Y-14125045D02*
X18121611Y-14125045D01*
X18121611Y-14125045D02*
X18140659Y-14134569D01*
X18216849Y-14334569D02*
X18226373Y-14325045D01*
X18226373Y-14325045D02*
X18245421Y-14296474D01*
X18245421Y-14296474D02*
X18254944Y-14277426D01*
X18254944Y-14277426D02*
X18264468Y-14248855D01*
X18264468Y-14248855D02*
X18273992Y-14201236D01*
X18273992Y-14201236D02*
X18273992Y-14163141D01*
X18273992Y-14163141D02*
X18264468Y-14115522D01*
X18264468Y-14115522D02*
X18254944Y-14086950D01*
X18254944Y-14086950D02*
X18245421Y-14067903D01*
X18245421Y-14067903D02*
X18226373Y-14039331D01*
X18226373Y-14039331D02*
X18216849Y-14029807D01*
D12*
X13251310Y-14430895D02*
G75*
G02*
X13191310Y-14430895I-30000J0D01*
G01*
X13191310Y-14430895D02*
G75*
G02*
X13251310Y-14430895I30000J0D01*
G01*
D11*
X13550182Y-14322379D02*
X13569230Y-14322379D01*
X13569230Y-14322379D02*
X13588277Y-14331903D01*
X13588277Y-14331903D02*
X13597801Y-14341426D01*
X13597801Y-14341426D02*
X13607325Y-14360474D01*
X13607325Y-14360474D02*
X13616849Y-14398569D01*
X13616849Y-14398569D02*
X13616849Y-14446188D01*
X13616849Y-14446188D02*
X13607325Y-14484283D01*
X13607325Y-14484283D02*
X13597801Y-14503331D01*
X13597801Y-14503331D02*
X13588277Y-14512855D01*
X13588277Y-14512855D02*
X13569230Y-14522379D01*
X13569230Y-14522379D02*
X13550182Y-14522379D01*
X13550182Y-14522379D02*
X13531134Y-14512855D01*
X13531134Y-14512855D02*
X13521611Y-14503331D01*
X13521611Y-14503331D02*
X13512087Y-14484283D01*
X13512087Y-14484283D02*
X13502563Y-14446188D01*
X13502563Y-14446188D02*
X13502563Y-14398569D01*
X13502563Y-14398569D02*
X13512087Y-14360474D01*
X13512087Y-14360474D02*
X13521611Y-14341426D01*
X13521611Y-14341426D02*
X13531134Y-14331903D01*
X13531134Y-14331903D02*
X13550182Y-14322379D01*
X13702563Y-14503331D02*
X13712087Y-14512855D01*
X13712087Y-14512855D02*
X13702563Y-14522379D01*
X13702563Y-14522379D02*
X13693039Y-14512855D01*
X13693039Y-14512855D02*
X13702563Y-14503331D01*
X13702563Y-14503331D02*
X13702563Y-14522379D01*
X13883515Y-14322379D02*
X13845420Y-14322379D01*
X13845420Y-14322379D02*
X13826372Y-14331903D01*
X13826372Y-14331903D02*
X13816849Y-14341426D01*
X13816849Y-14341426D02*
X13797801Y-14369998D01*
X13797801Y-14369998D02*
X13788277Y-14408093D01*
X13788277Y-14408093D02*
X13788277Y-14484283D01*
X13788277Y-14484283D02*
X13797801Y-14503331D01*
X13797801Y-14503331D02*
X13807325Y-14512855D01*
X13807325Y-14512855D02*
X13826372Y-14522379D01*
X13826372Y-14522379D02*
X13864468Y-14522379D01*
X13864468Y-14522379D02*
X13883515Y-14512855D01*
X13883515Y-14512855D02*
X13893039Y-14503331D01*
X13893039Y-14503331D02*
X13902563Y-14484283D01*
X13902563Y-14484283D02*
X13902563Y-14436664D01*
X13902563Y-14436664D02*
X13893039Y-14417617D01*
X13893039Y-14417617D02*
X13883515Y-14408093D01*
X13883515Y-14408093D02*
X13864468Y-14398569D01*
X13864468Y-14398569D02*
X13826372Y-14398569D01*
X13826372Y-14398569D02*
X13807325Y-14408093D01*
X13807325Y-14408093D02*
X13797801Y-14417617D01*
X13797801Y-14417617D02*
X13788277Y-14436664D01*
X14026372Y-14322379D02*
X14045420Y-14322379D01*
X14045420Y-14322379D02*
X14064468Y-14331903D01*
X14064468Y-14331903D02*
X14073992Y-14341426D01*
X14073992Y-14341426D02*
X14083515Y-14360474D01*
X14083515Y-14360474D02*
X14093039Y-14398569D01*
X14093039Y-14398569D02*
X14093039Y-14446188D01*
X14093039Y-14446188D02*
X14083515Y-14484283D01*
X14083515Y-14484283D02*
X14073992Y-14503331D01*
X14073992Y-14503331D02*
X14064468Y-14512855D01*
X14064468Y-14512855D02*
X14045420Y-14522379D01*
X14045420Y-14522379D02*
X14026372Y-14522379D01*
X14026372Y-14522379D02*
X14007325Y-14512855D01*
X14007325Y-14512855D02*
X13997801Y-14503331D01*
X13997801Y-14503331D02*
X13988277Y-14484283D01*
X13988277Y-14484283D02*
X13978753Y-14446188D01*
X13978753Y-14446188D02*
X13978753Y-14398569D01*
X13978753Y-14398569D02*
X13988277Y-14360474D01*
X13988277Y-14360474D02*
X13997801Y-14341426D01*
X13997801Y-14341426D02*
X14007325Y-14331903D01*
X14007325Y-14331903D02*
X14026372Y-14322379D01*
X14216849Y-14322379D02*
X14235896Y-14322379D01*
X14235896Y-14322379D02*
X14254944Y-14331903D01*
X14254944Y-14331903D02*
X14264468Y-14341426D01*
X14264468Y-14341426D02*
X14273992Y-14360474D01*
X14273992Y-14360474D02*
X14283515Y-14398569D01*
X14283515Y-14398569D02*
X14283515Y-14446188D01*
X14283515Y-14446188D02*
X14273992Y-14484283D01*
X14273992Y-14484283D02*
X14264468Y-14503331D01*
X14264468Y-14503331D02*
X14254944Y-14512855D01*
X14254944Y-14512855D02*
X14235896Y-14522379D01*
X14235896Y-14522379D02*
X14216849Y-14522379D01*
X14216849Y-14522379D02*
X14197801Y-14512855D01*
X14197801Y-14512855D02*
X14188277Y-14503331D01*
X14188277Y-14503331D02*
X14178753Y-14484283D01*
X14178753Y-14484283D02*
X14169230Y-14446188D01*
X14169230Y-14446188D02*
X14169230Y-14398569D01*
X14169230Y-14398569D02*
X14178753Y-14360474D01*
X14178753Y-14360474D02*
X14188277Y-14341426D01*
X14188277Y-14341426D02*
X14197801Y-14331903D01*
X14197801Y-14331903D02*
X14216849Y-14322379D01*
X14369230Y-14522379D02*
X14369230Y-14389045D01*
X14369230Y-14408093D02*
X14378753Y-14398569D01*
X14378753Y-14398569D02*
X14397801Y-14389045D01*
X14397801Y-14389045D02*
X14426373Y-14389045D01*
X14426373Y-14389045D02*
X14445420Y-14398569D01*
X14445420Y-14398569D02*
X14454944Y-14417617D01*
X14454944Y-14417617D02*
X14454944Y-14522379D01*
X14454944Y-14417617D02*
X14464468Y-14398569D01*
X14464468Y-14398569D02*
X14483515Y-14389045D01*
X14483515Y-14389045D02*
X14512087Y-14389045D01*
X14512087Y-14389045D02*
X14531134Y-14398569D01*
X14531134Y-14398569D02*
X14540658Y-14417617D01*
X14540658Y-14417617D02*
X14540658Y-14522379D01*
X14635896Y-14522379D02*
X14635896Y-14389045D01*
X14635896Y-14408093D02*
X14645420Y-14398569D01*
X14645420Y-14398569D02*
X14664468Y-14389045D01*
X14664468Y-14389045D02*
X14693039Y-14389045D01*
X14693039Y-14389045D02*
X14712087Y-14398569D01*
X14712087Y-14398569D02*
X14721611Y-14417617D01*
X14721611Y-14417617D02*
X14721611Y-14522379D01*
X14721611Y-14417617D02*
X14731134Y-14398569D01*
X14731134Y-14398569D02*
X14750182Y-14389045D01*
X14750182Y-14389045D02*
X14778753Y-14389045D01*
X14778753Y-14389045D02*
X14797801Y-14398569D01*
X14797801Y-14398569D02*
X14807325Y-14417617D01*
X14807325Y-14417617D02*
X14807325Y-14522379D01*
X15197801Y-14312855D02*
X15026373Y-14569998D01*
X15454944Y-14322379D02*
X15473992Y-14322379D01*
X15473992Y-14322379D02*
X15493039Y-14331903D01*
X15493039Y-14331903D02*
X15502563Y-14341426D01*
X15502563Y-14341426D02*
X15512087Y-14360474D01*
X15512087Y-14360474D02*
X15521611Y-14398569D01*
X15521611Y-14398569D02*
X15521611Y-14446188D01*
X15521611Y-14446188D02*
X15512087Y-14484283D01*
X15512087Y-14484283D02*
X15502563Y-14503331D01*
X15502563Y-14503331D02*
X15493039Y-14512855D01*
X15493039Y-14512855D02*
X15473992Y-14522379D01*
X15473992Y-14522379D02*
X15454944Y-14522379D01*
X15454944Y-14522379D02*
X15435896Y-14512855D01*
X15435896Y-14512855D02*
X15426373Y-14503331D01*
X15426373Y-14503331D02*
X15416849Y-14484283D01*
X15416849Y-14484283D02*
X15407325Y-14446188D01*
X15407325Y-14446188D02*
X15407325Y-14398569D01*
X15407325Y-14398569D02*
X15416849Y-14360474D01*
X15416849Y-14360474D02*
X15426373Y-14341426D01*
X15426373Y-14341426D02*
X15435896Y-14331903D01*
X15435896Y-14331903D02*
X15454944Y-14322379D01*
X15607325Y-14503331D02*
X15616849Y-14512855D01*
X15616849Y-14512855D02*
X15607325Y-14522379D01*
X15607325Y-14522379D02*
X15597801Y-14512855D01*
X15597801Y-14512855D02*
X15607325Y-14503331D01*
X15607325Y-14503331D02*
X15607325Y-14522379D01*
X15740658Y-14322379D02*
X15759706Y-14322379D01*
X15759706Y-14322379D02*
X15778754Y-14331903D01*
X15778754Y-14331903D02*
X15788277Y-14341426D01*
X15788277Y-14341426D02*
X15797801Y-14360474D01*
X15797801Y-14360474D02*
X15807325Y-14398569D01*
X15807325Y-14398569D02*
X15807325Y-14446188D01*
X15807325Y-14446188D02*
X15797801Y-14484283D01*
X15797801Y-14484283D02*
X15788277Y-14503331D01*
X15788277Y-14503331D02*
X15778754Y-14512855D01*
X15778754Y-14512855D02*
X15759706Y-14522379D01*
X15759706Y-14522379D02*
X15740658Y-14522379D01*
X15740658Y-14522379D02*
X15721611Y-14512855D01*
X15721611Y-14512855D02*
X15712087Y-14503331D01*
X15712087Y-14503331D02*
X15702563Y-14484283D01*
X15702563Y-14484283D02*
X15693039Y-14446188D01*
X15693039Y-14446188D02*
X15693039Y-14398569D01*
X15693039Y-14398569D02*
X15702563Y-14360474D01*
X15702563Y-14360474D02*
X15712087Y-14341426D01*
X15712087Y-14341426D02*
X15721611Y-14331903D01*
X15721611Y-14331903D02*
X15740658Y-14322379D01*
X15883516Y-14341426D02*
X15893039Y-14331903D01*
X15893039Y-14331903D02*
X15912087Y-14322379D01*
X15912087Y-14322379D02*
X15959706Y-14322379D01*
X15959706Y-14322379D02*
X15978754Y-14331903D01*
X15978754Y-14331903D02*
X15988277Y-14341426D01*
X15988277Y-14341426D02*
X15997801Y-14360474D01*
X15997801Y-14360474D02*
X15997801Y-14379522D01*
X15997801Y-14379522D02*
X15988277Y-14408093D01*
X15988277Y-14408093D02*
X15873992Y-14522379D01*
X15873992Y-14522379D02*
X15997801Y-14522379D01*
X16064468Y-14322379D02*
X16188277Y-14322379D01*
X16188277Y-14322379D02*
X16121611Y-14398569D01*
X16121611Y-14398569D02*
X16150182Y-14398569D01*
X16150182Y-14398569D02*
X16169230Y-14408093D01*
X16169230Y-14408093D02*
X16178754Y-14417617D01*
X16178754Y-14417617D02*
X16188277Y-14436664D01*
X16188277Y-14436664D02*
X16188277Y-14484283D01*
X16188277Y-14484283D02*
X16178754Y-14503331D01*
X16178754Y-14503331D02*
X16169230Y-14512855D01*
X16169230Y-14512855D02*
X16150182Y-14522379D01*
X16150182Y-14522379D02*
X16093039Y-14522379D01*
X16093039Y-14522379D02*
X16073992Y-14512855D01*
X16073992Y-14512855D02*
X16064468Y-14503331D01*
X16359706Y-14322379D02*
X16321611Y-14322379D01*
X16321611Y-14322379D02*
X16302563Y-14331903D01*
X16302563Y-14331903D02*
X16293039Y-14341426D01*
X16293039Y-14341426D02*
X16273992Y-14369998D01*
X16273992Y-14369998D02*
X16264468Y-14408093D01*
X16264468Y-14408093D02*
X16264468Y-14484283D01*
X16264468Y-14484283D02*
X16273992Y-14503331D01*
X16273992Y-14503331D02*
X16283516Y-14512855D01*
X16283516Y-14512855D02*
X16302563Y-14522379D01*
X16302563Y-14522379D02*
X16340658Y-14522379D01*
X16340658Y-14522379D02*
X16359706Y-14512855D01*
X16359706Y-14512855D02*
X16369230Y-14503331D01*
X16369230Y-14503331D02*
X16378754Y-14484283D01*
X16378754Y-14484283D02*
X16378754Y-14436664D01*
X16378754Y-14436664D02*
X16369230Y-14417617D01*
X16369230Y-14417617D02*
X16359706Y-14408093D01*
X16359706Y-14408093D02*
X16340658Y-14398569D01*
X16340658Y-14398569D02*
X16302563Y-14398569D01*
X16302563Y-14398569D02*
X16283516Y-14408093D01*
X16283516Y-14408093D02*
X16273992Y-14417617D01*
X16273992Y-14417617D02*
X16264468Y-14436664D01*
X16454944Y-14322379D02*
X16454944Y-14360474D01*
X16531135Y-14322379D02*
X16531135Y-14360474D01*
X16826373Y-14598569D02*
X16816849Y-14589045D01*
X16816849Y-14589045D02*
X16797801Y-14560474D01*
X16797801Y-14560474D02*
X16788278Y-14541426D01*
X16788278Y-14541426D02*
X16778754Y-14512855D01*
X16778754Y-14512855D02*
X16769230Y-14465236D01*
X16769230Y-14465236D02*
X16769230Y-14427141D01*
X16769230Y-14427141D02*
X16778754Y-14379522D01*
X16778754Y-14379522D02*
X16788278Y-14350950D01*
X16788278Y-14350950D02*
X16797801Y-14331903D01*
X16797801Y-14331903D02*
X16816849Y-14303331D01*
X16816849Y-14303331D02*
X16826373Y-14293807D01*
X16883516Y-14322379D02*
X17007325Y-14322379D01*
X17007325Y-14322379D02*
X16940659Y-14398569D01*
X16940659Y-14398569D02*
X16969230Y-14398569D01*
X16969230Y-14398569D02*
X16988278Y-14408093D01*
X16988278Y-14408093D02*
X16997801Y-14417617D01*
X16997801Y-14417617D02*
X17007325Y-14436664D01*
X17007325Y-14436664D02*
X17007325Y-14484283D01*
X17007325Y-14484283D02*
X16997801Y-14503331D01*
X16997801Y-14503331D02*
X16988278Y-14512855D01*
X16988278Y-14512855D02*
X16969230Y-14522379D01*
X16969230Y-14522379D02*
X16912087Y-14522379D01*
X16912087Y-14522379D02*
X16893040Y-14512855D01*
X16893040Y-14512855D02*
X16883516Y-14503331D01*
X17245421Y-14522379D02*
X17245421Y-14322379D01*
X17331135Y-14522379D02*
X17331135Y-14417617D01*
X17331135Y-14417617D02*
X17321611Y-14398569D01*
X17321611Y-14398569D02*
X17302563Y-14389045D01*
X17302563Y-14389045D02*
X17273992Y-14389045D01*
X17273992Y-14389045D02*
X17254944Y-14398569D01*
X17254944Y-14398569D02*
X17245421Y-14408093D01*
X17454944Y-14522379D02*
X17435897Y-14512855D01*
X17435897Y-14512855D02*
X17426373Y-14503331D01*
X17426373Y-14503331D02*
X17416849Y-14484283D01*
X17416849Y-14484283D02*
X17416849Y-14427141D01*
X17416849Y-14427141D02*
X17426373Y-14408093D01*
X17426373Y-14408093D02*
X17435897Y-14398569D01*
X17435897Y-14398569D02*
X17454944Y-14389045D01*
X17454944Y-14389045D02*
X17483516Y-14389045D01*
X17483516Y-14389045D02*
X17502563Y-14398569D01*
X17502563Y-14398569D02*
X17512087Y-14408093D01*
X17512087Y-14408093D02*
X17521611Y-14427141D01*
X17521611Y-14427141D02*
X17521611Y-14484283D01*
X17521611Y-14484283D02*
X17512087Y-14503331D01*
X17512087Y-14503331D02*
X17502563Y-14512855D01*
X17502563Y-14512855D02*
X17483516Y-14522379D01*
X17483516Y-14522379D02*
X17454944Y-14522379D01*
X17635897Y-14522379D02*
X17616849Y-14512855D01*
X17616849Y-14512855D02*
X17607325Y-14493807D01*
X17607325Y-14493807D02*
X17607325Y-14322379D01*
X17788278Y-14512855D02*
X17769230Y-14522379D01*
X17769230Y-14522379D02*
X17731135Y-14522379D01*
X17731135Y-14522379D02*
X17712087Y-14512855D01*
X17712087Y-14512855D02*
X17702563Y-14493807D01*
X17702563Y-14493807D02*
X17702563Y-14417617D01*
X17702563Y-14417617D02*
X17712087Y-14398569D01*
X17712087Y-14398569D02*
X17731135Y-14389045D01*
X17731135Y-14389045D02*
X17769230Y-14389045D01*
X17769230Y-14389045D02*
X17788278Y-14398569D01*
X17788278Y-14398569D02*
X17797802Y-14417617D01*
X17797802Y-14417617D02*
X17797802Y-14436664D01*
X17797802Y-14436664D02*
X17702563Y-14455712D01*
X17873992Y-14512855D02*
X17893040Y-14522379D01*
X17893040Y-14522379D02*
X17931135Y-14522379D01*
X17931135Y-14522379D02*
X17950183Y-14512855D01*
X17950183Y-14512855D02*
X17959706Y-14493807D01*
X17959706Y-14493807D02*
X17959706Y-14484283D01*
X17959706Y-14484283D02*
X17950183Y-14465236D01*
X17950183Y-14465236D02*
X17931135Y-14455712D01*
X17931135Y-14455712D02*
X17902563Y-14455712D01*
X17902563Y-14455712D02*
X17883516Y-14446188D01*
X17883516Y-14446188D02*
X17873992Y-14427141D01*
X17873992Y-14427141D02*
X17873992Y-14417617D01*
X17873992Y-14417617D02*
X17883516Y-14398569D01*
X17883516Y-14398569D02*
X17902563Y-14389045D01*
X17902563Y-14389045D02*
X17931135Y-14389045D01*
X17931135Y-14389045D02*
X17950183Y-14398569D01*
X18026373Y-14598569D02*
X18035897Y-14589045D01*
X18035897Y-14589045D02*
X18054944Y-14560474D01*
X18054944Y-14560474D02*
X18064468Y-14541426D01*
X18064468Y-14541426D02*
X18073992Y-14512855D01*
X18073992Y-14512855D02*
X18083516Y-14465236D01*
X18083516Y-14465236D02*
X18083516Y-14427141D01*
X18083516Y-14427141D02*
X18073992Y-14379522D01*
X18073992Y-14379522D02*
X18064468Y-14350950D01*
X18064468Y-14350950D02*
X18054944Y-14331903D01*
X18054944Y-14331903D02*
X18035897Y-14303331D01*
X18035897Y-14303331D02*
X18026373Y-14293807D01*
D12*
X13211310Y-14654895D02*
X13211310Y-14734895D01*
X13171310Y-14694895D02*
X13251310Y-14694895D01*
D11*
X13550182Y-14586379D02*
X13569230Y-14586379D01*
X13569230Y-14586379D02*
X13588277Y-14595903D01*
X13588277Y-14595903D02*
X13597801Y-14605426D01*
X13597801Y-14605426D02*
X13607325Y-14624474D01*
X13607325Y-14624474D02*
X13616849Y-14662569D01*
X13616849Y-14662569D02*
X13616849Y-14710188D01*
X13616849Y-14710188D02*
X13607325Y-14748283D01*
X13607325Y-14748283D02*
X13597801Y-14767331D01*
X13597801Y-14767331D02*
X13588277Y-14776855D01*
X13588277Y-14776855D02*
X13569230Y-14786379D01*
X13569230Y-14786379D02*
X13550182Y-14786379D01*
X13550182Y-14786379D02*
X13531134Y-14776855D01*
X13531134Y-14776855D02*
X13521611Y-14767331D01*
X13521611Y-14767331D02*
X13512087Y-14748283D01*
X13512087Y-14748283D02*
X13502563Y-14710188D01*
X13502563Y-14710188D02*
X13502563Y-14662569D01*
X13502563Y-14662569D02*
X13512087Y-14624474D01*
X13512087Y-14624474D02*
X13521611Y-14605426D01*
X13521611Y-14605426D02*
X13531134Y-14595903D01*
X13531134Y-14595903D02*
X13550182Y-14586379D01*
X13702563Y-14767331D02*
X13712087Y-14776855D01*
X13712087Y-14776855D02*
X13702563Y-14786379D01*
X13702563Y-14786379D02*
X13693039Y-14776855D01*
X13693039Y-14776855D02*
X13702563Y-14767331D01*
X13702563Y-14767331D02*
X13702563Y-14786379D01*
X13826372Y-14672093D02*
X13807325Y-14662569D01*
X13807325Y-14662569D02*
X13797801Y-14653045D01*
X13797801Y-14653045D02*
X13788277Y-14633998D01*
X13788277Y-14633998D02*
X13788277Y-14624474D01*
X13788277Y-14624474D02*
X13797801Y-14605426D01*
X13797801Y-14605426D02*
X13807325Y-14595903D01*
X13807325Y-14595903D02*
X13826372Y-14586379D01*
X13826372Y-14586379D02*
X13864468Y-14586379D01*
X13864468Y-14586379D02*
X13883515Y-14595903D01*
X13883515Y-14595903D02*
X13893039Y-14605426D01*
X13893039Y-14605426D02*
X13902563Y-14624474D01*
X13902563Y-14624474D02*
X13902563Y-14633998D01*
X13902563Y-14633998D02*
X13893039Y-14653045D01*
X13893039Y-14653045D02*
X13883515Y-14662569D01*
X13883515Y-14662569D02*
X13864468Y-14672093D01*
X13864468Y-14672093D02*
X13826372Y-14672093D01*
X13826372Y-14672093D02*
X13807325Y-14681617D01*
X13807325Y-14681617D02*
X13797801Y-14691141D01*
X13797801Y-14691141D02*
X13788277Y-14710188D01*
X13788277Y-14710188D02*
X13788277Y-14748283D01*
X13788277Y-14748283D02*
X13797801Y-14767331D01*
X13797801Y-14767331D02*
X13807325Y-14776855D01*
X13807325Y-14776855D02*
X13826372Y-14786379D01*
X13826372Y-14786379D02*
X13864468Y-14786379D01*
X13864468Y-14786379D02*
X13883515Y-14776855D01*
X13883515Y-14776855D02*
X13893039Y-14767331D01*
X13893039Y-14767331D02*
X13902563Y-14748283D01*
X13902563Y-14748283D02*
X13902563Y-14710188D01*
X13902563Y-14710188D02*
X13893039Y-14691141D01*
X13893039Y-14691141D02*
X13883515Y-14681617D01*
X13883515Y-14681617D02*
X13864468Y-14672093D01*
X14026372Y-14586379D02*
X14045420Y-14586379D01*
X14045420Y-14586379D02*
X14064468Y-14595903D01*
X14064468Y-14595903D02*
X14073992Y-14605426D01*
X14073992Y-14605426D02*
X14083515Y-14624474D01*
X14083515Y-14624474D02*
X14093039Y-14662569D01*
X14093039Y-14662569D02*
X14093039Y-14710188D01*
X14093039Y-14710188D02*
X14083515Y-14748283D01*
X14083515Y-14748283D02*
X14073992Y-14767331D01*
X14073992Y-14767331D02*
X14064468Y-14776855D01*
X14064468Y-14776855D02*
X14045420Y-14786379D01*
X14045420Y-14786379D02*
X14026372Y-14786379D01*
X14026372Y-14786379D02*
X14007325Y-14776855D01*
X14007325Y-14776855D02*
X13997801Y-14767331D01*
X13997801Y-14767331D02*
X13988277Y-14748283D01*
X13988277Y-14748283D02*
X13978753Y-14710188D01*
X13978753Y-14710188D02*
X13978753Y-14662569D01*
X13978753Y-14662569D02*
X13988277Y-14624474D01*
X13988277Y-14624474D02*
X13997801Y-14605426D01*
X13997801Y-14605426D02*
X14007325Y-14595903D01*
X14007325Y-14595903D02*
X14026372Y-14586379D01*
X14216849Y-14586379D02*
X14235896Y-14586379D01*
X14235896Y-14586379D02*
X14254944Y-14595903D01*
X14254944Y-14595903D02*
X14264468Y-14605426D01*
X14264468Y-14605426D02*
X14273992Y-14624474D01*
X14273992Y-14624474D02*
X14283515Y-14662569D01*
X14283515Y-14662569D02*
X14283515Y-14710188D01*
X14283515Y-14710188D02*
X14273992Y-14748283D01*
X14273992Y-14748283D02*
X14264468Y-14767331D01*
X14264468Y-14767331D02*
X14254944Y-14776855D01*
X14254944Y-14776855D02*
X14235896Y-14786379D01*
X14235896Y-14786379D02*
X14216849Y-14786379D01*
X14216849Y-14786379D02*
X14197801Y-14776855D01*
X14197801Y-14776855D02*
X14188277Y-14767331D01*
X14188277Y-14767331D02*
X14178753Y-14748283D01*
X14178753Y-14748283D02*
X14169230Y-14710188D01*
X14169230Y-14710188D02*
X14169230Y-14662569D01*
X14169230Y-14662569D02*
X14178753Y-14624474D01*
X14178753Y-14624474D02*
X14188277Y-14605426D01*
X14188277Y-14605426D02*
X14197801Y-14595903D01*
X14197801Y-14595903D02*
X14216849Y-14586379D01*
X14369230Y-14786379D02*
X14369230Y-14653045D01*
X14369230Y-14672093D02*
X14378753Y-14662569D01*
X14378753Y-14662569D02*
X14397801Y-14653045D01*
X14397801Y-14653045D02*
X14426373Y-14653045D01*
X14426373Y-14653045D02*
X14445420Y-14662569D01*
X14445420Y-14662569D02*
X14454944Y-14681617D01*
X14454944Y-14681617D02*
X14454944Y-14786379D01*
X14454944Y-14681617D02*
X14464468Y-14662569D01*
X14464468Y-14662569D02*
X14483515Y-14653045D01*
X14483515Y-14653045D02*
X14512087Y-14653045D01*
X14512087Y-14653045D02*
X14531134Y-14662569D01*
X14531134Y-14662569D02*
X14540658Y-14681617D01*
X14540658Y-14681617D02*
X14540658Y-14786379D01*
X14635896Y-14786379D02*
X14635896Y-14653045D01*
X14635896Y-14672093D02*
X14645420Y-14662569D01*
X14645420Y-14662569D02*
X14664468Y-14653045D01*
X14664468Y-14653045D02*
X14693039Y-14653045D01*
X14693039Y-14653045D02*
X14712087Y-14662569D01*
X14712087Y-14662569D02*
X14721611Y-14681617D01*
X14721611Y-14681617D02*
X14721611Y-14786379D01*
X14721611Y-14681617D02*
X14731134Y-14662569D01*
X14731134Y-14662569D02*
X14750182Y-14653045D01*
X14750182Y-14653045D02*
X14778753Y-14653045D01*
X14778753Y-14653045D02*
X14797801Y-14662569D01*
X14797801Y-14662569D02*
X14807325Y-14681617D01*
X14807325Y-14681617D02*
X14807325Y-14786379D01*
X15197801Y-14576855D02*
X15026373Y-14833998D01*
X15454944Y-14586379D02*
X15473992Y-14586379D01*
X15473992Y-14586379D02*
X15493039Y-14595903D01*
X15493039Y-14595903D02*
X15502563Y-14605426D01*
X15502563Y-14605426D02*
X15512087Y-14624474D01*
X15512087Y-14624474D02*
X15521611Y-14662569D01*
X15521611Y-14662569D02*
X15521611Y-14710188D01*
X15521611Y-14710188D02*
X15512087Y-14748283D01*
X15512087Y-14748283D02*
X15502563Y-14767331D01*
X15502563Y-14767331D02*
X15493039Y-14776855D01*
X15493039Y-14776855D02*
X15473992Y-14786379D01*
X15473992Y-14786379D02*
X15454944Y-14786379D01*
X15454944Y-14786379D02*
X15435896Y-14776855D01*
X15435896Y-14776855D02*
X15426373Y-14767331D01*
X15426373Y-14767331D02*
X15416849Y-14748283D01*
X15416849Y-14748283D02*
X15407325Y-14710188D01*
X15407325Y-14710188D02*
X15407325Y-14662569D01*
X15407325Y-14662569D02*
X15416849Y-14624474D01*
X15416849Y-14624474D02*
X15426373Y-14605426D01*
X15426373Y-14605426D02*
X15435896Y-14595903D01*
X15435896Y-14595903D02*
X15454944Y-14586379D01*
X15607325Y-14767331D02*
X15616849Y-14776855D01*
X15616849Y-14776855D02*
X15607325Y-14786379D01*
X15607325Y-14786379D02*
X15597801Y-14776855D01*
X15597801Y-14776855D02*
X15607325Y-14767331D01*
X15607325Y-14767331D02*
X15607325Y-14786379D01*
X15740658Y-14586379D02*
X15759706Y-14586379D01*
X15759706Y-14586379D02*
X15778754Y-14595903D01*
X15778754Y-14595903D02*
X15788277Y-14605426D01*
X15788277Y-14605426D02*
X15797801Y-14624474D01*
X15797801Y-14624474D02*
X15807325Y-14662569D01*
X15807325Y-14662569D02*
X15807325Y-14710188D01*
X15807325Y-14710188D02*
X15797801Y-14748283D01*
X15797801Y-14748283D02*
X15788277Y-14767331D01*
X15788277Y-14767331D02*
X15778754Y-14776855D01*
X15778754Y-14776855D02*
X15759706Y-14786379D01*
X15759706Y-14786379D02*
X15740658Y-14786379D01*
X15740658Y-14786379D02*
X15721611Y-14776855D01*
X15721611Y-14776855D02*
X15712087Y-14767331D01*
X15712087Y-14767331D02*
X15702563Y-14748283D01*
X15702563Y-14748283D02*
X15693039Y-14710188D01*
X15693039Y-14710188D02*
X15693039Y-14662569D01*
X15693039Y-14662569D02*
X15702563Y-14624474D01*
X15702563Y-14624474D02*
X15712087Y-14605426D01*
X15712087Y-14605426D02*
X15721611Y-14595903D01*
X15721611Y-14595903D02*
X15740658Y-14586379D01*
X15873992Y-14586379D02*
X15997801Y-14586379D01*
X15997801Y-14586379D02*
X15931135Y-14662569D01*
X15931135Y-14662569D02*
X15959706Y-14662569D01*
X15959706Y-14662569D02*
X15978754Y-14672093D01*
X15978754Y-14672093D02*
X15988277Y-14681617D01*
X15988277Y-14681617D02*
X15997801Y-14700664D01*
X15997801Y-14700664D02*
X15997801Y-14748283D01*
X15997801Y-14748283D02*
X15988277Y-14767331D01*
X15988277Y-14767331D02*
X15978754Y-14776855D01*
X15978754Y-14776855D02*
X15959706Y-14786379D01*
X15959706Y-14786379D02*
X15902563Y-14786379D01*
X15902563Y-14786379D02*
X15883516Y-14776855D01*
X15883516Y-14776855D02*
X15873992Y-14767331D01*
X16188277Y-14786379D02*
X16073992Y-14786379D01*
X16131135Y-14786379D02*
X16131135Y-14586379D01*
X16131135Y-14586379D02*
X16112087Y-14614950D01*
X16112087Y-14614950D02*
X16093039Y-14633998D01*
X16093039Y-14633998D02*
X16073992Y-14643522D01*
X16369230Y-14586379D02*
X16273992Y-14586379D01*
X16273992Y-14586379D02*
X16264468Y-14681617D01*
X16264468Y-14681617D02*
X16273992Y-14672093D01*
X16273992Y-14672093D02*
X16293039Y-14662569D01*
X16293039Y-14662569D02*
X16340658Y-14662569D01*
X16340658Y-14662569D02*
X16359706Y-14672093D01*
X16359706Y-14672093D02*
X16369230Y-14681617D01*
X16369230Y-14681617D02*
X16378754Y-14700664D01*
X16378754Y-14700664D02*
X16378754Y-14748283D01*
X16378754Y-14748283D02*
X16369230Y-14767331D01*
X16369230Y-14767331D02*
X16359706Y-14776855D01*
X16359706Y-14776855D02*
X16340658Y-14786379D01*
X16340658Y-14786379D02*
X16293039Y-14786379D01*
X16293039Y-14786379D02*
X16273992Y-14776855D01*
X16273992Y-14776855D02*
X16264468Y-14767331D01*
X16454944Y-14586379D02*
X16454944Y-14624474D01*
X16531135Y-14586379D02*
X16531135Y-14624474D01*
X16826373Y-14862569D02*
X16816849Y-14853045D01*
X16816849Y-14853045D02*
X16797801Y-14824474D01*
X16797801Y-14824474D02*
X16788278Y-14805426D01*
X16788278Y-14805426D02*
X16778754Y-14776855D01*
X16778754Y-14776855D02*
X16769230Y-14729236D01*
X16769230Y-14729236D02*
X16769230Y-14691141D01*
X16769230Y-14691141D02*
X16778754Y-14643522D01*
X16778754Y-14643522D02*
X16788278Y-14614950D01*
X16788278Y-14614950D02*
X16797801Y-14595903D01*
X16797801Y-14595903D02*
X16816849Y-14567331D01*
X16816849Y-14567331D02*
X16826373Y-14557807D01*
X17007325Y-14786379D02*
X16893040Y-14786379D01*
X16950182Y-14786379D02*
X16950182Y-14586379D01*
X16950182Y-14586379D02*
X16931135Y-14614950D01*
X16931135Y-14614950D02*
X16912087Y-14633998D01*
X16912087Y-14633998D02*
X16893040Y-14643522D01*
X17178754Y-14653045D02*
X17178754Y-14786379D01*
X17131135Y-14576855D02*
X17083516Y-14719712D01*
X17083516Y-14719712D02*
X17207325Y-14719712D01*
X17435897Y-14786379D02*
X17435897Y-14586379D01*
X17521611Y-14786379D02*
X17521611Y-14681617D01*
X17521611Y-14681617D02*
X17512087Y-14662569D01*
X17512087Y-14662569D02*
X17493040Y-14653045D01*
X17493040Y-14653045D02*
X17464468Y-14653045D01*
X17464468Y-14653045D02*
X17445421Y-14662569D01*
X17445421Y-14662569D02*
X17435897Y-14672093D01*
X17645421Y-14786379D02*
X17626373Y-14776855D01*
X17626373Y-14776855D02*
X17616849Y-14767331D01*
X17616849Y-14767331D02*
X17607325Y-14748283D01*
X17607325Y-14748283D02*
X17607325Y-14691141D01*
X17607325Y-14691141D02*
X17616849Y-14672093D01*
X17616849Y-14672093D02*
X17626373Y-14662569D01*
X17626373Y-14662569D02*
X17645421Y-14653045D01*
X17645421Y-14653045D02*
X17673992Y-14653045D01*
X17673992Y-14653045D02*
X17693040Y-14662569D01*
X17693040Y-14662569D02*
X17702563Y-14672093D01*
X17702563Y-14672093D02*
X17712087Y-14691141D01*
X17712087Y-14691141D02*
X17712087Y-14748283D01*
X17712087Y-14748283D02*
X17702563Y-14767331D01*
X17702563Y-14767331D02*
X17693040Y-14776855D01*
X17693040Y-14776855D02*
X17673992Y-14786379D01*
X17673992Y-14786379D02*
X17645421Y-14786379D01*
X17826373Y-14786379D02*
X17807325Y-14776855D01*
X17807325Y-14776855D02*
X17797802Y-14757807D01*
X17797802Y-14757807D02*
X17797802Y-14586379D01*
X17978754Y-14776855D02*
X17959706Y-14786379D01*
X17959706Y-14786379D02*
X17921611Y-14786379D01*
X17921611Y-14786379D02*
X17902563Y-14776855D01*
X17902563Y-14776855D02*
X17893040Y-14757807D01*
X17893040Y-14757807D02*
X17893040Y-14681617D01*
X17893040Y-14681617D02*
X17902563Y-14662569D01*
X17902563Y-14662569D02*
X17921611Y-14653045D01*
X17921611Y-14653045D02*
X17959706Y-14653045D01*
X17959706Y-14653045D02*
X17978754Y-14662569D01*
X17978754Y-14662569D02*
X17988278Y-14681617D01*
X17988278Y-14681617D02*
X17988278Y-14700664D01*
X17988278Y-14700664D02*
X17893040Y-14719712D01*
X18064468Y-14776855D02*
X18083516Y-14786379D01*
X18083516Y-14786379D02*
X18121611Y-14786379D01*
X18121611Y-14786379D02*
X18140659Y-14776855D01*
X18140659Y-14776855D02*
X18150183Y-14757807D01*
X18150183Y-14757807D02*
X18150183Y-14748283D01*
X18150183Y-14748283D02*
X18140659Y-14729236D01*
X18140659Y-14729236D02*
X18121611Y-14719712D01*
X18121611Y-14719712D02*
X18093040Y-14719712D01*
X18093040Y-14719712D02*
X18073992Y-14710188D01*
X18073992Y-14710188D02*
X18064468Y-14691141D01*
X18064468Y-14691141D02*
X18064468Y-14681617D01*
X18064468Y-14681617D02*
X18073992Y-14662569D01*
X18073992Y-14662569D02*
X18093040Y-14653045D01*
X18093040Y-14653045D02*
X18121611Y-14653045D01*
X18121611Y-14653045D02*
X18140659Y-14662569D01*
X18216849Y-14862569D02*
X18226373Y-14853045D01*
X18226373Y-14853045D02*
X18245421Y-14824474D01*
X18245421Y-14824474D02*
X18254944Y-14805426D01*
X18254944Y-14805426D02*
X18264468Y-14776855D01*
X18264468Y-14776855D02*
X18273992Y-14729236D01*
X18273992Y-14729236D02*
X18273992Y-14691141D01*
X18273992Y-14691141D02*
X18264468Y-14643522D01*
X18264468Y-14643522D02*
X18254944Y-14614950D01*
X18254944Y-14614950D02*
X18245421Y-14595903D01*
X18245421Y-14595903D02*
X18226373Y-14567331D01*
X18226373Y-14567331D02*
X18216849Y-14557807D01*
D12*
X13238130Y-14990715D02*
X13238130Y-14927075D01*
X13174490Y-14927075D01*
X13174490Y-14990715D01*
X13238130Y-14990715D01*
D11*
X13550182Y-14850379D02*
X13569230Y-14850379D01*
X13569230Y-14850379D02*
X13588277Y-14859903D01*
X13588277Y-14859903D02*
X13597801Y-14869426D01*
X13597801Y-14869426D02*
X13607325Y-14888474D01*
X13607325Y-14888474D02*
X13616849Y-14926569D01*
X13616849Y-14926569D02*
X13616849Y-14974188D01*
X13616849Y-14974188D02*
X13607325Y-15012283D01*
X13607325Y-15012283D02*
X13597801Y-15031331D01*
X13597801Y-15031331D02*
X13588277Y-15040855D01*
X13588277Y-15040855D02*
X13569230Y-15050379D01*
X13569230Y-15050379D02*
X13550182Y-15050379D01*
X13550182Y-15050379D02*
X13531134Y-15040855D01*
X13531134Y-15040855D02*
X13521611Y-15031331D01*
X13521611Y-15031331D02*
X13512087Y-15012283D01*
X13512087Y-15012283D02*
X13502563Y-14974188D01*
X13502563Y-14974188D02*
X13502563Y-14926569D01*
X13502563Y-14926569D02*
X13512087Y-14888474D01*
X13512087Y-14888474D02*
X13521611Y-14869426D01*
X13521611Y-14869426D02*
X13531134Y-14859903D01*
X13531134Y-14859903D02*
X13550182Y-14850379D01*
X13702563Y-15031331D02*
X13712087Y-15040855D01*
X13712087Y-15040855D02*
X13702563Y-15050379D01*
X13702563Y-15050379D02*
X13693039Y-15040855D01*
X13693039Y-15040855D02*
X13702563Y-15031331D01*
X13702563Y-15031331D02*
X13702563Y-15050379D01*
X13807325Y-15050379D02*
X13845420Y-15050379D01*
X13845420Y-15050379D02*
X13864468Y-15040855D01*
X13864468Y-15040855D02*
X13873992Y-15031331D01*
X13873992Y-15031331D02*
X13893039Y-15002760D01*
X13893039Y-15002760D02*
X13902563Y-14964664D01*
X13902563Y-14964664D02*
X13902563Y-14888474D01*
X13902563Y-14888474D02*
X13893039Y-14869426D01*
X13893039Y-14869426D02*
X13883515Y-14859903D01*
X13883515Y-14859903D02*
X13864468Y-14850379D01*
X13864468Y-14850379D02*
X13826372Y-14850379D01*
X13826372Y-14850379D02*
X13807325Y-14859903D01*
X13807325Y-14859903D02*
X13797801Y-14869426D01*
X13797801Y-14869426D02*
X13788277Y-14888474D01*
X13788277Y-14888474D02*
X13788277Y-14936093D01*
X13788277Y-14936093D02*
X13797801Y-14955141D01*
X13797801Y-14955141D02*
X13807325Y-14964664D01*
X13807325Y-14964664D02*
X13826372Y-14974188D01*
X13826372Y-14974188D02*
X13864468Y-14974188D01*
X13864468Y-14974188D02*
X13883515Y-14964664D01*
X13883515Y-14964664D02*
X13893039Y-14955141D01*
X13893039Y-14955141D02*
X13902563Y-14936093D01*
X14026372Y-14850379D02*
X14045420Y-14850379D01*
X14045420Y-14850379D02*
X14064468Y-14859903D01*
X14064468Y-14859903D02*
X14073992Y-14869426D01*
X14073992Y-14869426D02*
X14083515Y-14888474D01*
X14083515Y-14888474D02*
X14093039Y-14926569D01*
X14093039Y-14926569D02*
X14093039Y-14974188D01*
X14093039Y-14974188D02*
X14083515Y-15012283D01*
X14083515Y-15012283D02*
X14073992Y-15031331D01*
X14073992Y-15031331D02*
X14064468Y-15040855D01*
X14064468Y-15040855D02*
X14045420Y-15050379D01*
X14045420Y-15050379D02*
X14026372Y-15050379D01*
X14026372Y-15050379D02*
X14007325Y-15040855D01*
X14007325Y-15040855D02*
X13997801Y-15031331D01*
X13997801Y-15031331D02*
X13988277Y-15012283D01*
X13988277Y-15012283D02*
X13978753Y-14974188D01*
X13978753Y-14974188D02*
X13978753Y-14926569D01*
X13978753Y-14926569D02*
X13988277Y-14888474D01*
X13988277Y-14888474D02*
X13997801Y-14869426D01*
X13997801Y-14869426D02*
X14007325Y-14859903D01*
X14007325Y-14859903D02*
X14026372Y-14850379D01*
X14216849Y-14850379D02*
X14235896Y-14850379D01*
X14235896Y-14850379D02*
X14254944Y-14859903D01*
X14254944Y-14859903D02*
X14264468Y-14869426D01*
X14264468Y-14869426D02*
X14273992Y-14888474D01*
X14273992Y-14888474D02*
X14283515Y-14926569D01*
X14283515Y-14926569D02*
X14283515Y-14974188D01*
X14283515Y-14974188D02*
X14273992Y-15012283D01*
X14273992Y-15012283D02*
X14264468Y-15031331D01*
X14264468Y-15031331D02*
X14254944Y-15040855D01*
X14254944Y-15040855D02*
X14235896Y-15050379D01*
X14235896Y-15050379D02*
X14216849Y-15050379D01*
X14216849Y-15050379D02*
X14197801Y-15040855D01*
X14197801Y-15040855D02*
X14188277Y-15031331D01*
X14188277Y-15031331D02*
X14178753Y-15012283D01*
X14178753Y-15012283D02*
X14169230Y-14974188D01*
X14169230Y-14974188D02*
X14169230Y-14926569D01*
X14169230Y-14926569D02*
X14178753Y-14888474D01*
X14178753Y-14888474D02*
X14188277Y-14869426D01*
X14188277Y-14869426D02*
X14197801Y-14859903D01*
X14197801Y-14859903D02*
X14216849Y-14850379D01*
X14369230Y-15050379D02*
X14369230Y-14917045D01*
X14369230Y-14936093D02*
X14378753Y-14926569D01*
X14378753Y-14926569D02*
X14397801Y-14917045D01*
X14397801Y-14917045D02*
X14426373Y-14917045D01*
X14426373Y-14917045D02*
X14445420Y-14926569D01*
X14445420Y-14926569D02*
X14454944Y-14945617D01*
X14454944Y-14945617D02*
X14454944Y-15050379D01*
X14454944Y-14945617D02*
X14464468Y-14926569D01*
X14464468Y-14926569D02*
X14483515Y-14917045D01*
X14483515Y-14917045D02*
X14512087Y-14917045D01*
X14512087Y-14917045D02*
X14531134Y-14926569D01*
X14531134Y-14926569D02*
X14540658Y-14945617D01*
X14540658Y-14945617D02*
X14540658Y-15050379D01*
X14635896Y-15050379D02*
X14635896Y-14917045D01*
X14635896Y-14936093D02*
X14645420Y-14926569D01*
X14645420Y-14926569D02*
X14664468Y-14917045D01*
X14664468Y-14917045D02*
X14693039Y-14917045D01*
X14693039Y-14917045D02*
X14712087Y-14926569D01*
X14712087Y-14926569D02*
X14721611Y-14945617D01*
X14721611Y-14945617D02*
X14721611Y-15050379D01*
X14721611Y-14945617D02*
X14731134Y-14926569D01*
X14731134Y-14926569D02*
X14750182Y-14917045D01*
X14750182Y-14917045D02*
X14778753Y-14917045D01*
X14778753Y-14917045D02*
X14797801Y-14926569D01*
X14797801Y-14926569D02*
X14807325Y-14945617D01*
X14807325Y-14945617D02*
X14807325Y-15050379D01*
X15197801Y-14840855D02*
X15026373Y-15097998D01*
X15454944Y-14850379D02*
X15473992Y-14850379D01*
X15473992Y-14850379D02*
X15493039Y-14859903D01*
X15493039Y-14859903D02*
X15502563Y-14869426D01*
X15502563Y-14869426D02*
X15512087Y-14888474D01*
X15512087Y-14888474D02*
X15521611Y-14926569D01*
X15521611Y-14926569D02*
X15521611Y-14974188D01*
X15521611Y-14974188D02*
X15512087Y-15012283D01*
X15512087Y-15012283D02*
X15502563Y-15031331D01*
X15502563Y-15031331D02*
X15493039Y-15040855D01*
X15493039Y-15040855D02*
X15473992Y-15050379D01*
X15473992Y-15050379D02*
X15454944Y-15050379D01*
X15454944Y-15050379D02*
X15435896Y-15040855D01*
X15435896Y-15040855D02*
X15426373Y-15031331D01*
X15426373Y-15031331D02*
X15416849Y-15012283D01*
X15416849Y-15012283D02*
X15407325Y-14974188D01*
X15407325Y-14974188D02*
X15407325Y-14926569D01*
X15407325Y-14926569D02*
X15416849Y-14888474D01*
X15416849Y-14888474D02*
X15426373Y-14869426D01*
X15426373Y-14869426D02*
X15435896Y-14859903D01*
X15435896Y-14859903D02*
X15454944Y-14850379D01*
X15607325Y-15031331D02*
X15616849Y-15040855D01*
X15616849Y-15040855D02*
X15607325Y-15050379D01*
X15607325Y-15050379D02*
X15597801Y-15040855D01*
X15597801Y-15040855D02*
X15607325Y-15031331D01*
X15607325Y-15031331D02*
X15607325Y-15050379D01*
X15740658Y-14850379D02*
X15759706Y-14850379D01*
X15759706Y-14850379D02*
X15778754Y-14859903D01*
X15778754Y-14859903D02*
X15788277Y-14869426D01*
X15788277Y-14869426D02*
X15797801Y-14888474D01*
X15797801Y-14888474D02*
X15807325Y-14926569D01*
X15807325Y-14926569D02*
X15807325Y-14974188D01*
X15807325Y-14974188D02*
X15797801Y-15012283D01*
X15797801Y-15012283D02*
X15788277Y-15031331D01*
X15788277Y-15031331D02*
X15778754Y-15040855D01*
X15778754Y-15040855D02*
X15759706Y-15050379D01*
X15759706Y-15050379D02*
X15740658Y-15050379D01*
X15740658Y-15050379D02*
X15721611Y-15040855D01*
X15721611Y-15040855D02*
X15712087Y-15031331D01*
X15712087Y-15031331D02*
X15702563Y-15012283D01*
X15702563Y-15012283D02*
X15693039Y-14974188D01*
X15693039Y-14974188D02*
X15693039Y-14926569D01*
X15693039Y-14926569D02*
X15702563Y-14888474D01*
X15702563Y-14888474D02*
X15712087Y-14869426D01*
X15712087Y-14869426D02*
X15721611Y-14859903D01*
X15721611Y-14859903D02*
X15740658Y-14850379D01*
X15873992Y-14850379D02*
X15997801Y-14850379D01*
X15997801Y-14850379D02*
X15931135Y-14926569D01*
X15931135Y-14926569D02*
X15959706Y-14926569D01*
X15959706Y-14926569D02*
X15978754Y-14936093D01*
X15978754Y-14936093D02*
X15988277Y-14945617D01*
X15988277Y-14945617D02*
X15997801Y-14964664D01*
X15997801Y-14964664D02*
X15997801Y-15012283D01*
X15997801Y-15012283D02*
X15988277Y-15031331D01*
X15988277Y-15031331D02*
X15978754Y-15040855D01*
X15978754Y-15040855D02*
X15959706Y-15050379D01*
X15959706Y-15050379D02*
X15902563Y-15050379D01*
X15902563Y-15050379D02*
X15883516Y-15040855D01*
X15883516Y-15040855D02*
X15873992Y-15031331D01*
X16178754Y-14850379D02*
X16083516Y-14850379D01*
X16083516Y-14850379D02*
X16073992Y-14945617D01*
X16073992Y-14945617D02*
X16083516Y-14936093D01*
X16083516Y-14936093D02*
X16102563Y-14926569D01*
X16102563Y-14926569D02*
X16150182Y-14926569D01*
X16150182Y-14926569D02*
X16169230Y-14936093D01*
X16169230Y-14936093D02*
X16178754Y-14945617D01*
X16178754Y-14945617D02*
X16188277Y-14964664D01*
X16188277Y-14964664D02*
X16188277Y-15012283D01*
X16188277Y-15012283D02*
X16178754Y-15031331D01*
X16178754Y-15031331D02*
X16169230Y-15040855D01*
X16169230Y-15040855D02*
X16150182Y-15050379D01*
X16150182Y-15050379D02*
X16102563Y-15050379D01*
X16102563Y-15050379D02*
X16083516Y-15040855D01*
X16083516Y-15040855D02*
X16073992Y-15031331D01*
X16359706Y-14917045D02*
X16359706Y-15050379D01*
X16312087Y-14840855D02*
X16264468Y-14983712D01*
X16264468Y-14983712D02*
X16388277Y-14983712D01*
X16454944Y-14850379D02*
X16454944Y-14888474D01*
X16531135Y-14850379D02*
X16531135Y-14888474D01*
X16826373Y-15126569D02*
X16816849Y-15117045D01*
X16816849Y-15117045D02*
X16797801Y-15088474D01*
X16797801Y-15088474D02*
X16788278Y-15069426D01*
X16788278Y-15069426D02*
X16778754Y-15040855D01*
X16778754Y-15040855D02*
X16769230Y-14993236D01*
X16769230Y-14993236D02*
X16769230Y-14955141D01*
X16769230Y-14955141D02*
X16778754Y-14907522D01*
X16778754Y-14907522D02*
X16788278Y-14878950D01*
X16788278Y-14878950D02*
X16797801Y-14859903D01*
X16797801Y-14859903D02*
X16816849Y-14831331D01*
X16816849Y-14831331D02*
X16826373Y-14821807D01*
X16893040Y-14869426D02*
X16902563Y-14859903D01*
X16902563Y-14859903D02*
X16921611Y-14850379D01*
X16921611Y-14850379D02*
X16969230Y-14850379D01*
X16969230Y-14850379D02*
X16988278Y-14859903D01*
X16988278Y-14859903D02*
X16997801Y-14869426D01*
X16997801Y-14869426D02*
X17007325Y-14888474D01*
X17007325Y-14888474D02*
X17007325Y-14907522D01*
X17007325Y-14907522D02*
X16997801Y-14936093D01*
X16997801Y-14936093D02*
X16883516Y-15050379D01*
X16883516Y-15050379D02*
X17007325Y-15050379D01*
X17245421Y-15050379D02*
X17245421Y-14850379D01*
X17331135Y-15050379D02*
X17331135Y-14945617D01*
X17331135Y-14945617D02*
X17321611Y-14926569D01*
X17321611Y-14926569D02*
X17302563Y-14917045D01*
X17302563Y-14917045D02*
X17273992Y-14917045D01*
X17273992Y-14917045D02*
X17254944Y-14926569D01*
X17254944Y-14926569D02*
X17245421Y-14936093D01*
X17454944Y-15050379D02*
X17435897Y-15040855D01*
X17435897Y-15040855D02*
X17426373Y-15031331D01*
X17426373Y-15031331D02*
X17416849Y-15012283D01*
X17416849Y-15012283D02*
X17416849Y-14955141D01*
X17416849Y-14955141D02*
X17426373Y-14936093D01*
X17426373Y-14936093D02*
X17435897Y-14926569D01*
X17435897Y-14926569D02*
X17454944Y-14917045D01*
X17454944Y-14917045D02*
X17483516Y-14917045D01*
X17483516Y-14917045D02*
X17502563Y-14926569D01*
X17502563Y-14926569D02*
X17512087Y-14936093D01*
X17512087Y-14936093D02*
X17521611Y-14955141D01*
X17521611Y-14955141D02*
X17521611Y-15012283D01*
X17521611Y-15012283D02*
X17512087Y-15031331D01*
X17512087Y-15031331D02*
X17502563Y-15040855D01*
X17502563Y-15040855D02*
X17483516Y-15050379D01*
X17483516Y-15050379D02*
X17454944Y-15050379D01*
X17635897Y-15050379D02*
X17616849Y-15040855D01*
X17616849Y-15040855D02*
X17607325Y-15021807D01*
X17607325Y-15021807D02*
X17607325Y-14850379D01*
X17788278Y-15040855D02*
X17769230Y-15050379D01*
X17769230Y-15050379D02*
X17731135Y-15050379D01*
X17731135Y-15050379D02*
X17712087Y-15040855D01*
X17712087Y-15040855D02*
X17702563Y-15021807D01*
X17702563Y-15021807D02*
X17702563Y-14945617D01*
X17702563Y-14945617D02*
X17712087Y-14926569D01*
X17712087Y-14926569D02*
X17731135Y-14917045D01*
X17731135Y-14917045D02*
X17769230Y-14917045D01*
X17769230Y-14917045D02*
X17788278Y-14926569D01*
X17788278Y-14926569D02*
X17797802Y-14945617D01*
X17797802Y-14945617D02*
X17797802Y-14964664D01*
X17797802Y-14964664D02*
X17702563Y-14983712D01*
X17873992Y-15040855D02*
X17893040Y-15050379D01*
X17893040Y-15050379D02*
X17931135Y-15050379D01*
X17931135Y-15050379D02*
X17950183Y-15040855D01*
X17950183Y-15040855D02*
X17959706Y-15021807D01*
X17959706Y-15021807D02*
X17959706Y-15012283D01*
X17959706Y-15012283D02*
X17950183Y-14993236D01*
X17950183Y-14993236D02*
X17931135Y-14983712D01*
X17931135Y-14983712D02*
X17902563Y-14983712D01*
X17902563Y-14983712D02*
X17883516Y-14974188D01*
X17883516Y-14974188D02*
X17873992Y-14955141D01*
X17873992Y-14955141D02*
X17873992Y-14945617D01*
X17873992Y-14945617D02*
X17883516Y-14926569D01*
X17883516Y-14926569D02*
X17902563Y-14917045D01*
X17902563Y-14917045D02*
X17931135Y-14917045D01*
X17931135Y-14917045D02*
X17950183Y-14926569D01*
X18026373Y-15126569D02*
X18035897Y-15117045D01*
X18035897Y-15117045D02*
X18054944Y-15088474D01*
X18054944Y-15088474D02*
X18064468Y-15069426D01*
X18064468Y-15069426D02*
X18073992Y-15040855D01*
X18073992Y-15040855D02*
X18083516Y-14993236D01*
X18083516Y-14993236D02*
X18083516Y-14955141D01*
X18083516Y-14955141D02*
X18073992Y-14907522D01*
X18073992Y-14907522D02*
X18064468Y-14878950D01*
X18064468Y-14878950D02*
X18054944Y-14859903D01*
X18054944Y-14859903D02*
X18035897Y-14831331D01*
X18035897Y-14831331D02*
X18026373Y-14821807D01*
D12*
X13201310Y-15272895D02*
X13251310Y-15222895D01*
X13201310Y-15172895D01*
X13151310Y-15222895D01*
X13201310Y-15272895D01*
D11*
X13616849Y-15314379D02*
X13502563Y-15314379D01*
X13559706Y-15314379D02*
X13559706Y-15114379D01*
X13559706Y-15114379D02*
X13540658Y-15142950D01*
X13540658Y-15142950D02*
X13521611Y-15161998D01*
X13521611Y-15161998D02*
X13502563Y-15171522D01*
X13702563Y-15295331D02*
X13712087Y-15304855D01*
X13712087Y-15304855D02*
X13702563Y-15314379D01*
X13702563Y-15314379D02*
X13693039Y-15304855D01*
X13693039Y-15304855D02*
X13702563Y-15295331D01*
X13702563Y-15295331D02*
X13702563Y-15314379D01*
X13835896Y-15114379D02*
X13854944Y-15114379D01*
X13854944Y-15114379D02*
X13873992Y-15123903D01*
X13873992Y-15123903D02*
X13883515Y-15133426D01*
X13883515Y-15133426D02*
X13893039Y-15152474D01*
X13893039Y-15152474D02*
X13902563Y-15190569D01*
X13902563Y-15190569D02*
X13902563Y-15238188D01*
X13902563Y-15238188D02*
X13893039Y-15276283D01*
X13893039Y-15276283D02*
X13883515Y-15295331D01*
X13883515Y-15295331D02*
X13873992Y-15304855D01*
X13873992Y-15304855D02*
X13854944Y-15314379D01*
X13854944Y-15314379D02*
X13835896Y-15314379D01*
X13835896Y-15314379D02*
X13816849Y-15304855D01*
X13816849Y-15304855D02*
X13807325Y-15295331D01*
X13807325Y-15295331D02*
X13797801Y-15276283D01*
X13797801Y-15276283D02*
X13788277Y-15238188D01*
X13788277Y-15238188D02*
X13788277Y-15190569D01*
X13788277Y-15190569D02*
X13797801Y-15152474D01*
X13797801Y-15152474D02*
X13807325Y-15133426D01*
X13807325Y-15133426D02*
X13816849Y-15123903D01*
X13816849Y-15123903D02*
X13835896Y-15114379D01*
X14026372Y-15114379D02*
X14045420Y-15114379D01*
X14045420Y-15114379D02*
X14064468Y-15123903D01*
X14064468Y-15123903D02*
X14073992Y-15133426D01*
X14073992Y-15133426D02*
X14083515Y-15152474D01*
X14083515Y-15152474D02*
X14093039Y-15190569D01*
X14093039Y-15190569D02*
X14093039Y-15238188D01*
X14093039Y-15238188D02*
X14083515Y-15276283D01*
X14083515Y-15276283D02*
X14073992Y-15295331D01*
X14073992Y-15295331D02*
X14064468Y-15304855D01*
X14064468Y-15304855D02*
X14045420Y-15314379D01*
X14045420Y-15314379D02*
X14026372Y-15314379D01*
X14026372Y-15314379D02*
X14007325Y-15304855D01*
X14007325Y-15304855D02*
X13997801Y-15295331D01*
X13997801Y-15295331D02*
X13988277Y-15276283D01*
X13988277Y-15276283D02*
X13978753Y-15238188D01*
X13978753Y-15238188D02*
X13978753Y-15190569D01*
X13978753Y-15190569D02*
X13988277Y-15152474D01*
X13988277Y-15152474D02*
X13997801Y-15133426D01*
X13997801Y-15133426D02*
X14007325Y-15123903D01*
X14007325Y-15123903D02*
X14026372Y-15114379D01*
X14216849Y-15114379D02*
X14235896Y-15114379D01*
X14235896Y-15114379D02*
X14254944Y-15123903D01*
X14254944Y-15123903D02*
X14264468Y-15133426D01*
X14264468Y-15133426D02*
X14273992Y-15152474D01*
X14273992Y-15152474D02*
X14283515Y-15190569D01*
X14283515Y-15190569D02*
X14283515Y-15238188D01*
X14283515Y-15238188D02*
X14273992Y-15276283D01*
X14273992Y-15276283D02*
X14264468Y-15295331D01*
X14264468Y-15295331D02*
X14254944Y-15304855D01*
X14254944Y-15304855D02*
X14235896Y-15314379D01*
X14235896Y-15314379D02*
X14216849Y-15314379D01*
X14216849Y-15314379D02*
X14197801Y-15304855D01*
X14197801Y-15304855D02*
X14188277Y-15295331D01*
X14188277Y-15295331D02*
X14178753Y-15276283D01*
X14178753Y-15276283D02*
X14169230Y-15238188D01*
X14169230Y-15238188D02*
X14169230Y-15190569D01*
X14169230Y-15190569D02*
X14178753Y-15152474D01*
X14178753Y-15152474D02*
X14188277Y-15133426D01*
X14188277Y-15133426D02*
X14197801Y-15123903D01*
X14197801Y-15123903D02*
X14216849Y-15114379D01*
X14369230Y-15314379D02*
X14369230Y-15181045D01*
X14369230Y-15200093D02*
X14378753Y-15190569D01*
X14378753Y-15190569D02*
X14397801Y-15181045D01*
X14397801Y-15181045D02*
X14426373Y-15181045D01*
X14426373Y-15181045D02*
X14445420Y-15190569D01*
X14445420Y-15190569D02*
X14454944Y-15209617D01*
X14454944Y-15209617D02*
X14454944Y-15314379D01*
X14454944Y-15209617D02*
X14464468Y-15190569D01*
X14464468Y-15190569D02*
X14483515Y-15181045D01*
X14483515Y-15181045D02*
X14512087Y-15181045D01*
X14512087Y-15181045D02*
X14531134Y-15190569D01*
X14531134Y-15190569D02*
X14540658Y-15209617D01*
X14540658Y-15209617D02*
X14540658Y-15314379D01*
X14635896Y-15314379D02*
X14635896Y-15181045D01*
X14635896Y-15200093D02*
X14645420Y-15190569D01*
X14645420Y-15190569D02*
X14664468Y-15181045D01*
X14664468Y-15181045D02*
X14693039Y-15181045D01*
X14693039Y-15181045D02*
X14712087Y-15190569D01*
X14712087Y-15190569D02*
X14721611Y-15209617D01*
X14721611Y-15209617D02*
X14721611Y-15314379D01*
X14721611Y-15209617D02*
X14731134Y-15190569D01*
X14731134Y-15190569D02*
X14750182Y-15181045D01*
X14750182Y-15181045D02*
X14778753Y-15181045D01*
X14778753Y-15181045D02*
X14797801Y-15190569D01*
X14797801Y-15190569D02*
X14807325Y-15209617D01*
X14807325Y-15209617D02*
X14807325Y-15314379D01*
X15197801Y-15104855D02*
X15026373Y-15361998D01*
X15454944Y-15114379D02*
X15473992Y-15114379D01*
X15473992Y-15114379D02*
X15493039Y-15123903D01*
X15493039Y-15123903D02*
X15502563Y-15133426D01*
X15502563Y-15133426D02*
X15512087Y-15152474D01*
X15512087Y-15152474D02*
X15521611Y-15190569D01*
X15521611Y-15190569D02*
X15521611Y-15238188D01*
X15521611Y-15238188D02*
X15512087Y-15276283D01*
X15512087Y-15276283D02*
X15502563Y-15295331D01*
X15502563Y-15295331D02*
X15493039Y-15304855D01*
X15493039Y-15304855D02*
X15473992Y-15314379D01*
X15473992Y-15314379D02*
X15454944Y-15314379D01*
X15454944Y-15314379D02*
X15435896Y-15304855D01*
X15435896Y-15304855D02*
X15426373Y-15295331D01*
X15426373Y-15295331D02*
X15416849Y-15276283D01*
X15416849Y-15276283D02*
X15407325Y-15238188D01*
X15407325Y-15238188D02*
X15407325Y-15190569D01*
X15407325Y-15190569D02*
X15416849Y-15152474D01*
X15416849Y-15152474D02*
X15426373Y-15133426D01*
X15426373Y-15133426D02*
X15435896Y-15123903D01*
X15435896Y-15123903D02*
X15454944Y-15114379D01*
X15607325Y-15295331D02*
X15616849Y-15304855D01*
X15616849Y-15304855D02*
X15607325Y-15314379D01*
X15607325Y-15314379D02*
X15597801Y-15304855D01*
X15597801Y-15304855D02*
X15607325Y-15295331D01*
X15607325Y-15295331D02*
X15607325Y-15314379D01*
X15740658Y-15114379D02*
X15759706Y-15114379D01*
X15759706Y-15114379D02*
X15778754Y-15123903D01*
X15778754Y-15123903D02*
X15788277Y-15133426D01*
X15788277Y-15133426D02*
X15797801Y-15152474D01*
X15797801Y-15152474D02*
X15807325Y-15190569D01*
X15807325Y-15190569D02*
X15807325Y-15238188D01*
X15807325Y-15238188D02*
X15797801Y-15276283D01*
X15797801Y-15276283D02*
X15788277Y-15295331D01*
X15788277Y-15295331D02*
X15778754Y-15304855D01*
X15778754Y-15304855D02*
X15759706Y-15314379D01*
X15759706Y-15314379D02*
X15740658Y-15314379D01*
X15740658Y-15314379D02*
X15721611Y-15304855D01*
X15721611Y-15304855D02*
X15712087Y-15295331D01*
X15712087Y-15295331D02*
X15702563Y-15276283D01*
X15702563Y-15276283D02*
X15693039Y-15238188D01*
X15693039Y-15238188D02*
X15693039Y-15190569D01*
X15693039Y-15190569D02*
X15702563Y-15152474D01*
X15702563Y-15152474D02*
X15712087Y-15133426D01*
X15712087Y-15133426D02*
X15721611Y-15123903D01*
X15721611Y-15123903D02*
X15740658Y-15114379D01*
X15873992Y-15114379D02*
X15997801Y-15114379D01*
X15997801Y-15114379D02*
X15931135Y-15190569D01*
X15931135Y-15190569D02*
X15959706Y-15190569D01*
X15959706Y-15190569D02*
X15978754Y-15200093D01*
X15978754Y-15200093D02*
X15988277Y-15209617D01*
X15988277Y-15209617D02*
X15997801Y-15228664D01*
X15997801Y-15228664D02*
X15997801Y-15276283D01*
X15997801Y-15276283D02*
X15988277Y-15295331D01*
X15988277Y-15295331D02*
X15978754Y-15304855D01*
X15978754Y-15304855D02*
X15959706Y-15314379D01*
X15959706Y-15314379D02*
X15902563Y-15314379D01*
X15902563Y-15314379D02*
X15883516Y-15304855D01*
X15883516Y-15304855D02*
X15873992Y-15295331D01*
X16093039Y-15314379D02*
X16131135Y-15314379D01*
X16131135Y-15314379D02*
X16150182Y-15304855D01*
X16150182Y-15304855D02*
X16159706Y-15295331D01*
X16159706Y-15295331D02*
X16178754Y-15266760D01*
X16178754Y-15266760D02*
X16188277Y-15228664D01*
X16188277Y-15228664D02*
X16188277Y-15152474D01*
X16188277Y-15152474D02*
X16178754Y-15133426D01*
X16178754Y-15133426D02*
X16169230Y-15123903D01*
X16169230Y-15123903D02*
X16150182Y-15114379D01*
X16150182Y-15114379D02*
X16112087Y-15114379D01*
X16112087Y-15114379D02*
X16093039Y-15123903D01*
X16093039Y-15123903D02*
X16083516Y-15133426D01*
X16083516Y-15133426D02*
X16073992Y-15152474D01*
X16073992Y-15152474D02*
X16073992Y-15200093D01*
X16073992Y-15200093D02*
X16083516Y-15219141D01*
X16083516Y-15219141D02*
X16093039Y-15228664D01*
X16093039Y-15228664D02*
X16112087Y-15238188D01*
X16112087Y-15238188D02*
X16150182Y-15238188D01*
X16150182Y-15238188D02*
X16169230Y-15228664D01*
X16169230Y-15228664D02*
X16178754Y-15219141D01*
X16178754Y-15219141D02*
X16188277Y-15200093D01*
X16359706Y-15181045D02*
X16359706Y-15314379D01*
X16312087Y-15104855D02*
X16264468Y-15247712D01*
X16264468Y-15247712D02*
X16388277Y-15247712D01*
X16454944Y-15114379D02*
X16454944Y-15152474D01*
X16531135Y-15114379D02*
X16531135Y-15152474D01*
X16826373Y-15390569D02*
X16816849Y-15381045D01*
X16816849Y-15381045D02*
X16797801Y-15352474D01*
X16797801Y-15352474D02*
X16788278Y-15333426D01*
X16788278Y-15333426D02*
X16778754Y-15304855D01*
X16778754Y-15304855D02*
X16769230Y-15257236D01*
X16769230Y-15257236D02*
X16769230Y-15219141D01*
X16769230Y-15219141D02*
X16778754Y-15171522D01*
X16778754Y-15171522D02*
X16788278Y-15142950D01*
X16788278Y-15142950D02*
X16797801Y-15123903D01*
X16797801Y-15123903D02*
X16816849Y-15095331D01*
X16816849Y-15095331D02*
X16826373Y-15085807D01*
X16893040Y-15133426D02*
X16902563Y-15123903D01*
X16902563Y-15123903D02*
X16921611Y-15114379D01*
X16921611Y-15114379D02*
X16969230Y-15114379D01*
X16969230Y-15114379D02*
X16988278Y-15123903D01*
X16988278Y-15123903D02*
X16997801Y-15133426D01*
X16997801Y-15133426D02*
X17007325Y-15152474D01*
X17007325Y-15152474D02*
X17007325Y-15171522D01*
X17007325Y-15171522D02*
X16997801Y-15200093D01*
X16997801Y-15200093D02*
X16883516Y-15314379D01*
X16883516Y-15314379D02*
X17007325Y-15314379D01*
X17197801Y-15314379D02*
X17083516Y-15314379D01*
X17140659Y-15314379D02*
X17140659Y-15114379D01*
X17140659Y-15114379D02*
X17121611Y-15142950D01*
X17121611Y-15142950D02*
X17102563Y-15161998D01*
X17102563Y-15161998D02*
X17083516Y-15171522D01*
X17435897Y-15314379D02*
X17435897Y-15114379D01*
X17521611Y-15314379D02*
X17521611Y-15209617D01*
X17521611Y-15209617D02*
X17512087Y-15190569D01*
X17512087Y-15190569D02*
X17493040Y-15181045D01*
X17493040Y-15181045D02*
X17464468Y-15181045D01*
X17464468Y-15181045D02*
X17445421Y-15190569D01*
X17445421Y-15190569D02*
X17435897Y-15200093D01*
X17645421Y-15314379D02*
X17626373Y-15304855D01*
X17626373Y-15304855D02*
X17616849Y-15295331D01*
X17616849Y-15295331D02*
X17607325Y-15276283D01*
X17607325Y-15276283D02*
X17607325Y-15219141D01*
X17607325Y-15219141D02*
X17616849Y-15200093D01*
X17616849Y-15200093D02*
X17626373Y-15190569D01*
X17626373Y-15190569D02*
X17645421Y-15181045D01*
X17645421Y-15181045D02*
X17673992Y-15181045D01*
X17673992Y-15181045D02*
X17693040Y-15190569D01*
X17693040Y-15190569D02*
X17702563Y-15200093D01*
X17702563Y-15200093D02*
X17712087Y-15219141D01*
X17712087Y-15219141D02*
X17712087Y-15276283D01*
X17712087Y-15276283D02*
X17702563Y-15295331D01*
X17702563Y-15295331D02*
X17693040Y-15304855D01*
X17693040Y-15304855D02*
X17673992Y-15314379D01*
X17673992Y-15314379D02*
X17645421Y-15314379D01*
X17826373Y-15314379D02*
X17807325Y-15304855D01*
X17807325Y-15304855D02*
X17797802Y-15285807D01*
X17797802Y-15285807D02*
X17797802Y-15114379D01*
X17978754Y-15304855D02*
X17959706Y-15314379D01*
X17959706Y-15314379D02*
X17921611Y-15314379D01*
X17921611Y-15314379D02*
X17902563Y-15304855D01*
X17902563Y-15304855D02*
X17893040Y-15285807D01*
X17893040Y-15285807D02*
X17893040Y-15209617D01*
X17893040Y-15209617D02*
X17902563Y-15190569D01*
X17902563Y-15190569D02*
X17921611Y-15181045D01*
X17921611Y-15181045D02*
X17959706Y-15181045D01*
X17959706Y-15181045D02*
X17978754Y-15190569D01*
X17978754Y-15190569D02*
X17988278Y-15209617D01*
X17988278Y-15209617D02*
X17988278Y-15228664D01*
X17988278Y-15228664D02*
X17893040Y-15247712D01*
X18064468Y-15304855D02*
X18083516Y-15314379D01*
X18083516Y-15314379D02*
X18121611Y-15314379D01*
X18121611Y-15314379D02*
X18140659Y-15304855D01*
X18140659Y-15304855D02*
X18150183Y-15285807D01*
X18150183Y-15285807D02*
X18150183Y-15276283D01*
X18150183Y-15276283D02*
X18140659Y-15257236D01*
X18140659Y-15257236D02*
X18121611Y-15247712D01*
X18121611Y-15247712D02*
X18093040Y-15247712D01*
X18093040Y-15247712D02*
X18073992Y-15238188D01*
X18073992Y-15238188D02*
X18064468Y-15219141D01*
X18064468Y-15219141D02*
X18064468Y-15209617D01*
X18064468Y-15209617D02*
X18073992Y-15190569D01*
X18073992Y-15190569D02*
X18093040Y-15181045D01*
X18093040Y-15181045D02*
X18121611Y-15181045D01*
X18121611Y-15181045D02*
X18140659Y-15190569D01*
X18216849Y-15390569D02*
X18226373Y-15381045D01*
X18226373Y-15381045D02*
X18245421Y-15352474D01*
X18245421Y-15352474D02*
X18254944Y-15333426D01*
X18254944Y-15333426D02*
X18264468Y-15304855D01*
X18264468Y-15304855D02*
X18273992Y-15257236D01*
X18273992Y-15257236D02*
X18273992Y-15219141D01*
X18273992Y-15219141D02*
X18264468Y-15171522D01*
X18264468Y-15171522D02*
X18254944Y-15142950D01*
X18254944Y-15142950D02*
X18245421Y-15123903D01*
X18245421Y-15123903D02*
X18226373Y-15095331D01*
X18226373Y-15095331D02*
X18216849Y-15085807D01*
D13*
X13131310Y-15426895D02*
X13251310Y-15546895D01*
X13251310Y-15426895D02*
X13131310Y-15546895D01*
X13251310Y-15486895D02*
G75*
G02*
X13131310Y-15486895I-60000J0D01*
G01*
X13131310Y-15486895D02*
G75*
G02*
X13251310Y-15486895I60000J0D01*
G01*
D11*
X13616849Y-15578379D02*
X13502563Y-15578379D01*
X13559706Y-15578379D02*
X13559706Y-15378379D01*
X13559706Y-15378379D02*
X13540658Y-15406950D01*
X13540658Y-15406950D02*
X13521611Y-15425998D01*
X13521611Y-15425998D02*
X13502563Y-15435522D01*
X13702563Y-15559331D02*
X13712087Y-15568855D01*
X13712087Y-15568855D02*
X13702563Y-15578379D01*
X13702563Y-15578379D02*
X13693039Y-15568855D01*
X13693039Y-15568855D02*
X13702563Y-15559331D01*
X13702563Y-15559331D02*
X13702563Y-15578379D01*
X13788277Y-15397426D02*
X13797801Y-15387903D01*
X13797801Y-15387903D02*
X13816849Y-15378379D01*
X13816849Y-15378379D02*
X13864468Y-15378379D01*
X13864468Y-15378379D02*
X13883515Y-15387903D01*
X13883515Y-15387903D02*
X13893039Y-15397426D01*
X13893039Y-15397426D02*
X13902563Y-15416474D01*
X13902563Y-15416474D02*
X13902563Y-15435522D01*
X13902563Y-15435522D02*
X13893039Y-15464093D01*
X13893039Y-15464093D02*
X13778753Y-15578379D01*
X13778753Y-15578379D02*
X13902563Y-15578379D01*
X14026372Y-15378379D02*
X14045420Y-15378379D01*
X14045420Y-15378379D02*
X14064468Y-15387903D01*
X14064468Y-15387903D02*
X14073992Y-15397426D01*
X14073992Y-15397426D02*
X14083515Y-15416474D01*
X14083515Y-15416474D02*
X14093039Y-15454569D01*
X14093039Y-15454569D02*
X14093039Y-15502188D01*
X14093039Y-15502188D02*
X14083515Y-15540283D01*
X14083515Y-15540283D02*
X14073992Y-15559331D01*
X14073992Y-15559331D02*
X14064468Y-15568855D01*
X14064468Y-15568855D02*
X14045420Y-15578379D01*
X14045420Y-15578379D02*
X14026372Y-15578379D01*
X14026372Y-15578379D02*
X14007325Y-15568855D01*
X14007325Y-15568855D02*
X13997801Y-15559331D01*
X13997801Y-15559331D02*
X13988277Y-15540283D01*
X13988277Y-15540283D02*
X13978753Y-15502188D01*
X13978753Y-15502188D02*
X13978753Y-15454569D01*
X13978753Y-15454569D02*
X13988277Y-15416474D01*
X13988277Y-15416474D02*
X13997801Y-15397426D01*
X13997801Y-15397426D02*
X14007325Y-15387903D01*
X14007325Y-15387903D02*
X14026372Y-15378379D01*
X14216849Y-15378379D02*
X14235896Y-15378379D01*
X14235896Y-15378379D02*
X14254944Y-15387903D01*
X14254944Y-15387903D02*
X14264468Y-15397426D01*
X14264468Y-15397426D02*
X14273992Y-15416474D01*
X14273992Y-15416474D02*
X14283515Y-15454569D01*
X14283515Y-15454569D02*
X14283515Y-15502188D01*
X14283515Y-15502188D02*
X14273992Y-15540283D01*
X14273992Y-15540283D02*
X14264468Y-15559331D01*
X14264468Y-15559331D02*
X14254944Y-15568855D01*
X14254944Y-15568855D02*
X14235896Y-15578379D01*
X14235896Y-15578379D02*
X14216849Y-15578379D01*
X14216849Y-15578379D02*
X14197801Y-15568855D01*
X14197801Y-15568855D02*
X14188277Y-15559331D01*
X14188277Y-15559331D02*
X14178753Y-15540283D01*
X14178753Y-15540283D02*
X14169230Y-15502188D01*
X14169230Y-15502188D02*
X14169230Y-15454569D01*
X14169230Y-15454569D02*
X14178753Y-15416474D01*
X14178753Y-15416474D02*
X14188277Y-15397426D01*
X14188277Y-15397426D02*
X14197801Y-15387903D01*
X14197801Y-15387903D02*
X14216849Y-15378379D01*
X14369230Y-15578379D02*
X14369230Y-15445045D01*
X14369230Y-15464093D02*
X14378753Y-15454569D01*
X14378753Y-15454569D02*
X14397801Y-15445045D01*
X14397801Y-15445045D02*
X14426373Y-15445045D01*
X14426373Y-15445045D02*
X14445420Y-15454569D01*
X14445420Y-15454569D02*
X14454944Y-15473617D01*
X14454944Y-15473617D02*
X14454944Y-15578379D01*
X14454944Y-15473617D02*
X14464468Y-15454569D01*
X14464468Y-15454569D02*
X14483515Y-15445045D01*
X14483515Y-15445045D02*
X14512087Y-15445045D01*
X14512087Y-15445045D02*
X14531134Y-15454569D01*
X14531134Y-15454569D02*
X14540658Y-15473617D01*
X14540658Y-15473617D02*
X14540658Y-15578379D01*
X14635896Y-15578379D02*
X14635896Y-15445045D01*
X14635896Y-15464093D02*
X14645420Y-15454569D01*
X14645420Y-15454569D02*
X14664468Y-15445045D01*
X14664468Y-15445045D02*
X14693039Y-15445045D01*
X14693039Y-15445045D02*
X14712087Y-15454569D01*
X14712087Y-15454569D02*
X14721611Y-15473617D01*
X14721611Y-15473617D02*
X14721611Y-15578379D01*
X14721611Y-15473617D02*
X14731134Y-15454569D01*
X14731134Y-15454569D02*
X14750182Y-15445045D01*
X14750182Y-15445045D02*
X14778753Y-15445045D01*
X14778753Y-15445045D02*
X14797801Y-15454569D01*
X14797801Y-15454569D02*
X14807325Y-15473617D01*
X14807325Y-15473617D02*
X14807325Y-15578379D01*
X15197801Y-15368855D02*
X15026373Y-15625998D01*
X15454944Y-15378379D02*
X15473992Y-15378379D01*
X15473992Y-15378379D02*
X15493039Y-15387903D01*
X15493039Y-15387903D02*
X15502563Y-15397426D01*
X15502563Y-15397426D02*
X15512087Y-15416474D01*
X15512087Y-15416474D02*
X15521611Y-15454569D01*
X15521611Y-15454569D02*
X15521611Y-15502188D01*
X15521611Y-15502188D02*
X15512087Y-15540283D01*
X15512087Y-15540283D02*
X15502563Y-15559331D01*
X15502563Y-15559331D02*
X15493039Y-15568855D01*
X15493039Y-15568855D02*
X15473992Y-15578379D01*
X15473992Y-15578379D02*
X15454944Y-15578379D01*
X15454944Y-15578379D02*
X15435896Y-15568855D01*
X15435896Y-15568855D02*
X15426373Y-15559331D01*
X15426373Y-15559331D02*
X15416849Y-15540283D01*
X15416849Y-15540283D02*
X15407325Y-15502188D01*
X15407325Y-15502188D02*
X15407325Y-15454569D01*
X15407325Y-15454569D02*
X15416849Y-15416474D01*
X15416849Y-15416474D02*
X15426373Y-15397426D01*
X15426373Y-15397426D02*
X15435896Y-15387903D01*
X15435896Y-15387903D02*
X15454944Y-15378379D01*
X15607325Y-15559331D02*
X15616849Y-15568855D01*
X15616849Y-15568855D02*
X15607325Y-15578379D01*
X15607325Y-15578379D02*
X15597801Y-15568855D01*
X15597801Y-15568855D02*
X15607325Y-15559331D01*
X15607325Y-15559331D02*
X15607325Y-15578379D01*
X15740658Y-15378379D02*
X15759706Y-15378379D01*
X15759706Y-15378379D02*
X15778754Y-15387903D01*
X15778754Y-15387903D02*
X15788277Y-15397426D01*
X15788277Y-15397426D02*
X15797801Y-15416474D01*
X15797801Y-15416474D02*
X15807325Y-15454569D01*
X15807325Y-15454569D02*
X15807325Y-15502188D01*
X15807325Y-15502188D02*
X15797801Y-15540283D01*
X15797801Y-15540283D02*
X15788277Y-15559331D01*
X15788277Y-15559331D02*
X15778754Y-15568855D01*
X15778754Y-15568855D02*
X15759706Y-15578379D01*
X15759706Y-15578379D02*
X15740658Y-15578379D01*
X15740658Y-15578379D02*
X15721611Y-15568855D01*
X15721611Y-15568855D02*
X15712087Y-15559331D01*
X15712087Y-15559331D02*
X15702563Y-15540283D01*
X15702563Y-15540283D02*
X15693039Y-15502188D01*
X15693039Y-15502188D02*
X15693039Y-15454569D01*
X15693039Y-15454569D02*
X15702563Y-15416474D01*
X15702563Y-15416474D02*
X15712087Y-15397426D01*
X15712087Y-15397426D02*
X15721611Y-15387903D01*
X15721611Y-15387903D02*
X15740658Y-15378379D01*
X15978754Y-15445045D02*
X15978754Y-15578379D01*
X15931135Y-15368855D02*
X15883516Y-15511712D01*
X15883516Y-15511712D02*
X16007325Y-15511712D01*
X16064468Y-15378379D02*
X16197801Y-15378379D01*
X16197801Y-15378379D02*
X16112087Y-15578379D01*
X16264468Y-15397426D02*
X16273992Y-15387903D01*
X16273992Y-15387903D02*
X16293039Y-15378379D01*
X16293039Y-15378379D02*
X16340658Y-15378379D01*
X16340658Y-15378379D02*
X16359706Y-15387903D01*
X16359706Y-15387903D02*
X16369230Y-15397426D01*
X16369230Y-15397426D02*
X16378754Y-15416474D01*
X16378754Y-15416474D02*
X16378754Y-15435522D01*
X16378754Y-15435522D02*
X16369230Y-15464093D01*
X16369230Y-15464093D02*
X16254944Y-15578379D01*
X16254944Y-15578379D02*
X16378754Y-15578379D01*
X16454944Y-15378379D02*
X16454944Y-15416474D01*
X16531135Y-15378379D02*
X16531135Y-15416474D01*
X16826373Y-15654569D02*
X16816849Y-15645045D01*
X16816849Y-15645045D02*
X16797801Y-15616474D01*
X16797801Y-15616474D02*
X16788278Y-15597426D01*
X16788278Y-15597426D02*
X16778754Y-15568855D01*
X16778754Y-15568855D02*
X16769230Y-15521236D01*
X16769230Y-15521236D02*
X16769230Y-15483141D01*
X16769230Y-15483141D02*
X16778754Y-15435522D01*
X16778754Y-15435522D02*
X16788278Y-15406950D01*
X16788278Y-15406950D02*
X16797801Y-15387903D01*
X16797801Y-15387903D02*
X16816849Y-15359331D01*
X16816849Y-15359331D02*
X16826373Y-15349807D01*
X16893040Y-15397426D02*
X16902563Y-15387903D01*
X16902563Y-15387903D02*
X16921611Y-15378379D01*
X16921611Y-15378379D02*
X16969230Y-15378379D01*
X16969230Y-15378379D02*
X16988278Y-15387903D01*
X16988278Y-15387903D02*
X16997801Y-15397426D01*
X16997801Y-15397426D02*
X17007325Y-15416474D01*
X17007325Y-15416474D02*
X17007325Y-15435522D01*
X17007325Y-15435522D02*
X16997801Y-15464093D01*
X16997801Y-15464093D02*
X16883516Y-15578379D01*
X16883516Y-15578379D02*
X17007325Y-15578379D01*
X17245421Y-15578379D02*
X17245421Y-15378379D01*
X17331135Y-15578379D02*
X17331135Y-15473617D01*
X17331135Y-15473617D02*
X17321611Y-15454569D01*
X17321611Y-15454569D02*
X17302563Y-15445045D01*
X17302563Y-15445045D02*
X17273992Y-15445045D01*
X17273992Y-15445045D02*
X17254944Y-15454569D01*
X17254944Y-15454569D02*
X17245421Y-15464093D01*
X17454944Y-15578379D02*
X17435897Y-15568855D01*
X17435897Y-15568855D02*
X17426373Y-15559331D01*
X17426373Y-15559331D02*
X17416849Y-15540283D01*
X17416849Y-15540283D02*
X17416849Y-15483141D01*
X17416849Y-15483141D02*
X17426373Y-15464093D01*
X17426373Y-15464093D02*
X17435897Y-15454569D01*
X17435897Y-15454569D02*
X17454944Y-15445045D01*
X17454944Y-15445045D02*
X17483516Y-15445045D01*
X17483516Y-15445045D02*
X17502563Y-15454569D01*
X17502563Y-15454569D02*
X17512087Y-15464093D01*
X17512087Y-15464093D02*
X17521611Y-15483141D01*
X17521611Y-15483141D02*
X17521611Y-15540283D01*
X17521611Y-15540283D02*
X17512087Y-15559331D01*
X17512087Y-15559331D02*
X17502563Y-15568855D01*
X17502563Y-15568855D02*
X17483516Y-15578379D01*
X17483516Y-15578379D02*
X17454944Y-15578379D01*
X17635897Y-15578379D02*
X17616849Y-15568855D01*
X17616849Y-15568855D02*
X17607325Y-15549807D01*
X17607325Y-15549807D02*
X17607325Y-15378379D01*
X17788278Y-15568855D02*
X17769230Y-15578379D01*
X17769230Y-15578379D02*
X17731135Y-15578379D01*
X17731135Y-15578379D02*
X17712087Y-15568855D01*
X17712087Y-15568855D02*
X17702563Y-15549807D01*
X17702563Y-15549807D02*
X17702563Y-15473617D01*
X17702563Y-15473617D02*
X17712087Y-15454569D01*
X17712087Y-15454569D02*
X17731135Y-15445045D01*
X17731135Y-15445045D02*
X17769230Y-15445045D01*
X17769230Y-15445045D02*
X17788278Y-15454569D01*
X17788278Y-15454569D02*
X17797802Y-15473617D01*
X17797802Y-15473617D02*
X17797802Y-15492664D01*
X17797802Y-15492664D02*
X17702563Y-15511712D01*
X17873992Y-15568855D02*
X17893040Y-15578379D01*
X17893040Y-15578379D02*
X17931135Y-15578379D01*
X17931135Y-15578379D02*
X17950183Y-15568855D01*
X17950183Y-15568855D02*
X17959706Y-15549807D01*
X17959706Y-15549807D02*
X17959706Y-15540283D01*
X17959706Y-15540283D02*
X17950183Y-15521236D01*
X17950183Y-15521236D02*
X17931135Y-15511712D01*
X17931135Y-15511712D02*
X17902563Y-15511712D01*
X17902563Y-15511712D02*
X17883516Y-15502188D01*
X17883516Y-15502188D02*
X17873992Y-15483141D01*
X17873992Y-15483141D02*
X17873992Y-15473617D01*
X17873992Y-15473617D02*
X17883516Y-15454569D01*
X17883516Y-15454569D02*
X17902563Y-15445045D01*
X17902563Y-15445045D02*
X17931135Y-15445045D01*
X17931135Y-15445045D02*
X17950183Y-15454569D01*
X18026373Y-15654569D02*
X18035897Y-15645045D01*
X18035897Y-15645045D02*
X18054944Y-15616474D01*
X18054944Y-15616474D02*
X18064468Y-15597426D01*
X18064468Y-15597426D02*
X18073992Y-15568855D01*
X18073992Y-15568855D02*
X18083516Y-15521236D01*
X18083516Y-15521236D02*
X18083516Y-15483141D01*
X18083516Y-15483141D02*
X18073992Y-15435522D01*
X18073992Y-15435522D02*
X18064468Y-15406950D01*
X18064468Y-15406950D02*
X18054944Y-15387903D01*
X18054944Y-15387903D02*
X18035897Y-15359331D01*
X18035897Y-15359331D02*
X18026373Y-15349807D01*
M02*
