%TF.GenerationSoftware,KiCad,Pcbnew,8.0.1*%
%TF.CreationDate,2024-04-28T15:11:04+02:00*%
%TF.ProjectId,controller_lpc1115_2MU_v1.04,636f6e74-726f-46c6-9c65-725f6c706331,rev?*%
%TF.SameCoordinates,Original*%
%TF.FileFunction,Legend,Top*%
%TF.FilePolarity,Positive*%
%FSLAX46Y46*%
G04 Gerber Fmt 4.6, Leading zero omitted, Abs format (unit mm)*
G04 Created by KiCad (PCBNEW 8.0.1) date 2024-04-28 15:11:04*
%MOMM*%
%LPD*%
G01*
G04 APERTURE LIST*
%ADD10C,0.150000*%
%ADD11C,0.250000*%
%ADD12C,0.120000*%
G04 APERTURE END LIST*
D10*
X130638779Y-106280009D02*
X130972112Y-106280009D01*
X131114969Y-106803819D02*
X130638779Y-106803819D01*
X130638779Y-106803819D02*
X130638779Y-105803819D01*
X130638779Y-105803819D02*
X131114969Y-105803819D01*
X131543541Y-106803819D02*
X131543541Y-105803819D01*
X132353064Y-106280009D02*
X132495921Y-106327628D01*
X132495921Y-106327628D02*
X132543540Y-106375247D01*
X132543540Y-106375247D02*
X132591159Y-106470485D01*
X132591159Y-106470485D02*
X132591159Y-106613342D01*
X132591159Y-106613342D02*
X132543540Y-106708580D01*
X132543540Y-106708580D02*
X132495921Y-106756200D01*
X132495921Y-106756200D02*
X132400683Y-106803819D01*
X132400683Y-106803819D02*
X132019731Y-106803819D01*
X132019731Y-106803819D02*
X132019731Y-105803819D01*
X132019731Y-105803819D02*
X132353064Y-105803819D01*
X132353064Y-105803819D02*
X132448302Y-105851438D01*
X132448302Y-105851438D02*
X132495921Y-105899057D01*
X132495921Y-105899057D02*
X132543540Y-105994295D01*
X132543540Y-105994295D02*
X132543540Y-106089533D01*
X132543540Y-106089533D02*
X132495921Y-106184771D01*
X132495921Y-106184771D02*
X132448302Y-106232390D01*
X132448302Y-106232390D02*
X132353064Y-106280009D01*
X132353064Y-106280009D02*
X132019731Y-106280009D01*
X132781636Y-106899057D02*
X133543540Y-106899057D01*
X133781636Y-106803819D02*
X133781636Y-105803819D01*
X133781636Y-105803819D02*
X134019731Y-105803819D01*
X134019731Y-105803819D02*
X134162588Y-105851438D01*
X134162588Y-105851438D02*
X134257826Y-105946676D01*
X134257826Y-105946676D02*
X134305445Y-106041914D01*
X134305445Y-106041914D02*
X134353064Y-106232390D01*
X134353064Y-106232390D02*
X134353064Y-106375247D01*
X134353064Y-106375247D02*
X134305445Y-106565723D01*
X134305445Y-106565723D02*
X134257826Y-106660961D01*
X134257826Y-106660961D02*
X134162588Y-106756200D01*
X134162588Y-106756200D02*
X134019731Y-106803819D01*
X134019731Y-106803819D02*
X133781636Y-106803819D01*
X135353064Y-106708580D02*
X135305445Y-106756200D01*
X135305445Y-106756200D02*
X135162588Y-106803819D01*
X135162588Y-106803819D02*
X135067350Y-106803819D01*
X135067350Y-106803819D02*
X134924493Y-106756200D01*
X134924493Y-106756200D02*
X134829255Y-106660961D01*
X134829255Y-106660961D02*
X134781636Y-106565723D01*
X134781636Y-106565723D02*
X134734017Y-106375247D01*
X134734017Y-106375247D02*
X134734017Y-106232390D01*
X134734017Y-106232390D02*
X134781636Y-106041914D01*
X134781636Y-106041914D02*
X134829255Y-105946676D01*
X134829255Y-105946676D02*
X134924493Y-105851438D01*
X134924493Y-105851438D02*
X135067350Y-105803819D01*
X135067350Y-105803819D02*
X135162588Y-105803819D01*
X135162588Y-105803819D02*
X135305445Y-105851438D01*
X135305445Y-105851438D02*
X135353064Y-105899057D01*
X128917819Y-111772458D02*
X128917819Y-111153411D01*
X128917819Y-111153411D02*
X129298771Y-111486744D01*
X129298771Y-111486744D02*
X129298771Y-111343887D01*
X129298771Y-111343887D02*
X129346390Y-111248649D01*
X129346390Y-111248649D02*
X129394009Y-111201030D01*
X129394009Y-111201030D02*
X129489247Y-111153411D01*
X129489247Y-111153411D02*
X129727342Y-111153411D01*
X129727342Y-111153411D02*
X129822580Y-111201030D01*
X129822580Y-111201030D02*
X129870200Y-111248649D01*
X129870200Y-111248649D02*
X129917819Y-111343887D01*
X129917819Y-111343887D02*
X129917819Y-111629601D01*
X129917819Y-111629601D02*
X129870200Y-111724839D01*
X129870200Y-111724839D02*
X129822580Y-111772458D01*
X128917819Y-110867696D02*
X129917819Y-110534363D01*
X129917819Y-110534363D02*
X128917819Y-110201030D01*
X128917819Y-109962934D02*
X128917819Y-109343887D01*
X128917819Y-109343887D02*
X129298771Y-109677220D01*
X129298771Y-109677220D02*
X129298771Y-109534363D01*
X129298771Y-109534363D02*
X129346390Y-109439125D01*
X129346390Y-109439125D02*
X129394009Y-109391506D01*
X129394009Y-109391506D02*
X129489247Y-109343887D01*
X129489247Y-109343887D02*
X129727342Y-109343887D01*
X129727342Y-109343887D02*
X129822580Y-109391506D01*
X129822580Y-109391506D02*
X129870200Y-109439125D01*
X129870200Y-109439125D02*
X129917819Y-109534363D01*
X129917819Y-109534363D02*
X129917819Y-109820077D01*
X129917819Y-109820077D02*
X129870200Y-109915315D01*
X129870200Y-109915315D02*
X129822580Y-109962934D01*
D11*
X167738187Y-86864142D02*
X167738187Y-85664142D01*
X168252473Y-86807000D02*
X168423902Y-86864142D01*
X168423902Y-86864142D02*
X168709616Y-86864142D01*
X168709616Y-86864142D02*
X168823902Y-86807000D01*
X168823902Y-86807000D02*
X168881044Y-86749857D01*
X168881044Y-86749857D02*
X168938187Y-86635571D01*
X168938187Y-86635571D02*
X168938187Y-86521285D01*
X168938187Y-86521285D02*
X168881044Y-86407000D01*
X168881044Y-86407000D02*
X168823902Y-86349857D01*
X168823902Y-86349857D02*
X168709616Y-86292714D01*
X168709616Y-86292714D02*
X168481044Y-86235571D01*
X168481044Y-86235571D02*
X168366759Y-86178428D01*
X168366759Y-86178428D02*
X168309616Y-86121285D01*
X168309616Y-86121285D02*
X168252473Y-86007000D01*
X168252473Y-86007000D02*
X168252473Y-85892714D01*
X168252473Y-85892714D02*
X168309616Y-85778428D01*
X168309616Y-85778428D02*
X168366759Y-85721285D01*
X168366759Y-85721285D02*
X168481044Y-85664142D01*
X168481044Y-85664142D02*
X168766759Y-85664142D01*
X168766759Y-85664142D02*
X168938187Y-85721285D01*
X169452473Y-86864142D02*
X169452473Y-85664142D01*
X169452473Y-85664142D02*
X169909616Y-85664142D01*
X169909616Y-85664142D02*
X170023901Y-85721285D01*
X170023901Y-85721285D02*
X170081044Y-85778428D01*
X170081044Y-85778428D02*
X170138187Y-85892714D01*
X170138187Y-85892714D02*
X170138187Y-86064142D01*
X170138187Y-86064142D02*
X170081044Y-86178428D01*
X170081044Y-86178428D02*
X170023901Y-86235571D01*
X170023901Y-86235571D02*
X169909616Y-86292714D01*
X169909616Y-86292714D02*
X169452473Y-86292714D01*
D10*
X129235200Y-115915839D02*
X129282819Y-115772982D01*
X129282819Y-115772982D02*
X129282819Y-115534887D01*
X129282819Y-115534887D02*
X129235200Y-115439649D01*
X129235200Y-115439649D02*
X129187580Y-115392030D01*
X129187580Y-115392030D02*
X129092342Y-115344411D01*
X129092342Y-115344411D02*
X128997104Y-115344411D01*
X128997104Y-115344411D02*
X128901866Y-115392030D01*
X128901866Y-115392030D02*
X128854247Y-115439649D01*
X128854247Y-115439649D02*
X128806628Y-115534887D01*
X128806628Y-115534887D02*
X128759009Y-115725363D01*
X128759009Y-115725363D02*
X128711390Y-115820601D01*
X128711390Y-115820601D02*
X128663771Y-115868220D01*
X128663771Y-115868220D02*
X128568533Y-115915839D01*
X128568533Y-115915839D02*
X128473295Y-115915839D01*
X128473295Y-115915839D02*
X128378057Y-115868220D01*
X128378057Y-115868220D02*
X128330438Y-115820601D01*
X128330438Y-115820601D02*
X128282819Y-115725363D01*
X128282819Y-115725363D02*
X128282819Y-115487268D01*
X128282819Y-115487268D02*
X128330438Y-115344411D01*
X129282819Y-114915839D02*
X128616152Y-114915839D01*
X128282819Y-114915839D02*
X128330438Y-114963458D01*
X128330438Y-114963458D02*
X128378057Y-114915839D01*
X128378057Y-114915839D02*
X128330438Y-114868220D01*
X128330438Y-114868220D02*
X128282819Y-114915839D01*
X128282819Y-114915839D02*
X128378057Y-114915839D01*
X129282819Y-114296792D02*
X129235200Y-114392030D01*
X129235200Y-114392030D02*
X129139961Y-114439649D01*
X129139961Y-114439649D02*
X128282819Y-114439649D01*
X129282819Y-113915839D02*
X128282819Y-113915839D01*
X128901866Y-113820601D02*
X129282819Y-113534887D01*
X128616152Y-113534887D02*
X128997104Y-113915839D01*
D11*
X147071615Y-92296142D02*
X146500187Y-92296142D01*
X146500187Y-92296142D02*
X146500187Y-91096142D01*
X147471616Y-92296142D02*
X147471616Y-91096142D01*
X147471616Y-91096142D02*
X147928759Y-91096142D01*
X147928759Y-91096142D02*
X148043044Y-91153285D01*
X148043044Y-91153285D02*
X148100187Y-91210428D01*
X148100187Y-91210428D02*
X148157330Y-91324714D01*
X148157330Y-91324714D02*
X148157330Y-91496142D01*
X148157330Y-91496142D02*
X148100187Y-91610428D01*
X148100187Y-91610428D02*
X148043044Y-91667571D01*
X148043044Y-91667571D02*
X147928759Y-91724714D01*
X147928759Y-91724714D02*
X147471616Y-91724714D01*
X149357330Y-92181857D02*
X149300187Y-92239000D01*
X149300187Y-92239000D02*
X149128759Y-92296142D01*
X149128759Y-92296142D02*
X149014473Y-92296142D01*
X149014473Y-92296142D02*
X148843044Y-92239000D01*
X148843044Y-92239000D02*
X148728759Y-92124714D01*
X148728759Y-92124714D02*
X148671616Y-92010428D01*
X148671616Y-92010428D02*
X148614473Y-91781857D01*
X148614473Y-91781857D02*
X148614473Y-91610428D01*
X148614473Y-91610428D02*
X148671616Y-91381857D01*
X148671616Y-91381857D02*
X148728759Y-91267571D01*
X148728759Y-91267571D02*
X148843044Y-91153285D01*
X148843044Y-91153285D02*
X149014473Y-91096142D01*
X149014473Y-91096142D02*
X149128759Y-91096142D01*
X149128759Y-91096142D02*
X149300187Y-91153285D01*
X149300187Y-91153285D02*
X149357330Y-91210428D01*
X150500187Y-92296142D02*
X149814473Y-92296142D01*
X150157330Y-92296142D02*
X150157330Y-91096142D01*
X150157330Y-91096142D02*
X150043044Y-91267571D01*
X150043044Y-91267571D02*
X149928759Y-91381857D01*
X149928759Y-91381857D02*
X149814473Y-91439000D01*
X151643044Y-92296142D02*
X150957330Y-92296142D01*
X151300187Y-92296142D02*
X151300187Y-91096142D01*
X151300187Y-91096142D02*
X151185901Y-91267571D01*
X151185901Y-91267571D02*
X151071616Y-91381857D01*
X151071616Y-91381857D02*
X150957330Y-91439000D01*
X152785901Y-92296142D02*
X152100187Y-92296142D01*
X152443044Y-92296142D02*
X152443044Y-91096142D01*
X152443044Y-91096142D02*
X152328758Y-91267571D01*
X152328758Y-91267571D02*
X152214473Y-91381857D01*
X152214473Y-91381857D02*
X152100187Y-91439000D01*
X153871615Y-91096142D02*
X153300187Y-91096142D01*
X153300187Y-91096142D02*
X153243044Y-91667571D01*
X153243044Y-91667571D02*
X153300187Y-91610428D01*
X153300187Y-91610428D02*
X153414473Y-91553285D01*
X153414473Y-91553285D02*
X153700187Y-91553285D01*
X153700187Y-91553285D02*
X153814473Y-91610428D01*
X153814473Y-91610428D02*
X153871615Y-91667571D01*
X153871615Y-91667571D02*
X153928758Y-91781857D01*
X153928758Y-91781857D02*
X153928758Y-92067571D01*
X153928758Y-92067571D02*
X153871615Y-92181857D01*
X153871615Y-92181857D02*
X153814473Y-92239000D01*
X153814473Y-92239000D02*
X153700187Y-92296142D01*
X153700187Y-92296142D02*
X153414473Y-92296142D01*
X153414473Y-92296142D02*
X153300187Y-92239000D01*
X153300187Y-92239000D02*
X153243044Y-92181857D01*
X154157330Y-92410428D02*
X155071615Y-92410428D01*
X155300187Y-91210428D02*
X155357330Y-91153285D01*
X155357330Y-91153285D02*
X155471616Y-91096142D01*
X155471616Y-91096142D02*
X155757330Y-91096142D01*
X155757330Y-91096142D02*
X155871616Y-91153285D01*
X155871616Y-91153285D02*
X155928758Y-91210428D01*
X155928758Y-91210428D02*
X155985901Y-91324714D01*
X155985901Y-91324714D02*
X155985901Y-91439000D01*
X155985901Y-91439000D02*
X155928758Y-91610428D01*
X155928758Y-91610428D02*
X155243044Y-92296142D01*
X155243044Y-92296142D02*
X155985901Y-92296142D01*
X156328758Y-91096142D02*
X157014473Y-91096142D01*
X156671615Y-92296142D02*
X156671615Y-91096142D01*
X157414473Y-91667571D02*
X157814473Y-91667571D01*
X157985901Y-92296142D02*
X157414473Y-92296142D01*
X157414473Y-92296142D02*
X157414473Y-91096142D01*
X157414473Y-91096142D02*
X157985901Y-91096142D01*
X158214473Y-92410428D02*
X159128758Y-92410428D01*
X159243044Y-91096142D02*
X159643044Y-92296142D01*
X159643044Y-92296142D02*
X160043044Y-91096142D01*
X160385901Y-91210428D02*
X160443044Y-91153285D01*
X160443044Y-91153285D02*
X160557330Y-91096142D01*
X160557330Y-91096142D02*
X160843044Y-91096142D01*
X160843044Y-91096142D02*
X160957330Y-91153285D01*
X160957330Y-91153285D02*
X161014472Y-91210428D01*
X161014472Y-91210428D02*
X161071615Y-91324714D01*
X161071615Y-91324714D02*
X161071615Y-91439000D01*
X161071615Y-91439000D02*
X161014472Y-91610428D01*
X161014472Y-91610428D02*
X160328758Y-92296142D01*
X160328758Y-92296142D02*
X161071615Y-92296142D01*
X161585901Y-92181857D02*
X161643044Y-92239000D01*
X161643044Y-92239000D02*
X161585901Y-92296142D01*
X161585901Y-92296142D02*
X161528758Y-92239000D01*
X161528758Y-92239000D02*
X161585901Y-92181857D01*
X161585901Y-92181857D02*
X161585901Y-92296142D01*
X162385901Y-91096142D02*
X162500187Y-91096142D01*
X162500187Y-91096142D02*
X162614473Y-91153285D01*
X162614473Y-91153285D02*
X162671616Y-91210428D01*
X162671616Y-91210428D02*
X162728758Y-91324714D01*
X162728758Y-91324714D02*
X162785901Y-91553285D01*
X162785901Y-91553285D02*
X162785901Y-91839000D01*
X162785901Y-91839000D02*
X162728758Y-92067571D01*
X162728758Y-92067571D02*
X162671616Y-92181857D01*
X162671616Y-92181857D02*
X162614473Y-92239000D01*
X162614473Y-92239000D02*
X162500187Y-92296142D01*
X162500187Y-92296142D02*
X162385901Y-92296142D01*
X162385901Y-92296142D02*
X162271616Y-92239000D01*
X162271616Y-92239000D02*
X162214473Y-92181857D01*
X162214473Y-92181857D02*
X162157330Y-92067571D01*
X162157330Y-92067571D02*
X162100187Y-91839000D01*
X162100187Y-91839000D02*
X162100187Y-91553285D01*
X162100187Y-91553285D02*
X162157330Y-91324714D01*
X162157330Y-91324714D02*
X162214473Y-91210428D01*
X162214473Y-91210428D02*
X162271616Y-91153285D01*
X162271616Y-91153285D02*
X162385901Y-91096142D01*
X163528758Y-91096142D02*
X163643044Y-91096142D01*
X163643044Y-91096142D02*
X163757330Y-91153285D01*
X163757330Y-91153285D02*
X163814473Y-91210428D01*
X163814473Y-91210428D02*
X163871615Y-91324714D01*
X163871615Y-91324714D02*
X163928758Y-91553285D01*
X163928758Y-91553285D02*
X163928758Y-91839000D01*
X163928758Y-91839000D02*
X163871615Y-92067571D01*
X163871615Y-92067571D02*
X163814473Y-92181857D01*
X163814473Y-92181857D02*
X163757330Y-92239000D01*
X163757330Y-92239000D02*
X163643044Y-92296142D01*
X163643044Y-92296142D02*
X163528758Y-92296142D01*
X163528758Y-92296142D02*
X163414473Y-92239000D01*
X163414473Y-92239000D02*
X163357330Y-92181857D01*
X163357330Y-92181857D02*
X163300187Y-92067571D01*
X163300187Y-92067571D02*
X163243044Y-91839000D01*
X163243044Y-91839000D02*
X163243044Y-91553285D01*
X163243044Y-91553285D02*
X163300187Y-91324714D01*
X163300187Y-91324714D02*
X163357330Y-91210428D01*
X163357330Y-91210428D02*
X163414473Y-91153285D01*
X163414473Y-91153285D02*
X163528758Y-91096142D01*
D10*
X175789142Y-93828819D02*
X175455809Y-93352628D01*
X175217714Y-93828819D02*
X175217714Y-92828819D01*
X175217714Y-92828819D02*
X175598666Y-92828819D01*
X175598666Y-92828819D02*
X175693904Y-92876438D01*
X175693904Y-92876438D02*
X175741523Y-92924057D01*
X175741523Y-92924057D02*
X175789142Y-93019295D01*
X175789142Y-93019295D02*
X175789142Y-93162152D01*
X175789142Y-93162152D02*
X175741523Y-93257390D01*
X175741523Y-93257390D02*
X175693904Y-93305009D01*
X175693904Y-93305009D02*
X175598666Y-93352628D01*
X175598666Y-93352628D02*
X175217714Y-93352628D01*
X176741523Y-93828819D02*
X176170095Y-93828819D01*
X176455809Y-93828819D02*
X176455809Y-92828819D01*
X176455809Y-92828819D02*
X176360571Y-92971676D01*
X176360571Y-92971676D02*
X176265333Y-93066914D01*
X176265333Y-93066914D02*
X176170095Y-93114533D01*
X177360571Y-92828819D02*
X177455809Y-92828819D01*
X177455809Y-92828819D02*
X177551047Y-92876438D01*
X177551047Y-92876438D02*
X177598666Y-92924057D01*
X177598666Y-92924057D02*
X177646285Y-93019295D01*
X177646285Y-93019295D02*
X177693904Y-93209771D01*
X177693904Y-93209771D02*
X177693904Y-93447866D01*
X177693904Y-93447866D02*
X177646285Y-93638342D01*
X177646285Y-93638342D02*
X177598666Y-93733580D01*
X177598666Y-93733580D02*
X177551047Y-93781200D01*
X177551047Y-93781200D02*
X177455809Y-93828819D01*
X177455809Y-93828819D02*
X177360571Y-93828819D01*
X177360571Y-93828819D02*
X177265333Y-93781200D01*
X177265333Y-93781200D02*
X177217714Y-93733580D01*
X177217714Y-93733580D02*
X177170095Y-93638342D01*
X177170095Y-93638342D02*
X177122476Y-93447866D01*
X177122476Y-93447866D02*
X177122476Y-93209771D01*
X177122476Y-93209771D02*
X177170095Y-93019295D01*
X177170095Y-93019295D02*
X177217714Y-92924057D01*
X177217714Y-92924057D02*
X177265333Y-92876438D01*
X177265333Y-92876438D02*
X177360571Y-92828819D01*
X180966819Y-109875904D02*
X180966819Y-109304476D01*
X181966819Y-109590190D02*
X180966819Y-109590190D01*
X181966819Y-108971142D02*
X180966819Y-108971142D01*
X180966819Y-108971142D02*
X180966819Y-108590190D01*
X180966819Y-108590190D02*
X181014438Y-108494952D01*
X181014438Y-108494952D02*
X181062057Y-108447333D01*
X181062057Y-108447333D02*
X181157295Y-108399714D01*
X181157295Y-108399714D02*
X181300152Y-108399714D01*
X181300152Y-108399714D02*
X181395390Y-108447333D01*
X181395390Y-108447333D02*
X181443009Y-108494952D01*
X181443009Y-108494952D02*
X181490628Y-108590190D01*
X181490628Y-108590190D02*
X181490628Y-108971142D01*
X180966819Y-108066380D02*
X180966819Y-107399714D01*
X180966819Y-107399714D02*
X181966819Y-107828285D01*
X175424095Y-114926819D02*
X175995523Y-114926819D01*
X175709809Y-115926819D02*
X175709809Y-114926819D01*
X176328857Y-115926819D02*
X176328857Y-114926819D01*
X176328857Y-114926819D02*
X176709809Y-114926819D01*
X176709809Y-114926819D02*
X176805047Y-114974438D01*
X176805047Y-114974438D02*
X176852666Y-115022057D01*
X176852666Y-115022057D02*
X176900285Y-115117295D01*
X176900285Y-115117295D02*
X176900285Y-115260152D01*
X176900285Y-115260152D02*
X176852666Y-115355390D01*
X176852666Y-115355390D02*
X176805047Y-115403009D01*
X176805047Y-115403009D02*
X176709809Y-115450628D01*
X176709809Y-115450628D02*
X176328857Y-115450628D01*
X177757428Y-115260152D02*
X177757428Y-115926819D01*
X177519333Y-114879200D02*
X177281238Y-115593485D01*
X177281238Y-115593485D02*
X177900285Y-115593485D01*
X173330819Y-91222857D02*
X172854628Y-91556190D01*
X173330819Y-91794285D02*
X172330819Y-91794285D01*
X172330819Y-91794285D02*
X172330819Y-91413333D01*
X172330819Y-91413333D02*
X172378438Y-91318095D01*
X172378438Y-91318095D02*
X172426057Y-91270476D01*
X172426057Y-91270476D02*
X172521295Y-91222857D01*
X172521295Y-91222857D02*
X172664152Y-91222857D01*
X172664152Y-91222857D02*
X172759390Y-91270476D01*
X172759390Y-91270476D02*
X172807009Y-91318095D01*
X172807009Y-91318095D02*
X172854628Y-91413333D01*
X172854628Y-91413333D02*
X172854628Y-91794285D01*
X172426057Y-90841904D02*
X172378438Y-90794285D01*
X172378438Y-90794285D02*
X172330819Y-90699047D01*
X172330819Y-90699047D02*
X172330819Y-90460952D01*
X172330819Y-90460952D02*
X172378438Y-90365714D01*
X172378438Y-90365714D02*
X172426057Y-90318095D01*
X172426057Y-90318095D02*
X172521295Y-90270476D01*
X172521295Y-90270476D02*
X172616533Y-90270476D01*
X172616533Y-90270476D02*
X172759390Y-90318095D01*
X172759390Y-90318095D02*
X173330819Y-90889523D01*
X173330819Y-90889523D02*
X173330819Y-90270476D01*
X173330819Y-89318095D02*
X173330819Y-89889523D01*
X173330819Y-89603809D02*
X172330819Y-89603809D01*
X172330819Y-89603809D02*
X172473676Y-89699047D01*
X172473676Y-89699047D02*
X172568914Y-89794285D01*
X172568914Y-89794285D02*
X172616533Y-89889523D01*
X154296819Y-86341333D02*
X155011104Y-86341333D01*
X155011104Y-86341333D02*
X155153961Y-86388952D01*
X155153961Y-86388952D02*
X155249200Y-86484190D01*
X155249200Y-86484190D02*
X155296819Y-86627047D01*
X155296819Y-86627047D02*
X155296819Y-86722285D01*
X154392057Y-85912761D02*
X154344438Y-85865142D01*
X154344438Y-85865142D02*
X154296819Y-85769904D01*
X154296819Y-85769904D02*
X154296819Y-85531809D01*
X154296819Y-85531809D02*
X154344438Y-85436571D01*
X154344438Y-85436571D02*
X154392057Y-85388952D01*
X154392057Y-85388952D02*
X154487295Y-85341333D01*
X154487295Y-85341333D02*
X154582533Y-85341333D01*
X154582533Y-85341333D02*
X154725390Y-85388952D01*
X154725390Y-85388952D02*
X155296819Y-85960380D01*
X155296819Y-85960380D02*
X155296819Y-85341333D01*
X136236667Y-98861200D02*
X136379524Y-98908819D01*
X136379524Y-98908819D02*
X136617619Y-98908819D01*
X136617619Y-98908819D02*
X136712857Y-98861200D01*
X136712857Y-98861200D02*
X136760476Y-98813580D01*
X136760476Y-98813580D02*
X136808095Y-98718342D01*
X136808095Y-98718342D02*
X136808095Y-98623104D01*
X136808095Y-98623104D02*
X136760476Y-98527866D01*
X136760476Y-98527866D02*
X136712857Y-98480247D01*
X136712857Y-98480247D02*
X136617619Y-98432628D01*
X136617619Y-98432628D02*
X136427143Y-98385009D01*
X136427143Y-98385009D02*
X136331905Y-98337390D01*
X136331905Y-98337390D02*
X136284286Y-98289771D01*
X136284286Y-98289771D02*
X136236667Y-98194533D01*
X136236667Y-98194533D02*
X136236667Y-98099295D01*
X136236667Y-98099295D02*
X136284286Y-98004057D01*
X136284286Y-98004057D02*
X136331905Y-97956438D01*
X136331905Y-97956438D02*
X136427143Y-97908819D01*
X136427143Y-97908819D02*
X136665238Y-97908819D01*
X136665238Y-97908819D02*
X136808095Y-97956438D01*
X137141429Y-97908819D02*
X137379524Y-98908819D01*
X137379524Y-98908819D02*
X137570000Y-98194533D01*
X137570000Y-98194533D02*
X137760476Y-98908819D01*
X137760476Y-98908819D02*
X137998572Y-97908819D01*
X138903333Y-98908819D02*
X138331905Y-98908819D01*
X138617619Y-98908819D02*
X138617619Y-97908819D01*
X138617619Y-97908819D02*
X138522381Y-98051676D01*
X138522381Y-98051676D02*
X138427143Y-98146914D01*
X138427143Y-98146914D02*
X138331905Y-98194533D01*
X176773333Y-97289580D02*
X176725714Y-97337200D01*
X176725714Y-97337200D02*
X176582857Y-97384819D01*
X176582857Y-97384819D02*
X176487619Y-97384819D01*
X176487619Y-97384819D02*
X176344762Y-97337200D01*
X176344762Y-97337200D02*
X176249524Y-97241961D01*
X176249524Y-97241961D02*
X176201905Y-97146723D01*
X176201905Y-97146723D02*
X176154286Y-96956247D01*
X176154286Y-96956247D02*
X176154286Y-96813390D01*
X176154286Y-96813390D02*
X176201905Y-96622914D01*
X176201905Y-96622914D02*
X176249524Y-96527676D01*
X176249524Y-96527676D02*
X176344762Y-96432438D01*
X176344762Y-96432438D02*
X176487619Y-96384819D01*
X176487619Y-96384819D02*
X176582857Y-96384819D01*
X176582857Y-96384819D02*
X176725714Y-96432438D01*
X176725714Y-96432438D02*
X176773333Y-96480057D01*
X177344762Y-96813390D02*
X177249524Y-96765771D01*
X177249524Y-96765771D02*
X177201905Y-96718152D01*
X177201905Y-96718152D02*
X177154286Y-96622914D01*
X177154286Y-96622914D02*
X177154286Y-96575295D01*
X177154286Y-96575295D02*
X177201905Y-96480057D01*
X177201905Y-96480057D02*
X177249524Y-96432438D01*
X177249524Y-96432438D02*
X177344762Y-96384819D01*
X177344762Y-96384819D02*
X177535238Y-96384819D01*
X177535238Y-96384819D02*
X177630476Y-96432438D01*
X177630476Y-96432438D02*
X177678095Y-96480057D01*
X177678095Y-96480057D02*
X177725714Y-96575295D01*
X177725714Y-96575295D02*
X177725714Y-96622914D01*
X177725714Y-96622914D02*
X177678095Y-96718152D01*
X177678095Y-96718152D02*
X177630476Y-96765771D01*
X177630476Y-96765771D02*
X177535238Y-96813390D01*
X177535238Y-96813390D02*
X177344762Y-96813390D01*
X177344762Y-96813390D02*
X177249524Y-96861009D01*
X177249524Y-96861009D02*
X177201905Y-96908628D01*
X177201905Y-96908628D02*
X177154286Y-97003866D01*
X177154286Y-97003866D02*
X177154286Y-97194342D01*
X177154286Y-97194342D02*
X177201905Y-97289580D01*
X177201905Y-97289580D02*
X177249524Y-97337200D01*
X177249524Y-97337200D02*
X177344762Y-97384819D01*
X177344762Y-97384819D02*
X177535238Y-97384819D01*
X177535238Y-97384819D02*
X177630476Y-97337200D01*
X177630476Y-97337200D02*
X177678095Y-97289580D01*
X177678095Y-97289580D02*
X177725714Y-97194342D01*
X177725714Y-97194342D02*
X177725714Y-97003866D01*
X177725714Y-97003866D02*
X177678095Y-96908628D01*
X177678095Y-96908628D02*
X177630476Y-96861009D01*
X177630476Y-96861009D02*
X177535238Y-96813390D01*
X126864819Y-91849904D02*
X127674342Y-91849904D01*
X127674342Y-91849904D02*
X127769580Y-91802285D01*
X127769580Y-91802285D02*
X127817200Y-91754666D01*
X127817200Y-91754666D02*
X127864819Y-91659428D01*
X127864819Y-91659428D02*
X127864819Y-91468952D01*
X127864819Y-91468952D02*
X127817200Y-91373714D01*
X127817200Y-91373714D02*
X127769580Y-91326095D01*
X127769580Y-91326095D02*
X127674342Y-91278476D01*
X127674342Y-91278476D02*
X126864819Y-91278476D01*
X127864819Y-90278476D02*
X127864819Y-90849904D01*
X127864819Y-90564190D02*
X126864819Y-90564190D01*
X126864819Y-90564190D02*
X127007676Y-90659428D01*
X127007676Y-90659428D02*
X127102914Y-90754666D01*
X127102914Y-90754666D02*
X127150533Y-90849904D01*
X157897580Y-98112666D02*
X157945200Y-98160285D01*
X157945200Y-98160285D02*
X157992819Y-98303142D01*
X157992819Y-98303142D02*
X157992819Y-98398380D01*
X157992819Y-98398380D02*
X157945200Y-98541237D01*
X157945200Y-98541237D02*
X157849961Y-98636475D01*
X157849961Y-98636475D02*
X157754723Y-98684094D01*
X157754723Y-98684094D02*
X157564247Y-98731713D01*
X157564247Y-98731713D02*
X157421390Y-98731713D01*
X157421390Y-98731713D02*
X157230914Y-98684094D01*
X157230914Y-98684094D02*
X157135676Y-98636475D01*
X157135676Y-98636475D02*
X157040438Y-98541237D01*
X157040438Y-98541237D02*
X156992819Y-98398380D01*
X156992819Y-98398380D02*
X156992819Y-98303142D01*
X156992819Y-98303142D02*
X157040438Y-98160285D01*
X157040438Y-98160285D02*
X157088057Y-98112666D01*
X156992819Y-97255523D02*
X156992819Y-97445999D01*
X156992819Y-97445999D02*
X157040438Y-97541237D01*
X157040438Y-97541237D02*
X157088057Y-97588856D01*
X157088057Y-97588856D02*
X157230914Y-97684094D01*
X157230914Y-97684094D02*
X157421390Y-97731713D01*
X157421390Y-97731713D02*
X157802342Y-97731713D01*
X157802342Y-97731713D02*
X157897580Y-97684094D01*
X157897580Y-97684094D02*
X157945200Y-97636475D01*
X157945200Y-97636475D02*
X157992819Y-97541237D01*
X157992819Y-97541237D02*
X157992819Y-97350761D01*
X157992819Y-97350761D02*
X157945200Y-97255523D01*
X157945200Y-97255523D02*
X157897580Y-97207904D01*
X157897580Y-97207904D02*
X157802342Y-97160285D01*
X157802342Y-97160285D02*
X157564247Y-97160285D01*
X157564247Y-97160285D02*
X157469009Y-97207904D01*
X157469009Y-97207904D02*
X157421390Y-97255523D01*
X157421390Y-97255523D02*
X157373771Y-97350761D01*
X157373771Y-97350761D02*
X157373771Y-97541237D01*
X157373771Y-97541237D02*
X157421390Y-97636475D01*
X157421390Y-97636475D02*
X157469009Y-97684094D01*
X157469009Y-97684094D02*
X157564247Y-97731713D01*
X172780761Y-98822057D02*
X172685523Y-98774438D01*
X172685523Y-98774438D02*
X172590285Y-98679200D01*
X172590285Y-98679200D02*
X172447428Y-98536342D01*
X172447428Y-98536342D02*
X172352190Y-98488723D01*
X172352190Y-98488723D02*
X172256952Y-98488723D01*
X172304571Y-98726819D02*
X172209333Y-98679200D01*
X172209333Y-98679200D02*
X172114095Y-98583961D01*
X172114095Y-98583961D02*
X172066476Y-98393485D01*
X172066476Y-98393485D02*
X172066476Y-98060152D01*
X172066476Y-98060152D02*
X172114095Y-97869676D01*
X172114095Y-97869676D02*
X172209333Y-97774438D01*
X172209333Y-97774438D02*
X172304571Y-97726819D01*
X172304571Y-97726819D02*
X172495047Y-97726819D01*
X172495047Y-97726819D02*
X172590285Y-97774438D01*
X172590285Y-97774438D02*
X172685523Y-97869676D01*
X172685523Y-97869676D02*
X172733142Y-98060152D01*
X172733142Y-98060152D02*
X172733142Y-98393485D01*
X172733142Y-98393485D02*
X172685523Y-98583961D01*
X172685523Y-98583961D02*
X172590285Y-98679200D01*
X172590285Y-98679200D02*
X172495047Y-98726819D01*
X172495047Y-98726819D02*
X172304571Y-98726819D01*
X173685523Y-98726819D02*
X173114095Y-98726819D01*
X173399809Y-98726819D02*
X173399809Y-97726819D01*
X173399809Y-97726819D02*
X173304571Y-97869676D01*
X173304571Y-97869676D02*
X173209333Y-97964914D01*
X173209333Y-97964914D02*
X173114095Y-98012533D01*
X164964819Y-93199333D02*
X165679104Y-93199333D01*
X165679104Y-93199333D02*
X165821961Y-93246952D01*
X165821961Y-93246952D02*
X165917200Y-93342190D01*
X165917200Y-93342190D02*
X165964819Y-93485047D01*
X165964819Y-93485047D02*
X165964819Y-93580285D01*
X164964819Y-92818380D02*
X164964819Y-92199333D01*
X164964819Y-92199333D02*
X165345771Y-92532666D01*
X165345771Y-92532666D02*
X165345771Y-92389809D01*
X165345771Y-92389809D02*
X165393390Y-92294571D01*
X165393390Y-92294571D02*
X165441009Y-92246952D01*
X165441009Y-92246952D02*
X165536247Y-92199333D01*
X165536247Y-92199333D02*
X165774342Y-92199333D01*
X165774342Y-92199333D02*
X165869580Y-92246952D01*
X165869580Y-92246952D02*
X165917200Y-92294571D01*
X165917200Y-92294571D02*
X165964819Y-92389809D01*
X165964819Y-92389809D02*
X165964819Y-92675523D01*
X165964819Y-92675523D02*
X165917200Y-92770761D01*
X165917200Y-92770761D02*
X165869580Y-92818380D01*
X159773580Y-103446666D02*
X159821200Y-103494285D01*
X159821200Y-103494285D02*
X159868819Y-103637142D01*
X159868819Y-103637142D02*
X159868819Y-103732380D01*
X159868819Y-103732380D02*
X159821200Y-103875237D01*
X159821200Y-103875237D02*
X159725961Y-103970475D01*
X159725961Y-103970475D02*
X159630723Y-104018094D01*
X159630723Y-104018094D02*
X159440247Y-104065713D01*
X159440247Y-104065713D02*
X159297390Y-104065713D01*
X159297390Y-104065713D02*
X159106914Y-104018094D01*
X159106914Y-104018094D02*
X159011676Y-103970475D01*
X159011676Y-103970475D02*
X158916438Y-103875237D01*
X158916438Y-103875237D02*
X158868819Y-103732380D01*
X158868819Y-103732380D02*
X158868819Y-103637142D01*
X158868819Y-103637142D02*
X158916438Y-103494285D01*
X158916438Y-103494285D02*
X158964057Y-103446666D01*
X158964057Y-103065713D02*
X158916438Y-103018094D01*
X158916438Y-103018094D02*
X158868819Y-102922856D01*
X158868819Y-102922856D02*
X158868819Y-102684761D01*
X158868819Y-102684761D02*
X158916438Y-102589523D01*
X158916438Y-102589523D02*
X158964057Y-102541904D01*
X158964057Y-102541904D02*
X159059295Y-102494285D01*
X159059295Y-102494285D02*
X159154533Y-102494285D01*
X159154533Y-102494285D02*
X159297390Y-102541904D01*
X159297390Y-102541904D02*
X159868819Y-103113332D01*
X159868819Y-103113332D02*
X159868819Y-102494285D01*
X142331580Y-102458666D02*
X142379200Y-102506285D01*
X142379200Y-102506285D02*
X142426819Y-102649142D01*
X142426819Y-102649142D02*
X142426819Y-102744380D01*
X142426819Y-102744380D02*
X142379200Y-102887237D01*
X142379200Y-102887237D02*
X142283961Y-102982475D01*
X142283961Y-102982475D02*
X142188723Y-103030094D01*
X142188723Y-103030094D02*
X141998247Y-103077713D01*
X141998247Y-103077713D02*
X141855390Y-103077713D01*
X141855390Y-103077713D02*
X141664914Y-103030094D01*
X141664914Y-103030094D02*
X141569676Y-102982475D01*
X141569676Y-102982475D02*
X141474438Y-102887237D01*
X141474438Y-102887237D02*
X141426819Y-102744380D01*
X141426819Y-102744380D02*
X141426819Y-102649142D01*
X141426819Y-102649142D02*
X141474438Y-102506285D01*
X141474438Y-102506285D02*
X141522057Y-102458666D01*
X141426819Y-101553904D02*
X141426819Y-102030094D01*
X141426819Y-102030094D02*
X141903009Y-102077713D01*
X141903009Y-102077713D02*
X141855390Y-102030094D01*
X141855390Y-102030094D02*
X141807771Y-101934856D01*
X141807771Y-101934856D02*
X141807771Y-101696761D01*
X141807771Y-101696761D02*
X141855390Y-101601523D01*
X141855390Y-101601523D02*
X141903009Y-101553904D01*
X141903009Y-101553904D02*
X141998247Y-101506285D01*
X141998247Y-101506285D02*
X142236342Y-101506285D01*
X142236342Y-101506285D02*
X142331580Y-101553904D01*
X142331580Y-101553904D02*
X142379200Y-101601523D01*
X142379200Y-101601523D02*
X142426819Y-101696761D01*
X142426819Y-101696761D02*
X142426819Y-101934856D01*
X142426819Y-101934856D02*
X142379200Y-102030094D01*
X142379200Y-102030094D02*
X142331580Y-102077713D01*
X164613142Y-99416819D02*
X164279809Y-98940628D01*
X164041714Y-99416819D02*
X164041714Y-98416819D01*
X164041714Y-98416819D02*
X164422666Y-98416819D01*
X164422666Y-98416819D02*
X164517904Y-98464438D01*
X164517904Y-98464438D02*
X164565523Y-98512057D01*
X164565523Y-98512057D02*
X164613142Y-98607295D01*
X164613142Y-98607295D02*
X164613142Y-98750152D01*
X164613142Y-98750152D02*
X164565523Y-98845390D01*
X164565523Y-98845390D02*
X164517904Y-98893009D01*
X164517904Y-98893009D02*
X164422666Y-98940628D01*
X164422666Y-98940628D02*
X164041714Y-98940628D01*
X165565523Y-99416819D02*
X164994095Y-99416819D01*
X165279809Y-99416819D02*
X165279809Y-98416819D01*
X165279809Y-98416819D02*
X165184571Y-98559676D01*
X165184571Y-98559676D02*
X165089333Y-98654914D01*
X165089333Y-98654914D02*
X164994095Y-98702533D01*
X166517904Y-99416819D02*
X165946476Y-99416819D01*
X166232190Y-99416819D02*
X166232190Y-98416819D01*
X166232190Y-98416819D02*
X166136952Y-98559676D01*
X166136952Y-98559676D02*
X166041714Y-98654914D01*
X166041714Y-98654914D02*
X165946476Y-98702533D01*
X173407905Y-114402819D02*
X173407905Y-113402819D01*
X173407905Y-113402819D02*
X173646000Y-113402819D01*
X173646000Y-113402819D02*
X173788857Y-113450438D01*
X173788857Y-113450438D02*
X173884095Y-113545676D01*
X173884095Y-113545676D02*
X173931714Y-113640914D01*
X173931714Y-113640914D02*
X173979333Y-113831390D01*
X173979333Y-113831390D02*
X173979333Y-113974247D01*
X173979333Y-113974247D02*
X173931714Y-114164723D01*
X173931714Y-114164723D02*
X173884095Y-114259961D01*
X173884095Y-114259961D02*
X173788857Y-114355200D01*
X173788857Y-114355200D02*
X173646000Y-114402819D01*
X173646000Y-114402819D02*
X173407905Y-114402819D01*
X174312667Y-113402819D02*
X174931714Y-113402819D01*
X174931714Y-113402819D02*
X174598381Y-113783771D01*
X174598381Y-113783771D02*
X174741238Y-113783771D01*
X174741238Y-113783771D02*
X174836476Y-113831390D01*
X174836476Y-113831390D02*
X174884095Y-113879009D01*
X174884095Y-113879009D02*
X174931714Y-113974247D01*
X174931714Y-113974247D02*
X174931714Y-114212342D01*
X174931714Y-114212342D02*
X174884095Y-114307580D01*
X174884095Y-114307580D02*
X174836476Y-114355200D01*
X174836476Y-114355200D02*
X174741238Y-114402819D01*
X174741238Y-114402819D02*
X174455524Y-114402819D01*
X174455524Y-114402819D02*
X174360286Y-114355200D01*
X174360286Y-114355200D02*
X174312667Y-114307580D01*
X173407905Y-115926819D02*
X173407905Y-114926819D01*
X173407905Y-114926819D02*
X173646000Y-114926819D01*
X173646000Y-114926819D02*
X173788857Y-114974438D01*
X173788857Y-114974438D02*
X173884095Y-115069676D01*
X173884095Y-115069676D02*
X173931714Y-115164914D01*
X173931714Y-115164914D02*
X173979333Y-115355390D01*
X173979333Y-115355390D02*
X173979333Y-115498247D01*
X173979333Y-115498247D02*
X173931714Y-115688723D01*
X173931714Y-115688723D02*
X173884095Y-115783961D01*
X173884095Y-115783961D02*
X173788857Y-115879200D01*
X173788857Y-115879200D02*
X173646000Y-115926819D01*
X173646000Y-115926819D02*
X173407905Y-115926819D01*
X174360286Y-115022057D02*
X174407905Y-114974438D01*
X174407905Y-114974438D02*
X174503143Y-114926819D01*
X174503143Y-114926819D02*
X174741238Y-114926819D01*
X174741238Y-114926819D02*
X174836476Y-114974438D01*
X174836476Y-114974438D02*
X174884095Y-115022057D01*
X174884095Y-115022057D02*
X174931714Y-115117295D01*
X174931714Y-115117295D02*
X174931714Y-115212533D01*
X174931714Y-115212533D02*
X174884095Y-115355390D01*
X174884095Y-115355390D02*
X174312667Y-115926819D01*
X174312667Y-115926819D02*
X174931714Y-115926819D01*
X132341580Y-97318857D02*
X132389200Y-97366476D01*
X132389200Y-97366476D02*
X132436819Y-97509333D01*
X132436819Y-97509333D02*
X132436819Y-97604571D01*
X132436819Y-97604571D02*
X132389200Y-97747428D01*
X132389200Y-97747428D02*
X132293961Y-97842666D01*
X132293961Y-97842666D02*
X132198723Y-97890285D01*
X132198723Y-97890285D02*
X132008247Y-97937904D01*
X132008247Y-97937904D02*
X131865390Y-97937904D01*
X131865390Y-97937904D02*
X131674914Y-97890285D01*
X131674914Y-97890285D02*
X131579676Y-97842666D01*
X131579676Y-97842666D02*
X131484438Y-97747428D01*
X131484438Y-97747428D02*
X131436819Y-97604571D01*
X131436819Y-97604571D02*
X131436819Y-97509333D01*
X131436819Y-97509333D02*
X131484438Y-97366476D01*
X131484438Y-97366476D02*
X131532057Y-97318857D01*
X132436819Y-96366476D02*
X132436819Y-96937904D01*
X132436819Y-96652190D02*
X131436819Y-96652190D01*
X131436819Y-96652190D02*
X131579676Y-96747428D01*
X131579676Y-96747428D02*
X131674914Y-96842666D01*
X131674914Y-96842666D02*
X131722533Y-96937904D01*
X131532057Y-95985523D02*
X131484438Y-95937904D01*
X131484438Y-95937904D02*
X131436819Y-95842666D01*
X131436819Y-95842666D02*
X131436819Y-95604571D01*
X131436819Y-95604571D02*
X131484438Y-95509333D01*
X131484438Y-95509333D02*
X131532057Y-95461714D01*
X131532057Y-95461714D02*
X131627295Y-95414095D01*
X131627295Y-95414095D02*
X131722533Y-95414095D01*
X131722533Y-95414095D02*
X131865390Y-95461714D01*
X131865390Y-95461714D02*
X132436819Y-96033142D01*
X132436819Y-96033142D02*
X132436819Y-95414095D01*
X132436819Y-113860666D02*
X132436819Y-114336856D01*
X132436819Y-114336856D02*
X131436819Y-114336856D01*
X131532057Y-113574951D02*
X131484438Y-113527332D01*
X131484438Y-113527332D02*
X131436819Y-113432094D01*
X131436819Y-113432094D02*
X131436819Y-113193999D01*
X131436819Y-113193999D02*
X131484438Y-113098761D01*
X131484438Y-113098761D02*
X131532057Y-113051142D01*
X131532057Y-113051142D02*
X131627295Y-113003523D01*
X131627295Y-113003523D02*
X131722533Y-113003523D01*
X131722533Y-113003523D02*
X131865390Y-113051142D01*
X131865390Y-113051142D02*
X132436819Y-113622570D01*
X132436819Y-113622570D02*
X132436819Y-113003523D01*
X126438819Y-98842857D02*
X125962628Y-99176190D01*
X126438819Y-99414285D02*
X125438819Y-99414285D01*
X125438819Y-99414285D02*
X125438819Y-99033333D01*
X125438819Y-99033333D02*
X125486438Y-98938095D01*
X125486438Y-98938095D02*
X125534057Y-98890476D01*
X125534057Y-98890476D02*
X125629295Y-98842857D01*
X125629295Y-98842857D02*
X125772152Y-98842857D01*
X125772152Y-98842857D02*
X125867390Y-98890476D01*
X125867390Y-98890476D02*
X125915009Y-98938095D01*
X125915009Y-98938095D02*
X125962628Y-99033333D01*
X125962628Y-99033333D02*
X125962628Y-99414285D01*
X125534057Y-98461904D02*
X125486438Y-98414285D01*
X125486438Y-98414285D02*
X125438819Y-98319047D01*
X125438819Y-98319047D02*
X125438819Y-98080952D01*
X125438819Y-98080952D02*
X125486438Y-97985714D01*
X125486438Y-97985714D02*
X125534057Y-97938095D01*
X125534057Y-97938095D02*
X125629295Y-97890476D01*
X125629295Y-97890476D02*
X125724533Y-97890476D01*
X125724533Y-97890476D02*
X125867390Y-97938095D01*
X125867390Y-97938095D02*
X126438819Y-98509523D01*
X126438819Y-98509523D02*
X126438819Y-97890476D01*
X125438819Y-97557142D02*
X125438819Y-96938095D01*
X125438819Y-96938095D02*
X125819771Y-97271428D01*
X125819771Y-97271428D02*
X125819771Y-97128571D01*
X125819771Y-97128571D02*
X125867390Y-97033333D01*
X125867390Y-97033333D02*
X125915009Y-96985714D01*
X125915009Y-96985714D02*
X126010247Y-96938095D01*
X126010247Y-96938095D02*
X126248342Y-96938095D01*
X126248342Y-96938095D02*
X126343580Y-96985714D01*
X126343580Y-96985714D02*
X126391200Y-97033333D01*
X126391200Y-97033333D02*
X126438819Y-97128571D01*
X126438819Y-97128571D02*
X126438819Y-97414285D01*
X126438819Y-97414285D02*
X126391200Y-97509523D01*
X126391200Y-97509523D02*
X126343580Y-97557142D01*
X179934819Y-111574666D02*
X179458628Y-111907999D01*
X179934819Y-112146094D02*
X178934819Y-112146094D01*
X178934819Y-112146094D02*
X178934819Y-111765142D01*
X178934819Y-111765142D02*
X178982438Y-111669904D01*
X178982438Y-111669904D02*
X179030057Y-111622285D01*
X179030057Y-111622285D02*
X179125295Y-111574666D01*
X179125295Y-111574666D02*
X179268152Y-111574666D01*
X179268152Y-111574666D02*
X179363390Y-111622285D01*
X179363390Y-111622285D02*
X179411009Y-111669904D01*
X179411009Y-111669904D02*
X179458628Y-111765142D01*
X179458628Y-111765142D02*
X179458628Y-112146094D01*
X178934819Y-111241332D02*
X178934819Y-110574666D01*
X178934819Y-110574666D02*
X179934819Y-111003237D01*
X174346819Y-112304857D02*
X173870628Y-112638190D01*
X174346819Y-112876285D02*
X173346819Y-112876285D01*
X173346819Y-112876285D02*
X173346819Y-112495333D01*
X173346819Y-112495333D02*
X173394438Y-112400095D01*
X173394438Y-112400095D02*
X173442057Y-112352476D01*
X173442057Y-112352476D02*
X173537295Y-112304857D01*
X173537295Y-112304857D02*
X173680152Y-112304857D01*
X173680152Y-112304857D02*
X173775390Y-112352476D01*
X173775390Y-112352476D02*
X173823009Y-112400095D01*
X173823009Y-112400095D02*
X173870628Y-112495333D01*
X173870628Y-112495333D02*
X173870628Y-112876285D01*
X174346819Y-111352476D02*
X174346819Y-111923904D01*
X174346819Y-111638190D02*
X173346819Y-111638190D01*
X173346819Y-111638190D02*
X173489676Y-111733428D01*
X173489676Y-111733428D02*
X173584914Y-111828666D01*
X173584914Y-111828666D02*
X173632533Y-111923904D01*
X173442057Y-110971523D02*
X173394438Y-110923904D01*
X173394438Y-110923904D02*
X173346819Y-110828666D01*
X173346819Y-110828666D02*
X173346819Y-110590571D01*
X173346819Y-110590571D02*
X173394438Y-110495333D01*
X173394438Y-110495333D02*
X173442057Y-110447714D01*
X173442057Y-110447714D02*
X173537295Y-110400095D01*
X173537295Y-110400095D02*
X173632533Y-110400095D01*
X173632533Y-110400095D02*
X173775390Y-110447714D01*
X173775390Y-110447714D02*
X174346819Y-111019142D01*
X174346819Y-111019142D02*
X174346819Y-110400095D01*
X153778476Y-108576819D02*
X154445142Y-109576819D01*
X154445142Y-108576819D02*
X153778476Y-109576819D01*
X155349904Y-109576819D02*
X154778476Y-109576819D01*
X155064190Y-109576819D02*
X155064190Y-108576819D01*
X155064190Y-108576819D02*
X154968952Y-108719676D01*
X154968952Y-108719676D02*
X154873714Y-108814914D01*
X154873714Y-108814914D02*
X154778476Y-108862533D01*
X127856419Y-88054266D02*
X127856419Y-88530456D01*
X127856419Y-88530456D02*
X126856419Y-88530456D01*
X127856419Y-87197123D02*
X127856419Y-87768551D01*
X127856419Y-87482837D02*
X126856419Y-87482837D01*
X126856419Y-87482837D02*
X126999276Y-87578075D01*
X126999276Y-87578075D02*
X127094514Y-87673313D01*
X127094514Y-87673313D02*
X127142133Y-87768551D01*
X174677905Y-91034819D02*
X174677905Y-90034819D01*
X174677905Y-90034819D02*
X174916000Y-90034819D01*
X174916000Y-90034819D02*
X175058857Y-90082438D01*
X175058857Y-90082438D02*
X175154095Y-90177676D01*
X175154095Y-90177676D02*
X175201714Y-90272914D01*
X175201714Y-90272914D02*
X175249333Y-90463390D01*
X175249333Y-90463390D02*
X175249333Y-90606247D01*
X175249333Y-90606247D02*
X175201714Y-90796723D01*
X175201714Y-90796723D02*
X175154095Y-90891961D01*
X175154095Y-90891961D02*
X175058857Y-90987200D01*
X175058857Y-90987200D02*
X174916000Y-91034819D01*
X174916000Y-91034819D02*
X174677905Y-91034819D01*
X176201714Y-91034819D02*
X175630286Y-91034819D01*
X175916000Y-91034819D02*
X175916000Y-90034819D01*
X175916000Y-90034819D02*
X175820762Y-90177676D01*
X175820762Y-90177676D02*
X175725524Y-90272914D01*
X175725524Y-90272914D02*
X175630286Y-90320533D01*
X168094819Y-103192666D02*
X167618628Y-103525999D01*
X168094819Y-103764094D02*
X167094819Y-103764094D01*
X167094819Y-103764094D02*
X167094819Y-103383142D01*
X167094819Y-103383142D02*
X167142438Y-103287904D01*
X167142438Y-103287904D02*
X167190057Y-103240285D01*
X167190057Y-103240285D02*
X167285295Y-103192666D01*
X167285295Y-103192666D02*
X167428152Y-103192666D01*
X167428152Y-103192666D02*
X167523390Y-103240285D01*
X167523390Y-103240285D02*
X167571009Y-103287904D01*
X167571009Y-103287904D02*
X167618628Y-103383142D01*
X167618628Y-103383142D02*
X167618628Y-103764094D01*
X167428152Y-102335523D02*
X168094819Y-102335523D01*
X167047200Y-102573618D02*
X167761485Y-102811713D01*
X167761485Y-102811713D02*
X167761485Y-102192666D01*
X141088819Y-107589904D02*
X141088819Y-107018476D01*
X142088819Y-107304190D02*
X141088819Y-107304190D01*
X142088819Y-106685142D02*
X141088819Y-106685142D01*
X141088819Y-106685142D02*
X141088819Y-106304190D01*
X141088819Y-106304190D02*
X141136438Y-106208952D01*
X141136438Y-106208952D02*
X141184057Y-106161333D01*
X141184057Y-106161333D02*
X141279295Y-106113714D01*
X141279295Y-106113714D02*
X141422152Y-106113714D01*
X141422152Y-106113714D02*
X141517390Y-106161333D01*
X141517390Y-106161333D02*
X141565009Y-106208952D01*
X141565009Y-106208952D02*
X141612628Y-106304190D01*
X141612628Y-106304190D02*
X141612628Y-106685142D01*
X141088819Y-105208952D02*
X141088819Y-105685142D01*
X141088819Y-105685142D02*
X141565009Y-105732761D01*
X141565009Y-105732761D02*
X141517390Y-105685142D01*
X141517390Y-105685142D02*
X141469771Y-105589904D01*
X141469771Y-105589904D02*
X141469771Y-105351809D01*
X141469771Y-105351809D02*
X141517390Y-105256571D01*
X141517390Y-105256571D02*
X141565009Y-105208952D01*
X141565009Y-105208952D02*
X141660247Y-105161333D01*
X141660247Y-105161333D02*
X141898342Y-105161333D01*
X141898342Y-105161333D02*
X141993580Y-105208952D01*
X141993580Y-105208952D02*
X142041200Y-105256571D01*
X142041200Y-105256571D02*
X142088819Y-105351809D01*
X142088819Y-105351809D02*
X142088819Y-105589904D01*
X142088819Y-105589904D02*
X142041200Y-105685142D01*
X142041200Y-105685142D02*
X141993580Y-105732761D01*
X177902819Y-111320666D02*
X177426628Y-111653999D01*
X177902819Y-111892094D02*
X176902819Y-111892094D01*
X176902819Y-111892094D02*
X176902819Y-111511142D01*
X176902819Y-111511142D02*
X176950438Y-111415904D01*
X176950438Y-111415904D02*
X176998057Y-111368285D01*
X176998057Y-111368285D02*
X177093295Y-111320666D01*
X177093295Y-111320666D02*
X177236152Y-111320666D01*
X177236152Y-111320666D02*
X177331390Y-111368285D01*
X177331390Y-111368285D02*
X177379009Y-111415904D01*
X177379009Y-111415904D02*
X177426628Y-111511142D01*
X177426628Y-111511142D02*
X177426628Y-111892094D01*
X177331390Y-110749237D02*
X177283771Y-110844475D01*
X177283771Y-110844475D02*
X177236152Y-110892094D01*
X177236152Y-110892094D02*
X177140914Y-110939713D01*
X177140914Y-110939713D02*
X177093295Y-110939713D01*
X177093295Y-110939713D02*
X176998057Y-110892094D01*
X176998057Y-110892094D02*
X176950438Y-110844475D01*
X176950438Y-110844475D02*
X176902819Y-110749237D01*
X176902819Y-110749237D02*
X176902819Y-110558761D01*
X176902819Y-110558761D02*
X176950438Y-110463523D01*
X176950438Y-110463523D02*
X176998057Y-110415904D01*
X176998057Y-110415904D02*
X177093295Y-110368285D01*
X177093295Y-110368285D02*
X177140914Y-110368285D01*
X177140914Y-110368285D02*
X177236152Y-110415904D01*
X177236152Y-110415904D02*
X177283771Y-110463523D01*
X177283771Y-110463523D02*
X177331390Y-110558761D01*
X177331390Y-110558761D02*
X177331390Y-110749237D01*
X177331390Y-110749237D02*
X177379009Y-110844475D01*
X177379009Y-110844475D02*
X177426628Y-110892094D01*
X177426628Y-110892094D02*
X177521866Y-110939713D01*
X177521866Y-110939713D02*
X177712342Y-110939713D01*
X177712342Y-110939713D02*
X177807580Y-110892094D01*
X177807580Y-110892094D02*
X177855200Y-110844475D01*
X177855200Y-110844475D02*
X177902819Y-110749237D01*
X177902819Y-110749237D02*
X177902819Y-110558761D01*
X177902819Y-110558761D02*
X177855200Y-110463523D01*
X177855200Y-110463523D02*
X177807580Y-110415904D01*
X177807580Y-110415904D02*
X177712342Y-110368285D01*
X177712342Y-110368285D02*
X177521866Y-110368285D01*
X177521866Y-110368285D02*
X177426628Y-110415904D01*
X177426628Y-110415904D02*
X177379009Y-110463523D01*
X177379009Y-110463523D02*
X177331390Y-110558761D01*
X178726095Y-114926819D02*
X179297523Y-114926819D01*
X179011809Y-115926819D02*
X179011809Y-114926819D01*
X179630857Y-115926819D02*
X179630857Y-114926819D01*
X179630857Y-114926819D02*
X180011809Y-114926819D01*
X180011809Y-114926819D02*
X180107047Y-114974438D01*
X180107047Y-114974438D02*
X180154666Y-115022057D01*
X180154666Y-115022057D02*
X180202285Y-115117295D01*
X180202285Y-115117295D02*
X180202285Y-115260152D01*
X180202285Y-115260152D02*
X180154666Y-115355390D01*
X180154666Y-115355390D02*
X180107047Y-115403009D01*
X180107047Y-115403009D02*
X180011809Y-115450628D01*
X180011809Y-115450628D02*
X179630857Y-115450628D01*
X181154666Y-115926819D02*
X180583238Y-115926819D01*
X180868952Y-115926819D02*
X180868952Y-114926819D01*
X180868952Y-114926819D02*
X180773714Y-115069676D01*
X180773714Y-115069676D02*
X180678476Y-115164914D01*
X180678476Y-115164914D02*
X180583238Y-115212533D01*
X134119580Y-87952666D02*
X134167200Y-88000285D01*
X134167200Y-88000285D02*
X134214819Y-88143142D01*
X134214819Y-88143142D02*
X134214819Y-88238380D01*
X134214819Y-88238380D02*
X134167200Y-88381237D01*
X134167200Y-88381237D02*
X134071961Y-88476475D01*
X134071961Y-88476475D02*
X133976723Y-88524094D01*
X133976723Y-88524094D02*
X133786247Y-88571713D01*
X133786247Y-88571713D02*
X133643390Y-88571713D01*
X133643390Y-88571713D02*
X133452914Y-88524094D01*
X133452914Y-88524094D02*
X133357676Y-88476475D01*
X133357676Y-88476475D02*
X133262438Y-88381237D01*
X133262438Y-88381237D02*
X133214819Y-88238380D01*
X133214819Y-88238380D02*
X133214819Y-88143142D01*
X133214819Y-88143142D02*
X133262438Y-88000285D01*
X133262438Y-88000285D02*
X133310057Y-87952666D01*
X133214819Y-87619332D02*
X133214819Y-87000285D01*
X133214819Y-87000285D02*
X133595771Y-87333618D01*
X133595771Y-87333618D02*
X133595771Y-87190761D01*
X133595771Y-87190761D02*
X133643390Y-87095523D01*
X133643390Y-87095523D02*
X133691009Y-87047904D01*
X133691009Y-87047904D02*
X133786247Y-87000285D01*
X133786247Y-87000285D02*
X134024342Y-87000285D01*
X134024342Y-87000285D02*
X134119580Y-87047904D01*
X134119580Y-87047904D02*
X134167200Y-87095523D01*
X134167200Y-87095523D02*
X134214819Y-87190761D01*
X134214819Y-87190761D02*
X134214819Y-87476475D01*
X134214819Y-87476475D02*
X134167200Y-87571713D01*
X134167200Y-87571713D02*
X134119580Y-87619332D01*
X148692819Y-96149094D02*
X147692819Y-96149094D01*
X147692819Y-96149094D02*
X147692819Y-95910999D01*
X147692819Y-95910999D02*
X147740438Y-95768142D01*
X147740438Y-95768142D02*
X147835676Y-95672904D01*
X147835676Y-95672904D02*
X147930914Y-95625285D01*
X147930914Y-95625285D02*
X148121390Y-95577666D01*
X148121390Y-95577666D02*
X148264247Y-95577666D01*
X148264247Y-95577666D02*
X148454723Y-95625285D01*
X148454723Y-95625285D02*
X148549961Y-95672904D01*
X148549961Y-95672904D02*
X148645200Y-95768142D01*
X148645200Y-95768142D02*
X148692819Y-95910999D01*
X148692819Y-95910999D02*
X148692819Y-96149094D01*
X148026152Y-94720523D02*
X148692819Y-94720523D01*
X147645200Y-94958618D02*
X148359485Y-95196713D01*
X148359485Y-95196713D02*
X148359485Y-94577666D01*
X126343580Y-105830666D02*
X126391200Y-105878285D01*
X126391200Y-105878285D02*
X126438819Y-106021142D01*
X126438819Y-106021142D02*
X126438819Y-106116380D01*
X126438819Y-106116380D02*
X126391200Y-106259237D01*
X126391200Y-106259237D02*
X126295961Y-106354475D01*
X126295961Y-106354475D02*
X126200723Y-106402094D01*
X126200723Y-106402094D02*
X126010247Y-106449713D01*
X126010247Y-106449713D02*
X125867390Y-106449713D01*
X125867390Y-106449713D02*
X125676914Y-106402094D01*
X125676914Y-106402094D02*
X125581676Y-106354475D01*
X125581676Y-106354475D02*
X125486438Y-106259237D01*
X125486438Y-106259237D02*
X125438819Y-106116380D01*
X125438819Y-106116380D02*
X125438819Y-106021142D01*
X125438819Y-106021142D02*
X125486438Y-105878285D01*
X125486438Y-105878285D02*
X125534057Y-105830666D01*
X125438819Y-105497332D02*
X125438819Y-104830666D01*
X125438819Y-104830666D02*
X126438819Y-105259237D01*
X141499142Y-86462819D02*
X141165809Y-85986628D01*
X140927714Y-86462819D02*
X140927714Y-85462819D01*
X140927714Y-85462819D02*
X141308666Y-85462819D01*
X141308666Y-85462819D02*
X141403904Y-85510438D01*
X141403904Y-85510438D02*
X141451523Y-85558057D01*
X141451523Y-85558057D02*
X141499142Y-85653295D01*
X141499142Y-85653295D02*
X141499142Y-85796152D01*
X141499142Y-85796152D02*
X141451523Y-85891390D01*
X141451523Y-85891390D02*
X141403904Y-85939009D01*
X141403904Y-85939009D02*
X141308666Y-85986628D01*
X141308666Y-85986628D02*
X140927714Y-85986628D01*
X142451523Y-86462819D02*
X141880095Y-86462819D01*
X142165809Y-86462819D02*
X142165809Y-85462819D01*
X142165809Y-85462819D02*
X142070571Y-85605676D01*
X142070571Y-85605676D02*
X141975333Y-85700914D01*
X141975333Y-85700914D02*
X141880095Y-85748533D01*
X142784857Y-85462819D02*
X143403904Y-85462819D01*
X143403904Y-85462819D02*
X143070571Y-85843771D01*
X143070571Y-85843771D02*
X143213428Y-85843771D01*
X143213428Y-85843771D02*
X143308666Y-85891390D01*
X143308666Y-85891390D02*
X143356285Y-85939009D01*
X143356285Y-85939009D02*
X143403904Y-86034247D01*
X143403904Y-86034247D02*
X143403904Y-86272342D01*
X143403904Y-86272342D02*
X143356285Y-86367580D01*
X143356285Y-86367580D02*
X143308666Y-86415200D01*
X143308666Y-86415200D02*
X143213428Y-86462819D01*
X143213428Y-86462819D02*
X142927714Y-86462819D01*
X142927714Y-86462819D02*
X142832476Y-86415200D01*
X142832476Y-86415200D02*
X142784857Y-86367580D01*
X169012819Y-109288666D02*
X168536628Y-109621999D01*
X169012819Y-109860094D02*
X168012819Y-109860094D01*
X168012819Y-109860094D02*
X168012819Y-109479142D01*
X168012819Y-109479142D02*
X168060438Y-109383904D01*
X168060438Y-109383904D02*
X168108057Y-109336285D01*
X168108057Y-109336285D02*
X168203295Y-109288666D01*
X168203295Y-109288666D02*
X168346152Y-109288666D01*
X168346152Y-109288666D02*
X168441390Y-109336285D01*
X168441390Y-109336285D02*
X168489009Y-109383904D01*
X168489009Y-109383904D02*
X168536628Y-109479142D01*
X168536628Y-109479142D02*
X168536628Y-109860094D01*
X168012819Y-108955332D02*
X168012819Y-108336285D01*
X168012819Y-108336285D02*
X168393771Y-108669618D01*
X168393771Y-108669618D02*
X168393771Y-108526761D01*
X168393771Y-108526761D02*
X168441390Y-108431523D01*
X168441390Y-108431523D02*
X168489009Y-108383904D01*
X168489009Y-108383904D02*
X168584247Y-108336285D01*
X168584247Y-108336285D02*
X168822342Y-108336285D01*
X168822342Y-108336285D02*
X168917580Y-108383904D01*
X168917580Y-108383904D02*
X168965200Y-108431523D01*
X168965200Y-108431523D02*
X169012819Y-108526761D01*
X169012819Y-108526761D02*
X169012819Y-108812475D01*
X169012819Y-108812475D02*
X168965200Y-108907713D01*
X168965200Y-108907713D02*
X168917580Y-108955332D01*
X176773333Y-98752819D02*
X176440000Y-98276628D01*
X176201905Y-98752819D02*
X176201905Y-97752819D01*
X176201905Y-97752819D02*
X176582857Y-97752819D01*
X176582857Y-97752819D02*
X176678095Y-97800438D01*
X176678095Y-97800438D02*
X176725714Y-97848057D01*
X176725714Y-97848057D02*
X176773333Y-97943295D01*
X176773333Y-97943295D02*
X176773333Y-98086152D01*
X176773333Y-98086152D02*
X176725714Y-98181390D01*
X176725714Y-98181390D02*
X176678095Y-98229009D01*
X176678095Y-98229009D02*
X176582857Y-98276628D01*
X176582857Y-98276628D02*
X176201905Y-98276628D01*
X177249524Y-98752819D02*
X177440000Y-98752819D01*
X177440000Y-98752819D02*
X177535238Y-98705200D01*
X177535238Y-98705200D02*
X177582857Y-98657580D01*
X177582857Y-98657580D02*
X177678095Y-98514723D01*
X177678095Y-98514723D02*
X177725714Y-98324247D01*
X177725714Y-98324247D02*
X177725714Y-97943295D01*
X177725714Y-97943295D02*
X177678095Y-97848057D01*
X177678095Y-97848057D02*
X177630476Y-97800438D01*
X177630476Y-97800438D02*
X177535238Y-97752819D01*
X177535238Y-97752819D02*
X177344762Y-97752819D01*
X177344762Y-97752819D02*
X177249524Y-97800438D01*
X177249524Y-97800438D02*
X177201905Y-97848057D01*
X177201905Y-97848057D02*
X177154286Y-97943295D01*
X177154286Y-97943295D02*
X177154286Y-98181390D01*
X177154286Y-98181390D02*
X177201905Y-98276628D01*
X177201905Y-98276628D02*
X177249524Y-98324247D01*
X177249524Y-98324247D02*
X177344762Y-98371866D01*
X177344762Y-98371866D02*
X177535238Y-98371866D01*
X177535238Y-98371866D02*
X177630476Y-98324247D01*
X177630476Y-98324247D02*
X177678095Y-98276628D01*
X177678095Y-98276628D02*
X177725714Y-98181390D01*
X151151142Y-109481580D02*
X151103523Y-109529200D01*
X151103523Y-109529200D02*
X150960666Y-109576819D01*
X150960666Y-109576819D02*
X150865428Y-109576819D01*
X150865428Y-109576819D02*
X150722571Y-109529200D01*
X150722571Y-109529200D02*
X150627333Y-109433961D01*
X150627333Y-109433961D02*
X150579714Y-109338723D01*
X150579714Y-109338723D02*
X150532095Y-109148247D01*
X150532095Y-109148247D02*
X150532095Y-109005390D01*
X150532095Y-109005390D02*
X150579714Y-108814914D01*
X150579714Y-108814914D02*
X150627333Y-108719676D01*
X150627333Y-108719676D02*
X150722571Y-108624438D01*
X150722571Y-108624438D02*
X150865428Y-108576819D01*
X150865428Y-108576819D02*
X150960666Y-108576819D01*
X150960666Y-108576819D02*
X151103523Y-108624438D01*
X151103523Y-108624438D02*
X151151142Y-108672057D01*
X152103523Y-109576819D02*
X151532095Y-109576819D01*
X151817809Y-109576819D02*
X151817809Y-108576819D01*
X151817809Y-108576819D02*
X151722571Y-108719676D01*
X151722571Y-108719676D02*
X151627333Y-108814914D01*
X151627333Y-108814914D02*
X151532095Y-108862533D01*
X153055904Y-109576819D02*
X152484476Y-109576819D01*
X152770190Y-109576819D02*
X152770190Y-108576819D01*
X152770190Y-108576819D02*
X152674952Y-108719676D01*
X152674952Y-108719676D02*
X152579714Y-108814914D01*
X152579714Y-108814914D02*
X152484476Y-108862533D01*
X131182819Y-111907904D02*
X131182819Y-111336476D01*
X132182819Y-111622190D02*
X131182819Y-111622190D01*
X132182819Y-111003142D02*
X131182819Y-111003142D01*
X131182819Y-111003142D02*
X131182819Y-110622190D01*
X131182819Y-110622190D02*
X131230438Y-110526952D01*
X131230438Y-110526952D02*
X131278057Y-110479333D01*
X131278057Y-110479333D02*
X131373295Y-110431714D01*
X131373295Y-110431714D02*
X131516152Y-110431714D01*
X131516152Y-110431714D02*
X131611390Y-110479333D01*
X131611390Y-110479333D02*
X131659009Y-110526952D01*
X131659009Y-110526952D02*
X131706628Y-110622190D01*
X131706628Y-110622190D02*
X131706628Y-111003142D01*
X131182819Y-110098380D02*
X131182819Y-109479333D01*
X131182819Y-109479333D02*
X131563771Y-109812666D01*
X131563771Y-109812666D02*
X131563771Y-109669809D01*
X131563771Y-109669809D02*
X131611390Y-109574571D01*
X131611390Y-109574571D02*
X131659009Y-109526952D01*
X131659009Y-109526952D02*
X131754247Y-109479333D01*
X131754247Y-109479333D02*
X131992342Y-109479333D01*
X131992342Y-109479333D02*
X132087580Y-109526952D01*
X132087580Y-109526952D02*
X132135200Y-109574571D01*
X132135200Y-109574571D02*
X132182819Y-109669809D01*
X132182819Y-109669809D02*
X132182819Y-109955523D01*
X132182819Y-109955523D02*
X132135200Y-110050761D01*
X132135200Y-110050761D02*
X132087580Y-110098380D01*
X131085142Y-103734819D02*
X130751809Y-103258628D01*
X130513714Y-103734819D02*
X130513714Y-102734819D01*
X130513714Y-102734819D02*
X130894666Y-102734819D01*
X130894666Y-102734819D02*
X130989904Y-102782438D01*
X130989904Y-102782438D02*
X131037523Y-102830057D01*
X131037523Y-102830057D02*
X131085142Y-102925295D01*
X131085142Y-102925295D02*
X131085142Y-103068152D01*
X131085142Y-103068152D02*
X131037523Y-103163390D01*
X131037523Y-103163390D02*
X130989904Y-103211009D01*
X130989904Y-103211009D02*
X130894666Y-103258628D01*
X130894666Y-103258628D02*
X130513714Y-103258628D01*
X131466095Y-102830057D02*
X131513714Y-102782438D01*
X131513714Y-102782438D02*
X131608952Y-102734819D01*
X131608952Y-102734819D02*
X131847047Y-102734819D01*
X131847047Y-102734819D02*
X131942285Y-102782438D01*
X131942285Y-102782438D02*
X131989904Y-102830057D01*
X131989904Y-102830057D02*
X132037523Y-102925295D01*
X132037523Y-102925295D02*
X132037523Y-103020533D01*
X132037523Y-103020533D02*
X131989904Y-103163390D01*
X131989904Y-103163390D02*
X131418476Y-103734819D01*
X131418476Y-103734819D02*
X132037523Y-103734819D01*
X132418476Y-102830057D02*
X132466095Y-102782438D01*
X132466095Y-102782438D02*
X132561333Y-102734819D01*
X132561333Y-102734819D02*
X132799428Y-102734819D01*
X132799428Y-102734819D02*
X132894666Y-102782438D01*
X132894666Y-102782438D02*
X132942285Y-102830057D01*
X132942285Y-102830057D02*
X132989904Y-102925295D01*
X132989904Y-102925295D02*
X132989904Y-103020533D01*
X132989904Y-103020533D02*
X132942285Y-103163390D01*
X132942285Y-103163390D02*
X132370857Y-103734819D01*
X132370857Y-103734819D02*
X132989904Y-103734819D01*
X179736761Y-106468057D02*
X179641523Y-106420438D01*
X179641523Y-106420438D02*
X179546285Y-106325200D01*
X179546285Y-106325200D02*
X179403428Y-106182342D01*
X179403428Y-106182342D02*
X179308190Y-106134723D01*
X179308190Y-106134723D02*
X179212952Y-106134723D01*
X179260571Y-106372819D02*
X179165333Y-106325200D01*
X179165333Y-106325200D02*
X179070095Y-106229961D01*
X179070095Y-106229961D02*
X179022476Y-106039485D01*
X179022476Y-106039485D02*
X179022476Y-105706152D01*
X179022476Y-105706152D02*
X179070095Y-105515676D01*
X179070095Y-105515676D02*
X179165333Y-105420438D01*
X179165333Y-105420438D02*
X179260571Y-105372819D01*
X179260571Y-105372819D02*
X179451047Y-105372819D01*
X179451047Y-105372819D02*
X179546285Y-105420438D01*
X179546285Y-105420438D02*
X179641523Y-105515676D01*
X179641523Y-105515676D02*
X179689142Y-105706152D01*
X179689142Y-105706152D02*
X179689142Y-106039485D01*
X179689142Y-106039485D02*
X179641523Y-106229961D01*
X179641523Y-106229961D02*
X179546285Y-106325200D01*
X179546285Y-106325200D02*
X179451047Y-106372819D01*
X179451047Y-106372819D02*
X179260571Y-106372819D01*
X180022476Y-105372819D02*
X180641523Y-105372819D01*
X180641523Y-105372819D02*
X180308190Y-105753771D01*
X180308190Y-105753771D02*
X180451047Y-105753771D01*
X180451047Y-105753771D02*
X180546285Y-105801390D01*
X180546285Y-105801390D02*
X180593904Y-105849009D01*
X180593904Y-105849009D02*
X180641523Y-105944247D01*
X180641523Y-105944247D02*
X180641523Y-106182342D01*
X180641523Y-106182342D02*
X180593904Y-106277580D01*
X180593904Y-106277580D02*
X180546285Y-106325200D01*
X180546285Y-106325200D02*
X180451047Y-106372819D01*
X180451047Y-106372819D02*
X180165333Y-106372819D01*
X180165333Y-106372819D02*
X180070095Y-106325200D01*
X180070095Y-106325200D02*
X180022476Y-106277580D01*
X161631333Y-103832819D02*
X161298000Y-103356628D01*
X161059905Y-103832819D02*
X161059905Y-102832819D01*
X161059905Y-102832819D02*
X161440857Y-102832819D01*
X161440857Y-102832819D02*
X161536095Y-102880438D01*
X161536095Y-102880438D02*
X161583714Y-102928057D01*
X161583714Y-102928057D02*
X161631333Y-103023295D01*
X161631333Y-103023295D02*
X161631333Y-103166152D01*
X161631333Y-103166152D02*
X161583714Y-103261390D01*
X161583714Y-103261390D02*
X161536095Y-103309009D01*
X161536095Y-103309009D02*
X161440857Y-103356628D01*
X161440857Y-103356628D02*
X161059905Y-103356628D01*
X162488476Y-102832819D02*
X162298000Y-102832819D01*
X162298000Y-102832819D02*
X162202762Y-102880438D01*
X162202762Y-102880438D02*
X162155143Y-102928057D01*
X162155143Y-102928057D02*
X162059905Y-103070914D01*
X162059905Y-103070914D02*
X162012286Y-103261390D01*
X162012286Y-103261390D02*
X162012286Y-103642342D01*
X162012286Y-103642342D02*
X162059905Y-103737580D01*
X162059905Y-103737580D02*
X162107524Y-103785200D01*
X162107524Y-103785200D02*
X162202762Y-103832819D01*
X162202762Y-103832819D02*
X162393238Y-103832819D01*
X162393238Y-103832819D02*
X162488476Y-103785200D01*
X162488476Y-103785200D02*
X162536095Y-103737580D01*
X162536095Y-103737580D02*
X162583714Y-103642342D01*
X162583714Y-103642342D02*
X162583714Y-103404247D01*
X162583714Y-103404247D02*
X162536095Y-103309009D01*
X162536095Y-103309009D02*
X162488476Y-103261390D01*
X162488476Y-103261390D02*
X162393238Y-103213771D01*
X162393238Y-103213771D02*
X162202762Y-103213771D01*
X162202762Y-103213771D02*
X162107524Y-103261390D01*
X162107524Y-103261390D02*
X162059905Y-103309009D01*
X162059905Y-103309009D02*
X162012286Y-103404247D01*
X162073142Y-109194819D02*
X161739809Y-108718628D01*
X161501714Y-109194819D02*
X161501714Y-108194819D01*
X161501714Y-108194819D02*
X161882666Y-108194819D01*
X161882666Y-108194819D02*
X161977904Y-108242438D01*
X161977904Y-108242438D02*
X162025523Y-108290057D01*
X162025523Y-108290057D02*
X162073142Y-108385295D01*
X162073142Y-108385295D02*
X162073142Y-108528152D01*
X162073142Y-108528152D02*
X162025523Y-108623390D01*
X162025523Y-108623390D02*
X161977904Y-108671009D01*
X161977904Y-108671009D02*
X161882666Y-108718628D01*
X161882666Y-108718628D02*
X161501714Y-108718628D01*
X163025523Y-109194819D02*
X162454095Y-109194819D01*
X162739809Y-109194819D02*
X162739809Y-108194819D01*
X162739809Y-108194819D02*
X162644571Y-108337676D01*
X162644571Y-108337676D02*
X162549333Y-108432914D01*
X162549333Y-108432914D02*
X162454095Y-108480533D01*
X163358857Y-108194819D02*
X164025523Y-108194819D01*
X164025523Y-108194819D02*
X163596952Y-109194819D01*
X174519142Y-86621580D02*
X174471523Y-86669200D01*
X174471523Y-86669200D02*
X174328666Y-86716819D01*
X174328666Y-86716819D02*
X174233428Y-86716819D01*
X174233428Y-86716819D02*
X174090571Y-86669200D01*
X174090571Y-86669200D02*
X173995333Y-86573961D01*
X173995333Y-86573961D02*
X173947714Y-86478723D01*
X173947714Y-86478723D02*
X173900095Y-86288247D01*
X173900095Y-86288247D02*
X173900095Y-86145390D01*
X173900095Y-86145390D02*
X173947714Y-85954914D01*
X173947714Y-85954914D02*
X173995333Y-85859676D01*
X173995333Y-85859676D02*
X174090571Y-85764438D01*
X174090571Y-85764438D02*
X174233428Y-85716819D01*
X174233428Y-85716819D02*
X174328666Y-85716819D01*
X174328666Y-85716819D02*
X174471523Y-85764438D01*
X174471523Y-85764438D02*
X174519142Y-85812057D01*
X174900095Y-85812057D02*
X174947714Y-85764438D01*
X174947714Y-85764438D02*
X175042952Y-85716819D01*
X175042952Y-85716819D02*
X175281047Y-85716819D01*
X175281047Y-85716819D02*
X175376285Y-85764438D01*
X175376285Y-85764438D02*
X175423904Y-85812057D01*
X175423904Y-85812057D02*
X175471523Y-85907295D01*
X175471523Y-85907295D02*
X175471523Y-86002533D01*
X175471523Y-86002533D02*
X175423904Y-86145390D01*
X175423904Y-86145390D02*
X174852476Y-86716819D01*
X174852476Y-86716819D02*
X175471523Y-86716819D01*
X176090571Y-85716819D02*
X176185809Y-85716819D01*
X176185809Y-85716819D02*
X176281047Y-85764438D01*
X176281047Y-85764438D02*
X176328666Y-85812057D01*
X176328666Y-85812057D02*
X176376285Y-85907295D01*
X176376285Y-85907295D02*
X176423904Y-86097771D01*
X176423904Y-86097771D02*
X176423904Y-86335866D01*
X176423904Y-86335866D02*
X176376285Y-86526342D01*
X176376285Y-86526342D02*
X176328666Y-86621580D01*
X176328666Y-86621580D02*
X176281047Y-86669200D01*
X176281047Y-86669200D02*
X176185809Y-86716819D01*
X176185809Y-86716819D02*
X176090571Y-86716819D01*
X176090571Y-86716819D02*
X175995333Y-86669200D01*
X175995333Y-86669200D02*
X175947714Y-86621580D01*
X175947714Y-86621580D02*
X175900095Y-86526342D01*
X175900095Y-86526342D02*
X175852476Y-86335866D01*
X175852476Y-86335866D02*
X175852476Y-86097771D01*
X175852476Y-86097771D02*
X175900095Y-85907295D01*
X175900095Y-85907295D02*
X175947714Y-85812057D01*
X175947714Y-85812057D02*
X175995333Y-85764438D01*
X175995333Y-85764438D02*
X176090571Y-85716819D01*
X157741580Y-103414857D02*
X157789200Y-103462476D01*
X157789200Y-103462476D02*
X157836819Y-103605333D01*
X157836819Y-103605333D02*
X157836819Y-103700571D01*
X157836819Y-103700571D02*
X157789200Y-103843428D01*
X157789200Y-103843428D02*
X157693961Y-103938666D01*
X157693961Y-103938666D02*
X157598723Y-103986285D01*
X157598723Y-103986285D02*
X157408247Y-104033904D01*
X157408247Y-104033904D02*
X157265390Y-104033904D01*
X157265390Y-104033904D02*
X157074914Y-103986285D01*
X157074914Y-103986285D02*
X156979676Y-103938666D01*
X156979676Y-103938666D02*
X156884438Y-103843428D01*
X156884438Y-103843428D02*
X156836819Y-103700571D01*
X156836819Y-103700571D02*
X156836819Y-103605333D01*
X156836819Y-103605333D02*
X156884438Y-103462476D01*
X156884438Y-103462476D02*
X156932057Y-103414857D01*
X157836819Y-102462476D02*
X157836819Y-103033904D01*
X157836819Y-102748190D02*
X156836819Y-102748190D01*
X156836819Y-102748190D02*
X156979676Y-102843428D01*
X156979676Y-102843428D02*
X157074914Y-102938666D01*
X157074914Y-102938666D02*
X157122533Y-103033904D01*
X157265390Y-101891047D02*
X157217771Y-101986285D01*
X157217771Y-101986285D02*
X157170152Y-102033904D01*
X157170152Y-102033904D02*
X157074914Y-102081523D01*
X157074914Y-102081523D02*
X157027295Y-102081523D01*
X157027295Y-102081523D02*
X156932057Y-102033904D01*
X156932057Y-102033904D02*
X156884438Y-101986285D01*
X156884438Y-101986285D02*
X156836819Y-101891047D01*
X156836819Y-101891047D02*
X156836819Y-101700571D01*
X156836819Y-101700571D02*
X156884438Y-101605333D01*
X156884438Y-101605333D02*
X156932057Y-101557714D01*
X156932057Y-101557714D02*
X157027295Y-101510095D01*
X157027295Y-101510095D02*
X157074914Y-101510095D01*
X157074914Y-101510095D02*
X157170152Y-101557714D01*
X157170152Y-101557714D02*
X157217771Y-101605333D01*
X157217771Y-101605333D02*
X157265390Y-101700571D01*
X157265390Y-101700571D02*
X157265390Y-101891047D01*
X157265390Y-101891047D02*
X157313009Y-101986285D01*
X157313009Y-101986285D02*
X157360628Y-102033904D01*
X157360628Y-102033904D02*
X157455866Y-102081523D01*
X157455866Y-102081523D02*
X157646342Y-102081523D01*
X157646342Y-102081523D02*
X157741580Y-102033904D01*
X157741580Y-102033904D02*
X157789200Y-101986285D01*
X157789200Y-101986285D02*
X157836819Y-101891047D01*
X157836819Y-101891047D02*
X157836819Y-101700571D01*
X157836819Y-101700571D02*
X157789200Y-101605333D01*
X157789200Y-101605333D02*
X157741580Y-101557714D01*
X157741580Y-101557714D02*
X157646342Y-101510095D01*
X157646342Y-101510095D02*
X157455866Y-101510095D01*
X157455866Y-101510095D02*
X157360628Y-101557714D01*
X157360628Y-101557714D02*
X157313009Y-101605333D01*
X157313009Y-101605333D02*
X157265390Y-101700571D01*
X166430761Y-109418057D02*
X166335523Y-109370438D01*
X166335523Y-109370438D02*
X166240285Y-109275200D01*
X166240285Y-109275200D02*
X166097428Y-109132342D01*
X166097428Y-109132342D02*
X166002190Y-109084723D01*
X166002190Y-109084723D02*
X165906952Y-109084723D01*
X165954571Y-109322819D02*
X165859333Y-109275200D01*
X165859333Y-109275200D02*
X165764095Y-109179961D01*
X165764095Y-109179961D02*
X165716476Y-108989485D01*
X165716476Y-108989485D02*
X165716476Y-108656152D01*
X165716476Y-108656152D02*
X165764095Y-108465676D01*
X165764095Y-108465676D02*
X165859333Y-108370438D01*
X165859333Y-108370438D02*
X165954571Y-108322819D01*
X165954571Y-108322819D02*
X166145047Y-108322819D01*
X166145047Y-108322819D02*
X166240285Y-108370438D01*
X166240285Y-108370438D02*
X166335523Y-108465676D01*
X166335523Y-108465676D02*
X166383142Y-108656152D01*
X166383142Y-108656152D02*
X166383142Y-108989485D01*
X166383142Y-108989485D02*
X166335523Y-109179961D01*
X166335523Y-109179961D02*
X166240285Y-109275200D01*
X166240285Y-109275200D02*
X166145047Y-109322819D01*
X166145047Y-109322819D02*
X165954571Y-109322819D01*
X166764095Y-108418057D02*
X166811714Y-108370438D01*
X166811714Y-108370438D02*
X166906952Y-108322819D01*
X166906952Y-108322819D02*
X167145047Y-108322819D01*
X167145047Y-108322819D02*
X167240285Y-108370438D01*
X167240285Y-108370438D02*
X167287904Y-108418057D01*
X167287904Y-108418057D02*
X167335523Y-108513295D01*
X167335523Y-108513295D02*
X167335523Y-108608533D01*
X167335523Y-108608533D02*
X167287904Y-108751390D01*
X167287904Y-108751390D02*
X166716476Y-109322819D01*
X166716476Y-109322819D02*
X167335523Y-109322819D01*
X126343580Y-91222857D02*
X126391200Y-91270476D01*
X126391200Y-91270476D02*
X126438819Y-91413333D01*
X126438819Y-91413333D02*
X126438819Y-91508571D01*
X126438819Y-91508571D02*
X126391200Y-91651428D01*
X126391200Y-91651428D02*
X126295961Y-91746666D01*
X126295961Y-91746666D02*
X126200723Y-91794285D01*
X126200723Y-91794285D02*
X126010247Y-91841904D01*
X126010247Y-91841904D02*
X125867390Y-91841904D01*
X125867390Y-91841904D02*
X125676914Y-91794285D01*
X125676914Y-91794285D02*
X125581676Y-91746666D01*
X125581676Y-91746666D02*
X125486438Y-91651428D01*
X125486438Y-91651428D02*
X125438819Y-91508571D01*
X125438819Y-91508571D02*
X125438819Y-91413333D01*
X125438819Y-91413333D02*
X125486438Y-91270476D01*
X125486438Y-91270476D02*
X125534057Y-91222857D01*
X126438819Y-90270476D02*
X126438819Y-90841904D01*
X126438819Y-90556190D02*
X125438819Y-90556190D01*
X125438819Y-90556190D02*
X125581676Y-90651428D01*
X125581676Y-90651428D02*
X125676914Y-90746666D01*
X125676914Y-90746666D02*
X125724533Y-90841904D01*
X125438819Y-89937142D02*
X125438819Y-89270476D01*
X125438819Y-89270476D02*
X126438819Y-89699047D01*
X175775580Y-111320666D02*
X175823200Y-111368285D01*
X175823200Y-111368285D02*
X175870819Y-111511142D01*
X175870819Y-111511142D02*
X175870819Y-111606380D01*
X175870819Y-111606380D02*
X175823200Y-111749237D01*
X175823200Y-111749237D02*
X175727961Y-111844475D01*
X175727961Y-111844475D02*
X175632723Y-111892094D01*
X175632723Y-111892094D02*
X175442247Y-111939713D01*
X175442247Y-111939713D02*
X175299390Y-111939713D01*
X175299390Y-111939713D02*
X175108914Y-111892094D01*
X175108914Y-111892094D02*
X175013676Y-111844475D01*
X175013676Y-111844475D02*
X174918438Y-111749237D01*
X174918438Y-111749237D02*
X174870819Y-111606380D01*
X174870819Y-111606380D02*
X174870819Y-111511142D01*
X174870819Y-111511142D02*
X174918438Y-111368285D01*
X174918438Y-111368285D02*
X174966057Y-111320666D01*
X175870819Y-110368285D02*
X175870819Y-110939713D01*
X175870819Y-110653999D02*
X174870819Y-110653999D01*
X174870819Y-110653999D02*
X175013676Y-110749237D01*
X175013676Y-110749237D02*
X175108914Y-110844475D01*
X175108914Y-110844475D02*
X175156533Y-110939713D01*
X152772819Y-100731904D02*
X152772819Y-100160476D01*
X153772819Y-100446190D02*
X152772819Y-100446190D01*
X153772819Y-99827142D02*
X152772819Y-99827142D01*
X152772819Y-99827142D02*
X152772819Y-99446190D01*
X152772819Y-99446190D02*
X152820438Y-99350952D01*
X152820438Y-99350952D02*
X152868057Y-99303333D01*
X152868057Y-99303333D02*
X152963295Y-99255714D01*
X152963295Y-99255714D02*
X153106152Y-99255714D01*
X153106152Y-99255714D02*
X153201390Y-99303333D01*
X153201390Y-99303333D02*
X153249009Y-99350952D01*
X153249009Y-99350952D02*
X153296628Y-99446190D01*
X153296628Y-99446190D02*
X153296628Y-99827142D01*
X152772819Y-98398571D02*
X152772819Y-98589047D01*
X152772819Y-98589047D02*
X152820438Y-98684285D01*
X152820438Y-98684285D02*
X152868057Y-98731904D01*
X152868057Y-98731904D02*
X153010914Y-98827142D01*
X153010914Y-98827142D02*
X153201390Y-98874761D01*
X153201390Y-98874761D02*
X153582342Y-98874761D01*
X153582342Y-98874761D02*
X153677580Y-98827142D01*
X153677580Y-98827142D02*
X153725200Y-98779523D01*
X153725200Y-98779523D02*
X153772819Y-98684285D01*
X153772819Y-98684285D02*
X153772819Y-98493809D01*
X153772819Y-98493809D02*
X153725200Y-98398571D01*
X153725200Y-98398571D02*
X153677580Y-98350952D01*
X153677580Y-98350952D02*
X153582342Y-98303333D01*
X153582342Y-98303333D02*
X153344247Y-98303333D01*
X153344247Y-98303333D02*
X153249009Y-98350952D01*
X153249009Y-98350952D02*
X153201390Y-98398571D01*
X153201390Y-98398571D02*
X153153771Y-98493809D01*
X153153771Y-98493809D02*
X153153771Y-98684285D01*
X153153771Y-98684285D02*
X153201390Y-98779523D01*
X153201390Y-98779523D02*
X153249009Y-98827142D01*
X153249009Y-98827142D02*
X153344247Y-98874761D01*
X176773333Y-96019580D02*
X176725714Y-96067200D01*
X176725714Y-96067200D02*
X176582857Y-96114819D01*
X176582857Y-96114819D02*
X176487619Y-96114819D01*
X176487619Y-96114819D02*
X176344762Y-96067200D01*
X176344762Y-96067200D02*
X176249524Y-95971961D01*
X176249524Y-95971961D02*
X176201905Y-95876723D01*
X176201905Y-95876723D02*
X176154286Y-95686247D01*
X176154286Y-95686247D02*
X176154286Y-95543390D01*
X176154286Y-95543390D02*
X176201905Y-95352914D01*
X176201905Y-95352914D02*
X176249524Y-95257676D01*
X176249524Y-95257676D02*
X176344762Y-95162438D01*
X176344762Y-95162438D02*
X176487619Y-95114819D01*
X176487619Y-95114819D02*
X176582857Y-95114819D01*
X176582857Y-95114819D02*
X176725714Y-95162438D01*
X176725714Y-95162438D02*
X176773333Y-95210057D01*
X177249524Y-96114819D02*
X177440000Y-96114819D01*
X177440000Y-96114819D02*
X177535238Y-96067200D01*
X177535238Y-96067200D02*
X177582857Y-96019580D01*
X177582857Y-96019580D02*
X177678095Y-95876723D01*
X177678095Y-95876723D02*
X177725714Y-95686247D01*
X177725714Y-95686247D02*
X177725714Y-95305295D01*
X177725714Y-95305295D02*
X177678095Y-95210057D01*
X177678095Y-95210057D02*
X177630476Y-95162438D01*
X177630476Y-95162438D02*
X177535238Y-95114819D01*
X177535238Y-95114819D02*
X177344762Y-95114819D01*
X177344762Y-95114819D02*
X177249524Y-95162438D01*
X177249524Y-95162438D02*
X177201905Y-95210057D01*
X177201905Y-95210057D02*
X177154286Y-95305295D01*
X177154286Y-95305295D02*
X177154286Y-95543390D01*
X177154286Y-95543390D02*
X177201905Y-95638628D01*
X177201905Y-95638628D02*
X177249524Y-95686247D01*
X177249524Y-95686247D02*
X177344762Y-95733866D01*
X177344762Y-95733866D02*
X177535238Y-95733866D01*
X177535238Y-95733866D02*
X177630476Y-95686247D01*
X177630476Y-95686247D02*
X177678095Y-95638628D01*
X177678095Y-95638628D02*
X177725714Y-95543390D01*
X131085142Y-101099580D02*
X131037523Y-101147200D01*
X131037523Y-101147200D02*
X130894666Y-101194819D01*
X130894666Y-101194819D02*
X130799428Y-101194819D01*
X130799428Y-101194819D02*
X130656571Y-101147200D01*
X130656571Y-101147200D02*
X130561333Y-101051961D01*
X130561333Y-101051961D02*
X130513714Y-100956723D01*
X130513714Y-100956723D02*
X130466095Y-100766247D01*
X130466095Y-100766247D02*
X130466095Y-100623390D01*
X130466095Y-100623390D02*
X130513714Y-100432914D01*
X130513714Y-100432914D02*
X130561333Y-100337676D01*
X130561333Y-100337676D02*
X130656571Y-100242438D01*
X130656571Y-100242438D02*
X130799428Y-100194819D01*
X130799428Y-100194819D02*
X130894666Y-100194819D01*
X130894666Y-100194819D02*
X131037523Y-100242438D01*
X131037523Y-100242438D02*
X131085142Y-100290057D01*
X132037523Y-101194819D02*
X131466095Y-101194819D01*
X131751809Y-101194819D02*
X131751809Y-100194819D01*
X131751809Y-100194819D02*
X131656571Y-100337676D01*
X131656571Y-100337676D02*
X131561333Y-100432914D01*
X131561333Y-100432914D02*
X131466095Y-100480533D01*
X132894666Y-100194819D02*
X132704190Y-100194819D01*
X132704190Y-100194819D02*
X132608952Y-100242438D01*
X132608952Y-100242438D02*
X132561333Y-100290057D01*
X132561333Y-100290057D02*
X132466095Y-100432914D01*
X132466095Y-100432914D02*
X132418476Y-100623390D01*
X132418476Y-100623390D02*
X132418476Y-101004342D01*
X132418476Y-101004342D02*
X132466095Y-101099580D01*
X132466095Y-101099580D02*
X132513714Y-101147200D01*
X132513714Y-101147200D02*
X132608952Y-101194819D01*
X132608952Y-101194819D02*
X132799428Y-101194819D01*
X132799428Y-101194819D02*
X132894666Y-101147200D01*
X132894666Y-101147200D02*
X132942285Y-101099580D01*
X132942285Y-101099580D02*
X132989904Y-101004342D01*
X132989904Y-101004342D02*
X132989904Y-100766247D01*
X132989904Y-100766247D02*
X132942285Y-100671009D01*
X132942285Y-100671009D02*
X132894666Y-100623390D01*
X132894666Y-100623390D02*
X132799428Y-100575771D01*
X132799428Y-100575771D02*
X132608952Y-100575771D01*
X132608952Y-100575771D02*
X132513714Y-100623390D01*
X132513714Y-100623390D02*
X132466095Y-100671009D01*
X132466095Y-100671009D02*
X132418476Y-100766247D01*
X174519142Y-88748819D02*
X174185809Y-88272628D01*
X173947714Y-88748819D02*
X173947714Y-87748819D01*
X173947714Y-87748819D02*
X174328666Y-87748819D01*
X174328666Y-87748819D02*
X174423904Y-87796438D01*
X174423904Y-87796438D02*
X174471523Y-87844057D01*
X174471523Y-87844057D02*
X174519142Y-87939295D01*
X174519142Y-87939295D02*
X174519142Y-88082152D01*
X174519142Y-88082152D02*
X174471523Y-88177390D01*
X174471523Y-88177390D02*
X174423904Y-88225009D01*
X174423904Y-88225009D02*
X174328666Y-88272628D01*
X174328666Y-88272628D02*
X173947714Y-88272628D01*
X175471523Y-88748819D02*
X174900095Y-88748819D01*
X175185809Y-88748819D02*
X175185809Y-87748819D01*
X175185809Y-87748819D02*
X175090571Y-87891676D01*
X175090571Y-87891676D02*
X174995333Y-87986914D01*
X174995333Y-87986914D02*
X174900095Y-88034533D01*
X176328666Y-87748819D02*
X176138190Y-87748819D01*
X176138190Y-87748819D02*
X176042952Y-87796438D01*
X176042952Y-87796438D02*
X175995333Y-87844057D01*
X175995333Y-87844057D02*
X175900095Y-87986914D01*
X175900095Y-87986914D02*
X175852476Y-88177390D01*
X175852476Y-88177390D02*
X175852476Y-88558342D01*
X175852476Y-88558342D02*
X175900095Y-88653580D01*
X175900095Y-88653580D02*
X175947714Y-88701200D01*
X175947714Y-88701200D02*
X176042952Y-88748819D01*
X176042952Y-88748819D02*
X176233428Y-88748819D01*
X176233428Y-88748819D02*
X176328666Y-88701200D01*
X176328666Y-88701200D02*
X176376285Y-88653580D01*
X176376285Y-88653580D02*
X176423904Y-88558342D01*
X176423904Y-88558342D02*
X176423904Y-88320247D01*
X176423904Y-88320247D02*
X176376285Y-88225009D01*
X176376285Y-88225009D02*
X176328666Y-88177390D01*
X176328666Y-88177390D02*
X176233428Y-88129771D01*
X176233428Y-88129771D02*
X176042952Y-88129771D01*
X176042952Y-88129771D02*
X175947714Y-88177390D01*
X175947714Y-88177390D02*
X175900095Y-88225009D01*
X175900095Y-88225009D02*
X175852476Y-88320247D01*
X155058819Y-114789333D02*
X155773104Y-114789333D01*
X155773104Y-114789333D02*
X155915961Y-114836952D01*
X155915961Y-114836952D02*
X156011200Y-114932190D01*
X156011200Y-114932190D02*
X156058819Y-115075047D01*
X156058819Y-115075047D02*
X156058819Y-115170285D01*
X156058819Y-113789333D02*
X156058819Y-114360761D01*
X156058819Y-114075047D02*
X155058819Y-114075047D01*
X155058819Y-114075047D02*
X155201676Y-114170285D01*
X155201676Y-114170285D02*
X155296914Y-114265523D01*
X155296914Y-114265523D02*
X155344533Y-114360761D01*
X127216819Y-111907904D02*
X127216819Y-111336476D01*
X128216819Y-111622190D02*
X127216819Y-111622190D01*
X128216819Y-111003142D02*
X127216819Y-111003142D01*
X127216819Y-111003142D02*
X127216819Y-110622190D01*
X127216819Y-110622190D02*
X127264438Y-110526952D01*
X127264438Y-110526952D02*
X127312057Y-110479333D01*
X127312057Y-110479333D02*
X127407295Y-110431714D01*
X127407295Y-110431714D02*
X127550152Y-110431714D01*
X127550152Y-110431714D02*
X127645390Y-110479333D01*
X127645390Y-110479333D02*
X127693009Y-110526952D01*
X127693009Y-110526952D02*
X127740628Y-110622190D01*
X127740628Y-110622190D02*
X127740628Y-111003142D01*
X127312057Y-110050761D02*
X127264438Y-110003142D01*
X127264438Y-110003142D02*
X127216819Y-109907904D01*
X127216819Y-109907904D02*
X127216819Y-109669809D01*
X127216819Y-109669809D02*
X127264438Y-109574571D01*
X127264438Y-109574571D02*
X127312057Y-109526952D01*
X127312057Y-109526952D02*
X127407295Y-109479333D01*
X127407295Y-109479333D02*
X127502533Y-109479333D01*
X127502533Y-109479333D02*
X127645390Y-109526952D01*
X127645390Y-109526952D02*
X128216819Y-110098380D01*
X128216819Y-110098380D02*
X128216819Y-109479333D01*
D12*
%TO.C,R10*%
X179961064Y-92639000D02*
X179506936Y-92639000D01*
X179961064Y-94109000D02*
X179506936Y-94109000D01*
%TO.C,TP7*%
X181958000Y-111408000D02*
G75*
G02*
X180558000Y-111408000I-700000J0D01*
G01*
X180558000Y-111408000D02*
G75*
G02*
X181958000Y-111408000I700000J0D01*
G01*
%TO.C,TP4*%
X177386000Y-113694000D02*
G75*
G02*
X175986000Y-113694000I-700000J0D01*
G01*
X175986000Y-113694000D02*
G75*
G02*
X177386000Y-113694000I700000J0D01*
G01*
%TO.C,R21*%
X173611000Y-94109064D02*
X173611000Y-93654936D01*
X172141000Y-94109064D02*
X172141000Y-93654936D01*
%TO.C,J2*%
X146714000Y-87472000D02*
X164554000Y-87472000D01*
X164554000Y-90132000D02*
X164554000Y-87472000D01*
X146714000Y-90132000D02*
X146714000Y-87472000D01*
X146714000Y-90132000D02*
X164554000Y-90132000D01*
X145444000Y-90132000D02*
X144114000Y-90132000D01*
X144114000Y-90132000D02*
X144114000Y-88802000D01*
%TO.C,SW1*%
X135520000Y-91270000D02*
X139920000Y-91270000D01*
X140690000Y-93340000D02*
X140690000Y-95540000D01*
X134450000Y-95540000D02*
X134450000Y-93340000D01*
X134920000Y-97510000D02*
X140120000Y-97510000D01*
X138984214Y-94390000D02*
G75*
G02*
X136155786Y-94390000I-1414214J0D01*
G01*
X136155786Y-94390000D02*
G75*
G02*
X138984214Y-94390000I1414214J0D01*
G01*
%TO.C,C8*%
X179995252Y-97211000D02*
X179472748Y-97211000D01*
X179995252Y-98681000D02*
X179472748Y-98681000D01*
%TO.C,U1*%
X130494000Y-94136000D02*
X130494000Y-93336000D01*
X130494000Y-94136000D02*
X130494000Y-94936000D01*
X127374000Y-94136000D02*
X127374000Y-93336000D01*
X127374000Y-94136000D02*
X127374000Y-94936000D01*
X127424000Y-95436000D02*
X127094000Y-95676000D01*
X127094000Y-95196000D01*
X127424000Y-95436000D01*
G36*
X127424000Y-95436000D02*
G01*
X127094000Y-95676000D01*
X127094000Y-95196000D01*
X127424000Y-95436000D01*
G37*
%TO.C,C6*%
X156593000Y-97684748D02*
X156593000Y-98207252D01*
X155123000Y-97684748D02*
X155123000Y-98207252D01*
%TO.C,Q1*%
X174786000Y-99362000D02*
X174786000Y-100622000D01*
X171026000Y-99362000D02*
X174786000Y-99362000D01*
X174786000Y-106182000D02*
X174786000Y-104922000D01*
X171026000Y-106182000D02*
X174786000Y-106182000D01*
X169746000Y-99462000D02*
X169506000Y-99132000D01*
X169986000Y-99132000D01*
X169746000Y-99462000D01*
G36*
X169746000Y-99462000D02*
G01*
X169506000Y-99132000D01*
X169986000Y-99132000D01*
X169746000Y-99462000D01*
G37*
%TO.C,J3*%
X170888000Y-87742000D02*
X170888000Y-88802000D01*
X169828000Y-87742000D02*
X170888000Y-87742000D01*
X168828000Y-87742000D02*
X168828000Y-89802000D01*
X166768000Y-87742000D02*
X168828000Y-87742000D01*
X166768000Y-87742000D02*
X166768000Y-97862000D01*
X170888000Y-89802000D02*
X170888000Y-97862000D01*
X168828000Y-89802000D02*
X170888000Y-89802000D01*
X166768000Y-97862000D02*
X170888000Y-97862000D01*
%TO.C,C2*%
X160149000Y-106335252D02*
X160149000Y-105812748D01*
X158679000Y-106335252D02*
X158679000Y-105812748D01*
%TO.C,C5*%
X146689000Y-98211000D02*
X147755000Y-98211000D01*
X146454000Y-98251000D02*
X147990000Y-98251000D01*
X146274000Y-98291000D02*
X148170000Y-98291000D01*
X146124000Y-98331000D02*
X148320000Y-98331000D01*
X145993000Y-98371000D02*
X148451000Y-98371000D01*
X145876000Y-98411000D02*
X148568000Y-98411000D01*
X145769000Y-98451000D02*
X148675000Y-98451000D01*
X145670000Y-98491000D02*
X148774000Y-98491000D01*
X145577000Y-98531000D02*
X148867000Y-98531000D01*
X145491000Y-98571000D02*
X148953000Y-98571000D01*
X145409000Y-98611000D02*
X149035000Y-98611000D01*
X145332000Y-98651000D02*
X149112000Y-98651000D01*
X145258000Y-98691000D02*
X149186000Y-98691000D01*
X145188000Y-98731000D02*
X149256000Y-98731000D01*
X145120000Y-98771000D02*
X149324000Y-98771000D01*
X145056000Y-98811000D02*
X149388000Y-98811000D01*
X144994000Y-98851000D02*
X149450000Y-98851000D01*
X144935000Y-98891000D02*
X149509000Y-98891000D01*
X144877000Y-98931000D02*
X149567000Y-98931000D01*
X144822000Y-98971000D02*
X149622000Y-98971000D01*
X144768000Y-99011000D02*
X149676000Y-99011000D01*
X144717000Y-99051000D02*
X149727000Y-99051000D01*
X144666000Y-99091000D02*
X149778000Y-99091000D01*
X144618000Y-99131000D02*
X149826000Y-99131000D01*
X144571000Y-99171000D02*
X149873000Y-99171000D01*
X144525000Y-99211000D02*
X149919000Y-99211000D01*
X144481000Y-99251000D02*
X149963000Y-99251000D01*
X144438000Y-99291000D02*
X150006000Y-99291000D01*
X144396000Y-99331000D02*
X150048000Y-99331000D01*
X144355000Y-99371000D02*
X150089000Y-99371000D01*
X144315000Y-99411000D02*
X150129000Y-99411000D01*
X144277000Y-99451000D02*
X150167000Y-99451000D01*
X144239000Y-99491000D02*
X150205000Y-99491000D01*
X148262000Y-99531000D02*
X150241000Y-99531000D01*
X144203000Y-99531000D02*
X146182000Y-99531000D01*
X148262000Y-99571000D02*
X150277000Y-99571000D01*
X144167000Y-99571000D02*
X146182000Y-99571000D01*
X148262000Y-99611000D02*
X150312000Y-99611000D01*
X144132000Y-99611000D02*
X146182000Y-99611000D01*
X148262000Y-99651000D02*
X150346000Y-99651000D01*
X144098000Y-99651000D02*
X146182000Y-99651000D01*
X148262000Y-99691000D02*
X150378000Y-99691000D01*
X144066000Y-99691000D02*
X146182000Y-99691000D01*
X148262000Y-99731000D02*
X150411000Y-99731000D01*
X144033000Y-99731000D02*
X146182000Y-99731000D01*
X148262000Y-99771000D02*
X150442000Y-99771000D01*
X144002000Y-99771000D02*
X146182000Y-99771000D01*
X148262000Y-99811000D02*
X150472000Y-99811000D01*
X143972000Y-99811000D02*
X146182000Y-99811000D01*
X148262000Y-99851000D02*
X150502000Y-99851000D01*
X143942000Y-99851000D02*
X146182000Y-99851000D01*
X148262000Y-99891000D02*
X150531000Y-99891000D01*
X143913000Y-99891000D02*
X146182000Y-99891000D01*
X148262000Y-99931000D02*
X150560000Y-99931000D01*
X143884000Y-99931000D02*
X146182000Y-99931000D01*
X148262000Y-99971000D02*
X150587000Y-99971000D01*
X143857000Y-99971000D02*
X146182000Y-99971000D01*
X148262000Y-100011000D02*
X150614000Y-100011000D01*
X143830000Y-100011000D02*
X146182000Y-100011000D01*
X148262000Y-100051000D02*
X150640000Y-100051000D01*
X143804000Y-100051000D02*
X146182000Y-100051000D01*
X148262000Y-100091000D02*
X150666000Y-100091000D01*
X143778000Y-100091000D02*
X146182000Y-100091000D01*
X148262000Y-100131000D02*
X150691000Y-100131000D01*
X143753000Y-100131000D02*
X146182000Y-100131000D01*
X148262000Y-100171000D02*
X150715000Y-100171000D01*
X143729000Y-100171000D02*
X146182000Y-100171000D01*
X148262000Y-100211000D02*
X150739000Y-100211000D01*
X143705000Y-100211000D02*
X146182000Y-100211000D01*
X148262000Y-100251000D02*
X150762000Y-100251000D01*
X143682000Y-100251000D02*
X146182000Y-100251000D01*
X148262000Y-100291000D02*
X150784000Y-100291000D01*
X143660000Y-100291000D02*
X146182000Y-100291000D01*
X148262000Y-100331000D02*
X150806000Y-100331000D01*
X143638000Y-100331000D02*
X146182000Y-100331000D01*
X148262000Y-100371000D02*
X150828000Y-100371000D01*
X143616000Y-100371000D02*
X146182000Y-100371000D01*
X148262000Y-100411000D02*
X150849000Y-100411000D01*
X143595000Y-100411000D02*
X146182000Y-100411000D01*
X148262000Y-100451000D02*
X150869000Y-100451000D01*
X143575000Y-100451000D02*
X146182000Y-100451000D01*
X148262000Y-100491000D02*
X150888000Y-100491000D01*
X143556000Y-100491000D02*
X146182000Y-100491000D01*
X148262000Y-100531000D02*
X150908000Y-100531000D01*
X143536000Y-100531000D02*
X146182000Y-100531000D01*
X148262000Y-100571000D02*
X150926000Y-100571000D01*
X143518000Y-100571000D02*
X146182000Y-100571000D01*
X148262000Y-100611000D02*
X150944000Y-100611000D01*
X143500000Y-100611000D02*
X146182000Y-100611000D01*
X148262000Y-100651000D02*
X150962000Y-100651000D01*
X143482000Y-100651000D02*
X146182000Y-100651000D01*
X148262000Y-100691000D02*
X150979000Y-100691000D01*
X143465000Y-100691000D02*
X146182000Y-100691000D01*
X148262000Y-100731000D02*
X150996000Y-100731000D01*
X143448000Y-100731000D02*
X146182000Y-100731000D01*
X148262000Y-100771000D02*
X151012000Y-100771000D01*
X143432000Y-100771000D02*
X146182000Y-100771000D01*
X148262000Y-100811000D02*
X151027000Y-100811000D01*
X143417000Y-100811000D02*
X146182000Y-100811000D01*
X148262000Y-100851000D02*
X151043000Y-100851000D01*
X143401000Y-100851000D02*
X146182000Y-100851000D01*
X148262000Y-100891000D02*
X151057000Y-100891000D01*
X143387000Y-100891000D02*
X146182000Y-100891000D01*
X148262000Y-100931000D02*
X151072000Y-100931000D01*
X143372000Y-100931000D02*
X146182000Y-100931000D01*
X148262000Y-100971000D02*
X151085000Y-100971000D01*
X143359000Y-100971000D02*
X146182000Y-100971000D01*
X148262000Y-101011000D02*
X151099000Y-101011000D01*
X143345000Y-101011000D02*
X146182000Y-101011000D01*
X148262000Y-101051000D02*
X151111000Y-101051000D01*
X143333000Y-101051000D02*
X146182000Y-101051000D01*
X148262000Y-101091000D02*
X151124000Y-101091000D01*
X143320000Y-101091000D02*
X146182000Y-101091000D01*
X148262000Y-101131000D02*
X151136000Y-101131000D01*
X143308000Y-101131000D02*
X146182000Y-101131000D01*
X148262000Y-101171000D02*
X151147000Y-101171000D01*
X143297000Y-101171000D02*
X146182000Y-101171000D01*
X148262000Y-101211000D02*
X151158000Y-101211000D01*
X143286000Y-101211000D02*
X146182000Y-101211000D01*
X148262000Y-101251000D02*
X151169000Y-101251000D01*
X143275000Y-101251000D02*
X146182000Y-101251000D01*
X148262000Y-101291000D02*
X151179000Y-101291000D01*
X143265000Y-101291000D02*
X146182000Y-101291000D01*
X148262000Y-101331000D02*
X151189000Y-101331000D01*
X143255000Y-101331000D02*
X146182000Y-101331000D01*
X148262000Y-101371000D02*
X151198000Y-101371000D01*
X143246000Y-101371000D02*
X146182000Y-101371000D01*
X148262000Y-101411000D02*
X151207000Y-101411000D01*
X143237000Y-101411000D02*
X146182000Y-101411000D01*
X148262000Y-101451000D02*
X151216000Y-101451000D01*
X143228000Y-101451000D02*
X146182000Y-101451000D01*
X148262000Y-101491000D02*
X151224000Y-101491000D01*
X143220000Y-101491000D02*
X146182000Y-101491000D01*
X148262000Y-101531000D02*
X151232000Y-101531000D01*
X143212000Y-101531000D02*
X146182000Y-101531000D01*
X148262000Y-101571000D02*
X151239000Y-101571000D01*
X143205000Y-101571000D02*
X146182000Y-101571000D01*
X143198000Y-101612000D02*
X151246000Y-101612000D01*
X143192000Y-101652000D02*
X151252000Y-101652000D01*
X143185000Y-101692000D02*
X151259000Y-101692000D01*
X143180000Y-101732000D02*
X151264000Y-101732000D01*
X143174000Y-101772000D02*
X151270000Y-101772000D01*
X143170000Y-101812000D02*
X151274000Y-101812000D01*
X143165000Y-101852000D02*
X151279000Y-101852000D01*
X143161000Y-101892000D02*
X151283000Y-101892000D01*
X143157000Y-101932000D02*
X151287000Y-101932000D01*
X143154000Y-101972000D02*
X151290000Y-101972000D01*
X143151000Y-102012000D02*
X151293000Y-102012000D01*
X143148000Y-102052000D02*
X151296000Y-102052000D01*
X143146000Y-102092000D02*
X151298000Y-102092000D01*
X143145000Y-102132000D02*
X151299000Y-102132000D01*
X143143000Y-102172000D02*
X151301000Y-102172000D01*
X143142000Y-102212000D02*
X151302000Y-102212000D01*
X143142000Y-102252000D02*
X151302000Y-102252000D01*
X143142000Y-102292000D02*
X151302000Y-102292000D01*
X144507000Y-106301698D02*
X145307000Y-106301698D01*
X144907000Y-106701698D02*
X144907000Y-105901698D01*
X151342000Y-102292000D02*
G75*
G02*
X143102000Y-102292000I-4120000J0D01*
G01*
X143102000Y-102292000D02*
G75*
G02*
X151342000Y-102292000I4120000J0D01*
G01*
%TO.C,R11*%
X165483064Y-100005000D02*
X165028936Y-100005000D01*
X165483064Y-101475000D02*
X165028936Y-101475000D01*
%TO.C,D3*%
X172950000Y-110408000D02*
X168940000Y-110408000D01*
X172950000Y-112408000D02*
X172950000Y-110408000D01*
X172950000Y-112408000D02*
X168940000Y-112408000D01*
%TO.C,D2*%
X172950000Y-112948000D02*
X168940000Y-112948000D01*
X172950000Y-114948000D02*
X172950000Y-112948000D01*
X172950000Y-114948000D02*
X168940000Y-114948000D01*
%TO.C,C12*%
X132717000Y-93635252D02*
X132717000Y-93112748D01*
X131247000Y-93635252D02*
X131247000Y-93112748D01*
%TO.C,L2*%
X143198000Y-113694000D02*
G75*
G02*
X132958000Y-113694000I-5120000J0D01*
G01*
X132958000Y-113694000D02*
G75*
G02*
X143198000Y-113694000I5120000J0D01*
G01*
%TO.C,R23*%
X128640189Y-97389750D02*
X128186061Y-97389750D01*
X128640189Y-98859750D02*
X128186061Y-98859750D01*
%TO.C,R7*%
X180596000Y-108132936D02*
X180596000Y-108587064D01*
X179126000Y-108132936D02*
X179126000Y-108587064D01*
%TO.C,R12*%
X173865000Y-108132936D02*
X173865000Y-108587064D01*
X172395000Y-108132936D02*
X172395000Y-108587064D01*
%TO.C,X1*%
X153103000Y-104493000D02*
X155888000Y-104493000D01*
X153103000Y-104693000D02*
X153103000Y-104493000D01*
X155888000Y-108163000D02*
X153288000Y-108163000D01*
%TO.C,L1*%
X131761600Y-89273852D02*
X131761600Y-86501348D01*
X128341600Y-89273852D02*
X128341600Y-86501348D01*
%TO.C,D1*%
X180976000Y-89470000D02*
X176566000Y-89470000D01*
X176566000Y-89470000D02*
X176566000Y-91690000D01*
X176566000Y-91690000D02*
X180976000Y-91690000D01*
%TO.C,R4*%
X165483064Y-102291000D02*
X165028936Y-102291000D01*
X165483064Y-103761000D02*
X165028936Y-103761000D01*
%TO.C,TP5*%
X144112000Y-106328000D02*
G75*
G02*
X142712000Y-106328000I-700000J0D01*
G01*
X142712000Y-106328000D02*
G75*
G02*
X144112000Y-106328000I700000J0D01*
G01*
%TO.C,R8*%
X178310000Y-108132936D02*
X178310000Y-108587064D01*
X176840000Y-108132936D02*
X176840000Y-108587064D01*
%TO.C,TP1*%
X180434000Y-113694000D02*
G75*
G02*
X179034000Y-113694000I-700000J0D01*
G01*
X179034000Y-113694000D02*
G75*
G02*
X180434000Y-113694000I700000J0D01*
G01*
%TO.C,C3*%
X137400887Y-85206000D02*
X137400887Y-90366000D01*
X137360887Y-85206000D02*
X137360887Y-90366000D01*
X137440887Y-85207000D02*
X137440887Y-90365000D01*
X137480887Y-85208000D02*
X137480887Y-90364000D01*
X137520887Y-85210000D02*
X137520887Y-90362000D01*
X137560887Y-85213000D02*
X137560887Y-90359000D01*
X137600887Y-85217000D02*
X137600887Y-86746000D01*
X137640887Y-85221000D02*
X137640887Y-86746000D01*
X137680887Y-85225000D02*
X137680887Y-86746000D01*
X137720887Y-85230000D02*
X137720887Y-86746000D01*
X137760887Y-85236000D02*
X137760887Y-86746000D01*
X137800887Y-85243000D02*
X137800887Y-86746000D01*
X137840887Y-85250000D02*
X137840887Y-86746000D01*
X137880887Y-85258000D02*
X137880887Y-86746000D01*
X137920887Y-85266000D02*
X137920887Y-86746000D01*
X137960887Y-85275000D02*
X137960887Y-86746000D01*
X138000887Y-85285000D02*
X138000887Y-86746000D01*
X138040887Y-85295000D02*
X138040887Y-86746000D01*
X138081887Y-85306000D02*
X138081887Y-86746000D01*
X138121887Y-85318000D02*
X138121887Y-86746000D01*
X138161887Y-85331000D02*
X138161887Y-86746000D01*
X138201887Y-85344000D02*
X138201887Y-86746000D01*
X138241887Y-85358000D02*
X138241887Y-86746000D01*
X138281887Y-85372000D02*
X138281887Y-86746000D01*
X138321887Y-85388000D02*
X138321887Y-86746000D01*
X138361887Y-85404000D02*
X138361887Y-86746000D01*
X138401887Y-85421000D02*
X138401887Y-86746000D01*
X138441887Y-85438000D02*
X138441887Y-86746000D01*
X138481887Y-85457000D02*
X138481887Y-86746000D01*
X138521887Y-85476000D02*
X138521887Y-86746000D01*
X138561887Y-85496000D02*
X138561887Y-86746000D01*
X138601887Y-85518000D02*
X138601887Y-86746000D01*
X138641887Y-85539000D02*
X138641887Y-86746000D01*
X138681887Y-85562000D02*
X138681887Y-86746000D01*
X138721887Y-85586000D02*
X138721887Y-86746000D01*
X138761887Y-85611000D02*
X138761887Y-86746000D01*
X138801887Y-85637000D02*
X138801887Y-86746000D01*
X138841887Y-85664000D02*
X138841887Y-86746000D01*
X138881887Y-85691000D02*
X138881887Y-86746000D01*
X138921887Y-85721000D02*
X138921887Y-86746000D01*
X138961887Y-85751000D02*
X138961887Y-86746000D01*
X139001887Y-85782000D02*
X139001887Y-86746000D01*
X139041887Y-85815000D02*
X139041887Y-86746000D01*
X139081887Y-85849000D02*
X139081887Y-86746000D01*
X139121887Y-85885000D02*
X139121887Y-86746000D01*
X139161887Y-85922000D02*
X139161887Y-86746000D01*
X139201887Y-85960000D02*
X139201887Y-86746000D01*
X139241887Y-86001000D02*
X139241887Y-86746000D01*
X139281887Y-86043000D02*
X139281887Y-86746000D01*
X134806112Y-86061000D02*
X134806112Y-86561000D01*
X139321887Y-86087000D02*
X139321887Y-86746000D01*
X139361887Y-86133000D02*
X139361887Y-86746000D01*
X139401887Y-86181000D02*
X139401887Y-86746000D01*
X139441887Y-86232000D02*
X139441887Y-86746000D01*
X139481887Y-86286000D02*
X139481887Y-86746000D01*
X134556112Y-86311000D02*
X135056112Y-86311000D01*
X139521887Y-86343000D02*
X139521887Y-86746000D01*
X139561887Y-86403000D02*
X139561887Y-86746000D01*
X139601887Y-86467000D02*
X139601887Y-86746000D01*
X139641887Y-86535000D02*
X139641887Y-86746000D01*
X139681887Y-86608000D02*
X139681887Y-88964000D01*
X139721887Y-86688000D02*
X139721887Y-88884000D01*
X139761887Y-86775000D02*
X139761887Y-88797000D01*
X139801887Y-86871000D02*
X139801887Y-88701000D01*
X139841887Y-86981000D02*
X139841887Y-88591000D01*
X139881887Y-87109000D02*
X139881887Y-88463000D01*
X139921887Y-87268000D02*
X139921887Y-88304000D01*
X139961887Y-87502000D02*
X139961887Y-88070000D01*
X139641887Y-88826000D02*
X139641887Y-89037000D01*
X139601887Y-88826000D02*
X139601887Y-89105000D01*
X139561887Y-88826000D02*
X139561887Y-89169000D01*
X139521887Y-88826000D02*
X139521887Y-89229000D01*
X139481887Y-88826000D02*
X139481887Y-89286000D01*
X139441887Y-88826000D02*
X139441887Y-89340000D01*
X139401887Y-88826000D02*
X139401887Y-89391000D01*
X139361887Y-88826000D02*
X139361887Y-89439000D01*
X139321887Y-88826000D02*
X139321887Y-89485000D01*
X139281887Y-88826000D02*
X139281887Y-89529000D01*
X139241887Y-88826000D02*
X139241887Y-89571000D01*
X139201887Y-88826000D02*
X139201887Y-89612000D01*
X139161887Y-88826000D02*
X139161887Y-89650000D01*
X139121887Y-88826000D02*
X139121887Y-89687000D01*
X139081887Y-88826000D02*
X139081887Y-89723000D01*
X139041887Y-88826000D02*
X139041887Y-89757000D01*
X139001887Y-88826000D02*
X139001887Y-89790000D01*
X138961887Y-88826000D02*
X138961887Y-89821000D01*
X138921887Y-88826000D02*
X138921887Y-89851000D01*
X138881887Y-88826000D02*
X138881887Y-89881000D01*
X138841887Y-88826000D02*
X138841887Y-89908000D01*
X138801887Y-88826000D02*
X138801887Y-89935000D01*
X138761887Y-88826000D02*
X138761887Y-89961000D01*
X138721887Y-88826000D02*
X138721887Y-89986000D01*
X138681887Y-88826000D02*
X138681887Y-90010000D01*
X138641887Y-88826000D02*
X138641887Y-90033000D01*
X138601887Y-88826000D02*
X138601887Y-90054000D01*
X138561887Y-88826000D02*
X138561887Y-90076000D01*
X138521887Y-88826000D02*
X138521887Y-90096000D01*
X138481887Y-88826000D02*
X138481887Y-90115000D01*
X138441887Y-88826000D02*
X138441887Y-90134000D01*
X138401887Y-88826000D02*
X138401887Y-90151000D01*
X138361887Y-88826000D02*
X138361887Y-90168000D01*
X138321887Y-88826000D02*
X138321887Y-90184000D01*
X138281887Y-88826000D02*
X138281887Y-90200000D01*
X138241887Y-88826000D02*
X138241887Y-90214000D01*
X138201887Y-88826000D02*
X138201887Y-90228000D01*
X138161887Y-88826000D02*
X138161887Y-90241000D01*
X138121887Y-88826000D02*
X138121887Y-90254000D01*
X138081887Y-88826000D02*
X138081887Y-90266000D01*
X138040887Y-88826000D02*
X138040887Y-90277000D01*
X138000887Y-88826000D02*
X138000887Y-90287000D01*
X137960887Y-88826000D02*
X137960887Y-90297000D01*
X137920887Y-88826000D02*
X137920887Y-90306000D01*
X137880887Y-88826000D02*
X137880887Y-90314000D01*
X137840887Y-88826000D02*
X137840887Y-90322000D01*
X137800887Y-88826000D02*
X137800887Y-90329000D01*
X137760887Y-88826000D02*
X137760887Y-90336000D01*
X137720887Y-88826000D02*
X137720887Y-90342000D01*
X137680887Y-88826000D02*
X137680887Y-90347000D01*
X137640887Y-88826000D02*
X137640887Y-90351000D01*
X137600887Y-88826000D02*
X137600887Y-90355000D01*
X139980887Y-87786000D02*
G75*
G02*
X134740887Y-87786000I-2620000J0D01*
G01*
X134740887Y-87786000D02*
G75*
G02*
X139980887Y-87786000I2620000J0D01*
G01*
%TO.C,D4*%
X146270000Y-96971000D02*
X146426000Y-96971000D01*
X143954000Y-96971000D02*
X144110000Y-96971000D01*
X146268608Y-93738666D02*
G75*
G02*
X146425515Y-96970999I-1078608J-1672334D01*
G01*
X146269836Y-94369871D02*
G75*
G02*
X146269999Y-96451960I-1079836J-1041129D01*
G01*
X144110001Y-96451960D02*
G75*
G02*
X144110164Y-94369871I1079999J1040960D01*
G01*
X143954485Y-96970999D02*
G75*
G02*
X144111392Y-93738666I1235515J1559999D01*
G01*
%TO.C,C7*%
X128151873Y-105009750D02*
X128674377Y-105009750D01*
X128151873Y-106479750D02*
X128674377Y-106479750D01*
%TO.C,R13*%
X143004000Y-88902064D02*
X143004000Y-88447936D01*
X141534000Y-88902064D02*
X141534000Y-88447936D01*
%TO.C,R3*%
X171071000Y-108132936D02*
X171071000Y-108587064D01*
X169601000Y-108132936D02*
X169601000Y-108587064D01*
%TO.C,R9*%
X179506936Y-99497000D02*
X179961064Y-99497000D01*
X179506936Y-100967000D02*
X179961064Y-100967000D01*
%TO.C,C11*%
X152529000Y-106589252D02*
X152529000Y-106066748D01*
X151059000Y-106589252D02*
X151059000Y-106066748D01*
%TO.C,TP3*%
X132428000Y-108106000D02*
G75*
G02*
X131028000Y-108106000I-700000J0D01*
G01*
X131028000Y-108106000D02*
G75*
G02*
X132428000Y-108106000I700000J0D01*
G01*
%TO.C,R22*%
X128186061Y-102469750D02*
X128640189Y-102469750D01*
X128186061Y-103939750D02*
X128640189Y-103939750D01*
%TO.C,Q3*%
X181294000Y-103280000D02*
X181294000Y-103930000D01*
X181294000Y-103280000D02*
X181294000Y-102630000D01*
X178174000Y-103280000D02*
X178174000Y-103930000D01*
X178174000Y-103280000D02*
X178174000Y-102630000D01*
X178224000Y-104442500D02*
X177894000Y-104682500D01*
X177894000Y-104202500D01*
X178224000Y-104442500D01*
G36*
X178224000Y-104442500D02*
G01*
X177894000Y-104682500D01*
X177894000Y-104202500D01*
X178224000Y-104442500D01*
G37*
%TO.C,R6*%
X162488936Y-104323000D02*
X162943064Y-104323000D01*
X162488936Y-105793000D02*
X162943064Y-105793000D01*
%TO.C,R17*%
X162943064Y-106355000D02*
X162488936Y-106355000D01*
X162943064Y-107825000D02*
X162488936Y-107825000D01*
%TO.C,C20*%
X178725252Y-85527000D02*
X178202748Y-85527000D01*
X178725252Y-86997000D02*
X178202748Y-86997000D01*
%TO.C,C18*%
X158039050Y-106335252D02*
X158039050Y-105812748D01*
X156569050Y-106335252D02*
X156569050Y-105812748D01*
%TO.C,Q2*%
X168086000Y-106074000D02*
X168086000Y-105424000D01*
X168086000Y-106074000D02*
X168086000Y-106724000D01*
X164966000Y-106074000D02*
X164966000Y-105424000D01*
X164966000Y-106074000D02*
X164966000Y-106724000D01*
X165016000Y-107236500D02*
X164686000Y-107476500D01*
X164686000Y-106996500D01*
X165016000Y-107236500D01*
G36*
X165016000Y-107236500D02*
G01*
X164686000Y-107476500D01*
X164686000Y-106996500D01*
X165016000Y-107236500D01*
G37*
%TO.C,C17*%
X126875000Y-94143252D02*
X126875000Y-93620748D01*
X125405000Y-94143252D02*
X125405000Y-93620748D01*
%TO.C,C1*%
X176151000Y-108621252D02*
X176151000Y-108098748D01*
X174681000Y-108621252D02*
X174681000Y-108098748D01*
%TO.C,TP6*%
X154018000Y-102010000D02*
G75*
G02*
X152618000Y-102010000I-700000J0D01*
G01*
X152618000Y-102010000D02*
G75*
G02*
X154018000Y-102010000I700000J0D01*
G01*
%TO.C,C9*%
X179995252Y-94925000D02*
X179472748Y-94925000D01*
X179995252Y-96395000D02*
X179472748Y-96395000D01*
%TO.C,C16*%
X128151873Y-99929750D02*
X128674377Y-99929750D01*
X128151873Y-101399750D02*
X128674377Y-101399750D01*
%TO.C,R16*%
X178236936Y-87559000D02*
X178691064Y-87559000D01*
X178236936Y-89029000D02*
X178691064Y-89029000D01*
%TO.C,J1*%
X167084000Y-110078000D02*
X167084000Y-111408000D01*
X165754000Y-110078000D02*
X167084000Y-110078000D01*
X164484000Y-110078000D02*
X144104000Y-110078000D01*
X164484000Y-110078000D02*
X164484000Y-112738000D01*
X144104000Y-110078000D02*
X144104000Y-112738000D01*
X164484000Y-112738000D02*
X144104000Y-112738000D01*
%TO.C,TP2*%
X130142000Y-108106000D02*
G75*
G02*
X128742000Y-108106000I-700000J0D01*
G01*
X128742000Y-108106000D02*
G75*
G02*
X130142000Y-108106000I700000J0D01*
G01*
%TD*%
M02*
