%TF.GenerationSoftware,KiCad,Pcbnew,8.0.1*%
%TF.CreationDate,2024-04-26T00:23:44+02:00*%
%TF.ProjectId,controller_lpc1115_2MU_v1.04,636f6e74-726f-46c6-9c65-725f6c706331,rev?*%
%TF.SameCoordinates,Original*%
%TF.FileFunction,Soldermask,Top*%
%TF.FilePolarity,Negative*%
%FSLAX46Y46*%
G04 Gerber Fmt 4.6, Leading zero omitted, Abs format (unit mm)*
G04 Created by KiCad (PCBNEW 8.0.1) date 2024-04-26 00:23:44*
%MOMM*%
%LPD*%
G01*
G04 APERTURE LIST*
G04 Aperture macros list*
%AMRoundRect*
0 Rectangle with rounded corners*
0 $1 Rounding radius*
0 $2 $3 $4 $5 $6 $7 $8 $9 X,Y pos of 4 corners*
0 Add a 4 corners polygon primitive as box body*
4,1,4,$2,$3,$4,$5,$6,$7,$8,$9,$2,$3,0*
0 Add four circle primitives for the rounded corners*
1,1,$1+$1,$2,$3*
1,1,$1+$1,$4,$5*
1,1,$1+$1,$6,$7*
1,1,$1+$1,$8,$9*
0 Add four rect primitives between the rounded corners*
20,1,$1+$1,$2,$3,$4,$5,0*
20,1,$1+$1,$4,$5,$6,$7,0*
20,1,$1+$1,$6,$7,$8,$9,0*
20,1,$1+$1,$8,$9,$2,$3,0*%
G04 Aperture macros list end*
%ADD10C,0.150000*%
%ADD11RoundRect,0.250000X-0.450000X0.262500X-0.450000X-0.262500X0.450000X-0.262500X0.450000X0.262500X0*%
%ADD12C,1.000000*%
%ADD13RoundRect,0.250000X0.262500X0.450000X-0.262500X0.450000X-0.262500X-0.450000X0.262500X-0.450000X0*%
%ADD14R,1.700000X1.700000*%
%ADD15O,1.700000X1.700000*%
%ADD16C,1.700000*%
%ADD17RoundRect,0.250000X-0.475000X0.250000X-0.475000X-0.250000X0.475000X-0.250000X0.475000X0.250000X0*%
%ADD18RoundRect,0.150000X0.512500X0.150000X-0.512500X0.150000X-0.512500X-0.150000X0.512500X-0.150000X0*%
%ADD19RoundRect,0.250000X-0.250000X-0.475000X0.250000X-0.475000X0.250000X0.475000X-0.250000X0.475000X0*%
%ADD20RoundRect,0.375000X0.375000X-0.625000X0.375000X0.625000X-0.375000X0.625000X-0.375000X-0.625000X0*%
%ADD21RoundRect,0.500000X1.400000X-0.500000X1.400000X0.500000X-1.400000X0.500000X-1.400000X-0.500000X0*%
%ADD22R,1.350000X1.350000*%
%ADD23O,1.350000X1.350000*%
%ADD24RoundRect,0.250000X0.250000X0.475000X-0.250000X0.475000X-0.250000X-0.475000X0.250000X-0.475000X0*%
%ADD25R,1.600000X1.600000*%
%ADD26C,1.600000*%
%ADD27RoundRect,0.225000X-0.375000X0.225000X-0.375000X-0.225000X0.375000X-0.225000X0.375000X0.225000X0*%
%ADD28C,2.400000*%
%ADD29RoundRect,0.250000X-0.262500X-0.450000X0.262500X-0.450000X0.262500X0.450000X-0.262500X0.450000X0*%
%ADD30R,1.000000X0.900000*%
%ADD31RoundRect,0.250000X0.400000X1.450000X-0.400000X1.450000X-0.400000X-1.450000X0.400000X-1.450000X0*%
%ADD32RoundRect,0.250000X0.600000X-0.400000X0.600000X0.400000X-0.600000X0.400000X-0.600000X-0.400000X0*%
%ADD33R,1.800000X1.800000*%
%ADD34C,1.800000*%
%ADD35RoundRect,0.250000X0.475000X-0.250000X0.475000X0.250000X-0.475000X0.250000X-0.475000X-0.250000X0*%
%ADD36RoundRect,0.250000X0.450000X-0.262500X0.450000X0.262500X-0.450000X0.262500X-0.450000X-0.262500X0*%
%ADD37RoundRect,0.150000X-0.150000X0.587500X-0.150000X-0.587500X0.150000X-0.587500X0.150000X0.587500X0*%
%ADD38RoundRect,0.150000X0.587500X0.150000X-0.587500X0.150000X-0.587500X-0.150000X0.587500X-0.150000X0*%
G04 APERTURE END LIST*
D10*
X160556744Y-130171819D02*
X160556744Y-129171819D01*
X160556744Y-129171819D02*
X160890077Y-129886104D01*
X160890077Y-129886104D02*
X161223410Y-129171819D01*
X161223410Y-129171819D02*
X161223410Y-130171819D01*
X162128172Y-130171819D02*
X162128172Y-129648009D01*
X162128172Y-129648009D02*
X162080553Y-129552771D01*
X162080553Y-129552771D02*
X161985315Y-129505152D01*
X161985315Y-129505152D02*
X161794839Y-129505152D01*
X161794839Y-129505152D02*
X161699601Y-129552771D01*
X162128172Y-130124200D02*
X162032934Y-130171819D01*
X162032934Y-130171819D02*
X161794839Y-130171819D01*
X161794839Y-130171819D02*
X161699601Y-130124200D01*
X161699601Y-130124200D02*
X161651982Y-130028961D01*
X161651982Y-130028961D02*
X161651982Y-129933723D01*
X161651982Y-129933723D02*
X161699601Y-129838485D01*
X161699601Y-129838485D02*
X161794839Y-129790866D01*
X161794839Y-129790866D02*
X162032934Y-129790866D01*
X162032934Y-129790866D02*
X162128172Y-129743247D01*
X162556744Y-130124200D02*
X162651982Y-130171819D01*
X162651982Y-130171819D02*
X162842458Y-130171819D01*
X162842458Y-130171819D02*
X162937696Y-130124200D01*
X162937696Y-130124200D02*
X162985315Y-130028961D01*
X162985315Y-130028961D02*
X162985315Y-129981342D01*
X162985315Y-129981342D02*
X162937696Y-129886104D01*
X162937696Y-129886104D02*
X162842458Y-129838485D01*
X162842458Y-129838485D02*
X162699601Y-129838485D01*
X162699601Y-129838485D02*
X162604363Y-129790866D01*
X162604363Y-129790866D02*
X162556744Y-129695628D01*
X162556744Y-129695628D02*
X162556744Y-129648009D01*
X162556744Y-129648009D02*
X162604363Y-129552771D01*
X162604363Y-129552771D02*
X162699601Y-129505152D01*
X162699601Y-129505152D02*
X162842458Y-129505152D01*
X162842458Y-129505152D02*
X162937696Y-129552771D01*
X163413887Y-130171819D02*
X163413887Y-129171819D01*
X163509125Y-129790866D02*
X163794839Y-130171819D01*
X163794839Y-129505152D02*
X163413887Y-129886104D01*
D11*
%TO.C,R10*%
X141478000Y-79097500D03*
X141478000Y-80922500D03*
%TD*%
D12*
%TO.C,TP7*%
X159258000Y-78232000D03*
%TD*%
%TO.C,TP4*%
X161798000Y-83058000D03*
%TD*%
D13*
%TO.C,R21*%
X142898500Y-86868000D03*
X141073500Y-86868000D03*
%TD*%
D14*
%TO.C,J2*%
X136906000Y-114300000D03*
D15*
X136906000Y-111760000D03*
X136906000Y-109220000D03*
X136906000Y-106680000D03*
X136906000Y-104140000D03*
X136906000Y-101600000D03*
X136906000Y-99060000D03*
X136906000Y-96520000D03*
%TD*%
D14*
%TO.C,SW1*%
X140244000Y-125424000D03*
D16*
X140244000Y-118924000D03*
X144744000Y-125424000D03*
X144744000Y-118924000D03*
%TD*%
D17*
%TO.C,C8*%
X146050000Y-79060000D03*
X146050000Y-80960000D03*
%TD*%
D18*
%TO.C,U1*%
X143377500Y-131760000D03*
X143377500Y-130810000D03*
X143377500Y-129860000D03*
X141102500Y-129860000D03*
X141102500Y-130810000D03*
X141102500Y-131760000D03*
%TD*%
D19*
%TO.C,C6*%
X145100000Y-103886000D03*
X147000000Y-103886000D03*
%TD*%
D20*
%TO.C,Q1*%
X148576000Y-90018000D03*
X150876000Y-90018000D03*
D21*
X150876000Y-83718000D03*
D20*
X153176000Y-90018000D03*
%TD*%
D22*
%TO.C,J3*%
X136906000Y-89916000D03*
D23*
X136906000Y-91916000D03*
X138906000Y-89916000D03*
X138906000Y-91916000D03*
X140906000Y-89916000D03*
X140906000Y-91916000D03*
X142906000Y-89916000D03*
X142906000Y-91916000D03*
X144906000Y-89916000D03*
X144906000Y-91916000D03*
%TD*%
D24*
%TO.C,C2*%
X155128000Y-100330000D03*
X153228000Y-100330000D03*
%TD*%
D25*
%TO.C,C5*%
X152146000Y-112522000D03*
D26*
X148646000Y-112522000D03*
%TD*%
D11*
%TO.C,R11*%
X148844000Y-93575500D03*
X148844000Y-95400500D03*
%TD*%
D27*
%TO.C,D3*%
X159512000Y-87504000D03*
X159512000Y-90804000D03*
%TD*%
%TO.C,D2*%
X162052000Y-87504000D03*
X162052000Y-90804000D03*
%TD*%
D24*
%TO.C,C12*%
X142428000Y-127762000D03*
X140528000Y-127762000D03*
%TD*%
D28*
%TO.C,L2*%
X161798000Y-119166000D03*
X161798000Y-124166000D03*
%TD*%
D11*
%TO.C,R23*%
X146228750Y-130418375D03*
X146228750Y-132243375D03*
%TD*%
D29*
%TO.C,R7*%
X155551500Y-79883000D03*
X157376500Y-79883000D03*
%TD*%
%TO.C,R12*%
X155551500Y-86614000D03*
X157376500Y-86614000D03*
%TD*%
D30*
%TO.C,X1*%
X153357000Y-105931000D03*
X155507000Y-105931000D03*
X155507000Y-104381000D03*
X153357000Y-104381000D03*
%TD*%
D31*
%TO.C,L1*%
X138216600Y-129692400D03*
X133766600Y-129692400D03*
%TD*%
D32*
%TO.C,D1*%
X138684000Y-82268000D03*
X138684000Y-78768000D03*
%TD*%
D11*
%TO.C,R4*%
X151130000Y-93575500D03*
X151130000Y-95400500D03*
%TD*%
D12*
%TO.C,TP5*%
X154432000Y-116332000D03*
%TD*%
D29*
%TO.C,R8*%
X155551500Y-82169000D03*
X157376500Y-82169000D03*
%TD*%
D12*
%TO.C,TP1*%
X161798000Y-80010000D03*
%TD*%
D25*
%TO.C,C3*%
X135890000Y-123633113D03*
D26*
X135890000Y-121133113D03*
%TD*%
D33*
%TO.C,D4*%
X144785000Y-114554000D03*
D34*
X142245000Y-114554000D03*
%TD*%
D35*
%TO.C,C7*%
X153848750Y-132280875D03*
X153848750Y-130380875D03*
%TD*%
D13*
%TO.C,R13*%
X137691500Y-117475000D03*
X135866500Y-117475000D03*
%TD*%
D29*
%TO.C,R3*%
X155551500Y-89408000D03*
X157376500Y-89408000D03*
%TD*%
D36*
%TO.C,R9*%
X148336000Y-80922500D03*
X148336000Y-79097500D03*
%TD*%
D24*
%TO.C,C11*%
X155382000Y-107950000D03*
X153482000Y-107950000D03*
%TD*%
D12*
%TO.C,TP3*%
X156210000Y-128016000D03*
%TD*%
D36*
%TO.C,R22*%
X151308750Y-132243375D03*
X151308750Y-130418375D03*
%TD*%
D37*
%TO.C,Q3*%
X152334000Y-79072500D03*
X150434000Y-79072500D03*
X151384000Y-80947500D03*
%TD*%
D36*
%TO.C,R6*%
X153162000Y-97940500D03*
X153162000Y-96115500D03*
%TD*%
D11*
%TO.C,R17*%
X155194000Y-96115500D03*
X155194000Y-97940500D03*
%TD*%
D17*
%TO.C,C20*%
X134366000Y-80330000D03*
X134366000Y-82230000D03*
%TD*%
D24*
%TO.C,C18*%
X155128000Y-102439950D03*
X153228000Y-102439950D03*
%TD*%
D38*
%TO.C,Q2*%
X155115500Y-94168000D03*
X155115500Y-92268000D03*
X153240500Y-93218000D03*
%TD*%
D24*
%TO.C,C17*%
X142936000Y-133604000D03*
X141036000Y-133604000D03*
%TD*%
%TO.C,C1*%
X157414000Y-84328000D03*
X155514000Y-84328000D03*
%TD*%
D12*
%TO.C,TP6*%
X150114000Y-106426000D03*
%TD*%
D17*
%TO.C,C9*%
X143764000Y-79060000D03*
X143764000Y-80960000D03*
%TD*%
D35*
%TO.C,C16*%
X148768750Y-132280875D03*
X148768750Y-130380875D03*
%TD*%
D36*
%TO.C,R16*%
X136398000Y-82192500D03*
X136398000Y-80367500D03*
%TD*%
D14*
%TO.C,J1*%
X159512000Y-93990000D03*
D15*
X159512000Y-96530000D03*
X159512000Y-99070000D03*
X159512000Y-101610000D03*
X159512000Y-104150000D03*
X159512000Y-106690000D03*
X159512000Y-109230000D03*
X159512000Y-111770000D03*
X159512000Y-114310000D03*
%TD*%
D12*
%TO.C,TP2*%
X156210000Y-130302000D03*
%TD*%
M02*
