%TF.GenerationSoftware,KiCad,Pcbnew,8.0.1*%
%TF.CreationDate,2024-04-26T00:23:44+02:00*%
%TF.ProjectId,controller_lpc1115_2MU_v1.04,636f6e74-726f-46c6-9c65-725f6c706331,rev?*%
%TF.SameCoordinates,Original*%
%TF.FileFunction,Legend,Top*%
%TF.FilePolarity,Positive*%
%FSLAX46Y46*%
G04 Gerber Fmt 4.6, Leading zero omitted, Abs format (unit mm)*
G04 Created by KiCad (PCBNEW 8.0.1) date 2024-04-26 00:23:44*
%MOMM*%
%LPD*%
G01*
G04 APERTURE LIST*
%ADD10C,0.250000*%
%ADD11C,0.150000*%
%ADD12C,0.120000*%
G04 APERTURE END LIST*
D10*
X134968142Y-92005812D02*
X133768142Y-92005812D01*
X134911000Y-91491526D02*
X134968142Y-91320098D01*
X134968142Y-91320098D02*
X134968142Y-91034383D01*
X134968142Y-91034383D02*
X134911000Y-90920098D01*
X134911000Y-90920098D02*
X134853857Y-90862955D01*
X134853857Y-90862955D02*
X134739571Y-90805812D01*
X134739571Y-90805812D02*
X134625285Y-90805812D01*
X134625285Y-90805812D02*
X134511000Y-90862955D01*
X134511000Y-90862955D02*
X134453857Y-90920098D01*
X134453857Y-90920098D02*
X134396714Y-91034383D01*
X134396714Y-91034383D02*
X134339571Y-91262955D01*
X134339571Y-91262955D02*
X134282428Y-91377240D01*
X134282428Y-91377240D02*
X134225285Y-91434383D01*
X134225285Y-91434383D02*
X134111000Y-91491526D01*
X134111000Y-91491526D02*
X133996714Y-91491526D01*
X133996714Y-91491526D02*
X133882428Y-91434383D01*
X133882428Y-91434383D02*
X133825285Y-91377240D01*
X133825285Y-91377240D02*
X133768142Y-91262955D01*
X133768142Y-91262955D02*
X133768142Y-90977240D01*
X133768142Y-90977240D02*
X133825285Y-90805812D01*
X134968142Y-90291526D02*
X133768142Y-90291526D01*
X133768142Y-90291526D02*
X133768142Y-89834383D01*
X133768142Y-89834383D02*
X133825285Y-89720098D01*
X133825285Y-89720098D02*
X133882428Y-89662955D01*
X133882428Y-89662955D02*
X133996714Y-89605812D01*
X133996714Y-89605812D02*
X134168142Y-89605812D01*
X134168142Y-89605812D02*
X134282428Y-89662955D01*
X134282428Y-89662955D02*
X134339571Y-89720098D01*
X134339571Y-89720098D02*
X134396714Y-89834383D01*
X134396714Y-89834383D02*
X134396714Y-90291526D01*
D11*
X161413887Y-133172200D02*
X161556744Y-133219819D01*
X161556744Y-133219819D02*
X161794839Y-133219819D01*
X161794839Y-133219819D02*
X161890077Y-133172200D01*
X161890077Y-133172200D02*
X161937696Y-133124580D01*
X161937696Y-133124580D02*
X161985315Y-133029342D01*
X161985315Y-133029342D02*
X161985315Y-132934104D01*
X161985315Y-132934104D02*
X161937696Y-132838866D01*
X161937696Y-132838866D02*
X161890077Y-132791247D01*
X161890077Y-132791247D02*
X161794839Y-132743628D01*
X161794839Y-132743628D02*
X161604363Y-132696009D01*
X161604363Y-132696009D02*
X161509125Y-132648390D01*
X161509125Y-132648390D02*
X161461506Y-132600771D01*
X161461506Y-132600771D02*
X161413887Y-132505533D01*
X161413887Y-132505533D02*
X161413887Y-132410295D01*
X161413887Y-132410295D02*
X161461506Y-132315057D01*
X161461506Y-132315057D02*
X161509125Y-132267438D01*
X161509125Y-132267438D02*
X161604363Y-132219819D01*
X161604363Y-132219819D02*
X161842458Y-132219819D01*
X161842458Y-132219819D02*
X161985315Y-132267438D01*
X162413887Y-133219819D02*
X162413887Y-132553152D01*
X162413887Y-132219819D02*
X162366268Y-132267438D01*
X162366268Y-132267438D02*
X162413887Y-132315057D01*
X162413887Y-132315057D02*
X162461506Y-132267438D01*
X162461506Y-132267438D02*
X162413887Y-132219819D01*
X162413887Y-132219819D02*
X162413887Y-132315057D01*
X163032934Y-133219819D02*
X162937696Y-133172200D01*
X162937696Y-133172200D02*
X162890077Y-133076961D01*
X162890077Y-133076961D02*
X162890077Y-132219819D01*
X163413887Y-133219819D02*
X163413887Y-132219819D01*
X163509125Y-132838866D02*
X163794839Y-133219819D01*
X163794839Y-132553152D02*
X163413887Y-132934104D01*
D10*
X139605857Y-95763615D02*
X139605857Y-95192187D01*
X139605857Y-95192187D02*
X140805857Y-95192187D01*
X139605857Y-96163616D02*
X140805857Y-96163616D01*
X140805857Y-96163616D02*
X140805857Y-96620759D01*
X140805857Y-96620759D02*
X140748714Y-96735044D01*
X140748714Y-96735044D02*
X140691571Y-96792187D01*
X140691571Y-96792187D02*
X140577285Y-96849330D01*
X140577285Y-96849330D02*
X140405857Y-96849330D01*
X140405857Y-96849330D02*
X140291571Y-96792187D01*
X140291571Y-96792187D02*
X140234428Y-96735044D01*
X140234428Y-96735044D02*
X140177285Y-96620759D01*
X140177285Y-96620759D02*
X140177285Y-96163616D01*
X139720142Y-98049330D02*
X139663000Y-97992187D01*
X139663000Y-97992187D02*
X139605857Y-97820759D01*
X139605857Y-97820759D02*
X139605857Y-97706473D01*
X139605857Y-97706473D02*
X139663000Y-97535044D01*
X139663000Y-97535044D02*
X139777285Y-97420759D01*
X139777285Y-97420759D02*
X139891571Y-97363616D01*
X139891571Y-97363616D02*
X140120142Y-97306473D01*
X140120142Y-97306473D02*
X140291571Y-97306473D01*
X140291571Y-97306473D02*
X140520142Y-97363616D01*
X140520142Y-97363616D02*
X140634428Y-97420759D01*
X140634428Y-97420759D02*
X140748714Y-97535044D01*
X140748714Y-97535044D02*
X140805857Y-97706473D01*
X140805857Y-97706473D02*
X140805857Y-97820759D01*
X140805857Y-97820759D02*
X140748714Y-97992187D01*
X140748714Y-97992187D02*
X140691571Y-98049330D01*
X139605857Y-99192187D02*
X139605857Y-98506473D01*
X139605857Y-98849330D02*
X140805857Y-98849330D01*
X140805857Y-98849330D02*
X140634428Y-98735044D01*
X140634428Y-98735044D02*
X140520142Y-98620759D01*
X140520142Y-98620759D02*
X140463000Y-98506473D01*
X139605857Y-100335044D02*
X139605857Y-99649330D01*
X139605857Y-99992187D02*
X140805857Y-99992187D01*
X140805857Y-99992187D02*
X140634428Y-99877901D01*
X140634428Y-99877901D02*
X140520142Y-99763616D01*
X140520142Y-99763616D02*
X140463000Y-99649330D01*
X139605857Y-101477901D02*
X139605857Y-100792187D01*
X139605857Y-101135044D02*
X140805857Y-101135044D01*
X140805857Y-101135044D02*
X140634428Y-101020758D01*
X140634428Y-101020758D02*
X140520142Y-100906473D01*
X140520142Y-100906473D02*
X140463000Y-100792187D01*
X140805857Y-102563615D02*
X140805857Y-101992187D01*
X140805857Y-101992187D02*
X140234428Y-101935044D01*
X140234428Y-101935044D02*
X140291571Y-101992187D01*
X140291571Y-101992187D02*
X140348714Y-102106473D01*
X140348714Y-102106473D02*
X140348714Y-102392187D01*
X140348714Y-102392187D02*
X140291571Y-102506473D01*
X140291571Y-102506473D02*
X140234428Y-102563615D01*
X140234428Y-102563615D02*
X140120142Y-102620758D01*
X140120142Y-102620758D02*
X139834428Y-102620758D01*
X139834428Y-102620758D02*
X139720142Y-102563615D01*
X139720142Y-102563615D02*
X139663000Y-102506473D01*
X139663000Y-102506473D02*
X139605857Y-102392187D01*
X139605857Y-102392187D02*
X139605857Y-102106473D01*
X139605857Y-102106473D02*
X139663000Y-101992187D01*
X139663000Y-101992187D02*
X139720142Y-101935044D01*
X139491571Y-102849330D02*
X139491571Y-103763615D01*
X140691571Y-103992187D02*
X140748714Y-104049330D01*
X140748714Y-104049330D02*
X140805857Y-104163616D01*
X140805857Y-104163616D02*
X140805857Y-104449330D01*
X140805857Y-104449330D02*
X140748714Y-104563616D01*
X140748714Y-104563616D02*
X140691571Y-104620758D01*
X140691571Y-104620758D02*
X140577285Y-104677901D01*
X140577285Y-104677901D02*
X140463000Y-104677901D01*
X140463000Y-104677901D02*
X140291571Y-104620758D01*
X140291571Y-104620758D02*
X139605857Y-103935044D01*
X139605857Y-103935044D02*
X139605857Y-104677901D01*
X140805857Y-105020758D02*
X140805857Y-105706473D01*
X139605857Y-105363615D02*
X140805857Y-105363615D01*
X140234428Y-106106473D02*
X140234428Y-106506473D01*
X139605857Y-106677901D02*
X139605857Y-106106473D01*
X139605857Y-106106473D02*
X140805857Y-106106473D01*
X140805857Y-106106473D02*
X140805857Y-106677901D01*
X139491571Y-106906473D02*
X139491571Y-107820758D01*
X140805857Y-107935044D02*
X139605857Y-108335044D01*
X139605857Y-108335044D02*
X140805857Y-108735044D01*
X140691571Y-109077901D02*
X140748714Y-109135044D01*
X140748714Y-109135044D02*
X140805857Y-109249330D01*
X140805857Y-109249330D02*
X140805857Y-109535044D01*
X140805857Y-109535044D02*
X140748714Y-109649330D01*
X140748714Y-109649330D02*
X140691571Y-109706472D01*
X140691571Y-109706472D02*
X140577285Y-109763615D01*
X140577285Y-109763615D02*
X140463000Y-109763615D01*
X140463000Y-109763615D02*
X140291571Y-109706472D01*
X140291571Y-109706472D02*
X139605857Y-109020758D01*
X139605857Y-109020758D02*
X139605857Y-109763615D01*
X139720142Y-110277901D02*
X139663000Y-110335044D01*
X139663000Y-110335044D02*
X139605857Y-110277901D01*
X139605857Y-110277901D02*
X139663000Y-110220758D01*
X139663000Y-110220758D02*
X139720142Y-110277901D01*
X139720142Y-110277901D02*
X139605857Y-110277901D01*
X140805857Y-111077901D02*
X140805857Y-111192187D01*
X140805857Y-111192187D02*
X140748714Y-111306473D01*
X140748714Y-111306473D02*
X140691571Y-111363616D01*
X140691571Y-111363616D02*
X140577285Y-111420758D01*
X140577285Y-111420758D02*
X140348714Y-111477901D01*
X140348714Y-111477901D02*
X140063000Y-111477901D01*
X140063000Y-111477901D02*
X139834428Y-111420758D01*
X139834428Y-111420758D02*
X139720142Y-111363616D01*
X139720142Y-111363616D02*
X139663000Y-111306473D01*
X139663000Y-111306473D02*
X139605857Y-111192187D01*
X139605857Y-111192187D02*
X139605857Y-111077901D01*
X139605857Y-111077901D02*
X139663000Y-110963616D01*
X139663000Y-110963616D02*
X139720142Y-110906473D01*
X139720142Y-110906473D02*
X139834428Y-110849330D01*
X139834428Y-110849330D02*
X140063000Y-110792187D01*
X140063000Y-110792187D02*
X140348714Y-110792187D01*
X140348714Y-110792187D02*
X140577285Y-110849330D01*
X140577285Y-110849330D02*
X140691571Y-110906473D01*
X140691571Y-110906473D02*
X140748714Y-110963616D01*
X140748714Y-110963616D02*
X140805857Y-111077901D01*
X140805857Y-112220758D02*
X140805857Y-112335044D01*
X140805857Y-112335044D02*
X140748714Y-112449330D01*
X140748714Y-112449330D02*
X140691571Y-112506473D01*
X140691571Y-112506473D02*
X140577285Y-112563615D01*
X140577285Y-112563615D02*
X140348714Y-112620758D01*
X140348714Y-112620758D02*
X140063000Y-112620758D01*
X140063000Y-112620758D02*
X139834428Y-112563615D01*
X139834428Y-112563615D02*
X139720142Y-112506473D01*
X139720142Y-112506473D02*
X139663000Y-112449330D01*
X139663000Y-112449330D02*
X139605857Y-112335044D01*
X139605857Y-112335044D02*
X139605857Y-112220758D01*
X139605857Y-112220758D02*
X139663000Y-112106473D01*
X139663000Y-112106473D02*
X139720142Y-112049330D01*
X139720142Y-112049330D02*
X139834428Y-111992187D01*
X139834428Y-111992187D02*
X140063000Y-111935044D01*
X140063000Y-111935044D02*
X140348714Y-111935044D01*
X140348714Y-111935044D02*
X140577285Y-111992187D01*
X140577285Y-111992187D02*
X140691571Y-112049330D01*
X140691571Y-112049330D02*
X140748714Y-112106473D01*
X140748714Y-112106473D02*
X140805857Y-112220758D01*
D11*
X141932819Y-83954857D02*
X141456628Y-84288190D01*
X141932819Y-84526285D02*
X140932819Y-84526285D01*
X140932819Y-84526285D02*
X140932819Y-84145333D01*
X140932819Y-84145333D02*
X140980438Y-84050095D01*
X140980438Y-84050095D02*
X141028057Y-84002476D01*
X141028057Y-84002476D02*
X141123295Y-83954857D01*
X141123295Y-83954857D02*
X141266152Y-83954857D01*
X141266152Y-83954857D02*
X141361390Y-84002476D01*
X141361390Y-84002476D02*
X141409009Y-84050095D01*
X141409009Y-84050095D02*
X141456628Y-84145333D01*
X141456628Y-84145333D02*
X141456628Y-84526285D01*
X141932819Y-83002476D02*
X141932819Y-83573904D01*
X141932819Y-83288190D02*
X140932819Y-83288190D01*
X140932819Y-83288190D02*
X141075676Y-83383428D01*
X141075676Y-83383428D02*
X141170914Y-83478666D01*
X141170914Y-83478666D02*
X141218533Y-83573904D01*
X140932819Y-82383428D02*
X140932819Y-82288190D01*
X140932819Y-82288190D02*
X140980438Y-82192952D01*
X140980438Y-82192952D02*
X141028057Y-82145333D01*
X141028057Y-82145333D02*
X141123295Y-82097714D01*
X141123295Y-82097714D02*
X141313771Y-82050095D01*
X141313771Y-82050095D02*
X141551866Y-82050095D01*
X141551866Y-82050095D02*
X141742342Y-82097714D01*
X141742342Y-82097714D02*
X141837580Y-82145333D01*
X141837580Y-82145333D02*
X141885200Y-82192952D01*
X141885200Y-82192952D02*
X141932819Y-82288190D01*
X141932819Y-82288190D02*
X141932819Y-82383428D01*
X141932819Y-82383428D02*
X141885200Y-82478666D01*
X141885200Y-82478666D02*
X141837580Y-82526285D01*
X141837580Y-82526285D02*
X141742342Y-82573904D01*
X141742342Y-82573904D02*
X141551866Y-82621523D01*
X141551866Y-82621523D02*
X141313771Y-82621523D01*
X141313771Y-82621523D02*
X141123295Y-82573904D01*
X141123295Y-82573904D02*
X141028057Y-82526285D01*
X141028057Y-82526285D02*
X140980438Y-82478666D01*
X140980438Y-82478666D02*
X140932819Y-82383428D01*
X155202095Y-77686819D02*
X155773523Y-77686819D01*
X155487809Y-78686819D02*
X155487809Y-77686819D01*
X156106857Y-78686819D02*
X156106857Y-77686819D01*
X156106857Y-77686819D02*
X156487809Y-77686819D01*
X156487809Y-77686819D02*
X156583047Y-77734438D01*
X156583047Y-77734438D02*
X156630666Y-77782057D01*
X156630666Y-77782057D02*
X156678285Y-77877295D01*
X156678285Y-77877295D02*
X156678285Y-78020152D01*
X156678285Y-78020152D02*
X156630666Y-78115390D01*
X156630666Y-78115390D02*
X156583047Y-78163009D01*
X156583047Y-78163009D02*
X156487809Y-78210628D01*
X156487809Y-78210628D02*
X156106857Y-78210628D01*
X157011619Y-77686819D02*
X157678285Y-77686819D01*
X157678285Y-77686819D02*
X157249714Y-78686819D01*
X163030819Y-84319904D02*
X163030819Y-83748476D01*
X164030819Y-84034190D02*
X163030819Y-84034190D01*
X164030819Y-83415142D02*
X163030819Y-83415142D01*
X163030819Y-83415142D02*
X163030819Y-83034190D01*
X163030819Y-83034190D02*
X163078438Y-82938952D01*
X163078438Y-82938952D02*
X163126057Y-82891333D01*
X163126057Y-82891333D02*
X163221295Y-82843714D01*
X163221295Y-82843714D02*
X163364152Y-82843714D01*
X163364152Y-82843714D02*
X163459390Y-82891333D01*
X163459390Y-82891333D02*
X163507009Y-82938952D01*
X163507009Y-82938952D02*
X163554628Y-83034190D01*
X163554628Y-83034190D02*
X163554628Y-83415142D01*
X163364152Y-81986571D02*
X164030819Y-81986571D01*
X162983200Y-82224666D02*
X163697485Y-82462761D01*
X163697485Y-82462761D02*
X163697485Y-81843714D01*
X138041142Y-87322819D02*
X137707809Y-86846628D01*
X137469714Y-87322819D02*
X137469714Y-86322819D01*
X137469714Y-86322819D02*
X137850666Y-86322819D01*
X137850666Y-86322819D02*
X137945904Y-86370438D01*
X137945904Y-86370438D02*
X137993523Y-86418057D01*
X137993523Y-86418057D02*
X138041142Y-86513295D01*
X138041142Y-86513295D02*
X138041142Y-86656152D01*
X138041142Y-86656152D02*
X137993523Y-86751390D01*
X137993523Y-86751390D02*
X137945904Y-86799009D01*
X137945904Y-86799009D02*
X137850666Y-86846628D01*
X137850666Y-86846628D02*
X137469714Y-86846628D01*
X138422095Y-86418057D02*
X138469714Y-86370438D01*
X138469714Y-86370438D02*
X138564952Y-86322819D01*
X138564952Y-86322819D02*
X138803047Y-86322819D01*
X138803047Y-86322819D02*
X138898285Y-86370438D01*
X138898285Y-86370438D02*
X138945904Y-86418057D01*
X138945904Y-86418057D02*
X138993523Y-86513295D01*
X138993523Y-86513295D02*
X138993523Y-86608533D01*
X138993523Y-86608533D02*
X138945904Y-86751390D01*
X138945904Y-86751390D02*
X138374476Y-87322819D01*
X138374476Y-87322819D02*
X138993523Y-87322819D01*
X139945904Y-87322819D02*
X139374476Y-87322819D01*
X139660190Y-87322819D02*
X139660190Y-86322819D01*
X139660190Y-86322819D02*
X139564952Y-86465676D01*
X139564952Y-86465676D02*
X139469714Y-86560914D01*
X139469714Y-86560914D02*
X139374476Y-86608533D01*
X133778666Y-104356819D02*
X133778666Y-105071104D01*
X133778666Y-105071104D02*
X133731047Y-105213961D01*
X133731047Y-105213961D02*
X133635809Y-105309200D01*
X133635809Y-105309200D02*
X133492952Y-105356819D01*
X133492952Y-105356819D02*
X133397714Y-105356819D01*
X134207238Y-104452057D02*
X134254857Y-104404438D01*
X134254857Y-104404438D02*
X134350095Y-104356819D01*
X134350095Y-104356819D02*
X134588190Y-104356819D01*
X134588190Y-104356819D02*
X134683428Y-104404438D01*
X134683428Y-104404438D02*
X134731047Y-104452057D01*
X134731047Y-104452057D02*
X134778666Y-104547295D01*
X134778666Y-104547295D02*
X134778666Y-104642533D01*
X134778666Y-104642533D02*
X134731047Y-104785390D01*
X134731047Y-104785390D02*
X134159619Y-105356819D01*
X134159619Y-105356819D02*
X134778666Y-105356819D01*
X146965200Y-123507332D02*
X147012819Y-123364475D01*
X147012819Y-123364475D02*
X147012819Y-123126380D01*
X147012819Y-123126380D02*
X146965200Y-123031142D01*
X146965200Y-123031142D02*
X146917580Y-122983523D01*
X146917580Y-122983523D02*
X146822342Y-122935904D01*
X146822342Y-122935904D02*
X146727104Y-122935904D01*
X146727104Y-122935904D02*
X146631866Y-122983523D01*
X146631866Y-122983523D02*
X146584247Y-123031142D01*
X146584247Y-123031142D02*
X146536628Y-123126380D01*
X146536628Y-123126380D02*
X146489009Y-123316856D01*
X146489009Y-123316856D02*
X146441390Y-123412094D01*
X146441390Y-123412094D02*
X146393771Y-123459713D01*
X146393771Y-123459713D02*
X146298533Y-123507332D01*
X146298533Y-123507332D02*
X146203295Y-123507332D01*
X146203295Y-123507332D02*
X146108057Y-123459713D01*
X146108057Y-123459713D02*
X146060438Y-123412094D01*
X146060438Y-123412094D02*
X146012819Y-123316856D01*
X146012819Y-123316856D02*
X146012819Y-123078761D01*
X146012819Y-123078761D02*
X146060438Y-122935904D01*
X146012819Y-122602570D02*
X147012819Y-122364475D01*
X147012819Y-122364475D02*
X146298533Y-122173999D01*
X146298533Y-122173999D02*
X147012819Y-121983523D01*
X147012819Y-121983523D02*
X146012819Y-121745428D01*
X147012819Y-120840666D02*
X147012819Y-121412094D01*
X147012819Y-121126380D02*
X146012819Y-121126380D01*
X146012819Y-121126380D02*
X146155676Y-121221618D01*
X146155676Y-121221618D02*
X146250914Y-121316856D01*
X146250914Y-121316856D02*
X146298533Y-121412094D01*
X145393580Y-82970666D02*
X145441200Y-83018285D01*
X145441200Y-83018285D02*
X145488819Y-83161142D01*
X145488819Y-83161142D02*
X145488819Y-83256380D01*
X145488819Y-83256380D02*
X145441200Y-83399237D01*
X145441200Y-83399237D02*
X145345961Y-83494475D01*
X145345961Y-83494475D02*
X145250723Y-83542094D01*
X145250723Y-83542094D02*
X145060247Y-83589713D01*
X145060247Y-83589713D02*
X144917390Y-83589713D01*
X144917390Y-83589713D02*
X144726914Y-83542094D01*
X144726914Y-83542094D02*
X144631676Y-83494475D01*
X144631676Y-83494475D02*
X144536438Y-83399237D01*
X144536438Y-83399237D02*
X144488819Y-83256380D01*
X144488819Y-83256380D02*
X144488819Y-83161142D01*
X144488819Y-83161142D02*
X144536438Y-83018285D01*
X144536438Y-83018285D02*
X144584057Y-82970666D01*
X144917390Y-82399237D02*
X144869771Y-82494475D01*
X144869771Y-82494475D02*
X144822152Y-82542094D01*
X144822152Y-82542094D02*
X144726914Y-82589713D01*
X144726914Y-82589713D02*
X144679295Y-82589713D01*
X144679295Y-82589713D02*
X144584057Y-82542094D01*
X144584057Y-82542094D02*
X144536438Y-82494475D01*
X144536438Y-82494475D02*
X144488819Y-82399237D01*
X144488819Y-82399237D02*
X144488819Y-82208761D01*
X144488819Y-82208761D02*
X144536438Y-82113523D01*
X144536438Y-82113523D02*
X144584057Y-82065904D01*
X144584057Y-82065904D02*
X144679295Y-82018285D01*
X144679295Y-82018285D02*
X144726914Y-82018285D01*
X144726914Y-82018285D02*
X144822152Y-82065904D01*
X144822152Y-82065904D02*
X144869771Y-82113523D01*
X144869771Y-82113523D02*
X144917390Y-82208761D01*
X144917390Y-82208761D02*
X144917390Y-82399237D01*
X144917390Y-82399237D02*
X144965009Y-82494475D01*
X144965009Y-82494475D02*
X145012628Y-82542094D01*
X145012628Y-82542094D02*
X145107866Y-82589713D01*
X145107866Y-82589713D02*
X145298342Y-82589713D01*
X145298342Y-82589713D02*
X145393580Y-82542094D01*
X145393580Y-82542094D02*
X145441200Y-82494475D01*
X145441200Y-82494475D02*
X145488819Y-82399237D01*
X145488819Y-82399237D02*
X145488819Y-82208761D01*
X145488819Y-82208761D02*
X145441200Y-82113523D01*
X145441200Y-82113523D02*
X145393580Y-82065904D01*
X145393580Y-82065904D02*
X145298342Y-82018285D01*
X145298342Y-82018285D02*
X145107866Y-82018285D01*
X145107866Y-82018285D02*
X145012628Y-82065904D01*
X145012628Y-82065904D02*
X144965009Y-82113523D01*
X144965009Y-82113523D02*
X144917390Y-82208761D01*
X138430095Y-131788819D02*
X138430095Y-132598342D01*
X138430095Y-132598342D02*
X138477714Y-132693580D01*
X138477714Y-132693580D02*
X138525333Y-132741200D01*
X138525333Y-132741200D02*
X138620571Y-132788819D01*
X138620571Y-132788819D02*
X138811047Y-132788819D01*
X138811047Y-132788819D02*
X138906285Y-132741200D01*
X138906285Y-132741200D02*
X138953904Y-132693580D01*
X138953904Y-132693580D02*
X139001523Y-132598342D01*
X139001523Y-132598342D02*
X139001523Y-131788819D01*
X140001523Y-132788819D02*
X139430095Y-132788819D01*
X139715809Y-132788819D02*
X139715809Y-131788819D01*
X139715809Y-131788819D02*
X139620571Y-131931676D01*
X139620571Y-131931676D02*
X139525333Y-132026914D01*
X139525333Y-132026914D02*
X139430095Y-132074533D01*
X145883333Y-102565580D02*
X145835714Y-102613200D01*
X145835714Y-102613200D02*
X145692857Y-102660819D01*
X145692857Y-102660819D02*
X145597619Y-102660819D01*
X145597619Y-102660819D02*
X145454762Y-102613200D01*
X145454762Y-102613200D02*
X145359524Y-102517961D01*
X145359524Y-102517961D02*
X145311905Y-102422723D01*
X145311905Y-102422723D02*
X145264286Y-102232247D01*
X145264286Y-102232247D02*
X145264286Y-102089390D01*
X145264286Y-102089390D02*
X145311905Y-101898914D01*
X145311905Y-101898914D02*
X145359524Y-101803676D01*
X145359524Y-101803676D02*
X145454762Y-101708438D01*
X145454762Y-101708438D02*
X145597619Y-101660819D01*
X145597619Y-101660819D02*
X145692857Y-101660819D01*
X145692857Y-101660819D02*
X145835714Y-101708438D01*
X145835714Y-101708438D02*
X145883333Y-101756057D01*
X146740476Y-101660819D02*
X146550000Y-101660819D01*
X146550000Y-101660819D02*
X146454762Y-101708438D01*
X146454762Y-101708438D02*
X146407143Y-101756057D01*
X146407143Y-101756057D02*
X146311905Y-101898914D01*
X146311905Y-101898914D02*
X146264286Y-102089390D01*
X146264286Y-102089390D02*
X146264286Y-102470342D01*
X146264286Y-102470342D02*
X146311905Y-102565580D01*
X146311905Y-102565580D02*
X146359524Y-102613200D01*
X146359524Y-102613200D02*
X146454762Y-102660819D01*
X146454762Y-102660819D02*
X146645238Y-102660819D01*
X146645238Y-102660819D02*
X146740476Y-102613200D01*
X146740476Y-102613200D02*
X146788095Y-102565580D01*
X146788095Y-102565580D02*
X146835714Y-102470342D01*
X146835714Y-102470342D02*
X146835714Y-102232247D01*
X146835714Y-102232247D02*
X146788095Y-102137009D01*
X146788095Y-102137009D02*
X146740476Y-102089390D01*
X146740476Y-102089390D02*
X146645238Y-102041771D01*
X146645238Y-102041771D02*
X146454762Y-102041771D01*
X146454762Y-102041771D02*
X146359524Y-102089390D01*
X146359524Y-102089390D02*
X146311905Y-102137009D01*
X146311905Y-102137009D02*
X146264286Y-102232247D01*
X146926057Y-86963238D02*
X146878438Y-87058476D01*
X146878438Y-87058476D02*
X146783200Y-87153714D01*
X146783200Y-87153714D02*
X146640342Y-87296571D01*
X146640342Y-87296571D02*
X146592723Y-87391809D01*
X146592723Y-87391809D02*
X146592723Y-87487047D01*
X146830819Y-87439428D02*
X146783200Y-87534666D01*
X146783200Y-87534666D02*
X146687961Y-87629904D01*
X146687961Y-87629904D02*
X146497485Y-87677523D01*
X146497485Y-87677523D02*
X146164152Y-87677523D01*
X146164152Y-87677523D02*
X145973676Y-87629904D01*
X145973676Y-87629904D02*
X145878438Y-87534666D01*
X145878438Y-87534666D02*
X145830819Y-87439428D01*
X145830819Y-87439428D02*
X145830819Y-87248952D01*
X145830819Y-87248952D02*
X145878438Y-87153714D01*
X145878438Y-87153714D02*
X145973676Y-87058476D01*
X145973676Y-87058476D02*
X146164152Y-87010857D01*
X146164152Y-87010857D02*
X146497485Y-87010857D01*
X146497485Y-87010857D02*
X146687961Y-87058476D01*
X146687961Y-87058476D02*
X146783200Y-87153714D01*
X146783200Y-87153714D02*
X146830819Y-87248952D01*
X146830819Y-87248952D02*
X146830819Y-87439428D01*
X146830819Y-86058476D02*
X146830819Y-86629904D01*
X146830819Y-86344190D02*
X145830819Y-86344190D01*
X145830819Y-86344190D02*
X145973676Y-86439428D01*
X145973676Y-86439428D02*
X146068914Y-86534666D01*
X146068914Y-86534666D02*
X146116533Y-86629904D01*
X140636666Y-93688819D02*
X140636666Y-94403104D01*
X140636666Y-94403104D02*
X140589047Y-94545961D01*
X140589047Y-94545961D02*
X140493809Y-94641200D01*
X140493809Y-94641200D02*
X140350952Y-94688819D01*
X140350952Y-94688819D02*
X140255714Y-94688819D01*
X141017619Y-93688819D02*
X141636666Y-93688819D01*
X141636666Y-93688819D02*
X141303333Y-94069771D01*
X141303333Y-94069771D02*
X141446190Y-94069771D01*
X141446190Y-94069771D02*
X141541428Y-94117390D01*
X141541428Y-94117390D02*
X141589047Y-94165009D01*
X141589047Y-94165009D02*
X141636666Y-94260247D01*
X141636666Y-94260247D02*
X141636666Y-94498342D01*
X141636666Y-94498342D02*
X141589047Y-94593580D01*
X141589047Y-94593580D02*
X141541428Y-94641200D01*
X141541428Y-94641200D02*
X141446190Y-94688819D01*
X141446190Y-94688819D02*
X141160476Y-94688819D01*
X141160476Y-94688819D02*
X141065238Y-94641200D01*
X141065238Y-94641200D02*
X141017619Y-94593580D01*
X151217333Y-100689580D02*
X151169714Y-100737200D01*
X151169714Y-100737200D02*
X151026857Y-100784819D01*
X151026857Y-100784819D02*
X150931619Y-100784819D01*
X150931619Y-100784819D02*
X150788762Y-100737200D01*
X150788762Y-100737200D02*
X150693524Y-100641961D01*
X150693524Y-100641961D02*
X150645905Y-100546723D01*
X150645905Y-100546723D02*
X150598286Y-100356247D01*
X150598286Y-100356247D02*
X150598286Y-100213390D01*
X150598286Y-100213390D02*
X150645905Y-100022914D01*
X150645905Y-100022914D02*
X150693524Y-99927676D01*
X150693524Y-99927676D02*
X150788762Y-99832438D01*
X150788762Y-99832438D02*
X150931619Y-99784819D01*
X150931619Y-99784819D02*
X151026857Y-99784819D01*
X151026857Y-99784819D02*
X151169714Y-99832438D01*
X151169714Y-99832438D02*
X151217333Y-99880057D01*
X151598286Y-99880057D02*
X151645905Y-99832438D01*
X151645905Y-99832438D02*
X151741143Y-99784819D01*
X151741143Y-99784819D02*
X151979238Y-99784819D01*
X151979238Y-99784819D02*
X152074476Y-99832438D01*
X152074476Y-99832438D02*
X152122095Y-99880057D01*
X152122095Y-99880057D02*
X152169714Y-99975295D01*
X152169714Y-99975295D02*
X152169714Y-100070533D01*
X152169714Y-100070533D02*
X152122095Y-100213390D01*
X152122095Y-100213390D02*
X151550667Y-100784819D01*
X151550667Y-100784819D02*
X152169714Y-100784819D01*
X150229333Y-118131580D02*
X150181714Y-118179200D01*
X150181714Y-118179200D02*
X150038857Y-118226819D01*
X150038857Y-118226819D02*
X149943619Y-118226819D01*
X149943619Y-118226819D02*
X149800762Y-118179200D01*
X149800762Y-118179200D02*
X149705524Y-118083961D01*
X149705524Y-118083961D02*
X149657905Y-117988723D01*
X149657905Y-117988723D02*
X149610286Y-117798247D01*
X149610286Y-117798247D02*
X149610286Y-117655390D01*
X149610286Y-117655390D02*
X149657905Y-117464914D01*
X149657905Y-117464914D02*
X149705524Y-117369676D01*
X149705524Y-117369676D02*
X149800762Y-117274438D01*
X149800762Y-117274438D02*
X149943619Y-117226819D01*
X149943619Y-117226819D02*
X150038857Y-117226819D01*
X150038857Y-117226819D02*
X150181714Y-117274438D01*
X150181714Y-117274438D02*
X150229333Y-117322057D01*
X151134095Y-117226819D02*
X150657905Y-117226819D01*
X150657905Y-117226819D02*
X150610286Y-117703009D01*
X150610286Y-117703009D02*
X150657905Y-117655390D01*
X150657905Y-117655390D02*
X150753143Y-117607771D01*
X150753143Y-117607771D02*
X150991238Y-117607771D01*
X150991238Y-117607771D02*
X151086476Y-117655390D01*
X151086476Y-117655390D02*
X151134095Y-117703009D01*
X151134095Y-117703009D02*
X151181714Y-117798247D01*
X151181714Y-117798247D02*
X151181714Y-118036342D01*
X151181714Y-118036342D02*
X151134095Y-118131580D01*
X151134095Y-118131580D02*
X151086476Y-118179200D01*
X151086476Y-118179200D02*
X150991238Y-118226819D01*
X150991238Y-118226819D02*
X150753143Y-118226819D01*
X150753143Y-118226819D02*
X150657905Y-118179200D01*
X150657905Y-118179200D02*
X150610286Y-118131580D01*
X147520819Y-95130857D02*
X147044628Y-95464190D01*
X147520819Y-95702285D02*
X146520819Y-95702285D01*
X146520819Y-95702285D02*
X146520819Y-95321333D01*
X146520819Y-95321333D02*
X146568438Y-95226095D01*
X146568438Y-95226095D02*
X146616057Y-95178476D01*
X146616057Y-95178476D02*
X146711295Y-95130857D01*
X146711295Y-95130857D02*
X146854152Y-95130857D01*
X146854152Y-95130857D02*
X146949390Y-95178476D01*
X146949390Y-95178476D02*
X146997009Y-95226095D01*
X146997009Y-95226095D02*
X147044628Y-95321333D01*
X147044628Y-95321333D02*
X147044628Y-95702285D01*
X147520819Y-94178476D02*
X147520819Y-94749904D01*
X147520819Y-94464190D02*
X146520819Y-94464190D01*
X146520819Y-94464190D02*
X146663676Y-94559428D01*
X146663676Y-94559428D02*
X146758914Y-94654666D01*
X146758914Y-94654666D02*
X146806533Y-94749904D01*
X147520819Y-93226095D02*
X147520819Y-93797523D01*
X147520819Y-93511809D02*
X146520819Y-93511809D01*
X146520819Y-93511809D02*
X146663676Y-93607047D01*
X146663676Y-93607047D02*
X146758914Y-93702285D01*
X146758914Y-93702285D02*
X146806533Y-93797523D01*
X162506819Y-86336094D02*
X161506819Y-86336094D01*
X161506819Y-86336094D02*
X161506819Y-86097999D01*
X161506819Y-86097999D02*
X161554438Y-85955142D01*
X161554438Y-85955142D02*
X161649676Y-85859904D01*
X161649676Y-85859904D02*
X161744914Y-85812285D01*
X161744914Y-85812285D02*
X161935390Y-85764666D01*
X161935390Y-85764666D02*
X162078247Y-85764666D01*
X162078247Y-85764666D02*
X162268723Y-85812285D01*
X162268723Y-85812285D02*
X162363961Y-85859904D01*
X162363961Y-85859904D02*
X162459200Y-85955142D01*
X162459200Y-85955142D02*
X162506819Y-86097999D01*
X162506819Y-86097999D02*
X162506819Y-86336094D01*
X161506819Y-85431332D02*
X161506819Y-84812285D01*
X161506819Y-84812285D02*
X161887771Y-85145618D01*
X161887771Y-85145618D02*
X161887771Y-85002761D01*
X161887771Y-85002761D02*
X161935390Y-84907523D01*
X161935390Y-84907523D02*
X161983009Y-84859904D01*
X161983009Y-84859904D02*
X162078247Y-84812285D01*
X162078247Y-84812285D02*
X162316342Y-84812285D01*
X162316342Y-84812285D02*
X162411580Y-84859904D01*
X162411580Y-84859904D02*
X162459200Y-84907523D01*
X162459200Y-84907523D02*
X162506819Y-85002761D01*
X162506819Y-85002761D02*
X162506819Y-85288475D01*
X162506819Y-85288475D02*
X162459200Y-85383713D01*
X162459200Y-85383713D02*
X162411580Y-85431332D01*
X164030819Y-86336094D02*
X163030819Y-86336094D01*
X163030819Y-86336094D02*
X163030819Y-86097999D01*
X163030819Y-86097999D02*
X163078438Y-85955142D01*
X163078438Y-85955142D02*
X163173676Y-85859904D01*
X163173676Y-85859904D02*
X163268914Y-85812285D01*
X163268914Y-85812285D02*
X163459390Y-85764666D01*
X163459390Y-85764666D02*
X163602247Y-85764666D01*
X163602247Y-85764666D02*
X163792723Y-85812285D01*
X163792723Y-85812285D02*
X163887961Y-85859904D01*
X163887961Y-85859904D02*
X163983200Y-85955142D01*
X163983200Y-85955142D02*
X164030819Y-86097999D01*
X164030819Y-86097999D02*
X164030819Y-86336094D01*
X163126057Y-85383713D02*
X163078438Y-85336094D01*
X163078438Y-85336094D02*
X163030819Y-85240856D01*
X163030819Y-85240856D02*
X163030819Y-85002761D01*
X163030819Y-85002761D02*
X163078438Y-84907523D01*
X163078438Y-84907523D02*
X163126057Y-84859904D01*
X163126057Y-84859904D02*
X163221295Y-84812285D01*
X163221295Y-84812285D02*
X163316533Y-84812285D01*
X163316533Y-84812285D02*
X163459390Y-84859904D01*
X163459390Y-84859904D02*
X164030819Y-85431332D01*
X164030819Y-85431332D02*
X164030819Y-84812285D01*
X144137142Y-128121580D02*
X144089523Y-128169200D01*
X144089523Y-128169200D02*
X143946666Y-128216819D01*
X143946666Y-128216819D02*
X143851428Y-128216819D01*
X143851428Y-128216819D02*
X143708571Y-128169200D01*
X143708571Y-128169200D02*
X143613333Y-128073961D01*
X143613333Y-128073961D02*
X143565714Y-127978723D01*
X143565714Y-127978723D02*
X143518095Y-127788247D01*
X143518095Y-127788247D02*
X143518095Y-127645390D01*
X143518095Y-127645390D02*
X143565714Y-127454914D01*
X143565714Y-127454914D02*
X143613333Y-127359676D01*
X143613333Y-127359676D02*
X143708571Y-127264438D01*
X143708571Y-127264438D02*
X143851428Y-127216819D01*
X143851428Y-127216819D02*
X143946666Y-127216819D01*
X143946666Y-127216819D02*
X144089523Y-127264438D01*
X144089523Y-127264438D02*
X144137142Y-127312057D01*
X145089523Y-128216819D02*
X144518095Y-128216819D01*
X144803809Y-128216819D02*
X144803809Y-127216819D01*
X144803809Y-127216819D02*
X144708571Y-127359676D01*
X144708571Y-127359676D02*
X144613333Y-127454914D01*
X144613333Y-127454914D02*
X144518095Y-127502533D01*
X145470476Y-127312057D02*
X145518095Y-127264438D01*
X145518095Y-127264438D02*
X145613333Y-127216819D01*
X145613333Y-127216819D02*
X145851428Y-127216819D01*
X145851428Y-127216819D02*
X145946666Y-127264438D01*
X145946666Y-127264438D02*
X145994285Y-127312057D01*
X145994285Y-127312057D02*
X146041904Y-127407295D01*
X146041904Y-127407295D02*
X146041904Y-127502533D01*
X146041904Y-127502533D02*
X145994285Y-127645390D01*
X145994285Y-127645390D02*
X145422857Y-128216819D01*
X145422857Y-128216819D02*
X146041904Y-128216819D01*
X161631333Y-128216819D02*
X161155143Y-128216819D01*
X161155143Y-128216819D02*
X161155143Y-127216819D01*
X161917048Y-127312057D02*
X161964667Y-127264438D01*
X161964667Y-127264438D02*
X162059905Y-127216819D01*
X162059905Y-127216819D02*
X162298000Y-127216819D01*
X162298000Y-127216819D02*
X162393238Y-127264438D01*
X162393238Y-127264438D02*
X162440857Y-127312057D01*
X162440857Y-127312057D02*
X162488476Y-127407295D01*
X162488476Y-127407295D02*
X162488476Y-127502533D01*
X162488476Y-127502533D02*
X162440857Y-127645390D01*
X162440857Y-127645390D02*
X161869429Y-128216819D01*
X161869429Y-128216819D02*
X162488476Y-128216819D01*
X145661142Y-134566819D02*
X145327809Y-134090628D01*
X145089714Y-134566819D02*
X145089714Y-133566819D01*
X145089714Y-133566819D02*
X145470666Y-133566819D01*
X145470666Y-133566819D02*
X145565904Y-133614438D01*
X145565904Y-133614438D02*
X145613523Y-133662057D01*
X145613523Y-133662057D02*
X145661142Y-133757295D01*
X145661142Y-133757295D02*
X145661142Y-133900152D01*
X145661142Y-133900152D02*
X145613523Y-133995390D01*
X145613523Y-133995390D02*
X145565904Y-134043009D01*
X145565904Y-134043009D02*
X145470666Y-134090628D01*
X145470666Y-134090628D02*
X145089714Y-134090628D01*
X146042095Y-133662057D02*
X146089714Y-133614438D01*
X146089714Y-133614438D02*
X146184952Y-133566819D01*
X146184952Y-133566819D02*
X146423047Y-133566819D01*
X146423047Y-133566819D02*
X146518285Y-133614438D01*
X146518285Y-133614438D02*
X146565904Y-133662057D01*
X146565904Y-133662057D02*
X146613523Y-133757295D01*
X146613523Y-133757295D02*
X146613523Y-133852533D01*
X146613523Y-133852533D02*
X146565904Y-133995390D01*
X146565904Y-133995390D02*
X145994476Y-134566819D01*
X145994476Y-134566819D02*
X146613523Y-134566819D01*
X146946857Y-133566819D02*
X147565904Y-133566819D01*
X147565904Y-133566819D02*
X147232571Y-133947771D01*
X147232571Y-133947771D02*
X147375428Y-133947771D01*
X147375428Y-133947771D02*
X147470666Y-133995390D01*
X147470666Y-133995390D02*
X147518285Y-134043009D01*
X147518285Y-134043009D02*
X147565904Y-134138247D01*
X147565904Y-134138247D02*
X147565904Y-134376342D01*
X147565904Y-134376342D02*
X147518285Y-134471580D01*
X147518285Y-134471580D02*
X147470666Y-134519200D01*
X147470666Y-134519200D02*
X147375428Y-134566819D01*
X147375428Y-134566819D02*
X147089714Y-134566819D01*
X147089714Y-134566819D02*
X146994476Y-134519200D01*
X146994476Y-134519200D02*
X146946857Y-134471580D01*
X159091333Y-80464819D02*
X158758000Y-79988628D01*
X158519905Y-80464819D02*
X158519905Y-79464819D01*
X158519905Y-79464819D02*
X158900857Y-79464819D01*
X158900857Y-79464819D02*
X158996095Y-79512438D01*
X158996095Y-79512438D02*
X159043714Y-79560057D01*
X159043714Y-79560057D02*
X159091333Y-79655295D01*
X159091333Y-79655295D02*
X159091333Y-79798152D01*
X159091333Y-79798152D02*
X159043714Y-79893390D01*
X159043714Y-79893390D02*
X158996095Y-79941009D01*
X158996095Y-79941009D02*
X158900857Y-79988628D01*
X158900857Y-79988628D02*
X158519905Y-79988628D01*
X159424667Y-79464819D02*
X160091333Y-79464819D01*
X160091333Y-79464819D02*
X159662762Y-80464819D01*
X159123142Y-86306819D02*
X158789809Y-85830628D01*
X158551714Y-86306819D02*
X158551714Y-85306819D01*
X158551714Y-85306819D02*
X158932666Y-85306819D01*
X158932666Y-85306819D02*
X159027904Y-85354438D01*
X159027904Y-85354438D02*
X159075523Y-85402057D01*
X159075523Y-85402057D02*
X159123142Y-85497295D01*
X159123142Y-85497295D02*
X159123142Y-85640152D01*
X159123142Y-85640152D02*
X159075523Y-85735390D01*
X159075523Y-85735390D02*
X159027904Y-85783009D01*
X159027904Y-85783009D02*
X158932666Y-85830628D01*
X158932666Y-85830628D02*
X158551714Y-85830628D01*
X160075523Y-86306819D02*
X159504095Y-86306819D01*
X159789809Y-86306819D02*
X159789809Y-85306819D01*
X159789809Y-85306819D02*
X159694571Y-85449676D01*
X159694571Y-85449676D02*
X159599333Y-85544914D01*
X159599333Y-85544914D02*
X159504095Y-85592533D01*
X160456476Y-85402057D02*
X160504095Y-85354438D01*
X160504095Y-85354438D02*
X160599333Y-85306819D01*
X160599333Y-85306819D02*
X160837428Y-85306819D01*
X160837428Y-85306819D02*
X160932666Y-85354438D01*
X160932666Y-85354438D02*
X160980285Y-85402057D01*
X160980285Y-85402057D02*
X161027904Y-85497295D01*
X161027904Y-85497295D02*
X161027904Y-85592533D01*
X161027904Y-85592533D02*
X160980285Y-85735390D01*
X160980285Y-85735390D02*
X160408857Y-86306819D01*
X160408857Y-86306819D02*
X161027904Y-86306819D01*
X156680819Y-105965523D02*
X157680819Y-105298857D01*
X156680819Y-105298857D02*
X157680819Y-105965523D01*
X157680819Y-104394095D02*
X157680819Y-104965523D01*
X157680819Y-104679809D02*
X156680819Y-104679809D01*
X156680819Y-104679809D02*
X156823676Y-104775047D01*
X156823676Y-104775047D02*
X156918914Y-104870285D01*
X156918914Y-104870285D02*
X156966533Y-104965523D01*
X135824933Y-132797219D02*
X135348743Y-132797219D01*
X135348743Y-132797219D02*
X135348743Y-131797219D01*
X136682076Y-132797219D02*
X136110648Y-132797219D01*
X136396362Y-132797219D02*
X136396362Y-131797219D01*
X136396362Y-131797219D02*
X136301124Y-131940076D01*
X136301124Y-131940076D02*
X136205886Y-132035314D01*
X136205886Y-132035314D02*
X136110648Y-132082933D01*
X139138819Y-85066094D02*
X138138819Y-85066094D01*
X138138819Y-85066094D02*
X138138819Y-84827999D01*
X138138819Y-84827999D02*
X138186438Y-84685142D01*
X138186438Y-84685142D02*
X138281676Y-84589904D01*
X138281676Y-84589904D02*
X138376914Y-84542285D01*
X138376914Y-84542285D02*
X138567390Y-84494666D01*
X138567390Y-84494666D02*
X138710247Y-84494666D01*
X138710247Y-84494666D02*
X138900723Y-84542285D01*
X138900723Y-84542285D02*
X138995961Y-84589904D01*
X138995961Y-84589904D02*
X139091200Y-84685142D01*
X139091200Y-84685142D02*
X139138819Y-84827999D01*
X139138819Y-84827999D02*
X139138819Y-85066094D01*
X139138819Y-83542285D02*
X139138819Y-84113713D01*
X139138819Y-83827999D02*
X138138819Y-83827999D01*
X138138819Y-83827999D02*
X138281676Y-83923237D01*
X138281676Y-83923237D02*
X138376914Y-84018475D01*
X138376914Y-84018475D02*
X138424533Y-84113713D01*
X150963333Y-92656819D02*
X150630000Y-92180628D01*
X150391905Y-92656819D02*
X150391905Y-91656819D01*
X150391905Y-91656819D02*
X150772857Y-91656819D01*
X150772857Y-91656819D02*
X150868095Y-91704438D01*
X150868095Y-91704438D02*
X150915714Y-91752057D01*
X150915714Y-91752057D02*
X150963333Y-91847295D01*
X150963333Y-91847295D02*
X150963333Y-91990152D01*
X150963333Y-91990152D02*
X150915714Y-92085390D01*
X150915714Y-92085390D02*
X150868095Y-92133009D01*
X150868095Y-92133009D02*
X150772857Y-92180628D01*
X150772857Y-92180628D02*
X150391905Y-92180628D01*
X151820476Y-91990152D02*
X151820476Y-92656819D01*
X151582381Y-91609200D02*
X151344286Y-92323485D01*
X151344286Y-92323485D02*
X151963333Y-92323485D01*
X153170095Y-117564819D02*
X153741523Y-117564819D01*
X153455809Y-118564819D02*
X153455809Y-117564819D01*
X154074857Y-118564819D02*
X154074857Y-117564819D01*
X154074857Y-117564819D02*
X154455809Y-117564819D01*
X154455809Y-117564819D02*
X154551047Y-117612438D01*
X154551047Y-117612438D02*
X154598666Y-117660057D01*
X154598666Y-117660057D02*
X154646285Y-117755295D01*
X154646285Y-117755295D02*
X154646285Y-117898152D01*
X154646285Y-117898152D02*
X154598666Y-117993390D01*
X154598666Y-117993390D02*
X154551047Y-118041009D01*
X154551047Y-118041009D02*
X154455809Y-118088628D01*
X154455809Y-118088628D02*
X154074857Y-118088628D01*
X155551047Y-117564819D02*
X155074857Y-117564819D01*
X155074857Y-117564819D02*
X155027238Y-118041009D01*
X155027238Y-118041009D02*
X155074857Y-117993390D01*
X155074857Y-117993390D02*
X155170095Y-117945771D01*
X155170095Y-117945771D02*
X155408190Y-117945771D01*
X155408190Y-117945771D02*
X155503428Y-117993390D01*
X155503428Y-117993390D02*
X155551047Y-118041009D01*
X155551047Y-118041009D02*
X155598666Y-118136247D01*
X155598666Y-118136247D02*
X155598666Y-118374342D01*
X155598666Y-118374342D02*
X155551047Y-118469580D01*
X155551047Y-118469580D02*
X155503428Y-118517200D01*
X155503428Y-118517200D02*
X155408190Y-118564819D01*
X155408190Y-118564819D02*
X155170095Y-118564819D01*
X155170095Y-118564819D02*
X155074857Y-118517200D01*
X155074857Y-118517200D02*
X155027238Y-118469580D01*
X159091333Y-82750819D02*
X158758000Y-82274628D01*
X158519905Y-82750819D02*
X158519905Y-81750819D01*
X158519905Y-81750819D02*
X158900857Y-81750819D01*
X158900857Y-81750819D02*
X158996095Y-81798438D01*
X158996095Y-81798438D02*
X159043714Y-81846057D01*
X159043714Y-81846057D02*
X159091333Y-81941295D01*
X159091333Y-81941295D02*
X159091333Y-82084152D01*
X159091333Y-82084152D02*
X159043714Y-82179390D01*
X159043714Y-82179390D02*
X158996095Y-82227009D01*
X158996095Y-82227009D02*
X158900857Y-82274628D01*
X158900857Y-82274628D02*
X158519905Y-82274628D01*
X159662762Y-82179390D02*
X159567524Y-82131771D01*
X159567524Y-82131771D02*
X159519905Y-82084152D01*
X159519905Y-82084152D02*
X159472286Y-81988914D01*
X159472286Y-81988914D02*
X159472286Y-81941295D01*
X159472286Y-81941295D02*
X159519905Y-81846057D01*
X159519905Y-81846057D02*
X159567524Y-81798438D01*
X159567524Y-81798438D02*
X159662762Y-81750819D01*
X159662762Y-81750819D02*
X159853238Y-81750819D01*
X159853238Y-81750819D02*
X159948476Y-81798438D01*
X159948476Y-81798438D02*
X159996095Y-81846057D01*
X159996095Y-81846057D02*
X160043714Y-81941295D01*
X160043714Y-81941295D02*
X160043714Y-81988914D01*
X160043714Y-81988914D02*
X159996095Y-82084152D01*
X159996095Y-82084152D02*
X159948476Y-82131771D01*
X159948476Y-82131771D02*
X159853238Y-82179390D01*
X159853238Y-82179390D02*
X159662762Y-82179390D01*
X159662762Y-82179390D02*
X159567524Y-82227009D01*
X159567524Y-82227009D02*
X159519905Y-82274628D01*
X159519905Y-82274628D02*
X159472286Y-82369866D01*
X159472286Y-82369866D02*
X159472286Y-82560342D01*
X159472286Y-82560342D02*
X159519905Y-82655580D01*
X159519905Y-82655580D02*
X159567524Y-82703200D01*
X159567524Y-82703200D02*
X159662762Y-82750819D01*
X159662762Y-82750819D02*
X159853238Y-82750819D01*
X159853238Y-82750819D02*
X159948476Y-82703200D01*
X159948476Y-82703200D02*
X159996095Y-82655580D01*
X159996095Y-82655580D02*
X160043714Y-82560342D01*
X160043714Y-82560342D02*
X160043714Y-82369866D01*
X160043714Y-82369866D02*
X159996095Y-82274628D01*
X159996095Y-82274628D02*
X159948476Y-82227009D01*
X159948476Y-82227009D02*
X159853238Y-82179390D01*
X163030819Y-81017904D02*
X163030819Y-80446476D01*
X164030819Y-80732190D02*
X163030819Y-80732190D01*
X164030819Y-80113142D02*
X163030819Y-80113142D01*
X163030819Y-80113142D02*
X163030819Y-79732190D01*
X163030819Y-79732190D02*
X163078438Y-79636952D01*
X163078438Y-79636952D02*
X163126057Y-79589333D01*
X163126057Y-79589333D02*
X163221295Y-79541714D01*
X163221295Y-79541714D02*
X163364152Y-79541714D01*
X163364152Y-79541714D02*
X163459390Y-79589333D01*
X163459390Y-79589333D02*
X163507009Y-79636952D01*
X163507009Y-79636952D02*
X163554628Y-79732190D01*
X163554628Y-79732190D02*
X163554628Y-80113142D01*
X164030819Y-78589333D02*
X164030819Y-79160761D01*
X164030819Y-78875047D02*
X163030819Y-78875047D01*
X163030819Y-78875047D02*
X163173676Y-78970285D01*
X163173676Y-78970285D02*
X163268914Y-79065523D01*
X163268914Y-79065523D02*
X163316533Y-79160761D01*
X135723333Y-126343580D02*
X135675714Y-126391200D01*
X135675714Y-126391200D02*
X135532857Y-126438819D01*
X135532857Y-126438819D02*
X135437619Y-126438819D01*
X135437619Y-126438819D02*
X135294762Y-126391200D01*
X135294762Y-126391200D02*
X135199524Y-126295961D01*
X135199524Y-126295961D02*
X135151905Y-126200723D01*
X135151905Y-126200723D02*
X135104286Y-126010247D01*
X135104286Y-126010247D02*
X135104286Y-125867390D01*
X135104286Y-125867390D02*
X135151905Y-125676914D01*
X135151905Y-125676914D02*
X135199524Y-125581676D01*
X135199524Y-125581676D02*
X135294762Y-125486438D01*
X135294762Y-125486438D02*
X135437619Y-125438819D01*
X135437619Y-125438819D02*
X135532857Y-125438819D01*
X135532857Y-125438819D02*
X135675714Y-125486438D01*
X135675714Y-125486438D02*
X135723333Y-125534057D01*
X136056667Y-125438819D02*
X136675714Y-125438819D01*
X136675714Y-125438819D02*
X136342381Y-125819771D01*
X136342381Y-125819771D02*
X136485238Y-125819771D01*
X136485238Y-125819771D02*
X136580476Y-125867390D01*
X136580476Y-125867390D02*
X136628095Y-125915009D01*
X136628095Y-125915009D02*
X136675714Y-126010247D01*
X136675714Y-126010247D02*
X136675714Y-126248342D01*
X136675714Y-126248342D02*
X136628095Y-126343580D01*
X136628095Y-126343580D02*
X136580476Y-126391200D01*
X136580476Y-126391200D02*
X136485238Y-126438819D01*
X136485238Y-126438819D02*
X136199524Y-126438819D01*
X136199524Y-126438819D02*
X136104286Y-126391200D01*
X136104286Y-126391200D02*
X136056667Y-126343580D01*
X142776905Y-111960819D02*
X142776905Y-110960819D01*
X142776905Y-110960819D02*
X143015000Y-110960819D01*
X143015000Y-110960819D02*
X143157857Y-111008438D01*
X143157857Y-111008438D02*
X143253095Y-111103676D01*
X143253095Y-111103676D02*
X143300714Y-111198914D01*
X143300714Y-111198914D02*
X143348333Y-111389390D01*
X143348333Y-111389390D02*
X143348333Y-111532247D01*
X143348333Y-111532247D02*
X143300714Y-111722723D01*
X143300714Y-111722723D02*
X143253095Y-111817961D01*
X143253095Y-111817961D02*
X143157857Y-111913200D01*
X143157857Y-111913200D02*
X143015000Y-111960819D01*
X143015000Y-111960819D02*
X142776905Y-111960819D01*
X144205476Y-111294152D02*
X144205476Y-111960819D01*
X143967381Y-110913200D02*
X143729286Y-111627485D01*
X143729286Y-111627485D02*
X144348333Y-111627485D01*
X154283580Y-128690666D02*
X154331200Y-128738285D01*
X154331200Y-128738285D02*
X154378819Y-128881142D01*
X154378819Y-128881142D02*
X154378819Y-128976380D01*
X154378819Y-128976380D02*
X154331200Y-129119237D01*
X154331200Y-129119237D02*
X154235961Y-129214475D01*
X154235961Y-129214475D02*
X154140723Y-129262094D01*
X154140723Y-129262094D02*
X153950247Y-129309713D01*
X153950247Y-129309713D02*
X153807390Y-129309713D01*
X153807390Y-129309713D02*
X153616914Y-129262094D01*
X153616914Y-129262094D02*
X153521676Y-129214475D01*
X153521676Y-129214475D02*
X153426438Y-129119237D01*
X153426438Y-129119237D02*
X153378819Y-128976380D01*
X153378819Y-128976380D02*
X153378819Y-128881142D01*
X153378819Y-128881142D02*
X153426438Y-128738285D01*
X153426438Y-128738285D02*
X153474057Y-128690666D01*
X153378819Y-128357332D02*
X153378819Y-127690666D01*
X153378819Y-127690666D02*
X154378819Y-128119237D01*
X134566819Y-118244857D02*
X134090628Y-118578190D01*
X134566819Y-118816285D02*
X133566819Y-118816285D01*
X133566819Y-118816285D02*
X133566819Y-118435333D01*
X133566819Y-118435333D02*
X133614438Y-118340095D01*
X133614438Y-118340095D02*
X133662057Y-118292476D01*
X133662057Y-118292476D02*
X133757295Y-118244857D01*
X133757295Y-118244857D02*
X133900152Y-118244857D01*
X133900152Y-118244857D02*
X133995390Y-118292476D01*
X133995390Y-118292476D02*
X134043009Y-118340095D01*
X134043009Y-118340095D02*
X134090628Y-118435333D01*
X134090628Y-118435333D02*
X134090628Y-118816285D01*
X134566819Y-117292476D02*
X134566819Y-117863904D01*
X134566819Y-117578190D02*
X133566819Y-117578190D01*
X133566819Y-117578190D02*
X133709676Y-117673428D01*
X133709676Y-117673428D02*
X133804914Y-117768666D01*
X133804914Y-117768666D02*
X133852533Y-117863904D01*
X133566819Y-116959142D02*
X133566819Y-116340095D01*
X133566819Y-116340095D02*
X133947771Y-116673428D01*
X133947771Y-116673428D02*
X133947771Y-116530571D01*
X133947771Y-116530571D02*
X133995390Y-116435333D01*
X133995390Y-116435333D02*
X134043009Y-116387714D01*
X134043009Y-116387714D02*
X134138247Y-116340095D01*
X134138247Y-116340095D02*
X134376342Y-116340095D01*
X134376342Y-116340095D02*
X134471580Y-116387714D01*
X134471580Y-116387714D02*
X134519200Y-116435333D01*
X134519200Y-116435333D02*
X134566819Y-116530571D01*
X134566819Y-116530571D02*
X134566819Y-116816285D01*
X134566819Y-116816285D02*
X134519200Y-116911523D01*
X134519200Y-116911523D02*
X134471580Y-116959142D01*
X157059333Y-91640819D02*
X156726000Y-91164628D01*
X156487905Y-91640819D02*
X156487905Y-90640819D01*
X156487905Y-90640819D02*
X156868857Y-90640819D01*
X156868857Y-90640819D02*
X156964095Y-90688438D01*
X156964095Y-90688438D02*
X157011714Y-90736057D01*
X157011714Y-90736057D02*
X157059333Y-90831295D01*
X157059333Y-90831295D02*
X157059333Y-90974152D01*
X157059333Y-90974152D02*
X157011714Y-91069390D01*
X157011714Y-91069390D02*
X156964095Y-91117009D01*
X156964095Y-91117009D02*
X156868857Y-91164628D01*
X156868857Y-91164628D02*
X156487905Y-91164628D01*
X157392667Y-90640819D02*
X158011714Y-90640819D01*
X158011714Y-90640819D02*
X157678381Y-91021771D01*
X157678381Y-91021771D02*
X157821238Y-91021771D01*
X157821238Y-91021771D02*
X157916476Y-91069390D01*
X157916476Y-91069390D02*
X157964095Y-91117009D01*
X157964095Y-91117009D02*
X158011714Y-91212247D01*
X158011714Y-91212247D02*
X158011714Y-91450342D01*
X158011714Y-91450342D02*
X157964095Y-91545580D01*
X157964095Y-91545580D02*
X157916476Y-91593200D01*
X157916476Y-91593200D02*
X157821238Y-91640819D01*
X157821238Y-91640819D02*
X157535524Y-91640819D01*
X157535524Y-91640819D02*
X157440286Y-91593200D01*
X157440286Y-91593200D02*
X157392667Y-91545580D01*
X147012819Y-82970666D02*
X146536628Y-83303999D01*
X147012819Y-83542094D02*
X146012819Y-83542094D01*
X146012819Y-83542094D02*
X146012819Y-83161142D01*
X146012819Y-83161142D02*
X146060438Y-83065904D01*
X146060438Y-83065904D02*
X146108057Y-83018285D01*
X146108057Y-83018285D02*
X146203295Y-82970666D01*
X146203295Y-82970666D02*
X146346152Y-82970666D01*
X146346152Y-82970666D02*
X146441390Y-83018285D01*
X146441390Y-83018285D02*
X146489009Y-83065904D01*
X146489009Y-83065904D02*
X146536628Y-83161142D01*
X146536628Y-83161142D02*
X146536628Y-83542094D01*
X147012819Y-82494475D02*
X147012819Y-82303999D01*
X147012819Y-82303999D02*
X146965200Y-82208761D01*
X146965200Y-82208761D02*
X146917580Y-82161142D01*
X146917580Y-82161142D02*
X146774723Y-82065904D01*
X146774723Y-82065904D02*
X146584247Y-82018285D01*
X146584247Y-82018285D02*
X146203295Y-82018285D01*
X146203295Y-82018285D02*
X146108057Y-82065904D01*
X146108057Y-82065904D02*
X146060438Y-82113523D01*
X146060438Y-82113523D02*
X146012819Y-82208761D01*
X146012819Y-82208761D02*
X146012819Y-82399237D01*
X146012819Y-82399237D02*
X146060438Y-82494475D01*
X146060438Y-82494475D02*
X146108057Y-82542094D01*
X146108057Y-82542094D02*
X146203295Y-82589713D01*
X146203295Y-82589713D02*
X146441390Y-82589713D01*
X146441390Y-82589713D02*
X146536628Y-82542094D01*
X146536628Y-82542094D02*
X146584247Y-82494475D01*
X146584247Y-82494475D02*
X146631866Y-82399237D01*
X146631866Y-82399237D02*
X146631866Y-82208761D01*
X146631866Y-82208761D02*
X146584247Y-82113523D01*
X146584247Y-82113523D02*
X146536628Y-82065904D01*
X146536628Y-82065904D02*
X146441390Y-82018285D01*
X157585580Y-108592857D02*
X157633200Y-108640476D01*
X157633200Y-108640476D02*
X157680819Y-108783333D01*
X157680819Y-108783333D02*
X157680819Y-108878571D01*
X157680819Y-108878571D02*
X157633200Y-109021428D01*
X157633200Y-109021428D02*
X157537961Y-109116666D01*
X157537961Y-109116666D02*
X157442723Y-109164285D01*
X157442723Y-109164285D02*
X157252247Y-109211904D01*
X157252247Y-109211904D02*
X157109390Y-109211904D01*
X157109390Y-109211904D02*
X156918914Y-109164285D01*
X156918914Y-109164285D02*
X156823676Y-109116666D01*
X156823676Y-109116666D02*
X156728438Y-109021428D01*
X156728438Y-109021428D02*
X156680819Y-108878571D01*
X156680819Y-108878571D02*
X156680819Y-108783333D01*
X156680819Y-108783333D02*
X156728438Y-108640476D01*
X156728438Y-108640476D02*
X156776057Y-108592857D01*
X157680819Y-107640476D02*
X157680819Y-108211904D01*
X157680819Y-107926190D02*
X156680819Y-107926190D01*
X156680819Y-107926190D02*
X156823676Y-108021428D01*
X156823676Y-108021428D02*
X156918914Y-108116666D01*
X156918914Y-108116666D02*
X156966533Y-108211904D01*
X157680819Y-106688095D02*
X157680819Y-107259523D01*
X157680819Y-106973809D02*
X156680819Y-106973809D01*
X156680819Y-106973809D02*
X156823676Y-107069047D01*
X156823676Y-107069047D02*
X156918914Y-107164285D01*
X156918914Y-107164285D02*
X156966533Y-107259523D01*
X157488095Y-127470819D02*
X158059523Y-127470819D01*
X157773809Y-128470819D02*
X157773809Y-127470819D01*
X158392857Y-128470819D02*
X158392857Y-127470819D01*
X158392857Y-127470819D02*
X158773809Y-127470819D01*
X158773809Y-127470819D02*
X158869047Y-127518438D01*
X158869047Y-127518438D02*
X158916666Y-127566057D01*
X158916666Y-127566057D02*
X158964285Y-127661295D01*
X158964285Y-127661295D02*
X158964285Y-127804152D01*
X158964285Y-127804152D02*
X158916666Y-127899390D01*
X158916666Y-127899390D02*
X158869047Y-127947009D01*
X158869047Y-127947009D02*
X158773809Y-127994628D01*
X158773809Y-127994628D02*
X158392857Y-127994628D01*
X159297619Y-127470819D02*
X159916666Y-127470819D01*
X159916666Y-127470819D02*
X159583333Y-127851771D01*
X159583333Y-127851771D02*
X159726190Y-127851771D01*
X159726190Y-127851771D02*
X159821428Y-127899390D01*
X159821428Y-127899390D02*
X159869047Y-127947009D01*
X159869047Y-127947009D02*
X159916666Y-128042247D01*
X159916666Y-128042247D02*
X159916666Y-128280342D01*
X159916666Y-128280342D02*
X159869047Y-128375580D01*
X159869047Y-128375580D02*
X159821428Y-128423200D01*
X159821428Y-128423200D02*
X159726190Y-128470819D01*
X159726190Y-128470819D02*
X159440476Y-128470819D01*
X159440476Y-128470819D02*
X159345238Y-128423200D01*
X159345238Y-128423200D02*
X159297619Y-128375580D01*
X151838819Y-128658857D02*
X151362628Y-128992190D01*
X151838819Y-129230285D02*
X150838819Y-129230285D01*
X150838819Y-129230285D02*
X150838819Y-128849333D01*
X150838819Y-128849333D02*
X150886438Y-128754095D01*
X150886438Y-128754095D02*
X150934057Y-128706476D01*
X150934057Y-128706476D02*
X151029295Y-128658857D01*
X151029295Y-128658857D02*
X151172152Y-128658857D01*
X151172152Y-128658857D02*
X151267390Y-128706476D01*
X151267390Y-128706476D02*
X151315009Y-128754095D01*
X151315009Y-128754095D02*
X151362628Y-128849333D01*
X151362628Y-128849333D02*
X151362628Y-129230285D01*
X150934057Y-128277904D02*
X150886438Y-128230285D01*
X150886438Y-128230285D02*
X150838819Y-128135047D01*
X150838819Y-128135047D02*
X150838819Y-127896952D01*
X150838819Y-127896952D02*
X150886438Y-127801714D01*
X150886438Y-127801714D02*
X150934057Y-127754095D01*
X150934057Y-127754095D02*
X151029295Y-127706476D01*
X151029295Y-127706476D02*
X151124533Y-127706476D01*
X151124533Y-127706476D02*
X151267390Y-127754095D01*
X151267390Y-127754095D02*
X151838819Y-128325523D01*
X151838819Y-128325523D02*
X151838819Y-127706476D01*
X150934057Y-127325523D02*
X150886438Y-127277904D01*
X150886438Y-127277904D02*
X150838819Y-127182666D01*
X150838819Y-127182666D02*
X150838819Y-126944571D01*
X150838819Y-126944571D02*
X150886438Y-126849333D01*
X150886438Y-126849333D02*
X150934057Y-126801714D01*
X150934057Y-126801714D02*
X151029295Y-126754095D01*
X151029295Y-126754095D02*
X151124533Y-126754095D01*
X151124533Y-126754095D02*
X151267390Y-126801714D01*
X151267390Y-126801714D02*
X151838819Y-127373142D01*
X151838819Y-127373142D02*
X151838819Y-126754095D01*
X154474057Y-80359238D02*
X154426438Y-80454476D01*
X154426438Y-80454476D02*
X154331200Y-80549714D01*
X154331200Y-80549714D02*
X154188342Y-80692571D01*
X154188342Y-80692571D02*
X154140723Y-80787809D01*
X154140723Y-80787809D02*
X154140723Y-80883047D01*
X154378819Y-80835428D02*
X154331200Y-80930666D01*
X154331200Y-80930666D02*
X154235961Y-81025904D01*
X154235961Y-81025904D02*
X154045485Y-81073523D01*
X154045485Y-81073523D02*
X153712152Y-81073523D01*
X153712152Y-81073523D02*
X153521676Y-81025904D01*
X153521676Y-81025904D02*
X153426438Y-80930666D01*
X153426438Y-80930666D02*
X153378819Y-80835428D01*
X153378819Y-80835428D02*
X153378819Y-80644952D01*
X153378819Y-80644952D02*
X153426438Y-80549714D01*
X153426438Y-80549714D02*
X153521676Y-80454476D01*
X153521676Y-80454476D02*
X153712152Y-80406857D01*
X153712152Y-80406857D02*
X154045485Y-80406857D01*
X154045485Y-80406857D02*
X154235961Y-80454476D01*
X154235961Y-80454476D02*
X154331200Y-80549714D01*
X154331200Y-80549714D02*
X154378819Y-80644952D01*
X154378819Y-80644952D02*
X154378819Y-80835428D01*
X153378819Y-80073523D02*
X153378819Y-79454476D01*
X153378819Y-79454476D02*
X153759771Y-79787809D01*
X153759771Y-79787809D02*
X153759771Y-79644952D01*
X153759771Y-79644952D02*
X153807390Y-79549714D01*
X153807390Y-79549714D02*
X153855009Y-79502095D01*
X153855009Y-79502095D02*
X153950247Y-79454476D01*
X153950247Y-79454476D02*
X154188342Y-79454476D01*
X154188342Y-79454476D02*
X154283580Y-79502095D01*
X154283580Y-79502095D02*
X154331200Y-79549714D01*
X154331200Y-79549714D02*
X154378819Y-79644952D01*
X154378819Y-79644952D02*
X154378819Y-79930666D01*
X154378819Y-79930666D02*
X154331200Y-80025904D01*
X154331200Y-80025904D02*
X154283580Y-80073523D01*
X150709333Y-98498819D02*
X150376000Y-98022628D01*
X150137905Y-98498819D02*
X150137905Y-97498819D01*
X150137905Y-97498819D02*
X150518857Y-97498819D01*
X150518857Y-97498819D02*
X150614095Y-97546438D01*
X150614095Y-97546438D02*
X150661714Y-97594057D01*
X150661714Y-97594057D02*
X150709333Y-97689295D01*
X150709333Y-97689295D02*
X150709333Y-97832152D01*
X150709333Y-97832152D02*
X150661714Y-97927390D01*
X150661714Y-97927390D02*
X150614095Y-97975009D01*
X150614095Y-97975009D02*
X150518857Y-98022628D01*
X150518857Y-98022628D02*
X150137905Y-98022628D01*
X151566476Y-97498819D02*
X151376000Y-97498819D01*
X151376000Y-97498819D02*
X151280762Y-97546438D01*
X151280762Y-97546438D02*
X151233143Y-97594057D01*
X151233143Y-97594057D02*
X151137905Y-97736914D01*
X151137905Y-97736914D02*
X151090286Y-97927390D01*
X151090286Y-97927390D02*
X151090286Y-98308342D01*
X151090286Y-98308342D02*
X151137905Y-98403580D01*
X151137905Y-98403580D02*
X151185524Y-98451200D01*
X151185524Y-98451200D02*
X151280762Y-98498819D01*
X151280762Y-98498819D02*
X151471238Y-98498819D01*
X151471238Y-98498819D02*
X151566476Y-98451200D01*
X151566476Y-98451200D02*
X151614095Y-98403580D01*
X151614095Y-98403580D02*
X151661714Y-98308342D01*
X151661714Y-98308342D02*
X151661714Y-98070247D01*
X151661714Y-98070247D02*
X151614095Y-97975009D01*
X151614095Y-97975009D02*
X151566476Y-97927390D01*
X151566476Y-97927390D02*
X151471238Y-97879771D01*
X151471238Y-97879771D02*
X151280762Y-97879771D01*
X151280762Y-97879771D02*
X151185524Y-97927390D01*
X151185524Y-97927390D02*
X151137905Y-97975009D01*
X151137905Y-97975009D02*
X151090286Y-98070247D01*
X134725580Y-85224857D02*
X134773200Y-85272476D01*
X134773200Y-85272476D02*
X134820819Y-85415333D01*
X134820819Y-85415333D02*
X134820819Y-85510571D01*
X134820819Y-85510571D02*
X134773200Y-85653428D01*
X134773200Y-85653428D02*
X134677961Y-85748666D01*
X134677961Y-85748666D02*
X134582723Y-85796285D01*
X134582723Y-85796285D02*
X134392247Y-85843904D01*
X134392247Y-85843904D02*
X134249390Y-85843904D01*
X134249390Y-85843904D02*
X134058914Y-85796285D01*
X134058914Y-85796285D02*
X133963676Y-85748666D01*
X133963676Y-85748666D02*
X133868438Y-85653428D01*
X133868438Y-85653428D02*
X133820819Y-85510571D01*
X133820819Y-85510571D02*
X133820819Y-85415333D01*
X133820819Y-85415333D02*
X133868438Y-85272476D01*
X133868438Y-85272476D02*
X133916057Y-85224857D01*
X133916057Y-84843904D02*
X133868438Y-84796285D01*
X133868438Y-84796285D02*
X133820819Y-84701047D01*
X133820819Y-84701047D02*
X133820819Y-84462952D01*
X133820819Y-84462952D02*
X133868438Y-84367714D01*
X133868438Y-84367714D02*
X133916057Y-84320095D01*
X133916057Y-84320095D02*
X134011295Y-84272476D01*
X134011295Y-84272476D02*
X134106533Y-84272476D01*
X134106533Y-84272476D02*
X134249390Y-84320095D01*
X134249390Y-84320095D02*
X134820819Y-84891523D01*
X134820819Y-84891523D02*
X134820819Y-84272476D01*
X133820819Y-83653428D02*
X133820819Y-83558190D01*
X133820819Y-83558190D02*
X133868438Y-83462952D01*
X133868438Y-83462952D02*
X133916057Y-83415333D01*
X133916057Y-83415333D02*
X134011295Y-83367714D01*
X134011295Y-83367714D02*
X134201771Y-83320095D01*
X134201771Y-83320095D02*
X134439866Y-83320095D01*
X134439866Y-83320095D02*
X134630342Y-83367714D01*
X134630342Y-83367714D02*
X134725580Y-83415333D01*
X134725580Y-83415333D02*
X134773200Y-83462952D01*
X134773200Y-83462952D02*
X134820819Y-83558190D01*
X134820819Y-83558190D02*
X134820819Y-83653428D01*
X134820819Y-83653428D02*
X134773200Y-83748666D01*
X134773200Y-83748666D02*
X134725580Y-83796285D01*
X134725580Y-83796285D02*
X134630342Y-83843904D01*
X134630342Y-83843904D02*
X134439866Y-83891523D01*
X134439866Y-83891523D02*
X134201771Y-83891523D01*
X134201771Y-83891523D02*
X134011295Y-83843904D01*
X134011295Y-83843904D02*
X133916057Y-83796285D01*
X133916057Y-83796285D02*
X133868438Y-83748666D01*
X133868438Y-83748666D02*
X133820819Y-83653428D01*
X150233142Y-102721580D02*
X150185523Y-102769200D01*
X150185523Y-102769200D02*
X150042666Y-102816819D01*
X150042666Y-102816819D02*
X149947428Y-102816819D01*
X149947428Y-102816819D02*
X149804571Y-102769200D01*
X149804571Y-102769200D02*
X149709333Y-102673961D01*
X149709333Y-102673961D02*
X149661714Y-102578723D01*
X149661714Y-102578723D02*
X149614095Y-102388247D01*
X149614095Y-102388247D02*
X149614095Y-102245390D01*
X149614095Y-102245390D02*
X149661714Y-102054914D01*
X149661714Y-102054914D02*
X149709333Y-101959676D01*
X149709333Y-101959676D02*
X149804571Y-101864438D01*
X149804571Y-101864438D02*
X149947428Y-101816819D01*
X149947428Y-101816819D02*
X150042666Y-101816819D01*
X150042666Y-101816819D02*
X150185523Y-101864438D01*
X150185523Y-101864438D02*
X150233142Y-101912057D01*
X151185523Y-102816819D02*
X150614095Y-102816819D01*
X150899809Y-102816819D02*
X150899809Y-101816819D01*
X150899809Y-101816819D02*
X150804571Y-101959676D01*
X150804571Y-101959676D02*
X150709333Y-102054914D01*
X150709333Y-102054914D02*
X150614095Y-102102533D01*
X151756952Y-102245390D02*
X151661714Y-102197771D01*
X151661714Y-102197771D02*
X151614095Y-102150152D01*
X151614095Y-102150152D02*
X151566476Y-102054914D01*
X151566476Y-102054914D02*
X151566476Y-102007295D01*
X151566476Y-102007295D02*
X151614095Y-101912057D01*
X151614095Y-101912057D02*
X151661714Y-101864438D01*
X151661714Y-101864438D02*
X151756952Y-101816819D01*
X151756952Y-101816819D02*
X151947428Y-101816819D01*
X151947428Y-101816819D02*
X152042666Y-101864438D01*
X152042666Y-101864438D02*
X152090285Y-101912057D01*
X152090285Y-101912057D02*
X152137904Y-102007295D01*
X152137904Y-102007295D02*
X152137904Y-102054914D01*
X152137904Y-102054914D02*
X152090285Y-102150152D01*
X152090285Y-102150152D02*
X152042666Y-102197771D01*
X152042666Y-102197771D02*
X151947428Y-102245390D01*
X151947428Y-102245390D02*
X151756952Y-102245390D01*
X151756952Y-102245390D02*
X151661714Y-102293009D01*
X151661714Y-102293009D02*
X151614095Y-102340628D01*
X151614095Y-102340628D02*
X151566476Y-102435866D01*
X151566476Y-102435866D02*
X151566476Y-102626342D01*
X151566476Y-102626342D02*
X151614095Y-102721580D01*
X151614095Y-102721580D02*
X151661714Y-102769200D01*
X151661714Y-102769200D02*
X151756952Y-102816819D01*
X151756952Y-102816819D02*
X151947428Y-102816819D01*
X151947428Y-102816819D02*
X152042666Y-102769200D01*
X152042666Y-102769200D02*
X152090285Y-102721580D01*
X152090285Y-102721580D02*
X152137904Y-102626342D01*
X152137904Y-102626342D02*
X152137904Y-102435866D01*
X152137904Y-102435866D02*
X152090285Y-102340628D01*
X152090285Y-102340628D02*
X152042666Y-102293009D01*
X152042666Y-102293009D02*
X151947428Y-102245390D01*
X157522057Y-93313238D02*
X157474438Y-93408476D01*
X157474438Y-93408476D02*
X157379200Y-93503714D01*
X157379200Y-93503714D02*
X157236342Y-93646571D01*
X157236342Y-93646571D02*
X157188723Y-93741809D01*
X157188723Y-93741809D02*
X157188723Y-93837047D01*
X157426819Y-93789428D02*
X157379200Y-93884666D01*
X157379200Y-93884666D02*
X157283961Y-93979904D01*
X157283961Y-93979904D02*
X157093485Y-94027523D01*
X157093485Y-94027523D02*
X156760152Y-94027523D01*
X156760152Y-94027523D02*
X156569676Y-93979904D01*
X156569676Y-93979904D02*
X156474438Y-93884666D01*
X156474438Y-93884666D02*
X156426819Y-93789428D01*
X156426819Y-93789428D02*
X156426819Y-93598952D01*
X156426819Y-93598952D02*
X156474438Y-93503714D01*
X156474438Y-93503714D02*
X156569676Y-93408476D01*
X156569676Y-93408476D02*
X156760152Y-93360857D01*
X156760152Y-93360857D02*
X157093485Y-93360857D01*
X157093485Y-93360857D02*
X157283961Y-93408476D01*
X157283961Y-93408476D02*
X157379200Y-93503714D01*
X157379200Y-93503714D02*
X157426819Y-93598952D01*
X157426819Y-93598952D02*
X157426819Y-93789428D01*
X156522057Y-92979904D02*
X156474438Y-92932285D01*
X156474438Y-92932285D02*
X156426819Y-92837047D01*
X156426819Y-92837047D02*
X156426819Y-92598952D01*
X156426819Y-92598952D02*
X156474438Y-92503714D01*
X156474438Y-92503714D02*
X156522057Y-92456095D01*
X156522057Y-92456095D02*
X156617295Y-92408476D01*
X156617295Y-92408476D02*
X156712533Y-92408476D01*
X156712533Y-92408476D02*
X156855390Y-92456095D01*
X156855390Y-92456095D02*
X157426819Y-93027523D01*
X157426819Y-93027523D02*
X157426819Y-92408476D01*
X138041142Y-134217580D02*
X137993523Y-134265200D01*
X137993523Y-134265200D02*
X137850666Y-134312819D01*
X137850666Y-134312819D02*
X137755428Y-134312819D01*
X137755428Y-134312819D02*
X137612571Y-134265200D01*
X137612571Y-134265200D02*
X137517333Y-134169961D01*
X137517333Y-134169961D02*
X137469714Y-134074723D01*
X137469714Y-134074723D02*
X137422095Y-133884247D01*
X137422095Y-133884247D02*
X137422095Y-133741390D01*
X137422095Y-133741390D02*
X137469714Y-133550914D01*
X137469714Y-133550914D02*
X137517333Y-133455676D01*
X137517333Y-133455676D02*
X137612571Y-133360438D01*
X137612571Y-133360438D02*
X137755428Y-133312819D01*
X137755428Y-133312819D02*
X137850666Y-133312819D01*
X137850666Y-133312819D02*
X137993523Y-133360438D01*
X137993523Y-133360438D02*
X138041142Y-133408057D01*
X138993523Y-134312819D02*
X138422095Y-134312819D01*
X138707809Y-134312819D02*
X138707809Y-133312819D01*
X138707809Y-133312819D02*
X138612571Y-133455676D01*
X138612571Y-133455676D02*
X138517333Y-133550914D01*
X138517333Y-133550914D02*
X138422095Y-133598533D01*
X139326857Y-133312819D02*
X139993523Y-133312819D01*
X139993523Y-133312819D02*
X139564952Y-134312819D01*
X159091333Y-84687580D02*
X159043714Y-84735200D01*
X159043714Y-84735200D02*
X158900857Y-84782819D01*
X158900857Y-84782819D02*
X158805619Y-84782819D01*
X158805619Y-84782819D02*
X158662762Y-84735200D01*
X158662762Y-84735200D02*
X158567524Y-84639961D01*
X158567524Y-84639961D02*
X158519905Y-84544723D01*
X158519905Y-84544723D02*
X158472286Y-84354247D01*
X158472286Y-84354247D02*
X158472286Y-84211390D01*
X158472286Y-84211390D02*
X158519905Y-84020914D01*
X158519905Y-84020914D02*
X158567524Y-83925676D01*
X158567524Y-83925676D02*
X158662762Y-83830438D01*
X158662762Y-83830438D02*
X158805619Y-83782819D01*
X158805619Y-83782819D02*
X158900857Y-83782819D01*
X158900857Y-83782819D02*
X159043714Y-83830438D01*
X159043714Y-83830438D02*
X159091333Y-83878057D01*
X160043714Y-84782819D02*
X159472286Y-84782819D01*
X159758000Y-84782819D02*
X159758000Y-83782819D01*
X159758000Y-83782819D02*
X159662762Y-83925676D01*
X159662762Y-83925676D02*
X159567524Y-84020914D01*
X159567524Y-84020914D02*
X159472286Y-84068533D01*
X146312095Y-105880819D02*
X146883523Y-105880819D01*
X146597809Y-106880819D02*
X146597809Y-105880819D01*
X147216857Y-106880819D02*
X147216857Y-105880819D01*
X147216857Y-105880819D02*
X147597809Y-105880819D01*
X147597809Y-105880819D02*
X147693047Y-105928438D01*
X147693047Y-105928438D02*
X147740666Y-105976057D01*
X147740666Y-105976057D02*
X147788285Y-106071295D01*
X147788285Y-106071295D02*
X147788285Y-106214152D01*
X147788285Y-106214152D02*
X147740666Y-106309390D01*
X147740666Y-106309390D02*
X147693047Y-106357009D01*
X147693047Y-106357009D02*
X147597809Y-106404628D01*
X147597809Y-106404628D02*
X147216857Y-106404628D01*
X148645428Y-105880819D02*
X148454952Y-105880819D01*
X148454952Y-105880819D02*
X148359714Y-105928438D01*
X148359714Y-105928438D02*
X148312095Y-105976057D01*
X148312095Y-105976057D02*
X148216857Y-106118914D01*
X148216857Y-106118914D02*
X148169238Y-106309390D01*
X148169238Y-106309390D02*
X148169238Y-106690342D01*
X148169238Y-106690342D02*
X148216857Y-106785580D01*
X148216857Y-106785580D02*
X148264476Y-106833200D01*
X148264476Y-106833200D02*
X148359714Y-106880819D01*
X148359714Y-106880819D02*
X148550190Y-106880819D01*
X148550190Y-106880819D02*
X148645428Y-106833200D01*
X148645428Y-106833200D02*
X148693047Y-106785580D01*
X148693047Y-106785580D02*
X148740666Y-106690342D01*
X148740666Y-106690342D02*
X148740666Y-106452247D01*
X148740666Y-106452247D02*
X148693047Y-106357009D01*
X148693047Y-106357009D02*
X148645428Y-106309390D01*
X148645428Y-106309390D02*
X148550190Y-106261771D01*
X148550190Y-106261771D02*
X148359714Y-106261771D01*
X148359714Y-106261771D02*
X148264476Y-106309390D01*
X148264476Y-106309390D02*
X148216857Y-106357009D01*
X148216857Y-106357009D02*
X148169238Y-106452247D01*
X144123580Y-82970666D02*
X144171200Y-83018285D01*
X144171200Y-83018285D02*
X144218819Y-83161142D01*
X144218819Y-83161142D02*
X144218819Y-83256380D01*
X144218819Y-83256380D02*
X144171200Y-83399237D01*
X144171200Y-83399237D02*
X144075961Y-83494475D01*
X144075961Y-83494475D02*
X143980723Y-83542094D01*
X143980723Y-83542094D02*
X143790247Y-83589713D01*
X143790247Y-83589713D02*
X143647390Y-83589713D01*
X143647390Y-83589713D02*
X143456914Y-83542094D01*
X143456914Y-83542094D02*
X143361676Y-83494475D01*
X143361676Y-83494475D02*
X143266438Y-83399237D01*
X143266438Y-83399237D02*
X143218819Y-83256380D01*
X143218819Y-83256380D02*
X143218819Y-83161142D01*
X143218819Y-83161142D02*
X143266438Y-83018285D01*
X143266438Y-83018285D02*
X143314057Y-82970666D01*
X144218819Y-82494475D02*
X144218819Y-82303999D01*
X144218819Y-82303999D02*
X144171200Y-82208761D01*
X144171200Y-82208761D02*
X144123580Y-82161142D01*
X144123580Y-82161142D02*
X143980723Y-82065904D01*
X143980723Y-82065904D02*
X143790247Y-82018285D01*
X143790247Y-82018285D02*
X143409295Y-82018285D01*
X143409295Y-82018285D02*
X143314057Y-82065904D01*
X143314057Y-82065904D02*
X143266438Y-82113523D01*
X143266438Y-82113523D02*
X143218819Y-82208761D01*
X143218819Y-82208761D02*
X143218819Y-82399237D01*
X143218819Y-82399237D02*
X143266438Y-82494475D01*
X143266438Y-82494475D02*
X143314057Y-82542094D01*
X143314057Y-82542094D02*
X143409295Y-82589713D01*
X143409295Y-82589713D02*
X143647390Y-82589713D01*
X143647390Y-82589713D02*
X143742628Y-82542094D01*
X143742628Y-82542094D02*
X143790247Y-82494475D01*
X143790247Y-82494475D02*
X143837866Y-82399237D01*
X143837866Y-82399237D02*
X143837866Y-82208761D01*
X143837866Y-82208761D02*
X143790247Y-82113523D01*
X143790247Y-82113523D02*
X143742628Y-82065904D01*
X143742628Y-82065904D02*
X143647390Y-82018285D01*
X149203580Y-128658857D02*
X149251200Y-128706476D01*
X149251200Y-128706476D02*
X149298819Y-128849333D01*
X149298819Y-128849333D02*
X149298819Y-128944571D01*
X149298819Y-128944571D02*
X149251200Y-129087428D01*
X149251200Y-129087428D02*
X149155961Y-129182666D01*
X149155961Y-129182666D02*
X149060723Y-129230285D01*
X149060723Y-129230285D02*
X148870247Y-129277904D01*
X148870247Y-129277904D02*
X148727390Y-129277904D01*
X148727390Y-129277904D02*
X148536914Y-129230285D01*
X148536914Y-129230285D02*
X148441676Y-129182666D01*
X148441676Y-129182666D02*
X148346438Y-129087428D01*
X148346438Y-129087428D02*
X148298819Y-128944571D01*
X148298819Y-128944571D02*
X148298819Y-128849333D01*
X148298819Y-128849333D02*
X148346438Y-128706476D01*
X148346438Y-128706476D02*
X148394057Y-128658857D01*
X149298819Y-127706476D02*
X149298819Y-128277904D01*
X149298819Y-127992190D02*
X148298819Y-127992190D01*
X148298819Y-127992190D02*
X148441676Y-128087428D01*
X148441676Y-128087428D02*
X148536914Y-128182666D01*
X148536914Y-128182666D02*
X148584533Y-128277904D01*
X148298819Y-126849333D02*
X148298819Y-127039809D01*
X148298819Y-127039809D02*
X148346438Y-127135047D01*
X148346438Y-127135047D02*
X148394057Y-127182666D01*
X148394057Y-127182666D02*
X148536914Y-127277904D01*
X148536914Y-127277904D02*
X148727390Y-127325523D01*
X148727390Y-127325523D02*
X149108342Y-127325523D01*
X149108342Y-127325523D02*
X149203580Y-127277904D01*
X149203580Y-127277904D02*
X149251200Y-127230285D01*
X149251200Y-127230285D02*
X149298819Y-127135047D01*
X149298819Y-127135047D02*
X149298819Y-126944571D01*
X149298819Y-126944571D02*
X149251200Y-126849333D01*
X149251200Y-126849333D02*
X149203580Y-126801714D01*
X149203580Y-126801714D02*
X149108342Y-126754095D01*
X149108342Y-126754095D02*
X148870247Y-126754095D01*
X148870247Y-126754095D02*
X148775009Y-126801714D01*
X148775009Y-126801714D02*
X148727390Y-126849333D01*
X148727390Y-126849333D02*
X148679771Y-126944571D01*
X148679771Y-126944571D02*
X148679771Y-127135047D01*
X148679771Y-127135047D02*
X148727390Y-127230285D01*
X148727390Y-127230285D02*
X148775009Y-127277904D01*
X148775009Y-127277904D02*
X148870247Y-127325523D01*
X136852819Y-85224857D02*
X136376628Y-85558190D01*
X136852819Y-85796285D02*
X135852819Y-85796285D01*
X135852819Y-85796285D02*
X135852819Y-85415333D01*
X135852819Y-85415333D02*
X135900438Y-85320095D01*
X135900438Y-85320095D02*
X135948057Y-85272476D01*
X135948057Y-85272476D02*
X136043295Y-85224857D01*
X136043295Y-85224857D02*
X136186152Y-85224857D01*
X136186152Y-85224857D02*
X136281390Y-85272476D01*
X136281390Y-85272476D02*
X136329009Y-85320095D01*
X136329009Y-85320095D02*
X136376628Y-85415333D01*
X136376628Y-85415333D02*
X136376628Y-85796285D01*
X136852819Y-84272476D02*
X136852819Y-84843904D01*
X136852819Y-84558190D02*
X135852819Y-84558190D01*
X135852819Y-84558190D02*
X135995676Y-84653428D01*
X135995676Y-84653428D02*
X136090914Y-84748666D01*
X136090914Y-84748666D02*
X136138533Y-84843904D01*
X135852819Y-83415333D02*
X135852819Y-83605809D01*
X135852819Y-83605809D02*
X135900438Y-83701047D01*
X135900438Y-83701047D02*
X135948057Y-83748666D01*
X135948057Y-83748666D02*
X136090914Y-83843904D01*
X136090914Y-83843904D02*
X136281390Y-83891523D01*
X136281390Y-83891523D02*
X136662342Y-83891523D01*
X136662342Y-83891523D02*
X136757580Y-83843904D01*
X136757580Y-83843904D02*
X136805200Y-83796285D01*
X136805200Y-83796285D02*
X136852819Y-83701047D01*
X136852819Y-83701047D02*
X136852819Y-83510571D01*
X136852819Y-83510571D02*
X136805200Y-83415333D01*
X136805200Y-83415333D02*
X136757580Y-83367714D01*
X136757580Y-83367714D02*
X136662342Y-83320095D01*
X136662342Y-83320095D02*
X136424247Y-83320095D01*
X136424247Y-83320095D02*
X136329009Y-83367714D01*
X136329009Y-83367714D02*
X136281390Y-83415333D01*
X136281390Y-83415333D02*
X136233771Y-83510571D01*
X136233771Y-83510571D02*
X136233771Y-83701047D01*
X136233771Y-83701047D02*
X136281390Y-83796285D01*
X136281390Y-83796285D02*
X136329009Y-83843904D01*
X136329009Y-83843904D02*
X136424247Y-83891523D01*
X162226666Y-103594819D02*
X162226666Y-104309104D01*
X162226666Y-104309104D02*
X162179047Y-104451961D01*
X162179047Y-104451961D02*
X162083809Y-104547200D01*
X162083809Y-104547200D02*
X161940952Y-104594819D01*
X161940952Y-104594819D02*
X161845714Y-104594819D01*
X163226666Y-104594819D02*
X162655238Y-104594819D01*
X162940952Y-104594819D02*
X162940952Y-103594819D01*
X162940952Y-103594819D02*
X162845714Y-103737676D01*
X162845714Y-103737676D02*
X162750476Y-103832914D01*
X162750476Y-103832914D02*
X162655238Y-103880533D01*
X157488095Y-129756819D02*
X158059523Y-129756819D01*
X157773809Y-130756819D02*
X157773809Y-129756819D01*
X158392857Y-130756819D02*
X158392857Y-129756819D01*
X158392857Y-129756819D02*
X158773809Y-129756819D01*
X158773809Y-129756819D02*
X158869047Y-129804438D01*
X158869047Y-129804438D02*
X158916666Y-129852057D01*
X158916666Y-129852057D02*
X158964285Y-129947295D01*
X158964285Y-129947295D02*
X158964285Y-130090152D01*
X158964285Y-130090152D02*
X158916666Y-130185390D01*
X158916666Y-130185390D02*
X158869047Y-130233009D01*
X158869047Y-130233009D02*
X158773809Y-130280628D01*
X158773809Y-130280628D02*
X158392857Y-130280628D01*
X159345238Y-129852057D02*
X159392857Y-129804438D01*
X159392857Y-129804438D02*
X159488095Y-129756819D01*
X159488095Y-129756819D02*
X159726190Y-129756819D01*
X159726190Y-129756819D02*
X159821428Y-129804438D01*
X159821428Y-129804438D02*
X159869047Y-129852057D01*
X159869047Y-129852057D02*
X159916666Y-129947295D01*
X159916666Y-129947295D02*
X159916666Y-130042533D01*
X159916666Y-130042533D02*
X159869047Y-130185390D01*
X159869047Y-130185390D02*
X159297619Y-130756819D01*
X159297619Y-130756819D02*
X159916666Y-130756819D01*
D12*
%TO.C,R10*%
X142213000Y-79782936D02*
X142213000Y-80237064D01*
X140743000Y-79782936D02*
X140743000Y-80237064D01*
%TO.C,TP7*%
X159958000Y-78232000D02*
G75*
G02*
X158558000Y-78232000I-700000J0D01*
G01*
X158558000Y-78232000D02*
G75*
G02*
X159958000Y-78232000I700000J0D01*
G01*
%TO.C,TP4*%
X162498000Y-83058000D02*
G75*
G02*
X161098000Y-83058000I-700000J0D01*
G01*
X161098000Y-83058000D02*
G75*
G02*
X162498000Y-83058000I700000J0D01*
G01*
%TO.C,R21*%
X142213064Y-87603000D02*
X141758936Y-87603000D01*
X142213064Y-86133000D02*
X141758936Y-86133000D01*
%TO.C,J2*%
X138236000Y-115630000D02*
X136906000Y-115630000D01*
X138236000Y-114300000D02*
X138236000Y-115630000D01*
X138236000Y-113030000D02*
X138236000Y-95190000D01*
X138236000Y-113030000D02*
X135576000Y-113030000D01*
X138236000Y-95190000D02*
X135576000Y-95190000D01*
X135576000Y-113030000D02*
X135576000Y-95190000D01*
%TO.C,SW1*%
X143644000Y-125294000D02*
X141444000Y-125294000D01*
X145614000Y-124824000D02*
X145614000Y-119624000D01*
X139374000Y-124224000D02*
X139374000Y-119824000D01*
X141444000Y-119054000D02*
X143644000Y-119054000D01*
X143908214Y-122174000D02*
G75*
G02*
X141079786Y-122174000I-1414214J0D01*
G01*
X141079786Y-122174000D02*
G75*
G02*
X143908214Y-122174000I1414214J0D01*
G01*
%TO.C,C8*%
X146785000Y-79748748D02*
X146785000Y-80271252D01*
X145315000Y-79748748D02*
X145315000Y-80271252D01*
%TO.C,U1*%
X142240000Y-132370000D02*
X143040000Y-132370000D01*
X142240000Y-132370000D02*
X141440000Y-132370000D01*
X142240000Y-129250000D02*
X143040000Y-129250000D01*
X142240000Y-129250000D02*
X141440000Y-129250000D01*
X143780000Y-132650000D02*
X143300000Y-132650000D01*
X143540000Y-132320000D01*
X143780000Y-132650000D01*
G36*
X143780000Y-132650000D02*
G01*
X143300000Y-132650000D01*
X143540000Y-132320000D01*
X143780000Y-132650000D01*
G37*
%TO.C,C6*%
X145788748Y-103151000D02*
X146311252Y-103151000D01*
X145788748Y-104621000D02*
X146311252Y-104621000D01*
%TO.C,Q1*%
X147466000Y-88718000D02*
X147466000Y-84958000D01*
X154286000Y-88718000D02*
X154286000Y-84958000D01*
X147466000Y-84958000D02*
X148726000Y-84958000D01*
X154286000Y-84958000D02*
X153026000Y-84958000D01*
X147566000Y-89998000D02*
X147236000Y-90238000D01*
X147236000Y-89758000D01*
X147566000Y-89998000D01*
G36*
X147566000Y-89998000D02*
G01*
X147236000Y-90238000D01*
X147236000Y-89758000D01*
X147566000Y-89998000D01*
G37*
%TO.C,J3*%
X135846000Y-92976000D02*
X145966000Y-92976000D01*
X135846000Y-92976000D02*
X135846000Y-90916000D01*
X145966000Y-92976000D02*
X145966000Y-88856000D01*
X135846000Y-90916000D02*
X137906000Y-90916000D01*
X137906000Y-90916000D02*
X137906000Y-88856000D01*
X135846000Y-89916000D02*
X135846000Y-88856000D01*
X135846000Y-88856000D02*
X136906000Y-88856000D01*
X137906000Y-88856000D02*
X145966000Y-88856000D01*
%TO.C,C2*%
X154439252Y-101065000D02*
X153916748Y-101065000D01*
X154439252Y-99595000D02*
X153916748Y-99595000D01*
%TO.C,C5*%
X154805698Y-114837000D02*
X154005698Y-114837000D01*
X154405698Y-115237000D02*
X154405698Y-114437000D01*
X150396000Y-116602000D02*
X150396000Y-108442000D01*
X150356000Y-116602000D02*
X150356000Y-108442000D01*
X150316000Y-116602000D02*
X150316000Y-108442000D01*
X150276000Y-116601000D02*
X150276000Y-108443000D01*
X150236000Y-116599000D02*
X150236000Y-108445000D01*
X150196000Y-116598000D02*
X150196000Y-108446000D01*
X150156000Y-116596000D02*
X150156000Y-108448000D01*
X150116000Y-116593000D02*
X150116000Y-108451000D01*
X150076000Y-116590000D02*
X150076000Y-108454000D01*
X150036000Y-116587000D02*
X150036000Y-108457000D01*
X149996000Y-116583000D02*
X149996000Y-108461000D01*
X149956000Y-116579000D02*
X149956000Y-108465000D01*
X149916000Y-116574000D02*
X149916000Y-108470000D01*
X149876000Y-116570000D02*
X149876000Y-108474000D01*
X149836000Y-116564000D02*
X149836000Y-108480000D01*
X149796000Y-116559000D02*
X149796000Y-108485000D01*
X149756000Y-116552000D02*
X149756000Y-108492000D01*
X149716000Y-116546000D02*
X149716000Y-108498000D01*
X149675000Y-116539000D02*
X149675000Y-113562000D01*
X149675000Y-111482000D02*
X149675000Y-108505000D01*
X149635000Y-116532000D02*
X149635000Y-113562000D01*
X149635000Y-111482000D02*
X149635000Y-108512000D01*
X149595000Y-116524000D02*
X149595000Y-113562000D01*
X149595000Y-111482000D02*
X149595000Y-108520000D01*
X149555000Y-116516000D02*
X149555000Y-113562000D01*
X149555000Y-111482000D02*
X149555000Y-108528000D01*
X149515000Y-116507000D02*
X149515000Y-113562000D01*
X149515000Y-111482000D02*
X149515000Y-108537000D01*
X149475000Y-116498000D02*
X149475000Y-113562000D01*
X149475000Y-111482000D02*
X149475000Y-108546000D01*
X149435000Y-116489000D02*
X149435000Y-113562000D01*
X149435000Y-111482000D02*
X149435000Y-108555000D01*
X149395000Y-116479000D02*
X149395000Y-113562000D01*
X149395000Y-111482000D02*
X149395000Y-108565000D01*
X149355000Y-116469000D02*
X149355000Y-113562000D01*
X149355000Y-111482000D02*
X149355000Y-108575000D01*
X149315000Y-116458000D02*
X149315000Y-113562000D01*
X149315000Y-111482000D02*
X149315000Y-108586000D01*
X149275000Y-116447000D02*
X149275000Y-113562000D01*
X149275000Y-111482000D02*
X149275000Y-108597000D01*
X149235000Y-116436000D02*
X149235000Y-113562000D01*
X149235000Y-111482000D02*
X149235000Y-108608000D01*
X149195000Y-116424000D02*
X149195000Y-113562000D01*
X149195000Y-111482000D02*
X149195000Y-108620000D01*
X149155000Y-116411000D02*
X149155000Y-113562000D01*
X149155000Y-111482000D02*
X149155000Y-108633000D01*
X149115000Y-116399000D02*
X149115000Y-113562000D01*
X149115000Y-111482000D02*
X149115000Y-108645000D01*
X149075000Y-116385000D02*
X149075000Y-113562000D01*
X149075000Y-111482000D02*
X149075000Y-108659000D01*
X149035000Y-116372000D02*
X149035000Y-113562000D01*
X149035000Y-111482000D02*
X149035000Y-108672000D01*
X148995000Y-116357000D02*
X148995000Y-113562000D01*
X148995000Y-111482000D02*
X148995000Y-108687000D01*
X148955000Y-116343000D02*
X148955000Y-113562000D01*
X148955000Y-111482000D02*
X148955000Y-108701000D01*
X148915000Y-116327000D02*
X148915000Y-113562000D01*
X148915000Y-111482000D02*
X148915000Y-108717000D01*
X148875000Y-116312000D02*
X148875000Y-113562000D01*
X148875000Y-111482000D02*
X148875000Y-108732000D01*
X148835000Y-116296000D02*
X148835000Y-113562000D01*
X148835000Y-111482000D02*
X148835000Y-108748000D01*
X148795000Y-116279000D02*
X148795000Y-113562000D01*
X148795000Y-111482000D02*
X148795000Y-108765000D01*
X148755000Y-116262000D02*
X148755000Y-113562000D01*
X148755000Y-111482000D02*
X148755000Y-108782000D01*
X148715000Y-116244000D02*
X148715000Y-113562000D01*
X148715000Y-111482000D02*
X148715000Y-108800000D01*
X148675000Y-116226000D02*
X148675000Y-113562000D01*
X148675000Y-111482000D02*
X148675000Y-108818000D01*
X148635000Y-116208000D02*
X148635000Y-113562000D01*
X148635000Y-111482000D02*
X148635000Y-108836000D01*
X148595000Y-116188000D02*
X148595000Y-113562000D01*
X148595000Y-111482000D02*
X148595000Y-108856000D01*
X148555000Y-116169000D02*
X148555000Y-113562000D01*
X148555000Y-111482000D02*
X148555000Y-108875000D01*
X148515000Y-116149000D02*
X148515000Y-113562000D01*
X148515000Y-111482000D02*
X148515000Y-108895000D01*
X148475000Y-116128000D02*
X148475000Y-113562000D01*
X148475000Y-111482000D02*
X148475000Y-108916000D01*
X148435000Y-116106000D02*
X148435000Y-113562000D01*
X148435000Y-111482000D02*
X148435000Y-108938000D01*
X148395000Y-116084000D02*
X148395000Y-113562000D01*
X148395000Y-111482000D02*
X148395000Y-108960000D01*
X148355000Y-116062000D02*
X148355000Y-113562000D01*
X148355000Y-111482000D02*
X148355000Y-108982000D01*
X148315000Y-116039000D02*
X148315000Y-113562000D01*
X148315000Y-111482000D02*
X148315000Y-109005000D01*
X148275000Y-116015000D02*
X148275000Y-113562000D01*
X148275000Y-111482000D02*
X148275000Y-109029000D01*
X148235000Y-115991000D02*
X148235000Y-113562000D01*
X148235000Y-111482000D02*
X148235000Y-109053000D01*
X148195000Y-115966000D02*
X148195000Y-113562000D01*
X148195000Y-111482000D02*
X148195000Y-109078000D01*
X148155000Y-115940000D02*
X148155000Y-113562000D01*
X148155000Y-111482000D02*
X148155000Y-109104000D01*
X148115000Y-115914000D02*
X148115000Y-113562000D01*
X148115000Y-111482000D02*
X148115000Y-109130000D01*
X148075000Y-115887000D02*
X148075000Y-113562000D01*
X148075000Y-111482000D02*
X148075000Y-109157000D01*
X148035000Y-115860000D02*
X148035000Y-113562000D01*
X148035000Y-111482000D02*
X148035000Y-109184000D01*
X147995000Y-115831000D02*
X147995000Y-113562000D01*
X147995000Y-111482000D02*
X147995000Y-109213000D01*
X147955000Y-115802000D02*
X147955000Y-113562000D01*
X147955000Y-111482000D02*
X147955000Y-109242000D01*
X147915000Y-115772000D02*
X147915000Y-113562000D01*
X147915000Y-111482000D02*
X147915000Y-109272000D01*
X147875000Y-115742000D02*
X147875000Y-113562000D01*
X147875000Y-111482000D02*
X147875000Y-109302000D01*
X147835000Y-115711000D02*
X147835000Y-113562000D01*
X147835000Y-111482000D02*
X147835000Y-109333000D01*
X147795000Y-115678000D02*
X147795000Y-113562000D01*
X147795000Y-111482000D02*
X147795000Y-109366000D01*
X147755000Y-115646000D02*
X147755000Y-113562000D01*
X147755000Y-111482000D02*
X147755000Y-109398000D01*
X147715000Y-115612000D02*
X147715000Y-113562000D01*
X147715000Y-111482000D02*
X147715000Y-109432000D01*
X147675000Y-115577000D02*
X147675000Y-113562000D01*
X147675000Y-111482000D02*
X147675000Y-109467000D01*
X147635000Y-115541000D02*
X147635000Y-113562000D01*
X147635000Y-111482000D02*
X147635000Y-109503000D01*
X147595000Y-115505000D02*
X147595000Y-109539000D01*
X147555000Y-115467000D02*
X147555000Y-109577000D01*
X147515000Y-115429000D02*
X147515000Y-109615000D01*
X147475000Y-115389000D02*
X147475000Y-109655000D01*
X147435000Y-115348000D02*
X147435000Y-109696000D01*
X147395000Y-115306000D02*
X147395000Y-109738000D01*
X147355000Y-115263000D02*
X147355000Y-109781000D01*
X147315000Y-115219000D02*
X147315000Y-109825000D01*
X147275000Y-115173000D02*
X147275000Y-109871000D01*
X147235000Y-115126000D02*
X147235000Y-109918000D01*
X147195000Y-115078000D02*
X147195000Y-109966000D01*
X147155000Y-115027000D02*
X147155000Y-110017000D01*
X147115000Y-114976000D02*
X147115000Y-110068000D01*
X147075000Y-114922000D02*
X147075000Y-110122000D01*
X147035000Y-114867000D02*
X147035000Y-110177000D01*
X146995000Y-114809000D02*
X146995000Y-110235000D01*
X146955000Y-114750000D02*
X146955000Y-110294000D01*
X146915000Y-114688000D02*
X146915000Y-110356000D01*
X146875000Y-114624000D02*
X146875000Y-110420000D01*
X146835000Y-114556000D02*
X146835000Y-110488000D01*
X146795000Y-114486000D02*
X146795000Y-110558000D01*
X146755000Y-114412000D02*
X146755000Y-110632000D01*
X146715000Y-114335000D02*
X146715000Y-110709000D01*
X146675000Y-114253000D02*
X146675000Y-110791000D01*
X146635000Y-114167000D02*
X146635000Y-110877000D01*
X146595000Y-114074000D02*
X146595000Y-110970000D01*
X146555000Y-113975000D02*
X146555000Y-111069000D01*
X146515000Y-113868000D02*
X146515000Y-111176000D01*
X146475000Y-113751000D02*
X146475000Y-111293000D01*
X146435000Y-113620000D02*
X146435000Y-111424000D01*
X146395000Y-113470000D02*
X146395000Y-111574000D01*
X146355000Y-113290000D02*
X146355000Y-111754000D01*
X146315000Y-113055000D02*
X146315000Y-111989000D01*
X154516000Y-112522000D02*
G75*
G02*
X146276000Y-112522000I-4120000J0D01*
G01*
X146276000Y-112522000D02*
G75*
G02*
X154516000Y-112522000I4120000J0D01*
G01*
%TO.C,R11*%
X149579000Y-94260936D02*
X149579000Y-94715064D01*
X148109000Y-94260936D02*
X148109000Y-94715064D01*
%TO.C,D3*%
X160512000Y-86794000D02*
X158512000Y-86794000D01*
X160512000Y-86794000D02*
X160512000Y-90804000D01*
X158512000Y-86794000D02*
X158512000Y-90804000D01*
%TO.C,D2*%
X163052000Y-86794000D02*
X161052000Y-86794000D01*
X163052000Y-86794000D02*
X163052000Y-90804000D01*
X161052000Y-86794000D02*
X161052000Y-90804000D01*
%TO.C,C12*%
X141739252Y-128497000D02*
X141216748Y-128497000D01*
X141739252Y-127027000D02*
X141216748Y-127027000D01*
%TO.C,L2*%
X166918000Y-121666000D02*
G75*
G02*
X156678000Y-121666000I-5120000J0D01*
G01*
X156678000Y-121666000D02*
G75*
G02*
X166918000Y-121666000I5120000J0D01*
G01*
%TO.C,R23*%
X146963750Y-131103811D02*
X146963750Y-131557939D01*
X145493750Y-131103811D02*
X145493750Y-131557939D01*
%TO.C,R7*%
X156236936Y-79148000D02*
X156691064Y-79148000D01*
X156236936Y-80618000D02*
X156691064Y-80618000D01*
%TO.C,R12*%
X156236936Y-85879000D02*
X156691064Y-85879000D01*
X156236936Y-87349000D02*
X156691064Y-87349000D01*
%TO.C,X1*%
X152597000Y-106641000D02*
X152597000Y-103856000D01*
X152797000Y-106641000D02*
X152597000Y-106641000D01*
X156267000Y-103856000D02*
X156267000Y-106456000D01*
%TO.C,L1*%
X137377852Y-131402400D02*
X134605348Y-131402400D01*
X137377852Y-127982400D02*
X134605348Y-127982400D01*
%TO.C,D1*%
X137574000Y-83178000D02*
X139794000Y-83178000D01*
X139794000Y-83178000D02*
X139794000Y-78768000D01*
X137574000Y-78768000D02*
X137574000Y-83178000D01*
%TO.C,R4*%
X151865000Y-94260936D02*
X151865000Y-94715064D01*
X150395000Y-94260936D02*
X150395000Y-94715064D01*
%TO.C,TP5*%
X155132000Y-116332000D02*
G75*
G02*
X153732000Y-116332000I-700000J0D01*
G01*
X153732000Y-116332000D02*
G75*
G02*
X155132000Y-116332000I700000J0D01*
G01*
%TO.C,R8*%
X156236936Y-81434000D02*
X156691064Y-81434000D01*
X156236936Y-82904000D02*
X156691064Y-82904000D01*
%TO.C,TP1*%
X162498000Y-80010000D02*
G75*
G02*
X161098000Y-80010000I-700000J0D01*
G01*
X161098000Y-80010000D02*
G75*
G02*
X162498000Y-80010000I700000J0D01*
G01*
%TO.C,C3*%
X134415000Y-125187888D02*
X134415000Y-124687888D01*
X134165000Y-124937888D02*
X134665000Y-124937888D01*
X133310000Y-122383113D02*
X138470000Y-122383113D01*
X133310000Y-122343113D02*
X138470000Y-122343113D01*
X133311000Y-122303113D02*
X138469000Y-122303113D01*
X133312000Y-122263113D02*
X138468000Y-122263113D01*
X133314000Y-122223113D02*
X138466000Y-122223113D01*
X133317000Y-122183113D02*
X138463000Y-122183113D01*
X133321000Y-122143113D02*
X134850000Y-122143113D01*
X136930000Y-122143113D02*
X138459000Y-122143113D01*
X133325000Y-122103113D02*
X134850000Y-122103113D01*
X136930000Y-122103113D02*
X138455000Y-122103113D01*
X133329000Y-122063113D02*
X134850000Y-122063113D01*
X136930000Y-122063113D02*
X138451000Y-122063113D01*
X133334000Y-122023113D02*
X134850000Y-122023113D01*
X136930000Y-122023113D02*
X138446000Y-122023113D01*
X133340000Y-121983113D02*
X134850000Y-121983113D01*
X136930000Y-121983113D02*
X138440000Y-121983113D01*
X133347000Y-121943113D02*
X134850000Y-121943113D01*
X136930000Y-121943113D02*
X138433000Y-121943113D01*
X133354000Y-121903113D02*
X134850000Y-121903113D01*
X136930000Y-121903113D02*
X138426000Y-121903113D01*
X133362000Y-121863113D02*
X134850000Y-121863113D01*
X136930000Y-121863113D02*
X138418000Y-121863113D01*
X133370000Y-121823113D02*
X134850000Y-121823113D01*
X136930000Y-121823113D02*
X138410000Y-121823113D01*
X133379000Y-121783113D02*
X134850000Y-121783113D01*
X136930000Y-121783113D02*
X138401000Y-121783113D01*
X133389000Y-121743113D02*
X134850000Y-121743113D01*
X136930000Y-121743113D02*
X138391000Y-121743113D01*
X133399000Y-121703113D02*
X134850000Y-121703113D01*
X136930000Y-121703113D02*
X138381000Y-121703113D01*
X133410000Y-121662113D02*
X134850000Y-121662113D01*
X136930000Y-121662113D02*
X138370000Y-121662113D01*
X133422000Y-121622113D02*
X134850000Y-121622113D01*
X136930000Y-121622113D02*
X138358000Y-121622113D01*
X133435000Y-121582113D02*
X134850000Y-121582113D01*
X136930000Y-121582113D02*
X138345000Y-121582113D01*
X133448000Y-121542113D02*
X134850000Y-121542113D01*
X136930000Y-121542113D02*
X138332000Y-121542113D01*
X133462000Y-121502113D02*
X134850000Y-121502113D01*
X136930000Y-121502113D02*
X138318000Y-121502113D01*
X133476000Y-121462113D02*
X134850000Y-121462113D01*
X136930000Y-121462113D02*
X138304000Y-121462113D01*
X133492000Y-121422113D02*
X134850000Y-121422113D01*
X136930000Y-121422113D02*
X138288000Y-121422113D01*
X133508000Y-121382113D02*
X134850000Y-121382113D01*
X136930000Y-121382113D02*
X138272000Y-121382113D01*
X133525000Y-121342113D02*
X134850000Y-121342113D01*
X136930000Y-121342113D02*
X138255000Y-121342113D01*
X133542000Y-121302113D02*
X134850000Y-121302113D01*
X136930000Y-121302113D02*
X138238000Y-121302113D01*
X133561000Y-121262113D02*
X134850000Y-121262113D01*
X136930000Y-121262113D02*
X138219000Y-121262113D01*
X133580000Y-121222113D02*
X134850000Y-121222113D01*
X136930000Y-121222113D02*
X138200000Y-121222113D01*
X133600000Y-121182113D02*
X134850000Y-121182113D01*
X136930000Y-121182113D02*
X138180000Y-121182113D01*
X133622000Y-121142113D02*
X134850000Y-121142113D01*
X136930000Y-121142113D02*
X138158000Y-121142113D01*
X133643000Y-121102113D02*
X134850000Y-121102113D01*
X136930000Y-121102113D02*
X138137000Y-121102113D01*
X133666000Y-121062113D02*
X134850000Y-121062113D01*
X136930000Y-121062113D02*
X138114000Y-121062113D01*
X133690000Y-121022113D02*
X134850000Y-121022113D01*
X136930000Y-121022113D02*
X138090000Y-121022113D01*
X133715000Y-120982113D02*
X134850000Y-120982113D01*
X136930000Y-120982113D02*
X138065000Y-120982113D01*
X133741000Y-120942113D02*
X134850000Y-120942113D01*
X136930000Y-120942113D02*
X138039000Y-120942113D01*
X133768000Y-120902113D02*
X134850000Y-120902113D01*
X136930000Y-120902113D02*
X138012000Y-120902113D01*
X133795000Y-120862113D02*
X134850000Y-120862113D01*
X136930000Y-120862113D02*
X137985000Y-120862113D01*
X133825000Y-120822113D02*
X134850000Y-120822113D01*
X136930000Y-120822113D02*
X137955000Y-120822113D01*
X133855000Y-120782113D02*
X134850000Y-120782113D01*
X136930000Y-120782113D02*
X137925000Y-120782113D01*
X133886000Y-120742113D02*
X134850000Y-120742113D01*
X136930000Y-120742113D02*
X137894000Y-120742113D01*
X133919000Y-120702113D02*
X134850000Y-120702113D01*
X136930000Y-120702113D02*
X137861000Y-120702113D01*
X133953000Y-120662113D02*
X134850000Y-120662113D01*
X136930000Y-120662113D02*
X137827000Y-120662113D01*
X133989000Y-120622113D02*
X134850000Y-120622113D01*
X136930000Y-120622113D02*
X137791000Y-120622113D01*
X134026000Y-120582113D02*
X134850000Y-120582113D01*
X136930000Y-120582113D02*
X137754000Y-120582113D01*
X134064000Y-120542113D02*
X134850000Y-120542113D01*
X136930000Y-120542113D02*
X137716000Y-120542113D01*
X134105000Y-120502113D02*
X134850000Y-120502113D01*
X136930000Y-120502113D02*
X137675000Y-120502113D01*
X134147000Y-120462113D02*
X134850000Y-120462113D01*
X136930000Y-120462113D02*
X137633000Y-120462113D01*
X134191000Y-120422113D02*
X134850000Y-120422113D01*
X136930000Y-120422113D02*
X137589000Y-120422113D01*
X134237000Y-120382113D02*
X134850000Y-120382113D01*
X136930000Y-120382113D02*
X137543000Y-120382113D01*
X134285000Y-120342113D02*
X134850000Y-120342113D01*
X136930000Y-120342113D02*
X137495000Y-120342113D01*
X134336000Y-120302113D02*
X134850000Y-120302113D01*
X136930000Y-120302113D02*
X137444000Y-120302113D01*
X134390000Y-120262113D02*
X134850000Y-120262113D01*
X136930000Y-120262113D02*
X137390000Y-120262113D01*
X134447000Y-120222113D02*
X134850000Y-120222113D01*
X136930000Y-120222113D02*
X137333000Y-120222113D01*
X134507000Y-120182113D02*
X134850000Y-120182113D01*
X136930000Y-120182113D02*
X137273000Y-120182113D01*
X134571000Y-120142113D02*
X134850000Y-120142113D01*
X136930000Y-120142113D02*
X137209000Y-120142113D01*
X134639000Y-120102113D02*
X134850000Y-120102113D01*
X136930000Y-120102113D02*
X137141000Y-120102113D01*
X134712000Y-120062113D02*
X137068000Y-120062113D01*
X134792000Y-120022113D02*
X136988000Y-120022113D01*
X134879000Y-119982113D02*
X136901000Y-119982113D01*
X134975000Y-119942113D02*
X136805000Y-119942113D01*
X135085000Y-119902113D02*
X136695000Y-119902113D01*
X135213000Y-119862113D02*
X136567000Y-119862113D01*
X135372000Y-119822113D02*
X136408000Y-119822113D01*
X135606000Y-119782113D02*
X136174000Y-119782113D01*
X138510000Y-122383113D02*
G75*
G02*
X133270000Y-122383113I-2620000J0D01*
G01*
X133270000Y-122383113D02*
G75*
G02*
X138510000Y-122383113I2620000J0D01*
G01*
%TO.C,D4*%
X145075000Y-115790000D02*
X145075000Y-115634000D01*
X145075000Y-113474000D02*
X145075000Y-113318000D01*
X145074999Y-115789515D02*
G75*
G02*
X141842666Y-115632608I-1559999J1235515D01*
G01*
X144555960Y-115633999D02*
G75*
G02*
X142473871Y-115633836I-1040960J1079999D01*
G01*
X142473871Y-113474164D02*
G75*
G02*
X144555960Y-113474001I1041129J-1079836D01*
G01*
X141842666Y-113475392D02*
G75*
G02*
X145074999Y-113318485I1672334J-1078608D01*
G01*
%TO.C,C7*%
X153113750Y-131592127D02*
X153113750Y-131069623D01*
X154583750Y-131592127D02*
X154583750Y-131069623D01*
%TO.C,R13*%
X137006064Y-118210000D02*
X136551936Y-118210000D01*
X137006064Y-116740000D02*
X136551936Y-116740000D01*
%TO.C,R3*%
X156236936Y-88673000D02*
X156691064Y-88673000D01*
X156236936Y-90143000D02*
X156691064Y-90143000D01*
%TO.C,R9*%
X147601000Y-80237064D02*
X147601000Y-79782936D01*
X149071000Y-80237064D02*
X149071000Y-79782936D01*
%TO.C,C11*%
X154693252Y-108685000D02*
X154170748Y-108685000D01*
X154693252Y-107215000D02*
X154170748Y-107215000D01*
%TO.C,TP3*%
X156910000Y-128016000D02*
G75*
G02*
X155510000Y-128016000I-700000J0D01*
G01*
X155510000Y-128016000D02*
G75*
G02*
X156910000Y-128016000I700000J0D01*
G01*
%TO.C,R22*%
X150573750Y-131557939D02*
X150573750Y-131103811D01*
X152043750Y-131557939D02*
X152043750Y-131103811D01*
%TO.C,Q3*%
X152944000Y-80010000D02*
X152944000Y-79360000D01*
X152944000Y-80010000D02*
X152944000Y-80660000D01*
X149824000Y-80010000D02*
X149824000Y-79360000D01*
X149824000Y-80010000D02*
X149824000Y-80660000D01*
X153224000Y-79087500D02*
X152894000Y-78847500D01*
X153224000Y-78607500D01*
X153224000Y-79087500D01*
G36*
X153224000Y-79087500D02*
G01*
X152894000Y-78847500D01*
X153224000Y-78607500D01*
X153224000Y-79087500D01*
G37*
%TO.C,R6*%
X152427000Y-97255064D02*
X152427000Y-96800936D01*
X153897000Y-97255064D02*
X153897000Y-96800936D01*
%TO.C,R17*%
X155929000Y-96800936D02*
X155929000Y-97255064D01*
X154459000Y-96800936D02*
X154459000Y-97255064D01*
%TO.C,C20*%
X135101000Y-81018748D02*
X135101000Y-81541252D01*
X133631000Y-81018748D02*
X133631000Y-81541252D01*
%TO.C,C18*%
X154439252Y-103174950D02*
X153916748Y-103174950D01*
X154439252Y-101704950D02*
X153916748Y-101704950D01*
%TO.C,Q2*%
X154178000Y-94778000D02*
X154828000Y-94778000D01*
X154178000Y-94778000D02*
X153528000Y-94778000D01*
X154178000Y-91658000D02*
X154828000Y-91658000D01*
X154178000Y-91658000D02*
X153528000Y-91658000D01*
X155580500Y-95058000D02*
X155100500Y-95058000D01*
X155340500Y-94728000D01*
X155580500Y-95058000D01*
G36*
X155580500Y-95058000D02*
G01*
X155100500Y-95058000D01*
X155340500Y-94728000D01*
X155580500Y-95058000D01*
G37*
%TO.C,C17*%
X142247252Y-134339000D02*
X141724748Y-134339000D01*
X142247252Y-132869000D02*
X141724748Y-132869000D01*
%TO.C,C1*%
X156725252Y-85063000D02*
X156202748Y-85063000D01*
X156725252Y-83593000D02*
X156202748Y-83593000D01*
%TO.C,TP6*%
X150814000Y-106426000D02*
G75*
G02*
X149414000Y-106426000I-700000J0D01*
G01*
X149414000Y-106426000D02*
G75*
G02*
X150814000Y-106426000I700000J0D01*
G01*
%TO.C,C9*%
X144499000Y-79748748D02*
X144499000Y-80271252D01*
X143029000Y-79748748D02*
X143029000Y-80271252D01*
%TO.C,C16*%
X148033750Y-131592127D02*
X148033750Y-131069623D01*
X149503750Y-131592127D02*
X149503750Y-131069623D01*
%TO.C,R16*%
X135663000Y-81507064D02*
X135663000Y-81052936D01*
X137133000Y-81507064D02*
X137133000Y-81052936D01*
%TO.C,J1*%
X158182000Y-92660000D02*
X159512000Y-92660000D01*
X158182000Y-93990000D02*
X158182000Y-92660000D01*
X158182000Y-95260000D02*
X158182000Y-115640000D01*
X158182000Y-95260000D02*
X160842000Y-95260000D01*
X158182000Y-115640000D02*
X160842000Y-115640000D01*
X160842000Y-95260000D02*
X160842000Y-115640000D01*
%TO.C,TP2*%
X156910000Y-130302000D02*
G75*
G02*
X155510000Y-130302000I-700000J0D01*
G01*
X155510000Y-130302000D02*
G75*
G02*
X156910000Y-130302000I700000J0D01*
G01*
%TD*%
M02*
