%TF.GenerationSoftware,KiCad,Pcbnew,8.0.1*%
%TF.CreationDate,2024-04-26T00:23:44+02:00*%
%TF.ProjectId,controller_lpc1115_2MU_v1.04,636f6e74-726f-46c6-9c65-725f6c706331,rev?*%
%TF.SameCoordinates,Original*%
%TF.FileFunction,Soldermask,Bot*%
%TF.FilePolarity,Negative*%
%FSLAX46Y46*%
G04 Gerber Fmt 4.6, Leading zero omitted, Abs format (unit mm)*
G04 Created by KiCad (PCBNEW 8.0.1) date 2024-04-26 00:23:44*
%MOMM*%
%LPD*%
G01*
G04 APERTURE LIST*
G04 Aperture macros list*
%AMRoundRect*
0 Rectangle with rounded corners*
0 $1 Rounding radius*
0 $2 $3 $4 $5 $6 $7 $8 $9 X,Y pos of 4 corners*
0 Add a 4 corners polygon primitive as box body*
4,1,4,$2,$3,$4,$5,$6,$7,$8,$9,$2,$3,0*
0 Add four circle primitives for the rounded corners*
1,1,$1+$1,$2,$3*
1,1,$1+$1,$4,$5*
1,1,$1+$1,$6,$7*
1,1,$1+$1,$8,$9*
0 Add four rect primitives between the rounded corners*
20,1,$1+$1,$2,$3,$4,$5,0*
20,1,$1+$1,$4,$5,$6,$7,0*
20,1,$1+$1,$6,$7,$8,$9,0*
20,1,$1+$1,$8,$9,$2,$3,0*%
G04 Aperture macros list end*
%ADD10R,1.700000X1.700000*%
%ADD11O,1.700000X1.700000*%
%ADD12C,1.700000*%
%ADD13R,1.350000X1.350000*%
%ADD14O,1.350000X1.350000*%
%ADD15R,1.600000X1.600000*%
%ADD16C,1.600000*%
%ADD17C,2.400000*%
%ADD18R,1.800000X1.800000*%
%ADD19C,1.800000*%
%ADD20RoundRect,0.250000X0.450000X-0.262500X0.450000X0.262500X-0.450000X0.262500X-0.450000X-0.262500X0*%
%ADD21RoundRect,0.250000X-0.250000X-0.475000X0.250000X-0.475000X0.250000X0.475000X-0.250000X0.475000X0*%
%ADD22RoundRect,0.250000X-0.450000X0.262500X-0.450000X-0.262500X0.450000X-0.262500X0.450000X0.262500X0*%
%ADD23RoundRect,0.250000X0.600000X-0.400000X0.600000X0.400000X-0.600000X0.400000X-0.600000X-0.400000X0*%
%ADD24RoundRect,0.250000X-0.262500X-0.450000X0.262500X-0.450000X0.262500X0.450000X-0.262500X0.450000X0*%
%ADD25RoundRect,0.075000X0.662500X0.075000X-0.662500X0.075000X-0.662500X-0.075000X0.662500X-0.075000X0*%
%ADD26RoundRect,0.075000X0.075000X0.662500X-0.075000X0.662500X-0.075000X-0.662500X0.075000X-0.662500X0*%
%ADD27RoundRect,0.225000X-0.375000X0.225000X-0.375000X-0.225000X0.375000X-0.225000X0.375000X0.225000X0*%
%ADD28RoundRect,0.250000X0.300000X-0.300000X0.300000X0.300000X-0.300000X0.300000X-0.300000X-0.300000X0*%
G04 APERTURE END LIST*
D10*
%TO.C,J2*%
X136906000Y-114300000D03*
D11*
X136906000Y-111760000D03*
X136906000Y-109220000D03*
X136906000Y-106680000D03*
X136906000Y-104140000D03*
X136906000Y-101600000D03*
X136906000Y-99060000D03*
X136906000Y-96520000D03*
%TD*%
D10*
%TO.C,SW1*%
X140244000Y-125424000D03*
D12*
X140244000Y-118924000D03*
X144744000Y-125424000D03*
X144744000Y-118924000D03*
%TD*%
D13*
%TO.C,J3*%
X136906000Y-89916000D03*
D14*
X136906000Y-91916000D03*
X138906000Y-89916000D03*
X138906000Y-91916000D03*
X140906000Y-89916000D03*
X140906000Y-91916000D03*
X142906000Y-89916000D03*
X142906000Y-91916000D03*
X144906000Y-89916000D03*
X144906000Y-91916000D03*
%TD*%
D15*
%TO.C,C5*%
X152146000Y-112522000D03*
D16*
X148646000Y-112522000D03*
%TD*%
D17*
%TO.C,L2*%
X161798000Y-119166000D03*
X161798000Y-124166000D03*
%TD*%
D15*
%TO.C,C3*%
X135890000Y-123633113D03*
D16*
X135890000Y-121133113D03*
%TD*%
D18*
%TO.C,D4*%
X144785000Y-114554000D03*
D19*
X142245000Y-114554000D03*
%TD*%
D10*
%TO.C,J1*%
X159512000Y-93990000D03*
D11*
X159512000Y-96530000D03*
X159512000Y-99070000D03*
X159512000Y-101610000D03*
X159512000Y-104150000D03*
X159512000Y-106690000D03*
X159512000Y-109230000D03*
X159512000Y-111770000D03*
X159512000Y-114310000D03*
%TD*%
D20*
%TO.C,R20*%
X146558000Y-132230500D03*
X146558000Y-130405500D03*
%TD*%
D21*
%TO.C,C4*%
X149672000Y-107188000D03*
X151572000Y-107188000D03*
%TD*%
D22*
%TO.C,R19*%
X149098000Y-130405500D03*
X149098000Y-132230500D03*
%TD*%
D23*
%TO.C,D10*%
X156972000Y-120368000D03*
X156972000Y-116868000D03*
%TD*%
D21*
%TO.C,C15*%
X134178000Y-125984000D03*
X136078000Y-125984000D03*
%TD*%
D20*
%TO.C,R14*%
X139954000Y-115466500D03*
X139954000Y-113641500D03*
%TD*%
%TO.C,R2*%
X140970000Y-132230500D03*
X140970000Y-130405500D03*
%TD*%
D22*
%TO.C,R15*%
X153924000Y-103227500D03*
X153924000Y-105052500D03*
%TD*%
D24*
%TO.C,R18*%
X149963500Y-83058000D03*
X151788500Y-83058000D03*
%TD*%
D22*
%TO.C,R1*%
X143256000Y-130405500D03*
X143256000Y-132230500D03*
%TD*%
D25*
%TO.C,IC1*%
X149684550Y-99474050D03*
X149684550Y-99974050D03*
X149684550Y-100474050D03*
X149684550Y-100974050D03*
X149684550Y-101474050D03*
X149684550Y-101974050D03*
X149684550Y-102474050D03*
X149684550Y-102974050D03*
X149684550Y-103474050D03*
X149684550Y-103974050D03*
X149684550Y-104474050D03*
X149684550Y-104974050D03*
D26*
X148272050Y-106386550D03*
X147772050Y-106386550D03*
X147272050Y-106386550D03*
X146772050Y-106386550D03*
X146272050Y-106386550D03*
X145772050Y-106386550D03*
X145272050Y-106386550D03*
X144772050Y-106386550D03*
X144272050Y-106386550D03*
X143772050Y-106386550D03*
X143272050Y-106386550D03*
X142772050Y-106386550D03*
D25*
X141359550Y-104974050D03*
X141359550Y-104474050D03*
X141359550Y-103974050D03*
X141359550Y-103474050D03*
X141359550Y-102974050D03*
X141359550Y-102474050D03*
X141359550Y-101974050D03*
X141359550Y-101474050D03*
X141359550Y-100974050D03*
X141359550Y-100474050D03*
X141359550Y-99974050D03*
X141359550Y-99474050D03*
D26*
X142772050Y-98061550D03*
X143272050Y-98061550D03*
X143772050Y-98061550D03*
X144272050Y-98061550D03*
X144772050Y-98061550D03*
X145272050Y-98061550D03*
X145772050Y-98061550D03*
X146272050Y-98061550D03*
X146772050Y-98061550D03*
X147272050Y-98061550D03*
X147772050Y-98061550D03*
X148272050Y-98061550D03*
%TD*%
D27*
%TO.C,D6*%
X156972000Y-122556000D03*
X156972000Y-125856000D03*
%TD*%
D28*
%TO.C,D5*%
X135991600Y-131651200D03*
X135991600Y-128851200D03*
%TD*%
D21*
%TO.C,C10*%
X149926000Y-85090000D03*
X151826000Y-85090000D03*
%TD*%
D24*
%TO.C,R5*%
X149963500Y-87376000D03*
X151788500Y-87376000D03*
%TD*%
M02*
