%TF.GenerationSoftware,KiCad,Pcbnew,8.0.1*%
%TF.CreationDate,2024-04-26T00:23:44+02:00*%
%TF.ProjectId,controller_lpc1115_2MU_v1.04,636f6e74-726f-46c6-9c65-725f6c706331,rev?*%
%TF.SameCoordinates,Original*%
%TF.FileFunction,Paste,Top*%
%TF.FilePolarity,Positive*%
%FSLAX46Y46*%
G04 Gerber Fmt 4.6, Leading zero omitted, Abs format (unit mm)*
G04 Created by KiCad (PCBNEW 8.0.1) date 2024-04-26 00:23:44*
%MOMM*%
%LPD*%
G01*
G04 APERTURE LIST*
G04 Aperture macros list*
%AMRoundRect*
0 Rectangle with rounded corners*
0 $1 Rounding radius*
0 $2 $3 $4 $5 $6 $7 $8 $9 X,Y pos of 4 corners*
0 Add a 4 corners polygon primitive as box body*
4,1,4,$2,$3,$4,$5,$6,$7,$8,$9,$2,$3,0*
0 Add four circle primitives for the rounded corners*
1,1,$1+$1,$2,$3*
1,1,$1+$1,$4,$5*
1,1,$1+$1,$6,$7*
1,1,$1+$1,$8,$9*
0 Add four rect primitives between the rounded corners*
20,1,$1+$1,$2,$3,$4,$5,0*
20,1,$1+$1,$4,$5,$6,$7,0*
20,1,$1+$1,$6,$7,$8,$9,0*
20,1,$1+$1,$8,$9,$2,$3,0*%
G04 Aperture macros list end*
%ADD10C,0.150000*%
%ADD11RoundRect,0.250000X-0.450000X0.262500X-0.450000X-0.262500X0.450000X-0.262500X0.450000X0.262500X0*%
%ADD12RoundRect,0.250000X0.262500X0.450000X-0.262500X0.450000X-0.262500X-0.450000X0.262500X-0.450000X0*%
%ADD13RoundRect,0.250000X-0.475000X0.250000X-0.475000X-0.250000X0.475000X-0.250000X0.475000X0.250000X0*%
%ADD14RoundRect,0.150000X0.512500X0.150000X-0.512500X0.150000X-0.512500X-0.150000X0.512500X-0.150000X0*%
%ADD15RoundRect,0.250000X-0.250000X-0.475000X0.250000X-0.475000X0.250000X0.475000X-0.250000X0.475000X0*%
%ADD16RoundRect,0.375000X0.375000X-0.625000X0.375000X0.625000X-0.375000X0.625000X-0.375000X-0.625000X0*%
%ADD17RoundRect,0.500000X1.400000X-0.500000X1.400000X0.500000X-1.400000X0.500000X-1.400000X-0.500000X0*%
%ADD18RoundRect,0.250000X0.250000X0.475000X-0.250000X0.475000X-0.250000X-0.475000X0.250000X-0.475000X0*%
%ADD19RoundRect,0.225000X-0.375000X0.225000X-0.375000X-0.225000X0.375000X-0.225000X0.375000X0.225000X0*%
%ADD20RoundRect,0.250000X-0.262500X-0.450000X0.262500X-0.450000X0.262500X0.450000X-0.262500X0.450000X0*%
%ADD21R,1.000000X0.900000*%
%ADD22RoundRect,0.250000X0.400000X1.450000X-0.400000X1.450000X-0.400000X-1.450000X0.400000X-1.450000X0*%
%ADD23RoundRect,0.250000X0.600000X-0.400000X0.600000X0.400000X-0.600000X0.400000X-0.600000X-0.400000X0*%
%ADD24RoundRect,0.250000X0.475000X-0.250000X0.475000X0.250000X-0.475000X0.250000X-0.475000X-0.250000X0*%
%ADD25RoundRect,0.250000X0.450000X-0.262500X0.450000X0.262500X-0.450000X0.262500X-0.450000X-0.262500X0*%
%ADD26RoundRect,0.150000X-0.150000X0.587500X-0.150000X-0.587500X0.150000X-0.587500X0.150000X0.587500X0*%
%ADD27RoundRect,0.150000X0.587500X0.150000X-0.587500X0.150000X-0.587500X-0.150000X0.587500X-0.150000X0*%
G04 APERTURE END LIST*
D10*
X160080553Y-131695819D02*
X160080553Y-130695819D01*
X160080553Y-130695819D02*
X160461505Y-130695819D01*
X160461505Y-130695819D02*
X160556743Y-130743438D01*
X160556743Y-130743438D02*
X160604362Y-130791057D01*
X160604362Y-130791057D02*
X160651981Y-130886295D01*
X160651981Y-130886295D02*
X160651981Y-131029152D01*
X160651981Y-131029152D02*
X160604362Y-131124390D01*
X160604362Y-131124390D02*
X160556743Y-131172009D01*
X160556743Y-131172009D02*
X160461505Y-131219628D01*
X160461505Y-131219628D02*
X160080553Y-131219628D01*
X161509124Y-131695819D02*
X161509124Y-131172009D01*
X161509124Y-131172009D02*
X161461505Y-131076771D01*
X161461505Y-131076771D02*
X161366267Y-131029152D01*
X161366267Y-131029152D02*
X161175791Y-131029152D01*
X161175791Y-131029152D02*
X161080553Y-131076771D01*
X161509124Y-131648200D02*
X161413886Y-131695819D01*
X161413886Y-131695819D02*
X161175791Y-131695819D01*
X161175791Y-131695819D02*
X161080553Y-131648200D01*
X161080553Y-131648200D02*
X161032934Y-131552961D01*
X161032934Y-131552961D02*
X161032934Y-131457723D01*
X161032934Y-131457723D02*
X161080553Y-131362485D01*
X161080553Y-131362485D02*
X161175791Y-131314866D01*
X161175791Y-131314866D02*
X161413886Y-131314866D01*
X161413886Y-131314866D02*
X161509124Y-131267247D01*
X161937696Y-131648200D02*
X162032934Y-131695819D01*
X162032934Y-131695819D02*
X162223410Y-131695819D01*
X162223410Y-131695819D02*
X162318648Y-131648200D01*
X162318648Y-131648200D02*
X162366267Y-131552961D01*
X162366267Y-131552961D02*
X162366267Y-131505342D01*
X162366267Y-131505342D02*
X162318648Y-131410104D01*
X162318648Y-131410104D02*
X162223410Y-131362485D01*
X162223410Y-131362485D02*
X162080553Y-131362485D01*
X162080553Y-131362485D02*
X161985315Y-131314866D01*
X161985315Y-131314866D02*
X161937696Y-131219628D01*
X161937696Y-131219628D02*
X161937696Y-131172009D01*
X161937696Y-131172009D02*
X161985315Y-131076771D01*
X161985315Y-131076771D02*
X162080553Y-131029152D01*
X162080553Y-131029152D02*
X162223410Y-131029152D01*
X162223410Y-131029152D02*
X162318648Y-131076771D01*
X162651982Y-131029152D02*
X163032934Y-131029152D01*
X162794839Y-130695819D02*
X162794839Y-131552961D01*
X162794839Y-131552961D02*
X162842458Y-131648200D01*
X162842458Y-131648200D02*
X162937696Y-131695819D01*
X162937696Y-131695819D02*
X163032934Y-131695819D01*
X163747220Y-131648200D02*
X163651982Y-131695819D01*
X163651982Y-131695819D02*
X163461506Y-131695819D01*
X163461506Y-131695819D02*
X163366268Y-131648200D01*
X163366268Y-131648200D02*
X163318649Y-131552961D01*
X163318649Y-131552961D02*
X163318649Y-131172009D01*
X163318649Y-131172009D02*
X163366268Y-131076771D01*
X163366268Y-131076771D02*
X163461506Y-131029152D01*
X163461506Y-131029152D02*
X163651982Y-131029152D01*
X163651982Y-131029152D02*
X163747220Y-131076771D01*
X163747220Y-131076771D02*
X163794839Y-131172009D01*
X163794839Y-131172009D02*
X163794839Y-131267247D01*
X163794839Y-131267247D02*
X163318649Y-131362485D01*
D11*
%TO.C,R10*%
X141478000Y-79097500D03*
X141478000Y-80922500D03*
%TD*%
D12*
%TO.C,R21*%
X142898500Y-86868000D03*
X141073500Y-86868000D03*
%TD*%
D13*
%TO.C,C8*%
X146050000Y-79060000D03*
X146050000Y-80960000D03*
%TD*%
D14*
%TO.C,U1*%
X143377500Y-131760000D03*
X143377500Y-130810000D03*
X143377500Y-129860000D03*
X141102500Y-129860000D03*
X141102500Y-130810000D03*
X141102500Y-131760000D03*
%TD*%
D15*
%TO.C,C6*%
X145100000Y-103886000D03*
X147000000Y-103886000D03*
%TD*%
D16*
%TO.C,Q1*%
X148576000Y-90018000D03*
X150876000Y-90018000D03*
D17*
X150876000Y-83718000D03*
D16*
X153176000Y-90018000D03*
%TD*%
D18*
%TO.C,C2*%
X155128000Y-100330000D03*
X153228000Y-100330000D03*
%TD*%
D11*
%TO.C,R11*%
X148844000Y-93575500D03*
X148844000Y-95400500D03*
%TD*%
D19*
%TO.C,D3*%
X159512000Y-87504000D03*
X159512000Y-90804000D03*
%TD*%
%TO.C,D2*%
X162052000Y-87504000D03*
X162052000Y-90804000D03*
%TD*%
D18*
%TO.C,C12*%
X142428000Y-127762000D03*
X140528000Y-127762000D03*
%TD*%
D11*
%TO.C,R23*%
X146228750Y-130418375D03*
X146228750Y-132243375D03*
%TD*%
D20*
%TO.C,R7*%
X155551500Y-79883000D03*
X157376500Y-79883000D03*
%TD*%
%TO.C,R12*%
X155551500Y-86614000D03*
X157376500Y-86614000D03*
%TD*%
D21*
%TO.C,X1*%
X153357000Y-105931000D03*
X155507000Y-105931000D03*
X155507000Y-104381000D03*
X153357000Y-104381000D03*
%TD*%
D22*
%TO.C,L1*%
X138216600Y-129692400D03*
X133766600Y-129692400D03*
%TD*%
D23*
%TO.C,D1*%
X138684000Y-82268000D03*
X138684000Y-78768000D03*
%TD*%
D11*
%TO.C,R4*%
X151130000Y-93575500D03*
X151130000Y-95400500D03*
%TD*%
D20*
%TO.C,R8*%
X155551500Y-82169000D03*
X157376500Y-82169000D03*
%TD*%
D24*
%TO.C,C7*%
X153848750Y-132280875D03*
X153848750Y-130380875D03*
%TD*%
D12*
%TO.C,R13*%
X137691500Y-117475000D03*
X135866500Y-117475000D03*
%TD*%
D20*
%TO.C,R3*%
X155551500Y-89408000D03*
X157376500Y-89408000D03*
%TD*%
D25*
%TO.C,R9*%
X148336000Y-80922500D03*
X148336000Y-79097500D03*
%TD*%
D18*
%TO.C,C11*%
X155382000Y-107950000D03*
X153482000Y-107950000D03*
%TD*%
D25*
%TO.C,R22*%
X151308750Y-132243375D03*
X151308750Y-130418375D03*
%TD*%
D26*
%TO.C,Q3*%
X152334000Y-79072500D03*
X150434000Y-79072500D03*
X151384000Y-80947500D03*
%TD*%
D25*
%TO.C,R6*%
X153162000Y-97940500D03*
X153162000Y-96115500D03*
%TD*%
D11*
%TO.C,R17*%
X155194000Y-96115500D03*
X155194000Y-97940500D03*
%TD*%
D13*
%TO.C,C20*%
X134366000Y-80330000D03*
X134366000Y-82230000D03*
%TD*%
D18*
%TO.C,C18*%
X155128000Y-102439950D03*
X153228000Y-102439950D03*
%TD*%
D27*
%TO.C,Q2*%
X155115500Y-94168000D03*
X155115500Y-92268000D03*
X153240500Y-93218000D03*
%TD*%
D18*
%TO.C,C17*%
X142936000Y-133604000D03*
X141036000Y-133604000D03*
%TD*%
%TO.C,C1*%
X157414000Y-84328000D03*
X155514000Y-84328000D03*
%TD*%
D13*
%TO.C,C9*%
X143764000Y-79060000D03*
X143764000Y-80960000D03*
%TD*%
D24*
%TO.C,C16*%
X148768750Y-132280875D03*
X148768750Y-130380875D03*
%TD*%
D25*
%TO.C,R16*%
X136398000Y-82192500D03*
X136398000Y-80367500D03*
%TD*%
M02*
