%TF.GenerationSoftware,KiCad,Pcbnew,8.0.1*%
%TF.CreationDate,2024-04-28T15:11:03+02:00*%
%TF.ProjectId,controller_lpc1115_2MU_v1.04,636f6e74-726f-46c6-9c65-725f6c706331,rev?*%
%TF.SameCoordinates,Original*%
%TF.FileFunction,Copper,L2,Bot*%
%TF.FilePolarity,Positive*%
%FSLAX46Y46*%
G04 Gerber Fmt 4.6, Leading zero omitted, Abs format (unit mm)*
G04 Created by KiCad (PCBNEW 8.0.1) date 2024-04-28 15:11:03*
%MOMM*%
%LPD*%
G01*
G04 APERTURE LIST*
G04 Aperture macros list*
%AMRoundRect*
0 Rectangle with rounded corners*
0 $1 Rounding radius*
0 $2 $3 $4 $5 $6 $7 $8 $9 X,Y pos of 4 corners*
0 Add a 4 corners polygon primitive as box body*
4,1,4,$2,$3,$4,$5,$6,$7,$8,$9,$2,$3,0*
0 Add four circle primitives for the rounded corners*
1,1,$1+$1,$2,$3*
1,1,$1+$1,$4,$5*
1,1,$1+$1,$6,$7*
1,1,$1+$1,$8,$9*
0 Add four rect primitives between the rounded corners*
20,1,$1+$1,$2,$3,$4,$5,0*
20,1,$1+$1,$4,$5,$6,$7,0*
20,1,$1+$1,$6,$7,$8,$9,0*
20,1,$1+$1,$8,$9,$2,$3,0*%
G04 Aperture macros list end*
%TA.AperFunction,ComponentPad*%
%ADD10R,1.700000X1.700000*%
%TD*%
%TA.AperFunction,ComponentPad*%
%ADD11O,1.700000X1.700000*%
%TD*%
%TA.AperFunction,ComponentPad*%
%ADD12C,1.700000*%
%TD*%
%TA.AperFunction,ComponentPad*%
%ADD13R,1.350000X1.350000*%
%TD*%
%TA.AperFunction,ComponentPad*%
%ADD14O,1.350000X1.350000*%
%TD*%
%TA.AperFunction,ComponentPad*%
%ADD15R,1.600000X1.600000*%
%TD*%
%TA.AperFunction,ComponentPad*%
%ADD16C,1.600000*%
%TD*%
%TA.AperFunction,ComponentPad*%
%ADD17C,2.400000*%
%TD*%
%TA.AperFunction,ComponentPad*%
%ADD18R,1.800000X1.800000*%
%TD*%
%TA.AperFunction,ComponentPad*%
%ADD19C,1.800000*%
%TD*%
%TA.AperFunction,SMDPad,CuDef*%
%ADD20RoundRect,0.250000X-0.262500X-0.450000X0.262500X-0.450000X0.262500X0.450000X-0.262500X0.450000X0*%
%TD*%
%TA.AperFunction,SMDPad,CuDef*%
%ADD21RoundRect,0.250000X-0.475000X0.250000X-0.475000X-0.250000X0.475000X-0.250000X0.475000X0.250000X0*%
%TD*%
%TA.AperFunction,SMDPad,CuDef*%
%ADD22RoundRect,0.250000X0.262500X0.450000X-0.262500X0.450000X-0.262500X-0.450000X0.262500X-0.450000X0*%
%TD*%
%TA.AperFunction,SMDPad,CuDef*%
%ADD23RoundRect,0.250000X-0.400000X-0.600000X0.400000X-0.600000X0.400000X0.600000X-0.400000X0.600000X0*%
%TD*%
%TA.AperFunction,SMDPad,CuDef*%
%ADD24RoundRect,0.250000X-0.450000X0.262500X-0.450000X-0.262500X0.450000X-0.262500X0.450000X0.262500X0*%
%TD*%
%TA.AperFunction,SMDPad,CuDef*%
%ADD25RoundRect,0.075000X0.075000X-0.662500X0.075000X0.662500X-0.075000X0.662500X-0.075000X-0.662500X0*%
%TD*%
%TA.AperFunction,SMDPad,CuDef*%
%ADD26RoundRect,0.075000X0.662500X-0.075000X0.662500X0.075000X-0.662500X0.075000X-0.662500X-0.075000X0*%
%TD*%
%TA.AperFunction,SMDPad,CuDef*%
%ADD27RoundRect,0.225000X0.225000X0.375000X-0.225000X0.375000X-0.225000X-0.375000X0.225000X-0.375000X0*%
%TD*%
%TA.AperFunction,SMDPad,CuDef*%
%ADD28RoundRect,0.250000X-0.300000X-0.300000X0.300000X-0.300000X0.300000X0.300000X-0.300000X0.300000X0*%
%TD*%
%TA.AperFunction,ViaPad*%
%ADD29C,1.006400*%
%TD*%
%TA.AperFunction,ViaPad*%
%ADD30C,0.706400*%
%TD*%
%TA.AperFunction,ViaPad*%
%ADD31C,0.600000*%
%TD*%
%TA.AperFunction,Conductor*%
%ADD32C,0.812800*%
%TD*%
%TA.AperFunction,Conductor*%
%ADD33C,0.254000*%
%TD*%
%TA.AperFunction,Conductor*%
%ADD34C,0.406400*%
%TD*%
%TA.AperFunction,Conductor*%
%ADD35C,0.609600*%
%TD*%
%TA.AperFunction,Conductor*%
%ADD36C,0.150000*%
%TD*%
G04 APERTURE END LIST*
D10*
%TO.P,J2,1,Pin_1*%
%TO.N,/LT1*%
X145444000Y-88802000D03*
D11*
%TO.P,J2,2,Pin_2*%
%TO.N,/LT6*%
X147984000Y-88802000D03*
%TO.P,J2,3,Pin_3*%
%TO.N,/LT7*%
X150524000Y-88802000D03*
%TO.P,J2,4,Pin_4*%
%TO.N,/LT9*%
X153064000Y-88802000D03*
%TO.P,J2,5,Pin_5*%
%TO.N,GND*%
X155604000Y-88802000D03*
%TO.P,J2,6,Pin_6*%
X158144000Y-88802000D03*
%TO.P,J2,7,Pin_7*%
%TO.N,+3V3*%
X160684000Y-88802000D03*
%TO.P,J2,8,Pin_8*%
%TO.N,/PROG*%
X163224000Y-88802000D03*
%TD*%
D10*
%TO.P,SW1,1,1*%
%TO.N,/PROG*%
X134320000Y-92140000D03*
D12*
X140820000Y-92140000D03*
%TO.P,SW1,2,2*%
%TO.N,GND*%
X134320000Y-96640000D03*
X140820000Y-96640000D03*
%TD*%
D13*
%TO.P,J3,1,Pin_1*%
%TO.N,+3V3*%
X169828000Y-88802000D03*
D14*
%TO.P,J3,2,Pin_2*%
%TO.N,/SWDIO*%
X167828000Y-88802000D03*
%TO.P,J3,3,Pin_3*%
%TO.N,/IO15*%
X169828000Y-90802000D03*
%TO.P,J3,4,Pin_4*%
%TO.N,/SWCLK*%
X167828000Y-90802000D03*
%TO.P,J3,5,Pin_5*%
%TO.N,/IO14*%
X169828000Y-92802000D03*
%TO.P,J3,6,Pin_6*%
%TO.N,unconnected-(J3-Pin_6-Pad6)*%
X167828000Y-92802000D03*
%TO.P,J3,7,Pin_7*%
%TO.N,/ISP_EN*%
X169828000Y-94802000D03*
%TO.P,J3,8,Pin_8*%
%TO.N,unconnected-(J3-Pin_8-Pad8)*%
X167828000Y-94802000D03*
%TO.P,J3,9,Pin_9*%
%TO.N,GND*%
X169828000Y-96802000D03*
%TO.P,J3,10,Pin_10*%
%TO.N,/RESET*%
X167828000Y-96802000D03*
%TD*%
D15*
%TO.P,C5,1*%
%TO.N,/EIB_DC*%
X147222000Y-104042000D03*
D16*
%TO.P,C5,2*%
%TO.N,GND*%
X147222000Y-100542000D03*
%TD*%
D17*
%TO.P,L2,1,1*%
%TO.N,Net-(D2-K)*%
X140578000Y-113694000D03*
%TO.P,L2,2,2*%
%TO.N,/EIB_DC*%
X135578000Y-113694000D03*
%TD*%
D15*
%TO.P,C3,1*%
%TO.N,+3V3*%
X136110887Y-87786000D03*
D16*
%TO.P,C3,2*%
%TO.N,GND*%
X138610887Y-87786000D03*
%TD*%
D18*
%TO.P,D4,1,K*%
%TO.N,/PROG*%
X145190000Y-96681000D03*
D19*
%TO.P,D4,2,A*%
%TO.N,Net-(D4-A)*%
X145190000Y-94141000D03*
%TD*%
D10*
%TO.P,J1,1,Pin_1*%
%TO.N,Net-(D2-A)*%
X165754000Y-111408000D03*
D11*
%TO.P,J1,2,Pin_2*%
%TO.N,GND*%
X163214000Y-111408000D03*
%TO.P,J1,3,Pin_3*%
%TO.N,+3V3*%
X160674000Y-111408000D03*
%TO.P,J1,4,Pin_4*%
%TO.N,/PWM*%
X158134000Y-111408000D03*
%TO.P,J1,5,Pin_5*%
%TO.N,/IO7*%
X155594000Y-111408000D03*
%TO.P,J1,6,Pin_6*%
%TO.N,/IO5*%
X153054000Y-111408000D03*
%TO.P,J1,7,Pin_7*%
%TO.N,/IO6*%
X150514000Y-111408000D03*
%TO.P,J1,8,Pin_8*%
%TO.N,/APROG*%
X147974000Y-111408000D03*
%TO.P,J1,9,Pin_9*%
%TO.N,/EIB_DC*%
X145434000Y-111408000D03*
%TD*%
D20*
%TO.P,R20,1*%
%TO.N,GND*%
X127513500Y-98454000D03*
%TO.P,R20,2*%
%TO.N,/IO12*%
X129338500Y-98454000D03*
%TD*%
D21*
%TO.P,C4,1*%
%TO.N,/EIB_OUT*%
X152556000Y-101568000D03*
%TO.P,C4,2*%
%TO.N,Net-(C4-Pad2)*%
X152556000Y-103468000D03*
%TD*%
D22*
%TO.P,R19,1*%
%TO.N,/IO12*%
X129338500Y-100994000D03*
%TO.P,R19,2*%
%TO.N,+3V3*%
X127513500Y-100994000D03*
%TD*%
D23*
%TO.P,D10,1,K*%
%TO.N,Net-(D10-K)*%
X139376000Y-108868000D03*
%TO.P,D10,2,A*%
%TO.N,Net-(D10-A)*%
X142876000Y-108868000D03*
%TD*%
D21*
%TO.P,C15,1*%
%TO.N,GND*%
X133760000Y-86074000D03*
%TO.P,C15,2*%
%TO.N,+3V3*%
X133760000Y-87974000D03*
%TD*%
D20*
%TO.P,R14,1*%
%TO.N,+3V3*%
X144277500Y-91850000D03*
%TO.P,R14,2*%
%TO.N,Net-(D4-A)*%
X146102500Y-91850000D03*
%TD*%
%TO.P,R2,1*%
%TO.N,/EIB_DC*%
X127513500Y-92866000D03*
%TO.P,R2,2*%
%TO.N,Net-(U1-EN)*%
X129338500Y-92866000D03*
%TD*%
D22*
%TO.P,R15,1*%
%TO.N,Net-(Q2-B)*%
X156516500Y-105820000D03*
%TO.P,R15,2*%
%TO.N,Net-(C4-Pad2)*%
X154691500Y-105820000D03*
%TD*%
D24*
%TO.P,R18,1*%
%TO.N,Net-(Q1-C)*%
X176686000Y-101859500D03*
%TO.P,R18,2*%
%TO.N,GND*%
X176686000Y-103684500D03*
%TD*%
D22*
%TO.P,R1,1*%
%TO.N,Net-(U1-EN)*%
X129338500Y-95152000D03*
%TO.P,R1,2*%
%TO.N,GND*%
X127513500Y-95152000D03*
%TD*%
D25*
%TO.P,IC1,1,PIO2_6*%
%TO.N,unconnected-(IC1-PIO2_6-Pad1)*%
X160269950Y-101580550D03*
%TO.P,IC1,2,PIO2_0*%
%TO.N,/PROG*%
X159769950Y-101580550D03*
%TO.P,IC1,3,PIO0_0*%
%TO.N,/RESET*%
X159269950Y-101580550D03*
%TO.P,IC1,4,PIO0_1*%
%TO.N,/ISP_EN*%
X158769950Y-101580550D03*
%TO.P,IC1,5,VSS*%
%TO.N,GND*%
X158269950Y-101580550D03*
%TO.P,IC1,6,XTALIN*%
%TO.N,Net-(IC1-XTALIN)*%
X157769950Y-101580550D03*
%TO.P,IC1,7,XTALOUT*%
%TO.N,unconnected-(IC1-XTALOUT-Pad7)*%
X157269950Y-101580550D03*
%TO.P,IC1,8,VDD*%
%TO.N,+3V3*%
X156769950Y-101580550D03*
%TO.P,IC1,9,PIO1_8*%
%TO.N,/EIB_IN*%
X156269950Y-101580550D03*
%TO.P,IC1,10,PIO0_2*%
%TO.N,/IO5*%
X155769950Y-101580550D03*
%TO.P,IC1,11,PIO2_7*%
%TO.N,/ID1*%
X155269950Y-101580550D03*
%TO.P,IC1,12,PIO2_8*%
%TO.N,/ID2*%
X154769950Y-101580550D03*
D26*
%TO.P,IC1,13,PIO2_1*%
%TO.N,/LT1*%
X153357450Y-100168050D03*
%TO.P,IC1,14,PIO0_3*%
%TO.N,/LT2*%
X153357450Y-99668050D03*
%TO.P,IC1,15,PIO0_4*%
%TO.N,/SCL*%
X153357450Y-99168050D03*
%TO.P,IC1,16,PIO0_5*%
%TO.N,/SDA*%
X153357450Y-98668050D03*
%TO.P,IC1,17,PIO1_9*%
%TO.N,/EIB_OUT*%
X153357450Y-98168050D03*
%TO.P,IC1,18,PIO3_4*%
%TO.N,/LT6*%
X153357450Y-97668050D03*
%TO.P,IC1,19,PIO2_4*%
%TO.N,GND*%
X153357450Y-97168050D03*
%TO.P,IC1,20,PIO2_5*%
%TO.N,/LT4*%
X153357450Y-96668050D03*
%TO.P,IC1,21,PIO3_5*%
%TO.N,/LT5*%
X153357450Y-96168050D03*
%TO.P,IC1,22,PIO0_6*%
%TO.N,/APROG*%
X153357450Y-95668050D03*
%TO.P,IC1,23,PIO0_7*%
%TO.N,/IO2*%
X153357450Y-95168050D03*
%TO.P,IC1,24,PIO2_9*%
%TO.N,/IO4*%
X153357450Y-94668050D03*
D25*
%TO.P,IC1,25,PIO2_10*%
%TO.N,/IO3*%
X154769950Y-93255550D03*
%TO.P,IC1,26,PIO2_2*%
%TO.N,/IO1*%
X155269950Y-93255550D03*
%TO.P,IC1,27,PIO0_8*%
%TO.N,/IO6*%
X155769950Y-93255550D03*
%TO.P,IC1,28,PIO0_9*%
%TO.N,/IO7*%
X156269950Y-93255550D03*
%TO.P,IC1,29,PIO0_10*%
%TO.N,/SWCLK*%
X156769950Y-93255550D03*
%TO.P,IC1,30,PIO1_10*%
%TO.N,/LT7*%
X157269950Y-93255550D03*
%TO.P,IC1,31,PIO2_11*%
%TO.N,/IO8*%
X157769950Y-93255550D03*
%TO.P,IC1,32,PIO0_11*%
%TO.N,/LT8*%
X158269950Y-93255550D03*
%TO.P,IC1,33,PIO1_0*%
%TO.N,/IO9*%
X158769950Y-93255550D03*
%TO.P,IC1,34,PIO1_1*%
%TO.N,/IO10*%
X159269950Y-93255550D03*
%TO.P,IC1,35,PIO1_2*%
%TO.N,/IO11*%
X159769950Y-93255550D03*
%TO.P,IC1,36,PIO3_0*%
%TO.N,/TXD*%
X160269950Y-93255550D03*
D26*
%TO.P,IC1,37,PIO3_1*%
%TO.N,/RXD*%
X161682450Y-94668050D03*
%TO.P,IC1,38,PIO2_3*%
%TO.N,/LT9*%
X161682450Y-95168050D03*
%TO.P,IC1,39,PIO1_3*%
%TO.N,/SWDIO*%
X161682450Y-95668050D03*
%TO.P,IC1,40,PIO1_4*%
%TO.N,/IO12*%
X161682450Y-96168050D03*
%TO.P,IC1,41,VSS*%
%TO.N,GND*%
X161682450Y-96668050D03*
%TO.P,IC1,42,PIO1_11*%
%TO.N,/BUS_V*%
X161682450Y-97168050D03*
%TO.P,IC1,43,PIO3_2*%
%TO.N,/PWM*%
X161682450Y-97668050D03*
%TO.P,IC1,44,VDD*%
%TO.N,+3V3*%
X161682450Y-98168050D03*
%TO.P,IC1,45,PIO1_5*%
%TO.N,/IO13*%
X161682450Y-98668050D03*
%TO.P,IC1,46,PIO1_6*%
%TO.N,/IO15*%
X161682450Y-99168050D03*
%TO.P,IC1,47,PIO1_7*%
%TO.N,/IO14*%
X161682450Y-99668050D03*
%TO.P,IC1,48,PIO3_3*%
%TO.N,unconnected-(IC1-PIO3_3-Pad48)*%
X161682450Y-100168050D03*
%TD*%
D27*
%TO.P,D6,1,K*%
%TO.N,Net-(D10-K)*%
X137188000Y-108868000D03*
%TO.P,D6,2,A*%
%TO.N,/EIB_DC*%
X133888000Y-108868000D03*
%TD*%
D28*
%TO.P,D5,1,K*%
%TO.N,Net-(D5-K)*%
X128092800Y-87887600D03*
%TO.P,D5,2,A*%
%TO.N,GND*%
X130892800Y-87887600D03*
%TD*%
D21*
%TO.P,C10,1*%
%TO.N,Net-(Q1-B)*%
X174654000Y-101822000D03*
%TO.P,C10,2*%
%TO.N,Net-(D3-K)*%
X174654000Y-103722000D03*
%TD*%
D24*
%TO.P,R5,1*%
%TO.N,Net-(Q1-B)*%
X172368000Y-101859500D03*
%TO.P,R5,2*%
%TO.N,Net-(D3-K)*%
X172368000Y-103684500D03*
%TD*%
D29*
%TO.N,GND*%
X125632000Y-85754000D03*
D30*
X147222000Y-96676000D03*
X156874000Y-113440000D03*
X133760000Y-84992000D03*
X150778000Y-96422000D03*
X173628000Y-89632000D03*
X173648000Y-87982000D03*
X144153200Y-107965400D03*
X146672600Y-107377300D03*
X153318000Y-92866000D03*
D31*
X158144000Y-100232000D03*
X162970000Y-103788000D03*
D30*
X140364000Y-101756000D03*
D31*
X176178000Y-105566000D03*
D30*
X137570000Y-94390000D03*
X149508000Y-91596000D03*
X149254000Y-113694000D03*
X151286000Y-98962000D03*
X135284000Y-101756000D03*
X163224000Y-93628000D03*
D31*
X171860000Y-106074000D03*
X158652000Y-108106000D03*
X158652000Y-104042000D03*
D30*
X173638000Y-88802000D03*
X137541000Y-106582000D03*
D31*
X181004000Y-88294000D03*
X174146000Y-99978000D03*
X175924000Y-111916000D03*
D30*
X140364000Y-106582000D03*
D31*
X182020000Y-95660000D03*
X181004000Y-86262000D03*
D30*
X125632000Y-107852000D03*
X132744000Y-114710000D03*
D31*
X154588000Y-97184000D03*
X162970000Y-96676000D03*
%TO.N,Net-(IC1-XTALIN)*%
X157304050Y-104190500D03*
%TO.N,+3V3*%
X155399050Y-104091900D03*
X128426000Y-102010000D03*
X158144000Y-97946000D03*
X179480000Y-110392000D03*
X131474000Y-96676000D03*
X158638976Y-97451024D03*
X173892000Y-98454000D03*
%TO.N,/EIB_OUT*%
X153608775Y-101284775D03*
%TO.N,/EIB_DC*%
X129188000Y-91342000D03*
X142396000Y-90834000D03*
%TO.N,/EIB_IN*%
X162716000Y-100867000D03*
X161192000Y-101756000D03*
X154609383Y-103061612D03*
D29*
%TO.N,/BUS_V*%
X160701201Y-86498799D03*
D31*
X176178000Y-85500000D03*
X158101200Y-96676000D03*
%TO.N,/PROG*%
X140872000Y-88040000D03*
X159668000Y-100232000D03*
D30*
%TO.N,/IO5*%
X149679950Y-100574300D03*
D31*
X155749950Y-100414300D03*
D30*
%TO.N,/LT1*%
X150204581Y-95461081D03*
%TO.N,/LT6*%
X151794000Y-96676000D03*
%TO.N,/APROG*%
X151032000Y-94764500D03*
X148492000Y-93882000D03*
D31*
%TO.N,/SWCLK*%
X160430000Y-94541050D03*
%TO.N,/LT9*%
X154842000Y-95149144D03*
%TO.N,/IO12*%
X132490000Y-98708000D03*
X154588000Y-95911144D03*
%TO.N,/PWM*%
X162970000Y-97692000D03*
%TO.N,Net-(Q1-B)*%
X172368000Y-100994000D03*
%TO.N,Net-(D3-K)*%
X172368000Y-105058000D03*
%TO.N,Net-(Q2-B)*%
X162745053Y-105836319D03*
%TO.N,Net-(D10-A)*%
X160176000Y-108106000D03*
X165256000Y-104550000D03*
X144174000Y-109122000D03*
%TO.N,Net-(Q1-C)*%
X176178000Y-100486000D03*
%TO.N,Net-(U1-EN)*%
X130458000Y-93120000D03*
D29*
%TO.N,Net-(D5-K)*%
X127362200Y-89992800D03*
%TD*%
D32*
%TO.N,+3V3*%
X143666000Y-85881000D02*
X158419900Y-85881000D01*
X158419900Y-85881000D02*
X160694950Y-88156050D01*
X167845900Y-86819900D02*
X169828000Y-88802000D01*
X160694950Y-88156050D02*
X162031100Y-86819900D01*
X162031100Y-86819900D02*
X167845900Y-86819900D01*
D33*
%TO.N,GND*%
X162970000Y-96676000D02*
X162498492Y-96676000D01*
X162490542Y-96668050D02*
X161819950Y-96668050D01*
X158269950Y-103659950D02*
X158269950Y-100357950D01*
X162498492Y-96676000D02*
X162490542Y-96668050D01*
X158652000Y-104042000D02*
X158269950Y-103659950D01*
X153357450Y-97168050D02*
X154572050Y-97168050D01*
D34*
X163234950Y-111229000D02*
X163235050Y-111229100D01*
D33*
X154572050Y-97168050D02*
X154588000Y-97184000D01*
X158269950Y-100357950D02*
X158144000Y-100232000D01*
D35*
X147222000Y-100542000D02*
X147222000Y-96676000D01*
D33*
%TO.N,Net-(IC1-XTALIN)*%
X157304050Y-104190500D02*
X157769950Y-103724600D01*
X157769950Y-103724600D02*
X157769950Y-101718050D01*
%TO.N,+3V3*%
X156769950Y-103384050D02*
X156062100Y-104091900D01*
D34*
X173130000Y-98454000D02*
X172368000Y-97692000D01*
D35*
X131474000Y-96676000D02*
X131474000Y-90961000D01*
D33*
X156770650Y-100232000D02*
X156770650Y-101667950D01*
D35*
X135922887Y-87974000D02*
X136110887Y-87786000D01*
X131474000Y-90961000D02*
X133760000Y-88675000D01*
X170844000Y-88802000D02*
X169828000Y-88802000D01*
D34*
X159641952Y-98454000D02*
X158638976Y-97451024D01*
X156770650Y-99319350D02*
X158144000Y-97946000D01*
D35*
X172368000Y-97692000D02*
X172368000Y-90326000D01*
D33*
X156770650Y-101667950D02*
X156764300Y-101674300D01*
D35*
X133760000Y-87974000D02*
X135922887Y-87974000D01*
D34*
X178718000Y-109630000D02*
X170336000Y-109630000D01*
D33*
X156764300Y-101674300D02*
X156769950Y-101718050D01*
D35*
X127513500Y-100994000D02*
X127513500Y-101097500D01*
X170336000Y-109630000D02*
X162452000Y-109630000D01*
D34*
X179480000Y-110392000D02*
X178718000Y-109630000D01*
D33*
X156769950Y-101718050D02*
X156769950Y-103384050D01*
D35*
X170336000Y-99724000D02*
X171860000Y-98200000D01*
D33*
X160874358Y-98168050D02*
X160588408Y-98454000D01*
D35*
X127513500Y-101097500D02*
X128426000Y-102010000D01*
D34*
X143666000Y-91238500D02*
X144277500Y-91850000D01*
D35*
X172368000Y-90326000D02*
X170844000Y-88802000D01*
X133760000Y-88675000D02*
X133760000Y-87974000D01*
X158144000Y-97946000D02*
X158638976Y-97451024D01*
X162452000Y-109630000D02*
X160674000Y-111408000D01*
D34*
X156770650Y-100232000D02*
X156770650Y-99319350D01*
X173892000Y-98454000D02*
X173130000Y-98454000D01*
D32*
X136300000Y-87024000D02*
X136300000Y-87786000D01*
D33*
X161682450Y-98168050D02*
X160874358Y-98168050D01*
D32*
X143666000Y-85881000D02*
X137443000Y-85881000D01*
D33*
X156062100Y-104091900D02*
X155399050Y-104091900D01*
D35*
X170336000Y-109630000D02*
X170336000Y-99724000D01*
D34*
X143666000Y-85881000D02*
X143666000Y-91238500D01*
D33*
X160176000Y-98454000D02*
X160588408Y-98454000D01*
D34*
X160176000Y-98454000D02*
X159641952Y-98454000D01*
D32*
X137443000Y-85881000D02*
X136300000Y-87024000D01*
D35*
X171860000Y-98200000D02*
X172368000Y-97692000D01*
D33*
%TO.N,/EIB_OUT*%
X153219950Y-98168050D02*
X154309563Y-98168050D01*
X153325550Y-101568000D02*
X152556000Y-101568000D01*
X153608775Y-101284775D02*
X153325550Y-101568000D01*
X154662450Y-98520937D02*
X154662450Y-100231100D01*
X154309563Y-98168050D02*
X154662450Y-98520937D01*
X154662450Y-100231100D02*
X153608775Y-101284775D01*
D34*
%TO.N,Net-(C4-Pad2)*%
X152556000Y-105312000D02*
X152556000Y-103468000D01*
X154691500Y-105820000D02*
X153064000Y-105820000D01*
X153064000Y-105820000D02*
X152556000Y-105312000D01*
D35*
%TO.N,/EIB_DC*%
X135578000Y-111702000D02*
X135284000Y-111408000D01*
X145434000Y-111408000D02*
X135284000Y-111408000D01*
X142396000Y-97184000D02*
X145434000Y-100222000D01*
X145434000Y-104042000D02*
X147222000Y-104042000D01*
X133888000Y-110012000D02*
X133888000Y-108868000D01*
X135284000Y-111408000D02*
X133888000Y-110012000D01*
X142396000Y-90834000D02*
X142396000Y-97184000D01*
X145434000Y-104042000D02*
X145434000Y-111408000D01*
X145455050Y-111386950D02*
X145434000Y-111408000D01*
X145434000Y-100222000D02*
X145434000Y-104042000D01*
X129037500Y-91342000D02*
X127513500Y-92866000D01*
X129188000Y-91342000D02*
X129037500Y-91342000D01*
X135578000Y-113694000D02*
X135578000Y-111702000D01*
X145455050Y-111229100D02*
X145455050Y-111386950D01*
D34*
%TO.N,/EIB_IN*%
X161827000Y-100867000D02*
X162716000Y-100867000D01*
D33*
X155989600Y-103061612D02*
X156269950Y-102795550D01*
D34*
X161192000Y-101756000D02*
X161192000Y-101502000D01*
D33*
X154609383Y-103061612D02*
X155989600Y-103061612D01*
X156269950Y-102795550D02*
X156269950Y-101718050D01*
D34*
X161192000Y-101502000D02*
X161827000Y-100867000D01*
D33*
%TO.N,/RESET*%
X159548900Y-103026000D02*
X161446000Y-103026000D01*
X163478000Y-100232000D02*
X166908000Y-96802000D01*
X163478000Y-100994000D02*
X163478000Y-100232000D01*
X159269950Y-101718050D02*
X159269950Y-102747050D01*
X166908000Y-96802000D02*
X167828000Y-96802000D01*
X159269950Y-102747050D02*
X159548900Y-103026000D01*
X161446000Y-103026000D02*
X163478000Y-100994000D01*
%TO.N,/BUS_V*%
X158750664Y-96676000D02*
X159174144Y-97099480D01*
X158101200Y-96676000D02*
X158750664Y-96676000D01*
X159174144Y-97099480D02*
X160688928Y-97099480D01*
X160757498Y-97168050D02*
X161682450Y-97168050D01*
D34*
X161700000Y-85500000D02*
X160701201Y-86498799D01*
D33*
X160688928Y-97099480D02*
X160757498Y-97168050D01*
D34*
X176178000Y-85500000D02*
X161700000Y-85500000D01*
%TO.N,/PROG*%
X136046000Y-92140000D02*
X134320000Y-92140000D01*
D33*
X159769950Y-100333950D02*
X159769950Y-101718050D01*
D34*
X140872000Y-88040000D02*
X140872000Y-92088000D01*
X140872000Y-92088000D02*
X140820000Y-92140000D01*
D33*
X159668000Y-100232000D02*
X159769950Y-100333950D01*
D34*
X140820000Y-92140000D02*
X136046000Y-92140000D01*
D33*
%TO.N,/ISP_EN*%
X161700000Y-103534000D02*
X163986000Y-101248000D01*
X168812000Y-97692000D02*
X168812000Y-97421000D01*
X163986000Y-100486000D02*
X166526000Y-97946000D01*
X169828000Y-94802000D02*
X168812000Y-95818000D01*
X168558000Y-97946000D02*
X168812000Y-97692000D01*
X168812000Y-95931000D02*
X168812000Y-96405000D01*
X163986000Y-101248000D02*
X163986000Y-100486000D01*
X168812000Y-95818000D02*
X168812000Y-95931000D01*
X158769950Y-102889950D02*
X159414000Y-103534000D01*
X158769950Y-101718050D02*
X158769950Y-102889950D01*
X159414000Y-103534000D02*
X161700000Y-103534000D01*
D36*
X168812000Y-96405000D02*
X168812000Y-97421000D01*
D33*
X166526000Y-97946000D02*
X168558000Y-97946000D01*
%TO.N,/IO5*%
X151983950Y-110138000D02*
X153075050Y-111229100D01*
X155769950Y-101718050D02*
X155769950Y-100434300D01*
X155769950Y-100434300D02*
X155749950Y-100414300D01*
X150999975Y-110138000D02*
X151983950Y-110138000D01*
X149508000Y-100746250D02*
X149508000Y-108646025D01*
X149508000Y-108646025D02*
X150999975Y-110138000D01*
X149679950Y-100574300D02*
X149508000Y-100746250D01*
%TO.N,/LT1*%
X150016000Y-95649662D02*
X150016000Y-99216000D01*
X150016000Y-99216000D02*
X150968050Y-100168050D01*
X150204581Y-95461081D02*
X150016000Y-95649662D01*
X150968050Y-100168050D02*
X153219950Y-100168050D01*
%TO.N,/LT6*%
X151794000Y-96676000D02*
X151794000Y-97184000D01*
X151794000Y-97184000D02*
X152278050Y-97668050D01*
X152278050Y-97668050D02*
X153219950Y-97668050D01*
%TO.N,/APROG*%
X151935550Y-95668050D02*
X153219950Y-95668050D01*
X151032000Y-94764500D02*
X151935550Y-95668050D01*
X148492000Y-110732150D02*
X147995050Y-111229100D01*
X148492000Y-93882000D02*
X148492000Y-110732150D01*
%TO.N,/IO6*%
X150535050Y-111229100D02*
X150535050Y-110696225D01*
X155769950Y-92254300D02*
X155769950Y-93118050D01*
X149000000Y-94554250D02*
X151958250Y-91596000D01*
X151958250Y-91596000D02*
X155111650Y-91596000D01*
X149000000Y-109161175D02*
X149000000Y-94554250D01*
X155111650Y-91596000D02*
X155769950Y-92254300D01*
X150535050Y-110696225D02*
X149000000Y-109161175D01*
%TO.N,/IO7*%
X154491900Y-94390000D02*
X154186200Y-94084300D01*
X151286000Y-109630000D02*
X152285383Y-109630000D01*
X156269950Y-94232050D02*
X156112000Y-94390000D01*
X152539383Y-109884000D02*
X154842000Y-109884000D01*
X150363350Y-101140900D02*
X150016000Y-101488250D01*
X154842000Y-109884000D02*
X155594000Y-110636000D01*
X150363350Y-100291226D02*
X150363350Y-101140900D01*
X155594000Y-111408000D02*
X155615050Y-111386950D01*
X149508000Y-95195713D02*
X149508000Y-99435876D01*
X150016000Y-101488250D02*
X150016000Y-108360000D01*
X155615050Y-111386950D02*
X155615050Y-111229100D01*
X154186200Y-94084300D02*
X150619413Y-94084300D01*
X156112000Y-94390000D02*
X154491900Y-94390000D01*
X156269950Y-93118050D02*
X156269950Y-94232050D01*
X150619413Y-94084300D02*
X149508000Y-95195713D01*
X150016000Y-108360000D02*
X151286000Y-109630000D01*
X152285383Y-109630000D02*
X152539383Y-109884000D01*
X149508000Y-99435876D02*
X150363350Y-100291226D01*
X155594000Y-110636000D02*
X155594000Y-111408000D01*
%TO.N,/SWCLK*%
X156769950Y-93255550D02*
X156769950Y-94183000D01*
X156769950Y-94183000D02*
X157128000Y-94541050D01*
X157128000Y-94541050D02*
X160430000Y-94541050D01*
%TO.N,/LT9*%
X154842000Y-95149144D02*
X154860906Y-95168050D01*
X154860906Y-95168050D02*
X161682450Y-95168050D01*
D34*
%TO.N,/SWDIO*%
X165256000Y-93882000D02*
X165256000Y-91088000D01*
X162970000Y-95668050D02*
X163469950Y-95668050D01*
X167542000Y-88802000D02*
X167828000Y-88802000D01*
D33*
X161819950Y-95668050D02*
X162970000Y-95668050D01*
D34*
X163469950Y-95668050D02*
X165256000Y-93882000D01*
X165256000Y-91088000D02*
X167542000Y-88802000D01*
D33*
%TO.N,/IO12*%
X154590856Y-95914000D02*
X160176000Y-95914000D01*
D34*
X129338500Y-100994000D02*
X129338500Y-98454000D01*
D33*
X160176000Y-95914000D02*
X160430050Y-96168050D01*
D34*
X132490000Y-98708000D02*
X132236000Y-98454000D01*
D33*
X154588000Y-95911144D02*
X154590856Y-95914000D01*
D34*
X132236000Y-98454000D02*
X129338500Y-98454000D01*
D33*
X160430050Y-96168050D02*
X161682450Y-96168050D01*
%TO.N,/PWM*%
X162946050Y-97668050D02*
X162970000Y-97692000D01*
X161682450Y-97668050D02*
X162946050Y-97668050D01*
%TO.N,/IO15*%
X169828000Y-90802000D02*
X168822164Y-91807836D01*
X166018000Y-96137184D02*
X162987134Y-99168050D01*
X168822164Y-91807836D02*
X168304000Y-91807836D01*
X162987134Y-99168050D02*
X161819950Y-99168050D01*
D36*
X167454976Y-91807836D02*
X168304000Y-91807836D01*
D33*
X167454976Y-91807836D02*
X166568164Y-91807836D01*
X166568164Y-91807836D02*
X166018000Y-92358000D01*
X166018000Y-92358000D02*
X166018000Y-96137184D01*
%TO.N,/IO14*%
X166645000Y-93912802D02*
X166645000Y-96303000D01*
D36*
X168212181Y-93792124D02*
X167425175Y-93792124D01*
D33*
X163279950Y-99668050D02*
X161819950Y-99668050D01*
X166765678Y-93792124D02*
X166645000Y-93912802D01*
X168837876Y-93792124D02*
X169828000Y-92802000D01*
X167425175Y-93792124D02*
X166765678Y-93792124D01*
X168212181Y-93792124D02*
X168837876Y-93792124D01*
X166645000Y-96303000D02*
X163279950Y-99668050D01*
D34*
%TO.N,Net-(Q1-B)*%
X172368000Y-101859500D02*
X174616500Y-101859500D01*
X172368000Y-100994000D02*
X172368000Y-101859500D01*
X174616500Y-101859500D02*
X174654000Y-101822000D01*
%TO.N,Net-(D3-K)*%
X172368000Y-103684500D02*
X174616500Y-103684500D01*
X172368000Y-105058000D02*
X172368000Y-103684500D01*
X174616500Y-103684500D02*
X174654000Y-103722000D01*
%TO.N,Net-(Q2-B)*%
X156516500Y-105820000D02*
X161954000Y-105820000D01*
X162728734Y-105820000D02*
X162745053Y-105836319D01*
X161954000Y-105820000D02*
X162728734Y-105820000D01*
%TO.N,Net-(D10-K)*%
X139376000Y-108868000D02*
X137188000Y-108868000D01*
%TO.N,Net-(D10-A)*%
X163986000Y-106836000D02*
X161446000Y-106836000D01*
X165256000Y-105566000D02*
X163986000Y-106836000D01*
X161446000Y-106836000D02*
X160176000Y-108106000D01*
X142876000Y-108868000D02*
X143920000Y-108868000D01*
X143920000Y-108868000D02*
X144174000Y-109122000D01*
X165256000Y-104550000D02*
X165256000Y-105566000D01*
D33*
%TO.N,/LT7*%
X157269950Y-91695000D02*
X156662950Y-91088000D01*
X152847250Y-91088000D02*
X150534950Y-88775700D01*
X157269950Y-93118050D02*
X157269950Y-91695000D01*
X156662950Y-91088000D02*
X152847250Y-91088000D01*
D34*
%TO.N,Net-(Q1-C)*%
X176686000Y-100994000D02*
X176178000Y-100486000D01*
X176686000Y-101859500D02*
X176686000Y-100994000D01*
%TO.N,Net-(U1-EN)*%
X129338500Y-95152000D02*
X129338500Y-92866000D01*
X129338500Y-92866000D02*
X130204000Y-92866000D01*
X130204000Y-92866000D02*
X130458000Y-93120000D01*
%TO.N,Net-(D4-A)*%
X146102500Y-93228500D02*
X145190000Y-94141000D01*
X146102500Y-91850000D02*
X146102500Y-93228500D01*
D32*
%TO.N,Net-(D5-K)*%
X128092800Y-89262200D02*
X128092800Y-87887600D01*
X127362200Y-89992800D02*
X128092800Y-89262200D01*
%TD*%
%TA.AperFunction,Conductor*%
%TO.N,GND*%
G36*
X146374100Y-105342497D02*
G01*
X146374127Y-105342500D01*
X147740500Y-105342499D01*
X147807539Y-105362184D01*
X147853294Y-105414987D01*
X147864500Y-105466499D01*
X147864500Y-109948296D01*
X147844815Y-110015335D01*
X147792011Y-110061090D01*
X147751312Y-110071824D01*
X147746807Y-110072218D01*
X147738592Y-110072937D01*
X147738590Y-110072937D01*
X147738586Y-110072938D01*
X147510344Y-110134094D01*
X147510335Y-110134098D01*
X147296171Y-110233964D01*
X147296169Y-110233965D01*
X147102597Y-110369505D01*
X146935505Y-110536597D01*
X146805575Y-110722158D01*
X146750998Y-110765783D01*
X146681500Y-110772977D01*
X146619145Y-110741454D01*
X146602425Y-110722158D01*
X146472494Y-110536597D01*
X146305404Y-110369508D01*
X146305402Y-110369506D01*
X146305401Y-110369505D01*
X146292174Y-110360243D01*
X146248551Y-110305666D01*
X146239300Y-110258670D01*
X146239300Y-105466050D01*
X146258985Y-105399011D01*
X146311789Y-105353256D01*
X146370744Y-105343707D01*
X146370806Y-105342564D01*
X146370806Y-105342500D01*
X146370809Y-105342499D01*
X146370819Y-105342322D01*
X146374100Y-105342497D01*
G37*
%TD.AperFunction*%
%TA.AperFunction,Conductor*%
G36*
X171119342Y-90216208D02*
G01*
X171526381Y-90623247D01*
X171559866Y-90684570D01*
X171562700Y-90710928D01*
X171562700Y-97307072D01*
X171543015Y-97374111D01*
X171526381Y-97394753D01*
X171346651Y-97574483D01*
X169822654Y-99098479D01*
X169822651Y-99098482D01*
X169790478Y-99130655D01*
X169710480Y-99210652D01*
X169629658Y-99331612D01*
X169622356Y-99342540D01*
X169622348Y-99342554D01*
X169561648Y-99489098D01*
X169561645Y-99489108D01*
X169530699Y-99644682D01*
X169530699Y-99809428D01*
X169530700Y-99809449D01*
X169530700Y-108700700D01*
X169511015Y-108767739D01*
X169458211Y-108813494D01*
X169406700Y-108824700D01*
X162537450Y-108824700D01*
X162537430Y-108824699D01*
X162531316Y-108824699D01*
X162372685Y-108824699D01*
X162372680Y-108824699D01*
X162217110Y-108855644D01*
X162217102Y-108855646D01*
X162082104Y-108911564D01*
X162082104Y-108911565D01*
X162070547Y-108916352D01*
X162070541Y-108916355D01*
X161938652Y-109004480D01*
X161890442Y-109052691D01*
X161826482Y-109116651D01*
X161826479Y-109116654D01*
X160914237Y-110028895D01*
X160852914Y-110062380D01*
X160815749Y-110064742D01*
X160674002Y-110052341D01*
X160673999Y-110052341D01*
X160438596Y-110072936D01*
X160438586Y-110072938D01*
X160210344Y-110134094D01*
X160210335Y-110134098D01*
X159996171Y-110233964D01*
X159996169Y-110233965D01*
X159802597Y-110369505D01*
X159635505Y-110536597D01*
X159505575Y-110722158D01*
X159450998Y-110765783D01*
X159381500Y-110772977D01*
X159319145Y-110741454D01*
X159302425Y-110722158D01*
X159172494Y-110536597D01*
X159005402Y-110369506D01*
X159005395Y-110369501D01*
X158811834Y-110233967D01*
X158811830Y-110233965D01*
X158766334Y-110212750D01*
X158597663Y-110134097D01*
X158597659Y-110134096D01*
X158597655Y-110134094D01*
X158369413Y-110072938D01*
X158369403Y-110072936D01*
X158134001Y-110052341D01*
X158133999Y-110052341D01*
X157898596Y-110072936D01*
X157898586Y-110072938D01*
X157670344Y-110134094D01*
X157670335Y-110134098D01*
X157456171Y-110233964D01*
X157456169Y-110233965D01*
X157262597Y-110369505D01*
X157095505Y-110536597D01*
X156965575Y-110722158D01*
X156910998Y-110765783D01*
X156841500Y-110772977D01*
X156779145Y-110741454D01*
X156762425Y-110722158D01*
X156632494Y-110536597D01*
X156465402Y-110369506D01*
X156465395Y-110369501D01*
X156271834Y-110233967D01*
X156271830Y-110233965D01*
X156226334Y-110212750D01*
X156057663Y-110134097D01*
X156057660Y-110134096D01*
X156057658Y-110134095D01*
X155983004Y-110114092D01*
X155927417Y-110081998D01*
X155242013Y-109396593D01*
X155242007Y-109396588D01*
X155226882Y-109386482D01*
X155139239Y-109327920D01*
X155139226Y-109327913D01*
X155105785Y-109314062D01*
X155025035Y-109280614D01*
X155025027Y-109280612D01*
X154903807Y-109256500D01*
X154903803Y-109256500D01*
X152850664Y-109256500D01*
X152783625Y-109236815D01*
X152762987Y-109220185D01*
X152685391Y-109142589D01*
X152685390Y-109142588D01*
X152685389Y-109142587D01*
X152582622Y-109073920D01*
X152582609Y-109073913D01*
X152531373Y-109052691D01*
X152468418Y-109026614D01*
X152468410Y-109026612D01*
X152347190Y-109002500D01*
X152347186Y-109002500D01*
X151597281Y-109002500D01*
X151530242Y-108982815D01*
X151509600Y-108966181D01*
X150679819Y-108136400D01*
X150646334Y-108075077D01*
X150643500Y-108048719D01*
X150643500Y-101799531D01*
X150663185Y-101732492D01*
X150679819Y-101711850D01*
X150850759Y-101540910D01*
X150850761Y-101540908D01*
X150880222Y-101496816D01*
X150919433Y-101438133D01*
X150966735Y-101323935D01*
X150990850Y-101202703D01*
X150990850Y-100919550D01*
X151010535Y-100852511D01*
X151063339Y-100806756D01*
X151114850Y-100795550D01*
X151299294Y-100795550D01*
X151366333Y-100815235D01*
X151412088Y-100868039D01*
X151422032Y-100937197D01*
X151404834Y-100984645D01*
X151396189Y-100998661D01*
X151396185Y-100998668D01*
X151391446Y-101012970D01*
X151341001Y-101165203D01*
X151341001Y-101165204D01*
X151341000Y-101165204D01*
X151330500Y-101267983D01*
X151330500Y-101868001D01*
X151330501Y-101868019D01*
X151341000Y-101970796D01*
X151341001Y-101970799D01*
X151396185Y-102137331D01*
X151396187Y-102137336D01*
X151417578Y-102172016D01*
X151484653Y-102280763D01*
X151488289Y-102286657D01*
X151612346Y-102410714D01*
X151615182Y-102412463D01*
X151616717Y-102414170D01*
X151618011Y-102415193D01*
X151617836Y-102415414D01*
X151661905Y-102464411D01*
X151673126Y-102533374D01*
X151645282Y-102597456D01*
X151615182Y-102623537D01*
X151612346Y-102625285D01*
X151488289Y-102749342D01*
X151396187Y-102898663D01*
X151396186Y-102898666D01*
X151341001Y-103065203D01*
X151341001Y-103065204D01*
X151341000Y-103065204D01*
X151330500Y-103167983D01*
X151330500Y-103768001D01*
X151330501Y-103768019D01*
X151341000Y-103870796D01*
X151341001Y-103870799D01*
X151396185Y-104037331D01*
X151396187Y-104037336D01*
X151429839Y-104091894D01*
X151488288Y-104186656D01*
X151612344Y-104310712D01*
X151761666Y-104402814D01*
X151767299Y-104404680D01*
X151824744Y-104444448D01*
X151851571Y-104508963D01*
X151852300Y-104522387D01*
X151852300Y-105237556D01*
X151852299Y-105237582D01*
X151852299Y-105381310D01*
X151873258Y-105486673D01*
X151873258Y-105486674D01*
X151879340Y-105517255D01*
X151879343Y-105517264D01*
X151932386Y-105645323D01*
X152009401Y-105760585D01*
X152111736Y-105862920D01*
X152111758Y-105862940D01*
X152514274Y-106265456D01*
X152514303Y-106265487D01*
X152615414Y-106366598D01*
X152730676Y-106443613D01*
X152858733Y-106496655D01*
X152858738Y-106496657D01*
X152858742Y-106496657D01*
X152858743Y-106496658D01*
X152994688Y-106523700D01*
X152994691Y-106523700D01*
X152994692Y-106523700D01*
X153634584Y-106523700D01*
X153701623Y-106543385D01*
X153737781Y-106584799D01*
X153740395Y-106583187D01*
X153744185Y-106589332D01*
X153744186Y-106589334D01*
X153836288Y-106738656D01*
X153960344Y-106862712D01*
X154109666Y-106954814D01*
X154276203Y-107009999D01*
X154378991Y-107020500D01*
X155004008Y-107020499D01*
X155004016Y-107020498D01*
X155004019Y-107020498D01*
X155060302Y-107014748D01*
X155106797Y-107009999D01*
X155273334Y-106954814D01*
X155422656Y-106862712D01*
X155516319Y-106769049D01*
X155577642Y-106735564D01*
X155647334Y-106740548D01*
X155691681Y-106769049D01*
X155785344Y-106862712D01*
X155934666Y-106954814D01*
X156101203Y-107009999D01*
X156203991Y-107020500D01*
X156829008Y-107020499D01*
X156829016Y-107020498D01*
X156829019Y-107020498D01*
X156885302Y-107014748D01*
X156931797Y-107009999D01*
X157098334Y-106954814D01*
X157247656Y-106862712D01*
X157371712Y-106738656D01*
X157463814Y-106589334D01*
X157463814Y-106589332D01*
X157467605Y-106583187D01*
X157470263Y-106584827D01*
X157507158Y-106542886D01*
X157573416Y-106523700D01*
X160463756Y-106523700D01*
X160530795Y-106543385D01*
X160576550Y-106596189D01*
X160586494Y-106665347D01*
X160557469Y-106728903D01*
X160551437Y-106735381D01*
X159969749Y-107317067D01*
X159923024Y-107346427D01*
X159826476Y-107380211D01*
X159826475Y-107380212D01*
X159673737Y-107476184D01*
X159546184Y-107603737D01*
X159450211Y-107756476D01*
X159390631Y-107926745D01*
X159390630Y-107926750D01*
X159370435Y-108105996D01*
X159370435Y-108106003D01*
X159390630Y-108285249D01*
X159390631Y-108285254D01*
X159450211Y-108455523D01*
X159546184Y-108608262D01*
X159673738Y-108735816D01*
X159724543Y-108767739D01*
X159797361Y-108813494D01*
X159826478Y-108831789D01*
X159996745Y-108891368D01*
X159996750Y-108891369D01*
X160175996Y-108911565D01*
X160176000Y-108911565D01*
X160176004Y-108911565D01*
X160355249Y-108891369D01*
X160355252Y-108891368D01*
X160355255Y-108891368D01*
X160525522Y-108831789D01*
X160678262Y-108735816D01*
X160805816Y-108608262D01*
X160901789Y-108455522D01*
X160935572Y-108358974D01*
X160964930Y-108312250D01*
X161701163Y-107576019D01*
X161762486Y-107542534D01*
X161788844Y-107539700D01*
X163910558Y-107539700D01*
X163910578Y-107539701D01*
X163916692Y-107539701D01*
X164055310Y-107539701D01*
X164146768Y-107521507D01*
X164191262Y-107512657D01*
X164319327Y-107459611D01*
X164325480Y-107455500D01*
X164434583Y-107382600D01*
X164532600Y-107284583D01*
X164532601Y-107284581D01*
X164539667Y-107277515D01*
X164539670Y-107277511D01*
X165704579Y-106112602D01*
X165704583Y-106112600D01*
X165802600Y-106014583D01*
X165879611Y-105899327D01*
X165932657Y-105771262D01*
X165945141Y-105708500D01*
X165959700Y-105635309D01*
X165959700Y-105496692D01*
X165959700Y-104970399D01*
X165978705Y-104904428D01*
X165981789Y-104899522D01*
X166041368Y-104729255D01*
X166042129Y-104722500D01*
X166061565Y-104550003D01*
X166061565Y-104549996D01*
X166041369Y-104370750D01*
X166041368Y-104370745D01*
X166025664Y-104325866D01*
X165981789Y-104200478D01*
X165957297Y-104161500D01*
X165934115Y-104124605D01*
X165885816Y-104047738D01*
X165758262Y-103920184D01*
X165738297Y-103907639D01*
X165605523Y-103824211D01*
X165435254Y-103764631D01*
X165435249Y-103764630D01*
X165256004Y-103744435D01*
X165255996Y-103744435D01*
X165076750Y-103764630D01*
X165076745Y-103764631D01*
X164906476Y-103824211D01*
X164753737Y-103920184D01*
X164626184Y-104047737D01*
X164530211Y-104200476D01*
X164470631Y-104370745D01*
X164470630Y-104370750D01*
X164450435Y-104549996D01*
X164450435Y-104550003D01*
X164470630Y-104729249D01*
X164470631Y-104729254D01*
X164530209Y-104899518D01*
X164530210Y-104899520D01*
X164530211Y-104899522D01*
X164533294Y-104904428D01*
X164552300Y-104970399D01*
X164552300Y-105223156D01*
X164532615Y-105290195D01*
X164515981Y-105310837D01*
X163745340Y-106081477D01*
X163684017Y-106114962D01*
X163614325Y-106109978D01*
X163558392Y-106068106D01*
X163533975Y-106002642D01*
X163534439Y-105979912D01*
X163550618Y-105836321D01*
X163550618Y-105836315D01*
X163530422Y-105657069D01*
X163530421Y-105657064D01*
X163522809Y-105635309D01*
X163470842Y-105486797D01*
X163374869Y-105334057D01*
X163247315Y-105206503D01*
X163094576Y-105110530D01*
X162924307Y-105050950D01*
X162924302Y-105050949D01*
X162745057Y-105030754D01*
X162745049Y-105030754D01*
X162565803Y-105050949D01*
X162565790Y-105050952D01*
X162398927Y-105109341D01*
X162357972Y-105116300D01*
X157765670Y-105116300D01*
X157698631Y-105096615D01*
X157652876Y-105043811D01*
X157642932Y-104974653D01*
X157671957Y-104911097D01*
X157699698Y-104887306D01*
X157713323Y-104878745D01*
X157806312Y-104820316D01*
X157933866Y-104692762D01*
X158029839Y-104540022D01*
X158089418Y-104369755D01*
X158094363Y-104325863D01*
X158121428Y-104261451D01*
X158129890Y-104252077D01*
X158257361Y-104124608D01*
X158273939Y-104099797D01*
X158303653Y-104055328D01*
X158303654Y-104055326D01*
X158326028Y-104021841D01*
X158326029Y-104021838D01*
X158326033Y-104021833D01*
X158373335Y-103907635D01*
X158385400Y-103846980D01*
X158397450Y-103786405D01*
X158397450Y-103704231D01*
X158417135Y-103637192D01*
X158469939Y-103591437D01*
X158539097Y-103581493D01*
X158602653Y-103610518D01*
X158609131Y-103616550D01*
X158926589Y-103934008D01*
X158984025Y-103991444D01*
X159013993Y-104021412D01*
X159116760Y-104090079D01*
X159116773Y-104090086D01*
X159230960Y-104137383D01*
X159230965Y-104137385D01*
X159230969Y-104137385D01*
X159230970Y-104137386D01*
X159352194Y-104161500D01*
X159352197Y-104161500D01*
X161761804Y-104161500D01*
X161761805Y-104161499D01*
X161883035Y-104137386D01*
X161973781Y-104099797D01*
X161997233Y-104090083D01*
X162100008Y-104021411D01*
X162187411Y-103934008D01*
X164473411Y-101648008D01*
X164486572Y-101628311D01*
X164542083Y-101545233D01*
X164543875Y-101540908D01*
X164552802Y-101519354D01*
X164589385Y-101431035D01*
X164613500Y-101309803D01*
X164613500Y-100797281D01*
X164633185Y-100730242D01*
X164649819Y-100709600D01*
X166749601Y-98609819D01*
X166810924Y-98576334D01*
X166837282Y-98573500D01*
X168619804Y-98573500D01*
X168619805Y-98573499D01*
X168741035Y-98549386D01*
X168822110Y-98515803D01*
X168855233Y-98502083D01*
X168958008Y-98433411D01*
X169045411Y-98346008D01*
X169299411Y-98092008D01*
X169368083Y-97989233D01*
X169368084Y-97989230D01*
X169369124Y-97987674D01*
X169422736Y-97942868D01*
X169492061Y-97934161D01*
X169503157Y-97936629D01*
X169578000Y-97950619D01*
X169578000Y-97117686D01*
X169582394Y-97122080D01*
X169673606Y-97174741D01*
X169775339Y-97202000D01*
X169880661Y-97202000D01*
X169982394Y-97174741D01*
X170073606Y-97122080D01*
X170078000Y-97117686D01*
X170078000Y-97950619D01*
X170150939Y-97936984D01*
X170353976Y-97858327D01*
X170353987Y-97858322D01*
X170539130Y-97743685D01*
X170539131Y-97743685D01*
X170700054Y-97596985D01*
X170831284Y-97423208D01*
X170928348Y-97228280D01*
X170978505Y-97052000D01*
X170143686Y-97052000D01*
X170148080Y-97047606D01*
X170200741Y-96956394D01*
X170228000Y-96854661D01*
X170228000Y-96749339D01*
X170200741Y-96647606D01*
X170148080Y-96556394D01*
X170143686Y-96552000D01*
X170978505Y-96552000D01*
X170978505Y-96551999D01*
X170928348Y-96375719D01*
X170831284Y-96180791D01*
X170700056Y-96007017D01*
X170576055Y-95893976D01*
X170539774Y-95834265D01*
X170541534Y-95764417D01*
X170576052Y-95710704D01*
X170700427Y-95597322D01*
X170831712Y-95423472D01*
X170928817Y-95228459D01*
X170988435Y-95018923D01*
X171008536Y-94802000D01*
X170988435Y-94585077D01*
X170928817Y-94375541D01*
X170831712Y-94180528D01*
X170700427Y-94006678D01*
X170576423Y-93893634D01*
X170540145Y-93833927D01*
X170541905Y-93764079D01*
X170576423Y-93710365D01*
X170700427Y-93597322D01*
X170831712Y-93423472D01*
X170928817Y-93228459D01*
X170988435Y-93018923D01*
X171008536Y-92802000D01*
X170988435Y-92585077D01*
X170928817Y-92375541D01*
X170831712Y-92180528D01*
X170700427Y-92006678D01*
X170576423Y-91893634D01*
X170540145Y-91833927D01*
X170541905Y-91764079D01*
X170576423Y-91710365D01*
X170700427Y-91597322D01*
X170831712Y-91423472D01*
X170928817Y-91228459D01*
X170988435Y-91018923D01*
X171008536Y-90802000D01*
X171007971Y-90795908D01*
X171004150Y-90754673D01*
X170988435Y-90585077D01*
X170928817Y-90375541D01*
X170920660Y-90359161D01*
X170908399Y-90290376D01*
X170935272Y-90225881D01*
X170992748Y-90186153D01*
X171062578Y-90183805D01*
X171119342Y-90216208D01*
G37*
%TD.AperFunction*%
%TA.AperFunction,Conductor*%
G36*
X149338855Y-89468546D02*
G01*
X149355575Y-89487842D01*
X149485500Y-89673395D01*
X149485505Y-89673401D01*
X149652599Y-89840495D01*
X149749384Y-89908265D01*
X149846165Y-89976032D01*
X149846167Y-89976033D01*
X149846170Y-89976035D01*
X150060337Y-90075903D01*
X150060343Y-90075904D01*
X150060344Y-90075905D01*
X150115285Y-90090626D01*
X150288592Y-90137063D01*
X150465034Y-90152500D01*
X150523999Y-90157659D01*
X150524000Y-90157659D01*
X150524001Y-90157659D01*
X150582966Y-90152500D01*
X150759408Y-90137063D01*
X150887020Y-90102869D01*
X150956869Y-90104532D01*
X151006794Y-90134963D01*
X151707086Y-90835255D01*
X151740571Y-90896578D01*
X151735587Y-90966270D01*
X151693715Y-91022203D01*
X151666861Y-91037496D01*
X151661019Y-91039915D01*
X151661010Y-91039920D01*
X151558242Y-91108588D01*
X151558238Y-91108591D01*
X149327623Y-93339206D01*
X149266300Y-93372691D01*
X149196608Y-93367707D01*
X149147792Y-93334497D01*
X149066387Y-93244087D01*
X149066385Y-93244085D01*
X149066384Y-93244084D01*
X149066383Y-93244083D01*
X148921201Y-93138602D01*
X148921200Y-93138601D01*
X148757265Y-93065612D01*
X148757260Y-93065610D01*
X148581727Y-93028300D01*
X148402273Y-93028300D01*
X148226739Y-93065610D01*
X148226734Y-93065612D01*
X148062799Y-93138601D01*
X147917614Y-93244085D01*
X147917611Y-93244087D01*
X147797537Y-93377445D01*
X147707811Y-93532855D01*
X147707808Y-93532861D01*
X147656174Y-93691776D01*
X147652356Y-93703528D01*
X147633598Y-93882000D01*
X147652356Y-94060472D01*
X147652357Y-94060475D01*
X147707808Y-94231138D01*
X147707811Y-94231144D01*
X147797538Y-94386556D01*
X147832649Y-94425550D01*
X147862879Y-94488541D01*
X147864500Y-94508523D01*
X147864500Y-99212569D01*
X147844815Y-99279608D01*
X147792011Y-99325363D01*
X147722853Y-99335307D01*
X147688099Y-99324953D01*
X147668327Y-99315734D01*
X147668317Y-99315730D01*
X147448610Y-99256860D01*
X147448599Y-99256858D01*
X147222002Y-99237034D01*
X147221998Y-99237034D01*
X146995400Y-99256858D01*
X146995389Y-99256860D01*
X146775682Y-99315730D01*
X146775673Y-99315734D01*
X146569516Y-99411866D01*
X146569512Y-99411868D01*
X146496526Y-99462973D01*
X146496526Y-99462974D01*
X147175552Y-100142000D01*
X147169339Y-100142000D01*
X147067606Y-100169259D01*
X146976394Y-100221920D01*
X146901920Y-100296394D01*
X146849259Y-100387606D01*
X146822000Y-100489339D01*
X146822000Y-100495553D01*
X146117328Y-99790881D01*
X146101908Y-99772093D01*
X146059518Y-99708651D01*
X146059516Y-99708648D01*
X145944253Y-99593385D01*
X145944222Y-99593356D01*
X144644046Y-98293180D01*
X144610561Y-98231857D01*
X144615545Y-98162165D01*
X144657417Y-98106232D01*
X144722881Y-98081815D01*
X144731727Y-98081499D01*
X146137871Y-98081499D01*
X146137872Y-98081499D01*
X146197483Y-98075091D01*
X146332331Y-98024796D01*
X146447546Y-97938546D01*
X146533796Y-97823331D01*
X146584091Y-97688483D01*
X146590500Y-97628873D01*
X146590499Y-95733128D01*
X146584091Y-95673517D01*
X146576060Y-95651986D01*
X146533797Y-95538671D01*
X146533793Y-95538664D01*
X146447547Y-95423455D01*
X146447544Y-95423452D01*
X146332335Y-95337206D01*
X146332328Y-95337202D01*
X146252094Y-95307277D01*
X146196160Y-95265406D01*
X146171743Y-95199941D01*
X146186595Y-95131668D01*
X146204190Y-95107121D01*
X146298979Y-95004153D01*
X146425924Y-94809849D01*
X146519157Y-94597300D01*
X146576134Y-94372305D01*
X146587623Y-94233654D01*
X146595300Y-94141006D01*
X146595300Y-94140993D01*
X146576135Y-93909702D01*
X146576134Y-93909699D01*
X146576134Y-93909695D01*
X146561171Y-93850609D01*
X146563795Y-93780790D01*
X146593692Y-93732490D01*
X146649100Y-93677083D01*
X146726111Y-93561827D01*
X146779157Y-93433762D01*
X146783107Y-93413903D01*
X146806201Y-93297808D01*
X146806201Y-93159191D01*
X146806201Y-93154081D01*
X146806200Y-93154055D01*
X146806200Y-92971530D01*
X146825885Y-92904491D01*
X146842519Y-92883849D01*
X146882668Y-92843700D01*
X146957712Y-92768656D01*
X147049814Y-92619334D01*
X147104999Y-92452797D01*
X147115500Y-92350009D01*
X147115499Y-91349992D01*
X147114442Y-91339648D01*
X147104999Y-91247203D01*
X147104998Y-91247200D01*
X147098788Y-91228459D01*
X147049814Y-91080666D01*
X146957712Y-90931344D01*
X146833656Y-90807288D01*
X146740888Y-90750069D01*
X146684336Y-90715187D01*
X146684331Y-90715185D01*
X146671484Y-90710928D01*
X146517797Y-90660001D01*
X146517795Y-90660000D01*
X146415010Y-90649500D01*
X145789998Y-90649500D01*
X145789980Y-90649501D01*
X145687203Y-90660000D01*
X145687200Y-90660001D01*
X145520668Y-90715185D01*
X145520663Y-90715187D01*
X145371342Y-90807289D01*
X145277681Y-90900951D01*
X145216358Y-90934436D01*
X145146666Y-90929452D01*
X145102319Y-90900951D01*
X145008657Y-90807289D01*
X145008656Y-90807288D01*
X144915888Y-90750069D01*
X144859336Y-90715187D01*
X144859331Y-90715185D01*
X144846484Y-90710928D01*
X144692797Y-90660001D01*
X144692795Y-90660000D01*
X144590016Y-90649500D01*
X144590009Y-90649500D01*
X144493700Y-90649500D01*
X144426661Y-90629815D01*
X144380906Y-90577011D01*
X144369700Y-90525500D01*
X144369700Y-90271577D01*
X144389385Y-90204538D01*
X144442189Y-90158783D01*
X144506954Y-90148288D01*
X144546127Y-90152500D01*
X146341872Y-90152499D01*
X146401483Y-90146091D01*
X146536331Y-90095796D01*
X146651546Y-90009546D01*
X146737796Y-89894331D01*
X146786810Y-89762916D01*
X146828681Y-89706984D01*
X146894145Y-89682566D01*
X146962418Y-89697417D01*
X146990673Y-89718569D01*
X147112599Y-89840495D01*
X147209384Y-89908265D01*
X147306165Y-89976032D01*
X147306167Y-89976033D01*
X147306170Y-89976035D01*
X147520337Y-90075903D01*
X147520343Y-90075904D01*
X147520344Y-90075905D01*
X147575285Y-90090626D01*
X147748592Y-90137063D01*
X147925034Y-90152500D01*
X147983999Y-90157659D01*
X147984000Y-90157659D01*
X147984001Y-90157659D01*
X148042966Y-90152500D01*
X148219408Y-90137063D01*
X148447663Y-90075903D01*
X148661830Y-89976035D01*
X148855401Y-89840495D01*
X149022495Y-89673401D01*
X149152425Y-89487842D01*
X149207002Y-89444217D01*
X149276500Y-89437023D01*
X149338855Y-89468546D01*
G37*
%TD.AperFunction*%
%TA.AperFunction,Conductor*%
G36*
X158770898Y-98582827D02*
G01*
X158793412Y-98600642D01*
X159092226Y-98899456D01*
X159092255Y-98899487D01*
X159193366Y-99000598D01*
X159308628Y-99077613D01*
X159436685Y-99130655D01*
X159436690Y-99130657D01*
X159436694Y-99130657D01*
X159436695Y-99130658D01*
X159572640Y-99157700D01*
X159572643Y-99157700D01*
X160245309Y-99157700D01*
X160258182Y-99155139D01*
X160296259Y-99147565D01*
X160365849Y-99153792D01*
X160421027Y-99196654D01*
X160444272Y-99262543D01*
X160444450Y-99269182D01*
X160444450Y-99280777D01*
X160451143Y-99331611D01*
X160458654Y-99388663D01*
X160460324Y-99401342D01*
X160457349Y-99401733D01*
X160457349Y-99434366D01*
X160460324Y-99434758D01*
X160459263Y-99442812D01*
X160459263Y-99442814D01*
X160456609Y-99462973D01*
X160444450Y-99555322D01*
X160444450Y-99577010D01*
X160424765Y-99644049D01*
X160371961Y-99689804D01*
X160302803Y-99699748D01*
X160239247Y-99670723D01*
X160232769Y-99664691D01*
X160170262Y-99602184D01*
X160017523Y-99506211D01*
X159847254Y-99446631D01*
X159847249Y-99446630D01*
X159668004Y-99426435D01*
X159667996Y-99426435D01*
X159488750Y-99446630D01*
X159488745Y-99446631D01*
X159318476Y-99506211D01*
X159165737Y-99602184D01*
X159038184Y-99729737D01*
X158942211Y-99882476D01*
X158882631Y-100052745D01*
X158882630Y-100052750D01*
X158862386Y-100232433D01*
X158835320Y-100296847D01*
X158777725Y-100336402D01*
X158739166Y-100342550D01*
X158657222Y-100342550D01*
X158561742Y-100355121D01*
X158544714Y-100357363D01*
X158544713Y-100357363D01*
X158536657Y-100358424D01*
X158536422Y-100356645D01*
X158502679Y-100358854D01*
X158419950Y-100347961D01*
X158417795Y-100349851D01*
X158400265Y-100409552D01*
X158371437Y-100440888D01*
X158345436Y-100460839D01*
X158280269Y-100486034D01*
X158211824Y-100471996D01*
X158194465Y-100460840D01*
X158168462Y-100440888D01*
X158127260Y-100384460D01*
X158121070Y-100348944D01*
X158119949Y-100347961D01*
X158037220Y-100358854D01*
X158003477Y-100356643D01*
X158003243Y-100358424D01*
X157995186Y-100357363D01*
X157975401Y-100354758D01*
X157882677Y-100342550D01*
X157882670Y-100342550D01*
X157657230Y-100342550D01*
X157657225Y-100342550D01*
X157657217Y-100342551D01*
X157614534Y-100348170D01*
X157545498Y-100337404D01*
X157493243Y-100291023D01*
X157474350Y-100225231D01*
X157474350Y-99662193D01*
X157494035Y-99595154D01*
X157510665Y-99574516D01*
X158337440Y-98747740D01*
X158377666Y-98720863D01*
X158525448Y-98659650D01*
X158525447Y-98659650D01*
X158525453Y-98659648D01*
X158636840Y-98585221D01*
X158703518Y-98564343D01*
X158770898Y-98582827D01*
G37*
%TD.AperFunction*%
%TA.AperFunction,Conductor*%
G36*
X157239073Y-96561185D02*
G01*
X157284828Y-96613989D01*
X157293601Y-96669037D01*
X157295635Y-96669037D01*
X157295635Y-96676000D01*
X157315830Y-96855249D01*
X157315831Y-96855254D01*
X157375411Y-97025523D01*
X157471384Y-97178262D01*
X157534446Y-97241324D01*
X157567931Y-97302647D01*
X157562947Y-97372339D01*
X157534448Y-97416684D01*
X157518486Y-97432646D01*
X157518482Y-97432651D01*
X157430350Y-97564549D01*
X157369138Y-97712330D01*
X157342258Y-97752558D01*
X156823382Y-98271435D01*
X156322070Y-98772747D01*
X156322067Y-98772750D01*
X156224050Y-98870767D01*
X156168446Y-98953986D01*
X156168432Y-98954007D01*
X156168431Y-98954008D01*
X156147037Y-98986025D01*
X156147036Y-98986027D01*
X156093993Y-99114085D01*
X156093991Y-99114093D01*
X156066949Y-99250039D01*
X156066949Y-99394771D01*
X156066950Y-99394792D01*
X156066950Y-99505695D01*
X156047265Y-99572734D01*
X155994461Y-99618489D01*
X155929067Y-99628915D01*
X155749954Y-99608735D01*
X155749946Y-99608735D01*
X155570700Y-99628930D01*
X155570692Y-99628932D01*
X155454904Y-99669448D01*
X155385125Y-99673009D01*
X155324498Y-99638280D01*
X155292271Y-99576286D01*
X155289950Y-99552406D01*
X155289950Y-98459132D01*
X155278454Y-98401342D01*
X155276852Y-98393286D01*
X155265836Y-98337903D01*
X155226622Y-98243233D01*
X155218533Y-98223704D01*
X155205367Y-98204000D01*
X155149864Y-98120933D01*
X155149863Y-98120931D01*
X155107116Y-98078184D01*
X155062458Y-98033526D01*
X154887254Y-97858322D01*
X154709574Y-97680641D01*
X154709573Y-97680640D01*
X154668957Y-97653502D01*
X154668956Y-97653501D01*
X154649246Y-97640331D01*
X154604441Y-97586718D01*
X154595198Y-97553414D01*
X154579576Y-97434755D01*
X154581356Y-97434520D01*
X154579146Y-97400779D01*
X154590038Y-97318050D01*
X154588148Y-97315895D01*
X154528448Y-97298365D01*
X154497112Y-97269538D01*
X154492863Y-97264001D01*
X154477160Y-97243536D01*
X154451966Y-97178369D01*
X154466004Y-97109924D01*
X154477161Y-97092562D01*
X154497112Y-97066562D01*
X154553540Y-97025360D01*
X154589055Y-97019170D01*
X154590038Y-97018049D01*
X154579146Y-96935320D01*
X154581359Y-96901579D01*
X154579576Y-96901345D01*
X154583003Y-96875315D01*
X154591461Y-96811064D01*
X154619727Y-96747170D01*
X154678051Y-96708698D01*
X154700505Y-96704032D01*
X154767255Y-96696512D01*
X154767258Y-96696511D01*
X154767262Y-96696510D01*
X154907020Y-96647606D01*
X154937522Y-96636933D01*
X155059155Y-96560505D01*
X155125127Y-96541500D01*
X157172034Y-96541500D01*
X157239073Y-96561185D01*
G37*
%TD.AperFunction*%
%TA.AperFunction,Conductor*%
G36*
X151165775Y-95786934D02*
G01*
X151176805Y-95796724D01*
X151231952Y-95851871D01*
X151265437Y-95913194D01*
X151260453Y-95982886D01*
X151223321Y-96032486D01*
X151224446Y-96033735D01*
X151219616Y-96038083D01*
X151099537Y-96171445D01*
X151009811Y-96326855D01*
X151009808Y-96326861D01*
X150972105Y-96442901D01*
X150954356Y-96497528D01*
X150935598Y-96676000D01*
X150954356Y-96854472D01*
X150954357Y-96854475D01*
X151009808Y-97025138D01*
X151009811Y-97025144D01*
X151099535Y-97180552D01*
X151099537Y-97180555D01*
X151099538Y-97180556D01*
X151118846Y-97202000D01*
X151146012Y-97232171D01*
X151175479Y-97290951D01*
X151190612Y-97367030D01*
X151190613Y-97367032D01*
X151190614Y-97367035D01*
X151217794Y-97432651D01*
X151237913Y-97481226D01*
X151237920Y-97481238D01*
X151251872Y-97502118D01*
X151294191Y-97565453D01*
X151300225Y-97574483D01*
X151306589Y-97584009D01*
X151306591Y-97584011D01*
X151790639Y-98068058D01*
X151843510Y-98120929D01*
X151878043Y-98155462D01*
X151980810Y-98224129D01*
X151980823Y-98224136D01*
X152053417Y-98254205D01*
X152107821Y-98298045D01*
X152128903Y-98352579D01*
X152129680Y-98358478D01*
X152135324Y-98401342D01*
X152132349Y-98401733D01*
X152132349Y-98434366D01*
X152135324Y-98434758D01*
X152134263Y-98442812D01*
X152134263Y-98442814D01*
X152130888Y-98468443D01*
X152119450Y-98555322D01*
X152119450Y-98780777D01*
X152135324Y-98901342D01*
X152132349Y-98901733D01*
X152132349Y-98934366D01*
X152135324Y-98934758D01*
X152134263Y-98942812D01*
X152134263Y-98942814D01*
X152132493Y-98956262D01*
X152119450Y-99055322D01*
X152119450Y-99280763D01*
X152119451Y-99280779D01*
X152135195Y-99400365D01*
X152124430Y-99469400D01*
X152078050Y-99521656D01*
X152012256Y-99540550D01*
X151279331Y-99540550D01*
X151212292Y-99520865D01*
X151191650Y-99504231D01*
X150679819Y-98992400D01*
X150646334Y-98931077D01*
X150643500Y-98904719D01*
X150643500Y-96260598D01*
X150663185Y-96193559D01*
X150694612Y-96160282D01*
X150778964Y-96098998D01*
X150899043Y-95965637D01*
X150981738Y-95822403D01*
X151032303Y-95774190D01*
X151100910Y-95760966D01*
X151165775Y-95786934D01*
G37*
%TD.AperFunction*%
%TA.AperFunction,Conductor*%
G36*
X165309834Y-94925861D02*
G01*
X165365767Y-94967733D01*
X165390184Y-95033197D01*
X165390500Y-95042043D01*
X165390500Y-95825902D01*
X165370815Y-95892941D01*
X165354181Y-95913583D01*
X163893960Y-97373803D01*
X163832637Y-97407288D01*
X163762945Y-97402304D01*
X163707012Y-97360432D01*
X163699636Y-97348284D01*
X163699494Y-97348374D01*
X163646478Y-97264000D01*
X163599816Y-97189738D01*
X163472262Y-97062184D01*
X163437114Y-97040099D01*
X163319523Y-96966211D01*
X163149254Y-96906631D01*
X163149250Y-96906630D01*
X163023255Y-96892434D01*
X162958841Y-96865367D01*
X162943911Y-96850973D01*
X162913148Y-96815895D01*
X162853448Y-96798365D01*
X162822112Y-96769538D01*
X162811198Y-96755315D01*
X162802160Y-96743536D01*
X162776966Y-96678369D01*
X162791004Y-96609924D01*
X162802161Y-96592562D01*
X162822112Y-96566562D01*
X162878540Y-96525360D01*
X162914055Y-96519170D01*
X162915037Y-96518050D01*
X162914233Y-96511936D01*
X162924998Y-96442901D01*
X162971378Y-96390645D01*
X163037172Y-96371750D01*
X163394508Y-96371750D01*
X163394528Y-96371751D01*
X163400642Y-96371751D01*
X163539260Y-96371751D01*
X163636035Y-96352500D01*
X163675212Y-96344707D01*
X163803277Y-96291661D01*
X163810531Y-96286814D01*
X163811081Y-96286447D01*
X163849766Y-96260598D01*
X163918533Y-96214650D01*
X164016550Y-96116633D01*
X164016551Y-96116631D01*
X164023617Y-96109565D01*
X164023619Y-96109561D01*
X165178820Y-94954360D01*
X165240142Y-94920877D01*
X165309834Y-94925861D01*
G37*
%TD.AperFunction*%
%TA.AperFunction,Conductor*%
G36*
X167009543Y-87746485D02*
G01*
X167055298Y-87799289D01*
X167065242Y-87868447D01*
X167036217Y-87932003D01*
X167026042Y-87942437D01*
X166955574Y-88006676D01*
X166824288Y-88180527D01*
X166727184Y-88375537D01*
X166667564Y-88585080D01*
X166661873Y-88646495D01*
X166636086Y-88711432D01*
X166626083Y-88722733D01*
X165675739Y-89673078D01*
X164807420Y-90541397D01*
X164807417Y-90541400D01*
X164781173Y-90567644D01*
X164709400Y-90639416D01*
X164632386Y-90754676D01*
X164579343Y-90882735D01*
X164579341Y-90882743D01*
X164552299Y-91018689D01*
X164552299Y-91163421D01*
X164552300Y-91163442D01*
X164552300Y-93539156D01*
X164532615Y-93606195D01*
X164515981Y-93626837D01*
X163214787Y-94928031D01*
X163153464Y-94961516D01*
X163127106Y-94964350D01*
X163037676Y-94964350D01*
X162970637Y-94944665D01*
X162924882Y-94891861D01*
X162914737Y-94824164D01*
X162920449Y-94780777D01*
X162920450Y-94780770D01*
X162920450Y-94555330D01*
X162905637Y-94442814D01*
X162847648Y-94302817D01*
X162755401Y-94182599D01*
X162635183Y-94090352D01*
X162635179Y-94090350D01*
X162552248Y-94055999D01*
X162495186Y-94032363D01*
X162480807Y-94030470D01*
X162382677Y-94017550D01*
X162382670Y-94017550D01*
X161089940Y-94017550D01*
X161022901Y-93997865D01*
X161002259Y-93981231D01*
X160956769Y-93935741D01*
X160923284Y-93874418D01*
X160920450Y-93848060D01*
X160920450Y-92555336D01*
X160920449Y-92555322D01*
X160919700Y-92549636D01*
X160905637Y-92442814D01*
X160847648Y-92302817D01*
X160755401Y-92182599D01*
X160635183Y-92090352D01*
X160635179Y-92090350D01*
X160519948Y-92042620D01*
X160495186Y-92032363D01*
X160480648Y-92030449D01*
X160382677Y-92017550D01*
X160382670Y-92017550D01*
X160157230Y-92017550D01*
X160157222Y-92017550D01*
X160070343Y-92028988D01*
X160044714Y-92032363D01*
X160044712Y-92032363D01*
X160036658Y-92033424D01*
X160036266Y-92030449D01*
X160003634Y-92030449D01*
X160003242Y-92033424D01*
X159995187Y-92032363D01*
X159995186Y-92032363D01*
X159966221Y-92028549D01*
X159882677Y-92017550D01*
X159882670Y-92017550D01*
X159657230Y-92017550D01*
X159657222Y-92017550D01*
X159570343Y-92028988D01*
X159544714Y-92032363D01*
X159544712Y-92032363D01*
X159536658Y-92033424D01*
X159536266Y-92030449D01*
X159503634Y-92030449D01*
X159503242Y-92033424D01*
X159495187Y-92032363D01*
X159495186Y-92032363D01*
X159466221Y-92028549D01*
X159382677Y-92017550D01*
X159382670Y-92017550D01*
X159157230Y-92017550D01*
X159157222Y-92017550D01*
X159070343Y-92028988D01*
X159044714Y-92032363D01*
X159044712Y-92032363D01*
X159036658Y-92033424D01*
X159036266Y-92030449D01*
X159003634Y-92030449D01*
X159003242Y-92033424D01*
X158995187Y-92032363D01*
X158995186Y-92032363D01*
X158966221Y-92028549D01*
X158882677Y-92017550D01*
X158882670Y-92017550D01*
X158657230Y-92017550D01*
X158657222Y-92017550D01*
X158570343Y-92028988D01*
X158544714Y-92032363D01*
X158544712Y-92032363D01*
X158536658Y-92033424D01*
X158536266Y-92030449D01*
X158503634Y-92030449D01*
X158503242Y-92033424D01*
X158495187Y-92032363D01*
X158495186Y-92032363D01*
X158466221Y-92028549D01*
X158382677Y-92017550D01*
X158382670Y-92017550D01*
X158157230Y-92017550D01*
X158157224Y-92017550D01*
X158157220Y-92017551D01*
X158037635Y-92033295D01*
X157968600Y-92022530D01*
X157916344Y-91976150D01*
X157897450Y-91910356D01*
X157897450Y-91633196D01*
X157897449Y-91633195D01*
X157888165Y-91586517D01*
X157873336Y-91511966D01*
X157835787Y-91421315D01*
X157835787Y-91421314D01*
X157826036Y-91397773D01*
X157826029Y-91397760D01*
X157757362Y-91294993D01*
X157714122Y-91251753D01*
X157669958Y-91207589D01*
X157386952Y-90924583D01*
X157062963Y-90600593D01*
X157062957Y-90600588D01*
X157060727Y-90599098D01*
X157060727Y-90599097D01*
X156960189Y-90531920D01*
X156960176Y-90531913D01*
X156926735Y-90518062D01*
X156845985Y-90484614D01*
X156845977Y-90484612D01*
X156724757Y-90460500D01*
X156724753Y-90460500D01*
X153158531Y-90460500D01*
X153091492Y-90440815D01*
X153070850Y-90424181D01*
X153013251Y-90366582D01*
X152979766Y-90305259D01*
X152984750Y-90235567D01*
X153026622Y-90179634D01*
X153090123Y-90155373D01*
X153299408Y-90137063D01*
X153527663Y-90075903D01*
X153741830Y-89976035D01*
X153935401Y-89840495D01*
X154102495Y-89673401D01*
X154232730Y-89487405D01*
X154287307Y-89443781D01*
X154356805Y-89436587D01*
X154419160Y-89468110D01*
X154435879Y-89487405D01*
X154565890Y-89673078D01*
X154732917Y-89840105D01*
X154926421Y-89975600D01*
X155140507Y-90075429D01*
X155140516Y-90075433D01*
X155354000Y-90132634D01*
X155354000Y-89235012D01*
X155411007Y-89267925D01*
X155538174Y-89302000D01*
X155669826Y-89302000D01*
X155796993Y-89267925D01*
X155854000Y-89235012D01*
X155854000Y-90132633D01*
X156067483Y-90075433D01*
X156067492Y-90075429D01*
X156281578Y-89975600D01*
X156475082Y-89840105D01*
X156642105Y-89673082D01*
X156772425Y-89486968D01*
X156827002Y-89443344D01*
X156896501Y-89436151D01*
X156958855Y-89467673D01*
X156975575Y-89486968D01*
X157105894Y-89673082D01*
X157272917Y-89840105D01*
X157466421Y-89975600D01*
X157680507Y-90075429D01*
X157680516Y-90075433D01*
X157894000Y-90132634D01*
X157894000Y-89235012D01*
X157951007Y-89267925D01*
X158078174Y-89302000D01*
X158209826Y-89302000D01*
X158336993Y-89267925D01*
X158394000Y-89235012D01*
X158394000Y-90132633D01*
X158607483Y-90075433D01*
X158607492Y-90075429D01*
X158821578Y-89975600D01*
X159015082Y-89840105D01*
X159182105Y-89673082D01*
X159312119Y-89487405D01*
X159366696Y-89443781D01*
X159436195Y-89436588D01*
X159498549Y-89468110D01*
X159515269Y-89487405D01*
X159645505Y-89673401D01*
X159812599Y-89840495D01*
X159909384Y-89908265D01*
X160006165Y-89976032D01*
X160006167Y-89976033D01*
X160006170Y-89976035D01*
X160220337Y-90075903D01*
X160220343Y-90075904D01*
X160220344Y-90075905D01*
X160275285Y-90090626D01*
X160448592Y-90137063D01*
X160625034Y-90152500D01*
X160683999Y-90157659D01*
X160684000Y-90157659D01*
X160684001Y-90157659D01*
X160742966Y-90152500D01*
X160919408Y-90137063D01*
X161147663Y-90075903D01*
X161361830Y-89976035D01*
X161555401Y-89840495D01*
X161722495Y-89673401D01*
X161852425Y-89487842D01*
X161907002Y-89444217D01*
X161976500Y-89437023D01*
X162038855Y-89468546D01*
X162055575Y-89487842D01*
X162185500Y-89673395D01*
X162185505Y-89673401D01*
X162352599Y-89840495D01*
X162449384Y-89908265D01*
X162546165Y-89976032D01*
X162546167Y-89976033D01*
X162546170Y-89976035D01*
X162760337Y-90075903D01*
X162760343Y-90075904D01*
X162760344Y-90075905D01*
X162815285Y-90090626D01*
X162988592Y-90137063D01*
X163165034Y-90152500D01*
X163223999Y-90157659D01*
X163224000Y-90157659D01*
X163224001Y-90157659D01*
X163282966Y-90152500D01*
X163459408Y-90137063D01*
X163687663Y-90075903D01*
X163901830Y-89976035D01*
X164095401Y-89840495D01*
X164262495Y-89673401D01*
X164398035Y-89479830D01*
X164497903Y-89265663D01*
X164559063Y-89037408D01*
X164579659Y-88802000D01*
X164559063Y-88566592D01*
X164498455Y-88340396D01*
X164497905Y-88338344D01*
X164497904Y-88338343D01*
X164497903Y-88338337D01*
X164398035Y-88124171D01*
X164392730Y-88116595D01*
X164262489Y-87930590D01*
X164262411Y-87930497D01*
X164262389Y-87930447D01*
X164259390Y-87926164D01*
X164260251Y-87925560D01*
X164234403Y-87866487D01*
X164245449Y-87797496D01*
X164292040Y-87745428D01*
X164357407Y-87726800D01*
X166942504Y-87726800D01*
X167009543Y-87746485D01*
G37*
%TD.AperFunction*%
%TA.AperFunction,Conductor*%
G36*
X154106566Y-92243185D02*
G01*
X154152321Y-92295989D01*
X154162265Y-92365147D01*
X154154088Y-92394953D01*
X154134263Y-92442813D01*
X154134263Y-92442814D01*
X154119450Y-92555322D01*
X154119450Y-93332800D01*
X154099765Y-93399839D01*
X154046961Y-93445594D01*
X153995450Y-93456800D01*
X151284231Y-93456800D01*
X151217192Y-93437115D01*
X151171437Y-93384311D01*
X151161493Y-93315153D01*
X151190518Y-93251597D01*
X151196550Y-93245119D01*
X152181850Y-92259819D01*
X152243173Y-92226334D01*
X152269531Y-92223500D01*
X154039527Y-92223500D01*
X154106566Y-92243185D01*
G37*
%TD.AperFunction*%
%TA.AperFunction,Conductor*%
G36*
X157678075Y-88609007D02*
G01*
X157644000Y-88736174D01*
X157644000Y-88867826D01*
X157678075Y-88994993D01*
X157710988Y-89052000D01*
X156037012Y-89052000D01*
X156069925Y-88994993D01*
X156104000Y-88867826D01*
X156104000Y-88736174D01*
X156069925Y-88609007D01*
X156037012Y-88552000D01*
X157710988Y-88552000D01*
X157678075Y-88609007D01*
G37*
%TD.AperFunction*%
%TA.AperFunction,Conductor*%
G36*
X158059927Y-86807585D02*
G01*
X158080569Y-86824219D01*
X158522630Y-87266280D01*
X158556115Y-87327603D01*
X158551131Y-87397295D01*
X158509259Y-87453228D01*
X158443795Y-87477645D01*
X158402856Y-87473736D01*
X158394001Y-87471363D01*
X158394000Y-87471364D01*
X158394000Y-88368988D01*
X158336993Y-88336075D01*
X158209826Y-88302000D01*
X158078174Y-88302000D01*
X157951007Y-88336075D01*
X157894000Y-88368988D01*
X157894000Y-87471364D01*
X157893999Y-87471364D01*
X157680513Y-87528567D01*
X157680507Y-87528570D01*
X157466422Y-87628399D01*
X157466420Y-87628400D01*
X157272926Y-87763886D01*
X157272920Y-87763891D01*
X157105891Y-87930920D01*
X157105890Y-87930922D01*
X156975575Y-88117031D01*
X156920998Y-88160655D01*
X156851499Y-88167848D01*
X156789145Y-88136326D01*
X156772425Y-88117031D01*
X156642109Y-87930922D01*
X156642108Y-87930920D01*
X156475082Y-87763894D01*
X156281578Y-87628399D01*
X156067492Y-87528570D01*
X156067486Y-87528567D01*
X155854000Y-87471364D01*
X155854000Y-88368988D01*
X155796993Y-88336075D01*
X155669826Y-88302000D01*
X155538174Y-88302000D01*
X155411007Y-88336075D01*
X155354000Y-88368988D01*
X155354000Y-87471364D01*
X155353999Y-87471364D01*
X155140513Y-87528567D01*
X155140507Y-87528570D01*
X154926422Y-87628399D01*
X154926420Y-87628400D01*
X154732926Y-87763886D01*
X154732920Y-87763891D01*
X154565891Y-87930920D01*
X154565890Y-87930922D01*
X154435880Y-88116595D01*
X154381303Y-88160219D01*
X154311804Y-88167412D01*
X154249450Y-88135890D01*
X154232730Y-88116594D01*
X154102494Y-87930597D01*
X153935402Y-87763506D01*
X153935395Y-87763501D01*
X153741834Y-87627967D01*
X153741830Y-87627965D01*
X153696474Y-87606815D01*
X153527663Y-87528097D01*
X153527659Y-87528096D01*
X153527655Y-87528094D01*
X153299413Y-87466938D01*
X153299403Y-87466936D01*
X153064001Y-87446341D01*
X153063999Y-87446341D01*
X152828596Y-87466936D01*
X152828586Y-87466938D01*
X152600344Y-87528094D01*
X152600335Y-87528098D01*
X152386171Y-87627964D01*
X152386169Y-87627965D01*
X152192597Y-87763505D01*
X152025505Y-87930597D01*
X151895575Y-88116158D01*
X151840998Y-88159783D01*
X151771500Y-88166977D01*
X151709145Y-88135454D01*
X151692425Y-88116158D01*
X151562494Y-87930597D01*
X151395402Y-87763506D01*
X151395395Y-87763501D01*
X151201834Y-87627967D01*
X151201830Y-87627965D01*
X151156474Y-87606815D01*
X150987663Y-87528097D01*
X150987659Y-87528096D01*
X150987655Y-87528094D01*
X150759413Y-87466938D01*
X150759403Y-87466936D01*
X150524001Y-87446341D01*
X150523999Y-87446341D01*
X150288596Y-87466936D01*
X150288586Y-87466938D01*
X150060344Y-87528094D01*
X150060335Y-87528098D01*
X149846171Y-87627964D01*
X149846169Y-87627965D01*
X149652597Y-87763505D01*
X149485505Y-87930597D01*
X149355575Y-88116158D01*
X149300998Y-88159783D01*
X149231500Y-88166977D01*
X149169145Y-88135454D01*
X149152425Y-88116158D01*
X149022494Y-87930597D01*
X148855402Y-87763506D01*
X148855395Y-87763501D01*
X148661834Y-87627967D01*
X148661830Y-87627965D01*
X148616474Y-87606815D01*
X148447663Y-87528097D01*
X148447659Y-87528096D01*
X148447655Y-87528094D01*
X148219413Y-87466938D01*
X148219403Y-87466936D01*
X147984001Y-87446341D01*
X147983999Y-87446341D01*
X147748596Y-87466936D01*
X147748586Y-87466938D01*
X147520344Y-87528094D01*
X147520335Y-87528098D01*
X147306171Y-87627964D01*
X147306169Y-87627965D01*
X147112600Y-87763503D01*
X146990673Y-87885430D01*
X146929350Y-87918914D01*
X146859658Y-87913930D01*
X146803725Y-87872058D01*
X146786810Y-87841081D01*
X146737797Y-87709671D01*
X146737793Y-87709664D01*
X146651547Y-87594455D01*
X146651544Y-87594452D01*
X146536335Y-87508206D01*
X146536328Y-87508202D01*
X146401482Y-87457908D01*
X146401483Y-87457908D01*
X146341883Y-87451501D01*
X146341881Y-87451500D01*
X146341873Y-87451500D01*
X146341864Y-87451500D01*
X144546129Y-87451500D01*
X144546123Y-87451501D01*
X144506953Y-87455712D01*
X144438194Y-87443305D01*
X144387057Y-87395694D01*
X144369700Y-87332422D01*
X144369700Y-86911900D01*
X144389385Y-86844861D01*
X144442189Y-86799106D01*
X144493700Y-86787900D01*
X157992888Y-86787900D01*
X158059927Y-86807585D01*
G37*
%TD.AperFunction*%
%TA.AperFunction,Conductor*%
G36*
X182391139Y-84375185D02*
G01*
X182436894Y-84427989D01*
X182448100Y-84479500D01*
X182448100Y-116180500D01*
X182428415Y-116247539D01*
X182375611Y-116293294D01*
X182324100Y-116304500D01*
X125123100Y-116304500D01*
X125056061Y-116284815D01*
X125010306Y-116232011D01*
X124999100Y-116180500D01*
X124999100Y-101494001D01*
X126500500Y-101494001D01*
X126500501Y-101494019D01*
X126511000Y-101596796D01*
X126511001Y-101596799D01*
X126566185Y-101763331D01*
X126566187Y-101763336D01*
X126588512Y-101799531D01*
X126658288Y-101912656D01*
X126782344Y-102036712D01*
X126931666Y-102128814D01*
X127098203Y-102183999D01*
X127200991Y-102194500D01*
X127420270Y-102194499D01*
X127487310Y-102214183D01*
X127507952Y-102230818D01*
X127912647Y-102635514D01*
X127912651Y-102635517D01*
X128044547Y-102723648D01*
X128044548Y-102723648D01*
X128044549Y-102723649D01*
X128044551Y-102723650D01*
X128188276Y-102783182D01*
X128191103Y-102784353D01*
X128191107Y-102784353D01*
X128191108Y-102784354D01*
X128346682Y-102815301D01*
X128346685Y-102815301D01*
X128416694Y-102815301D01*
X128421395Y-102815565D01*
X128426000Y-102815565D01*
X128430605Y-102815565D01*
X128435306Y-102815301D01*
X128505318Y-102815301D01*
X128609981Y-102794481D01*
X128660897Y-102784353D01*
X128807453Y-102723648D01*
X128939349Y-102635517D01*
X129051517Y-102523349D01*
X129139648Y-102391453D01*
X129183056Y-102286657D01*
X129189522Y-102271047D01*
X129233363Y-102216643D01*
X129299657Y-102194578D01*
X129304083Y-102194499D01*
X129651002Y-102194499D01*
X129651008Y-102194499D01*
X129753797Y-102183999D01*
X129920334Y-102128814D01*
X130069656Y-102036712D01*
X130193712Y-101912656D01*
X130285814Y-101763334D01*
X130340999Y-101596797D01*
X130351500Y-101494009D01*
X130351499Y-100493992D01*
X130348112Y-100460839D01*
X130340999Y-100391203D01*
X130340998Y-100391200D01*
X130332046Y-100364184D01*
X130285814Y-100224666D01*
X130193712Y-100075344D01*
X130078519Y-99960151D01*
X130045034Y-99898828D01*
X130042200Y-99872470D01*
X130042200Y-99575530D01*
X130061885Y-99508491D01*
X130078519Y-99487849D01*
X130132580Y-99433788D01*
X130193712Y-99372656D01*
X130285814Y-99223334D01*
X130285814Y-99223332D01*
X130289605Y-99217187D01*
X130292263Y-99218827D01*
X130329158Y-99176886D01*
X130395416Y-99157700D01*
X131758625Y-99157700D01*
X131825664Y-99177385D01*
X131854145Y-99206167D01*
X131855841Y-99204816D01*
X131860184Y-99210262D01*
X131987738Y-99337816D01*
X132076018Y-99393286D01*
X132115429Y-99418050D01*
X132140478Y-99433789D01*
X132294973Y-99487849D01*
X132310745Y-99493368D01*
X132310750Y-99493369D01*
X132489996Y-99513565D01*
X132490000Y-99513565D01*
X132490004Y-99513565D01*
X132669249Y-99493369D01*
X132669252Y-99493368D01*
X132669255Y-99493368D01*
X132839522Y-99433789D01*
X132992262Y-99337816D01*
X133119816Y-99210262D01*
X133215789Y-99057522D01*
X133275368Y-98887255D01*
X133283710Y-98813220D01*
X133295565Y-98708003D01*
X133295565Y-98707996D01*
X133275369Y-98528750D01*
X133275368Y-98528745D01*
X133249215Y-98454003D01*
X133215789Y-98358478D01*
X133119816Y-98205738D01*
X132992262Y-98078184D01*
X132921191Y-98033527D01*
X132839521Y-97982210D01*
X132742979Y-97948429D01*
X132696252Y-97919068D01*
X132684585Y-97907401D01*
X132569323Y-97830386D01*
X132441266Y-97777344D01*
X132441262Y-97777343D01*
X132426291Y-97774365D01*
X132328564Y-97754925D01*
X132305309Y-97750299D01*
X132305308Y-97750299D01*
X132166692Y-97750299D01*
X132160578Y-97750299D01*
X132160558Y-97750300D01*
X130395416Y-97750300D01*
X130328377Y-97730615D01*
X130292218Y-97689200D01*
X130289605Y-97690813D01*
X130283331Y-97680641D01*
X130193712Y-97535344D01*
X130069656Y-97411288D01*
X129958097Y-97342478D01*
X129920336Y-97319187D01*
X129920331Y-97319185D01*
X129879986Y-97305816D01*
X129753797Y-97264001D01*
X129753795Y-97264000D01*
X129651010Y-97253500D01*
X129025998Y-97253500D01*
X129025980Y-97253501D01*
X128923203Y-97264000D01*
X128923200Y-97264001D01*
X128756668Y-97319185D01*
X128756663Y-97319187D01*
X128607345Y-97411287D01*
X128513327Y-97505305D01*
X128452003Y-97538789D01*
X128382312Y-97533805D01*
X128337965Y-97505304D01*
X128244345Y-97411684D01*
X128095124Y-97319643D01*
X128095119Y-97319641D01*
X127928697Y-97264494D01*
X127928690Y-97264493D01*
X127825986Y-97254000D01*
X127763500Y-97254000D01*
X127763500Y-98580000D01*
X127743815Y-98647039D01*
X127691011Y-98692794D01*
X127639500Y-98704000D01*
X126501001Y-98704000D01*
X126501001Y-98953986D01*
X126511494Y-99056697D01*
X126566641Y-99223119D01*
X126566643Y-99223124D01*
X126658684Y-99372345D01*
X126782654Y-99496315D01*
X126931875Y-99588356D01*
X126931882Y-99588359D01*
X126985211Y-99606030D01*
X127042656Y-99645802D01*
X127069480Y-99710317D01*
X127057166Y-99779093D01*
X127009623Y-99830294D01*
X126985214Y-99841441D01*
X126931672Y-99859184D01*
X126931663Y-99859187D01*
X126782342Y-99951289D01*
X126658289Y-100075342D01*
X126566187Y-100224663D01*
X126566185Y-100224668D01*
X126540789Y-100301308D01*
X126511001Y-100391203D01*
X126511001Y-100391204D01*
X126511000Y-100391204D01*
X126500500Y-100493983D01*
X126500500Y-101494001D01*
X124999100Y-101494001D01*
X124999100Y-98204000D01*
X126501000Y-98204000D01*
X127263500Y-98204000D01*
X127263500Y-97254000D01*
X127263499Y-97253999D01*
X127201028Y-97254000D01*
X127201011Y-97254001D01*
X127098302Y-97264494D01*
X126931880Y-97319641D01*
X126931875Y-97319643D01*
X126782654Y-97411684D01*
X126658684Y-97535654D01*
X126566643Y-97684875D01*
X126566641Y-97684880D01*
X126511494Y-97851302D01*
X126511493Y-97851309D01*
X126501000Y-97954013D01*
X126501000Y-98204000D01*
X124999100Y-98204000D01*
X124999100Y-95402000D01*
X126501001Y-95402000D01*
X126501001Y-95651986D01*
X126511494Y-95754697D01*
X126566641Y-95921119D01*
X126566643Y-95921124D01*
X126658684Y-96070345D01*
X126782654Y-96194315D01*
X126931875Y-96286356D01*
X126931880Y-96286358D01*
X127098302Y-96341505D01*
X127098309Y-96341506D01*
X127201019Y-96351999D01*
X127263499Y-96351998D01*
X127263500Y-96351998D01*
X127263500Y-95402000D01*
X126501001Y-95402000D01*
X124999100Y-95402000D01*
X124999100Y-93366001D01*
X126500500Y-93366001D01*
X126500501Y-93366019D01*
X126511000Y-93468796D01*
X126511001Y-93468799D01*
X126541827Y-93561823D01*
X126566186Y-93635334D01*
X126658288Y-93784656D01*
X126782344Y-93908712D01*
X126782348Y-93908714D01*
X126786569Y-93912052D01*
X126826947Y-93969074D01*
X126830087Y-94038873D01*
X126794992Y-94099289D01*
X126786580Y-94106579D01*
X126782658Y-94109680D01*
X126658684Y-94233654D01*
X126566643Y-94382875D01*
X126566641Y-94382880D01*
X126511494Y-94549302D01*
X126511493Y-94549309D01*
X126501000Y-94652013D01*
X126501000Y-94902000D01*
X127639500Y-94902000D01*
X127706539Y-94921685D01*
X127752294Y-94974489D01*
X127763500Y-95026000D01*
X127763500Y-96351999D01*
X127825972Y-96351999D01*
X127825986Y-96351998D01*
X127928697Y-96341505D01*
X128095119Y-96286358D01*
X128095124Y-96286356D01*
X128244342Y-96194317D01*
X128337964Y-96100695D01*
X128399287Y-96067210D01*
X128468979Y-96072194D01*
X128513327Y-96100695D01*
X128607344Y-96194712D01*
X128756666Y-96286814D01*
X128923203Y-96341999D01*
X129025991Y-96352500D01*
X129651008Y-96352499D01*
X129651016Y-96352498D01*
X129651019Y-96352498D01*
X129727297Y-96344706D01*
X129753797Y-96341999D01*
X129920334Y-96286814D01*
X130069656Y-96194712D01*
X130193712Y-96070656D01*
X130285814Y-95921334D01*
X130340999Y-95754797D01*
X130351500Y-95652009D01*
X130351499Y-94651992D01*
X130341625Y-94555336D01*
X130340999Y-94549203D01*
X130340998Y-94549200D01*
X130327519Y-94508523D01*
X130285814Y-94382666D01*
X130193712Y-94233344D01*
X130078519Y-94118151D01*
X130045034Y-94056828D01*
X130042200Y-94030470D01*
X130042200Y-93997359D01*
X130061885Y-93930320D01*
X130114689Y-93884565D01*
X130183847Y-93874621D01*
X130207152Y-93880316D01*
X130278745Y-93905368D01*
X130278751Y-93905368D01*
X130278753Y-93905369D01*
X130457996Y-93925565D01*
X130458000Y-93925565D01*
X130458004Y-93925565D01*
X130530817Y-93917361D01*
X130599638Y-93929415D01*
X130651018Y-93976765D01*
X130668700Y-94040581D01*
X130668700Y-96666686D01*
X130668435Y-96671402D01*
X130668435Y-96680600D01*
X130668700Y-96685319D01*
X130668700Y-96755319D01*
X130699644Y-96910889D01*
X130699647Y-96910898D01*
X130760348Y-97057446D01*
X130760355Y-97057459D01*
X130848481Y-97189348D01*
X130848484Y-97189352D01*
X130960647Y-97301515D01*
X130960651Y-97301518D01*
X131092540Y-97389644D01*
X131092553Y-97389651D01*
X131196354Y-97432646D01*
X131239103Y-97450353D01*
X131239105Y-97450353D01*
X131239110Y-97450355D01*
X131394680Y-97481299D01*
X131394684Y-97481300D01*
X131394685Y-97481300D01*
X131464685Y-97481300D01*
X131469404Y-97481565D01*
X131474000Y-97481565D01*
X131478596Y-97481565D01*
X131483315Y-97481300D01*
X131553316Y-97481300D01*
X131553317Y-97481299D01*
X131605175Y-97470984D01*
X131708889Y-97450355D01*
X131708892Y-97450353D01*
X131708897Y-97450353D01*
X131855453Y-97389648D01*
X131987349Y-97301518D01*
X132099518Y-97189349D01*
X132187648Y-97057453D01*
X132248353Y-96910897D01*
X132249202Y-96906632D01*
X132279299Y-96755319D01*
X132279300Y-96755316D01*
X132279300Y-96685319D01*
X132279565Y-96680600D01*
X132279565Y-96671402D01*
X132279300Y-96666686D01*
X132279300Y-96640001D01*
X132964843Y-96640001D01*
X132985430Y-96875315D01*
X132985432Y-96875326D01*
X133046566Y-97103483D01*
X133046570Y-97103492D01*
X133146400Y-97317579D01*
X133146402Y-97317583D01*
X133205072Y-97401373D01*
X133205073Y-97401373D01*
X133837037Y-96769409D01*
X133854075Y-96832993D01*
X133919901Y-96947007D01*
X134012993Y-97040099D01*
X134127007Y-97105925D01*
X134190590Y-97122962D01*
X133558625Y-97754925D01*
X133642421Y-97813599D01*
X133856507Y-97913429D01*
X133856516Y-97913433D01*
X134084673Y-97974567D01*
X134084684Y-97974569D01*
X134319998Y-97995157D01*
X134320002Y-97995157D01*
X134555315Y-97974569D01*
X134555326Y-97974567D01*
X134783483Y-97913433D01*
X134783492Y-97913429D01*
X134997578Y-97813600D01*
X134997582Y-97813598D01*
X135081373Y-97754926D01*
X135081373Y-97754925D01*
X134449409Y-97122962D01*
X134512993Y-97105925D01*
X134627007Y-97040099D01*
X134720099Y-96947007D01*
X134785925Y-96832993D01*
X134802962Y-96769410D01*
X135434925Y-97401373D01*
X135434926Y-97401373D01*
X135493598Y-97317582D01*
X135493600Y-97317578D01*
X135593429Y-97103492D01*
X135593433Y-97103483D01*
X135654567Y-96875326D01*
X135654569Y-96875315D01*
X135675157Y-96640001D01*
X135675157Y-96639998D01*
X135654569Y-96404684D01*
X135654567Y-96404673D01*
X135593433Y-96176516D01*
X135593429Y-96176507D01*
X135493600Y-95962423D01*
X135493599Y-95962421D01*
X135434925Y-95878626D01*
X135434925Y-95878625D01*
X134802962Y-96510589D01*
X134785925Y-96447007D01*
X134720099Y-96332993D01*
X134627007Y-96239901D01*
X134512993Y-96174075D01*
X134449410Y-96157037D01*
X135081373Y-95525073D01*
X135081373Y-95525072D01*
X134997583Y-95466402D01*
X134997579Y-95466400D01*
X134783492Y-95366570D01*
X134783483Y-95366566D01*
X134555326Y-95305432D01*
X134555315Y-95305430D01*
X134320002Y-95284843D01*
X134319998Y-95284843D01*
X134084684Y-95305430D01*
X134084673Y-95305432D01*
X133856516Y-95366566D01*
X133856507Y-95366570D01*
X133642419Y-95466401D01*
X133558625Y-95525072D01*
X134190590Y-96157037D01*
X134127007Y-96174075D01*
X134012993Y-96239901D01*
X133919901Y-96332993D01*
X133854075Y-96447007D01*
X133837037Y-96510589D01*
X133205073Y-95878625D01*
X133205072Y-95878625D01*
X133146401Y-95962419D01*
X133046570Y-96176507D01*
X133046566Y-96176516D01*
X132985432Y-96404673D01*
X132985430Y-96404684D01*
X132964843Y-96639998D01*
X132964843Y-96640001D01*
X132279300Y-96640001D01*
X132279300Y-91345927D01*
X132298985Y-91278888D01*
X132315614Y-91258251D01*
X134273345Y-89300520D01*
X134273349Y-89300518D01*
X134385518Y-89188349D01*
X134473648Y-89056453D01*
X134475493Y-89052000D01*
X134512756Y-88962036D01*
X134556596Y-88907632D01*
X134562221Y-88903949D01*
X134565017Y-88902225D01*
X134684812Y-88828335D01*
X134709804Y-88812920D01*
X134710963Y-88814800D01*
X134765768Y-88792686D01*
X134834411Y-88805721D01*
X134877159Y-88841781D01*
X134953339Y-88943544D01*
X134953342Y-88943547D01*
X135068551Y-89029793D01*
X135068558Y-89029797D01*
X135203404Y-89080091D01*
X135203403Y-89080091D01*
X135210331Y-89080835D01*
X135263014Y-89086500D01*
X136958759Y-89086499D01*
X137018370Y-89080091D01*
X137153218Y-89029796D01*
X137268433Y-88943546D01*
X137354683Y-88828331D01*
X137404978Y-88693483D01*
X137411387Y-88633873D01*
X137411386Y-88633845D01*
X137411565Y-88630547D01*
X137413070Y-88630627D01*
X137430999Y-88569326D01*
X137483755Y-88523514D01*
X137527352Y-88515981D01*
X138210887Y-87832446D01*
X138210887Y-87838661D01*
X138238146Y-87940394D01*
X138290807Y-88031606D01*
X138365281Y-88106080D01*
X138456493Y-88158741D01*
X138558226Y-88186000D01*
X138564440Y-88186000D01*
X137885413Y-88865025D01*
X137958400Y-88916132D01*
X137958408Y-88916136D01*
X138164555Y-89012264D01*
X138164569Y-89012269D01*
X138384276Y-89071139D01*
X138384287Y-89071141D01*
X138610885Y-89090966D01*
X138610889Y-89090966D01*
X138837486Y-89071141D01*
X138837497Y-89071139D01*
X139057204Y-89012269D01*
X139057218Y-89012264D01*
X139263365Y-88916136D01*
X139336358Y-88865024D01*
X138657334Y-88186000D01*
X138663548Y-88186000D01*
X138765281Y-88158741D01*
X138856493Y-88106080D01*
X138930967Y-88031606D01*
X138983628Y-87940394D01*
X139010887Y-87838661D01*
X139010887Y-87832447D01*
X139689911Y-88511471D01*
X139741023Y-88438478D01*
X139837151Y-88232331D01*
X139837154Y-88232323D01*
X139844197Y-88206037D01*
X139880561Y-88146376D01*
X139943407Y-88115845D01*
X140012783Y-88124139D01*
X140066662Y-88168623D01*
X140083026Y-88212937D01*
X140085083Y-88212468D01*
X140086631Y-88219254D01*
X140146209Y-88389518D01*
X140146210Y-88389520D01*
X140146211Y-88389522D01*
X140149294Y-88394428D01*
X140168300Y-88460399D01*
X140168300Y-90883118D01*
X140148615Y-90950157D01*
X140115424Y-90984693D01*
X139948594Y-91101508D01*
X139781506Y-91268596D01*
X139701105Y-91383423D01*
X139646529Y-91427048D01*
X139599530Y-91436300D01*
X135794499Y-91436300D01*
X135727460Y-91416615D01*
X135681705Y-91363811D01*
X135670499Y-91312300D01*
X135670499Y-91242129D01*
X135670498Y-91242123D01*
X135670497Y-91242116D01*
X135664091Y-91182517D01*
X135656976Y-91163442D01*
X135613797Y-91047671D01*
X135613793Y-91047664D01*
X135527547Y-90932455D01*
X135527544Y-90932452D01*
X135412335Y-90846206D01*
X135412328Y-90846202D01*
X135277482Y-90795908D01*
X135277483Y-90795908D01*
X135217883Y-90789501D01*
X135217881Y-90789500D01*
X135217873Y-90789500D01*
X135217864Y-90789500D01*
X133422129Y-90789500D01*
X133422123Y-90789501D01*
X133362516Y-90795908D01*
X133227671Y-90846202D01*
X133227664Y-90846206D01*
X133112455Y-90932452D01*
X133112452Y-90932455D01*
X133026206Y-91047664D01*
X133026202Y-91047671D01*
X132975908Y-91182517D01*
X132970969Y-91228462D01*
X132969501Y-91242123D01*
X132969500Y-91242135D01*
X132969500Y-93037870D01*
X132969501Y-93037876D01*
X132975908Y-93097483D01*
X133026202Y-93232328D01*
X133026206Y-93232335D01*
X133112452Y-93347544D01*
X133112455Y-93347547D01*
X133227664Y-93433793D01*
X133227671Y-93433797D01*
X133362517Y-93484091D01*
X133362516Y-93484091D01*
X133369444Y-93484835D01*
X133422127Y-93490500D01*
X135217872Y-93490499D01*
X135277483Y-93484091D01*
X135412331Y-93433796D01*
X135527546Y-93347546D01*
X135613796Y-93232331D01*
X135664091Y-93097483D01*
X135670500Y-93037873D01*
X135670500Y-92967700D01*
X135690185Y-92900661D01*
X135742989Y-92854906D01*
X135794500Y-92843700D01*
X135976692Y-92843700D01*
X139599529Y-92843700D01*
X139666568Y-92863385D01*
X139701103Y-92896576D01*
X139781505Y-93011401D01*
X139948599Y-93178495D01*
X140042268Y-93244083D01*
X140142165Y-93314032D01*
X140142167Y-93314033D01*
X140142170Y-93314035D01*
X140356337Y-93413903D01*
X140584592Y-93475063D01*
X140761034Y-93490500D01*
X140819999Y-93495659D01*
X140820000Y-93495659D01*
X140820001Y-93495659D01*
X140878966Y-93490500D01*
X141055408Y-93475063D01*
X141283663Y-93413903D01*
X141414295Y-93352987D01*
X141483373Y-93342496D01*
X141547157Y-93371016D01*
X141585396Y-93429492D01*
X141590700Y-93465370D01*
X141590700Y-95315182D01*
X141571015Y-95382221D01*
X141518211Y-95427976D01*
X141449053Y-95437920D01*
X141414295Y-95427564D01*
X141283492Y-95366570D01*
X141283483Y-95366566D01*
X141055326Y-95305432D01*
X141055315Y-95305430D01*
X140820002Y-95284843D01*
X140819998Y-95284843D01*
X140584684Y-95305430D01*
X140584673Y-95305432D01*
X140356516Y-95366566D01*
X140356507Y-95366570D01*
X140142419Y-95466401D01*
X140058625Y-95525072D01*
X140690590Y-96157037D01*
X140627007Y-96174075D01*
X140512993Y-96239901D01*
X140419901Y-96332993D01*
X140354075Y-96447007D01*
X140337037Y-96510590D01*
X139705072Y-95878625D01*
X139646401Y-95962419D01*
X139546570Y-96176507D01*
X139546566Y-96176516D01*
X139485432Y-96404673D01*
X139485430Y-96404684D01*
X139464843Y-96639998D01*
X139464843Y-96640001D01*
X139485430Y-96875315D01*
X139485432Y-96875326D01*
X139546566Y-97103483D01*
X139546570Y-97103492D01*
X139646400Y-97317579D01*
X139646402Y-97317583D01*
X139705072Y-97401373D01*
X139705073Y-97401373D01*
X140337037Y-96769409D01*
X140354075Y-96832993D01*
X140419901Y-96947007D01*
X140512993Y-97040099D01*
X140627007Y-97105925D01*
X140690588Y-97122961D01*
X140058625Y-97754925D01*
X140142421Y-97813599D01*
X140356507Y-97913429D01*
X140356516Y-97913433D01*
X140584673Y-97974567D01*
X140584684Y-97974569D01*
X140819998Y-97995157D01*
X140820002Y-97995157D01*
X141055315Y-97974569D01*
X141055326Y-97974567D01*
X141283483Y-97913433D01*
X141283492Y-97913429D01*
X141497579Y-97813599D01*
X141497585Y-97813595D01*
X141641232Y-97713012D01*
X141707438Y-97690684D01*
X141775205Y-97707694D01*
X141800037Y-97726905D01*
X141886970Y-97813838D01*
X141886992Y-97813858D01*
X144592381Y-100519247D01*
X144625866Y-100580570D01*
X144628700Y-100606928D01*
X144628700Y-108258252D01*
X144609015Y-108325291D01*
X144556211Y-108371046D01*
X144487053Y-108380990D01*
X144463746Y-108375294D01*
X144426979Y-108362429D01*
X144380252Y-108333068D01*
X144368585Y-108321401D01*
X144253323Y-108244386D01*
X144125263Y-108191343D01*
X144106101Y-108187531D01*
X144044192Y-108155143D01*
X144012591Y-108104918D01*
X143993968Y-108048719D01*
X143960814Y-107948666D01*
X143868712Y-107799344D01*
X143744656Y-107675288D01*
X143595334Y-107583186D01*
X143428797Y-107528001D01*
X143428795Y-107528000D01*
X143326010Y-107517500D01*
X142425998Y-107517500D01*
X142425980Y-107517501D01*
X142323203Y-107528000D01*
X142323200Y-107528001D01*
X142156668Y-107583185D01*
X142156663Y-107583187D01*
X142007342Y-107675289D01*
X141883289Y-107799342D01*
X141791187Y-107948663D01*
X141791186Y-107948666D01*
X141736001Y-108115203D01*
X141736001Y-108115204D01*
X141736000Y-108115204D01*
X141725500Y-108217983D01*
X141725500Y-109518001D01*
X141725501Y-109518018D01*
X141736000Y-109620796D01*
X141736001Y-109620799D01*
X141751050Y-109666212D01*
X141791186Y-109787334D01*
X141883288Y-109936656D01*
X142007344Y-110060712D01*
X142156666Y-110152814D01*
X142323203Y-110207999D01*
X142425991Y-110218500D01*
X143326008Y-110218499D01*
X143326016Y-110218498D01*
X143326019Y-110218498D01*
X143382336Y-110212745D01*
X143428797Y-110207999D01*
X143595334Y-110152814D01*
X143744656Y-110060712D01*
X143867984Y-109937384D01*
X143929307Y-109903899D01*
X143987586Y-109907470D01*
X143987963Y-109905820D01*
X143994748Y-109907369D01*
X144173996Y-109927565D01*
X144174000Y-109927565D01*
X144174004Y-109927565D01*
X144353249Y-109907369D01*
X144353251Y-109907368D01*
X144353255Y-109907368D01*
X144353258Y-109907366D01*
X144353262Y-109907366D01*
X144463745Y-109868706D01*
X144533523Y-109865143D01*
X144594151Y-109899872D01*
X144626379Y-109961865D01*
X144628700Y-109985747D01*
X144628700Y-110258670D01*
X144609015Y-110325709D01*
X144575825Y-110360244D01*
X144562601Y-110369503D01*
X144562595Y-110369508D01*
X144395508Y-110536594D01*
X144386245Y-110549824D01*
X144331668Y-110593448D01*
X144284670Y-110602700D01*
X135668928Y-110602700D01*
X135601889Y-110583015D01*
X135581247Y-110566381D01*
X134764812Y-109749946D01*
X134731327Y-109688623D01*
X134736311Y-109618931D01*
X134746954Y-109597169D01*
X134775003Y-109551697D01*
X134828349Y-109390708D01*
X134838500Y-109291345D01*
X134838500Y-109291337D01*
X136237500Y-109291337D01*
X136237501Y-109291355D01*
X136247650Y-109390707D01*
X136247651Y-109390710D01*
X136300996Y-109551694D01*
X136301001Y-109551705D01*
X136390029Y-109696040D01*
X136390032Y-109696044D01*
X136509955Y-109815967D01*
X136509959Y-109815970D01*
X136654294Y-109904998D01*
X136654297Y-109904999D01*
X136654303Y-109905003D01*
X136815292Y-109958349D01*
X136914655Y-109968500D01*
X137461344Y-109968499D01*
X137461352Y-109968498D01*
X137461355Y-109968498D01*
X137526288Y-109961865D01*
X137560708Y-109958349D01*
X137721697Y-109905003D01*
X137866044Y-109815968D01*
X137985968Y-109696044D01*
X138025240Y-109632373D01*
X138077185Y-109585651D01*
X138146148Y-109574428D01*
X138210230Y-109602271D01*
X138248483Y-109658467D01*
X138251050Y-109666212D01*
X138291186Y-109787334D01*
X138383288Y-109936656D01*
X138507344Y-110060712D01*
X138656666Y-110152814D01*
X138823203Y-110207999D01*
X138925991Y-110218500D01*
X139826008Y-110218499D01*
X139826016Y-110218498D01*
X139826019Y-110218498D01*
X139882336Y-110212745D01*
X139928797Y-110207999D01*
X140095334Y-110152814D01*
X140244656Y-110060712D01*
X140368712Y-109936656D01*
X140460814Y-109787334D01*
X140515999Y-109620797D01*
X140526500Y-109518009D01*
X140526499Y-108217992D01*
X140515999Y-108115203D01*
X140460814Y-107948666D01*
X140368712Y-107799344D01*
X140244656Y-107675288D01*
X140095334Y-107583186D01*
X139928797Y-107528001D01*
X139928795Y-107528000D01*
X139826010Y-107517500D01*
X138925998Y-107517500D01*
X138925980Y-107517501D01*
X138823203Y-107528000D01*
X138823200Y-107528001D01*
X138656668Y-107583185D01*
X138656663Y-107583187D01*
X138507342Y-107675289D01*
X138383289Y-107799342D01*
X138291187Y-107948663D01*
X138291186Y-107948666D01*
X138249298Y-108075077D01*
X138248484Y-108077532D01*
X138208711Y-108134977D01*
X138144195Y-108161800D01*
X138075419Y-108149485D01*
X138025240Y-108103626D01*
X137985968Y-108039956D01*
X137866044Y-107920032D01*
X137866040Y-107920029D01*
X137721705Y-107831001D01*
X137721699Y-107830998D01*
X137721697Y-107830997D01*
X137626168Y-107799342D01*
X137560709Y-107777651D01*
X137461346Y-107767500D01*
X136914662Y-107767500D01*
X136914644Y-107767501D01*
X136815292Y-107777650D01*
X136815289Y-107777651D01*
X136654305Y-107830996D01*
X136654294Y-107831001D01*
X136509959Y-107920029D01*
X136509955Y-107920032D01*
X136390032Y-108039955D01*
X136390029Y-108039959D01*
X136301001Y-108184294D01*
X136300996Y-108184305D01*
X136247651Y-108345290D01*
X136237500Y-108444647D01*
X136237500Y-109291337D01*
X134838500Y-109291337D01*
X134838499Y-108444656D01*
X134828349Y-108345292D01*
X134775003Y-108184303D01*
X134774999Y-108184297D01*
X134774998Y-108184294D01*
X134685970Y-108039959D01*
X134685967Y-108039955D01*
X134566044Y-107920032D01*
X134566040Y-107920029D01*
X134421705Y-107831001D01*
X134421699Y-107830998D01*
X134421697Y-107830997D01*
X134326168Y-107799342D01*
X134260709Y-107777651D01*
X134161346Y-107767500D01*
X133614662Y-107767500D01*
X133614644Y-107767501D01*
X133515292Y-107777650D01*
X133515289Y-107777651D01*
X133354305Y-107830996D01*
X133354294Y-107831001D01*
X133209959Y-107920029D01*
X133209955Y-107920032D01*
X133090032Y-108039955D01*
X133090029Y-108039959D01*
X133001001Y-108184294D01*
X133000996Y-108184305D01*
X132947651Y-108345290D01*
X132937500Y-108444647D01*
X132937500Y-109291337D01*
X132937501Y-109291355D01*
X132947650Y-109390707D01*
X132947651Y-109390710D01*
X133000996Y-109551694D01*
X133000999Y-109551701D01*
X133013335Y-109571700D01*
X133064238Y-109654227D01*
X133082700Y-109719322D01*
X133082700Y-109927549D01*
X133082699Y-109927565D01*
X133082699Y-109932685D01*
X133082699Y-110091315D01*
X133082699Y-110091317D01*
X133082698Y-110091317D01*
X133110958Y-110233382D01*
X133113646Y-110246893D01*
X133113648Y-110246901D01*
X133174348Y-110393446D01*
X133174355Y-110393459D01*
X133262481Y-110525348D01*
X133262484Y-110525352D01*
X133378970Y-110641838D01*
X133378992Y-110641858D01*
X134655356Y-111918222D01*
X134655385Y-111918253D01*
X134736381Y-111999249D01*
X134769866Y-112060572D01*
X134772700Y-112086930D01*
X134772700Y-112119387D01*
X134753015Y-112186426D01*
X134718552Y-112221840D01*
X134690625Y-112240881D01*
X134514782Y-112360768D01*
X134327952Y-112534121D01*
X134327950Y-112534123D01*
X134169041Y-112733388D01*
X134041608Y-112954109D01*
X133948492Y-113191362D01*
X133948490Y-113191369D01*
X133891777Y-113439845D01*
X133872732Y-113693995D01*
X133872732Y-113694004D01*
X133891777Y-113948154D01*
X133891778Y-113948157D01*
X133948492Y-114196637D01*
X134041607Y-114433888D01*
X134169041Y-114654612D01*
X134327950Y-114853877D01*
X134514783Y-115027232D01*
X134725366Y-115170805D01*
X134725371Y-115170807D01*
X134725372Y-115170808D01*
X134725373Y-115170809D01*
X134847328Y-115229538D01*
X134954992Y-115281387D01*
X134954993Y-115281387D01*
X134954996Y-115281389D01*
X135198542Y-115356513D01*
X135450565Y-115394500D01*
X135705435Y-115394500D01*
X135957458Y-115356513D01*
X136201004Y-115281389D01*
X136430634Y-115170805D01*
X136641217Y-115027232D01*
X136828050Y-114853877D01*
X136986959Y-114654612D01*
X137114393Y-114433888D01*
X137207508Y-114196637D01*
X137264222Y-113948157D01*
X137283268Y-113694000D01*
X137264222Y-113439843D01*
X137207508Y-113191363D01*
X137114393Y-112954112D01*
X136986959Y-112733388D01*
X136828050Y-112534123D01*
X136713889Y-112428197D01*
X136678135Y-112368171D01*
X136680510Y-112298341D01*
X136720261Y-112240881D01*
X136784766Y-112214033D01*
X136798231Y-112213300D01*
X139357769Y-112213300D01*
X139424808Y-112232985D01*
X139470563Y-112285789D01*
X139480507Y-112354947D01*
X139451482Y-112418503D01*
X139442115Y-112428193D01*
X139364369Y-112500331D01*
X139327952Y-112534121D01*
X139327950Y-112534123D01*
X139169041Y-112733388D01*
X139041608Y-112954109D01*
X138948492Y-113191362D01*
X138948490Y-113191369D01*
X138891777Y-113439845D01*
X138872732Y-113693995D01*
X138872732Y-113694004D01*
X138891777Y-113948154D01*
X138891778Y-113948157D01*
X138948492Y-114196637D01*
X139041607Y-114433888D01*
X139169041Y-114654612D01*
X139327950Y-114853877D01*
X139514783Y-115027232D01*
X139725366Y-115170805D01*
X139725371Y-115170807D01*
X139725372Y-115170808D01*
X139725373Y-115170809D01*
X139847328Y-115229538D01*
X139954992Y-115281387D01*
X139954993Y-115281387D01*
X139954996Y-115281389D01*
X140198542Y-115356513D01*
X140450565Y-115394500D01*
X140705435Y-115394500D01*
X140957458Y-115356513D01*
X141201004Y-115281389D01*
X141430634Y-115170805D01*
X141641217Y-115027232D01*
X141828050Y-114853877D01*
X141986959Y-114654612D01*
X142114393Y-114433888D01*
X142207508Y-114196637D01*
X142264222Y-113948157D01*
X142283268Y-113694000D01*
X142264222Y-113439843D01*
X142207508Y-113191363D01*
X142114393Y-112954112D01*
X141986959Y-112733388D01*
X141828050Y-112534123D01*
X141713889Y-112428197D01*
X141678135Y-112368171D01*
X141680510Y-112298341D01*
X141720261Y-112240881D01*
X141784766Y-112214033D01*
X141798231Y-112213300D01*
X144284670Y-112213300D01*
X144351709Y-112232985D01*
X144386244Y-112266175D01*
X144395501Y-112279396D01*
X144395508Y-112279405D01*
X144481586Y-112365482D01*
X144562599Y-112446495D01*
X144659384Y-112514265D01*
X144756165Y-112582032D01*
X144756167Y-112582033D01*
X144756170Y-112582035D01*
X144970337Y-112681903D01*
X145198592Y-112743063D01*
X145375034Y-112758500D01*
X145433999Y-112763659D01*
X145434000Y-112763659D01*
X145434001Y-112763659D01*
X145492966Y-112758500D01*
X145669408Y-112743063D01*
X145897663Y-112681903D01*
X146111830Y-112582035D01*
X146305401Y-112446495D01*
X146472495Y-112279401D01*
X146602425Y-112093842D01*
X146657002Y-112050217D01*
X146726500Y-112043023D01*
X146788855Y-112074546D01*
X146805575Y-112093842D01*
X146935278Y-112279078D01*
X146935505Y-112279401D01*
X147102599Y-112446495D01*
X147199384Y-112514265D01*
X147296165Y-112582032D01*
X147296167Y-112582033D01*
X147296170Y-112582035D01*
X147510337Y-112681903D01*
X147738592Y-112743063D01*
X147915034Y-112758500D01*
X147973999Y-112763659D01*
X147974000Y-112763659D01*
X147974001Y-112763659D01*
X148032966Y-112758500D01*
X148209408Y-112743063D01*
X148437663Y-112681903D01*
X148651830Y-112582035D01*
X148845401Y-112446495D01*
X149012495Y-112279401D01*
X149142425Y-112093842D01*
X149197002Y-112050217D01*
X149266500Y-112043023D01*
X149328855Y-112074546D01*
X149345575Y-112093842D01*
X149475278Y-112279078D01*
X149475505Y-112279401D01*
X149642599Y-112446495D01*
X149739384Y-112514265D01*
X149836165Y-112582032D01*
X149836167Y-112582033D01*
X149836170Y-112582035D01*
X150050337Y-112681903D01*
X150278592Y-112743063D01*
X150455034Y-112758500D01*
X150513999Y-112763659D01*
X150514000Y-112763659D01*
X150514001Y-112763659D01*
X150572966Y-112758500D01*
X150749408Y-112743063D01*
X150977663Y-112681903D01*
X151191830Y-112582035D01*
X151385401Y-112446495D01*
X151552495Y-112279401D01*
X151682425Y-112093842D01*
X151737002Y-112050217D01*
X151806500Y-112043023D01*
X151868855Y-112074546D01*
X151885575Y-112093842D01*
X152015278Y-112279078D01*
X152015505Y-112279401D01*
X152182599Y-112446495D01*
X152279384Y-112514265D01*
X152376165Y-112582032D01*
X152376167Y-112582033D01*
X152376170Y-112582035D01*
X152590337Y-112681903D01*
X152818592Y-112743063D01*
X152995034Y-112758500D01*
X153053999Y-112763659D01*
X153054000Y-112763659D01*
X153054001Y-112763659D01*
X153112966Y-112758500D01*
X153289408Y-112743063D01*
X153517663Y-112681903D01*
X153731830Y-112582035D01*
X153925401Y-112446495D01*
X154092495Y-112279401D01*
X154222425Y-112093842D01*
X154277002Y-112050217D01*
X154346500Y-112043023D01*
X154408855Y-112074546D01*
X154425575Y-112093842D01*
X154555278Y-112279078D01*
X154555505Y-112279401D01*
X154722599Y-112446495D01*
X154819384Y-112514265D01*
X154916165Y-112582032D01*
X154916167Y-112582033D01*
X154916170Y-112582035D01*
X155130337Y-112681903D01*
X155358592Y-112743063D01*
X155535034Y-112758500D01*
X155593999Y-112763659D01*
X155594000Y-112763659D01*
X155594001Y-112763659D01*
X155652966Y-112758500D01*
X155829408Y-112743063D01*
X156057663Y-112681903D01*
X156271830Y-112582035D01*
X156465401Y-112446495D01*
X156632495Y-112279401D01*
X156762425Y-112093842D01*
X156817002Y-112050217D01*
X156886500Y-112043023D01*
X156948855Y-112074546D01*
X156965575Y-112093842D01*
X157095278Y-112279078D01*
X157095505Y-112279401D01*
X157262599Y-112446495D01*
X157359384Y-112514265D01*
X157456165Y-112582032D01*
X157456167Y-112582033D01*
X157456170Y-112582035D01*
X157670337Y-112681903D01*
X157898592Y-112743063D01*
X158075034Y-112758500D01*
X158133999Y-112763659D01*
X158134000Y-112763659D01*
X158134001Y-112763659D01*
X158192966Y-112758500D01*
X158369408Y-112743063D01*
X158597663Y-112681903D01*
X158811830Y-112582035D01*
X159005401Y-112446495D01*
X159172495Y-112279401D01*
X159302425Y-112093842D01*
X159357002Y-112050217D01*
X159426500Y-112043023D01*
X159488855Y-112074546D01*
X159505575Y-112093842D01*
X159635278Y-112279078D01*
X159635505Y-112279401D01*
X159802599Y-112446495D01*
X159899384Y-112514265D01*
X159996165Y-112582032D01*
X159996167Y-112582033D01*
X159996170Y-112582035D01*
X160210337Y-112681903D01*
X160438592Y-112743063D01*
X160615034Y-112758500D01*
X160673999Y-112763659D01*
X160674000Y-112763659D01*
X160674001Y-112763659D01*
X160732966Y-112758500D01*
X160909408Y-112743063D01*
X161137663Y-112681903D01*
X161351830Y-112582035D01*
X161545401Y-112446495D01*
X161712495Y-112279401D01*
X161842730Y-112093405D01*
X161897307Y-112049781D01*
X161966805Y-112042587D01*
X162029160Y-112074110D01*
X162045879Y-112093405D01*
X162175890Y-112279078D01*
X162342917Y-112446105D01*
X162536421Y-112581600D01*
X162750507Y-112681429D01*
X162750516Y-112681433D01*
X162964000Y-112738634D01*
X162964000Y-111841012D01*
X163021007Y-111873925D01*
X163148174Y-111908000D01*
X163279826Y-111908000D01*
X163406993Y-111873925D01*
X163464000Y-111841012D01*
X163464000Y-112738633D01*
X163677483Y-112681433D01*
X163677492Y-112681429D01*
X163891578Y-112581600D01*
X164085078Y-112446108D01*
X164207133Y-112324053D01*
X164268456Y-112290568D01*
X164338148Y-112295552D01*
X164394082Y-112337423D01*
X164410997Y-112368401D01*
X164460202Y-112500328D01*
X164460206Y-112500335D01*
X164546452Y-112615544D01*
X164546455Y-112615547D01*
X164661664Y-112701793D01*
X164661671Y-112701797D01*
X164796517Y-112752091D01*
X164796516Y-112752091D01*
X164803444Y-112752835D01*
X164856127Y-112758500D01*
X166651872Y-112758499D01*
X166711483Y-112752091D01*
X166846331Y-112701796D01*
X166961546Y-112615546D01*
X167047796Y-112500331D01*
X167098091Y-112365483D01*
X167104500Y-112305873D01*
X167104499Y-110559299D01*
X167124184Y-110492261D01*
X167176987Y-110446506D01*
X167228499Y-110435300D01*
X170415316Y-110435300D01*
X170415317Y-110435299D01*
X170467175Y-110424984D01*
X170570889Y-110404355D01*
X170570892Y-110404353D01*
X170570897Y-110404353D01*
X170655038Y-110369501D01*
X170718683Y-110343139D01*
X170766135Y-110333700D01*
X178375156Y-110333700D01*
X178442195Y-110353385D01*
X178462837Y-110370019D01*
X178691067Y-110598249D01*
X178720427Y-110644975D01*
X178754210Y-110741520D01*
X178754212Y-110741524D01*
X178829038Y-110860609D01*
X178850184Y-110894262D01*
X178977738Y-111021816D01*
X179130478Y-111117789D01*
X179277419Y-111169206D01*
X179300745Y-111177368D01*
X179300750Y-111177369D01*
X179479996Y-111197565D01*
X179480000Y-111197565D01*
X179480004Y-111197565D01*
X179659249Y-111177369D01*
X179659252Y-111177368D01*
X179659255Y-111177368D01*
X179829522Y-111117789D01*
X179982262Y-111021816D01*
X180109816Y-110894262D01*
X180205789Y-110741522D01*
X180265368Y-110571255D01*
X180269273Y-110536597D01*
X180285565Y-110392003D01*
X180285565Y-110391996D01*
X180265369Y-110212750D01*
X180265368Y-110212745D01*
X180244397Y-110152814D01*
X180205789Y-110042478D01*
X180109816Y-109889738D01*
X179982262Y-109762184D01*
X179877001Y-109696044D01*
X179829524Y-109666212D01*
X179829520Y-109666210D01*
X179732975Y-109632427D01*
X179686249Y-109603067D01*
X179268940Y-109185758D01*
X179268920Y-109185736D01*
X179166585Y-109083401D01*
X179051323Y-109006386D01*
X178923264Y-108953343D01*
X178923256Y-108953341D01*
X178787310Y-108926299D01*
X178787308Y-108926299D01*
X178648692Y-108926299D01*
X178642578Y-108926299D01*
X178642558Y-108926300D01*
X171265300Y-108926300D01*
X171198261Y-108906615D01*
X171152506Y-108853811D01*
X171141300Y-108802300D01*
X171141300Y-104531030D01*
X171160985Y-104463991D01*
X171213789Y-104418236D01*
X171282947Y-104408292D01*
X171346503Y-104437317D01*
X171352981Y-104443349D01*
X171449344Y-104539712D01*
X171571659Y-104615156D01*
X171618384Y-104667104D01*
X171629607Y-104736066D01*
X171623605Y-104761649D01*
X171582632Y-104878742D01*
X171582630Y-104878750D01*
X171562435Y-105057996D01*
X171562435Y-105058003D01*
X171582630Y-105237249D01*
X171582631Y-105237254D01*
X171642211Y-105407523D01*
X171738184Y-105560262D01*
X171865738Y-105687816D01*
X172018478Y-105783789D01*
X172168589Y-105836315D01*
X172188745Y-105843368D01*
X172188750Y-105843369D01*
X172367996Y-105863565D01*
X172368000Y-105863565D01*
X172368004Y-105863565D01*
X172547249Y-105843369D01*
X172547252Y-105843368D01*
X172547255Y-105843368D01*
X172717522Y-105783789D01*
X172870262Y-105687816D01*
X172997816Y-105560262D01*
X173093789Y-105407522D01*
X173153368Y-105237255D01*
X173156833Y-105206503D01*
X173173565Y-105058003D01*
X173173565Y-105057996D01*
X173153369Y-104878750D01*
X173153366Y-104878737D01*
X173112395Y-104761650D01*
X173108833Y-104691871D01*
X173143561Y-104631244D01*
X173164335Y-104615159D01*
X173286656Y-104539712D01*
X173399198Y-104427169D01*
X173460517Y-104393687D01*
X173530209Y-104398671D01*
X173581044Y-104435685D01*
X173581181Y-104435549D01*
X173582049Y-104436417D01*
X173584142Y-104437941D01*
X173586285Y-104440651D01*
X173586288Y-104440656D01*
X173710344Y-104564712D01*
X173859666Y-104656814D01*
X174026203Y-104711999D01*
X174128991Y-104722500D01*
X175179008Y-104722499D01*
X175179016Y-104722498D01*
X175179019Y-104722498D01*
X175235302Y-104716748D01*
X175281797Y-104711999D01*
X175448334Y-104656814D01*
X175597656Y-104564712D01*
X175608887Y-104553480D01*
X175670207Y-104519996D01*
X175739899Y-104524978D01*
X175761666Y-104535622D01*
X175916875Y-104631356D01*
X175916880Y-104631358D01*
X176083302Y-104686505D01*
X176083309Y-104686506D01*
X176186019Y-104696999D01*
X176435999Y-104696999D01*
X176436000Y-104696998D01*
X176436000Y-103934500D01*
X176936000Y-103934500D01*
X176936000Y-104696999D01*
X177185972Y-104696999D01*
X177185986Y-104696998D01*
X177288697Y-104686505D01*
X177455119Y-104631358D01*
X177455124Y-104631356D01*
X177604345Y-104539315D01*
X177728315Y-104415345D01*
X177820356Y-104266124D01*
X177820358Y-104266119D01*
X177875505Y-104099697D01*
X177875506Y-104099690D01*
X177885999Y-103996986D01*
X177886000Y-103996973D01*
X177886000Y-103934500D01*
X176936000Y-103934500D01*
X176436000Y-103934500D01*
X176436000Y-103558500D01*
X176455685Y-103491461D01*
X176508489Y-103445706D01*
X176560000Y-103434500D01*
X177885999Y-103434500D01*
X177885999Y-103372028D01*
X177885998Y-103372013D01*
X177875505Y-103269302D01*
X177820358Y-103102880D01*
X177820356Y-103102875D01*
X177728315Y-102953654D01*
X177634695Y-102860034D01*
X177601210Y-102798711D01*
X177606194Y-102729019D01*
X177634691Y-102684676D01*
X177728712Y-102590656D01*
X177820814Y-102441334D01*
X177875999Y-102274797D01*
X177886500Y-102172009D01*
X177886499Y-101546992D01*
X177886319Y-101545233D01*
X177875999Y-101444203D01*
X177875998Y-101444200D01*
X177871637Y-101431039D01*
X177820814Y-101277666D01*
X177728712Y-101128344D01*
X177604656Y-101004288D01*
X177455334Y-100912186D01*
X177450931Y-100910727D01*
X177393488Y-100870954D01*
X177368320Y-100817213D01*
X177362657Y-100788738D01*
X177340635Y-100735571D01*
X177309612Y-100660674D01*
X177293195Y-100636105D01*
X177293194Y-100636103D01*
X177232600Y-100545417D01*
X177232598Y-100545414D01*
X177131487Y-100444303D01*
X177131456Y-100444274D01*
X176966932Y-100279750D01*
X176937571Y-100233023D01*
X176934844Y-100225231D01*
X176903789Y-100136478D01*
X176807816Y-99983738D01*
X176680262Y-99856184D01*
X176655376Y-99840547D01*
X176527523Y-99760211D01*
X176357254Y-99700631D01*
X176357249Y-99700630D01*
X176178004Y-99680435D01*
X176177996Y-99680435D01*
X175998750Y-99700630D01*
X175998745Y-99700631D01*
X175828476Y-99760211D01*
X175675737Y-99856184D01*
X175548184Y-99983737D01*
X175452211Y-100136476D01*
X175392631Y-100306745D01*
X175392630Y-100306750D01*
X175372435Y-100485996D01*
X175372435Y-100486003D01*
X175392630Y-100665249D01*
X175392633Y-100665261D01*
X175392819Y-100665792D01*
X175392837Y-100666156D01*
X175394182Y-100672047D01*
X175393149Y-100672282D01*
X175396377Y-100735571D01*
X175361644Y-100796196D01*
X175299649Y-100828420D01*
X175263173Y-100830098D01*
X175179011Y-100821500D01*
X174128998Y-100821500D01*
X174128980Y-100821501D01*
X174026203Y-100832000D01*
X174026200Y-100832001D01*
X173859668Y-100887185D01*
X173859663Y-100887187D01*
X173710342Y-100979289D01*
X173586284Y-101103347D01*
X173584137Y-101106063D01*
X173582191Y-101107440D01*
X173581181Y-101108451D01*
X173581008Y-101108278D01*
X173527113Y-101146436D01*
X173457313Y-101149570D01*
X173399195Y-101116827D01*
X173286656Y-101004288D01*
X173286652Y-101004285D01*
X173217730Y-100961773D01*
X173171005Y-100909825D01*
X173159607Y-100870117D01*
X173153369Y-100814750D01*
X173153368Y-100814745D01*
X173093788Y-100644476D01*
X173031543Y-100545414D01*
X172997816Y-100491738D01*
X172870262Y-100364184D01*
X172861095Y-100358424D01*
X172717523Y-100268211D01*
X172547254Y-100208631D01*
X172547249Y-100208630D01*
X172368004Y-100188435D01*
X172367996Y-100188435D01*
X172188750Y-100208630D01*
X172188745Y-100208631D01*
X172018476Y-100268211D01*
X171865737Y-100364184D01*
X171738184Y-100491737D01*
X171642210Y-100644478D01*
X171582630Y-100814750D01*
X171576392Y-100870119D01*
X171549325Y-100934533D01*
X171518270Y-100961773D01*
X171449344Y-101004287D01*
X171449343Y-101004288D01*
X171352981Y-101100651D01*
X171291658Y-101134136D01*
X171221966Y-101129152D01*
X171166033Y-101087280D01*
X171141616Y-101021816D01*
X171141300Y-101012970D01*
X171141300Y-100108928D01*
X171160985Y-100041889D01*
X171177619Y-100021247D01*
X172352161Y-98846705D01*
X172413484Y-98813220D01*
X172483176Y-98818204D01*
X172527523Y-98846705D01*
X172580274Y-98899456D01*
X172580303Y-98899487D01*
X172681414Y-99000598D01*
X172681417Y-99000600D01*
X172796673Y-99077611D01*
X172827431Y-99090351D01*
X172827432Y-99090352D01*
X172861547Y-99104483D01*
X172924738Y-99130658D01*
X173041040Y-99153792D01*
X173060687Y-99157700D01*
X173060690Y-99157701D01*
X173060692Y-99157701D01*
X173205423Y-99157701D01*
X173205443Y-99157700D01*
X173471601Y-99157700D01*
X173537571Y-99176705D01*
X173542478Y-99179789D01*
X173614001Y-99204816D01*
X173712745Y-99239368D01*
X173712750Y-99239369D01*
X173891996Y-99259565D01*
X173892000Y-99259565D01*
X173892004Y-99259565D01*
X174071249Y-99239369D01*
X174071252Y-99239368D01*
X174071255Y-99239368D01*
X174241522Y-99179789D01*
X174394262Y-99083816D01*
X174521816Y-98956262D01*
X174617789Y-98803522D01*
X174677368Y-98633255D01*
X174683050Y-98582827D01*
X174697565Y-98454003D01*
X174697565Y-98453996D01*
X174677369Y-98274750D01*
X174677368Y-98274745D01*
X174652613Y-98204000D01*
X174617789Y-98104478D01*
X174601267Y-98078184D01*
X174567721Y-98024796D01*
X174521816Y-97951738D01*
X174394262Y-97824184D01*
X174377828Y-97813858D01*
X174241523Y-97728211D01*
X174071254Y-97668631D01*
X174071249Y-97668630D01*
X173892004Y-97648435D01*
X173891996Y-97648435D01*
X173712750Y-97668630D01*
X173712745Y-97668631D01*
X173542478Y-97728210D01*
X173538334Y-97730815D01*
X173471097Y-97749814D01*
X173404262Y-97729445D01*
X173384683Y-97713501D01*
X173209619Y-97538437D01*
X173176134Y-97477114D01*
X173173300Y-97450756D01*
X173173300Y-90246688D01*
X173173300Y-90246685D01*
X173169577Y-90227965D01*
X173142353Y-90091102D01*
X173107383Y-90006678D01*
X173094689Y-89976032D01*
X173081651Y-89944554D01*
X173081650Y-89944553D01*
X173081648Y-89944547D01*
X173065778Y-89920796D01*
X172993518Y-89812650D01*
X172878253Y-89697385D01*
X172878222Y-89697356D01*
X171473858Y-88292992D01*
X171473838Y-88292970D01*
X171357352Y-88176484D01*
X171357348Y-88176481D01*
X171225459Y-88088355D01*
X171225446Y-88088348D01*
X171078901Y-88027648D01*
X171078898Y-88027647D01*
X171075420Y-88026955D01*
X171064891Y-88024861D01*
X171064860Y-88024845D01*
X171064859Y-88024854D01*
X171063524Y-88024589D01*
X171061601Y-88024206D01*
X170999699Y-87991803D01*
X170969644Y-87945927D01*
X170946798Y-87884673D01*
X170946793Y-87884664D01*
X170860547Y-87769455D01*
X170860544Y-87769452D01*
X170745335Y-87683206D01*
X170745328Y-87683202D01*
X170610482Y-87632908D01*
X170610483Y-87632908D01*
X170550883Y-87626501D01*
X170550881Y-87626500D01*
X170550873Y-87626500D01*
X170550865Y-87626500D01*
X169986413Y-87626500D01*
X169919374Y-87606815D01*
X169898732Y-87590181D01*
X169347630Y-87039079D01*
X168723930Y-86415380D01*
X168690446Y-86354058D01*
X168695430Y-86284366D01*
X168737302Y-86228433D01*
X168802766Y-86204016D01*
X168811612Y-86203700D01*
X175757601Y-86203700D01*
X175823571Y-86222705D01*
X175828478Y-86225789D01*
X175828481Y-86225790D01*
X175998745Y-86285368D01*
X175998750Y-86285369D01*
X176177996Y-86305565D01*
X176178000Y-86305565D01*
X176178004Y-86305565D01*
X176357249Y-86285369D01*
X176357252Y-86285368D01*
X176357255Y-86285368D01*
X176527522Y-86225789D01*
X176680262Y-86129816D01*
X176807816Y-86002262D01*
X176903789Y-85849522D01*
X176963368Y-85679255D01*
X176963369Y-85679249D01*
X176983565Y-85500003D01*
X176983565Y-85499996D01*
X176963369Y-85320750D01*
X176963368Y-85320745D01*
X176903788Y-85150476D01*
X176807815Y-84997737D01*
X176680262Y-84870184D01*
X176527523Y-84774211D01*
X176357254Y-84714631D01*
X176357249Y-84714630D01*
X176178004Y-84694435D01*
X176177996Y-84694435D01*
X175998750Y-84714630D01*
X175998745Y-84714631D01*
X175828481Y-84774209D01*
X175828478Y-84774211D01*
X175823571Y-84777294D01*
X175757601Y-84796300D01*
X161775442Y-84796300D01*
X161775422Y-84796299D01*
X161769308Y-84796299D01*
X161630691Y-84796299D01*
X161630689Y-84796299D01*
X161494743Y-84823341D01*
X161494735Y-84823343D01*
X161366676Y-84876386D01*
X161251416Y-84953400D01*
X161207080Y-84997737D01*
X161153400Y-85051417D01*
X161153397Y-85051420D01*
X160747408Y-85457408D01*
X160686085Y-85490893D01*
X160671881Y-85493130D01*
X160504440Y-85509621D01*
X160504438Y-85509622D01*
X160315241Y-85567015D01*
X160140878Y-85660213D01*
X160140875Y-85660215D01*
X159988043Y-85785641D01*
X159903120Y-85889120D01*
X159845374Y-85928454D01*
X159775529Y-85930325D01*
X159719586Y-85898136D01*
X158998018Y-85176567D01*
X158998014Y-85176564D01*
X158849484Y-85077319D01*
X158849475Y-85077314D01*
X158684433Y-85008952D01*
X158684427Y-85008950D01*
X158509224Y-84974100D01*
X158509222Y-84974100D01*
X143755322Y-84974100D01*
X137532322Y-84974100D01*
X137353678Y-84974100D01*
X137353676Y-84974100D01*
X137178472Y-85008950D01*
X137178466Y-85008952D01*
X137013424Y-85077314D01*
X137013415Y-85077319D01*
X136864885Y-85176564D01*
X136864881Y-85176567D01*
X135911635Y-86129815D01*
X135721885Y-86319565D01*
X135626069Y-86415381D01*
X135592268Y-86449182D01*
X135530945Y-86482666D01*
X135504588Y-86485500D01*
X135263017Y-86485500D01*
X135263010Y-86485501D01*
X135203401Y-86491909D01*
X135150794Y-86511530D01*
X135081102Y-86516514D01*
X135019780Y-86483028D01*
X134986295Y-86421704D01*
X134984105Y-86382740D01*
X134984999Y-86373993D01*
X134985000Y-86373973D01*
X134985000Y-86324000D01*
X132535001Y-86324000D01*
X132535001Y-86373986D01*
X132545494Y-86476697D01*
X132600641Y-86643119D01*
X132600643Y-86643124D01*
X132692684Y-86792345D01*
X132816655Y-86916316D01*
X132816659Y-86916319D01*
X132819656Y-86918168D01*
X132821279Y-86919972D01*
X132822323Y-86920798D01*
X132822181Y-86920976D01*
X132866381Y-86970116D01*
X132877602Y-87039079D01*
X132849759Y-87103161D01*
X132819661Y-87129241D01*
X132816349Y-87131283D01*
X132816343Y-87131288D01*
X132692289Y-87255342D01*
X132600187Y-87404663D01*
X132600185Y-87404668D01*
X132590199Y-87434804D01*
X132545001Y-87571203D01*
X132545001Y-87571204D01*
X132545000Y-87571204D01*
X132534500Y-87673983D01*
X132534500Y-88274001D01*
X132534501Y-88274019D01*
X132545000Y-88376796D01*
X132545001Y-88376799D01*
X132591122Y-88515981D01*
X132600186Y-88543334D01*
X132606935Y-88554277D01*
X132625376Y-88621666D01*
X132604455Y-88688330D01*
X132589078Y-88707054D01*
X131769400Y-89526733D01*
X130960654Y-90335479D01*
X130960651Y-90335482D01*
X130929551Y-90366582D01*
X130848480Y-90447652D01*
X130768302Y-90567648D01*
X130760356Y-90579538D01*
X130760350Y-90579551D01*
X130699648Y-90726098D01*
X130699645Y-90726108D01*
X130668699Y-90881682D01*
X130668699Y-91046428D01*
X130668700Y-91046449D01*
X130668700Y-92111226D01*
X130649015Y-92178265D01*
X130596211Y-92224020D01*
X130527053Y-92233964D01*
X130497248Y-92225787D01*
X130409264Y-92189343D01*
X130409260Y-92189342D01*
X130380782Y-92183677D01*
X130318872Y-92151290D01*
X130287269Y-92101058D01*
X130285814Y-92096666D01*
X130193712Y-91947344D01*
X130069656Y-91823288D01*
X129992771Y-91775865D01*
X129946048Y-91723918D01*
X129934825Y-91654955D01*
X129943306Y-91622879D01*
X129962353Y-91576897D01*
X129993300Y-91421315D01*
X129993300Y-91351319D01*
X129993565Y-91346600D01*
X129993565Y-91337402D01*
X129993300Y-91332686D01*
X129993300Y-91262684D01*
X129993299Y-91262680D01*
X129962355Y-91107110D01*
X129962352Y-91107101D01*
X129951402Y-91080666D01*
X129937733Y-91047664D01*
X129901651Y-90960553D01*
X129901644Y-90960540D01*
X129813518Y-90828651D01*
X129813515Y-90828647D01*
X129701352Y-90716484D01*
X129701348Y-90716481D01*
X129569459Y-90628355D01*
X129569446Y-90628348D01*
X129422898Y-90567647D01*
X129422889Y-90567644D01*
X129267319Y-90536700D01*
X129267315Y-90536700D01*
X129197315Y-90536700D01*
X129192596Y-90536435D01*
X129183404Y-90536435D01*
X129178685Y-90536700D01*
X128958179Y-90536700D01*
X128802609Y-90567645D01*
X128802601Y-90567647D01*
X128760523Y-90585077D01*
X128656043Y-90628353D01*
X128524152Y-90716480D01*
X128485960Y-90754673D01*
X128411982Y-90828651D01*
X128411979Y-90828654D01*
X127611451Y-91629181D01*
X127550128Y-91662666D01*
X127523770Y-91665500D01*
X127200999Y-91665500D01*
X127200980Y-91665501D01*
X127098203Y-91676000D01*
X127098200Y-91676001D01*
X126931668Y-91731185D01*
X126931663Y-91731187D01*
X126782342Y-91823289D01*
X126658289Y-91947342D01*
X126566187Y-92096663D01*
X126566186Y-92096666D01*
X126511001Y-92263203D01*
X126511001Y-92263204D01*
X126511000Y-92263204D01*
X126500500Y-92365983D01*
X126500500Y-93366001D01*
X124999100Y-93366001D01*
X124999100Y-89992800D01*
X126353644Y-89992800D01*
X126373022Y-90189560D01*
X126373023Y-90189562D01*
X126430416Y-90378759D01*
X126523614Y-90553122D01*
X126523616Y-90553125D01*
X126649042Y-90705957D01*
X126801874Y-90831383D01*
X126801877Y-90831385D01*
X126898664Y-90883118D01*
X126976242Y-90924584D01*
X127165437Y-90981976D01*
X127165439Y-90981977D01*
X127183080Y-90983714D01*
X127362200Y-91001356D01*
X127558960Y-90981977D01*
X127748158Y-90924584D01*
X127922524Y-90831384D01*
X128075357Y-90705957D01*
X128200784Y-90553124D01*
X128293984Y-90378758D01*
X128294960Y-90375540D01*
X128300291Y-90357967D01*
X128331271Y-90306278D01*
X128558239Y-90079311D01*
X128797235Y-89840315D01*
X128896484Y-89691778D01*
X128964848Y-89526733D01*
X128974084Y-89480300D01*
X128980775Y-89446664D01*
X128999700Y-89351524D01*
X128999700Y-88668419D01*
X129018160Y-88603323D01*
X129077614Y-88506934D01*
X129132799Y-88340397D01*
X129143300Y-88237609D01*
X129143300Y-88137600D01*
X129842801Y-88137600D01*
X129842801Y-88237586D01*
X129853294Y-88340297D01*
X129908441Y-88506719D01*
X129908443Y-88506724D01*
X130000484Y-88655945D01*
X130124454Y-88779915D01*
X130273675Y-88871956D01*
X130273680Y-88871958D01*
X130440102Y-88927105D01*
X130440109Y-88927106D01*
X130542819Y-88937599D01*
X130642800Y-88937598D01*
X130642800Y-88137600D01*
X131142800Y-88137600D01*
X131142800Y-88937599D01*
X131242772Y-88937599D01*
X131242786Y-88937598D01*
X131345497Y-88927105D01*
X131511919Y-88871958D01*
X131511924Y-88871956D01*
X131661145Y-88779915D01*
X131785115Y-88655945D01*
X131877156Y-88506724D01*
X131877158Y-88506719D01*
X131932305Y-88340297D01*
X131932306Y-88340290D01*
X131942799Y-88237586D01*
X131942800Y-88237573D01*
X131942800Y-88137600D01*
X131142800Y-88137600D01*
X130642800Y-88137600D01*
X129842801Y-88137600D01*
X129143300Y-88137600D01*
X129143299Y-87637600D01*
X129842800Y-87637600D01*
X130642800Y-87637600D01*
X130642800Y-86837600D01*
X131142800Y-86837600D01*
X131142800Y-87637600D01*
X131942799Y-87637600D01*
X131942799Y-87537628D01*
X131942798Y-87537613D01*
X131932305Y-87434902D01*
X131877158Y-87268480D01*
X131877156Y-87268475D01*
X131785115Y-87119254D01*
X131661145Y-86995284D01*
X131511924Y-86903243D01*
X131511919Y-86903241D01*
X131345497Y-86848094D01*
X131345490Y-86848093D01*
X131242786Y-86837600D01*
X131142800Y-86837600D01*
X130642800Y-86837600D01*
X130642800Y-86837599D01*
X130542828Y-86837600D01*
X130542812Y-86837601D01*
X130440102Y-86848094D01*
X130273680Y-86903241D01*
X130273675Y-86903243D01*
X130124454Y-86995284D01*
X130000484Y-87119254D01*
X129908443Y-87268475D01*
X129908441Y-87268480D01*
X129853294Y-87434902D01*
X129853293Y-87434909D01*
X129842800Y-87537613D01*
X129842800Y-87637600D01*
X129143299Y-87637600D01*
X129143299Y-87537592D01*
X129142377Y-87528570D01*
X129132799Y-87434803D01*
X129132798Y-87434800D01*
X129122813Y-87404668D01*
X129077614Y-87268266D01*
X128985512Y-87118944D01*
X128861456Y-86994888D01*
X128739997Y-86919972D01*
X128712136Y-86902787D01*
X128712131Y-86902785D01*
X128710662Y-86902298D01*
X128545597Y-86847601D01*
X128545595Y-86847600D01*
X128442810Y-86837100D01*
X127742798Y-86837100D01*
X127742780Y-86837101D01*
X127640003Y-86847600D01*
X127640000Y-86847601D01*
X127473468Y-86902785D01*
X127473463Y-86902787D01*
X127324142Y-86994889D01*
X127200089Y-87118942D01*
X127107987Y-87268263D01*
X127107985Y-87268268D01*
X127107915Y-87268480D01*
X127052801Y-87434803D01*
X127052801Y-87434804D01*
X127052800Y-87434804D01*
X127042300Y-87537583D01*
X127042300Y-88237601D01*
X127042301Y-88237619D01*
X127052800Y-88340396D01*
X127052801Y-88340399D01*
X127064863Y-88376799D01*
X127107986Y-88506934D01*
X127167439Y-88603323D01*
X127185900Y-88668419D01*
X127185900Y-88835186D01*
X127166215Y-88902225D01*
X127149581Y-88922868D01*
X127048718Y-89023730D01*
X126997036Y-89054707D01*
X126976241Y-89061015D01*
X126801877Y-89154214D01*
X126801874Y-89154216D01*
X126649042Y-89279642D01*
X126523616Y-89432474D01*
X126523614Y-89432477D01*
X126430416Y-89606840D01*
X126373023Y-89796037D01*
X126373022Y-89796039D01*
X126353644Y-89992800D01*
X124999100Y-89992800D01*
X124999100Y-85824000D01*
X132535000Y-85824000D01*
X133510000Y-85824000D01*
X133510000Y-85074000D01*
X134010000Y-85074000D01*
X134010000Y-85824000D01*
X134984999Y-85824000D01*
X134984999Y-85774028D01*
X134984998Y-85774013D01*
X134974505Y-85671302D01*
X134919358Y-85504880D01*
X134919356Y-85504875D01*
X134827315Y-85355654D01*
X134703345Y-85231684D01*
X134554124Y-85139643D01*
X134554119Y-85139641D01*
X134387697Y-85084494D01*
X134387690Y-85084493D01*
X134284986Y-85074000D01*
X134010000Y-85074000D01*
X133510000Y-85074000D01*
X133235029Y-85074000D01*
X133235012Y-85074001D01*
X133132302Y-85084494D01*
X132965880Y-85139641D01*
X132965875Y-85139643D01*
X132816654Y-85231684D01*
X132692684Y-85355654D01*
X132600643Y-85504875D01*
X132600641Y-85504880D01*
X132545494Y-85671302D01*
X132545493Y-85671309D01*
X132535000Y-85774013D01*
X132535000Y-85824000D01*
X124999100Y-85824000D01*
X124999100Y-84479500D01*
X125018785Y-84412461D01*
X125071589Y-84366706D01*
X125123100Y-84355500D01*
X182324100Y-84355500D01*
X182391139Y-84375185D01*
G37*
%TD.AperFunction*%
%TD*%
M02*
