%TF.GenerationSoftware,KiCad,Pcbnew,8.0.1*%
%TF.CreationDate,2024-04-28T14:47:00+02:00*%
%TF.ProjectId,2in-2out_2.0,32696e2d-326f-4757-945f-322e302e6b69,rev?*%
%TF.SameCoordinates,Original*%
%TF.FileFunction,Profile,NP*%
%FSLAX46Y46*%
G04 Gerber Fmt 4.6, Leading zero omitted, Abs format (unit mm)*
G04 Created by KiCad (PCBNEW 8.0.1) date 2024-04-28 14:47:00*
%MOMM*%
%LPD*%
G01*
G04 APERTURE LIST*
%TA.AperFunction,Profile*%
%ADD10C,0.050000*%
%TD*%
G04 APERTURE END LIST*
D10*
X130342049Y-51005032D02*
X130562546Y-51045046D01*
X130772355Y-51123789D01*
X130964732Y-51238729D01*
X131133494Y-51386172D01*
X131273217Y-51561379D01*
X131379410Y-51758719D01*
X131448660Y-51971849D01*
X131478741Y-52193919D01*
X131468687Y-52417792D01*
X131418821Y-52636271D01*
X131330744Y-52842336D01*
X131207289Y-53029362D01*
X131052423Y-53191339D01*
X130871124Y-53323061D01*
X130669219Y-53420294D01*
X130453196Y-53479912D01*
X130230000Y-53500000D01*
X118800000Y-53500000D01*
X118687951Y-53494968D01*
X118467454Y-53454954D01*
X118257645Y-53376211D01*
X118065268Y-53261271D01*
X117896506Y-53113828D01*
X117756783Y-52938621D01*
X117650590Y-52741281D01*
X117581340Y-52528151D01*
X117551259Y-52306081D01*
X117561313Y-52082208D01*
X117611179Y-51863729D01*
X117699256Y-51657664D01*
X117822711Y-51470638D01*
X117977577Y-51308661D01*
X118158876Y-51176939D01*
X118360781Y-51079706D01*
X118576804Y-51020088D01*
X118800000Y-51000000D01*
X130230000Y-51000000D01*
X130342049Y-51005032D01*
X175312092Y-62751281D02*
G75*
G02*
X172312092Y-62751281I-1500000J0D01*
G01*
X172312092Y-62751281D02*
G75*
G02*
X175312092Y-62751281I1500000J0D01*
G01*
%TO.C,HUT_CNMB_2*%
X105562092Y-68751281D02*
X192062092Y-68751281D01*
X192062092Y-68751281D02*
X192062092Y-35751281D01*
X105562092Y-35751281D02*
X105562092Y-68751281D01*
X192062092Y-35751281D02*
X105562092Y-35751281D01*
%TD*%
M02*
