%TF.GenerationSoftware,KiCad,Pcbnew,8.0.1*%
%TF.CreationDate,2024-04-28T14:46:59+02:00*%
%TF.ProjectId,2in-2out_2.0,32696e2d-326f-4757-945f-322e302e6b69,rev?*%
%TF.SameCoordinates,Original*%
%TF.FileFunction,Copper,L2,Bot*%
%TF.FilePolarity,Positive*%
%FSLAX46Y46*%
G04 Gerber Fmt 4.6, Leading zero omitted, Abs format (unit mm)*
G04 Created by KiCad (PCBNEW 8.0.1) date 2024-04-28 14:46:59*
%MOMM*%
%LPD*%
G01*
G04 APERTURE LIST*
G04 Aperture macros list*
%AMRoundRect*
0 Rectangle with rounded corners*
0 $1 Rounding radius*
0 $2 $3 $4 $5 $6 $7 $8 $9 X,Y pos of 4 corners*
0 Add a 4 corners polygon primitive as box body*
4,1,4,$2,$3,$4,$5,$6,$7,$8,$9,$2,$3,0*
0 Add four circle primitives for the rounded corners*
1,1,$1+$1,$2,$3*
1,1,$1+$1,$4,$5*
1,1,$1+$1,$6,$7*
1,1,$1+$1,$8,$9*
0 Add four rect primitives between the rounded corners*
20,1,$1+$1,$2,$3,$4,$5,0*
20,1,$1+$1,$4,$5,$6,$7,0*
20,1,$1+$1,$6,$7,$8,$9,0*
20,1,$1+$1,$8,$9,$2,$3,0*%
G04 Aperture macros list end*
%TA.AperFunction,ComponentPad*%
%ADD10O,3.000000X4.000000*%
%TD*%
%TA.AperFunction,ComponentPad*%
%ADD11R,3.000000X2.000000*%
%TD*%
%TA.AperFunction,ComponentPad*%
%ADD12O,3.000000X2.000000*%
%TD*%
%TA.AperFunction,ComponentPad*%
%ADD13R,1.600000X1.600000*%
%TD*%
%TA.AperFunction,ComponentPad*%
%ADD14C,1.600000*%
%TD*%
%TA.AperFunction,ComponentPad*%
%ADD15R,1.700000X1.700000*%
%TD*%
%TA.AperFunction,ComponentPad*%
%ADD16O,1.700000X1.700000*%
%TD*%
%TA.AperFunction,ComponentPad*%
%ADD17RoundRect,0.250000X1.550000X-0.650000X1.550000X0.650000X-1.550000X0.650000X-1.550000X-0.650000X0*%
%TD*%
%TA.AperFunction,ComponentPad*%
%ADD18O,3.600000X1.800000*%
%TD*%
%TA.AperFunction,ComponentPad*%
%ADD19R,2.400000X2.400000*%
%TD*%
%TA.AperFunction,ComponentPad*%
%ADD20C,2.400000*%
%TD*%
%TA.AperFunction,ComponentPad*%
%ADD21R,2.500000X2.500000*%
%TD*%
%TA.AperFunction,ComponentPad*%
%ADD22C,2.500000*%
%TD*%
%TA.AperFunction,SMDPad,CuDef*%
%ADD23R,1.500000X1.000000*%
%TD*%
%TA.AperFunction,SMDPad,CuDef*%
%ADD24RoundRect,0.250000X0.475000X-0.250000X0.475000X0.250000X-0.475000X0.250000X-0.475000X-0.250000X0*%
%TD*%
%TA.AperFunction,SMDPad,CuDef*%
%ADD25RoundRect,0.150000X-0.512500X-0.150000X0.512500X-0.150000X0.512500X0.150000X-0.512500X0.150000X0*%
%TD*%
%TA.AperFunction,SMDPad,CuDef*%
%ADD26RoundRect,0.150000X-0.150000X0.875000X-0.150000X-0.875000X0.150000X-0.875000X0.150000X0.875000X0*%
%TD*%
%TA.AperFunction,SMDPad,CuDef*%
%ADD27RoundRect,0.225000X0.375000X-0.225000X0.375000X0.225000X-0.375000X0.225000X-0.375000X-0.225000X0*%
%TD*%
%TA.AperFunction,SMDPad,CuDef*%
%ADD28RoundRect,0.225000X-0.225000X-0.375000X0.225000X-0.375000X0.225000X0.375000X-0.225000X0.375000X0*%
%TD*%
%TA.AperFunction,ViaPad*%
%ADD29C,0.800000*%
%TD*%
%TA.AperFunction,ViaPad*%
%ADD30C,0.600000*%
%TD*%
%TA.AperFunction,Conductor*%
%ADD31C,2.400000*%
%TD*%
%TA.AperFunction,Conductor*%
%ADD32C,0.300000*%
%TD*%
%TA.AperFunction,Conductor*%
%ADD33C,0.600000*%
%TD*%
G04 APERTURE END LIST*
D10*
%TO.P,K2,11*%
%TO.N,/HV_2A*%
X124790000Y-48000000D03*
X124790000Y-40500000D03*
%TO.P,K2,12*%
%TO.N,unconnected-(K2-Pad12)*%
X129830000Y-48000000D03*
X129830000Y-40500000D03*
%TO.P,K2,14*%
%TO.N,/HV_2B*%
X119750000Y-48000000D03*
X119750000Y-40500000D03*
D11*
%TO.P,K2,A1*%
%TO.N,Net-(IC1-O1)*%
X145090000Y-40500000D03*
D12*
%TO.P,K2,A2*%
%TO.N,Net-(IC1-O2)*%
X145090000Y-48000000D03*
%TO.P,K2,A3*%
%TO.N,VDD*%
X145090000Y-44250000D03*
%TD*%
D13*
%TO.P,C1,1*%
%TO.N,VDD*%
X162560000Y-57785000D03*
D14*
%TO.P,C1,2*%
%TO.N,GND*%
X162560000Y-54285000D03*
%TD*%
D15*
%TO.P,J1,1,Pin_1*%
%TO.N,VBUS*%
X149460000Y-66000000D03*
D16*
%TO.P,J1,2,Pin_2*%
%TO.N,GND*%
X152000000Y-66000000D03*
%TO.P,J1,3,Pin_3*%
%TO.N,+3V3*%
X154540000Y-66000000D03*
%TO.P,J1,4,Pin_4*%
%TO.N,/PWM*%
X157080000Y-66000000D03*
%TO.P,J1,5,Pin_5*%
%TO.N,/MOSI*%
X159620000Y-66000000D03*
%TO.P,J1,6,Pin_6*%
%TO.N,/SSEL*%
X162160000Y-66000000D03*
%TO.P,J1,7,Pin_7*%
%TO.N,/MISO*%
X164700000Y-66000000D03*
%TO.P,J1,8,Pin_8*%
%TO.N,/SCK*%
X167240000Y-66000000D03*
%TO.P,J1,9,Pin_9*%
%TO.N,/EIB_DC*%
X169780000Y-66000000D03*
%TD*%
D10*
%TO.P,K1,11*%
%TO.N,/HV_1A*%
X124790000Y-64250000D03*
X124790000Y-56750000D03*
%TO.P,K1,12*%
%TO.N,unconnected-(K1-Pad12)*%
X129830000Y-64250000D03*
X129830000Y-56750000D03*
%TO.P,K1,14*%
%TO.N,/HV_1B*%
X119750000Y-64250000D03*
X119750000Y-56750000D03*
D11*
%TO.P,K1,A1*%
%TO.N,Net-(IC1-O3)*%
X145090000Y-56750000D03*
D12*
%TO.P,K1,A2*%
%TO.N,Net-(IC1-O4)*%
X145090000Y-64250000D03*
%TO.P,K1,A3*%
%TO.N,VDD*%
X145090000Y-60500000D03*
%TD*%
D17*
%TO.P,X9,1,KL*%
%TO.N,GND*%
X184785000Y-65405000D03*
D18*
%TO.P,X9,2,KL*%
%TO.N,VBUS*%
X184785000Y-59655000D03*
%TD*%
D19*
%TO.P,J2,1,Pin_1*%
%TO.N,/IO4*%
X186283600Y-50073200D03*
D20*
%TO.P,J2,2,Pin_2*%
%TO.N,/IO3*%
X186283600Y-46573200D03*
%TO.P,J2,3,Pin_3*%
%TO.N,/IN2*%
X186283600Y-43073200D03*
%TO.P,J2,4,Pin_4*%
%TO.N,/IN1*%
X186283600Y-39573200D03*
%TD*%
D13*
%TO.P,C2,1*%
%TO.N,VDD*%
X153670000Y-57785000D03*
D14*
%TO.P,C2,2*%
%TO.N,GND*%
X153670000Y-54285000D03*
%TD*%
D21*
%TO.P,J5,1,Pin_1*%
%TO.N,/HV_2B*%
X112268000Y-42727996D03*
D22*
%TO.P,J5,2,Pin_2*%
%TO.N,/HV_2A*%
X112268000Y-49077996D03*
%TO.P,J5,3,Pin_3*%
%TO.N,/HV_1B*%
X112268000Y-55427996D03*
%TO.P,J5,4,Pin_4*%
%TO.N,/HV_1A*%
X112268000Y-61777996D03*
%TD*%
D23*
%TO.P,SJ6,1,A*%
%TO.N,VDD*%
X182322500Y-55656250D03*
%TO.P,SJ6,2,B*%
%TO.N,/IO4F*%
X182322500Y-54356250D03*
%TD*%
%TO.P,SJ5,1,A*%
%TO.N,/IN4*%
X179782500Y-55656250D03*
%TO.P,SJ5,2,B*%
%TO.N,/IO4F*%
X179782500Y-54356250D03*
%TD*%
D24*
%TO.P,C3,1*%
%TO.N,+3V3*%
X160655000Y-43180000D03*
%TO.P,C3,2*%
%TO.N,GND*%
X160655000Y-41280000D03*
%TD*%
D25*
%TO.P,TVS1,1,I/O1*%
%TO.N,/IN4*%
X177932500Y-48072500D03*
%TO.P,TVS1,2,GND*%
%TO.N,GND*%
X177932500Y-47122500D03*
%TO.P,TVS1,3,I/O2*%
%TO.N,Net-(TVS1-I{slash}O2)*%
X177932500Y-46172500D03*
%TO.P,TVS1,4,I/O3*%
%TO.N,Net-(TVS1-I{slash}O3)*%
X180207500Y-46172500D03*
%TO.P,TVS1,5,VBUS*%
%TO.N,+3V3*%
X180207500Y-47122500D03*
%TO.P,TVS1,6,I/O4*%
%TO.N,/IN3*%
X180207500Y-48072500D03*
%TD*%
D23*
%TO.P,SJ4,1,A*%
%TO.N,+3V3*%
X177242500Y-50546250D03*
%TO.P,SJ4,2,B*%
%TO.N,/IO3F*%
X177242500Y-51846250D03*
%TD*%
D26*
%TO.P,IC1,1,I1*%
%TO.N,/O8*%
X147955000Y-38605000D03*
%TO.P,IC1,2,I2*%
%TO.N,/O7*%
X149225000Y-38605000D03*
%TO.P,IC1,3,I3*%
%TO.N,/O6*%
X150495000Y-38605000D03*
%TO.P,IC1,4,I4*%
%TO.N,/O5*%
X151765000Y-38605000D03*
%TO.P,IC1,5,I5*%
%TO.N,/O4*%
X153035000Y-38605000D03*
%TO.P,IC1,6,I6*%
%TO.N,/O3*%
X154305000Y-38605000D03*
%TO.P,IC1,7,I7*%
%TO.N,/O2*%
X155575000Y-38605000D03*
%TO.P,IC1,8,I8*%
%TO.N,/O1*%
X156845000Y-38605000D03*
%TO.P,IC1,9,GND*%
%TO.N,GND*%
X158115000Y-38605000D03*
%TO.P,IC1,10,COM*%
%TO.N,+3V3*%
X158115000Y-47905000D03*
%TO.P,IC1,11,O8*%
%TO.N,unconnected-(IC1-O8-Pad11)*%
X156845000Y-47905000D03*
%TO.P,IC1,12,O7*%
%TO.N,unconnected-(IC1-O7-Pad12)*%
X155575000Y-47905000D03*
%TO.P,IC1,13,O6*%
%TO.N,unconnected-(IC1-O6-Pad13)*%
X154305000Y-47905000D03*
%TO.P,IC1,14,O5*%
%TO.N,unconnected-(IC1-O5-Pad14)*%
X153035000Y-47905000D03*
%TO.P,IC1,15,O4*%
%TO.N,Net-(IC1-O4)*%
X151765000Y-47905000D03*
%TO.P,IC1,16,O3*%
%TO.N,Net-(IC1-O3)*%
X150495000Y-47905000D03*
%TO.P,IC1,17,O2*%
%TO.N,Net-(IC1-O2)*%
X149225000Y-47905000D03*
%TO.P,IC1,18,O1*%
%TO.N,Net-(IC1-O1)*%
X147955000Y-47905000D03*
%TD*%
D24*
%TO.P,C4,1*%
%TO.N,GND*%
X182245000Y-47940000D03*
%TO.P,C4,2*%
%TO.N,+3V3*%
X182245000Y-46040000D03*
%TD*%
D27*
%TO.P,D5,1,K*%
%TO.N,Net-(D5-K)*%
X172210000Y-48512000D03*
%TO.P,D5,2,A*%
%TO.N,GND*%
X172210000Y-45212000D03*
%TD*%
D28*
%TO.P,D2,1,K*%
%TO.N,Net-(D2-K)*%
X175388000Y-42926000D03*
%TO.P,D2,2,A*%
%TO.N,GND*%
X178688000Y-42926000D03*
%TD*%
D27*
%TO.P,D7,1,K*%
%TO.N,Net-(D7-K)*%
X175006000Y-48512000D03*
%TO.P,D7,2,A*%
%TO.N,GND*%
X175006000Y-45212000D03*
%TD*%
D23*
%TO.P,SJ3,1,A*%
%TO.N,VDD*%
X182407500Y-50546250D03*
%TO.P,SJ3,2,B*%
%TO.N,/IO3F*%
X182407500Y-51846250D03*
%TD*%
%TO.P,SJ2,1,A*%
%TO.N,/IN3*%
X179807500Y-50546250D03*
%TO.P,SJ2,2,B*%
%TO.N,/IO3F*%
X179807500Y-51846250D03*
%TD*%
%TO.P,SJ7,1,A*%
%TO.N,+3V3*%
X177242500Y-55641250D03*
%TO.P,SJ7,2,B*%
%TO.N,/IO4F*%
X177242500Y-54341250D03*
%TD*%
D28*
%TO.P,D4,1,K*%
%TO.N,Net-(D4-K)*%
X175388000Y-39116000D03*
%TO.P,D4,2,A*%
%TO.N,GND*%
X178688000Y-39116000D03*
%TD*%
D29*
%TO.N,GND*%
X172974000Y-43434000D03*
X183896000Y-48006000D03*
X168656000Y-56642000D03*
X163750000Y-50250000D03*
X175260000Y-60198000D03*
X166878000Y-41402000D03*
X141250000Y-50000000D03*
X176276000Y-37592000D03*
X142520000Y-50000000D03*
X165862000Y-37592000D03*
X151765000Y-41275000D03*
X184150000Y-41656000D03*
X141885000Y-49365000D03*
D30*
%TO.N,Net-(D2-K)*%
X174498000Y-42418000D03*
D29*
%TO.N,+3V3*%
X172085000Y-41275000D03*
X165608000Y-43180000D03*
X169418000Y-52324000D03*
X167894000Y-47498000D03*
X170815000Y-37480000D03*
X158115000Y-44450000D03*
D30*
%TO.N,Net-(TVS1-I{slash}O2)*%
X177038000Y-45212000D03*
%TO.N,Net-(TVS1-I{slash}O3)*%
X179832000Y-45720000D03*
%TO.N,Net-(D5-K)*%
X171450000Y-48260000D03*
%TO.N,Net-(D7-K)*%
X174244000Y-49022000D03*
%TO.N,/IN3*%
X177292000Y-49276000D03*
%TO.N,/IN4*%
X174548800Y-51968400D03*
X174498000Y-55372000D03*
%TO.N,/MOSI*%
X154305000Y-45070000D03*
X154940000Y-49530000D03*
%TO.N,/SSEL*%
X156210000Y-49530000D03*
X156210000Y-45705000D03*
%TO.N,/MISO*%
X158623000Y-50927000D03*
X167640000Y-46355000D03*
X161650000Y-47900000D03*
%TO.N,Net-(D4-K)*%
X174498000Y-38608000D03*
%TO.N,/IO3F*%
X181007500Y-52346250D03*
%TO.N,/IO4F*%
X181007500Y-54946250D03*
%TO.N,/O1*%
X156250000Y-41910000D03*
%TO.N,/O8*%
X148590000Y-36830000D03*
%TO.N,/O7*%
X149860000Y-36830000D03*
%TO.N,/O6*%
X151130000Y-36830000D03*
%TO.N,/O5*%
X152400000Y-36830000D03*
%TO.N,/O4*%
X153670000Y-36830000D03*
%TO.N,/O3*%
X154940000Y-36830000D03*
%TO.N,/O2*%
X156210000Y-36830000D03*
D29*
%TO.N,VDD*%
X165100000Y-57785000D03*
X165735000Y-59690000D03*
X165735000Y-58420000D03*
%TD*%
D31*
%TO.N,/HV_2B*%
X113594047Y-40500000D02*
X119750000Y-40500000D01*
X112268000Y-41826047D02*
X113594047Y-40500000D01*
X112268000Y-42727996D02*
X112268000Y-41826047D01*
%TO.N,/HV_1B*%
X118427996Y-55427996D02*
X112268000Y-55427996D01*
X119750000Y-56750000D02*
X118427996Y-55427996D01*
D32*
%TO.N,Net-(D2-K)*%
X174880000Y-42418000D02*
X175388000Y-42926000D01*
X174498000Y-42418000D02*
X174880000Y-42418000D01*
D33*
%TO.N,+3V3*%
X182245000Y-43815000D02*
X182245000Y-46040000D01*
X151130000Y-51968400D02*
X151130000Y-60325000D01*
X158115000Y-47905000D02*
X158115000Y-45085000D01*
X175607500Y-54956250D02*
X175607500Y-53086250D01*
X173837850Y-53086250D02*
X175607500Y-53086250D01*
X168249600Y-47498000D02*
X171246800Y-50495200D01*
X172085000Y-41275000D02*
X179705000Y-41275000D01*
X170815000Y-37480000D02*
X170815000Y-40005000D01*
X157099000Y-50546000D02*
X152552400Y-50546000D01*
X169418000Y-52324000D02*
X171246800Y-50495200D01*
X154540000Y-63735000D02*
X154540000Y-66000000D01*
X151130000Y-60325000D02*
X154540000Y-63735000D01*
X177242500Y-50546250D02*
X176407500Y-50546250D01*
X158115000Y-47905000D02*
X158115000Y-49530000D01*
X167894000Y-47498000D02*
X168249600Y-47498000D01*
X176407500Y-50546250D02*
X175607500Y-51346250D01*
X179705000Y-41275000D02*
X182245000Y-43815000D01*
X158115000Y-49530000D02*
X157099000Y-50546000D01*
X152552400Y-50546000D02*
X151130000Y-51968400D01*
X181162500Y-47122500D02*
X182245000Y-46040000D01*
X175607500Y-51346250D02*
X175607500Y-53086250D01*
X176292500Y-55641250D02*
X175607500Y-54956250D01*
X158115000Y-45085000D02*
X158115000Y-44450000D01*
X180207500Y-47122500D02*
X181162500Y-47122500D01*
X177242500Y-55641250D02*
X176292500Y-55641250D01*
X158115000Y-44450000D02*
X159385000Y-43180000D01*
X171246800Y-50495200D02*
X173837850Y-53086250D01*
X160655000Y-43180000D02*
X165608000Y-43180000D01*
X170815000Y-40005000D02*
X172085000Y-41275000D01*
X159385000Y-43180000D02*
X160655000Y-43180000D01*
D32*
%TO.N,Net-(TVS1-I{slash}O2)*%
X177038000Y-45278000D02*
X177932500Y-46172500D01*
X177038000Y-45212000D02*
X177038000Y-45278000D01*
%TO.N,Net-(TVS1-I{slash}O3)*%
X179832000Y-45720000D02*
X179832000Y-45797000D01*
X179832000Y-45797000D02*
X180207500Y-46172500D01*
%TO.N,Net-(D5-K)*%
X171702000Y-48512000D02*
X171450000Y-48260000D01*
X172210000Y-48512000D02*
X171702000Y-48512000D01*
%TO.N,Net-(D7-K)*%
X174754000Y-48512000D02*
X175006000Y-48512000D01*
X174244000Y-49022000D02*
X174754000Y-48512000D01*
%TO.N,/IN3*%
X179807500Y-50546250D02*
X179807500Y-49554500D01*
X180207500Y-48392500D02*
X180207500Y-48072500D01*
X179807500Y-49276000D02*
X177292000Y-49276000D01*
X179807500Y-48792500D02*
X180207500Y-48392500D01*
X179807500Y-49554500D02*
X179807500Y-49276000D01*
X179807500Y-49554500D02*
X179807500Y-48792500D01*
%TO.N,/IN4*%
X178796750Y-56642000D02*
X179782500Y-55656250D01*
X174548800Y-50749200D02*
X177225500Y-48072500D01*
X177225500Y-48072500D02*
X177932500Y-48072500D01*
X174548800Y-51968400D02*
X174548800Y-50749200D01*
X174498000Y-55372000D02*
X175768000Y-56642000D01*
X175768000Y-56642000D02*
X178796750Y-56642000D01*
%TO.N,Net-(IC1-O4)*%
X147828000Y-61566200D02*
X145144200Y-64250000D01*
X151765000Y-49911000D02*
X147828000Y-53848000D01*
X147828000Y-53848000D02*
X147828000Y-61566200D01*
X151765000Y-47905000D02*
X151765000Y-49911000D01*
%TO.N,Net-(IC1-O3)*%
X145090000Y-55570000D02*
X150495000Y-50165000D01*
X145090000Y-56750000D02*
X145090000Y-55570000D01*
X150495000Y-50165000D02*
X150495000Y-47905000D01*
%TO.N,Net-(IC1-O2)*%
X145000000Y-48250000D02*
X145000000Y-47750000D01*
X149225000Y-48929999D02*
X148624999Y-49530000D01*
X146620000Y-49530000D02*
X148624999Y-49530000D01*
X149225000Y-47905000D02*
X149225000Y-48929999D01*
X145090000Y-48000000D02*
X146620000Y-49530000D01*
%TO.N,Net-(IC1-O1)*%
X147955000Y-41455000D02*
X147955000Y-47905000D01*
X147000000Y-40500000D02*
X147955000Y-41455000D01*
X145090000Y-40500000D02*
X147000000Y-40500000D01*
%TO.N,/MOSI*%
X154940000Y-49530000D02*
X154940000Y-45705000D01*
X154940000Y-45705000D02*
X154305000Y-45070000D01*
%TO.N,/SSEL*%
X156210000Y-49530000D02*
X156210000Y-45705000D01*
%TO.N,/MISO*%
X161650000Y-47900000D02*
X158623000Y-50927000D01*
X167640000Y-46355000D02*
X163195000Y-46355000D01*
X163195000Y-46355000D02*
X161650000Y-47900000D01*
D31*
%TO.N,/HV_2B*%
X119750000Y-48000000D02*
X119750000Y-40500000D01*
%TO.N,/HV_1B*%
X119750000Y-56750000D02*
X119750000Y-59750000D01*
X119750000Y-59750000D02*
X119750000Y-64250000D01*
D32*
%TO.N,Net-(D4-K)*%
X174880000Y-38608000D02*
X175388000Y-39116000D01*
X174498000Y-38608000D02*
X174880000Y-38608000D01*
%TO.N,/IO3F*%
X179782500Y-51816250D02*
X179782500Y-52036250D01*
X177242500Y-51846250D02*
X179807500Y-51846250D01*
X181007500Y-52346250D02*
X181007500Y-51846250D01*
X181007500Y-51846250D02*
X182407500Y-51846250D01*
X179807500Y-51846250D02*
X181007500Y-51846250D01*
%TO.N,/IO4F*%
X177257500Y-54356250D02*
X177242500Y-54341250D01*
X181007500Y-54356250D02*
X181007500Y-54946250D01*
X179782500Y-54356250D02*
X177257500Y-54356250D01*
X182322500Y-54356250D02*
X181007500Y-54356250D01*
X181007500Y-54356250D02*
X179782500Y-54356250D01*
%TO.N,/O1*%
X156845000Y-41315000D02*
X156845000Y-38605000D01*
X156250000Y-41910000D02*
X156845000Y-41315000D01*
%TO.N,/O8*%
X147955000Y-38605000D02*
X147955000Y-37465000D01*
X147955000Y-37465000D02*
X148590000Y-36830000D01*
%TO.N,/O7*%
X149225000Y-38605000D02*
X149225000Y-37465000D01*
X149225000Y-37465000D02*
X149860000Y-36830000D01*
%TO.N,/O6*%
X150495000Y-38605000D02*
X150495000Y-37465000D01*
X150495000Y-37465000D02*
X151130000Y-36830000D01*
%TO.N,/O5*%
X151765000Y-37465000D02*
X152400000Y-36830000D01*
X151765000Y-38605000D02*
X151765000Y-37465000D01*
%TO.N,/O4*%
X153035000Y-37465000D02*
X153670000Y-36830000D01*
X153035000Y-38605000D02*
X153035000Y-37465000D01*
%TO.N,/O3*%
X154305000Y-37465000D02*
X154940000Y-36830000D01*
X154305000Y-38605000D02*
X154305000Y-37465000D01*
%TO.N,/O2*%
X155575000Y-37465000D02*
X156210000Y-36830000D01*
X155575000Y-38605000D02*
X155575000Y-37465000D01*
D33*
%TO.N,VDD*%
X184007500Y-55746250D02*
X184007500Y-50946250D01*
X184007500Y-57038500D02*
X182626000Y-58420000D01*
X183917500Y-55656250D02*
X184007500Y-55746250D01*
X184007500Y-50946250D02*
X183607500Y-50546250D01*
X182626000Y-58420000D02*
X165735000Y-58420000D01*
X165100000Y-57785000D02*
X162560000Y-57785000D01*
X182322500Y-55656250D02*
X183917500Y-55656250D01*
X184007500Y-55746250D02*
X184007500Y-57038500D01*
X183607500Y-50546250D02*
X182407500Y-50546250D01*
X165735000Y-58420000D02*
X165735000Y-59690000D01*
X162560000Y-57785000D02*
X153670000Y-57785000D01*
X165100000Y-57785000D02*
X165735000Y-58420000D01*
%TD*%
%TA.AperFunction,Conductor*%
%TO.N,GND*%
G36*
X148584549Y-35778127D02*
G01*
X148600035Y-35776781D01*
X149849965Y-35776781D01*
X149854549Y-35778127D01*
X149870035Y-35776781D01*
X151119965Y-35776781D01*
X151124549Y-35778127D01*
X151140035Y-35776781D01*
X152389965Y-35776781D01*
X152394549Y-35778127D01*
X152410035Y-35776781D01*
X153659965Y-35776781D01*
X153664549Y-35778127D01*
X153680035Y-35776781D01*
X154929965Y-35776781D01*
X154934549Y-35778127D01*
X154950035Y-35776781D01*
X156199965Y-35776781D01*
X156204549Y-35778127D01*
X156220035Y-35776781D01*
X191912592Y-35776781D01*
X191979631Y-35796466D01*
X192025386Y-35849270D01*
X192036592Y-35900781D01*
X192036592Y-68601781D01*
X192016907Y-68668820D01*
X191964103Y-68714575D01*
X191912592Y-68725781D01*
X140459000Y-68725781D01*
X140391961Y-68706096D01*
X140346206Y-68653292D01*
X140335000Y-68601781D01*
X140335000Y-64368097D01*
X143089500Y-64368097D01*
X143126446Y-64601368D01*
X143199433Y-64825996D01*
X143268673Y-64961886D01*
X143306657Y-65036433D01*
X143445483Y-65227510D01*
X143612490Y-65394517D01*
X143803567Y-65533343D01*
X143902991Y-65584002D01*
X144014003Y-65640566D01*
X144014005Y-65640566D01*
X144014008Y-65640568D01*
X144134412Y-65679689D01*
X144238631Y-65713553D01*
X144471903Y-65750500D01*
X144471908Y-65750500D01*
X145708097Y-65750500D01*
X145941368Y-65713553D01*
X146165992Y-65640568D01*
X146376433Y-65533343D01*
X146567510Y-65394517D01*
X146734517Y-65227510D01*
X146873343Y-65036433D01*
X146980568Y-64825992D01*
X147053553Y-64601368D01*
X147069326Y-64501780D01*
X147090500Y-64368097D01*
X147090500Y-64131902D01*
X147053553Y-63898631D01*
X146980566Y-63674003D01*
X146906559Y-63528757D01*
X146893663Y-63460088D01*
X146919939Y-63395347D01*
X146929354Y-63384790D01*
X148333276Y-61980870D01*
X148393615Y-61890565D01*
X148404464Y-61874329D01*
X148404465Y-61874327D01*
X148453501Y-61755944D01*
X148475666Y-61644517D01*
X148478500Y-61630271D01*
X148478500Y-54168808D01*
X148498185Y-54101769D01*
X148514819Y-54081127D01*
X150117819Y-52478127D01*
X150179142Y-52444642D01*
X150248834Y-52449626D01*
X150304767Y-52491498D01*
X150329184Y-52556962D01*
X150329500Y-52565808D01*
X150329500Y-60403846D01*
X150360261Y-60558489D01*
X150360264Y-60558501D01*
X150420602Y-60704172D01*
X150420609Y-60704185D01*
X150508210Y-60835288D01*
X150508213Y-60835292D01*
X153703181Y-64030259D01*
X153736666Y-64091582D01*
X153739500Y-64117940D01*
X153739500Y-64847309D01*
X153719815Y-64914348D01*
X153686625Y-64948883D01*
X153668601Y-64961503D01*
X153668595Y-64961508D01*
X153501508Y-65128594D01*
X153371269Y-65314595D01*
X153316692Y-65358219D01*
X153247193Y-65365412D01*
X153184839Y-65333890D01*
X153168119Y-65314594D01*
X153038113Y-65128926D01*
X153038108Y-65128920D01*
X152871082Y-64961894D01*
X152677578Y-64826399D01*
X152463492Y-64726570D01*
X152463486Y-64726567D01*
X152250000Y-64669364D01*
X152250000Y-65566988D01*
X152192993Y-65534075D01*
X152065826Y-65500000D01*
X151934174Y-65500000D01*
X151807007Y-65534075D01*
X151750000Y-65566988D01*
X151750000Y-64669364D01*
X151749999Y-64669364D01*
X151536513Y-64726567D01*
X151536507Y-64726570D01*
X151322422Y-64826399D01*
X151322420Y-64826400D01*
X151128926Y-64961886D01*
X151006865Y-65083947D01*
X150945542Y-65117431D01*
X150875850Y-65112447D01*
X150819917Y-65070575D01*
X150803002Y-65039598D01*
X150753797Y-64907671D01*
X150753793Y-64907664D01*
X150667547Y-64792455D01*
X150667544Y-64792452D01*
X150552335Y-64706206D01*
X150552328Y-64706202D01*
X150417482Y-64655908D01*
X150417483Y-64655908D01*
X150357883Y-64649501D01*
X150357881Y-64649500D01*
X150357873Y-64649500D01*
X150357864Y-64649500D01*
X148562129Y-64649500D01*
X148562123Y-64649501D01*
X148502516Y-64655908D01*
X148367671Y-64706202D01*
X148367664Y-64706206D01*
X148252455Y-64792452D01*
X148252452Y-64792455D01*
X148166206Y-64907664D01*
X148166202Y-64907671D01*
X148115908Y-65042517D01*
X148109501Y-65102116D01*
X148109500Y-65102135D01*
X148109500Y-66897870D01*
X148109501Y-66897876D01*
X148115908Y-66957483D01*
X148166202Y-67092328D01*
X148166206Y-67092335D01*
X148252452Y-67207544D01*
X148252455Y-67207547D01*
X148367664Y-67293793D01*
X148367671Y-67293797D01*
X148502517Y-67344091D01*
X148502516Y-67344091D01*
X148509444Y-67344835D01*
X148562127Y-67350500D01*
X150357872Y-67350499D01*
X150417483Y-67344091D01*
X150552331Y-67293796D01*
X150667546Y-67207546D01*
X150753796Y-67092331D01*
X150803002Y-66960401D01*
X150844872Y-66904468D01*
X150910337Y-66880050D01*
X150978610Y-66894901D01*
X151006865Y-66916053D01*
X151128917Y-67038105D01*
X151322421Y-67173600D01*
X151536507Y-67273429D01*
X151536516Y-67273433D01*
X151750000Y-67330634D01*
X151750000Y-66433012D01*
X151807007Y-66465925D01*
X151934174Y-66500000D01*
X152065826Y-66500000D01*
X152192993Y-66465925D01*
X152250000Y-66433012D01*
X152250000Y-67330634D01*
X152463483Y-67273433D01*
X152463492Y-67273429D01*
X152677578Y-67173600D01*
X152871082Y-67038105D01*
X153038105Y-66871082D01*
X153168119Y-66685405D01*
X153222696Y-66641781D01*
X153292195Y-66634588D01*
X153354549Y-66666110D01*
X153371269Y-66685405D01*
X153501505Y-66871401D01*
X153668599Y-67038495D01*
X153765384Y-67106265D01*
X153862165Y-67174032D01*
X153862167Y-67174033D01*
X153862170Y-67174035D01*
X154076337Y-67273903D01*
X154304592Y-67335063D01*
X154481034Y-67350500D01*
X154539999Y-67355659D01*
X154540000Y-67355659D01*
X154540001Y-67355659D01*
X154598966Y-67350500D01*
X154775408Y-67335063D01*
X155003663Y-67273903D01*
X155217830Y-67174035D01*
X155411401Y-67038495D01*
X155578495Y-66871401D01*
X155708425Y-66685842D01*
X155763002Y-66642217D01*
X155832500Y-66635023D01*
X155894855Y-66666546D01*
X155911575Y-66685842D01*
X156041500Y-66871395D01*
X156041505Y-66871401D01*
X156208599Y-67038495D01*
X156305384Y-67106265D01*
X156402165Y-67174032D01*
X156402167Y-67174033D01*
X156402170Y-67174035D01*
X156616337Y-67273903D01*
X156844592Y-67335063D01*
X157021034Y-67350500D01*
X157079999Y-67355659D01*
X157080000Y-67355659D01*
X157080001Y-67355659D01*
X157138966Y-67350500D01*
X157315408Y-67335063D01*
X157543663Y-67273903D01*
X157757830Y-67174035D01*
X157951401Y-67038495D01*
X158118495Y-66871401D01*
X158248425Y-66685842D01*
X158303002Y-66642217D01*
X158372500Y-66635023D01*
X158434855Y-66666546D01*
X158451575Y-66685842D01*
X158581500Y-66871395D01*
X158581505Y-66871401D01*
X158748599Y-67038495D01*
X158845384Y-67106265D01*
X158942165Y-67174032D01*
X158942167Y-67174033D01*
X158942170Y-67174035D01*
X159156337Y-67273903D01*
X159384592Y-67335063D01*
X159561034Y-67350500D01*
X159619999Y-67355659D01*
X159620000Y-67355659D01*
X159620001Y-67355659D01*
X159678966Y-67350500D01*
X159855408Y-67335063D01*
X160083663Y-67273903D01*
X160297830Y-67174035D01*
X160491401Y-67038495D01*
X160658495Y-66871401D01*
X160788425Y-66685842D01*
X160843002Y-66642217D01*
X160912500Y-66635023D01*
X160974855Y-66666546D01*
X160991575Y-66685842D01*
X161121500Y-66871395D01*
X161121505Y-66871401D01*
X161288599Y-67038495D01*
X161385384Y-67106265D01*
X161482165Y-67174032D01*
X161482167Y-67174033D01*
X161482170Y-67174035D01*
X161696337Y-67273903D01*
X161924592Y-67335063D01*
X162101034Y-67350500D01*
X162159999Y-67355659D01*
X162160000Y-67355659D01*
X162160001Y-67355659D01*
X162218966Y-67350500D01*
X162395408Y-67335063D01*
X162623663Y-67273903D01*
X162837830Y-67174035D01*
X163031401Y-67038495D01*
X163198495Y-66871401D01*
X163328425Y-66685842D01*
X163383002Y-66642217D01*
X163452500Y-66635023D01*
X163514855Y-66666546D01*
X163531575Y-66685842D01*
X163661500Y-66871395D01*
X163661505Y-66871401D01*
X163828599Y-67038495D01*
X163925384Y-67106265D01*
X164022165Y-67174032D01*
X164022167Y-67174033D01*
X164022170Y-67174035D01*
X164236337Y-67273903D01*
X164464592Y-67335063D01*
X164641034Y-67350500D01*
X164699999Y-67355659D01*
X164700000Y-67355659D01*
X164700001Y-67355659D01*
X164758966Y-67350500D01*
X164935408Y-67335063D01*
X165163663Y-67273903D01*
X165377830Y-67174035D01*
X165571401Y-67038495D01*
X165738495Y-66871401D01*
X165868425Y-66685842D01*
X165923002Y-66642217D01*
X165992500Y-66635023D01*
X166054855Y-66666546D01*
X166071575Y-66685842D01*
X166201500Y-66871395D01*
X166201505Y-66871401D01*
X166368599Y-67038495D01*
X166465384Y-67106265D01*
X166562165Y-67174032D01*
X166562167Y-67174033D01*
X166562170Y-67174035D01*
X166776337Y-67273903D01*
X167004592Y-67335063D01*
X167181034Y-67350500D01*
X167239999Y-67355659D01*
X167240000Y-67355659D01*
X167240001Y-67355659D01*
X167298966Y-67350500D01*
X167475408Y-67335063D01*
X167703663Y-67273903D01*
X167917830Y-67174035D01*
X168111401Y-67038495D01*
X168278495Y-66871401D01*
X168408425Y-66685842D01*
X168463002Y-66642217D01*
X168532500Y-66635023D01*
X168594855Y-66666546D01*
X168611575Y-66685842D01*
X168741500Y-66871395D01*
X168741505Y-66871401D01*
X168908599Y-67038495D01*
X169005384Y-67106265D01*
X169102165Y-67174032D01*
X169102167Y-67174033D01*
X169102170Y-67174035D01*
X169316337Y-67273903D01*
X169544592Y-67335063D01*
X169721034Y-67350500D01*
X169779999Y-67355659D01*
X169780000Y-67355659D01*
X169780001Y-67355659D01*
X169838966Y-67350500D01*
X170015408Y-67335063D01*
X170243663Y-67273903D01*
X170457830Y-67174035D01*
X170651401Y-67038495D01*
X170818495Y-66871401D01*
X170954035Y-66677830D01*
X171053903Y-66463663D01*
X171115063Y-66235408D01*
X171135659Y-66000000D01*
X171115063Y-65764592D01*
X171053903Y-65536337D01*
X170954035Y-65322171D01*
X170948731Y-65314595D01*
X170836982Y-65155000D01*
X182485000Y-65155000D01*
X184236518Y-65155000D01*
X184225889Y-65173409D01*
X184185000Y-65326009D01*
X184185000Y-65483991D01*
X184225889Y-65636591D01*
X184236518Y-65655000D01*
X182485001Y-65655000D01*
X182485001Y-66104986D01*
X182495494Y-66207697D01*
X182550641Y-66374119D01*
X182550643Y-66374124D01*
X182642684Y-66523345D01*
X182766654Y-66647315D01*
X182915875Y-66739356D01*
X182915880Y-66739358D01*
X183082302Y-66794505D01*
X183082309Y-66794506D01*
X183185019Y-66804999D01*
X184534999Y-66804999D01*
X184535000Y-66804998D01*
X184535000Y-65953482D01*
X184553409Y-65964111D01*
X184706009Y-66005000D01*
X184863991Y-66005000D01*
X185016591Y-65964111D01*
X185035000Y-65953482D01*
X185035000Y-66804999D01*
X186384972Y-66804999D01*
X186384986Y-66804998D01*
X186487697Y-66794505D01*
X186654119Y-66739358D01*
X186654124Y-66739356D01*
X186803345Y-66647315D01*
X186927315Y-66523345D01*
X187019356Y-66374124D01*
X187019358Y-66374119D01*
X187074505Y-66207697D01*
X187074506Y-66207690D01*
X187084999Y-66104986D01*
X187085000Y-66104973D01*
X187085000Y-65655000D01*
X185333482Y-65655000D01*
X185344111Y-65636591D01*
X185385000Y-65483991D01*
X185385000Y-65326009D01*
X185344111Y-65173409D01*
X185333482Y-65155000D01*
X187084999Y-65155000D01*
X187084999Y-64705028D01*
X187084998Y-64705013D01*
X187074505Y-64602302D01*
X187019358Y-64435880D01*
X187019356Y-64435875D01*
X186927315Y-64286654D01*
X186803345Y-64162684D01*
X186654124Y-64070643D01*
X186654119Y-64070641D01*
X186487697Y-64015494D01*
X186487690Y-64015493D01*
X186384986Y-64005000D01*
X185035000Y-64005000D01*
X185035000Y-64856517D01*
X185016591Y-64845889D01*
X184863991Y-64805000D01*
X184706009Y-64805000D01*
X184553409Y-64845889D01*
X184535000Y-64856517D01*
X184535000Y-64005000D01*
X183185028Y-64005000D01*
X183185012Y-64005001D01*
X183082302Y-64015494D01*
X182915880Y-64070641D01*
X182915875Y-64070643D01*
X182766654Y-64162684D01*
X182642684Y-64286654D01*
X182550643Y-64435875D01*
X182550641Y-64435880D01*
X182495494Y-64602302D01*
X182495493Y-64602309D01*
X182485000Y-64705013D01*
X182485000Y-65155000D01*
X170836982Y-65155000D01*
X170818494Y-65128597D01*
X170651402Y-64961506D01*
X170651395Y-64961501D01*
X170457834Y-64825967D01*
X170457830Y-64825965D01*
X170457828Y-64825964D01*
X170243663Y-64726097D01*
X170243659Y-64726096D01*
X170243655Y-64726094D01*
X170015413Y-64664938D01*
X170015403Y-64664936D01*
X169780001Y-64644341D01*
X169779999Y-64644341D01*
X169544596Y-64664936D01*
X169544586Y-64664938D01*
X169316344Y-64726094D01*
X169316335Y-64726098D01*
X169102171Y-64825964D01*
X169102169Y-64825965D01*
X168908597Y-64961505D01*
X168741505Y-65128597D01*
X168611575Y-65314158D01*
X168556998Y-65357783D01*
X168487500Y-65364977D01*
X168425145Y-65333454D01*
X168408425Y-65314158D01*
X168278494Y-65128597D01*
X168111402Y-64961506D01*
X168111395Y-64961501D01*
X167917834Y-64825967D01*
X167917830Y-64825965D01*
X167917828Y-64825964D01*
X167703663Y-64726097D01*
X167703659Y-64726096D01*
X167703655Y-64726094D01*
X167475413Y-64664938D01*
X167475403Y-64664936D01*
X167240001Y-64644341D01*
X167239999Y-64644341D01*
X167004596Y-64664936D01*
X167004586Y-64664938D01*
X166776344Y-64726094D01*
X166776335Y-64726098D01*
X166562171Y-64825964D01*
X166562169Y-64825965D01*
X166368597Y-64961505D01*
X166201505Y-65128597D01*
X166071575Y-65314158D01*
X166016998Y-65357783D01*
X165947500Y-65364977D01*
X165885145Y-65333454D01*
X165868425Y-65314158D01*
X165738494Y-65128597D01*
X165571402Y-64961506D01*
X165571395Y-64961501D01*
X165377834Y-64825967D01*
X165377830Y-64825965D01*
X165377828Y-64825964D01*
X165163663Y-64726097D01*
X165163659Y-64726096D01*
X165163655Y-64726094D01*
X164935413Y-64664938D01*
X164935403Y-64664936D01*
X164700001Y-64644341D01*
X164699999Y-64644341D01*
X164464596Y-64664936D01*
X164464586Y-64664938D01*
X164236344Y-64726094D01*
X164236335Y-64726098D01*
X164022171Y-64825964D01*
X164022169Y-64825965D01*
X163828597Y-64961505D01*
X163661505Y-65128597D01*
X163531575Y-65314158D01*
X163476998Y-65357783D01*
X163407500Y-65364977D01*
X163345145Y-65333454D01*
X163328425Y-65314158D01*
X163198494Y-65128597D01*
X163031402Y-64961506D01*
X163031395Y-64961501D01*
X162837834Y-64825967D01*
X162837830Y-64825965D01*
X162837828Y-64825964D01*
X162623663Y-64726097D01*
X162623659Y-64726096D01*
X162623655Y-64726094D01*
X162395413Y-64664938D01*
X162395403Y-64664936D01*
X162160001Y-64644341D01*
X162159999Y-64644341D01*
X161924596Y-64664936D01*
X161924586Y-64664938D01*
X161696344Y-64726094D01*
X161696335Y-64726098D01*
X161482171Y-64825964D01*
X161482169Y-64825965D01*
X161288597Y-64961505D01*
X161121505Y-65128597D01*
X160991575Y-65314158D01*
X160936998Y-65357783D01*
X160867500Y-65364977D01*
X160805145Y-65333454D01*
X160788425Y-65314158D01*
X160658494Y-65128597D01*
X160491402Y-64961506D01*
X160491395Y-64961501D01*
X160297834Y-64825967D01*
X160297830Y-64825965D01*
X160297828Y-64825964D01*
X160083663Y-64726097D01*
X160083659Y-64726096D01*
X160083655Y-64726094D01*
X159855413Y-64664938D01*
X159855403Y-64664936D01*
X159620001Y-64644341D01*
X159619999Y-64644341D01*
X159384596Y-64664936D01*
X159384586Y-64664938D01*
X159156344Y-64726094D01*
X159156335Y-64726098D01*
X158942171Y-64825964D01*
X158942169Y-64825965D01*
X158748597Y-64961505D01*
X158581505Y-65128597D01*
X158451575Y-65314158D01*
X158396998Y-65357783D01*
X158327500Y-65364977D01*
X158265145Y-65333454D01*
X158248425Y-65314158D01*
X158118494Y-65128597D01*
X157951402Y-64961506D01*
X157951395Y-64961501D01*
X157757834Y-64825967D01*
X157757830Y-64825965D01*
X157757828Y-64825964D01*
X157543663Y-64726097D01*
X157543659Y-64726096D01*
X157543655Y-64726094D01*
X157315413Y-64664938D01*
X157315403Y-64664936D01*
X157080001Y-64644341D01*
X157079999Y-64644341D01*
X156844596Y-64664936D01*
X156844586Y-64664938D01*
X156616344Y-64726094D01*
X156616335Y-64726098D01*
X156402171Y-64825964D01*
X156402169Y-64825965D01*
X156208597Y-64961505D01*
X156041505Y-65128597D01*
X155911575Y-65314158D01*
X155856998Y-65357783D01*
X155787500Y-65364977D01*
X155725145Y-65333454D01*
X155708425Y-65314158D01*
X155578494Y-65128597D01*
X155411404Y-64961508D01*
X155411402Y-64961506D01*
X155411401Y-64961505D01*
X155393374Y-64948882D01*
X155349751Y-64894306D01*
X155340500Y-64847309D01*
X155340500Y-63656155D01*
X155340499Y-63656153D01*
X155315158Y-63528757D01*
X155309737Y-63501503D01*
X155294023Y-63463566D01*
X155249397Y-63355827D01*
X155249390Y-63355814D01*
X155161790Y-63224712D01*
X155161222Y-63224144D01*
X155050289Y-63113211D01*
X154688363Y-62751285D01*
X172056684Y-62751285D01*
X172076288Y-63012901D01*
X172076289Y-63012906D01*
X172134668Y-63268683D01*
X172134670Y-63268692D01*
X172134672Y-63268697D01*
X172230524Y-63512924D01*
X172361706Y-63740138D01*
X172436007Y-63833308D01*
X172525290Y-63945266D01*
X172660416Y-64070643D01*
X172717613Y-64123714D01*
X172934388Y-64271509D01*
X172934393Y-64271511D01*
X172934394Y-64271512D01*
X172934395Y-64271513D01*
X173035182Y-64320049D01*
X173170765Y-64385342D01*
X173170766Y-64385342D01*
X173170769Y-64385344D01*
X173421477Y-64462677D01*
X173680910Y-64501781D01*
X173943274Y-64501781D01*
X174202707Y-64462677D01*
X174453415Y-64385344D01*
X174689796Y-64271509D01*
X174906571Y-64123714D01*
X175098897Y-63945262D01*
X175262478Y-63740138D01*
X175393660Y-63512924D01*
X175489512Y-63268697D01*
X175547894Y-63012911D01*
X175549313Y-62993976D01*
X175567500Y-62751285D01*
X175567500Y-62751276D01*
X175547895Y-62489660D01*
X175547894Y-62489655D01*
X175547894Y-62489651D01*
X175489512Y-62233865D01*
X175393660Y-61989638D01*
X175262478Y-61762424D01*
X175098897Y-61557300D01*
X175098896Y-61557299D01*
X175098893Y-61557295D01*
X174906571Y-61378848D01*
X174689796Y-61231053D01*
X174689792Y-61231051D01*
X174689789Y-61231049D01*
X174689788Y-61231048D01*
X174453417Y-61117219D01*
X174453419Y-61117219D01*
X174202715Y-61039887D01*
X174202711Y-61039886D01*
X174202707Y-61039885D01*
X174077509Y-61021014D01*
X173943279Y-61000781D01*
X173943274Y-61000781D01*
X173680910Y-61000781D01*
X173680904Y-61000781D01*
X173519339Y-61025134D01*
X173421477Y-61039885D01*
X173421474Y-61039886D01*
X173421468Y-61039887D01*
X173170765Y-61117219D01*
X172934395Y-61231048D01*
X172934394Y-61231049D01*
X172717612Y-61378848D01*
X172525290Y-61557295D01*
X172361706Y-61762424D01*
X172230524Y-61989637D01*
X172134674Y-62233859D01*
X172134668Y-62233878D01*
X172076289Y-62489655D01*
X172076288Y-62489660D01*
X172056684Y-62751276D01*
X172056684Y-62751285D01*
X154688363Y-62751285D01*
X151966819Y-60029741D01*
X151933334Y-59968418D01*
X151930500Y-59942060D01*
X151930500Y-54285002D01*
X152365034Y-54285002D01*
X152384858Y-54511599D01*
X152384860Y-54511610D01*
X152443730Y-54731317D01*
X152443735Y-54731331D01*
X152539863Y-54937478D01*
X152590974Y-55010472D01*
X153270000Y-54331446D01*
X153270000Y-54337661D01*
X153297259Y-54439394D01*
X153349920Y-54530606D01*
X153424394Y-54605080D01*
X153515606Y-54657741D01*
X153617339Y-54685000D01*
X153623553Y-54685000D01*
X152944526Y-55364025D01*
X153017513Y-55415132D01*
X153017521Y-55415136D01*
X153223668Y-55511264D01*
X153223682Y-55511269D01*
X153443389Y-55570139D01*
X153443400Y-55570141D01*
X153669998Y-55589966D01*
X153670002Y-55589966D01*
X153896599Y-55570141D01*
X153896610Y-55570139D01*
X154116317Y-55511269D01*
X154116331Y-55511264D01*
X154322478Y-55415136D01*
X154395471Y-55364024D01*
X153716447Y-54685000D01*
X153722661Y-54685000D01*
X153824394Y-54657741D01*
X153915606Y-54605080D01*
X153990080Y-54530606D01*
X154042741Y-54439394D01*
X154070000Y-54337661D01*
X154070000Y-54331447D01*
X154749024Y-55010471D01*
X154800136Y-54937478D01*
X154896264Y-54731331D01*
X154896269Y-54731317D01*
X154955139Y-54511610D01*
X154955141Y-54511599D01*
X154974966Y-54285002D01*
X161255034Y-54285002D01*
X161274858Y-54511599D01*
X161274860Y-54511610D01*
X161333730Y-54731317D01*
X161333735Y-54731331D01*
X161429863Y-54937478D01*
X161480974Y-55010472D01*
X162160000Y-54331446D01*
X162160000Y-54337661D01*
X162187259Y-54439394D01*
X162239920Y-54530606D01*
X162314394Y-54605080D01*
X162405606Y-54657741D01*
X162507339Y-54685000D01*
X162513553Y-54685000D01*
X161834526Y-55364025D01*
X161907513Y-55415132D01*
X161907521Y-55415136D01*
X162113668Y-55511264D01*
X162113682Y-55511269D01*
X162333389Y-55570139D01*
X162333400Y-55570141D01*
X162559998Y-55589966D01*
X162560002Y-55589966D01*
X162786599Y-55570141D01*
X162786610Y-55570139D01*
X163006317Y-55511269D01*
X163006331Y-55511264D01*
X163212478Y-55415136D01*
X163285471Y-55364024D01*
X162606447Y-54685000D01*
X162612661Y-54685000D01*
X162714394Y-54657741D01*
X162805606Y-54605080D01*
X162880080Y-54530606D01*
X162932741Y-54439394D01*
X162960000Y-54337661D01*
X162960000Y-54331447D01*
X163639024Y-55010471D01*
X163690136Y-54937478D01*
X163786264Y-54731331D01*
X163786269Y-54731317D01*
X163845139Y-54511610D01*
X163845141Y-54511599D01*
X163864966Y-54285002D01*
X163864966Y-54284997D01*
X163845141Y-54058400D01*
X163845139Y-54058389D01*
X163786269Y-53838682D01*
X163786264Y-53838668D01*
X163690136Y-53632521D01*
X163690132Y-53632513D01*
X163639025Y-53559526D01*
X162960000Y-54238551D01*
X162960000Y-54232339D01*
X162932741Y-54130606D01*
X162880080Y-54039394D01*
X162805606Y-53964920D01*
X162714394Y-53912259D01*
X162612661Y-53885000D01*
X162606448Y-53885000D01*
X163285472Y-53205974D01*
X163212478Y-53154863D01*
X163006331Y-53058735D01*
X163006317Y-53058730D01*
X162786610Y-52999860D01*
X162786599Y-52999858D01*
X162560002Y-52980034D01*
X162559998Y-52980034D01*
X162333400Y-52999858D01*
X162333389Y-52999860D01*
X162113682Y-53058730D01*
X162113673Y-53058734D01*
X161907516Y-53154866D01*
X161907512Y-53154868D01*
X161834526Y-53205973D01*
X161834526Y-53205974D01*
X162513553Y-53885000D01*
X162507339Y-53885000D01*
X162405606Y-53912259D01*
X162314394Y-53964920D01*
X162239920Y-54039394D01*
X162187259Y-54130606D01*
X162160000Y-54232339D01*
X162160000Y-54238552D01*
X161480974Y-53559526D01*
X161480973Y-53559526D01*
X161429868Y-53632512D01*
X161429866Y-53632516D01*
X161333734Y-53838673D01*
X161333730Y-53838682D01*
X161274860Y-54058389D01*
X161274858Y-54058400D01*
X161255034Y-54284997D01*
X161255034Y-54285002D01*
X154974966Y-54285002D01*
X154974966Y-54284997D01*
X154955141Y-54058400D01*
X154955139Y-54058389D01*
X154896269Y-53838682D01*
X154896264Y-53838668D01*
X154800136Y-53632521D01*
X154800132Y-53632513D01*
X154749025Y-53559526D01*
X154070000Y-54238551D01*
X154070000Y-54232339D01*
X154042741Y-54130606D01*
X153990080Y-54039394D01*
X153915606Y-53964920D01*
X153824394Y-53912259D01*
X153722661Y-53885000D01*
X153716448Y-53885000D01*
X154395472Y-53205974D01*
X154322478Y-53154863D01*
X154116331Y-53058735D01*
X154116317Y-53058730D01*
X153896610Y-52999860D01*
X153896599Y-52999858D01*
X153670002Y-52980034D01*
X153669998Y-52980034D01*
X153443400Y-52999858D01*
X153443389Y-52999860D01*
X153223682Y-53058730D01*
X153223673Y-53058734D01*
X153017516Y-53154866D01*
X153017512Y-53154868D01*
X152944526Y-53205973D01*
X152944526Y-53205974D01*
X153623553Y-53885000D01*
X153617339Y-53885000D01*
X153515606Y-53912259D01*
X153424394Y-53964920D01*
X153349920Y-54039394D01*
X153297259Y-54130606D01*
X153270000Y-54232339D01*
X153270000Y-54238552D01*
X152590974Y-53559526D01*
X152590973Y-53559526D01*
X152539868Y-53632512D01*
X152539866Y-53632516D01*
X152443734Y-53838673D01*
X152443730Y-53838682D01*
X152384860Y-54058389D01*
X152384858Y-54058400D01*
X152365034Y-54284997D01*
X152365034Y-54285002D01*
X151930500Y-54285002D01*
X151930500Y-52351340D01*
X151950185Y-52284301D01*
X151966819Y-52263659D01*
X152847659Y-51382819D01*
X152908982Y-51349334D01*
X152935340Y-51346500D01*
X157177844Y-51346500D01*
X157177845Y-51346499D01*
X157332497Y-51315737D01*
X157478179Y-51255394D01*
X157609289Y-51167789D01*
X157654848Y-51122230D01*
X157716171Y-51088744D01*
X157785862Y-51093728D01*
X157841796Y-51135599D01*
X157859572Y-51168956D01*
X157897210Y-51276521D01*
X157941181Y-51346500D01*
X157993184Y-51429262D01*
X158120738Y-51556816D01*
X158211080Y-51613582D01*
X158238393Y-51630744D01*
X158273478Y-51652789D01*
X158369696Y-51686457D01*
X158443745Y-51712368D01*
X158443750Y-51712369D01*
X158622996Y-51732565D01*
X158623000Y-51732565D01*
X158623004Y-51732565D01*
X158802249Y-51712369D01*
X158802252Y-51712368D01*
X158802255Y-51712368D01*
X158972522Y-51652789D01*
X159125262Y-51556816D01*
X159252816Y-51429262D01*
X159348789Y-51276522D01*
X159408368Y-51106255D01*
X159409182Y-51099025D01*
X159436245Y-51034611D01*
X159444712Y-51025232D01*
X161748224Y-48721720D01*
X161809545Y-48688237D01*
X161822019Y-48686183D01*
X161829255Y-48685368D01*
X161999522Y-48625789D01*
X162152262Y-48529816D01*
X162279816Y-48402262D01*
X162375789Y-48249522D01*
X162435368Y-48079255D01*
X162436182Y-48072025D01*
X162463245Y-48007611D01*
X162471712Y-47998232D01*
X163428127Y-47041819D01*
X163489450Y-47008334D01*
X163515808Y-47005500D01*
X166936510Y-47005500D01*
X167003549Y-47025185D01*
X167049304Y-47077989D01*
X167059248Y-47147147D01*
X167054441Y-47167816D01*
X167008326Y-47309744D01*
X166988540Y-47498000D01*
X167008326Y-47686256D01*
X167008327Y-47686259D01*
X167066818Y-47866277D01*
X167066821Y-47866284D01*
X167161467Y-48030216D01*
X167215959Y-48090735D01*
X167288129Y-48170888D01*
X167441265Y-48282148D01*
X167441270Y-48282151D01*
X167614192Y-48359142D01*
X167614197Y-48359144D01*
X167799354Y-48398500D01*
X167799355Y-48398500D01*
X167966660Y-48398500D01*
X168033699Y-48418185D01*
X168054341Y-48434819D01*
X170027040Y-50407518D01*
X170060525Y-50468841D01*
X170055541Y-50538533D01*
X170027040Y-50582880D01*
X169170433Y-51439487D01*
X169133189Y-51465085D01*
X168965267Y-51539850D01*
X168965265Y-51539851D01*
X168812129Y-51651111D01*
X168685466Y-51791785D01*
X168590821Y-51955715D01*
X168590818Y-51955722D01*
X168532327Y-52135740D01*
X168532326Y-52135744D01*
X168512540Y-52324000D01*
X168532326Y-52512256D01*
X168532327Y-52512259D01*
X168590818Y-52692277D01*
X168590821Y-52692284D01*
X168685467Y-52856216D01*
X168788593Y-52970749D01*
X168812129Y-52996888D01*
X168965265Y-53108148D01*
X168965270Y-53108151D01*
X169138192Y-53185142D01*
X169138197Y-53185144D01*
X169323354Y-53224500D01*
X169323355Y-53224500D01*
X169512644Y-53224500D01*
X169512646Y-53224500D01*
X169697803Y-53185144D01*
X169870730Y-53108151D01*
X170023871Y-52996888D01*
X170150533Y-52856216D01*
X170245179Y-52692284D01*
X170266488Y-52626700D01*
X170296734Y-52577342D01*
X171159122Y-51714955D01*
X171220441Y-51681473D01*
X171290133Y-51686457D01*
X171334480Y-51714958D01*
X173327557Y-53708036D01*
X173327561Y-53708039D01*
X173458664Y-53795640D01*
X173458677Y-53795647D01*
X173604348Y-53855985D01*
X173604353Y-53855987D01*
X173750210Y-53885000D01*
X173759003Y-53886749D01*
X173759006Y-53886750D01*
X173759008Y-53886750D01*
X173916692Y-53886750D01*
X174683000Y-53886750D01*
X174750039Y-53906435D01*
X174795794Y-53959239D01*
X174807000Y-54010750D01*
X174807000Y-54462494D01*
X174787315Y-54529533D01*
X174734511Y-54575288D01*
X174669117Y-54585714D01*
X174498004Y-54566435D01*
X174497996Y-54566435D01*
X174318750Y-54586630D01*
X174318745Y-54586631D01*
X174148476Y-54646211D01*
X173995737Y-54742184D01*
X173868184Y-54869737D01*
X173772211Y-55022476D01*
X173712631Y-55192745D01*
X173712630Y-55192750D01*
X173692435Y-55371996D01*
X173692435Y-55372003D01*
X173712630Y-55551249D01*
X173712631Y-55551254D01*
X173772211Y-55721523D01*
X173868184Y-55874262D01*
X173995738Y-56001816D01*
X174148478Y-56097789D01*
X174318745Y-56157368D01*
X174325974Y-56158182D01*
X174390388Y-56185246D01*
X174399776Y-56193722D01*
X175262724Y-57056669D01*
X175318166Y-57112111D01*
X175353332Y-57147277D01*
X175459866Y-57218461D01*
X175459872Y-57218464D01*
X175459873Y-57218465D01*
X175578256Y-57267501D01*
X175578260Y-57267501D01*
X175578261Y-57267502D01*
X175703928Y-57292500D01*
X175703931Y-57292500D01*
X178860821Y-57292500D01*
X178945365Y-57275682D01*
X178986494Y-57267501D01*
X179104877Y-57218465D01*
X179116102Y-57210965D01*
X179211419Y-57147277D01*
X179665627Y-56693067D01*
X179726950Y-56659583D01*
X179753308Y-56656749D01*
X180580371Y-56656749D01*
X180580372Y-56656749D01*
X180639983Y-56650341D01*
X180774831Y-56600046D01*
X180890046Y-56513796D01*
X180953234Y-56429386D01*
X181009167Y-56387517D01*
X181078859Y-56382533D01*
X181140182Y-56416018D01*
X181151760Y-56429380D01*
X181214954Y-56513796D01*
X181251564Y-56541202D01*
X181330164Y-56600043D01*
X181330171Y-56600047D01*
X181465017Y-56650341D01*
X181465016Y-56650341D01*
X181471944Y-56651085D01*
X181524627Y-56656750D01*
X182957810Y-56656749D01*
X183024849Y-56676434D01*
X183070604Y-56729237D01*
X183080548Y-56798396D01*
X183051523Y-56861952D01*
X183045491Y-56868430D01*
X182330741Y-57583181D01*
X182269418Y-57616666D01*
X182243060Y-57619500D01*
X166177367Y-57619500D01*
X166126931Y-57608779D01*
X166019809Y-57561084D01*
X165982564Y-57535486D01*
X165978736Y-57531658D01*
X165948486Y-57482294D01*
X165927179Y-57416716D01*
X165927177Y-57416712D01*
X165832534Y-57252785D01*
X165705870Y-57112111D01*
X165552734Y-57000851D01*
X165552729Y-57000848D01*
X165379807Y-56923857D01*
X165379802Y-56923855D01*
X165234001Y-56892865D01*
X165194646Y-56884500D01*
X165005354Y-56884500D01*
X164972897Y-56891398D01*
X164820197Y-56923855D01*
X164820192Y-56923857D01*
X164708069Y-56973779D01*
X164657633Y-56984500D01*
X163976977Y-56984500D01*
X163909938Y-56964815D01*
X163864183Y-56912011D01*
X163856733Y-56884865D01*
X163855876Y-56885068D01*
X163854092Y-56877520D01*
X163803797Y-56742671D01*
X163803793Y-56742664D01*
X163717547Y-56627455D01*
X163717544Y-56627452D01*
X163602335Y-56541206D01*
X163602328Y-56541202D01*
X163467482Y-56490908D01*
X163467483Y-56490908D01*
X163407883Y-56484501D01*
X163407881Y-56484500D01*
X163407873Y-56484500D01*
X163407864Y-56484500D01*
X161712129Y-56484500D01*
X161712123Y-56484501D01*
X161652516Y-56490908D01*
X161517671Y-56541202D01*
X161517664Y-56541206D01*
X161402455Y-56627452D01*
X161402452Y-56627455D01*
X161316206Y-56742664D01*
X161316202Y-56742671D01*
X161265908Y-56877517D01*
X161264126Y-56885062D01*
X161261853Y-56884525D01*
X161239571Y-56938312D01*
X161182177Y-56978157D01*
X161143024Y-56984500D01*
X155086977Y-56984500D01*
X155019938Y-56964815D01*
X154974183Y-56912011D01*
X154966733Y-56884865D01*
X154965876Y-56885068D01*
X154964092Y-56877520D01*
X154913797Y-56742671D01*
X154913793Y-56742664D01*
X154827547Y-56627455D01*
X154827544Y-56627452D01*
X154712335Y-56541206D01*
X154712328Y-56541202D01*
X154577482Y-56490908D01*
X154577483Y-56490908D01*
X154517883Y-56484501D01*
X154517881Y-56484500D01*
X154517873Y-56484500D01*
X154517864Y-56484500D01*
X152822129Y-56484500D01*
X152822123Y-56484501D01*
X152762516Y-56490908D01*
X152627671Y-56541202D01*
X152627664Y-56541206D01*
X152512455Y-56627452D01*
X152512452Y-56627455D01*
X152426206Y-56742664D01*
X152426202Y-56742671D01*
X152375908Y-56877517D01*
X152369501Y-56937116D01*
X152369500Y-56937135D01*
X152369500Y-58632870D01*
X152369501Y-58632876D01*
X152375908Y-58692483D01*
X152426202Y-58827328D01*
X152426206Y-58827335D01*
X152512452Y-58942544D01*
X152512455Y-58942547D01*
X152627664Y-59028793D01*
X152627671Y-59028797D01*
X152762517Y-59079091D01*
X152762516Y-59079091D01*
X152769444Y-59079835D01*
X152822127Y-59085500D01*
X154517872Y-59085499D01*
X154577483Y-59079091D01*
X154712331Y-59028796D01*
X154827546Y-58942546D01*
X154913796Y-58827331D01*
X154964091Y-58692483D01*
X154964091Y-58692481D01*
X154965874Y-58684938D01*
X154968146Y-58685474D01*
X154990429Y-58631688D01*
X155047823Y-58591843D01*
X155086976Y-58585500D01*
X161143023Y-58585500D01*
X161210062Y-58605185D01*
X161255817Y-58657989D01*
X161263266Y-58685134D01*
X161264124Y-58684932D01*
X161265907Y-58692479D01*
X161316202Y-58827328D01*
X161316206Y-58827335D01*
X161402452Y-58942544D01*
X161402455Y-58942547D01*
X161517664Y-59028793D01*
X161517671Y-59028797D01*
X161652517Y-59079091D01*
X161652516Y-59079091D01*
X161659444Y-59079835D01*
X161712127Y-59085500D01*
X163407872Y-59085499D01*
X163467483Y-59079091D01*
X163602331Y-59028796D01*
X163717546Y-58942546D01*
X163803796Y-58827331D01*
X163854091Y-58692483D01*
X163854091Y-58692481D01*
X163855874Y-58684938D01*
X163858146Y-58685474D01*
X163880429Y-58631688D01*
X163937823Y-58591843D01*
X163976976Y-58585500D01*
X164657633Y-58585500D01*
X164708069Y-58596221D01*
X164815190Y-58643915D01*
X164852435Y-58669513D01*
X164856262Y-58673340D01*
X164886512Y-58722703D01*
X164907818Y-58788277D01*
X164907819Y-58788279D01*
X164907821Y-58788284D01*
X164917887Y-58805720D01*
X164934500Y-58867718D01*
X164934500Y-59242279D01*
X164917888Y-59304277D01*
X164907821Y-59321713D01*
X164849327Y-59501740D01*
X164849326Y-59501744D01*
X164829540Y-59690000D01*
X164849326Y-59878256D01*
X164849327Y-59878259D01*
X164907818Y-60058277D01*
X164907821Y-60058284D01*
X165002467Y-60222216D01*
X165024025Y-60246158D01*
X165129129Y-60362888D01*
X165282265Y-60474148D01*
X165282270Y-60474151D01*
X165455192Y-60551142D01*
X165455197Y-60551144D01*
X165640354Y-60590500D01*
X165640355Y-60590500D01*
X165829644Y-60590500D01*
X165829646Y-60590500D01*
X166014803Y-60551144D01*
X166187730Y-60474151D01*
X166340871Y-60362888D01*
X166467533Y-60222216D01*
X166562179Y-60058284D01*
X166620674Y-59878256D01*
X166640460Y-59690000D01*
X166620674Y-59501744D01*
X166600416Y-59439397D01*
X166582033Y-59382818D01*
X166580038Y-59312977D01*
X166616119Y-59253144D01*
X166678820Y-59222316D01*
X166699964Y-59220500D01*
X182390676Y-59220500D01*
X182457715Y-59240185D01*
X182503470Y-59292989D01*
X182513414Y-59362147D01*
X182513149Y-59363898D01*
X182484500Y-59544778D01*
X182484500Y-59765221D01*
X182518985Y-59982952D01*
X182587103Y-60192603D01*
X182587104Y-60192606D01*
X182614391Y-60246158D01*
X182683560Y-60381908D01*
X182687187Y-60389025D01*
X182816752Y-60567358D01*
X182816756Y-60567363D01*
X182972636Y-60723243D01*
X182972641Y-60723247D01*
X183126854Y-60835288D01*
X183150978Y-60852815D01*
X183279375Y-60918237D01*
X183347393Y-60952895D01*
X183347396Y-60952896D01*
X183452221Y-60986955D01*
X183557049Y-61021015D01*
X183774778Y-61055500D01*
X183774779Y-61055500D01*
X185795221Y-61055500D01*
X185795222Y-61055500D01*
X186012951Y-61021015D01*
X186222606Y-60952895D01*
X186419022Y-60852815D01*
X186597365Y-60723242D01*
X186753242Y-60567365D01*
X186882815Y-60389022D01*
X186982895Y-60192606D01*
X187051015Y-59982951D01*
X187085500Y-59765222D01*
X187085500Y-59544778D01*
X187051015Y-59327049D01*
X186982895Y-59117394D01*
X186982895Y-59117393D01*
X186941650Y-59036447D01*
X186882815Y-58920978D01*
X186844120Y-58867718D01*
X186753247Y-58742641D01*
X186753243Y-58742636D01*
X186597363Y-58586756D01*
X186597358Y-58586752D01*
X186419025Y-58457187D01*
X186419024Y-58457186D01*
X186419022Y-58457185D01*
X186356096Y-58425122D01*
X186222606Y-58357104D01*
X186222603Y-58357103D01*
X186012952Y-58288985D01*
X185904086Y-58271742D01*
X185795222Y-58254500D01*
X185795221Y-58254500D01*
X184222940Y-58254500D01*
X184155901Y-58234815D01*
X184110146Y-58182011D01*
X184100202Y-58112853D01*
X184129227Y-58049297D01*
X184135259Y-58042819D01*
X184629286Y-57548792D01*
X184629289Y-57548789D01*
X184716894Y-57417679D01*
X184777237Y-57271997D01*
X184808000Y-57117342D01*
X184808000Y-56959658D01*
X184808000Y-55667408D01*
X184808000Y-55667407D01*
X184808000Y-51883180D01*
X184827685Y-51816141D01*
X184880489Y-51770386D01*
X184949647Y-51760442D01*
X184975340Y-51767001D01*
X184976117Y-51767291D01*
X185035727Y-51773700D01*
X187531472Y-51773699D01*
X187591083Y-51767291D01*
X187725931Y-51716996D01*
X187841146Y-51630746D01*
X187927396Y-51515531D01*
X187977691Y-51380683D01*
X187984100Y-51321073D01*
X187984099Y-48825328D01*
X187977691Y-48765717D01*
X187976402Y-48762262D01*
X187927397Y-48630871D01*
X187927393Y-48630864D01*
X187841147Y-48515655D01*
X187841144Y-48515652D01*
X187725935Y-48429406D01*
X187725928Y-48429402D01*
X187591082Y-48379108D01*
X187591083Y-48379108D01*
X187531483Y-48372701D01*
X187531481Y-48372700D01*
X187531473Y-48372700D01*
X187531465Y-48372700D01*
X187009429Y-48372700D01*
X186942390Y-48353015D01*
X186896635Y-48300211D01*
X186886691Y-48231053D01*
X186915716Y-48167497D01*
X186955627Y-48136980D01*
X187136234Y-48050005D01*
X187346817Y-47906432D01*
X187533650Y-47733077D01*
X187692559Y-47533812D01*
X187819993Y-47313088D01*
X187913108Y-47075837D01*
X187969822Y-46827357D01*
X187986160Y-46609334D01*
X187988868Y-46573204D01*
X187988868Y-46573195D01*
X187974526Y-46381810D01*
X187969822Y-46319043D01*
X187913108Y-46070563D01*
X187819993Y-45833312D01*
X187692559Y-45612588D01*
X187533650Y-45413323D01*
X187346817Y-45239968D01*
X187136234Y-45096395D01*
X187136230Y-45096393D01*
X187136227Y-45096391D01*
X187136226Y-45096390D01*
X186906606Y-44985812D01*
X186906608Y-44985812D01*
X186763570Y-44941691D01*
X186705311Y-44903121D01*
X186677153Y-44839176D01*
X186688037Y-44770159D01*
X186734506Y-44717982D01*
X186763570Y-44704709D01*
X186906604Y-44660589D01*
X187136234Y-44550005D01*
X187346817Y-44406432D01*
X187533650Y-44233077D01*
X187692559Y-44033812D01*
X187819993Y-43813088D01*
X187913108Y-43575837D01*
X187969822Y-43327357D01*
X187979041Y-43204340D01*
X187988868Y-43073204D01*
X187988868Y-43073195D01*
X187969822Y-42819045D01*
X187968149Y-42811716D01*
X187913108Y-42570563D01*
X187819993Y-42333312D01*
X187692559Y-42112588D01*
X187533650Y-41913323D01*
X187346817Y-41739968D01*
X187136234Y-41596395D01*
X187136230Y-41596393D01*
X187136227Y-41596391D01*
X187136226Y-41596390D01*
X186906606Y-41485812D01*
X186906608Y-41485812D01*
X186763570Y-41441691D01*
X186705311Y-41403121D01*
X186677153Y-41339176D01*
X186688037Y-41270159D01*
X186734506Y-41217982D01*
X186763570Y-41204709D01*
X186906604Y-41160589D01*
X187136234Y-41050005D01*
X187346817Y-40906432D01*
X187533650Y-40733077D01*
X187692559Y-40533812D01*
X187819993Y-40313088D01*
X187913108Y-40075837D01*
X187969822Y-39827357D01*
X187988868Y-39573200D01*
X187986807Y-39545701D01*
X187969822Y-39319045D01*
X187955813Y-39257669D01*
X187913108Y-39070563D01*
X187819993Y-38833312D01*
X187692559Y-38612588D01*
X187533650Y-38413323D01*
X187346817Y-38239968D01*
X187136234Y-38096395D01*
X187136230Y-38096393D01*
X187136227Y-38096391D01*
X187136226Y-38096390D01*
X186906606Y-37985812D01*
X186906608Y-37985812D01*
X186663066Y-37910689D01*
X186663062Y-37910688D01*
X186663058Y-37910687D01*
X186541831Y-37892414D01*
X186411040Y-37872700D01*
X186411035Y-37872700D01*
X186156165Y-37872700D01*
X186156159Y-37872700D01*
X186011580Y-37894493D01*
X185904142Y-37910687D01*
X185904139Y-37910688D01*
X185904133Y-37910689D01*
X185660592Y-37985812D01*
X185430973Y-38096390D01*
X185430972Y-38096391D01*
X185220382Y-38239968D01*
X185033552Y-38413321D01*
X185033550Y-38413323D01*
X184874641Y-38612588D01*
X184747208Y-38833309D01*
X184654092Y-39070562D01*
X184654090Y-39070569D01*
X184597377Y-39319045D01*
X184578332Y-39573195D01*
X184578332Y-39573204D01*
X184597377Y-39827354D01*
X184653608Y-40073720D01*
X184654092Y-40075837D01*
X184747207Y-40313088D01*
X184874641Y-40533812D01*
X185033550Y-40733077D01*
X185220383Y-40906432D01*
X185430966Y-41050005D01*
X185430971Y-41050007D01*
X185430972Y-41050008D01*
X185430973Y-41050009D01*
X185540999Y-41102994D01*
X185660592Y-41160587D01*
X185660593Y-41160587D01*
X185660596Y-41160589D01*
X185737177Y-41184211D01*
X185803629Y-41204709D01*
X185861888Y-41243280D01*
X185890046Y-41307224D01*
X185879162Y-41376241D01*
X185832693Y-41428418D01*
X185803629Y-41441691D01*
X185660592Y-41485812D01*
X185430973Y-41596390D01*
X185430972Y-41596391D01*
X185220382Y-41739968D01*
X185033552Y-41913321D01*
X185033550Y-41913323D01*
X184874641Y-42112588D01*
X184747208Y-42333309D01*
X184654092Y-42570562D01*
X184654090Y-42570569D01*
X184597377Y-42819045D01*
X184578332Y-43073195D01*
X184578332Y-43073204D01*
X184597377Y-43327354D01*
X184651729Y-43565487D01*
X184654092Y-43575837D01*
X184747207Y-43813088D01*
X184874641Y-44033812D01*
X185033550Y-44233077D01*
X185220383Y-44406432D01*
X185430966Y-44550005D01*
X185430971Y-44550007D01*
X185430972Y-44550008D01*
X185430973Y-44550009D01*
X185497786Y-44582184D01*
X185660592Y-44660587D01*
X185660593Y-44660587D01*
X185660596Y-44660589D01*
X185766960Y-44693397D01*
X185803629Y-44704709D01*
X185861888Y-44743280D01*
X185890046Y-44807224D01*
X185879162Y-44876241D01*
X185832693Y-44928418D01*
X185803629Y-44941691D01*
X185660592Y-44985812D01*
X185430973Y-45096390D01*
X185430972Y-45096391D01*
X185220382Y-45239968D01*
X185033552Y-45413321D01*
X185033550Y-45413323D01*
X184874641Y-45612588D01*
X184747208Y-45833309D01*
X184654092Y-46070562D01*
X184654090Y-46070569D01*
X184597377Y-46319045D01*
X184578332Y-46573195D01*
X184578332Y-46573204D01*
X184597377Y-46827354D01*
X184646327Y-47041819D01*
X184654092Y-47075837D01*
X184722003Y-47248871D01*
X184747208Y-47313090D01*
X184751634Y-47320756D01*
X184874641Y-47533812D01*
X185033550Y-47733077D01*
X185220383Y-47906432D01*
X185430966Y-48050005D01*
X185430971Y-48050007D01*
X185430972Y-48050008D01*
X185430973Y-48050009D01*
X185543308Y-48104106D01*
X185611572Y-48136980D01*
X185663432Y-48183802D01*
X185681745Y-48251229D01*
X185660697Y-48317853D01*
X185606971Y-48362521D01*
X185557771Y-48372700D01*
X185035729Y-48372700D01*
X185035723Y-48372701D01*
X184976116Y-48379108D01*
X184841271Y-48429402D01*
X184841264Y-48429406D01*
X184726055Y-48515652D01*
X184726052Y-48515655D01*
X184639806Y-48630864D01*
X184639802Y-48630871D01*
X184589508Y-48765717D01*
X184583216Y-48824244D01*
X184583101Y-48825323D01*
X184583100Y-48825335D01*
X184583100Y-50090409D01*
X184563415Y-50157448D01*
X184510611Y-50203203D01*
X184441453Y-50213147D01*
X184377897Y-50184122D01*
X184371419Y-50178090D01*
X184117792Y-49924463D01*
X184117788Y-49924460D01*
X183986685Y-49836859D01*
X183986672Y-49836852D01*
X183841001Y-49776514D01*
X183840989Y-49776511D01*
X183686345Y-49745750D01*
X183686342Y-49745750D01*
X183619820Y-49745750D01*
X183552781Y-49726065D01*
X183520552Y-49696059D01*
X183515048Y-49688707D01*
X183515046Y-49688704D01*
X183510992Y-49685669D01*
X183399835Y-49602456D01*
X183399828Y-49602452D01*
X183264982Y-49552158D01*
X183264983Y-49552158D01*
X183205383Y-49545751D01*
X183205381Y-49545750D01*
X183205373Y-49545750D01*
X183205364Y-49545750D01*
X181609629Y-49545750D01*
X181609623Y-49545751D01*
X181550016Y-49552158D01*
X181415171Y-49602452D01*
X181415164Y-49602456D01*
X181299955Y-49688702D01*
X181299952Y-49688705D01*
X181208388Y-49811019D01*
X181206118Y-49809320D01*
X181166920Y-49848514D01*
X181098646Y-49863361D01*
X181033183Y-49838940D01*
X181008054Y-49809939D01*
X181006612Y-49811019D01*
X180915047Y-49688705D01*
X180915044Y-49688702D01*
X180799835Y-49602456D01*
X180799828Y-49602452D01*
X180664982Y-49552158D01*
X180664983Y-49552158D01*
X180605383Y-49545751D01*
X180605381Y-49545750D01*
X180605373Y-49545750D01*
X180605365Y-49545750D01*
X180582000Y-49545750D01*
X180514961Y-49526065D01*
X180469206Y-49473261D01*
X180458000Y-49421750D01*
X180458000Y-49113308D01*
X180477685Y-49046269D01*
X180494319Y-49025627D01*
X180610627Y-48909319D01*
X180671950Y-48875834D01*
X180698308Y-48873000D01*
X180785686Y-48873000D01*
X180785694Y-48873000D01*
X180822569Y-48870098D01*
X180822571Y-48870097D01*
X180822573Y-48870097D01*
X180906567Y-48845694D01*
X180980398Y-48824244D01*
X181121865Y-48740581D01*
X181238081Y-48624365D01*
X181321744Y-48482898D01*
X181367598Y-48325069D01*
X181370500Y-48288194D01*
X181370500Y-47985652D01*
X181390185Y-47918613D01*
X181442989Y-47872858D01*
X181447048Y-47871091D01*
X181458654Y-47866284D01*
X181467810Y-47862491D01*
X181541673Y-47831897D01*
X181541676Y-47831895D01*
X181541679Y-47831894D01*
X181672789Y-47744289D01*
X182340259Y-47076817D01*
X182401582Y-47043333D01*
X182427940Y-47040499D01*
X182770002Y-47040499D01*
X182770008Y-47040499D01*
X182872797Y-47029999D01*
X183039334Y-46974814D01*
X183188656Y-46882712D01*
X183312712Y-46758656D01*
X183404814Y-46609334D01*
X183459999Y-46442797D01*
X183470500Y-46340009D01*
X183470499Y-45739992D01*
X183468986Y-45725184D01*
X183459999Y-45637203D01*
X183459998Y-45637200D01*
X183451842Y-45612588D01*
X183404814Y-45470666D01*
X183312712Y-45321344D01*
X183188656Y-45197288D01*
X183188652Y-45197285D01*
X183104403Y-45145319D01*
X183057678Y-45093371D01*
X183045500Y-45039781D01*
X183045500Y-43736157D01*
X183045499Y-43736154D01*
X183027767Y-43647006D01*
X183014739Y-43581508D01*
X183014737Y-43581503D01*
X183012387Y-43575830D01*
X182984262Y-43507930D01*
X182954394Y-43435821D01*
X182954392Y-43435819D01*
X182954392Y-43435817D01*
X182866790Y-43304712D01*
X182834565Y-43272487D01*
X182755289Y-43193211D01*
X181505871Y-41943793D01*
X180215292Y-40653213D01*
X180215288Y-40653210D01*
X180084185Y-40565609D01*
X180084172Y-40565602D01*
X179938501Y-40505264D01*
X179938489Y-40505261D01*
X179783845Y-40474500D01*
X179783842Y-40474500D01*
X172527367Y-40474500D01*
X172476931Y-40463779D01*
X172369809Y-40416084D01*
X172332564Y-40390486D01*
X171651819Y-39709741D01*
X171618334Y-39648418D01*
X171615500Y-39622060D01*
X171615500Y-38608003D01*
X173692435Y-38608003D01*
X173712630Y-38787249D01*
X173712631Y-38787254D01*
X173772211Y-38957523D01*
X173834216Y-39056202D01*
X173868184Y-39110262D01*
X173995738Y-39237816D01*
X174148478Y-39333789D01*
X174318745Y-39393368D01*
X174318744Y-39393368D01*
X174320486Y-39393564D01*
X174327377Y-39394340D01*
X174391792Y-39421403D01*
X174431350Y-39478995D01*
X174437500Y-39517556D01*
X174437500Y-39539334D01*
X174437501Y-39539355D01*
X174447650Y-39638707D01*
X174447651Y-39638710D01*
X174500996Y-39799694D01*
X174501001Y-39799705D01*
X174590029Y-39944040D01*
X174590032Y-39944044D01*
X174709955Y-40063967D01*
X174709959Y-40063970D01*
X174854294Y-40152998D01*
X174854297Y-40152999D01*
X174854303Y-40153003D01*
X175015292Y-40206349D01*
X175114655Y-40216500D01*
X175661344Y-40216499D01*
X175661352Y-40216498D01*
X175661355Y-40216498D01*
X175715760Y-40210940D01*
X175760708Y-40206349D01*
X175921697Y-40153003D01*
X176066044Y-40063968D01*
X176185968Y-39944044D01*
X176275003Y-39799697D01*
X176328349Y-39638708D01*
X176338500Y-39539345D01*
X176338499Y-38692656D01*
X176328349Y-38593292D01*
X176275003Y-38432303D01*
X176274999Y-38432297D01*
X176274998Y-38432294D01*
X176185970Y-38287959D01*
X176185967Y-38287955D01*
X176066044Y-38168032D01*
X176066040Y-38168029D01*
X175921705Y-38079001D01*
X175921699Y-38078998D01*
X175921697Y-38078997D01*
X175921694Y-38078996D01*
X175760709Y-38025651D01*
X175661352Y-38015500D01*
X175661345Y-38015500D01*
X175174081Y-38015500D01*
X175126633Y-38006062D01*
X175069744Y-37982499D01*
X175054663Y-37979499D01*
X175054661Y-37979498D01*
X175027819Y-37974159D01*
X175000546Y-37968734D01*
X174958767Y-37952111D01*
X174847523Y-37882211D01*
X174677254Y-37822631D01*
X174677249Y-37822630D01*
X174498004Y-37802435D01*
X174497996Y-37802435D01*
X174318750Y-37822630D01*
X174318745Y-37822631D01*
X174148476Y-37882211D01*
X173995737Y-37978184D01*
X173868184Y-38105737D01*
X173772211Y-38258476D01*
X173712631Y-38428745D01*
X173712630Y-38428750D01*
X173692435Y-38607996D01*
X173692435Y-38608003D01*
X171615500Y-38608003D01*
X171615500Y-37927718D01*
X171632112Y-37865720D01*
X171642179Y-37848284D01*
X171700674Y-37668256D01*
X171720460Y-37480000D01*
X171700674Y-37291744D01*
X171642179Y-37111716D01*
X171547533Y-36947784D01*
X171420871Y-36807112D01*
X171420870Y-36807111D01*
X171267734Y-36695851D01*
X171267729Y-36695848D01*
X171094807Y-36618857D01*
X171094802Y-36618855D01*
X170949001Y-36587865D01*
X170909646Y-36579500D01*
X170720354Y-36579500D01*
X170687897Y-36586398D01*
X170535197Y-36618855D01*
X170535192Y-36618857D01*
X170362270Y-36695848D01*
X170362265Y-36695851D01*
X170209129Y-36807111D01*
X170082466Y-36947785D01*
X169987821Y-37111715D01*
X169987818Y-37111722D01*
X169936374Y-37270052D01*
X169929326Y-37291744D01*
X169909540Y-37480000D01*
X169929326Y-37668256D01*
X169929327Y-37668259D01*
X169987818Y-37848277D01*
X169987819Y-37848279D01*
X169987821Y-37848284D01*
X169997887Y-37865720D01*
X170014500Y-37927718D01*
X170014500Y-40083846D01*
X170045261Y-40238489D01*
X170045264Y-40238501D01*
X170105602Y-40384172D01*
X170105609Y-40384185D01*
X170193210Y-40515288D01*
X170193213Y-40515292D01*
X171206262Y-41528340D01*
X171236512Y-41577703D01*
X171257818Y-41643277D01*
X171257821Y-41643284D01*
X171352467Y-41807216D01*
X171475442Y-41943793D01*
X171479129Y-41947888D01*
X171632265Y-42059148D01*
X171632270Y-42059151D01*
X171805192Y-42136142D01*
X171805197Y-42136144D01*
X171990354Y-42175500D01*
X171990355Y-42175500D01*
X172179644Y-42175500D01*
X172179646Y-42175500D01*
X172364803Y-42136144D01*
X172450574Y-42097956D01*
X172476931Y-42086221D01*
X172527367Y-42075500D01*
X173594993Y-42075500D01*
X173662032Y-42095185D01*
X173707787Y-42147989D01*
X173717731Y-42217147D01*
X173714113Y-42231945D01*
X173714181Y-42231961D01*
X173712630Y-42238753D01*
X173692435Y-42417996D01*
X173692435Y-42418003D01*
X173712630Y-42597249D01*
X173712631Y-42597254D01*
X173772211Y-42767523D01*
X173868184Y-42920262D01*
X173995738Y-43047816D01*
X174148478Y-43143789D01*
X174318745Y-43203368D01*
X174318744Y-43203368D01*
X174320486Y-43203564D01*
X174327377Y-43204340D01*
X174391792Y-43231403D01*
X174431350Y-43288995D01*
X174437500Y-43327556D01*
X174437500Y-43349334D01*
X174437501Y-43349355D01*
X174447650Y-43448707D01*
X174447651Y-43448710D01*
X174500996Y-43609694D01*
X174501001Y-43609705D01*
X174590029Y-43754040D01*
X174590032Y-43754044D01*
X174709955Y-43873967D01*
X174709959Y-43873970D01*
X174854294Y-43962998D01*
X174854297Y-43962999D01*
X174854303Y-43963003D01*
X175015292Y-44016349D01*
X175114655Y-44026500D01*
X175661344Y-44026499D01*
X175661352Y-44026498D01*
X175661355Y-44026498D01*
X175722284Y-44020274D01*
X175760708Y-44016349D01*
X175921697Y-43963003D01*
X176066044Y-43873968D01*
X176185968Y-43754044D01*
X176275003Y-43609697D01*
X176328349Y-43448708D01*
X176338500Y-43349345D01*
X176338499Y-42502656D01*
X176335225Y-42470609D01*
X176328349Y-42403292D01*
X176328348Y-42403289D01*
X176273744Y-42238504D01*
X176271342Y-42168675D01*
X176307074Y-42108634D01*
X176369594Y-42077441D01*
X176391450Y-42075500D01*
X179322060Y-42075500D01*
X179389099Y-42095185D01*
X179409741Y-42111819D01*
X181408181Y-44110259D01*
X181441666Y-44171582D01*
X181444500Y-44197940D01*
X181444500Y-45039781D01*
X181424815Y-45106820D01*
X181385597Y-45145319D01*
X181301347Y-45197285D01*
X181301343Y-45197288D01*
X181177288Y-45321343D01*
X181177285Y-45321347D01*
X181143630Y-45375911D01*
X181091682Y-45422636D01*
X181022720Y-45433857D01*
X180988318Y-45422102D01*
X180987560Y-45423855D01*
X180980394Y-45420754D01*
X180822573Y-45374902D01*
X180822567Y-45374901D01*
X180785701Y-45372000D01*
X180785694Y-45372000D01*
X180627278Y-45372000D01*
X180560239Y-45352315D01*
X180522284Y-45313972D01*
X180481619Y-45249254D01*
X180461816Y-45217738D01*
X180334262Y-45090184D01*
X180302144Y-45070003D01*
X180181523Y-44994211D01*
X180011254Y-44934631D01*
X180011249Y-44934630D01*
X179832004Y-44914435D01*
X179831996Y-44914435D01*
X179652750Y-44934630D01*
X179652745Y-44934631D01*
X179482476Y-44994211D01*
X179329737Y-45090184D01*
X179202184Y-45217737D01*
X179106211Y-45370477D01*
X179069445Y-45475549D01*
X179028723Y-45532325D01*
X178963770Y-45558072D01*
X178895208Y-45544616D01*
X178864722Y-45522275D01*
X178846870Y-45504423D01*
X178846862Y-45504417D01*
X178768681Y-45458181D01*
X178705398Y-45420756D01*
X178705397Y-45420755D01*
X178705396Y-45420755D01*
X178705393Y-45420754D01*
X178547573Y-45374902D01*
X178547567Y-45374901D01*
X178510701Y-45372000D01*
X178510694Y-45372000D01*
X178103308Y-45372000D01*
X178036269Y-45352315D01*
X178015627Y-45335681D01*
X177868102Y-45188156D01*
X177834617Y-45126833D01*
X177832565Y-45114376D01*
X177823368Y-45032745D01*
X177763789Y-44862478D01*
X177749147Y-44839176D01*
X177667815Y-44709737D01*
X177540262Y-44582184D01*
X177387523Y-44486211D01*
X177217254Y-44426631D01*
X177217249Y-44426630D01*
X177038004Y-44406435D01*
X177037996Y-44406435D01*
X176858750Y-44426630D01*
X176858745Y-44426631D01*
X176688476Y-44486211D01*
X176535737Y-44582184D01*
X176408184Y-44709737D01*
X176312211Y-44862476D01*
X176252631Y-45032745D01*
X176252630Y-45032750D01*
X176232435Y-45211996D01*
X176232435Y-45212003D01*
X176252630Y-45391249D01*
X176252631Y-45391254D01*
X176312211Y-45561523D01*
X176361879Y-45640568D01*
X176408184Y-45714262D01*
X176535738Y-45841816D01*
X176615163Y-45891722D01*
X176688483Y-45937792D01*
X176694754Y-45940812D01*
X176693957Y-45942466D01*
X176743219Y-45977788D01*
X176768976Y-46042736D01*
X176769500Y-46054122D01*
X176769500Y-46388201D01*
X176772401Y-46425067D01*
X176772402Y-46425073D01*
X176818254Y-46582893D01*
X176818255Y-46582896D01*
X176901917Y-46724362D01*
X176901923Y-46724370D01*
X177018129Y-46840576D01*
X177018133Y-46840579D01*
X177018135Y-46840581D01*
X177159602Y-46924244D01*
X177170572Y-46927431D01*
X177317426Y-46970097D01*
X177317429Y-46970097D01*
X177317431Y-46970098D01*
X177354306Y-46973000D01*
X177354314Y-46973000D01*
X178510686Y-46973000D01*
X178510694Y-46973000D01*
X178547569Y-46970098D01*
X178547571Y-46970097D01*
X178547573Y-46970097D01*
X178649806Y-46940395D01*
X178705398Y-46924244D01*
X178830048Y-46850526D01*
X178853580Y-46836610D01*
X178854655Y-46838428D01*
X178909532Y-46816881D01*
X178978050Y-46830559D01*
X179028296Y-46879109D01*
X179044500Y-46940395D01*
X179044500Y-47304604D01*
X179024815Y-47371643D01*
X178972011Y-47417398D01*
X178902853Y-47427342D01*
X178854502Y-47406830D01*
X178853580Y-47408390D01*
X178705396Y-47320755D01*
X178705393Y-47320754D01*
X178547573Y-47274902D01*
X178547567Y-47274901D01*
X178510701Y-47272000D01*
X178510694Y-47272000D01*
X177354306Y-47272000D01*
X177354298Y-47272000D01*
X177317432Y-47274901D01*
X177317426Y-47274902D01*
X177159606Y-47320754D01*
X177159603Y-47320755D01*
X177018140Y-47404415D01*
X177018130Y-47404423D01*
X176950024Y-47472528D01*
X176920806Y-47494200D01*
X176917373Y-47496034D01*
X176917373Y-47496035D01*
X176880556Y-47520635D01*
X176810825Y-47567227D01*
X176273946Y-48104106D01*
X176212623Y-48137591D01*
X176142931Y-48132607D01*
X176086998Y-48090735D01*
X176068559Y-48055428D01*
X176066763Y-48050009D01*
X176043003Y-47978303D01*
X176042999Y-47978297D01*
X176042998Y-47978294D01*
X175953970Y-47833959D01*
X175953967Y-47833955D01*
X175834044Y-47714032D01*
X175834040Y-47714029D01*
X175689705Y-47625001D01*
X175689699Y-47624998D01*
X175689697Y-47624997D01*
X175606716Y-47597500D01*
X175528709Y-47571651D01*
X175429346Y-47561500D01*
X174582662Y-47561500D01*
X174582644Y-47561501D01*
X174483292Y-47571650D01*
X174483289Y-47571651D01*
X174322305Y-47624996D01*
X174322294Y-47625001D01*
X174177959Y-47714029D01*
X174177955Y-47714032D01*
X174058032Y-47833955D01*
X174058029Y-47833959D01*
X173969001Y-47978294D01*
X173968996Y-47978305D01*
X173915651Y-48139290D01*
X173906122Y-48232561D01*
X173879725Y-48297253D01*
X173848737Y-48324951D01*
X173741739Y-48392182D01*
X173614184Y-48519737D01*
X173614182Y-48519740D01*
X173539492Y-48638607D01*
X173487157Y-48684898D01*
X173418104Y-48695545D01*
X173354255Y-48667170D01*
X173315884Y-48608779D01*
X173310499Y-48572638D01*
X173310499Y-48238656D01*
X173310198Y-48235713D01*
X173300349Y-48139292D01*
X173300348Y-48139289D01*
X173293324Y-48118092D01*
X173247003Y-47978303D01*
X173246999Y-47978297D01*
X173246998Y-47978294D01*
X173157970Y-47833959D01*
X173157967Y-47833955D01*
X173038044Y-47714032D01*
X173038040Y-47714029D01*
X172893705Y-47625001D01*
X172893699Y-47624998D01*
X172893697Y-47624997D01*
X172810716Y-47597500D01*
X172732709Y-47571651D01*
X172633352Y-47561500D01*
X172633345Y-47561500D01*
X171878676Y-47561500D01*
X171812705Y-47542494D01*
X171799520Y-47534209D01*
X171629262Y-47474633D01*
X171629249Y-47474630D01*
X171450004Y-47454435D01*
X171449996Y-47454435D01*
X171270750Y-47474630D01*
X171270745Y-47474631D01*
X171100476Y-47534211D01*
X170947737Y-47630184D01*
X170820184Y-47757737D01*
X170724211Y-47910476D01*
X170664631Y-48080745D01*
X170664630Y-48080750D01*
X170644435Y-48259996D01*
X170644435Y-48260003D01*
X170664630Y-48439249D01*
X170664633Y-48439259D01*
X170669121Y-48452087D01*
X170672680Y-48521866D01*
X170637950Y-48582492D01*
X170575955Y-48614717D01*
X170506380Y-48608310D01*
X170464397Y-48580719D01*
X168759892Y-46876213D01*
X168759888Y-46876210D01*
X168628785Y-46788609D01*
X168628772Y-46788602D01*
X168481692Y-46727681D01*
X168427288Y-46683841D01*
X168405223Y-46617547D01*
X168412103Y-46572164D01*
X168425367Y-46534258D01*
X168425369Y-46534249D01*
X168445565Y-46355003D01*
X168445565Y-46354996D01*
X168425369Y-46175750D01*
X168425368Y-46175745D01*
X168365788Y-46005476D01*
X168325157Y-45940812D01*
X168269816Y-45852738D01*
X168142262Y-45725184D01*
X168124880Y-45714262D01*
X167989523Y-45629211D01*
X167819254Y-45569631D01*
X167819249Y-45569630D01*
X167640004Y-45549435D01*
X167639996Y-45549435D01*
X167460750Y-45569630D01*
X167460737Y-45569633D01*
X167290481Y-45629209D01*
X167290477Y-45629210D01*
X167200904Y-45685494D01*
X167134932Y-45704500D01*
X163130929Y-45704500D01*
X163005261Y-45729497D01*
X163005255Y-45729499D01*
X162886874Y-45778534D01*
X162780326Y-45849726D01*
X161551775Y-47078277D01*
X161490452Y-47111762D01*
X161477988Y-47113815D01*
X161470752Y-47114630D01*
X161470744Y-47114632D01*
X161300478Y-47174210D01*
X161147737Y-47270184D01*
X161020184Y-47397737D01*
X160924210Y-47550478D01*
X160864632Y-47720744D01*
X160864630Y-47720752D01*
X160863815Y-47727988D01*
X160836743Y-47792400D01*
X160828277Y-47801775D01*
X159127181Y-49502872D01*
X159065858Y-49536357D01*
X158996166Y-49531373D01*
X158940233Y-49489501D01*
X158915816Y-49424037D01*
X158915500Y-49415191D01*
X158915500Y-44897718D01*
X158932112Y-44835720D01*
X158942179Y-44818284D01*
X158963488Y-44752700D01*
X158993734Y-44703342D01*
X159619144Y-44077932D01*
X159680466Y-44044449D01*
X159750158Y-44049433D01*
X159771920Y-44060076D01*
X159860659Y-44114810D01*
X159860660Y-44114810D01*
X159860666Y-44114814D01*
X160027203Y-44169999D01*
X160129991Y-44180500D01*
X161180008Y-44180499D01*
X161180016Y-44180498D01*
X161180019Y-44180498D01*
X161267300Y-44171582D01*
X161282797Y-44169999D01*
X161449334Y-44114814D01*
X161598656Y-44022712D01*
X161604549Y-44016819D01*
X161665872Y-43983334D01*
X161692230Y-43980500D01*
X165165633Y-43980500D01*
X165216069Y-43991221D01*
X165328192Y-44041142D01*
X165328197Y-44041144D01*
X165513354Y-44080500D01*
X165513355Y-44080500D01*
X165702644Y-44080500D01*
X165702646Y-44080500D01*
X165887803Y-44041144D01*
X166060730Y-43964151D01*
X166213871Y-43852888D01*
X166340533Y-43712216D01*
X166435179Y-43548284D01*
X166493674Y-43368256D01*
X166513460Y-43180000D01*
X166493674Y-42991744D01*
X166435179Y-42811716D01*
X166340533Y-42647784D01*
X166213871Y-42507112D01*
X166207738Y-42502656D01*
X166060734Y-42395851D01*
X166060729Y-42395848D01*
X165887807Y-42318857D01*
X165887802Y-42318855D01*
X165742001Y-42287865D01*
X165702646Y-42279500D01*
X165513354Y-42279500D01*
X165480897Y-42286398D01*
X165328197Y-42318855D01*
X165328192Y-42318857D01*
X165216069Y-42368779D01*
X165165633Y-42379500D01*
X161692230Y-42379500D01*
X161625191Y-42359815D01*
X161604549Y-42343181D01*
X161598657Y-42337289D01*
X161598656Y-42337288D01*
X161472578Y-42259523D01*
X161449336Y-42245187D01*
X161449331Y-42245185D01*
X161440634Y-42242303D01*
X161282797Y-42190001D01*
X161282795Y-42190000D01*
X161180010Y-42179500D01*
X160129998Y-42179500D01*
X160129980Y-42179501D01*
X160027203Y-42190000D01*
X160027200Y-42190001D01*
X159860668Y-42245185D01*
X159860663Y-42245187D01*
X159711342Y-42337289D01*
X159705451Y-42343181D01*
X159644128Y-42376666D01*
X159617770Y-42379500D01*
X159306155Y-42379500D01*
X159186548Y-42403292D01*
X159186547Y-42403292D01*
X159151510Y-42410261D01*
X159151498Y-42410264D01*
X159005827Y-42470602D01*
X159005815Y-42470609D01*
X158908699Y-42535501D01*
X158908698Y-42535502D01*
X158874708Y-42558212D01*
X157867433Y-43565487D01*
X157830189Y-43591085D01*
X157662267Y-43665850D01*
X157662265Y-43665851D01*
X157509129Y-43777111D01*
X157382466Y-43917785D01*
X157287821Y-44081715D01*
X157287818Y-44081722D01*
X157238640Y-44233078D01*
X157229326Y-44261744D01*
X157209540Y-44450000D01*
X157229326Y-44638256D01*
X157229327Y-44638259D01*
X157287818Y-44818277D01*
X157287819Y-44818279D01*
X157287821Y-44818284D01*
X157297887Y-44835720D01*
X157314500Y-44897718D01*
X157314500Y-46280273D01*
X157294815Y-46347312D01*
X157242011Y-46393067D01*
X157172853Y-46403011D01*
X157155906Y-46399350D01*
X157097567Y-46382401D01*
X157060701Y-46379500D01*
X157060694Y-46379500D01*
X156984500Y-46379500D01*
X156917461Y-46359815D01*
X156871706Y-46307011D01*
X156860500Y-46255500D01*
X156860500Y-46210067D01*
X156879507Y-46144094D01*
X156935788Y-46054524D01*
X156952951Y-46005476D01*
X156995368Y-45884255D01*
X156998919Y-45852738D01*
X157015565Y-45705003D01*
X157015565Y-45704996D01*
X156995369Y-45525750D01*
X156995368Y-45525745D01*
X156987905Y-45504417D01*
X156935789Y-45355478D01*
X156839816Y-45202738D01*
X156712262Y-45075184D01*
X156559523Y-44979211D01*
X156389254Y-44919631D01*
X156389249Y-44919630D01*
X156210004Y-44899435D01*
X156209996Y-44899435D01*
X156030750Y-44919630D01*
X156030745Y-44919631D01*
X155860476Y-44979211D01*
X155707737Y-45075184D01*
X155580182Y-45202739D01*
X155580179Y-45202743D01*
X155577049Y-45207725D01*
X155524713Y-45254014D01*
X155455659Y-45264660D01*
X155391811Y-45236282D01*
X155384377Y-45229430D01*
X155126722Y-44971776D01*
X155093237Y-44910453D01*
X155091182Y-44897973D01*
X155090368Y-44890745D01*
X155030789Y-44720478D01*
X155020020Y-44703340D01*
X154943893Y-44582184D01*
X154934816Y-44567738D01*
X154807262Y-44440184D01*
X154753546Y-44406432D01*
X154654523Y-44344211D01*
X154484254Y-44284631D01*
X154484249Y-44284630D01*
X154305004Y-44264435D01*
X154304996Y-44264435D01*
X154125750Y-44284630D01*
X154125745Y-44284631D01*
X153955476Y-44344211D01*
X153802737Y-44440184D01*
X153675184Y-44567737D01*
X153579211Y-44720476D01*
X153519631Y-44890745D01*
X153519630Y-44890750D01*
X153499435Y-45069996D01*
X153499435Y-45070003D01*
X153519630Y-45249249D01*
X153519631Y-45249254D01*
X153579211Y-45419523D01*
X153657813Y-45544616D01*
X153675184Y-45572262D01*
X153802738Y-45699816D01*
X153955478Y-45795789D01*
X154125745Y-45855368D01*
X154132974Y-45856182D01*
X154197388Y-45883246D01*
X154206776Y-45891722D01*
X154253181Y-45938127D01*
X154286666Y-45999450D01*
X154289500Y-46025808D01*
X154289500Y-46255500D01*
X154269815Y-46322539D01*
X154217011Y-46368294D01*
X154165500Y-46379500D01*
X154089298Y-46379500D01*
X154052432Y-46382401D01*
X154052426Y-46382402D01*
X153894606Y-46428254D01*
X153894603Y-46428255D01*
X153753137Y-46511917D01*
X153746969Y-46516702D01*
X153745072Y-46514256D01*
X153696358Y-46540857D01*
X153626666Y-46535873D01*
X153594296Y-46515069D01*
X153593031Y-46516702D01*
X153586862Y-46511917D01*
X153496431Y-46458437D01*
X153445398Y-46428256D01*
X153445397Y-46428255D01*
X153445396Y-46428255D01*
X153445393Y-46428254D01*
X153287573Y-46382402D01*
X153287567Y-46382401D01*
X153250701Y-46379500D01*
X153250694Y-46379500D01*
X152819306Y-46379500D01*
X152819298Y-46379500D01*
X152782432Y-46382401D01*
X152782426Y-46382402D01*
X152624606Y-46428254D01*
X152624603Y-46428255D01*
X152483137Y-46511917D01*
X152476969Y-46516702D01*
X152475072Y-46514256D01*
X152426358Y-46540857D01*
X152356666Y-46535873D01*
X152324296Y-46515069D01*
X152323031Y-46516702D01*
X152316862Y-46511917D01*
X152226431Y-46458437D01*
X152175398Y-46428256D01*
X152175397Y-46428255D01*
X152175396Y-46428255D01*
X152175393Y-46428254D01*
X152017573Y-46382402D01*
X152017567Y-46382401D01*
X151980701Y-46379500D01*
X151980694Y-46379500D01*
X151549306Y-46379500D01*
X151549298Y-46379500D01*
X151512432Y-46382401D01*
X151512426Y-46382402D01*
X151354606Y-46428254D01*
X151354603Y-46428255D01*
X151213137Y-46511917D01*
X151206969Y-46516702D01*
X151205072Y-46514256D01*
X151156358Y-46540857D01*
X151086666Y-46535873D01*
X151054296Y-46515069D01*
X151053031Y-46516702D01*
X151046862Y-46511917D01*
X150956431Y-46458437D01*
X150905398Y-46428256D01*
X150905397Y-46428255D01*
X150905396Y-46428255D01*
X150905393Y-46428254D01*
X150747573Y-46382402D01*
X150747567Y-46382401D01*
X150710701Y-46379500D01*
X150710694Y-46379500D01*
X150279306Y-46379500D01*
X150279298Y-46379500D01*
X150242432Y-46382401D01*
X150242426Y-46382402D01*
X150084606Y-46428254D01*
X150084603Y-46428255D01*
X149943137Y-46511917D01*
X149936969Y-46516702D01*
X149935072Y-46514256D01*
X149886358Y-46540857D01*
X149816666Y-46535873D01*
X149784296Y-46515069D01*
X149783031Y-46516702D01*
X149776862Y-46511917D01*
X149686431Y-46458437D01*
X149635398Y-46428256D01*
X149635397Y-46428255D01*
X149635396Y-46428255D01*
X149635393Y-46428254D01*
X149477573Y-46382402D01*
X149477567Y-46382401D01*
X149440701Y-46379500D01*
X149440694Y-46379500D01*
X149009306Y-46379500D01*
X149009298Y-46379500D01*
X148972432Y-46382401D01*
X148972426Y-46382402D01*
X148814606Y-46428254D01*
X148814601Y-46428256D01*
X148792619Y-46441256D01*
X148724895Y-46458437D01*
X148658633Y-46436277D01*
X148614870Y-46381810D01*
X148605500Y-46334523D01*
X148605500Y-41390928D01*
X148580502Y-41265261D01*
X148580501Y-41265260D01*
X148580501Y-41265256D01*
X148531465Y-41146873D01*
X148502146Y-41102994D01*
X148502145Y-41102992D01*
X148460281Y-41040336D01*
X148460277Y-41040331D01*
X147762127Y-40342181D01*
X147728642Y-40280858D01*
X147733626Y-40211166D01*
X147775498Y-40155233D01*
X147840962Y-40130816D01*
X147849808Y-40130500D01*
X148170686Y-40130500D01*
X148170694Y-40130500D01*
X148207569Y-40127598D01*
X148207571Y-40127597D01*
X148207573Y-40127597D01*
X148249191Y-40115505D01*
X148365398Y-40081744D01*
X148506865Y-39998081D01*
X148506870Y-39998075D01*
X148513031Y-39993298D01*
X148514933Y-39995750D01*
X148563579Y-39969155D01*
X148633274Y-39974104D01*
X148665695Y-39994940D01*
X148666969Y-39993298D01*
X148673132Y-39998078D01*
X148673135Y-39998081D01*
X148814602Y-40081744D01*
X148856224Y-40093836D01*
X148972426Y-40127597D01*
X148972429Y-40127597D01*
X148972431Y-40127598D01*
X149009306Y-40130500D01*
X149009314Y-40130500D01*
X149440686Y-40130500D01*
X149440694Y-40130500D01*
X149477569Y-40127598D01*
X149477571Y-40127597D01*
X149477573Y-40127597D01*
X149519191Y-40115505D01*
X149635398Y-40081744D01*
X149776865Y-39998081D01*
X149776870Y-39998075D01*
X149783031Y-39993298D01*
X149784933Y-39995750D01*
X149833579Y-39969155D01*
X149903274Y-39974104D01*
X149935695Y-39994940D01*
X149936969Y-39993298D01*
X149943132Y-39998078D01*
X149943135Y-39998081D01*
X150084602Y-40081744D01*
X150126224Y-40093836D01*
X150242426Y-40127597D01*
X150242429Y-40127597D01*
X150242431Y-40127598D01*
X150279306Y-40130500D01*
X150279314Y-40130500D01*
X150710686Y-40130500D01*
X150710694Y-40130500D01*
X150747569Y-40127598D01*
X150747571Y-40127597D01*
X150747573Y-40127597D01*
X150789191Y-40115505D01*
X150905398Y-40081744D01*
X151046865Y-39998081D01*
X151046870Y-39998075D01*
X151053031Y-39993298D01*
X151054933Y-39995750D01*
X151103579Y-39969155D01*
X151173274Y-39974104D01*
X151205695Y-39994940D01*
X151206969Y-39993298D01*
X151213132Y-39998078D01*
X151213135Y-39998081D01*
X151354602Y-40081744D01*
X151396224Y-40093836D01*
X151512426Y-40127597D01*
X151512429Y-40127597D01*
X151512431Y-40127598D01*
X151549306Y-40130500D01*
X151549314Y-40130500D01*
X151980686Y-40130500D01*
X151980694Y-40130500D01*
X152017569Y-40127598D01*
X152017571Y-40127597D01*
X152017573Y-40127597D01*
X152059191Y-40115505D01*
X152175398Y-40081744D01*
X152316865Y-39998081D01*
X152316870Y-39998075D01*
X152323031Y-39993298D01*
X152324933Y-39995750D01*
X152373579Y-39969155D01*
X152443274Y-39974104D01*
X152475695Y-39994940D01*
X152476969Y-39993298D01*
X152483132Y-39998078D01*
X152483135Y-39998081D01*
X152624602Y-40081744D01*
X152666224Y-40093836D01*
X152782426Y-40127597D01*
X152782429Y-40127597D01*
X152782431Y-40127598D01*
X152819306Y-40130500D01*
X152819314Y-40130500D01*
X153250686Y-40130500D01*
X153250694Y-40130500D01*
X153287569Y-40127598D01*
X153287571Y-40127597D01*
X153287573Y-40127597D01*
X153329191Y-40115505D01*
X153445398Y-40081744D01*
X153586865Y-39998081D01*
X153586870Y-39998075D01*
X153593031Y-39993298D01*
X153594933Y-39995750D01*
X153643579Y-39969155D01*
X153713274Y-39974104D01*
X153745695Y-39994940D01*
X153746969Y-39993298D01*
X153753132Y-39998078D01*
X153753135Y-39998081D01*
X153894602Y-40081744D01*
X153936224Y-40093836D01*
X154052426Y-40127597D01*
X154052429Y-40127597D01*
X154052431Y-40127598D01*
X154089306Y-40130500D01*
X154089314Y-40130500D01*
X154520686Y-40130500D01*
X154520694Y-40130500D01*
X154557569Y-40127598D01*
X154557571Y-40127597D01*
X154557573Y-40127597D01*
X154599191Y-40115505D01*
X154715398Y-40081744D01*
X154856865Y-39998081D01*
X154856870Y-39998075D01*
X154863031Y-39993298D01*
X154864933Y-39995750D01*
X154913579Y-39969155D01*
X154983274Y-39974104D01*
X155015695Y-39994940D01*
X155016969Y-39993298D01*
X155023132Y-39998078D01*
X155023135Y-39998081D01*
X155164602Y-40081744D01*
X155206224Y-40093836D01*
X155322426Y-40127597D01*
X155322429Y-40127597D01*
X155322431Y-40127598D01*
X155359306Y-40130500D01*
X155359314Y-40130500D01*
X155790686Y-40130500D01*
X155790694Y-40130500D01*
X155827569Y-40127598D01*
X155827571Y-40127597D01*
X155827573Y-40127597D01*
X155985392Y-40081746D01*
X155985392Y-40081745D01*
X155985398Y-40081744D01*
X156007381Y-40068743D01*
X156075102Y-40051561D01*
X156141365Y-40073720D01*
X156185128Y-40128186D01*
X156194500Y-40175476D01*
X156194500Y-40994190D01*
X156174815Y-41061229D01*
X156158174Y-41081878D01*
X156151767Y-41088284D01*
X156090442Y-41121764D01*
X156077988Y-41123815D01*
X156070752Y-41124630D01*
X156070744Y-41124632D01*
X155900478Y-41184210D01*
X155747737Y-41280184D01*
X155620184Y-41407737D01*
X155524211Y-41560476D01*
X155464631Y-41730745D01*
X155464630Y-41730750D01*
X155444435Y-41909996D01*
X155444435Y-41910003D01*
X155464630Y-42089249D01*
X155464631Y-42089254D01*
X155524211Y-42259523D01*
X155599598Y-42379500D01*
X155620184Y-42412262D01*
X155747738Y-42539816D01*
X155900478Y-42635789D01*
X155934758Y-42647784D01*
X156070745Y-42695368D01*
X156070750Y-42695369D01*
X156249996Y-42715565D01*
X156250000Y-42715565D01*
X156250004Y-42715565D01*
X156429249Y-42695369D01*
X156429252Y-42695368D01*
X156429255Y-42695368D01*
X156599522Y-42635789D01*
X156752262Y-42539816D01*
X156879816Y-42412262D01*
X156975789Y-42259522D01*
X157035368Y-42089255D01*
X157036182Y-42082025D01*
X157063245Y-42017611D01*
X157071702Y-42008242D01*
X157350277Y-41729669D01*
X157421465Y-41623127D01*
X157470501Y-41504744D01*
X157476324Y-41475470D01*
X157490716Y-41403121D01*
X157495500Y-41379070D01*
X157495500Y-39945515D01*
X157512768Y-39882394D01*
X157517437Y-39874499D01*
X157596744Y-39740398D01*
X157642598Y-39582569D01*
X157645500Y-39545694D01*
X157645500Y-37664306D01*
X157642598Y-37627431D01*
X157596744Y-37469602D01*
X157513081Y-37328135D01*
X157513079Y-37328133D01*
X157513076Y-37328129D01*
X157396870Y-37211923D01*
X157396862Y-37211917D01*
X157303782Y-37156870D01*
X157255398Y-37128256D01*
X157255397Y-37128255D01*
X157255396Y-37128255D01*
X157255393Y-37128254D01*
X157091485Y-37080634D01*
X157092275Y-37077914D01*
X157040846Y-37052031D01*
X157005324Y-36991865D01*
X157002318Y-36947576D01*
X157015565Y-36830003D01*
X157015565Y-36829996D01*
X156995369Y-36650750D01*
X156995368Y-36650745D01*
X156935788Y-36480476D01*
X156896582Y-36418080D01*
X156839816Y-36327738D01*
X156712262Y-36200184D01*
X156559523Y-36104211D01*
X156389254Y-36044631D01*
X156389249Y-36044630D01*
X156210000Y-36024434D01*
X156030750Y-36044630D01*
X156030745Y-36044631D01*
X155860476Y-36104211D01*
X155707737Y-36200184D01*
X155662680Y-36245241D01*
X155601357Y-36278725D01*
X155531665Y-36273740D01*
X155487320Y-36245241D01*
X155442263Y-36200185D01*
X155442262Y-36200184D01*
X155289523Y-36104211D01*
X155119254Y-36044631D01*
X155119249Y-36044630D01*
X154940000Y-36024434D01*
X154760750Y-36044630D01*
X154760745Y-36044631D01*
X154590476Y-36104211D01*
X154437737Y-36200184D01*
X154392680Y-36245241D01*
X154331357Y-36278725D01*
X154261665Y-36273740D01*
X154217320Y-36245241D01*
X154172263Y-36200185D01*
X154172262Y-36200184D01*
X154019523Y-36104211D01*
X153849254Y-36044631D01*
X153849249Y-36044630D01*
X153670000Y-36024434D01*
X153490750Y-36044630D01*
X153490745Y-36044631D01*
X153320476Y-36104211D01*
X153167737Y-36200184D01*
X153122680Y-36245241D01*
X153061357Y-36278725D01*
X152991665Y-36273740D01*
X152947320Y-36245241D01*
X152902263Y-36200185D01*
X152902262Y-36200184D01*
X152749523Y-36104211D01*
X152579254Y-36044631D01*
X152579249Y-36044630D01*
X152400000Y-36024434D01*
X152220750Y-36044630D01*
X152220745Y-36044631D01*
X152050476Y-36104211D01*
X151897737Y-36200184D01*
X151852680Y-36245241D01*
X151791357Y-36278725D01*
X151721665Y-36273740D01*
X151677320Y-36245241D01*
X151632263Y-36200185D01*
X151632262Y-36200184D01*
X151479523Y-36104211D01*
X151309254Y-36044631D01*
X151309249Y-36044630D01*
X151130000Y-36024434D01*
X150950750Y-36044630D01*
X150950745Y-36044631D01*
X150780476Y-36104211D01*
X150627737Y-36200184D01*
X150582680Y-36245241D01*
X150521357Y-36278725D01*
X150451665Y-36273740D01*
X150407320Y-36245241D01*
X150362263Y-36200185D01*
X150362262Y-36200184D01*
X150209523Y-36104211D01*
X150039254Y-36044631D01*
X150039249Y-36044630D01*
X149860000Y-36024434D01*
X149680750Y-36044630D01*
X149680745Y-36044631D01*
X149510476Y-36104211D01*
X149357737Y-36200184D01*
X149312680Y-36245241D01*
X149251357Y-36278725D01*
X149181665Y-36273740D01*
X149137320Y-36245241D01*
X149092263Y-36200185D01*
X149092262Y-36200184D01*
X148939523Y-36104211D01*
X148769254Y-36044631D01*
X148769249Y-36044630D01*
X148590000Y-36024434D01*
X148410750Y-36044630D01*
X148410745Y-36044631D01*
X148240476Y-36104211D01*
X148087737Y-36200184D01*
X147960184Y-36327737D01*
X147864210Y-36480478D01*
X147804632Y-36650744D01*
X147804630Y-36650752D01*
X147803815Y-36657988D01*
X147776743Y-36722400D01*
X147768278Y-36731775D01*
X147449722Y-37050332D01*
X147397655Y-37128257D01*
X147378536Y-37156870D01*
X147331654Y-37270052D01*
X147304776Y-37310277D01*
X147286923Y-37328130D01*
X147286915Y-37328140D01*
X147203255Y-37469603D01*
X147203254Y-37469606D01*
X147157402Y-37627426D01*
X147157401Y-37627432D01*
X147154500Y-37664298D01*
X147154500Y-39050046D01*
X147134815Y-39117085D01*
X147082011Y-39162840D01*
X147012853Y-39172784D01*
X146955519Y-39146600D01*
X146954645Y-39147768D01*
X146832335Y-39056206D01*
X146832328Y-39056202D01*
X146697482Y-39005908D01*
X146697483Y-39005908D01*
X146637883Y-38999501D01*
X146637881Y-38999500D01*
X146637873Y-38999500D01*
X146637864Y-38999500D01*
X143542129Y-38999500D01*
X143542123Y-38999501D01*
X143482516Y-39005908D01*
X143347671Y-39056202D01*
X143347664Y-39056206D01*
X143232455Y-39142452D01*
X143232452Y-39142455D01*
X143146206Y-39257664D01*
X143146202Y-39257671D01*
X143095908Y-39392517D01*
X143089501Y-39452116D01*
X143089500Y-39452135D01*
X143089500Y-41547870D01*
X143089501Y-41547876D01*
X143095908Y-41607483D01*
X143146202Y-41742328D01*
X143146206Y-41742335D01*
X143232452Y-41857544D01*
X143232455Y-41857547D01*
X143347664Y-41943793D01*
X143347671Y-41943797D01*
X143482517Y-41994091D01*
X143482516Y-41994091D01*
X143489444Y-41994835D01*
X143542127Y-42000500D01*
X146637872Y-42000499D01*
X146697483Y-41994091D01*
X146832331Y-41943796D01*
X146947546Y-41857546D01*
X147033796Y-41742331D01*
X147033798Y-41742326D01*
X147044765Y-41712923D01*
X147086636Y-41656989D01*
X147152100Y-41632571D01*
X147220373Y-41647422D01*
X147248628Y-41668574D01*
X147268181Y-41688127D01*
X147301666Y-41749450D01*
X147304500Y-41775808D01*
X147304500Y-43907480D01*
X147284815Y-43974519D01*
X147232011Y-44020274D01*
X147162853Y-44030218D01*
X147099297Y-44001193D01*
X147061523Y-43942415D01*
X147058027Y-43926878D01*
X147053553Y-43898631D01*
X147000762Y-43736158D01*
X146980568Y-43674008D01*
X146980566Y-43674005D01*
X146980566Y-43674003D01*
X146895947Y-43507930D01*
X146873343Y-43463567D01*
X146734517Y-43272490D01*
X146567510Y-43105483D01*
X146376433Y-42966657D01*
X146165996Y-42859433D01*
X145941368Y-42786446D01*
X145708097Y-42749500D01*
X145708092Y-42749500D01*
X144471908Y-42749500D01*
X144471903Y-42749500D01*
X144238631Y-42786446D01*
X144014003Y-42859433D01*
X143803566Y-42966657D01*
X143694550Y-43045862D01*
X143612490Y-43105483D01*
X143612488Y-43105485D01*
X143612487Y-43105485D01*
X143445485Y-43272487D01*
X143445485Y-43272488D01*
X143445483Y-43272490D01*
X143405622Y-43327354D01*
X143306657Y-43463566D01*
X143199433Y-43674003D01*
X143126446Y-43898631D01*
X143089500Y-44131902D01*
X143089500Y-44368097D01*
X143126446Y-44601368D01*
X143199433Y-44825996D01*
X143277501Y-44979211D01*
X143306657Y-45036433D01*
X143445483Y-45227510D01*
X143612490Y-45394517D01*
X143803567Y-45533343D01*
X143874788Y-45569632D01*
X144014003Y-45640566D01*
X144014005Y-45640566D01*
X144014008Y-45640568D01*
X144134412Y-45679689D01*
X144238631Y-45713553D01*
X144471903Y-45750500D01*
X144471908Y-45750500D01*
X145708097Y-45750500D01*
X145941368Y-45713553D01*
X145967691Y-45705000D01*
X146165992Y-45640568D01*
X146376433Y-45533343D01*
X146567510Y-45394517D01*
X146734517Y-45227510D01*
X146873343Y-45036433D01*
X146980568Y-44825992D01*
X147053553Y-44601368D01*
X147058027Y-44573121D01*
X147087956Y-44509986D01*
X147147268Y-44473055D01*
X147217130Y-44474053D01*
X147275363Y-44512663D01*
X147303477Y-44576626D01*
X147304500Y-44592519D01*
X147304500Y-46564484D01*
X147287232Y-46627605D01*
X147203255Y-46769603D01*
X147203254Y-46769606D01*
X147157402Y-46927426D01*
X147157401Y-46927432D01*
X147154500Y-46964298D01*
X147154500Y-47248871D01*
X147134815Y-47315910D01*
X147082011Y-47361665D01*
X147012853Y-47371609D01*
X146949297Y-47342584D01*
X146920015Y-47305166D01*
X146873342Y-47213566D01*
X146840104Y-47167818D01*
X146734517Y-47022490D01*
X146567510Y-46855483D01*
X146376433Y-46716657D01*
X146352617Y-46704522D01*
X146165996Y-46609433D01*
X145941368Y-46536446D01*
X145708097Y-46499500D01*
X145708092Y-46499500D01*
X144471908Y-46499500D01*
X144471903Y-46499500D01*
X144238631Y-46536446D01*
X144014003Y-46609433D01*
X143803566Y-46716657D01*
X143704538Y-46788606D01*
X143612490Y-46855483D01*
X143612488Y-46855485D01*
X143612487Y-46855485D01*
X143445485Y-47022487D01*
X143445485Y-47022488D01*
X143445483Y-47022490D01*
X143404951Y-47078277D01*
X143306657Y-47213566D01*
X143199433Y-47424003D01*
X143126446Y-47648631D01*
X143089500Y-47881902D01*
X143089500Y-48118097D01*
X143126446Y-48351368D01*
X143199433Y-48575996D01*
X143283294Y-48740581D01*
X143306657Y-48786433D01*
X143445483Y-48977510D01*
X143612490Y-49144517D01*
X143803567Y-49283343D01*
X143862159Y-49313197D01*
X144014003Y-49390566D01*
X144014005Y-49390566D01*
X144014008Y-49390568D01*
X144069631Y-49408641D01*
X144238631Y-49463553D01*
X144471903Y-49500500D01*
X144471908Y-49500500D01*
X145619192Y-49500500D01*
X145686231Y-49520185D01*
X145706873Y-49536819D01*
X146205325Y-50035272D01*
X146205328Y-50035275D01*
X146205331Y-50035277D01*
X146274607Y-50081565D01*
X146311873Y-50106465D01*
X146430256Y-50155501D01*
X146430260Y-50155501D01*
X146430261Y-50155502D01*
X146555928Y-50180500D01*
X146555931Y-50180500D01*
X148689070Y-50180500D01*
X148773614Y-50163682D01*
X148814743Y-50155501D01*
X148933126Y-50106465D01*
X148970392Y-50081565D01*
X149039668Y-50035277D01*
X149632819Y-49442126D01*
X149694142Y-49408641D01*
X149763833Y-49413625D01*
X149819767Y-49455496D01*
X149844184Y-49520961D01*
X149844500Y-49529807D01*
X149844500Y-49844191D01*
X149824815Y-49911230D01*
X149808181Y-49931872D01*
X144584727Y-55155325D01*
X144584724Y-55155328D01*
X144558624Y-55194391D01*
X144505011Y-55239196D01*
X144455522Y-55249500D01*
X143542129Y-55249500D01*
X143542123Y-55249501D01*
X143482516Y-55255908D01*
X143347671Y-55306202D01*
X143347664Y-55306206D01*
X143232455Y-55392452D01*
X143232452Y-55392455D01*
X143146206Y-55507664D01*
X143146202Y-55507671D01*
X143095908Y-55642517D01*
X143089501Y-55702116D01*
X143089500Y-55702135D01*
X143089500Y-57797870D01*
X143089501Y-57797876D01*
X143095908Y-57857483D01*
X143146202Y-57992328D01*
X143146206Y-57992335D01*
X143232452Y-58107544D01*
X143232455Y-58107547D01*
X143347664Y-58193793D01*
X143347671Y-58193797D01*
X143482517Y-58244091D01*
X143482516Y-58244091D01*
X143489444Y-58244835D01*
X143542127Y-58250500D01*
X146637872Y-58250499D01*
X146697483Y-58244091D01*
X146832331Y-58193796D01*
X146947546Y-58107546D01*
X146954234Y-58098610D01*
X147010166Y-58056741D01*
X147079857Y-58051757D01*
X147141181Y-58085241D01*
X147174666Y-58146564D01*
X147177500Y-58172923D01*
X147177500Y-59794010D01*
X147157815Y-59861049D01*
X147105011Y-59906804D01*
X147035853Y-59916748D01*
X146972297Y-59887723D01*
X146943015Y-59850305D01*
X146906555Y-59778750D01*
X146873343Y-59713567D01*
X146734517Y-59522490D01*
X146567510Y-59355483D01*
X146376433Y-59216657D01*
X146165996Y-59109433D01*
X145941368Y-59036446D01*
X145708097Y-58999500D01*
X145708092Y-58999500D01*
X144471908Y-58999500D01*
X144471903Y-58999500D01*
X144238631Y-59036446D01*
X144014003Y-59109433D01*
X143803566Y-59216657D01*
X143698505Y-59292989D01*
X143612490Y-59355483D01*
X143612488Y-59355485D01*
X143612487Y-59355485D01*
X143445485Y-59522487D01*
X143445485Y-59522488D01*
X143445483Y-59522490D01*
X143429290Y-59544778D01*
X143306657Y-59713566D01*
X143199433Y-59924003D01*
X143126446Y-60148631D01*
X143089500Y-60381902D01*
X143089500Y-60618097D01*
X143126446Y-60851368D01*
X143199433Y-61075996D01*
X143253707Y-61182513D01*
X143306657Y-61286433D01*
X143445483Y-61477510D01*
X143612490Y-61644517D01*
X143803567Y-61783343D01*
X143886228Y-61825461D01*
X144014003Y-61890566D01*
X144014005Y-61890566D01*
X144014008Y-61890568D01*
X144134412Y-61929689D01*
X144238631Y-61963553D01*
X144471903Y-62000500D01*
X144471908Y-62000500D01*
X145708097Y-62000500D01*
X145941368Y-61963553D01*
X145975776Y-61952373D01*
X146165992Y-61890568D01*
X146320030Y-61812081D01*
X146388698Y-61799185D01*
X146453438Y-61825461D01*
X146493696Y-61882567D01*
X146496688Y-61952373D01*
X146464005Y-62010247D01*
X145761072Y-62713181D01*
X145699749Y-62746666D01*
X145673391Y-62749500D01*
X144471903Y-62749500D01*
X144238631Y-62786446D01*
X144014003Y-62859433D01*
X143803566Y-62966657D01*
X143739904Y-63012911D01*
X143612490Y-63105483D01*
X143612488Y-63105485D01*
X143612487Y-63105485D01*
X143445485Y-63272487D01*
X143445485Y-63272488D01*
X143445483Y-63272490D01*
X143385862Y-63354550D01*
X143306657Y-63463566D01*
X143199433Y-63674003D01*
X143126446Y-63898631D01*
X143089500Y-64131902D01*
X143089500Y-64368097D01*
X140335000Y-64368097D01*
X140335000Y-35900781D01*
X140354685Y-35833742D01*
X140407489Y-35787987D01*
X140459000Y-35776781D01*
X148579965Y-35776781D01*
X148584549Y-35778127D01*
G37*
%TD.AperFunction*%
%TD*%
%TA.AperFunction,Conductor*%
%TO.N,/HV_1B*%
G36*
X118495683Y-53485993D02*
G01*
X118656215Y-53515125D01*
X118670616Y-53519714D01*
X118676255Y-53519967D01*
X118676256Y-53519968D01*
X118676731Y-53519989D01*
X118693311Y-53521857D01*
X118693790Y-53521944D01*
X118693790Y-53521943D01*
X118699352Y-53522953D01*
X118714417Y-53521681D01*
X118766462Y-53524019D01*
X118773121Y-53525500D01*
X118789438Y-53525500D01*
X118796651Y-53525500D01*
X118802215Y-53525625D01*
X118809407Y-53525948D01*
X118809407Y-53525947D01*
X118825713Y-53526680D01*
X118832431Y-53525500D01*
X121291176Y-53525500D01*
X121338629Y-53534939D01*
X121400918Y-53560740D01*
X121428952Y-53576925D01*
X121506602Y-53636509D01*
X121529491Y-53659398D01*
X121589074Y-53737048D01*
X121605259Y-53765081D01*
X121642715Y-53855508D01*
X121651093Y-53886775D01*
X121661656Y-53967005D01*
X121662832Y-53975940D01*
X121664939Y-53991939D01*
X121666000Y-54008125D01*
X121666000Y-66039874D01*
X121664939Y-66056060D01*
X121651093Y-66161224D01*
X121642715Y-66192491D01*
X121605259Y-66282918D01*
X121589074Y-66310951D01*
X121529491Y-66388601D01*
X121506601Y-66411491D01*
X121428951Y-66471074D01*
X121400918Y-66487259D01*
X121310491Y-66524715D01*
X121279224Y-66533093D01*
X121185398Y-66545446D01*
X121174058Y-66546939D01*
X121157874Y-66548000D01*
X117094126Y-66548000D01*
X117077941Y-66546939D01*
X117064917Y-66545224D01*
X116972775Y-66533093D01*
X116941508Y-66524715D01*
X116851081Y-66487259D01*
X116823048Y-66471074D01*
X116745398Y-66411491D01*
X116722508Y-66388601D01*
X116662925Y-66310951D01*
X116646740Y-66282918D01*
X116609284Y-66192491D01*
X116600906Y-66161223D01*
X116587061Y-66056059D01*
X116586000Y-66039874D01*
X116586000Y-59161147D01*
X116586000Y-59161146D01*
X116586000Y-58928000D01*
X116407398Y-58778127D01*
X114947417Y-57552990D01*
X114947411Y-57552986D01*
X114808000Y-57436000D01*
X114626007Y-57436000D01*
X110000126Y-57436000D01*
X109983941Y-57434939D01*
X109970917Y-57433224D01*
X109878775Y-57421093D01*
X109847508Y-57412715D01*
X109757081Y-57375259D01*
X109729048Y-57359074D01*
X109651398Y-57299491D01*
X109628508Y-57276601D01*
X109568925Y-57198951D01*
X109552740Y-57170918D01*
X109515284Y-57080491D01*
X109506906Y-57049223D01*
X109493061Y-56944059D01*
X109492000Y-56927874D01*
X109492000Y-53992125D01*
X109493061Y-53975940D01*
X109506906Y-53870776D01*
X109515284Y-53839508D01*
X109546113Y-53765081D01*
X109552740Y-53749079D01*
X109568923Y-53721050D01*
X109628513Y-53643392D01*
X109651392Y-53620513D01*
X109729050Y-53560923D01*
X109757079Y-53544740D01*
X109847509Y-53507283D01*
X109878775Y-53498906D01*
X109983941Y-53485061D01*
X110000126Y-53484000D01*
X118473542Y-53484000D01*
X118495683Y-53485993D01*
G37*
%TD.AperFunction*%
%TD*%
%TA.AperFunction,Conductor*%
%TO.N,/HV_2B*%
G36*
X120920059Y-38101061D02*
G01*
X121025223Y-38114906D01*
X121056491Y-38123284D01*
X121146918Y-38160740D01*
X121174952Y-38176925D01*
X121252602Y-38236509D01*
X121275491Y-38259398D01*
X121335074Y-38337048D01*
X121351259Y-38365081D01*
X121388715Y-38455508D01*
X121397093Y-38486775D01*
X121410939Y-38591939D01*
X121412000Y-38608125D01*
X121412000Y-49783874D01*
X121410939Y-49800060D01*
X121397093Y-49905224D01*
X121388715Y-49936491D01*
X121351259Y-50026918D01*
X121335074Y-50054951D01*
X121275491Y-50132601D01*
X121252601Y-50155491D01*
X121174951Y-50215074D01*
X121146918Y-50231259D01*
X121056491Y-50268715D01*
X121025224Y-50277093D01*
X120931398Y-50289446D01*
X120920058Y-50290939D01*
X120903874Y-50292000D01*
X118364126Y-50292000D01*
X118347941Y-50290939D01*
X118334917Y-50289224D01*
X118242775Y-50277093D01*
X118211508Y-50268715D01*
X118121081Y-50231259D01*
X118093048Y-50215074D01*
X118015398Y-50155491D01*
X117992508Y-50132601D01*
X117932925Y-50054951D01*
X117916740Y-50026918D01*
X117879284Y-49936491D01*
X117870906Y-49905223D01*
X117857061Y-49800059D01*
X117856000Y-49783874D01*
X117856000Y-45204006D01*
X117856000Y-45204000D01*
X117856000Y-44704000D01*
X117356000Y-44704000D01*
X117355993Y-44704000D01*
X109982126Y-44704000D01*
X109965941Y-44702939D01*
X109952917Y-44701224D01*
X109860775Y-44689093D01*
X109829508Y-44680715D01*
X109739081Y-44643259D01*
X109711048Y-44627074D01*
X109633398Y-44567491D01*
X109610508Y-44544601D01*
X109550925Y-44466951D01*
X109534740Y-44438918D01*
X109497284Y-44348491D01*
X109488906Y-44317223D01*
X109475061Y-44212059D01*
X109474000Y-44195874D01*
X109474000Y-38608125D01*
X109475061Y-38591940D01*
X109488906Y-38486776D01*
X109497284Y-38455508D01*
X109534740Y-38365081D01*
X109550923Y-38337050D01*
X109610513Y-38259392D01*
X109633392Y-38236513D01*
X109711050Y-38176923D01*
X109739079Y-38160740D01*
X109829509Y-38123283D01*
X109860775Y-38114906D01*
X109965941Y-38101061D01*
X109982126Y-38100000D01*
X120903874Y-38100000D01*
X120920059Y-38101061D01*
G37*
%TD.AperFunction*%
%TD*%
M02*
