%TF.GenerationSoftware,KiCad,Pcbnew,8.0.1*%
%TF.CreationDate,2024-04-28T14:46:59+02:00*%
%TF.ProjectId,2in-2out_2.0,32696e2d-326f-4757-945f-322e302e6b69,rev?*%
%TF.SameCoordinates,Original*%
%TF.FileFunction,Copper,L1,Top*%
%TF.FilePolarity,Positive*%
%FSLAX46Y46*%
G04 Gerber Fmt 4.6, Leading zero omitted, Abs format (unit mm)*
G04 Created by KiCad (PCBNEW 8.0.1) date 2024-04-28 14:46:59*
%MOMM*%
%LPD*%
G01*
G04 APERTURE LIST*
G04 Aperture macros list*
%AMRoundRect*
0 Rectangle with rounded corners*
0 $1 Rounding radius*
0 $2 $3 $4 $5 $6 $7 $8 $9 X,Y pos of 4 corners*
0 Add a 4 corners polygon primitive as box body*
4,1,4,$2,$3,$4,$5,$6,$7,$8,$9,$2,$3,0*
0 Add four circle primitives for the rounded corners*
1,1,$1+$1,$2,$3*
1,1,$1+$1,$4,$5*
1,1,$1+$1,$6,$7*
1,1,$1+$1,$8,$9*
0 Add four rect primitives between the rounded corners*
20,1,$1+$1,$2,$3,$4,$5,0*
20,1,$1+$1,$4,$5,$6,$7,0*
20,1,$1+$1,$6,$7,$8,$9,0*
20,1,$1+$1,$8,$9,$2,$3,0*%
G04 Aperture macros list end*
%TA.AperFunction,ComponentPad*%
%ADD10O,3.000000X4.000000*%
%TD*%
%TA.AperFunction,ComponentPad*%
%ADD11R,3.000000X2.000000*%
%TD*%
%TA.AperFunction,ComponentPad*%
%ADD12O,3.000000X2.000000*%
%TD*%
%TA.AperFunction,ComponentPad*%
%ADD13R,1.600000X1.600000*%
%TD*%
%TA.AperFunction,ComponentPad*%
%ADD14C,1.600000*%
%TD*%
%TA.AperFunction,SMDPad,CuDef*%
%ADD15C,1.500000*%
%TD*%
%TA.AperFunction,SMDPad,CuDef*%
%ADD16RoundRect,0.250000X0.400000X0.600000X-0.400000X0.600000X-0.400000X-0.600000X0.400000X-0.600000X0*%
%TD*%
%TA.AperFunction,SMDPad,CuDef*%
%ADD17RoundRect,0.218750X-0.218750X-0.381250X0.218750X-0.381250X0.218750X0.381250X-0.218750X0.381250X0*%
%TD*%
%TA.AperFunction,SMDPad,CuDef*%
%ADD18RoundRect,0.250000X0.262500X0.450000X-0.262500X0.450000X-0.262500X-0.450000X0.262500X-0.450000X0*%
%TD*%
%TA.AperFunction,SMDPad,CuDef*%
%ADD19C,1.000000*%
%TD*%
%TA.AperFunction,SMDPad,CuDef*%
%ADD20RoundRect,0.243750X0.243750X0.456250X-0.243750X0.456250X-0.243750X-0.456250X0.243750X-0.456250X0*%
%TD*%
%TA.AperFunction,ComponentPad*%
%ADD21R,1.700000X1.700000*%
%TD*%
%TA.AperFunction,ComponentPad*%
%ADD22O,1.700000X1.700000*%
%TD*%
%TA.AperFunction,SMDPad,CuDef*%
%ADD23RoundRect,0.250000X-0.250000X-0.475000X0.250000X-0.475000X0.250000X0.475000X-0.250000X0.475000X0*%
%TD*%
%TA.AperFunction,SMDPad,CuDef*%
%ADD24RoundRect,0.150000X-0.150000X0.825000X-0.150000X-0.825000X0.150000X-0.825000X0.150000X0.825000X0*%
%TD*%
%TA.AperFunction,SMDPad,CuDef*%
%ADD25RoundRect,0.250000X0.250000X0.475000X-0.250000X0.475000X-0.250000X-0.475000X0.250000X-0.475000X0*%
%TD*%
%TA.AperFunction,SMDPad,CuDef*%
%ADD26R,1.500000X1.000000*%
%TD*%
%TA.AperFunction,SMDPad,CuDef*%
%ADD27RoundRect,0.250000X-0.450000X0.262500X-0.450000X-0.262500X0.450000X-0.262500X0.450000X0.262500X0*%
%TD*%
%TA.AperFunction,ComponentPad*%
%ADD28RoundRect,0.250000X1.550000X-0.650000X1.550000X0.650000X-1.550000X0.650000X-1.550000X-0.650000X0*%
%TD*%
%TA.AperFunction,ComponentPad*%
%ADD29O,3.600000X1.800000*%
%TD*%
%TA.AperFunction,SMDPad,CuDef*%
%ADD30RoundRect,0.250000X0.650000X-1.000000X0.650000X1.000000X-0.650000X1.000000X-0.650000X-1.000000X0*%
%TD*%
%TA.AperFunction,SMDPad,CuDef*%
%ADD31RoundRect,0.250000X0.625000X-0.312500X0.625000X0.312500X-0.625000X0.312500X-0.625000X-0.312500X0*%
%TD*%
%TA.AperFunction,SMDPad,CuDef*%
%ADD32RoundRect,0.150000X0.587500X0.150000X-0.587500X0.150000X-0.587500X-0.150000X0.587500X-0.150000X0*%
%TD*%
%TA.AperFunction,SMDPad,CuDef*%
%ADD33RoundRect,0.250000X0.450000X-0.262500X0.450000X0.262500X-0.450000X0.262500X-0.450000X-0.262500X0*%
%TD*%
%TA.AperFunction,ComponentPad*%
%ADD34R,2.400000X2.400000*%
%TD*%
%TA.AperFunction,ComponentPad*%
%ADD35C,2.400000*%
%TD*%
%TA.AperFunction,SMDPad,CuDef*%
%ADD36RoundRect,0.150000X-0.725000X-0.150000X0.725000X-0.150000X0.725000X0.150000X-0.725000X0.150000X0*%
%TD*%
%TA.AperFunction,ComponentPad*%
%ADD37R,2.500000X2.500000*%
%TD*%
%TA.AperFunction,ComponentPad*%
%ADD38C,2.500000*%
%TD*%
%TA.AperFunction,ViaPad*%
%ADD39C,0.800000*%
%TD*%
%TA.AperFunction,ViaPad*%
%ADD40C,0.600000*%
%TD*%
%TA.AperFunction,Conductor*%
%ADD41C,2.400000*%
%TD*%
%TA.AperFunction,Conductor*%
%ADD42C,1.000000*%
%TD*%
%TA.AperFunction,Conductor*%
%ADD43C,0.300000*%
%TD*%
%TA.AperFunction,Conductor*%
%ADD44C,0.600000*%
%TD*%
%TA.AperFunction,Conductor*%
%ADD45C,0.800000*%
%TD*%
%TA.AperFunction,Conductor*%
%ADD46C,1.800000*%
%TD*%
G04 APERTURE END LIST*
D10*
%TO.P,K2,11*%
%TO.N,/HV_2A*%
X124790000Y-48000000D03*
X124790000Y-40500000D03*
%TO.P,K2,12*%
%TO.N,unconnected-(K2-Pad12)*%
X129830000Y-48000000D03*
X129830000Y-40500000D03*
%TO.P,K2,14*%
%TO.N,/HV_2B*%
X119750000Y-48000000D03*
X119750000Y-40500000D03*
D11*
%TO.P,K2,A1*%
%TO.N,Net-(IC1-O1)*%
X145090000Y-40500000D03*
D12*
%TO.P,K2,A2*%
%TO.N,Net-(IC1-O2)*%
X145090000Y-48000000D03*
%TO.P,K2,A3*%
%TO.N,VDD*%
X145090000Y-44250000D03*
%TD*%
D13*
%TO.P,C1,1*%
%TO.N,VDD*%
X162560000Y-57785000D03*
D14*
%TO.P,C1,2*%
%TO.N,GND*%
X162560000Y-54285000D03*
%TD*%
D15*
%TO.P,TP7,1,1*%
%TO.N,/EIB_DC*%
X170942000Y-59563000D03*
%TD*%
D16*
%TO.P,D8,1,K*%
%TO.N,VDD*%
X145000000Y-52250000D03*
%TO.P,D8,2,A*%
%TO.N,GND*%
X141500000Y-52250000D03*
%TD*%
D17*
%TO.P,FB3,1*%
%TO.N,Net-(F3-Pad2)*%
X177882500Y-50346250D03*
%TO.P,FB3,2*%
%TO.N,/IO3*%
X180007500Y-50346250D03*
%TD*%
D15*
%TO.P,TP6,1,1*%
%TO.N,/SCK*%
X160750000Y-50000000D03*
%TD*%
D17*
%TO.P,FB1,1*%
%TO.N,Net-(F1-Pad2)*%
X178007500Y-36830000D03*
%TO.P,FB1,2*%
%TO.N,/IN1*%
X180132500Y-36830000D03*
%TD*%
D18*
%TO.P,R4,1*%
%TO.N,/IN3*%
X176320000Y-50673000D03*
%TO.P,R4,2*%
%TO.N,Net-(D7-K)*%
X174495000Y-50673000D03*
%TD*%
D19*
%TO.P,TP10,1,1*%
%TO.N,Net-(TVS1-I{slash}O2)*%
X180086000Y-40894000D03*
%TD*%
D20*
%TO.P,F2,1*%
%TO.N,Net-(TVS1-I{slash}O3)*%
X180437000Y-46228000D03*
%TO.P,F2,2*%
%TO.N,Net-(F2-Pad2)*%
X178562000Y-46228000D03*
%TD*%
D19*
%TO.P,TP12,1,1*%
%TO.N,/IN3*%
X176149000Y-52832000D03*
%TD*%
D21*
%TO.P,J1,1,Pin_1*%
%TO.N,VBUS*%
X149460000Y-66000000D03*
D22*
%TO.P,J1,2,Pin_2*%
%TO.N,GND*%
X152000000Y-66000000D03*
%TO.P,J1,3,Pin_3*%
%TO.N,+3V3*%
X154540000Y-66000000D03*
%TO.P,J1,4,Pin_4*%
%TO.N,/PWM*%
X157080000Y-66000000D03*
%TO.P,J1,5,Pin_5*%
%TO.N,/MOSI*%
X159620000Y-66000000D03*
%TO.P,J1,6,Pin_6*%
%TO.N,/SSEL*%
X162160000Y-66000000D03*
%TO.P,J1,7,Pin_7*%
%TO.N,/MISO*%
X164700000Y-66000000D03*
%TO.P,J1,8,Pin_8*%
%TO.N,/SCK*%
X167240000Y-66000000D03*
%TO.P,J1,9,Pin_9*%
%TO.N,/EIB_DC*%
X169780000Y-66000000D03*
%TD*%
D23*
%TO.P,C5,1*%
%TO.N,+3V3*%
X172720000Y-36830000D03*
%TO.P,C5,2*%
%TO.N,GND*%
X174620000Y-36830000D03*
%TD*%
D18*
%TO.P,R2,1*%
%TO.N,Net-(TVS1-I{slash}O2)*%
X178204500Y-40894000D03*
%TO.P,R2,2*%
%TO.N,Net-(D4-K)*%
X176379500Y-40894000D03*
%TD*%
D24*
%TO.P,U1,1,QB*%
%TO.N,/O2*%
X157195000Y-38735000D03*
%TO.P,U1,2,QC*%
%TO.N,/O3*%
X155925000Y-38735000D03*
%TO.P,U1,3,QD*%
%TO.N,/O4*%
X154655000Y-38735000D03*
%TO.P,U1,4,QE*%
%TO.N,/O5*%
X153385000Y-38735000D03*
%TO.P,U1,5,QF*%
%TO.N,/O6*%
X152115000Y-38735000D03*
%TO.P,U1,6,QG*%
%TO.N,/O7*%
X150845000Y-38735000D03*
%TO.P,U1,7,QH*%
%TO.N,/O8*%
X149575000Y-38735000D03*
%TO.P,U1,8,GND*%
%TO.N,GND*%
X148305000Y-38735000D03*
%TO.P,U1,9,QH'*%
%TO.N,unconnected-(U1-QH'-Pad9)*%
X148305000Y-43685000D03*
%TO.P,U1,10,~{SRCLR}*%
%TO.N,unconnected-(U1-~{SRCLR}-Pad10)*%
X149575000Y-43685000D03*
%TO.P,U1,11,SRCLK*%
%TO.N,/SCK*%
X150845000Y-43685000D03*
%TO.P,U1,12,RCLK*%
X152115000Y-43685000D03*
%TO.P,U1,13,~{OE}*%
%TO.N,/SSEL*%
X153385000Y-43685000D03*
%TO.P,U1,14,SER*%
%TO.N,/MOSI*%
X154655000Y-43685000D03*
%TO.P,U1,15,QA*%
%TO.N,/O1*%
X155925000Y-43685000D03*
%TO.P,U1,16,VCC*%
%TO.N,+3V3*%
X157195000Y-43685000D03*
%TD*%
D15*
%TO.P,TP9,1,1*%
%TO.N,+3V3*%
X153560000Y-62738000D03*
%TD*%
D17*
%TO.P,FB4,1*%
%TO.N,Net-(F4-Pad2)*%
X177882500Y-54346250D03*
%TO.P,FB4,2*%
%TO.N,/IO4*%
X180007500Y-54346250D03*
%TD*%
D10*
%TO.P,K1,11*%
%TO.N,/HV_1A*%
X124790000Y-64250000D03*
X124790000Y-56750000D03*
%TO.P,K1,12*%
%TO.N,unconnected-(K1-Pad12)*%
X129830000Y-64250000D03*
X129830000Y-56750000D03*
%TO.P,K1,14*%
%TO.N,/HV_1B*%
X119750000Y-64250000D03*
X119750000Y-56750000D03*
D11*
%TO.P,K1,A1*%
%TO.N,Net-(IC1-O3)*%
X145090000Y-56750000D03*
D12*
%TO.P,K1,A2*%
%TO.N,Net-(IC1-O4)*%
X145090000Y-64250000D03*
%TO.P,K1,A3*%
%TO.N,VDD*%
X145090000Y-60500000D03*
%TD*%
D25*
%TO.P,C6,1*%
%TO.N,+3V3*%
X166878000Y-48768000D03*
%TO.P,C6,2*%
%TO.N,GND*%
X164978000Y-48768000D03*
%TD*%
D26*
%TO.P,SJ1,1,A*%
%TO.N,/EIB_DC*%
X165735000Y-62245000D03*
%TO.P,SJ1,2,B*%
%TO.N,VDD*%
X165735000Y-60945000D03*
%TD*%
D19*
%TO.P,TP13,1,1*%
%TO.N,/IN4*%
X174117000Y-52832000D03*
%TD*%
D15*
%TO.P,TP1,1,1*%
%TO.N,VBUS*%
X149500000Y-62738000D03*
%TD*%
D17*
%TO.P,FB2,1*%
%TO.N,Net-(F2-Pad2)*%
X178308000Y-44323000D03*
%TO.P,FB2,2*%
%TO.N,/IN2*%
X180433000Y-44323000D03*
%TD*%
D27*
%TO.P,R9,1*%
%TO.N,/I4D*%
X171069000Y-46966500D03*
%TO.P,R9,2*%
%TO.N,Net-(D5-K)*%
X171069000Y-48791500D03*
%TD*%
D28*
%TO.P,X9,1,KL*%
%TO.N,GND*%
X184785000Y-65405000D03*
D29*
%TO.P,X9,2,KL*%
%TO.N,VBUS*%
X184785000Y-59655000D03*
%TD*%
D15*
%TO.P,TP8,1,1*%
%TO.N,/PWM*%
X156810000Y-62738000D03*
%TD*%
D30*
%TO.P,D1,1,A1*%
%TO.N,GND*%
X177800000Y-66516000D03*
%TO.P,D1,2,A2*%
%TO.N,VBUS*%
X177800000Y-62516000D03*
%TD*%
D31*
%TO.P,R1,1*%
%TO.N,/EIB_DC*%
X168275000Y-62615000D03*
%TO.P,R1,2*%
%TO.N,VDD*%
X168275000Y-59690000D03*
%TD*%
D32*
%TO.P,D6,1*%
%TO.N,Net-(D2-K)*%
X174625000Y-43180000D03*
%TO.P,D6,2*%
%TO.N,Net-(D4-K)*%
X174625000Y-41280000D03*
%TO.P,D6,3*%
%TO.N,+3V3*%
X172750000Y-42230000D03*
%TD*%
D15*
%TO.P,TP4,1,1*%
%TO.N,/SSEL*%
X160655000Y-37465000D03*
%TD*%
D19*
%TO.P,TP11,1,1*%
%TO.N,Net-(TVS1-I{slash}O3)*%
X180086000Y-48260000D03*
%TD*%
D20*
%TO.P,F4,1*%
%TO.N,/IO4F*%
X179745000Y-56346250D03*
%TO.P,F4,2*%
%TO.N,Net-(F4-Pad2)*%
X177870000Y-56346250D03*
%TD*%
D32*
%TO.P,D3,1*%
%TO.N,Net-(D7-K)*%
X171293000Y-52590500D03*
%TO.P,D3,2*%
%TO.N,Net-(D5-K)*%
X171293000Y-50690500D03*
%TO.P,D3,3*%
%TO.N,+3V3*%
X169418000Y-51640500D03*
%TD*%
D18*
%TO.P,R6,1*%
%TO.N,Net-(D4-K)*%
X174625000Y-39370000D03*
%TO.P,R6,2*%
%TO.N,/I1D*%
X172800000Y-39370000D03*
%TD*%
%TO.P,R3,1*%
%TO.N,Net-(TVS1-I{slash}O3)*%
X178204500Y-48260000D03*
%TO.P,R3,2*%
%TO.N,Net-(D2-K)*%
X176379500Y-48260000D03*
%TD*%
D33*
%TO.P,R8,1*%
%TO.N,Net-(D7-K)*%
X173101000Y-48791500D03*
%TO.P,R8,2*%
%TO.N,/I3D*%
X173101000Y-46966500D03*
%TD*%
D15*
%TO.P,TP5,1,1*%
%TO.N,/MISO*%
X160750000Y-47000000D03*
%TD*%
D18*
%TO.P,R7,1*%
%TO.N,Net-(D2-K)*%
X174625000Y-45085000D03*
%TO.P,R7,2*%
%TO.N,/I2D*%
X172800000Y-45085000D03*
%TD*%
D20*
%TO.P,F1,1*%
%TO.N,Net-(TVS1-I{slash}O2)*%
X180086000Y-38783500D03*
%TO.P,F1,2*%
%TO.N,Net-(F1-Pad2)*%
X178211000Y-38783500D03*
%TD*%
D34*
%TO.P,J2,1,Pin_1*%
%TO.N,/IO4*%
X186283600Y-50073200D03*
D35*
%TO.P,J2,2,Pin_2*%
%TO.N,/IO3*%
X186283600Y-46573200D03*
%TO.P,J2,3,Pin_3*%
%TO.N,/IN2*%
X186283600Y-43073200D03*
%TO.P,J2,4,Pin_4*%
%TO.N,/IN1*%
X186283600Y-39573200D03*
%TD*%
D13*
%TO.P,C2,1*%
%TO.N,VDD*%
X153670000Y-57785000D03*
D14*
%TO.P,C2,2*%
%TO.N,GND*%
X153670000Y-54285000D03*
%TD*%
D15*
%TO.P,TP3,1,1*%
%TO.N,/MOSI*%
X159810000Y-62738000D03*
%TD*%
D36*
%TO.P,U2,1,~{PL}*%
%TO.N,/SSEL*%
X163650000Y-37480000D03*
%TO.P,U2,2,CP*%
%TO.N,/SCK*%
X163650000Y-38750000D03*
%TO.P,U2,3,D4*%
%TO.N,GND*%
X163650000Y-40020000D03*
%TO.P,U2,4,D5*%
X163650000Y-41290000D03*
%TO.P,U2,5,D6*%
X163650000Y-42560000D03*
%TO.P,U2,6,D7*%
X163650000Y-43830000D03*
%TO.P,U2,7,~{Q7}*%
%TO.N,unconnected-(U2-~{Q7}-Pad7)*%
X163650000Y-45100000D03*
%TO.P,U2,8,GND*%
%TO.N,GND*%
X163650000Y-46370000D03*
%TO.P,U2,9,Q7*%
%TO.N,/MISO*%
X168800000Y-46370000D03*
%TO.P,U2,10,DS*%
%TO.N,GND*%
X168800000Y-45100000D03*
%TO.P,U2,11,D0*%
%TO.N,/I4D*%
X168800000Y-43830000D03*
%TO.P,U2,12,D1*%
%TO.N,/I3D*%
X168800000Y-42560000D03*
%TO.P,U2,13,D2*%
%TO.N,/I2D*%
X168800000Y-41290000D03*
%TO.P,U2,14,D3*%
%TO.N,/I1D*%
X168800000Y-40020000D03*
%TO.P,U2,15,~{CE}*%
%TO.N,GND*%
X168800000Y-38750000D03*
%TO.P,U2,16,VCC*%
%TO.N,+3V3*%
X168800000Y-37480000D03*
%TD*%
D37*
%TO.P,J5,1,Pin_1*%
%TO.N,/HV_2B*%
X112268000Y-42727996D03*
D38*
%TO.P,J5,2,Pin_2*%
%TO.N,/HV_2A*%
X112268000Y-49077996D03*
%TO.P,J5,3,Pin_3*%
%TO.N,/HV_1B*%
X112268000Y-55427996D03*
%TO.P,J5,4,Pin_4*%
%TO.N,/HV_1A*%
X112268000Y-61777996D03*
%TD*%
D20*
%TO.P,F3,1*%
%TO.N,/IO3F*%
X179882500Y-52346250D03*
%TO.P,F3,2*%
%TO.N,Net-(F3-Pad2)*%
X178007500Y-52346250D03*
%TD*%
D15*
%TO.P,TP2,1,1*%
%TO.N,VDD*%
X148590000Y-53340000D03*
%TD*%
D18*
%TO.P,R5,1*%
%TO.N,/IN4*%
X172262800Y-54660800D03*
%TO.P,R5,2*%
%TO.N,Net-(D5-K)*%
X170437800Y-54660800D03*
%TD*%
D39*
%TO.N,GND*%
X172974000Y-43434000D03*
X183896000Y-48006000D03*
X168656000Y-56642000D03*
X163750000Y-50250000D03*
X175260000Y-60198000D03*
X166878000Y-41402000D03*
X141250000Y-50000000D03*
X176276000Y-37592000D03*
X142520000Y-50000000D03*
X165862000Y-37592000D03*
X151765000Y-41275000D03*
X184150000Y-41656000D03*
X141885000Y-49365000D03*
D40*
%TO.N,Net-(D2-K)*%
X174498000Y-42418000D03*
D39*
%TO.N,+3V3*%
X172085000Y-41275000D03*
X165608000Y-43180000D03*
X169418000Y-52324000D03*
X167894000Y-47498000D03*
X170815000Y-37480000D03*
X158115000Y-44450000D03*
D40*
%TO.N,Net-(TVS1-I{slash}O2)*%
X177038000Y-45212000D03*
%TO.N,Net-(TVS1-I{slash}O3)*%
X179832000Y-45720000D03*
%TO.N,Net-(D5-K)*%
X171450000Y-48260000D03*
%TO.N,Net-(D7-K)*%
X174244000Y-49022000D03*
%TO.N,/IN3*%
X177292000Y-49276000D03*
%TO.N,/IN4*%
X174548800Y-51968400D03*
X174498000Y-55372000D03*
%TO.N,/MOSI*%
X154305000Y-45070000D03*
X154940000Y-49530000D03*
%TO.N,/SSEL*%
X156210000Y-49530000D03*
X156210000Y-45705000D03*
%TO.N,/MISO*%
X158623000Y-50927000D03*
X167640000Y-46355000D03*
X161650000Y-47900000D03*
%TO.N,Net-(D4-K)*%
X174498000Y-38608000D03*
%TO.N,/IO3F*%
X181007500Y-52346250D03*
%TO.N,/IO4F*%
X181007500Y-54946250D03*
%TO.N,/O1*%
X156250000Y-41910000D03*
%TO.N,/O8*%
X148590000Y-36830000D03*
%TO.N,/O7*%
X149860000Y-36830000D03*
%TO.N,/O6*%
X151130000Y-36830000D03*
%TO.N,/O5*%
X152400000Y-36830000D03*
%TO.N,/O4*%
X153670000Y-36830000D03*
%TO.N,/O3*%
X154940000Y-36830000D03*
%TO.N,/O2*%
X156210000Y-36830000D03*
D39*
%TO.N,VDD*%
X165100000Y-57785000D03*
X165735000Y-59690000D03*
X165735000Y-58420000D03*
%TD*%
D41*
%TO.N,/HV_1A*%
X112261703Y-61784293D02*
X113545996Y-60500000D01*
X113545996Y-60500000D02*
X118000000Y-60500000D01*
%TO.N,/HV_2A*%
X112268000Y-49077996D02*
X113736004Y-49077996D01*
X117040000Y-44250000D02*
X118000000Y-44250000D01*
X113736004Y-49077996D02*
X115062000Y-47752000D01*
X115062000Y-47752000D02*
X115062000Y-46228000D01*
X115062000Y-46228000D02*
X117040000Y-44250000D01*
%TO.N,unconnected-(K1-Pad12)*%
X129830000Y-56750000D02*
X129830000Y-64250000D01*
%TO.N,unconnected-(K2-Pad12)*%
X129830000Y-40500000D02*
X129830000Y-48000000D01*
D42*
%TO.N,GND*%
X152000000Y-66000000D02*
X152000000Y-64223943D01*
D43*
%TO.N,Net-(D2-K)*%
X174625000Y-46505500D02*
X176379500Y-48260000D01*
X174625000Y-42545000D02*
X174625000Y-43180000D01*
X174625000Y-45085000D02*
X174625000Y-46505500D01*
X174625000Y-43180000D02*
X174625000Y-45085000D01*
X174498000Y-42418000D02*
X174625000Y-42545000D01*
D44*
%TO.N,+3V3*%
X170800000Y-37480000D02*
X168800000Y-37480000D01*
X172720000Y-36830000D02*
X171450000Y-36830000D01*
X166878000Y-47752000D02*
X166878000Y-48768000D01*
X171450000Y-36830000D02*
X170800000Y-37480000D01*
X169418000Y-51640500D02*
X169418000Y-52324000D01*
X154540000Y-63718000D02*
X153560000Y-62738000D01*
X165608000Y-43180000D02*
X166116000Y-43688000D01*
X154540000Y-66000000D02*
X154540000Y-63718000D01*
X165608000Y-39878000D02*
X168006000Y-37480000D01*
X157195000Y-43685000D02*
X157350000Y-43685000D01*
X167894000Y-47498000D02*
X167132000Y-47498000D01*
X157350000Y-43685000D02*
X158115000Y-44450000D01*
X165608000Y-43180000D02*
X165608000Y-39878000D01*
X168006000Y-37480000D02*
X168800000Y-37480000D01*
X166116000Y-43688000D02*
X166116000Y-46482000D01*
X167132000Y-47498000D02*
X166878000Y-47752000D01*
X172750000Y-42230000D02*
X172750000Y-41940000D01*
X166116000Y-46482000D02*
X167132000Y-47498000D01*
X172750000Y-41940000D02*
X172085000Y-41275000D01*
D45*
%TO.N,VBUS*%
X149460000Y-66000000D02*
X149460000Y-66655000D01*
D43*
X149460000Y-66000000D02*
X149460000Y-62890000D01*
D45*
X184785000Y-59655000D02*
X180661000Y-59655000D01*
X172542200Y-67945000D02*
X177800000Y-62687200D01*
X180661000Y-59655000D02*
X177800000Y-62516000D01*
X150750000Y-67945000D02*
X172542200Y-67945000D01*
X149460000Y-62890000D02*
X149500000Y-62850000D01*
X149460000Y-66655000D02*
X150750000Y-67945000D01*
X177800000Y-62687200D02*
X177800000Y-62516000D01*
D43*
%TO.N,Net-(TVS1-I{slash}O2)*%
X177038000Y-42060500D02*
X177038000Y-45212000D01*
X180086000Y-38783500D02*
X180086000Y-40894000D01*
X180086000Y-40894000D02*
X178204500Y-40894000D01*
X178204500Y-40894000D02*
X177038000Y-42060500D01*
D44*
%TO.N,/EIB_DC*%
X168525000Y-62615000D02*
X170942000Y-60198000D01*
X166105000Y-62615000D02*
X165735000Y-62245000D01*
X168275000Y-62615000D02*
X166105000Y-62615000D01*
X170942000Y-60198000D02*
X170942000Y-59563000D01*
X168220000Y-62670000D02*
X168275000Y-62615000D01*
X168275000Y-62615000D02*
X168525000Y-62615000D01*
D42*
X169780000Y-66000000D02*
X169780000Y-64530000D01*
X168275000Y-63025000D02*
X168275000Y-62615000D01*
X169780000Y-64530000D02*
X168275000Y-63025000D01*
D43*
%TO.N,Net-(F1-Pad2)*%
X178211000Y-37033500D02*
X178007500Y-36830000D01*
X178211000Y-38783500D02*
X178211000Y-37033500D01*
%TO.N,Net-(TVS1-I{slash}O3)*%
X180340000Y-46228000D02*
X179832000Y-45720000D01*
X180437000Y-46228000D02*
X180437000Y-47909000D01*
X180437000Y-46228000D02*
X180340000Y-46228000D01*
X178204500Y-48260000D02*
X180086000Y-48260000D01*
X180437000Y-47909000D02*
X180086000Y-48260000D01*
%TO.N,Net-(F2-Pad2)*%
X178562000Y-44577000D02*
X178308000Y-44323000D01*
X178562000Y-46228000D02*
X178562000Y-44577000D01*
%TO.N,Net-(D5-K)*%
X171069000Y-50466500D02*
X171293000Y-50690500D01*
X170437800Y-54660800D02*
X168706800Y-54660800D01*
X168656000Y-50292000D02*
X170894500Y-50292000D01*
X171069000Y-48641000D02*
X171450000Y-48260000D01*
X168148000Y-54102000D02*
X168148000Y-50800000D01*
X170894500Y-50292000D02*
X171293000Y-50690500D01*
X171069000Y-48791500D02*
X171069000Y-48641000D01*
X168148000Y-50800000D02*
X168656000Y-50292000D01*
X168706800Y-54660800D02*
X168148000Y-54102000D01*
X171069000Y-48791500D02*
X171069000Y-50466500D01*
%TO.N,Net-(F3-Pad2)*%
X177882500Y-52221250D02*
X178007500Y-52346250D01*
X177882500Y-50346250D02*
X177882500Y-52221250D01*
%TO.N,Net-(D7-K)*%
X174244000Y-49022000D02*
X174013500Y-48791500D01*
X174013500Y-48791500D02*
X173101000Y-48791500D01*
X171293000Y-52590500D02*
X171945500Y-52590500D01*
X173899000Y-50673000D02*
X173101000Y-49875000D01*
X171945500Y-52590500D02*
X173863000Y-50673000D01*
X174495000Y-50673000D02*
X173899000Y-50673000D01*
X173101000Y-48791500D02*
X173101000Y-49875000D01*
X173863000Y-50673000D02*
X173899000Y-50673000D01*
%TO.N,Net-(F4-Pad2)*%
X177870000Y-54358750D02*
X177882500Y-54346250D01*
X177870000Y-56346250D02*
X177870000Y-54358750D01*
%TO.N,/IN1*%
X180132500Y-36830000D02*
X183605919Y-36830000D01*
X183605919Y-36830000D02*
X186283600Y-39507681D01*
X186283600Y-39507681D02*
X186283600Y-39573200D01*
%TO.N,/IN2*%
X185033800Y-44323000D02*
X186283600Y-43073200D01*
X180433000Y-44323000D02*
X185033800Y-44323000D01*
%TO.N,/IN3*%
X176149000Y-50517250D02*
X176320000Y-50346250D01*
X177292000Y-49276000D02*
X176320000Y-50248000D01*
X176320000Y-50248000D02*
X176320000Y-50673000D01*
X176149000Y-52832000D02*
X176149000Y-50517250D01*
%TO.N,/IN4*%
X174548800Y-52400200D02*
X174117000Y-52832000D01*
X172262800Y-54559200D02*
X172262800Y-54660800D01*
X173990000Y-52832000D02*
X172262800Y-54559200D01*
X174498000Y-55372000D02*
X174548800Y-55321200D01*
X174548800Y-51968400D02*
X174548800Y-52400200D01*
X174117000Y-52832000D02*
X173990000Y-52832000D01*
X174548800Y-55321200D02*
X174548800Y-52400200D01*
%TO.N,/PWM*%
X157135000Y-63063000D02*
X157135000Y-65945000D01*
X156810000Y-62738000D02*
X157135000Y-63063000D01*
X157135000Y-65945000D02*
X157080000Y-66000000D01*
%TO.N,/MOSI*%
X159620000Y-66000000D02*
X159620000Y-62928000D01*
X159620000Y-62928000D02*
X159810000Y-62738000D01*
X158500000Y-61340000D02*
X158500000Y-53852000D01*
X159810000Y-62650000D02*
X158500000Y-61340000D01*
X154305000Y-44035000D02*
X154305000Y-45070000D01*
X159810000Y-62738000D02*
X159810000Y-62650000D01*
X154940000Y-50292000D02*
X154940000Y-49530000D01*
X154655000Y-43685000D02*
X154305000Y-44035000D01*
X158500000Y-53852000D02*
X154940000Y-50292000D01*
%TO.N,/SSEL*%
X158496000Y-45720000D02*
X161290000Y-42926000D01*
X162160000Y-66000000D02*
X162160000Y-62910000D01*
X159250000Y-53586000D02*
X156210000Y-50546000D01*
X159250000Y-60000000D02*
X159250000Y-53586000D01*
X162545000Y-37480000D02*
X163650000Y-37480000D01*
X161290000Y-38735000D02*
X161607500Y-38417500D01*
X153385000Y-43685000D02*
X153385000Y-45355000D01*
X160655000Y-37465000D02*
X161607500Y-38417500D01*
X153385000Y-45355000D02*
X153750000Y-45720000D01*
X161607500Y-38417500D02*
X162545000Y-37480000D01*
X153750000Y-45720000D02*
X158496000Y-45720000D01*
X162160000Y-62910000D02*
X159250000Y-60000000D01*
X161290000Y-42926000D02*
X161290000Y-38735000D01*
X156210000Y-50546000D02*
X156210000Y-49530000D01*
%TO.N,/MISO*%
X158623000Y-51943000D02*
X159885000Y-53205000D01*
X159885000Y-53205000D02*
X159885000Y-59365000D01*
X163250000Y-62730000D02*
X163250000Y-63500000D01*
X167640000Y-46355000D02*
X168785000Y-46355000D01*
X159885000Y-59365000D02*
X163250000Y-62730000D01*
X163250000Y-63500000D02*
X164700000Y-64950000D01*
X160750000Y-47000000D02*
X161650000Y-47900000D01*
X158623000Y-50927000D02*
X158623000Y-51943000D01*
X168785000Y-46355000D02*
X168800000Y-46370000D01*
X164700000Y-64950000D02*
X164700000Y-66000000D01*
%TO.N,/SCK*%
X166000000Y-64000000D02*
X164875000Y-64000000D01*
X161925000Y-39370000D02*
X161925000Y-43307000D01*
X152115000Y-43685000D02*
X150845000Y-43685000D01*
X160661000Y-49911000D02*
X159385000Y-49911000D01*
X164000000Y-63125000D02*
X164000000Y-62250000D01*
X152115000Y-45115000D02*
X152115000Y-43685000D01*
X167240000Y-66000000D02*
X167240000Y-65240000D01*
X162545000Y-38750000D02*
X161925000Y-39370000D01*
X163650000Y-38750000D02*
X162545000Y-38750000D01*
X159385000Y-49911000D02*
X159385000Y-50165000D01*
X167240000Y-65240000D02*
X166000000Y-64000000D01*
X153355000Y-46355000D02*
X152115000Y-45115000D01*
X159385000Y-51689000D02*
X159385000Y-50165000D01*
X159385000Y-50165000D02*
X159385000Y-46355000D01*
X160750000Y-50000000D02*
X160661000Y-49911000D01*
X159385000Y-45847000D02*
X159385000Y-46355000D01*
X164000000Y-62250000D02*
X160500000Y-58750000D01*
X160500000Y-52804000D02*
X159385000Y-51689000D01*
X164875000Y-64000000D02*
X164000000Y-63125000D01*
X161925000Y-43307000D02*
X159385000Y-45847000D01*
X159385000Y-46355000D02*
X153355000Y-46355000D01*
X160500000Y-58750000D02*
X160500000Y-52804000D01*
D41*
%TO.N,/HV_2A*%
X121500000Y-44250000D02*
X124540000Y-44250000D01*
X124790000Y-44500000D02*
X124790000Y-48000000D01*
D46*
X118000000Y-44250000D02*
X121500000Y-44250000D01*
D41*
X124790000Y-40500000D02*
X124790000Y-44500000D01*
X124540000Y-44250000D02*
X124790000Y-44500000D01*
%TO.N,/HV_1A*%
X124540000Y-60500000D02*
X124790000Y-60750000D01*
D46*
X118000000Y-60500000D02*
X121500000Y-60500000D01*
D41*
X121500000Y-60500000D02*
X124540000Y-60500000D01*
X124790000Y-60750000D02*
X124790000Y-64250000D01*
X124790000Y-56750000D02*
X124790000Y-60750000D01*
D43*
%TO.N,Net-(D4-K)*%
X176379500Y-40894000D02*
X175011000Y-40894000D01*
X175011000Y-40894000D02*
X174625000Y-41280000D01*
X174625000Y-41280000D02*
X174625000Y-39370000D01*
X174625000Y-38735000D02*
X174498000Y-38608000D01*
X174625000Y-39370000D02*
X174625000Y-38735000D01*
%TO.N,/IO3F*%
X179882500Y-52346250D02*
X181007500Y-52346250D01*
%TO.N,/IO4F*%
X181007500Y-54946250D02*
X181007500Y-55083750D01*
X181007500Y-55083750D02*
X179745000Y-56346250D01*
%TO.N,/IO3*%
X183780550Y-46573200D02*
X180007500Y-50346250D01*
X186283600Y-46573200D02*
X183780550Y-46573200D01*
%TO.N,/I1D*%
X168800000Y-40020000D02*
X172150000Y-40020000D01*
X172150000Y-40020000D02*
X172800000Y-39370000D01*
%TO.N,/I2D*%
X172800000Y-44385000D02*
X169705000Y-41290000D01*
X172800000Y-45085000D02*
X172800000Y-44385000D01*
X169705000Y-41290000D02*
X168800000Y-41290000D01*
%TO.N,/I3D*%
X169941000Y-42560000D02*
X171196000Y-43815000D01*
X171196000Y-45212000D02*
X172950500Y-46966500D01*
X172950500Y-46966500D02*
X173101000Y-46966500D01*
X171196000Y-43815000D02*
X171196000Y-45212000D01*
X168800000Y-42560000D02*
X169941000Y-42560000D01*
%TO.N,/I4D*%
X171069000Y-46101000D02*
X171069000Y-46966500D01*
X170535600Y-44602400D02*
X170535600Y-45567600D01*
X168800000Y-43830000D02*
X169763200Y-43830000D01*
X169763200Y-43830000D02*
X170535600Y-44602400D01*
X170535600Y-45567600D02*
X171069000Y-46101000D01*
%TO.N,/O1*%
X156250000Y-41910000D02*
X155925000Y-42235000D01*
X155925000Y-42235000D02*
X155925000Y-43685000D01*
%TO.N,/O8*%
X149575000Y-37815000D02*
X149575000Y-38735000D01*
X148590000Y-36830000D02*
X149575000Y-37815000D01*
%TO.N,/O7*%
X150845000Y-37815000D02*
X150845000Y-38735000D01*
X149860000Y-36830000D02*
X150845000Y-37815000D01*
%TO.N,/O6*%
X152115000Y-37815000D02*
X152115000Y-38735000D01*
X151130000Y-36830000D02*
X152115000Y-37815000D01*
%TO.N,/O5*%
X152400000Y-36830000D02*
X153385000Y-37815000D01*
X153385000Y-37815000D02*
X153385000Y-38735000D01*
%TO.N,/O4*%
X154655000Y-37815000D02*
X154655000Y-38735000D01*
X153670000Y-36830000D02*
X154655000Y-37815000D01*
%TO.N,/O3*%
X155925000Y-37815000D02*
X155925000Y-38735000D01*
X154940000Y-36830000D02*
X155925000Y-37815000D01*
%TO.N,/O2*%
X156210000Y-36830000D02*
X157195000Y-37815000D01*
X157195000Y-37815000D02*
X157195000Y-38735000D01*
%TO.N,/IO4*%
X182751197Y-53594000D02*
X186271997Y-50073200D01*
X186271997Y-50073200D02*
X186283600Y-50073200D01*
X180007500Y-54346250D02*
X180759750Y-53594000D01*
X180759750Y-53594000D02*
X182751197Y-53594000D01*
D44*
%TO.N,VDD*%
X149375000Y-57785000D02*
X148590000Y-57000000D01*
X153670000Y-57785000D02*
X149375000Y-57785000D01*
X148590000Y-53340000D02*
X148590000Y-52250000D01*
X145000000Y-44250000D02*
X145000000Y-44000000D01*
X148590000Y-47090000D02*
X148590000Y-53340000D01*
X165735000Y-60945000D02*
X165735000Y-58420000D01*
X145750000Y-44250000D02*
X148590000Y-47090000D01*
X148590000Y-57000000D02*
X148590000Y-56262651D01*
X145090000Y-44250000D02*
X145750000Y-44250000D01*
X145000000Y-52250000D02*
X148590000Y-52250000D01*
X165735000Y-58420000D02*
X165100000Y-57785000D01*
X145090000Y-60500000D02*
X148590000Y-57000000D01*
X148590000Y-56262651D02*
X148590000Y-53340000D01*
X165735000Y-59690000D02*
X168275000Y-59690000D01*
%TD*%
%TA.AperFunction,Conductor*%
%TO.N,/HV_2A*%
G36*
X116348059Y-45975061D02*
G01*
X116453223Y-45988906D01*
X116484491Y-45997284D01*
X116574918Y-46034740D01*
X116602952Y-46050925D01*
X116680602Y-46110509D01*
X116703491Y-46133398D01*
X116763074Y-46211048D01*
X116779259Y-46239081D01*
X116816715Y-46329508D01*
X116825093Y-46360775D01*
X116838939Y-46465939D01*
X116840000Y-46482125D01*
X116840000Y-50545874D01*
X116838939Y-50562060D01*
X116825093Y-50667224D01*
X116816715Y-50698491D01*
X116779259Y-50788918D01*
X116763074Y-50816951D01*
X116703491Y-50894601D01*
X116680601Y-50917491D01*
X116602951Y-50977074D01*
X116574918Y-50993259D01*
X116484491Y-51030715D01*
X116453224Y-51039093D01*
X116359398Y-51051446D01*
X116348058Y-51052939D01*
X116331874Y-51054000D01*
X109983919Y-51054000D01*
X109967697Y-51052934D01*
X109862302Y-51039026D01*
X109830971Y-51030611D01*
X109740376Y-50992992D01*
X109712299Y-50976738D01*
X109634560Y-50916904D01*
X109611662Y-50893924D01*
X109552106Y-50815975D01*
X109535952Y-50787842D01*
X109509301Y-50723017D01*
X109498652Y-50697114D01*
X109490349Y-50665759D01*
X109476813Y-50560293D01*
X109475806Y-50544094D01*
X109490206Y-46480333D01*
X109491319Y-46464193D01*
X109505475Y-46359297D01*
X109513923Y-46328140D01*
X109551540Y-46238002D01*
X109567749Y-46210080D01*
X109627364Y-46132720D01*
X109650236Y-46109928D01*
X109727812Y-46050583D01*
X109755789Y-46034475D01*
X109846062Y-45997176D01*
X109877248Y-45988840D01*
X109965056Y-45977306D01*
X109982193Y-45975056D01*
X109998341Y-45974000D01*
X116331874Y-45974000D01*
X116348059Y-45975061D01*
G37*
%TD.AperFunction*%
%TD*%
%TA.AperFunction,Conductor*%
%TO.N,/HV_1A*%
G36*
X116598846Y-59183068D02*
G01*
X116704449Y-59197028D01*
X116735826Y-59205472D01*
X116786291Y-59226470D01*
X116826564Y-59243228D01*
X116854673Y-59259537D01*
X116932481Y-59319573D01*
X116955389Y-59342629D01*
X117014921Y-59420820D01*
X117031051Y-59449037D01*
X117068218Y-59540007D01*
X117076462Y-59571447D01*
X117089741Y-59677130D01*
X117090705Y-59693388D01*
X117079252Y-61471127D01*
X117078096Y-61487239D01*
X117063689Y-61591891D01*
X117055178Y-61622986D01*
X117017437Y-61712869D01*
X117001199Y-61740718D01*
X116941569Y-61817829D01*
X116918699Y-61840552D01*
X116841203Y-61899687D01*
X116813250Y-61915746D01*
X116723134Y-61952904D01*
X116691984Y-61961215D01*
X116587235Y-61974948D01*
X116571116Y-61976000D01*
X115316000Y-61976000D01*
X115316000Y-62476000D01*
X115316000Y-62476006D01*
X115316000Y-64007874D01*
X115314939Y-64024060D01*
X115301093Y-64129224D01*
X115292715Y-64160491D01*
X115255259Y-64250918D01*
X115239074Y-64278951D01*
X115179491Y-64356601D01*
X115156601Y-64379491D01*
X115078951Y-64439074D01*
X115050918Y-64455259D01*
X114960491Y-64492715D01*
X114929224Y-64501093D01*
X114835398Y-64513446D01*
X114824058Y-64514939D01*
X114807874Y-64516000D01*
X109728126Y-64516000D01*
X109711941Y-64514939D01*
X109698917Y-64513224D01*
X109606775Y-64501093D01*
X109575508Y-64492715D01*
X109485081Y-64455259D01*
X109457048Y-64439074D01*
X109379398Y-64379491D01*
X109356508Y-64356601D01*
X109296925Y-64278951D01*
X109280740Y-64250918D01*
X109243284Y-64160491D01*
X109234906Y-64129223D01*
X109221061Y-64024059D01*
X109220000Y-64007874D01*
X109220000Y-59690125D01*
X109221061Y-59673940D01*
X109234906Y-59568776D01*
X109243284Y-59537508D01*
X109280740Y-59447081D01*
X109296923Y-59419050D01*
X109356513Y-59341392D01*
X109379392Y-59318513D01*
X109457050Y-59258923D01*
X109485079Y-59242740D01*
X109575509Y-59205283D01*
X109606775Y-59196906D01*
X109711941Y-59183061D01*
X109728126Y-59182000D01*
X116582611Y-59182000D01*
X116598846Y-59183068D01*
G37*
%TD.AperFunction*%
%TD*%
%TA.AperFunction,Conductor*%
%TO.N,GND*%
G36*
X148584549Y-35778127D02*
G01*
X148600035Y-35776781D01*
X149849965Y-35776781D01*
X149854549Y-35778127D01*
X149870035Y-35776781D01*
X151119965Y-35776781D01*
X151124549Y-35778127D01*
X151140035Y-35776781D01*
X152389965Y-35776781D01*
X152394549Y-35778127D01*
X152410035Y-35776781D01*
X153659965Y-35776781D01*
X153664549Y-35778127D01*
X153680035Y-35776781D01*
X154929965Y-35776781D01*
X154934549Y-35778127D01*
X154950035Y-35776781D01*
X156199965Y-35776781D01*
X156204549Y-35778127D01*
X156220035Y-35776781D01*
X171722692Y-35776781D01*
X171789731Y-35796466D01*
X171835486Y-35849270D01*
X171845430Y-35918428D01*
X171828238Y-35965866D01*
X171825328Y-35970585D01*
X171773385Y-36017316D01*
X171719782Y-36029500D01*
X171371155Y-36029500D01*
X171216510Y-36060261D01*
X171216498Y-36060264D01*
X171070827Y-36120602D01*
X171070814Y-36120609D01*
X170939711Y-36208210D01*
X170939707Y-36208213D01*
X170540395Y-36607525D01*
X170503151Y-36633123D01*
X170463667Y-36650703D01*
X170423068Y-36668779D01*
X170372633Y-36679500D01*
X167927155Y-36679500D01*
X167772510Y-36710261D01*
X167772498Y-36710264D01*
X167626823Y-36770604D01*
X167501266Y-36854498D01*
X167501266Y-36854499D01*
X167495711Y-36858211D01*
X167495707Y-36858214D01*
X165229469Y-39124452D01*
X165168146Y-39157937D01*
X165098454Y-39152953D01*
X165042521Y-39111081D01*
X165018104Y-39045617D01*
X165022000Y-39008897D01*
X165021460Y-39008799D01*
X165022598Y-39002567D01*
X165022839Y-38999501D01*
X165025500Y-38965694D01*
X165025500Y-38534306D01*
X165022598Y-38497431D01*
X165009208Y-38451344D01*
X164976745Y-38339606D01*
X164976744Y-38339603D01*
X164976744Y-38339602D01*
X164893081Y-38198135D01*
X164893078Y-38198132D01*
X164888298Y-38191969D01*
X164890750Y-38190066D01*
X164864155Y-38141421D01*
X164869104Y-38071726D01*
X164889940Y-38039304D01*
X164888298Y-38038031D01*
X164893075Y-38031870D01*
X164893081Y-38031865D01*
X164976744Y-37890398D01*
X165022598Y-37732569D01*
X165025500Y-37695694D01*
X165025500Y-37264306D01*
X165022598Y-37227431D01*
X165020688Y-37220858D01*
X164985310Y-37099085D01*
X164976744Y-37069602D01*
X164893081Y-36928135D01*
X164893079Y-36928133D01*
X164893076Y-36928129D01*
X164776870Y-36811923D01*
X164776862Y-36811917D01*
X164635396Y-36728255D01*
X164635393Y-36728254D01*
X164477573Y-36682402D01*
X164477567Y-36682401D01*
X164440701Y-36679500D01*
X164440694Y-36679500D01*
X162859306Y-36679500D01*
X162859298Y-36679500D01*
X162822432Y-36682401D01*
X162822426Y-36682402D01*
X162664606Y-36728254D01*
X162664603Y-36728255D01*
X162517926Y-36814999D01*
X162478997Y-36829884D01*
X162355261Y-36854497D01*
X162355255Y-36854499D01*
X162236875Y-36903533D01*
X162236866Y-36903538D01*
X162130331Y-36974723D01*
X162034469Y-37070585D01*
X161973145Y-37104069D01*
X161903454Y-37099085D01*
X161847521Y-37057213D01*
X161834406Y-37035308D01*
X161822257Y-37009254D01*
X161742102Y-36837362D01*
X161742100Y-36837359D01*
X161742099Y-36837357D01*
X161616599Y-36658124D01*
X161566000Y-36607525D01*
X161461877Y-36503402D01*
X161282639Y-36377898D01*
X161282640Y-36377898D01*
X161282638Y-36377897D01*
X161183484Y-36331661D01*
X161084330Y-36285425D01*
X161084326Y-36285424D01*
X161084322Y-36285422D01*
X160872977Y-36228793D01*
X160655002Y-36209723D01*
X160654998Y-36209723D01*
X160509682Y-36222436D01*
X160437023Y-36228793D01*
X160437020Y-36228793D01*
X160225677Y-36285422D01*
X160225668Y-36285426D01*
X160027361Y-36377898D01*
X160027357Y-36377900D01*
X159848121Y-36503402D01*
X159693402Y-36658121D01*
X159567900Y-36837357D01*
X159567898Y-36837361D01*
X159475426Y-37035668D01*
X159475422Y-37035677D01*
X159418793Y-37247020D01*
X159418793Y-37247023D01*
X159417730Y-37259174D01*
X159400177Y-37459816D01*
X159399723Y-37465000D01*
X159415873Y-37649606D01*
X159418793Y-37682975D01*
X159418793Y-37682979D01*
X159475422Y-37894322D01*
X159475424Y-37894326D01*
X159475425Y-37894330D01*
X159505496Y-37958817D01*
X159567897Y-38092638D01*
X159583555Y-38115000D01*
X159693402Y-38271877D01*
X159848123Y-38426598D01*
X160027361Y-38552102D01*
X160225670Y-38644575D01*
X160437023Y-38701207D01*
X160526308Y-38709017D01*
X160591375Y-38734468D01*
X160632354Y-38791059D01*
X160639500Y-38832545D01*
X160639500Y-42605191D01*
X160619815Y-42672230D01*
X160603181Y-42692872D01*
X159152005Y-44144047D01*
X159090682Y-44177532D01*
X159020990Y-44172548D01*
X158965057Y-44130676D01*
X158946393Y-44094685D01*
X158942180Y-44081719D01*
X158942179Y-44081718D01*
X158942179Y-44081716D01*
X158847533Y-43917784D01*
X158720871Y-43777112D01*
X158715092Y-43772913D01*
X158567734Y-43665851D01*
X158567729Y-43665848D01*
X158399809Y-43591084D01*
X158362564Y-43565486D01*
X158031819Y-43234741D01*
X157998334Y-43173418D01*
X157995500Y-43147060D01*
X157995500Y-42794313D01*
X157995499Y-42794298D01*
X157995497Y-42794277D01*
X157992598Y-42757431D01*
X157946744Y-42599602D01*
X157863081Y-42458135D01*
X157863079Y-42458133D01*
X157863076Y-42458129D01*
X157746870Y-42341923D01*
X157746862Y-42341917D01*
X157605396Y-42258255D01*
X157605393Y-42258254D01*
X157447573Y-42212402D01*
X157447567Y-42212401D01*
X157410701Y-42209500D01*
X157410694Y-42209500D01*
X157160576Y-42209500D01*
X157093537Y-42189815D01*
X157047782Y-42137011D01*
X157037356Y-42071617D01*
X157055565Y-41910003D01*
X157055565Y-41909996D01*
X157035369Y-41730750D01*
X157035368Y-41730745D01*
X157021889Y-41692224D01*
X156975789Y-41560478D01*
X156965749Y-41544500D01*
X156879815Y-41407737D01*
X156752262Y-41280184D01*
X156599523Y-41184211D01*
X156429254Y-41124631D01*
X156429249Y-41124630D01*
X156250004Y-41104435D01*
X156249996Y-41104435D01*
X156070750Y-41124630D01*
X156070745Y-41124631D01*
X155900476Y-41184211D01*
X155747737Y-41280184D01*
X155620184Y-41407737D01*
X155524210Y-41560478D01*
X155464632Y-41730744D01*
X155464630Y-41730752D01*
X155463815Y-41737988D01*
X155436743Y-41802400D01*
X155428281Y-41811772D01*
X155419724Y-41820328D01*
X155419724Y-41820329D01*
X155355975Y-41915736D01*
X155355976Y-41915737D01*
X155348533Y-41926875D01*
X155299499Y-42045255D01*
X155299497Y-42045261D01*
X155274500Y-42170926D01*
X155273932Y-42176697D01*
X155247770Y-42241483D01*
X155190734Y-42281841D01*
X155120934Y-42284957D01*
X155087410Y-42271274D01*
X155065393Y-42258253D01*
X154907573Y-42212402D01*
X154907567Y-42212401D01*
X154870701Y-42209500D01*
X154870694Y-42209500D01*
X154439306Y-42209500D01*
X154439298Y-42209500D01*
X154402432Y-42212401D01*
X154402426Y-42212402D01*
X154244606Y-42258254D01*
X154244603Y-42258255D01*
X154103137Y-42341917D01*
X154096969Y-42346702D01*
X154095072Y-42344256D01*
X154046358Y-42370857D01*
X153976666Y-42365873D01*
X153944296Y-42345069D01*
X153943031Y-42346702D01*
X153936862Y-42341917D01*
X153795396Y-42258255D01*
X153795393Y-42258254D01*
X153637573Y-42212402D01*
X153637567Y-42212401D01*
X153600701Y-42209500D01*
X153600694Y-42209500D01*
X153169306Y-42209500D01*
X153169298Y-42209500D01*
X153132432Y-42212401D01*
X153132426Y-42212402D01*
X152974606Y-42258254D01*
X152974603Y-42258255D01*
X152833137Y-42341917D01*
X152826969Y-42346702D01*
X152825072Y-42344256D01*
X152776358Y-42370857D01*
X152706666Y-42365873D01*
X152674296Y-42345069D01*
X152673031Y-42346702D01*
X152666862Y-42341917D01*
X152525396Y-42258255D01*
X152525393Y-42258254D01*
X152367573Y-42212402D01*
X152367567Y-42212401D01*
X152330701Y-42209500D01*
X152330694Y-42209500D01*
X151899306Y-42209500D01*
X151899298Y-42209500D01*
X151862432Y-42212401D01*
X151862426Y-42212402D01*
X151704606Y-42258254D01*
X151704603Y-42258255D01*
X151563137Y-42341917D01*
X151556969Y-42346702D01*
X151555072Y-42344256D01*
X151506358Y-42370857D01*
X151436666Y-42365873D01*
X151404296Y-42345069D01*
X151403031Y-42346702D01*
X151396862Y-42341917D01*
X151255396Y-42258255D01*
X151255393Y-42258254D01*
X151097573Y-42212402D01*
X151097567Y-42212401D01*
X151060701Y-42209500D01*
X151060694Y-42209500D01*
X150629306Y-42209500D01*
X150629298Y-42209500D01*
X150592432Y-42212401D01*
X150592426Y-42212402D01*
X150434606Y-42258254D01*
X150434603Y-42258255D01*
X150293137Y-42341917D01*
X150286969Y-42346702D01*
X150285072Y-42344256D01*
X150236358Y-42370857D01*
X150166666Y-42365873D01*
X150134296Y-42345069D01*
X150133031Y-42346702D01*
X150126862Y-42341917D01*
X149985396Y-42258255D01*
X149985393Y-42258254D01*
X149827573Y-42212402D01*
X149827567Y-42212401D01*
X149790701Y-42209500D01*
X149790694Y-42209500D01*
X149359306Y-42209500D01*
X149359298Y-42209500D01*
X149322432Y-42212401D01*
X149322426Y-42212402D01*
X149164606Y-42258254D01*
X149164603Y-42258255D01*
X149023137Y-42341917D01*
X149016969Y-42346702D01*
X149015072Y-42344256D01*
X148966358Y-42370857D01*
X148896666Y-42365873D01*
X148864296Y-42345069D01*
X148863031Y-42346702D01*
X148856862Y-42341917D01*
X148715396Y-42258255D01*
X148715393Y-42258254D01*
X148557573Y-42212402D01*
X148557567Y-42212401D01*
X148520701Y-42209500D01*
X148520694Y-42209500D01*
X148089306Y-42209500D01*
X148089298Y-42209500D01*
X148052432Y-42212401D01*
X148052426Y-42212402D01*
X147894606Y-42258254D01*
X147894603Y-42258255D01*
X147753137Y-42341917D01*
X147753129Y-42341923D01*
X147636923Y-42458129D01*
X147636917Y-42458137D01*
X147553255Y-42599603D01*
X147553254Y-42599606D01*
X147507402Y-42757426D01*
X147507401Y-42757432D01*
X147504500Y-42794298D01*
X147504500Y-44573059D01*
X147484815Y-44640098D01*
X147432011Y-44685853D01*
X147362853Y-44695797D01*
X147299297Y-44666772D01*
X147292819Y-44660740D01*
X147122824Y-44490746D01*
X147089339Y-44429423D01*
X147088033Y-44383666D01*
X147090500Y-44368092D01*
X147090500Y-44131908D01*
X147090500Y-44131902D01*
X147053553Y-43898631D01*
X147012704Y-43772913D01*
X146980568Y-43674008D01*
X146980566Y-43674005D01*
X146980566Y-43674003D01*
X146902559Y-43520907D01*
X146873343Y-43463567D01*
X146734517Y-43272490D01*
X146567510Y-43105483D01*
X146376433Y-42966657D01*
X146299448Y-42927431D01*
X146165996Y-42859433D01*
X145941368Y-42786446D01*
X145708097Y-42749500D01*
X145708092Y-42749500D01*
X144471908Y-42749500D01*
X144471903Y-42749500D01*
X144238631Y-42786446D01*
X144014003Y-42859433D01*
X143803566Y-42966657D01*
X143715695Y-43030500D01*
X143612490Y-43105483D01*
X143612488Y-43105485D01*
X143612487Y-43105485D01*
X143445485Y-43272487D01*
X143445485Y-43272488D01*
X143445483Y-43272490D01*
X143419092Y-43308814D01*
X143306657Y-43463566D01*
X143199433Y-43674003D01*
X143126446Y-43898631D01*
X143089500Y-44131902D01*
X143089500Y-44368097D01*
X143126446Y-44601368D01*
X143199433Y-44825996D01*
X143292909Y-45009451D01*
X143306657Y-45036433D01*
X143445483Y-45227510D01*
X143612490Y-45394517D01*
X143803567Y-45533343D01*
X143874788Y-45569632D01*
X144014003Y-45640566D01*
X144014005Y-45640566D01*
X144014008Y-45640568D01*
X144132883Y-45679193D01*
X144238631Y-45713553D01*
X144471903Y-45750500D01*
X144471908Y-45750500D01*
X145708097Y-45750500D01*
X145837689Y-45729973D01*
X145941368Y-45713553D01*
X145974846Y-45702674D01*
X146044686Y-45700678D01*
X146100846Y-45732924D01*
X147753181Y-47385259D01*
X147786666Y-47446582D01*
X147789500Y-47472940D01*
X147789500Y-51325500D01*
X147769815Y-51392539D01*
X147717011Y-51438294D01*
X147665500Y-51449500D01*
X146213733Y-51449500D01*
X146146694Y-51429815D01*
X146100939Y-51377011D01*
X146096028Y-51364506D01*
X146091495Y-51350829D01*
X146084814Y-51330666D01*
X145992712Y-51181344D01*
X145868656Y-51057288D01*
X145719334Y-50965186D01*
X145552797Y-50910001D01*
X145552795Y-50910000D01*
X145450010Y-50899500D01*
X144549998Y-50899500D01*
X144549980Y-50899501D01*
X144447203Y-50910000D01*
X144447200Y-50910001D01*
X144280668Y-50965185D01*
X144280663Y-50965187D01*
X144131342Y-51057289D01*
X144007289Y-51181342D01*
X143915187Y-51330663D01*
X143915185Y-51330668D01*
X143899829Y-51377011D01*
X143860001Y-51497203D01*
X143860001Y-51497204D01*
X143860000Y-51497204D01*
X143849500Y-51599983D01*
X143849500Y-52900001D01*
X143849501Y-52900018D01*
X143860000Y-53002796D01*
X143860001Y-53002799D01*
X143915185Y-53169331D01*
X143915187Y-53169336D01*
X143925039Y-53185308D01*
X144007288Y-53318656D01*
X144131344Y-53442712D01*
X144280666Y-53534814D01*
X144447203Y-53589999D01*
X144549991Y-53600500D01*
X145450008Y-53600499D01*
X145450016Y-53600498D01*
X145450019Y-53600498D01*
X145506302Y-53594748D01*
X145552797Y-53589999D01*
X145719334Y-53534814D01*
X145868656Y-53442712D01*
X145992712Y-53318656D01*
X146084814Y-53169334D01*
X146093749Y-53142370D01*
X146096028Y-53135494D01*
X146135801Y-53078050D01*
X146200317Y-53051228D01*
X146213733Y-53050500D01*
X147224729Y-53050500D01*
X147291768Y-53070185D01*
X147337523Y-53122989D01*
X147348256Y-53185305D01*
X147334723Y-53340000D01*
X147353112Y-53550198D01*
X147353793Y-53557975D01*
X147353793Y-53557979D01*
X147410422Y-53769322D01*
X147410424Y-53769326D01*
X147410425Y-53769330D01*
X147445079Y-53843646D01*
X147502897Y-53967638D01*
X147513479Y-53982750D01*
X147628402Y-54146877D01*
X147628406Y-54146881D01*
X147753181Y-54271656D01*
X147786666Y-54332979D01*
X147789500Y-54359337D01*
X147789500Y-56617059D01*
X147769815Y-56684098D01*
X147753181Y-56704740D01*
X147302180Y-57155741D01*
X147240857Y-57189226D01*
X147171165Y-57184242D01*
X147115232Y-57142370D01*
X147090815Y-57076906D01*
X147090499Y-57068060D01*
X147090499Y-55702129D01*
X147090498Y-55702123D01*
X147090497Y-55702116D01*
X147084091Y-55642517D01*
X147061276Y-55581348D01*
X147033797Y-55507671D01*
X147033793Y-55507664D01*
X146947547Y-55392455D01*
X146947544Y-55392452D01*
X146832335Y-55306206D01*
X146832328Y-55306202D01*
X146697482Y-55255908D01*
X146697483Y-55255908D01*
X146637883Y-55249501D01*
X146637881Y-55249500D01*
X146637873Y-55249500D01*
X146637864Y-55249500D01*
X143542129Y-55249500D01*
X143542123Y-55249501D01*
X143482516Y-55255908D01*
X143347671Y-55306202D01*
X143347664Y-55306206D01*
X143232455Y-55392452D01*
X143232452Y-55392455D01*
X143146206Y-55507664D01*
X143146202Y-55507671D01*
X143095908Y-55642517D01*
X143092351Y-55675606D01*
X143089501Y-55702123D01*
X143089500Y-55702135D01*
X143089500Y-57797870D01*
X143089501Y-57797876D01*
X143095908Y-57857483D01*
X143146202Y-57992328D01*
X143146206Y-57992335D01*
X143232452Y-58107544D01*
X143232455Y-58107547D01*
X143347664Y-58193793D01*
X143347671Y-58193797D01*
X143482517Y-58244091D01*
X143482516Y-58244091D01*
X143489444Y-58244835D01*
X143542127Y-58250500D01*
X145908060Y-58250499D01*
X145975099Y-58270184D01*
X146020854Y-58322987D01*
X146030798Y-58392146D01*
X146001773Y-58455702D01*
X145995741Y-58462180D01*
X145494741Y-58963181D01*
X145433418Y-58996666D01*
X145407060Y-58999500D01*
X144471903Y-58999500D01*
X144238631Y-59036446D01*
X144014003Y-59109433D01*
X143803566Y-59216657D01*
X143694550Y-59295862D01*
X143612490Y-59355483D01*
X143612488Y-59355485D01*
X143612487Y-59355485D01*
X143445485Y-59522487D01*
X143445485Y-59522488D01*
X143445483Y-59522490D01*
X143429290Y-59544778D01*
X143306657Y-59713566D01*
X143199433Y-59924003D01*
X143126446Y-60148631D01*
X143089500Y-60381902D01*
X143089500Y-60618097D01*
X143126446Y-60851368D01*
X143199433Y-61075996D01*
X143260918Y-61196666D01*
X143306657Y-61286433D01*
X143445483Y-61477510D01*
X143612490Y-61644517D01*
X143803567Y-61783343D01*
X143864716Y-61814500D01*
X144014003Y-61890566D01*
X144014005Y-61890566D01*
X144014008Y-61890568D01*
X144134412Y-61929689D01*
X144238631Y-61963553D01*
X144471903Y-62000500D01*
X144471908Y-62000500D01*
X145708097Y-62000500D01*
X145941368Y-61963553D01*
X146165992Y-61890568D01*
X146376433Y-61783343D01*
X146567510Y-61644517D01*
X146734517Y-61477510D01*
X146873343Y-61286433D01*
X146980568Y-61075992D01*
X147053553Y-60851368D01*
X147056749Y-60831187D01*
X147090500Y-60618097D01*
X147090500Y-60381902D01*
X147053553Y-60148631D01*
X147005651Y-60001206D01*
X146980568Y-59924008D01*
X146980565Y-59924004D01*
X146980565Y-59924001D01*
X146959868Y-59883382D01*
X146946971Y-59814713D01*
X146973246Y-59749972D01*
X146982662Y-59739414D01*
X148502320Y-58219757D01*
X148563641Y-58186274D01*
X148633333Y-58191258D01*
X148677680Y-58219759D01*
X148864707Y-58406786D01*
X148864711Y-58406789D01*
X148995814Y-58494390D01*
X148995818Y-58494392D01*
X148995821Y-58494394D01*
X149141503Y-58554738D01*
X149296153Y-58585499D01*
X149296157Y-58585500D01*
X149296158Y-58585500D01*
X152253023Y-58585500D01*
X152320062Y-58605185D01*
X152365817Y-58657989D01*
X152373266Y-58685134D01*
X152374124Y-58684932D01*
X152375907Y-58692479D01*
X152426202Y-58827328D01*
X152426206Y-58827335D01*
X152512452Y-58942544D01*
X152512455Y-58942547D01*
X152627664Y-59028793D01*
X152627671Y-59028797D01*
X152762517Y-59079091D01*
X152762516Y-59079091D01*
X152769444Y-59079835D01*
X152822127Y-59085500D01*
X154517872Y-59085499D01*
X154577483Y-59079091D01*
X154712331Y-59028796D01*
X154827546Y-58942546D01*
X154913796Y-58827331D01*
X154964091Y-58692483D01*
X154970500Y-58632873D01*
X154970499Y-56937128D01*
X154964091Y-56877517D01*
X154954610Y-56852098D01*
X154913797Y-56742671D01*
X154913793Y-56742664D01*
X154827547Y-56627455D01*
X154827544Y-56627452D01*
X154712335Y-56541206D01*
X154712328Y-56541202D01*
X154577482Y-56490908D01*
X154577483Y-56490908D01*
X154517883Y-56484501D01*
X154517881Y-56484500D01*
X154517873Y-56484500D01*
X154517864Y-56484500D01*
X152822129Y-56484500D01*
X152822123Y-56484501D01*
X152762516Y-56490908D01*
X152627671Y-56541202D01*
X152627664Y-56541206D01*
X152512455Y-56627452D01*
X152512452Y-56627455D01*
X152426206Y-56742664D01*
X152426202Y-56742671D01*
X152375908Y-56877517D01*
X152374126Y-56885062D01*
X152371853Y-56884525D01*
X152349571Y-56938312D01*
X152292177Y-56978157D01*
X152253024Y-56984500D01*
X149757940Y-56984500D01*
X149690901Y-56964815D01*
X149670259Y-56948181D01*
X149426819Y-56704741D01*
X149393334Y-56643418D01*
X149390500Y-56617060D01*
X149390500Y-54359337D01*
X149410185Y-54292298D01*
X149416064Y-54285002D01*
X152365034Y-54285002D01*
X152384858Y-54511599D01*
X152384860Y-54511610D01*
X152443730Y-54731317D01*
X152443735Y-54731331D01*
X152539863Y-54937478D01*
X152590974Y-55010472D01*
X153270000Y-54331446D01*
X153270000Y-54337661D01*
X153297259Y-54439394D01*
X153349920Y-54530606D01*
X153424394Y-54605080D01*
X153515606Y-54657741D01*
X153617339Y-54685000D01*
X153623553Y-54685000D01*
X152944526Y-55364025D01*
X153017513Y-55415132D01*
X153017521Y-55415136D01*
X153223668Y-55511264D01*
X153223682Y-55511269D01*
X153443389Y-55570139D01*
X153443400Y-55570141D01*
X153669998Y-55589966D01*
X153670002Y-55589966D01*
X153896599Y-55570141D01*
X153896610Y-55570139D01*
X154116317Y-55511269D01*
X154116331Y-55511264D01*
X154322478Y-55415136D01*
X154395471Y-55364024D01*
X153716447Y-54685000D01*
X153722661Y-54685000D01*
X153824394Y-54657741D01*
X153915606Y-54605080D01*
X153990080Y-54530606D01*
X154042741Y-54439394D01*
X154070000Y-54337661D01*
X154070000Y-54331447D01*
X154749024Y-55010471D01*
X154800136Y-54937478D01*
X154896264Y-54731331D01*
X154896269Y-54731317D01*
X154955139Y-54511610D01*
X154955141Y-54511599D01*
X154974966Y-54285002D01*
X154974966Y-54284997D01*
X154955141Y-54058400D01*
X154955139Y-54058389D01*
X154896269Y-53838682D01*
X154896264Y-53838668D01*
X154800136Y-53632521D01*
X154800132Y-53632513D01*
X154749025Y-53559526D01*
X154070000Y-54238551D01*
X154070000Y-54232339D01*
X154042741Y-54130606D01*
X153990080Y-54039394D01*
X153915606Y-53964920D01*
X153824394Y-53912259D01*
X153722661Y-53885000D01*
X153716448Y-53885000D01*
X154395472Y-53205974D01*
X154322478Y-53154863D01*
X154116331Y-53058735D01*
X154116317Y-53058730D01*
X153896610Y-52999860D01*
X153896599Y-52999858D01*
X153670002Y-52980034D01*
X153669998Y-52980034D01*
X153443400Y-52999858D01*
X153443389Y-52999860D01*
X153223682Y-53058730D01*
X153223673Y-53058734D01*
X153017516Y-53154866D01*
X153017512Y-53154868D01*
X152944526Y-53205973D01*
X152944526Y-53205974D01*
X153623553Y-53885000D01*
X153617339Y-53885000D01*
X153515606Y-53912259D01*
X153424394Y-53964920D01*
X153349920Y-54039394D01*
X153297259Y-54130606D01*
X153270000Y-54232339D01*
X153270000Y-54238552D01*
X152590974Y-53559526D01*
X152590973Y-53559526D01*
X152539868Y-53632512D01*
X152539866Y-53632516D01*
X152443734Y-53838673D01*
X152443730Y-53838682D01*
X152384860Y-54058389D01*
X152384858Y-54058400D01*
X152365034Y-54284997D01*
X152365034Y-54285002D01*
X149416064Y-54285002D01*
X149426819Y-54271656D01*
X149478975Y-54219500D01*
X149551598Y-54146877D01*
X149677102Y-53967639D01*
X149769575Y-53769330D01*
X149826207Y-53557977D01*
X149845277Y-53340000D01*
X149843409Y-53318653D01*
X149838913Y-53267254D01*
X149826207Y-53122023D01*
X149778372Y-52943500D01*
X149769577Y-52910677D01*
X149769576Y-52910676D01*
X149769575Y-52910670D01*
X149677102Y-52712362D01*
X149677100Y-52712359D01*
X149677099Y-52712357D01*
X149551597Y-52533121D01*
X149426819Y-52408343D01*
X149393334Y-52347020D01*
X149390500Y-52320662D01*
X149390500Y-47011158D01*
X149385868Y-46987870D01*
X149385868Y-46987868D01*
X149385868Y-46987867D01*
X149360668Y-46861179D01*
X149359738Y-46856503D01*
X149299394Y-46710821D01*
X149299392Y-46710818D01*
X149299390Y-46710814D01*
X149211789Y-46579711D01*
X149211786Y-46579707D01*
X148004259Y-45372181D01*
X147970774Y-45310858D01*
X147975758Y-45241166D01*
X148017630Y-45185233D01*
X148083094Y-45160816D01*
X148091940Y-45160500D01*
X148520686Y-45160500D01*
X148520694Y-45160500D01*
X148557569Y-45157598D01*
X148557571Y-45157597D01*
X148557573Y-45157597D01*
X148599191Y-45145505D01*
X148715398Y-45111744D01*
X148856865Y-45028081D01*
X148856870Y-45028075D01*
X148863031Y-45023298D01*
X148864933Y-45025750D01*
X148913579Y-44999155D01*
X148983274Y-45004104D01*
X149015695Y-45024940D01*
X149016969Y-45023298D01*
X149023132Y-45028078D01*
X149023135Y-45028081D01*
X149164602Y-45111744D01*
X149206224Y-45123836D01*
X149322426Y-45157597D01*
X149322429Y-45157597D01*
X149322431Y-45157598D01*
X149359306Y-45160500D01*
X149359314Y-45160500D01*
X149790686Y-45160500D01*
X149790694Y-45160500D01*
X149827569Y-45157598D01*
X149827571Y-45157597D01*
X149827573Y-45157597D01*
X149869191Y-45145505D01*
X149985398Y-45111744D01*
X150126865Y-45028081D01*
X150126870Y-45028075D01*
X150133031Y-45023298D01*
X150134933Y-45025750D01*
X150183579Y-44999155D01*
X150253274Y-45004104D01*
X150285695Y-45024940D01*
X150286969Y-45023298D01*
X150293132Y-45028078D01*
X150293135Y-45028081D01*
X150434602Y-45111744D01*
X150476224Y-45123836D01*
X150592426Y-45157597D01*
X150592429Y-45157597D01*
X150592431Y-45157598D01*
X150629306Y-45160500D01*
X150629314Y-45160500D01*
X151060686Y-45160500D01*
X151060694Y-45160500D01*
X151097569Y-45157598D01*
X151097571Y-45157597D01*
X151097573Y-45157597D01*
X151139191Y-45145505D01*
X151255398Y-45111744D01*
X151279904Y-45097250D01*
X151347628Y-45080067D01*
X151413891Y-45102226D01*
X151457654Y-45156692D01*
X151464643Y-45179790D01*
X151471051Y-45212003D01*
X151483795Y-45276069D01*
X151489499Y-45304744D01*
X151538535Y-45423127D01*
X151596847Y-45510398D01*
X151609726Y-45529673D01*
X152940326Y-46860273D01*
X152940329Y-46860275D01*
X152940331Y-46860277D01*
X153046873Y-46931465D01*
X153165256Y-46980501D01*
X153165260Y-46980501D01*
X153165261Y-46980502D01*
X153290928Y-47005500D01*
X153290931Y-47005500D01*
X158610500Y-47005500D01*
X158677539Y-47025185D01*
X158723294Y-47077989D01*
X158734500Y-47129500D01*
X158734500Y-49998058D01*
X158714815Y-50065097D01*
X158662011Y-50110852D01*
X158624384Y-50121278D01*
X158443749Y-50141630D01*
X158443745Y-50141631D01*
X158273476Y-50201211D01*
X158120737Y-50297184D01*
X157993184Y-50424737D01*
X157897211Y-50577476D01*
X157837631Y-50747745D01*
X157837630Y-50747750D01*
X157817435Y-50926996D01*
X157817435Y-50933964D01*
X157814347Y-50933964D01*
X157804436Y-50989457D01*
X157756916Y-51040677D01*
X157689247Y-51058076D01*
X157622914Y-51036127D01*
X157605774Y-51021828D01*
X156896819Y-50312873D01*
X156863334Y-50251550D01*
X156860500Y-50225192D01*
X156860500Y-50035067D01*
X156879507Y-49969094D01*
X156935788Y-49879524D01*
X156939914Y-49867732D01*
X156995368Y-49709255D01*
X156999982Y-49668307D01*
X157015565Y-49530003D01*
X157015565Y-49529996D01*
X156995369Y-49350750D01*
X156995368Y-49350745D01*
X156992522Y-49342611D01*
X156935789Y-49180478D01*
X156839816Y-49027738D01*
X156712262Y-48900184D01*
X156559523Y-48804211D01*
X156389254Y-48744631D01*
X156389249Y-48744630D01*
X156210004Y-48724435D01*
X156209996Y-48724435D01*
X156030750Y-48744630D01*
X156030745Y-48744631D01*
X155860476Y-48804211D01*
X155707737Y-48900184D01*
X155662680Y-48945241D01*
X155601357Y-48978725D01*
X155531665Y-48973740D01*
X155487320Y-48945241D01*
X155442263Y-48900185D01*
X155442262Y-48900184D01*
X155289523Y-48804211D01*
X155119254Y-48744631D01*
X155119249Y-48744630D01*
X154940004Y-48724435D01*
X154939996Y-48724435D01*
X154760750Y-48744630D01*
X154760745Y-48744631D01*
X154590476Y-48804211D01*
X154437737Y-48900184D01*
X154310184Y-49027737D01*
X154214211Y-49180476D01*
X154154631Y-49350745D01*
X154154630Y-49350750D01*
X154134435Y-49529996D01*
X154134435Y-49530003D01*
X154154630Y-49709249D01*
X154154631Y-49709254D01*
X154214211Y-49879524D01*
X154270493Y-49969094D01*
X154289500Y-50035067D01*
X154289500Y-50356071D01*
X154312785Y-50473127D01*
X154312786Y-50473130D01*
X154314499Y-50481743D01*
X154314499Y-50481744D01*
X154354152Y-50577476D01*
X154363535Y-50600127D01*
X154429154Y-50698334D01*
X154434726Y-50706673D01*
X154434727Y-50706674D01*
X157813181Y-54085127D01*
X157846666Y-54146450D01*
X157849500Y-54172808D01*
X157849500Y-61404069D01*
X157849500Y-61404071D01*
X157849499Y-61404071D01*
X157871229Y-61513306D01*
X157871940Y-61516879D01*
X157874499Y-61529744D01*
X157923535Y-61648127D01*
X157956276Y-61697128D01*
X157994726Y-61754673D01*
X157994727Y-61754674D01*
X158562536Y-62322482D01*
X158596021Y-62383805D01*
X158594630Y-62442256D01*
X158573793Y-62520020D01*
X158573793Y-62520024D01*
X158554723Y-62737997D01*
X158554723Y-62738002D01*
X158573793Y-62955975D01*
X158573793Y-62955979D01*
X158630422Y-63167322D01*
X158630424Y-63167326D01*
X158630425Y-63167330D01*
X158649253Y-63207707D01*
X158722897Y-63365638D01*
X158722898Y-63365639D01*
X158848402Y-63544877D01*
X158848406Y-63544881D01*
X158933181Y-63629656D01*
X158966666Y-63690979D01*
X158969500Y-63717337D01*
X158969500Y-64742278D01*
X158949815Y-64809317D01*
X158916623Y-64843853D01*
X158748597Y-64961505D01*
X158581505Y-65128597D01*
X158451575Y-65314158D01*
X158396998Y-65357783D01*
X158327500Y-65364977D01*
X158265145Y-65333454D01*
X158248425Y-65314158D01*
X158118494Y-65128597D01*
X157951404Y-64961508D01*
X157951402Y-64961506D01*
X157951401Y-64961505D01*
X157951396Y-64961501D01*
X157951393Y-64961499D01*
X157838376Y-64882362D01*
X157794751Y-64827785D01*
X157785500Y-64780788D01*
X157785500Y-63564119D01*
X157805185Y-63497080D01*
X157807908Y-63493019D01*
X157897102Y-63365639D01*
X157989575Y-63167330D01*
X158046207Y-62955977D01*
X158065277Y-62738000D01*
X158046207Y-62520023D01*
X158009707Y-62383805D01*
X157989577Y-62308677D01*
X157989576Y-62308676D01*
X157989575Y-62308670D01*
X157897102Y-62110362D01*
X157897100Y-62110359D01*
X157897099Y-62110357D01*
X157771599Y-61931124D01*
X157731041Y-61890566D01*
X157616877Y-61776402D01*
X157437639Y-61650898D01*
X157437640Y-61650898D01*
X157437638Y-61650897D01*
X157317765Y-61595000D01*
X157239330Y-61558425D01*
X157239326Y-61558424D01*
X157239322Y-61558422D01*
X157027977Y-61501793D01*
X156810002Y-61482723D01*
X156809998Y-61482723D01*
X156693833Y-61492886D01*
X156592023Y-61501793D01*
X156592020Y-61501793D01*
X156380677Y-61558422D01*
X156380668Y-61558426D01*
X156182361Y-61650898D01*
X156182357Y-61650900D01*
X156003121Y-61776402D01*
X155848402Y-61931121D01*
X155722900Y-62110357D01*
X155722898Y-62110361D01*
X155630426Y-62308668D01*
X155630422Y-62308677D01*
X155573793Y-62520020D01*
X155573793Y-62520024D01*
X155554723Y-62737997D01*
X155554723Y-62738002D01*
X155573793Y-62955975D01*
X155573793Y-62955979D01*
X155630422Y-63167322D01*
X155630424Y-63167326D01*
X155630425Y-63167330D01*
X155649253Y-63207707D01*
X155722897Y-63365638D01*
X155722898Y-63365639D01*
X155848402Y-63544877D01*
X156003123Y-63699598D01*
X156182361Y-63825102D01*
X156380670Y-63917575D01*
X156380676Y-63917576D01*
X156380677Y-63917577D01*
X156392593Y-63920770D01*
X156452253Y-63957134D01*
X156482783Y-64019981D01*
X156484500Y-64040545D01*
X156484500Y-64708577D01*
X156464815Y-64775616D01*
X156412908Y-64820958D01*
X156402169Y-64825965D01*
X156208597Y-64961505D01*
X156041505Y-65128597D01*
X155911575Y-65314158D01*
X155856998Y-65357783D01*
X155787500Y-65364977D01*
X155725145Y-65333454D01*
X155708425Y-65314158D01*
X155578494Y-65128597D01*
X155411404Y-64961508D01*
X155411402Y-64961506D01*
X155411401Y-64961505D01*
X155393374Y-64948882D01*
X155349751Y-64894306D01*
X155340500Y-64847309D01*
X155340500Y-63639157D01*
X155335160Y-63612315D01*
X155335160Y-63612312D01*
X155309739Y-63484510D01*
X155309736Y-63484501D01*
X155289618Y-63435931D01*
X155249397Y-63338827D01*
X155249390Y-63338814D01*
X155161789Y-63207711D01*
X155161786Y-63207707D01*
X155045970Y-63091891D01*
X155045947Y-63091870D01*
X154846251Y-62892174D01*
X154812766Y-62830851D01*
X154810404Y-62793690D01*
X154815277Y-62738000D01*
X154796207Y-62520023D01*
X154759707Y-62383805D01*
X154739577Y-62308677D01*
X154739576Y-62308676D01*
X154739575Y-62308670D01*
X154647102Y-62110362D01*
X154647100Y-62110359D01*
X154647099Y-62110357D01*
X154521599Y-61931124D01*
X154481041Y-61890566D01*
X154366877Y-61776402D01*
X154187639Y-61650898D01*
X154187640Y-61650898D01*
X154187638Y-61650897D01*
X154067765Y-61595000D01*
X153989330Y-61558425D01*
X153989326Y-61558424D01*
X153989322Y-61558422D01*
X153777977Y-61501793D01*
X153560002Y-61482723D01*
X153559998Y-61482723D01*
X153443833Y-61492886D01*
X153342023Y-61501793D01*
X153342020Y-61501793D01*
X153130677Y-61558422D01*
X153130668Y-61558426D01*
X152932361Y-61650898D01*
X152932357Y-61650900D01*
X152753121Y-61776402D01*
X152598402Y-61931121D01*
X152472900Y-62110357D01*
X152472898Y-62110361D01*
X152380426Y-62308668D01*
X152380422Y-62308677D01*
X152323793Y-62520020D01*
X152323793Y-62520024D01*
X152304723Y-62737997D01*
X152304723Y-62738002D01*
X152323793Y-62955975D01*
X152323793Y-62955979D01*
X152380422Y-63167322D01*
X152380424Y-63167326D01*
X152380425Y-63167330D01*
X152399253Y-63207707D01*
X152472897Y-63365638D01*
X152472898Y-63365639D01*
X152598402Y-63544877D01*
X152753123Y-63699598D01*
X152932361Y-63825102D01*
X153130670Y-63917575D01*
X153130676Y-63917576D01*
X153130677Y-63917577D01*
X153142594Y-63920770D01*
X153342023Y-63974207D01*
X153515296Y-63989366D01*
X153559998Y-63993277D01*
X153559999Y-63993277D01*
X153559999Y-63993276D01*
X153560000Y-63993277D01*
X153604693Y-63989366D01*
X153673190Y-64003131D01*
X153723374Y-64051745D01*
X153739500Y-64112894D01*
X153739500Y-64847309D01*
X153719815Y-64914348D01*
X153686625Y-64948883D01*
X153668601Y-64961503D01*
X153668595Y-64961508D01*
X153501508Y-65128594D01*
X153371269Y-65314595D01*
X153316692Y-65358219D01*
X153247193Y-65365412D01*
X153184839Y-65333890D01*
X153168119Y-65314594D01*
X153038113Y-65128926D01*
X153038108Y-65128920D01*
X152871082Y-64961894D01*
X152677578Y-64826399D01*
X152463492Y-64726570D01*
X152463486Y-64726567D01*
X152250000Y-64669364D01*
X152250000Y-65566988D01*
X152192993Y-65534075D01*
X152065826Y-65500000D01*
X151934174Y-65500000D01*
X151807007Y-65534075D01*
X151750000Y-65566988D01*
X151750000Y-64669364D01*
X151749999Y-64669364D01*
X151536513Y-64726567D01*
X151536507Y-64726570D01*
X151322422Y-64826399D01*
X151322420Y-64826400D01*
X151128926Y-64961886D01*
X151006865Y-65083947D01*
X150945542Y-65117431D01*
X150875850Y-65112447D01*
X150819917Y-65070575D01*
X150803002Y-65039598D01*
X150753797Y-64907671D01*
X150753793Y-64907664D01*
X150667547Y-64792455D01*
X150667544Y-64792452D01*
X150552335Y-64706206D01*
X150552328Y-64706202D01*
X150417482Y-64655908D01*
X150417483Y-64655908D01*
X150357883Y-64649501D01*
X150357881Y-64649500D01*
X150357873Y-64649500D01*
X150357865Y-64649500D01*
X150234500Y-64649500D01*
X150167461Y-64629815D01*
X150121706Y-64577011D01*
X150110500Y-64525500D01*
X150110500Y-63901653D01*
X150130185Y-63834614D01*
X150163374Y-63800079D01*
X150306877Y-63699598D01*
X150461598Y-63544877D01*
X150587102Y-63365639D01*
X150679575Y-63167330D01*
X150736207Y-62955977D01*
X150755277Y-62738000D01*
X150736207Y-62520023D01*
X150699707Y-62383805D01*
X150679577Y-62308677D01*
X150679576Y-62308676D01*
X150679575Y-62308670D01*
X150587102Y-62110362D01*
X150587100Y-62110359D01*
X150587099Y-62110357D01*
X150461599Y-61931124D01*
X150421041Y-61890566D01*
X150306877Y-61776402D01*
X150127639Y-61650898D01*
X150127640Y-61650898D01*
X150127638Y-61650897D01*
X150007765Y-61595000D01*
X149929330Y-61558425D01*
X149929326Y-61558424D01*
X149929322Y-61558422D01*
X149717977Y-61501793D01*
X149500002Y-61482723D01*
X149499998Y-61482723D01*
X149383833Y-61492886D01*
X149282023Y-61501793D01*
X149282020Y-61501793D01*
X149070677Y-61558422D01*
X149070668Y-61558426D01*
X148872361Y-61650898D01*
X148872357Y-61650900D01*
X148693121Y-61776402D01*
X148538402Y-61931121D01*
X148412900Y-62110357D01*
X148412898Y-62110361D01*
X148320426Y-62308668D01*
X148320422Y-62308677D01*
X148263793Y-62520020D01*
X148263793Y-62520024D01*
X148244723Y-62737997D01*
X148244723Y-62738002D01*
X148263793Y-62955975D01*
X148263793Y-62955979D01*
X148320422Y-63167322D01*
X148320424Y-63167326D01*
X148320425Y-63167330D01*
X148339253Y-63207707D01*
X148412897Y-63365638D01*
X148412898Y-63365639D01*
X148538402Y-63544877D01*
X148538406Y-63544881D01*
X148693121Y-63699596D01*
X148693127Y-63699601D01*
X148756623Y-63744061D01*
X148800248Y-63798637D01*
X148809500Y-63845636D01*
X148809500Y-64525500D01*
X148789815Y-64592539D01*
X148737011Y-64638294D01*
X148685501Y-64649500D01*
X148562130Y-64649500D01*
X148562123Y-64649501D01*
X148502516Y-64655908D01*
X148367671Y-64706202D01*
X148367664Y-64706206D01*
X148252455Y-64792452D01*
X148252452Y-64792455D01*
X148166206Y-64907664D01*
X148166202Y-64907671D01*
X148115908Y-65042517D01*
X148109501Y-65102116D01*
X148109500Y-65102135D01*
X148109500Y-66897870D01*
X148109501Y-66897876D01*
X148115908Y-66957483D01*
X148166202Y-67092328D01*
X148166206Y-67092335D01*
X148252452Y-67207544D01*
X148252455Y-67207547D01*
X148367664Y-67293793D01*
X148367671Y-67293797D01*
X148412618Y-67310561D01*
X148502517Y-67344091D01*
X148562127Y-67350500D01*
X148830637Y-67350499D01*
X148897676Y-67370183D01*
X148918318Y-67386818D01*
X150045601Y-68514100D01*
X150079086Y-68575423D01*
X150074102Y-68645115D01*
X150032230Y-68701048D01*
X149966766Y-68725465D01*
X149957920Y-68725781D01*
X140459000Y-68725781D01*
X140391961Y-68706096D01*
X140346206Y-68653292D01*
X140335000Y-68601781D01*
X140335000Y-64368097D01*
X143089500Y-64368097D01*
X143126446Y-64601368D01*
X143199433Y-64825996D01*
X143285944Y-64995782D01*
X143306657Y-65036433D01*
X143445483Y-65227510D01*
X143612490Y-65394517D01*
X143803567Y-65533343D01*
X143902991Y-65584002D01*
X144014003Y-65640566D01*
X144014005Y-65640566D01*
X144014008Y-65640568D01*
X144134412Y-65679689D01*
X144238631Y-65713553D01*
X144471903Y-65750500D01*
X144471908Y-65750500D01*
X145708097Y-65750500D01*
X145941368Y-65713553D01*
X146165992Y-65640568D01*
X146376433Y-65533343D01*
X146567510Y-65394517D01*
X146734517Y-65227510D01*
X146873343Y-65036433D01*
X146980568Y-64825992D01*
X147053553Y-64601368D01*
X147069326Y-64501780D01*
X147090500Y-64368097D01*
X147090500Y-64131902D01*
X147053553Y-63898631D01*
X146994646Y-63717337D01*
X146980568Y-63674008D01*
X146980566Y-63674005D01*
X146980566Y-63674003D01*
X146924002Y-63562991D01*
X146873343Y-63463567D01*
X146734517Y-63272490D01*
X146567510Y-63105483D01*
X146376433Y-62966657D01*
X146165996Y-62859433D01*
X145941368Y-62786446D01*
X145708097Y-62749500D01*
X145708092Y-62749500D01*
X144471908Y-62749500D01*
X144471903Y-62749500D01*
X144238631Y-62786446D01*
X144014003Y-62859433D01*
X143803566Y-62966657D01*
X143694550Y-63045862D01*
X143612490Y-63105483D01*
X143612488Y-63105485D01*
X143612487Y-63105485D01*
X143445485Y-63272487D01*
X143445485Y-63272488D01*
X143445483Y-63272490D01*
X143397296Y-63338814D01*
X143306657Y-63463566D01*
X143199433Y-63674003D01*
X143126446Y-63898631D01*
X143089500Y-64131902D01*
X143089500Y-64368097D01*
X140335000Y-64368097D01*
X140335000Y-48118097D01*
X143089500Y-48118097D01*
X143126446Y-48351368D01*
X143199433Y-48575996D01*
X143292557Y-48758761D01*
X143306657Y-48786433D01*
X143445483Y-48977510D01*
X143612490Y-49144517D01*
X143803567Y-49283343D01*
X143851408Y-49307719D01*
X144014003Y-49390566D01*
X144014005Y-49390566D01*
X144014008Y-49390568D01*
X144118292Y-49424452D01*
X144238631Y-49463553D01*
X144471903Y-49500500D01*
X144471908Y-49500500D01*
X145708097Y-49500500D01*
X145941368Y-49463553D01*
X145978414Y-49451516D01*
X146165992Y-49390568D01*
X146376433Y-49283343D01*
X146567510Y-49144517D01*
X146734517Y-48977510D01*
X146873343Y-48786433D01*
X146980568Y-48575992D01*
X147053553Y-48351368D01*
X147060946Y-48304689D01*
X147090500Y-48118097D01*
X147090500Y-47881902D01*
X147053553Y-47648631D01*
X147009323Y-47512507D01*
X146980568Y-47424008D01*
X146980566Y-47424005D01*
X146980566Y-47424003D01*
X146906681Y-47278997D01*
X146873343Y-47213567D01*
X146734517Y-47022490D01*
X146567510Y-46855483D01*
X146376433Y-46716657D01*
X146364979Y-46710821D01*
X146165996Y-46609433D01*
X145941368Y-46536446D01*
X145708097Y-46499500D01*
X145708092Y-46499500D01*
X144471908Y-46499500D01*
X144471903Y-46499500D01*
X144238631Y-46536446D01*
X144014003Y-46609433D01*
X143803566Y-46716657D01*
X143713603Y-46782020D01*
X143612490Y-46855483D01*
X143612488Y-46855485D01*
X143612487Y-46855485D01*
X143445485Y-47022487D01*
X143445485Y-47022488D01*
X143445483Y-47022490D01*
X143396180Y-47090349D01*
X143306657Y-47213566D01*
X143199433Y-47424003D01*
X143126446Y-47648631D01*
X143089500Y-47881902D01*
X143089500Y-48118097D01*
X140335000Y-48118097D01*
X140335000Y-41547870D01*
X143089500Y-41547870D01*
X143089501Y-41547876D01*
X143095908Y-41607483D01*
X143146202Y-41742328D01*
X143146206Y-41742335D01*
X143232452Y-41857544D01*
X143232455Y-41857547D01*
X143347664Y-41943793D01*
X143347671Y-41943797D01*
X143482517Y-41994091D01*
X143482516Y-41994091D01*
X143489444Y-41994835D01*
X143542127Y-42000500D01*
X146637872Y-42000499D01*
X146697483Y-41994091D01*
X146832331Y-41943796D01*
X146947546Y-41857546D01*
X147033796Y-41742331D01*
X147084091Y-41607483D01*
X147090500Y-41547873D01*
X147090499Y-39452128D01*
X147084091Y-39392517D01*
X147083628Y-39391276D01*
X147033797Y-39257671D01*
X147033793Y-39257664D01*
X146947547Y-39142455D01*
X146947544Y-39142452D01*
X146832335Y-39056206D01*
X146832328Y-39056202D01*
X146697482Y-39005908D01*
X146697483Y-39005908D01*
X146637883Y-38999501D01*
X146637881Y-38999500D01*
X146637873Y-38999500D01*
X146637864Y-38999500D01*
X143542129Y-38999500D01*
X143542123Y-38999501D01*
X143482516Y-39005908D01*
X143347671Y-39056202D01*
X143347664Y-39056206D01*
X143232455Y-39142452D01*
X143232452Y-39142455D01*
X143146206Y-39257664D01*
X143146202Y-39257671D01*
X143095908Y-39392517D01*
X143093160Y-39418081D01*
X143089501Y-39452123D01*
X143089500Y-39452135D01*
X143089500Y-41547870D01*
X140335000Y-41547870D01*
X140335000Y-36830003D01*
X147784435Y-36830003D01*
X147804630Y-37009249D01*
X147804631Y-37009254D01*
X147864211Y-37179523D01*
X147940689Y-37301236D01*
X147960184Y-37332262D01*
X148087738Y-37459816D01*
X148240478Y-37555789D01*
X148410745Y-37615368D01*
X148417974Y-37616182D01*
X148482388Y-37643246D01*
X148491776Y-37651722D01*
X148738181Y-37898127D01*
X148771666Y-37959450D01*
X148774500Y-37985808D01*
X148774500Y-39625701D01*
X148777401Y-39662567D01*
X148777402Y-39662573D01*
X148823254Y-39820393D01*
X148823255Y-39820396D01*
X148823256Y-39820398D01*
X148827472Y-39827527D01*
X148906917Y-39961862D01*
X148906923Y-39961870D01*
X149023129Y-40078076D01*
X149023133Y-40078079D01*
X149023135Y-40078081D01*
X149164602Y-40161744D01*
X149195652Y-40170765D01*
X149322426Y-40207597D01*
X149322429Y-40207597D01*
X149322431Y-40207598D01*
X149359306Y-40210500D01*
X149359314Y-40210500D01*
X149790686Y-40210500D01*
X149790694Y-40210500D01*
X149827569Y-40207598D01*
X149827571Y-40207597D01*
X149827573Y-40207597D01*
X149897059Y-40187409D01*
X149985398Y-40161744D01*
X150126865Y-40078081D01*
X150126870Y-40078075D01*
X150133031Y-40073298D01*
X150134933Y-40075750D01*
X150183579Y-40049155D01*
X150253274Y-40054104D01*
X150285695Y-40074940D01*
X150286969Y-40073298D01*
X150293132Y-40078078D01*
X150293135Y-40078081D01*
X150434602Y-40161744D01*
X150465652Y-40170765D01*
X150592426Y-40207597D01*
X150592429Y-40207597D01*
X150592431Y-40207598D01*
X150629306Y-40210500D01*
X150629314Y-40210500D01*
X151060686Y-40210500D01*
X151060694Y-40210500D01*
X151097569Y-40207598D01*
X151097571Y-40207597D01*
X151097573Y-40207597D01*
X151167059Y-40187409D01*
X151255398Y-40161744D01*
X151396865Y-40078081D01*
X151396870Y-40078075D01*
X151403031Y-40073298D01*
X151404933Y-40075750D01*
X151453579Y-40049155D01*
X151523274Y-40054104D01*
X151555695Y-40074940D01*
X151556969Y-40073298D01*
X151563132Y-40078078D01*
X151563135Y-40078081D01*
X151704602Y-40161744D01*
X151735652Y-40170765D01*
X151862426Y-40207597D01*
X151862429Y-40207597D01*
X151862431Y-40207598D01*
X151899306Y-40210500D01*
X151899314Y-40210500D01*
X152330686Y-40210500D01*
X152330694Y-40210500D01*
X152367569Y-40207598D01*
X152367571Y-40207597D01*
X152367573Y-40207597D01*
X152437059Y-40187409D01*
X152525398Y-40161744D01*
X152666865Y-40078081D01*
X152666870Y-40078075D01*
X152673031Y-40073298D01*
X152674933Y-40075750D01*
X152723579Y-40049155D01*
X152793274Y-40054104D01*
X152825695Y-40074940D01*
X152826969Y-40073298D01*
X152833132Y-40078078D01*
X152833135Y-40078081D01*
X152974602Y-40161744D01*
X153005652Y-40170765D01*
X153132426Y-40207597D01*
X153132429Y-40207597D01*
X153132431Y-40207598D01*
X153169306Y-40210500D01*
X153169314Y-40210500D01*
X153600686Y-40210500D01*
X153600694Y-40210500D01*
X153637569Y-40207598D01*
X153637571Y-40207597D01*
X153637573Y-40207597D01*
X153707059Y-40187409D01*
X153795398Y-40161744D01*
X153936865Y-40078081D01*
X153936870Y-40078075D01*
X153943031Y-40073298D01*
X153944933Y-40075750D01*
X153993579Y-40049155D01*
X154063274Y-40054104D01*
X154095695Y-40074940D01*
X154096969Y-40073298D01*
X154103132Y-40078078D01*
X154103135Y-40078081D01*
X154244602Y-40161744D01*
X154275652Y-40170765D01*
X154402426Y-40207597D01*
X154402429Y-40207597D01*
X154402431Y-40207598D01*
X154439306Y-40210500D01*
X154439314Y-40210500D01*
X154870686Y-40210500D01*
X154870694Y-40210500D01*
X154907569Y-40207598D01*
X154907571Y-40207597D01*
X154907573Y-40207597D01*
X154977059Y-40187409D01*
X155065398Y-40161744D01*
X155206865Y-40078081D01*
X155206870Y-40078075D01*
X155213031Y-40073298D01*
X155214933Y-40075750D01*
X155263579Y-40049155D01*
X155333274Y-40054104D01*
X155365695Y-40074940D01*
X155366969Y-40073298D01*
X155373132Y-40078078D01*
X155373135Y-40078081D01*
X155514602Y-40161744D01*
X155545652Y-40170765D01*
X155672426Y-40207597D01*
X155672429Y-40207597D01*
X155672431Y-40207598D01*
X155709306Y-40210500D01*
X155709314Y-40210500D01*
X156140686Y-40210500D01*
X156140694Y-40210500D01*
X156177569Y-40207598D01*
X156177571Y-40207597D01*
X156177573Y-40207597D01*
X156247059Y-40187409D01*
X156335398Y-40161744D01*
X156476865Y-40078081D01*
X156476870Y-40078075D01*
X156483031Y-40073298D01*
X156484933Y-40075750D01*
X156533579Y-40049155D01*
X156603274Y-40054104D01*
X156635695Y-40074940D01*
X156636969Y-40073298D01*
X156643132Y-40078078D01*
X156643135Y-40078081D01*
X156784602Y-40161744D01*
X156815652Y-40170765D01*
X156942426Y-40207597D01*
X156942429Y-40207597D01*
X156942431Y-40207598D01*
X156979306Y-40210500D01*
X156979314Y-40210500D01*
X157410686Y-40210500D01*
X157410694Y-40210500D01*
X157447569Y-40207598D01*
X157447571Y-40207597D01*
X157447573Y-40207597D01*
X157517059Y-40187409D01*
X157605398Y-40161744D01*
X157746865Y-40078081D01*
X157863081Y-39961865D01*
X157946744Y-39820398D01*
X157992598Y-39662569D01*
X157995500Y-39625694D01*
X157995500Y-37844306D01*
X157992598Y-37807431D01*
X157991771Y-37804586D01*
X157954017Y-37674635D01*
X157946744Y-37649602D01*
X157863081Y-37508135D01*
X157863079Y-37508133D01*
X157863076Y-37508129D01*
X157746870Y-37391923D01*
X157746861Y-37391916D01*
X157625742Y-37320287D01*
X157601182Y-37301236D01*
X157031722Y-36731776D01*
X156998237Y-36670453D01*
X156996182Y-36657973D01*
X156995368Y-36650745D01*
X156935789Y-36480478D01*
X156839816Y-36327738D01*
X156712262Y-36200184D01*
X156679344Y-36179500D01*
X156559523Y-36104211D01*
X156389254Y-36044631D01*
X156389249Y-36044630D01*
X156210000Y-36024434D01*
X156030750Y-36044630D01*
X156030745Y-36044631D01*
X155860476Y-36104211D01*
X155707737Y-36200184D01*
X155662680Y-36245241D01*
X155601357Y-36278725D01*
X155531665Y-36273740D01*
X155487320Y-36245241D01*
X155442263Y-36200185D01*
X155442262Y-36200184D01*
X155289523Y-36104211D01*
X155119254Y-36044631D01*
X155119249Y-36044630D01*
X154940000Y-36024434D01*
X154760750Y-36044630D01*
X154760745Y-36044631D01*
X154590476Y-36104211D01*
X154437737Y-36200184D01*
X154392680Y-36245241D01*
X154331357Y-36278725D01*
X154261665Y-36273740D01*
X154217320Y-36245241D01*
X154172263Y-36200185D01*
X154172262Y-36200184D01*
X154019523Y-36104211D01*
X153849254Y-36044631D01*
X153849249Y-36044630D01*
X153670000Y-36024434D01*
X153490750Y-36044630D01*
X153490745Y-36044631D01*
X153320476Y-36104211D01*
X153167737Y-36200184D01*
X153122680Y-36245241D01*
X153061357Y-36278725D01*
X152991665Y-36273740D01*
X152947320Y-36245241D01*
X152902263Y-36200185D01*
X152902262Y-36200184D01*
X152749523Y-36104211D01*
X152579254Y-36044631D01*
X152579249Y-36044630D01*
X152400000Y-36024434D01*
X152220750Y-36044630D01*
X152220745Y-36044631D01*
X152050476Y-36104211D01*
X151897737Y-36200184D01*
X151852680Y-36245241D01*
X151791357Y-36278725D01*
X151721665Y-36273740D01*
X151677320Y-36245241D01*
X151632263Y-36200185D01*
X151632262Y-36200184D01*
X151479523Y-36104211D01*
X151309254Y-36044631D01*
X151309249Y-36044630D01*
X151130000Y-36024434D01*
X150950750Y-36044630D01*
X150950745Y-36044631D01*
X150780476Y-36104211D01*
X150627737Y-36200184D01*
X150582680Y-36245241D01*
X150521357Y-36278725D01*
X150451665Y-36273740D01*
X150407320Y-36245241D01*
X150362263Y-36200185D01*
X150362262Y-36200184D01*
X150209523Y-36104211D01*
X150039254Y-36044631D01*
X150039249Y-36044630D01*
X149860000Y-36024434D01*
X149680750Y-36044630D01*
X149680745Y-36044631D01*
X149510476Y-36104211D01*
X149357737Y-36200184D01*
X149312680Y-36245241D01*
X149251357Y-36278725D01*
X149181665Y-36273740D01*
X149137320Y-36245241D01*
X149092263Y-36200185D01*
X149092262Y-36200184D01*
X148939523Y-36104211D01*
X148769254Y-36044631D01*
X148769249Y-36044630D01*
X148590000Y-36024434D01*
X148410750Y-36044630D01*
X148410745Y-36044631D01*
X148240476Y-36104211D01*
X148087737Y-36200184D01*
X147960184Y-36327737D01*
X147864211Y-36480476D01*
X147804631Y-36650745D01*
X147804630Y-36650750D01*
X147784435Y-36829996D01*
X147784435Y-36830003D01*
X140335000Y-36830003D01*
X140335000Y-35900781D01*
X140354685Y-35833742D01*
X140407489Y-35787987D01*
X140459000Y-35776781D01*
X148579965Y-35776781D01*
X148584549Y-35778127D01*
G37*
%TD.AperFunction*%
%TA.AperFunction,Conductor*%
G36*
X191979631Y-35796466D02*
G01*
X192025386Y-35849270D01*
X192036592Y-35900781D01*
X192036592Y-68601781D01*
X192016907Y-68668820D01*
X191964103Y-68714575D01*
X191912592Y-68725781D01*
X173334281Y-68725781D01*
X173267242Y-68706096D01*
X173221487Y-68653292D01*
X173211543Y-68584134D01*
X173240568Y-68520578D01*
X173246600Y-68514100D01*
X176605699Y-65155000D01*
X182485000Y-65155000D01*
X184236518Y-65155000D01*
X184225889Y-65173409D01*
X184185000Y-65326009D01*
X184185000Y-65483991D01*
X184225889Y-65636591D01*
X184236518Y-65655000D01*
X182485001Y-65655000D01*
X182485001Y-66104986D01*
X182495494Y-66207697D01*
X182550641Y-66374119D01*
X182550643Y-66374124D01*
X182642684Y-66523345D01*
X182766654Y-66647315D01*
X182915875Y-66739356D01*
X182915880Y-66739358D01*
X183082302Y-66794505D01*
X183082309Y-66794506D01*
X183185019Y-66804999D01*
X184534999Y-66804999D01*
X184535000Y-66804998D01*
X184535000Y-65953482D01*
X184553409Y-65964111D01*
X184706009Y-66005000D01*
X184863991Y-66005000D01*
X185016591Y-65964111D01*
X185035000Y-65953482D01*
X185035000Y-66804999D01*
X186384972Y-66804999D01*
X186384986Y-66804998D01*
X186487697Y-66794505D01*
X186654119Y-66739358D01*
X186654124Y-66739356D01*
X186803345Y-66647315D01*
X186927315Y-66523345D01*
X187019356Y-66374124D01*
X187019358Y-66374119D01*
X187074505Y-66207697D01*
X187074506Y-66207690D01*
X187084999Y-66104986D01*
X187085000Y-66104973D01*
X187085000Y-65655000D01*
X185333482Y-65655000D01*
X185344111Y-65636591D01*
X185385000Y-65483991D01*
X185385000Y-65326009D01*
X185344111Y-65173409D01*
X185333482Y-65155000D01*
X187084999Y-65155000D01*
X187084999Y-64705028D01*
X187084998Y-64705013D01*
X187074505Y-64602302D01*
X187019358Y-64435880D01*
X187019356Y-64435875D01*
X186927315Y-64286654D01*
X186803345Y-64162684D01*
X186654124Y-64070643D01*
X186654119Y-64070641D01*
X186487697Y-64015494D01*
X186487690Y-64015493D01*
X186384986Y-64005000D01*
X185035000Y-64005000D01*
X185035000Y-64856517D01*
X185016591Y-64845889D01*
X184863991Y-64805000D01*
X184706009Y-64805000D01*
X184553409Y-64845889D01*
X184535000Y-64856517D01*
X184535000Y-64005000D01*
X183185028Y-64005000D01*
X183185012Y-64005001D01*
X183082302Y-64015494D01*
X182915880Y-64070641D01*
X182915875Y-64070643D01*
X182766654Y-64162684D01*
X182642684Y-64286654D01*
X182550643Y-64435875D01*
X182550641Y-64435880D01*
X182495494Y-64602302D01*
X182495493Y-64602309D01*
X182485000Y-64705013D01*
X182485000Y-65155000D01*
X176605699Y-65155000D01*
X177457881Y-64302818D01*
X177519204Y-64269333D01*
X177545562Y-64266499D01*
X178500002Y-64266499D01*
X178500008Y-64266499D01*
X178602797Y-64255999D01*
X178769334Y-64200814D01*
X178918656Y-64108712D01*
X179042712Y-63984656D01*
X179134814Y-63835334D01*
X179189999Y-63668797D01*
X179200500Y-63566009D01*
X179200499Y-62440360D01*
X179220184Y-62373322D01*
X179236813Y-62352685D01*
X180997681Y-60591819D01*
X181059004Y-60558334D01*
X181085362Y-60555500D01*
X182753530Y-60555500D01*
X182820569Y-60575185D01*
X182841211Y-60591818D01*
X182972635Y-60723242D01*
X182972638Y-60723244D01*
X182972642Y-60723248D01*
X183121207Y-60831185D01*
X183150978Y-60852815D01*
X183279375Y-60918237D01*
X183347393Y-60952895D01*
X183347396Y-60952896D01*
X183452221Y-60986955D01*
X183557049Y-61021015D01*
X183774778Y-61055500D01*
X183774779Y-61055500D01*
X185795221Y-61055500D01*
X185795222Y-61055500D01*
X186012951Y-61021015D01*
X186222606Y-60952895D01*
X186419022Y-60852815D01*
X186597365Y-60723242D01*
X186753242Y-60567365D01*
X186882815Y-60389022D01*
X186982895Y-60192606D01*
X187051015Y-59982951D01*
X187085500Y-59765222D01*
X187085500Y-59544778D01*
X187051015Y-59327049D01*
X187015147Y-59216657D01*
X186982896Y-59117396D01*
X186982895Y-59117393D01*
X186941650Y-59036447D01*
X186882815Y-58920978D01*
X186833558Y-58853181D01*
X186753247Y-58742641D01*
X186753243Y-58742636D01*
X186597363Y-58586756D01*
X186597358Y-58586752D01*
X186419025Y-58457187D01*
X186419024Y-58457186D01*
X186419022Y-58457185D01*
X186346043Y-58420000D01*
X186222606Y-58357104D01*
X186222603Y-58357103D01*
X186012952Y-58288985D01*
X185904086Y-58271742D01*
X185795222Y-58254500D01*
X183774778Y-58254500D01*
X183702201Y-58265995D01*
X183557047Y-58288985D01*
X183347396Y-58357103D01*
X183347393Y-58357104D01*
X183150974Y-58457187D01*
X182972642Y-58586751D01*
X182841211Y-58718182D01*
X182779888Y-58751666D01*
X182753530Y-58754500D01*
X180572303Y-58754500D01*
X180398341Y-58789103D01*
X180398329Y-58789106D01*
X180316392Y-58823045D01*
X180316393Y-58823046D01*
X180234455Y-58856985D01*
X180156844Y-58908844D01*
X180156843Y-58908845D01*
X180086961Y-58955537D01*
X178313317Y-60729181D01*
X178251994Y-60762666D01*
X178225636Y-60765500D01*
X177099998Y-60765500D01*
X177099981Y-60765501D01*
X176997203Y-60776000D01*
X176997200Y-60776001D01*
X176830668Y-60831185D01*
X176830663Y-60831187D01*
X176681342Y-60923289D01*
X176557289Y-61047342D01*
X176465187Y-61196663D01*
X176465185Y-61196668D01*
X176453791Y-61231053D01*
X176410001Y-61363203D01*
X176410001Y-61363204D01*
X176410000Y-61363204D01*
X176399500Y-61465983D01*
X176399500Y-62762837D01*
X176379815Y-62829876D01*
X176363181Y-62850518D01*
X175615488Y-63598210D01*
X175554165Y-63631695D01*
X175484473Y-63626711D01*
X175428540Y-63584839D01*
X175404123Y-63519375D01*
X175412378Y-63465230D01*
X175489512Y-63268697D01*
X175547894Y-63012911D01*
X175549313Y-62993976D01*
X175567500Y-62751285D01*
X175567500Y-62751276D01*
X175547895Y-62489660D01*
X175547894Y-62489655D01*
X175547894Y-62489651D01*
X175489512Y-62233865D01*
X175393660Y-61989638D01*
X175262478Y-61762424D01*
X175098897Y-61557300D01*
X175098896Y-61557299D01*
X175098893Y-61557295D01*
X174906571Y-61378848D01*
X174689796Y-61231053D01*
X174689792Y-61231051D01*
X174689789Y-61231049D01*
X174689788Y-61231048D01*
X174453417Y-61117219D01*
X174453419Y-61117219D01*
X174202715Y-61039887D01*
X174202711Y-61039886D01*
X174202707Y-61039885D01*
X174077509Y-61021014D01*
X173943279Y-61000781D01*
X173943274Y-61000781D01*
X173680910Y-61000781D01*
X173680904Y-61000781D01*
X173519339Y-61025134D01*
X173421477Y-61039885D01*
X173421474Y-61039886D01*
X173421468Y-61039887D01*
X173170765Y-61117219D01*
X172934395Y-61231048D01*
X172934394Y-61231049D01*
X172717612Y-61378848D01*
X172525290Y-61557295D01*
X172361706Y-61762424D01*
X172230524Y-61989637D01*
X172134674Y-62233859D01*
X172134668Y-62233878D01*
X172076289Y-62489655D01*
X172076288Y-62489660D01*
X172056684Y-62751276D01*
X172056684Y-62751285D01*
X172076288Y-63012901D01*
X172076289Y-63012906D01*
X172134668Y-63268683D01*
X172134670Y-63268692D01*
X172134672Y-63268697D01*
X172230524Y-63512924D01*
X172361706Y-63740138D01*
X172437624Y-63835336D01*
X172525290Y-63945266D01*
X172660416Y-64070643D01*
X172717613Y-64123714D01*
X172934388Y-64271509D01*
X172934393Y-64271511D01*
X172934394Y-64271512D01*
X172934395Y-64271513D01*
X173059935Y-64331969D01*
X173170765Y-64385342D01*
X173170766Y-64385342D01*
X173170769Y-64385344D01*
X173421477Y-64462677D01*
X173680910Y-64501781D01*
X173943274Y-64501781D01*
X174202707Y-64462677D01*
X174453415Y-64385344D01*
X174519112Y-64353706D01*
X174588047Y-64342355D01*
X174652182Y-64370076D01*
X174691148Y-64428071D01*
X174692574Y-64497926D01*
X174660590Y-64553108D01*
X172205519Y-67008181D01*
X172144196Y-67041666D01*
X172117838Y-67044500D01*
X170935492Y-67044500D01*
X170868453Y-67024815D01*
X170822698Y-66972011D01*
X170812754Y-66902853D01*
X170833917Y-66849377D01*
X170954032Y-66677834D01*
X170954031Y-66677834D01*
X170954035Y-66677830D01*
X171053903Y-66463663D01*
X171115063Y-66235408D01*
X171135659Y-66000000D01*
X171115063Y-65764592D01*
X171053903Y-65536337D01*
X170954035Y-65322171D01*
X170948731Y-65314595D01*
X170818494Y-65128597D01*
X170816819Y-65126922D01*
X170816315Y-65126000D01*
X170815014Y-65124449D01*
X170815325Y-65124187D01*
X170783334Y-65065599D01*
X170780500Y-65039241D01*
X170780500Y-64431456D01*
X170758339Y-64320050D01*
X170758339Y-64320049D01*
X170742051Y-64238164D01*
X170688430Y-64108712D01*
X170688429Y-64108710D01*
X170666635Y-64056093D01*
X170666634Y-64056092D01*
X170666632Y-64056086D01*
X170656248Y-64040545D01*
X170557140Y-63892219D01*
X170490023Y-63825102D01*
X170417782Y-63752861D01*
X170417781Y-63752860D01*
X169686817Y-63021897D01*
X169653333Y-62960575D01*
X169650499Y-62934225D01*
X169650499Y-62672938D01*
X169670184Y-62605900D01*
X169686813Y-62585263D01*
X171563789Y-60708289D01*
X171581384Y-60681956D01*
X171618786Y-60625981D01*
X171650765Y-60593296D01*
X171748877Y-60524598D01*
X171903598Y-60369877D01*
X172029102Y-60190639D01*
X172121575Y-59992330D01*
X172178207Y-59780977D01*
X172197277Y-59563000D01*
X172178207Y-59345023D01*
X172121575Y-59133670D01*
X172029102Y-58935362D01*
X172029099Y-58935358D01*
X172029099Y-58935357D01*
X171903599Y-58756124D01*
X171832407Y-58684932D01*
X171748877Y-58601402D01*
X171610978Y-58504844D01*
X171569638Y-58475897D01*
X171421434Y-58406789D01*
X171371330Y-58383425D01*
X171371326Y-58383424D01*
X171371322Y-58383422D01*
X171159977Y-58326793D01*
X170942002Y-58307723D01*
X170941998Y-58307723D01*
X170796682Y-58320436D01*
X170724023Y-58326793D01*
X170724020Y-58326793D01*
X170512677Y-58383422D01*
X170512668Y-58383426D01*
X170314361Y-58475898D01*
X170314357Y-58475900D01*
X170135121Y-58601402D01*
X169980402Y-58756121D01*
X169854900Y-58935357D01*
X169854900Y-58935358D01*
X169803199Y-59046229D01*
X169757026Y-59098668D01*
X169689832Y-59117819D01*
X169622951Y-59097603D01*
X169585278Y-59058919D01*
X169571417Y-59036447D01*
X169492712Y-58908844D01*
X169368656Y-58784788D01*
X169260670Y-58718182D01*
X169219336Y-58692687D01*
X169219331Y-58692685D01*
X169217862Y-58692198D01*
X169052797Y-58637501D01*
X169052795Y-58637500D01*
X168950010Y-58627000D01*
X167599998Y-58627000D01*
X167599981Y-58627001D01*
X167497203Y-58637500D01*
X167497200Y-58637501D01*
X167330668Y-58692685D01*
X167330663Y-58692687D01*
X167181342Y-58784789D01*
X167112951Y-58853181D01*
X167051628Y-58886666D01*
X167025270Y-58889500D01*
X166699964Y-58889500D01*
X166632925Y-58869815D01*
X166587170Y-58817011D01*
X166577226Y-58747853D01*
X166582033Y-58727182D01*
X166600770Y-58669513D01*
X166620674Y-58608256D01*
X166640460Y-58420000D01*
X166620674Y-58231744D01*
X166562179Y-58051716D01*
X166467533Y-57887784D01*
X166340871Y-57747112D01*
X166340870Y-57747111D01*
X166187734Y-57635851D01*
X166187729Y-57635848D01*
X166019809Y-57561084D01*
X165982564Y-57535486D01*
X165978736Y-57531658D01*
X165948486Y-57482294D01*
X165948264Y-57481612D01*
X165927179Y-57416716D01*
X165927177Y-57416712D01*
X165832534Y-57252785D01*
X165745155Y-57155741D01*
X165705871Y-57112112D01*
X165705870Y-57112111D01*
X165552734Y-57000851D01*
X165552729Y-57000848D01*
X165379807Y-56923857D01*
X165379802Y-56923855D01*
X165234001Y-56892865D01*
X165194646Y-56884500D01*
X165005354Y-56884500D01*
X164972897Y-56891398D01*
X164820197Y-56923855D01*
X164820192Y-56923857D01*
X164647270Y-57000848D01*
X164647265Y-57000851D01*
X164494129Y-57112111D01*
X164367466Y-57252785D01*
X164272821Y-57416715D01*
X164272818Y-57416722D01*
X164214327Y-57596740D01*
X164214326Y-57596744D01*
X164194540Y-57785000D01*
X164214326Y-57973256D01*
X164214327Y-57973259D01*
X164272818Y-58153277D01*
X164272821Y-58153284D01*
X164367467Y-58317216D01*
X164492161Y-58455702D01*
X164494129Y-58457888D01*
X164647265Y-58569148D01*
X164647270Y-58569151D01*
X164815190Y-58643915D01*
X164852435Y-58669513D01*
X164856262Y-58673340D01*
X164886512Y-58722703D01*
X164907818Y-58788277D01*
X164907819Y-58788279D01*
X164907821Y-58788284D01*
X164917887Y-58805720D01*
X164934500Y-58867718D01*
X164934500Y-59242279D01*
X164917888Y-59304277D01*
X164907821Y-59321713D01*
X164849327Y-59501740D01*
X164849326Y-59501744D01*
X164829540Y-59690000D01*
X164847693Y-59862724D01*
X164835124Y-59931451D01*
X164787392Y-59982475D01*
X164767707Y-59991865D01*
X164742670Y-60001203D01*
X164742664Y-60001206D01*
X164627455Y-60087452D01*
X164627452Y-60087455D01*
X164541206Y-60202664D01*
X164541202Y-60202671D01*
X164490908Y-60337517D01*
X164484501Y-60397116D01*
X164484500Y-60397135D01*
X164484500Y-61492870D01*
X164484501Y-61492886D01*
X164485678Y-61503831D01*
X164473269Y-61572590D01*
X164425656Y-61623725D01*
X164357956Y-61641001D01*
X164291663Y-61618933D01*
X164274707Y-61604761D01*
X161967126Y-59297180D01*
X161933641Y-59235857D01*
X161938625Y-59166165D01*
X161980497Y-59110232D01*
X162045961Y-59085815D01*
X162054807Y-59085499D01*
X163407871Y-59085499D01*
X163407872Y-59085499D01*
X163467483Y-59079091D01*
X163602331Y-59028796D01*
X163717546Y-58942546D01*
X163803796Y-58827331D01*
X163854091Y-58692483D01*
X163860500Y-58632873D01*
X163860499Y-56937128D01*
X163854091Y-56877517D01*
X163844610Y-56852098D01*
X163803797Y-56742671D01*
X163803793Y-56742664D01*
X163717547Y-56627455D01*
X163717544Y-56627452D01*
X163602335Y-56541206D01*
X163602328Y-56541202D01*
X163467482Y-56490908D01*
X163467483Y-56490908D01*
X163407883Y-56484501D01*
X163407881Y-56484500D01*
X163407873Y-56484500D01*
X163407864Y-56484500D01*
X161712129Y-56484500D01*
X161712123Y-56484501D01*
X161652516Y-56490908D01*
X161517671Y-56541202D01*
X161517664Y-56541206D01*
X161402455Y-56627452D01*
X161373766Y-56665776D01*
X161317832Y-56707646D01*
X161248140Y-56712630D01*
X161186818Y-56679144D01*
X161153333Y-56617820D01*
X161150500Y-56591464D01*
X161150500Y-54897708D01*
X161170185Y-54830669D01*
X161222989Y-54784914D01*
X161292147Y-54774970D01*
X161355703Y-54803995D01*
X161386882Y-54845304D01*
X161429863Y-54937478D01*
X161480974Y-55010472D01*
X162160000Y-54331446D01*
X162160000Y-54337661D01*
X162187259Y-54439394D01*
X162239920Y-54530606D01*
X162314394Y-54605080D01*
X162405606Y-54657741D01*
X162507339Y-54685000D01*
X162513553Y-54685000D01*
X161834526Y-55364025D01*
X161907513Y-55415132D01*
X161907521Y-55415136D01*
X162113668Y-55511264D01*
X162113682Y-55511269D01*
X162333389Y-55570139D01*
X162333400Y-55570141D01*
X162559998Y-55589966D01*
X162560002Y-55589966D01*
X162786599Y-55570141D01*
X162786610Y-55570139D01*
X163006317Y-55511269D01*
X163006331Y-55511264D01*
X163212478Y-55415136D01*
X163285471Y-55364024D01*
X162606447Y-54685000D01*
X162612661Y-54685000D01*
X162714394Y-54657741D01*
X162805606Y-54605080D01*
X162880080Y-54530606D01*
X162932741Y-54439394D01*
X162960000Y-54337661D01*
X162960000Y-54331447D01*
X163639024Y-55010471D01*
X163690136Y-54937478D01*
X163786264Y-54731331D01*
X163786269Y-54731317D01*
X163845139Y-54511610D01*
X163845141Y-54511599D01*
X163864966Y-54285002D01*
X163864966Y-54284997D01*
X163845141Y-54058400D01*
X163845139Y-54058389D01*
X163786269Y-53838682D01*
X163786264Y-53838668D01*
X163690136Y-53632521D01*
X163690132Y-53632513D01*
X163639025Y-53559526D01*
X162960000Y-54238551D01*
X162960000Y-54232339D01*
X162932741Y-54130606D01*
X162880080Y-54039394D01*
X162805606Y-53964920D01*
X162714394Y-53912259D01*
X162612661Y-53885000D01*
X162606448Y-53885000D01*
X163285472Y-53205974D01*
X163212478Y-53154863D01*
X163006331Y-53058735D01*
X163006317Y-53058730D01*
X162786610Y-52999860D01*
X162786599Y-52999858D01*
X162560002Y-52980034D01*
X162559998Y-52980034D01*
X162333400Y-52999858D01*
X162333389Y-52999860D01*
X162113682Y-53058730D01*
X162113673Y-53058734D01*
X161907516Y-53154866D01*
X161907512Y-53154868D01*
X161834526Y-53205973D01*
X161834526Y-53205974D01*
X162513553Y-53885000D01*
X162507339Y-53885000D01*
X162405606Y-53912259D01*
X162314394Y-53964920D01*
X162239920Y-54039394D01*
X162187259Y-54130606D01*
X162160000Y-54232339D01*
X162160000Y-54238552D01*
X161480974Y-53559526D01*
X161480973Y-53559526D01*
X161429868Y-53632512D01*
X161429866Y-53632516D01*
X161386882Y-53724697D01*
X161340710Y-53777136D01*
X161273516Y-53796288D01*
X161206635Y-53776072D01*
X161161301Y-53722907D01*
X161150500Y-53672292D01*
X161150500Y-52739928D01*
X161125502Y-52614261D01*
X161125501Y-52614260D01*
X161125501Y-52614256D01*
X161084853Y-52516124D01*
X161076466Y-52495875D01*
X161076461Y-52495866D01*
X161005277Y-52389332D01*
X160962191Y-52346246D01*
X160914669Y-52298724D01*
X160071819Y-51455873D01*
X160038334Y-51394550D01*
X160035500Y-51368192D01*
X160035500Y-51241238D01*
X160055185Y-51174199D01*
X160107989Y-51128444D01*
X160177147Y-51118500D01*
X160211898Y-51128854D01*
X160320670Y-51179575D01*
X160320675Y-51179576D01*
X160320677Y-51179577D01*
X160327272Y-51181344D01*
X160532023Y-51236207D01*
X160714926Y-51252208D01*
X160749998Y-51255277D01*
X160750000Y-51255277D01*
X160750002Y-51255277D01*
X160778254Y-51252805D01*
X160967977Y-51236207D01*
X161179330Y-51179575D01*
X161377639Y-51087102D01*
X161556877Y-50961598D01*
X161711598Y-50806877D01*
X161837102Y-50627639D01*
X161929575Y-50429330D01*
X161986207Y-50217977D01*
X162005277Y-50000000D01*
X162004708Y-49993500D01*
X161998962Y-49927814D01*
X161986207Y-49782023D01*
X161929575Y-49570670D01*
X161837102Y-49372362D01*
X161837100Y-49372359D01*
X161837099Y-49372357D01*
X161711599Y-49193124D01*
X161662989Y-49144514D01*
X161556877Y-49038402D01*
X161377639Y-48912898D01*
X161377635Y-48912895D01*
X161377478Y-48912805D01*
X161377422Y-48912746D01*
X161373204Y-48909793D01*
X161373797Y-48908944D01*
X161329266Y-48862234D01*
X161316048Y-48793626D01*
X161342021Y-48728763D01*
X161398938Y-48688239D01*
X161463811Y-48684710D01*
X161463825Y-48684589D01*
X161464544Y-48684670D01*
X161467084Y-48684532D01*
X161470740Y-48685366D01*
X161470745Y-48685368D01*
X161470750Y-48685368D01*
X161470752Y-48685369D01*
X161649996Y-48705565D01*
X161650000Y-48705565D01*
X161650004Y-48705565D01*
X161829249Y-48685369D01*
X161829252Y-48685368D01*
X161829255Y-48685368D01*
X161999522Y-48625789D01*
X162152262Y-48529816D01*
X162279816Y-48402262D01*
X162375789Y-48249522D01*
X162435368Y-48079255D01*
X162435369Y-48079249D01*
X162455565Y-47900003D01*
X162455565Y-47899996D01*
X162435369Y-47720750D01*
X162435368Y-47720745D01*
X162412981Y-47656768D01*
X162375789Y-47550478D01*
X162374934Y-47549118D01*
X162296373Y-47424088D01*
X162279816Y-47397738D01*
X162152262Y-47270184D01*
X162152260Y-47270182D01*
X162054689Y-47208874D01*
X162008399Y-47156540D01*
X161997134Y-47093073D01*
X162005277Y-47000000D01*
X162005277Y-46999997D01*
X161999281Y-46931465D01*
X161986207Y-46782023D01*
X161931998Y-46579711D01*
X161929577Y-46570677D01*
X161929576Y-46570676D01*
X161929575Y-46570670D01*
X161837102Y-46372362D01*
X161837100Y-46372359D01*
X161837099Y-46372357D01*
X161711599Y-46193124D01*
X161646187Y-46127712D01*
X161556877Y-46038402D01*
X161391638Y-45922700D01*
X161377638Y-45912897D01*
X161252048Y-45854334D01*
X161179330Y-45820425D01*
X161179326Y-45820424D01*
X161179322Y-45820422D01*
X160967977Y-45763793D01*
X160750002Y-45744723D01*
X160749996Y-45744723D01*
X160713746Y-45747894D01*
X160645246Y-45734127D01*
X160595064Y-45685511D01*
X160579131Y-45617482D01*
X160602507Y-45551639D01*
X160615252Y-45536692D01*
X160836243Y-45315701D01*
X162274500Y-45315701D01*
X162277401Y-45352567D01*
X162277402Y-45352573D01*
X162323254Y-45510393D01*
X162323255Y-45510396D01*
X162406917Y-45651862D01*
X162406923Y-45651870D01*
X162523129Y-45768076D01*
X162523133Y-45768079D01*
X162523135Y-45768081D01*
X162664602Y-45851744D01*
X162673517Y-45854334D01*
X162822426Y-45897597D01*
X162822429Y-45897597D01*
X162822431Y-45897598D01*
X162859306Y-45900500D01*
X162859314Y-45900500D01*
X164440686Y-45900500D01*
X164440694Y-45900500D01*
X164477569Y-45897598D01*
X164477571Y-45897597D01*
X164477573Y-45897597D01*
X164519191Y-45885505D01*
X164635398Y-45851744D01*
X164776865Y-45768081D01*
X164893081Y-45651865D01*
X164976744Y-45510398D01*
X165022598Y-45352569D01*
X165025500Y-45315694D01*
X165025500Y-44884306D01*
X165022598Y-44847431D01*
X165017033Y-44828277D01*
X164984989Y-44717982D01*
X164976744Y-44689602D01*
X164893081Y-44548135D01*
X164893079Y-44548133D01*
X164893076Y-44548129D01*
X164776870Y-44431923D01*
X164776862Y-44431917D01*
X164635396Y-44348255D01*
X164635393Y-44348254D01*
X164477573Y-44302402D01*
X164477567Y-44302401D01*
X164440701Y-44299500D01*
X164440694Y-44299500D01*
X162859306Y-44299500D01*
X162859298Y-44299500D01*
X162822432Y-44302401D01*
X162822426Y-44302402D01*
X162664606Y-44348254D01*
X162664603Y-44348255D01*
X162523137Y-44431917D01*
X162523129Y-44431923D01*
X162406923Y-44548129D01*
X162406917Y-44548137D01*
X162323255Y-44689603D01*
X162323254Y-44689606D01*
X162277402Y-44847426D01*
X162277401Y-44847432D01*
X162274500Y-44884298D01*
X162274500Y-45315701D01*
X160836243Y-45315701D01*
X162430276Y-43721670D01*
X162501465Y-43615127D01*
X162550501Y-43496744D01*
X162550797Y-43495256D01*
X162565846Y-43419602D01*
X162575500Y-43371071D01*
X162575500Y-39690808D01*
X162595185Y-39623769D01*
X162611818Y-39603128D01*
X162650405Y-39564540D01*
X162711727Y-39531054D01*
X162772679Y-39533143D01*
X162822431Y-39547598D01*
X162859306Y-39550500D01*
X162859314Y-39550500D01*
X164440686Y-39550500D01*
X164440694Y-39550500D01*
X164477569Y-39547598D01*
X164477571Y-39547597D01*
X164477573Y-39547597D01*
X164519191Y-39535505D01*
X164635398Y-39501744D01*
X164662484Y-39485725D01*
X164730205Y-39468542D01*
X164796468Y-39490701D01*
X164840232Y-39545166D01*
X164847603Y-39614646D01*
X164840168Y-39639903D01*
X164838264Y-39644499D01*
X164838261Y-39644510D01*
X164807500Y-39799153D01*
X164807500Y-42732279D01*
X164790888Y-42794277D01*
X164780821Y-42811713D01*
X164722327Y-42991740D01*
X164722326Y-42991744D01*
X164702540Y-43180000D01*
X164722326Y-43368256D01*
X164722327Y-43368259D01*
X164780818Y-43548277D01*
X164780821Y-43548284D01*
X164875467Y-43712216D01*
X164893164Y-43731870D01*
X165002129Y-43852888D01*
X165155265Y-43964148D01*
X165155267Y-43964149D01*
X165155270Y-43964151D01*
X165241936Y-44002737D01*
X165295172Y-44047986D01*
X165315494Y-44114835D01*
X165315500Y-44116016D01*
X165315500Y-46560846D01*
X165346261Y-46715489D01*
X165346264Y-46715501D01*
X165406602Y-46861172D01*
X165406609Y-46861185D01*
X165494210Y-46992288D01*
X165494213Y-46992292D01*
X166046822Y-47544900D01*
X166080307Y-47606223D01*
X166080759Y-47656768D01*
X166077500Y-47673154D01*
X166077500Y-47730770D01*
X166057815Y-47797809D01*
X166041181Y-47818451D01*
X166035289Y-47824342D01*
X165943187Y-47973663D01*
X165943186Y-47973666D01*
X165888001Y-48140203D01*
X165888001Y-48140204D01*
X165888000Y-48140204D01*
X165877500Y-48242983D01*
X165877500Y-49293001D01*
X165877501Y-49293019D01*
X165888000Y-49395796D01*
X165888001Y-49395799D01*
X165943185Y-49562331D01*
X165943187Y-49562336D01*
X165948332Y-49570677D01*
X166035288Y-49711656D01*
X166159344Y-49835712D01*
X166308666Y-49927814D01*
X166475203Y-49982999D01*
X166577991Y-49993500D01*
X167178008Y-49993499D01*
X167178016Y-49993498D01*
X167178019Y-49993498D01*
X167234302Y-49987748D01*
X167280797Y-49982999D01*
X167447334Y-49927814D01*
X167596656Y-49835712D01*
X167720712Y-49711656D01*
X167812814Y-49562334D01*
X167867999Y-49395797D01*
X167878500Y-49293009D01*
X167878499Y-48521725D01*
X167898183Y-48454687D01*
X167950987Y-48408932D01*
X167982396Y-48400356D01*
X167982289Y-48399851D01*
X167988645Y-48398500D01*
X167988646Y-48398500D01*
X168173803Y-48359144D01*
X168346730Y-48282151D01*
X168499871Y-48170888D01*
X168626533Y-48030216D01*
X168721179Y-47866284D01*
X168779674Y-47686256D01*
X168799460Y-47498000D01*
X168779674Y-47309744D01*
X168779672Y-47309738D01*
X168779433Y-47307462D01*
X168792002Y-47238732D01*
X168839734Y-47187708D01*
X168902754Y-47170500D01*
X169590686Y-47170500D01*
X169590694Y-47170500D01*
X169627569Y-47167598D01*
X169709904Y-47143677D01*
X169779774Y-47143876D01*
X169838444Y-47181818D01*
X169867288Y-47245456D01*
X169868500Y-47262747D01*
X169868500Y-47278997D01*
X169868501Y-47279019D01*
X169879000Y-47381796D01*
X169879001Y-47381799D01*
X169934185Y-47548331D01*
X169934187Y-47548336D01*
X169961966Y-47593373D01*
X170019258Y-47686259D01*
X170026289Y-47697657D01*
X170119951Y-47791319D01*
X170153436Y-47852642D01*
X170148452Y-47922334D01*
X170119951Y-47966681D01*
X170026289Y-48060342D01*
X169934187Y-48209663D01*
X169934185Y-48209668D01*
X169920413Y-48251229D01*
X169879001Y-48376203D01*
X169879001Y-48376204D01*
X169879000Y-48376204D01*
X169868500Y-48478983D01*
X169868500Y-49104001D01*
X169868501Y-49104019D01*
X169879000Y-49206796D01*
X169879001Y-49206799D01*
X169934185Y-49373331D01*
X169934189Y-49373340D01*
X169982956Y-49452404D01*
X170001396Y-49519796D01*
X169980473Y-49586460D01*
X169926831Y-49631229D01*
X169877417Y-49641500D01*
X168591929Y-49641500D01*
X168466261Y-49666497D01*
X168466255Y-49666499D01*
X168347870Y-49715535D01*
X168241331Y-49786722D01*
X168241324Y-49786728D01*
X167642724Y-50385328D01*
X167582939Y-50474805D01*
X167571534Y-50491874D01*
X167522499Y-50610255D01*
X167522497Y-50610261D01*
X167497500Y-50735928D01*
X167497500Y-54166070D01*
X167505463Y-54206100D01*
X167513426Y-54246131D01*
X167516491Y-54261538D01*
X167522499Y-54291745D01*
X167571534Y-54410125D01*
X167571535Y-54410127D01*
X167639343Y-54511610D01*
X167642726Y-54516673D01*
X168292125Y-55166072D01*
X168292132Y-55166078D01*
X168398663Y-55237259D01*
X168398667Y-55237261D01*
X168398674Y-55237266D01*
X168462244Y-55263597D01*
X168517056Y-55286301D01*
X168517060Y-55286301D01*
X168517061Y-55286302D01*
X168642728Y-55311300D01*
X168642731Y-55311300D01*
X168642732Y-55311300D01*
X168770869Y-55311300D01*
X169361567Y-55311300D01*
X169428606Y-55330985D01*
X169474361Y-55383789D01*
X169479272Y-55396294D01*
X169490484Y-55430128D01*
X169490487Y-55430136D01*
X169506475Y-55456056D01*
X169582588Y-55579456D01*
X169706644Y-55703512D01*
X169855966Y-55795614D01*
X170022503Y-55850799D01*
X170125291Y-55861300D01*
X170750308Y-55861299D01*
X170750316Y-55861298D01*
X170750319Y-55861298D01*
X170806602Y-55855548D01*
X170853097Y-55850799D01*
X171019634Y-55795614D01*
X171168956Y-55703512D01*
X171262619Y-55609849D01*
X171323942Y-55576364D01*
X171393634Y-55581348D01*
X171437981Y-55609849D01*
X171531644Y-55703512D01*
X171680966Y-55795614D01*
X171847503Y-55850799D01*
X171950291Y-55861300D01*
X172575308Y-55861299D01*
X172575316Y-55861298D01*
X172575319Y-55861298D01*
X172631602Y-55855548D01*
X172678097Y-55850799D01*
X172844634Y-55795614D01*
X172993956Y-55703512D01*
X173118012Y-55579456D01*
X173210114Y-55430134D01*
X173265299Y-55263597D01*
X173275800Y-55160809D01*
X173275799Y-54517506D01*
X173295483Y-54450468D01*
X173312113Y-54429831D01*
X173686620Y-54055325D01*
X173747942Y-54021841D01*
X173817634Y-54026825D01*
X173873567Y-54068697D01*
X173897984Y-54134161D01*
X173898300Y-54143007D01*
X173898300Y-54788584D01*
X173878615Y-54855623D01*
X173871249Y-54865895D01*
X173868183Y-54869739D01*
X173772211Y-55022476D01*
X173712631Y-55192745D01*
X173712630Y-55192750D01*
X173692435Y-55371996D01*
X173692435Y-55372003D01*
X173712630Y-55551249D01*
X173712631Y-55551254D01*
X173772211Y-55721523D01*
X173853441Y-55850799D01*
X173868184Y-55874262D01*
X173995738Y-56001816D01*
X174148478Y-56097789D01*
X174318745Y-56157368D01*
X174318750Y-56157369D01*
X174497996Y-56177565D01*
X174498000Y-56177565D01*
X174498004Y-56177565D01*
X174677249Y-56157369D01*
X174677252Y-56157368D01*
X174677255Y-56157368D01*
X174847522Y-56097789D01*
X175000262Y-56001816D01*
X175127816Y-55874262D01*
X175223789Y-55721522D01*
X175283368Y-55551255D01*
X175283369Y-55551249D01*
X175303565Y-55372003D01*
X175303565Y-55371996D01*
X175283369Y-55192750D01*
X175283368Y-55192745D01*
X175274035Y-55166072D01*
X175223789Y-55022478D01*
X175218305Y-55013750D01*
X175199300Y-54947779D01*
X175199300Y-53598441D01*
X175218985Y-53531402D01*
X175271789Y-53485647D01*
X175340947Y-53475703D01*
X175404503Y-53504728D01*
X175419153Y-53519776D01*
X175438116Y-53542883D01*
X175590460Y-53667909D01*
X175590467Y-53667913D01*
X175764266Y-53760811D01*
X175764269Y-53760811D01*
X175764273Y-53760814D01*
X175952868Y-53818024D01*
X176149000Y-53837341D01*
X176345132Y-53818024D01*
X176533727Y-53760814D01*
X176707538Y-53667910D01*
X176784306Y-53604907D01*
X176848613Y-53577596D01*
X176917481Y-53589387D01*
X176969041Y-53636538D01*
X176986925Y-53704081D01*
X176980675Y-53739765D01*
X176954564Y-53818562D01*
X176954563Y-53818566D01*
X176944500Y-53917068D01*
X176944500Y-54775431D01*
X176954563Y-54873933D01*
X177007450Y-55033534D01*
X177007455Y-55033545D01*
X177095716Y-55176637D01*
X177095719Y-55176641D01*
X177103718Y-55184640D01*
X177137203Y-55245963D01*
X177132219Y-55315655D01*
X177103719Y-55360002D01*
X177038471Y-55425250D01*
X176947142Y-55573316D01*
X176947137Y-55573327D01*
X176892413Y-55738473D01*
X176882000Y-55840394D01*
X176882000Y-56852105D01*
X176892413Y-56954026D01*
X176947137Y-57119172D01*
X176947142Y-57119183D01*
X177038471Y-57267249D01*
X177038474Y-57267253D01*
X177161496Y-57390275D01*
X177161500Y-57390278D01*
X177309566Y-57481607D01*
X177309569Y-57481608D01*
X177309575Y-57481612D01*
X177474725Y-57536337D01*
X177576652Y-57546750D01*
X177576657Y-57546750D01*
X178163343Y-57546750D01*
X178163348Y-57546750D01*
X178265275Y-57536337D01*
X178430425Y-57481612D01*
X178578503Y-57390276D01*
X178701526Y-57267253D01*
X178701958Y-57266551D01*
X178702381Y-57266171D01*
X178706007Y-57261586D01*
X178706790Y-57262205D01*
X178753902Y-57219825D01*
X178822864Y-57208599D01*
X178886948Y-57236438D01*
X178908842Y-57261705D01*
X178908993Y-57261586D01*
X178911643Y-57264937D01*
X178913040Y-57266549D01*
X178913472Y-57267249D01*
X178913475Y-57267254D01*
X179036496Y-57390275D01*
X179036500Y-57390278D01*
X179184566Y-57481607D01*
X179184569Y-57481608D01*
X179184575Y-57481612D01*
X179349725Y-57536337D01*
X179451652Y-57546750D01*
X179451657Y-57546750D01*
X180038343Y-57546750D01*
X180038348Y-57546750D01*
X180140275Y-57536337D01*
X180305425Y-57481612D01*
X180453503Y-57390276D01*
X180576526Y-57267253D01*
X180667862Y-57119175D01*
X180722587Y-56954025D01*
X180733000Y-56852098D01*
X180733000Y-56329557D01*
X180752685Y-56262518D01*
X180769315Y-56241880D01*
X181309528Y-55701666D01*
X181351008Y-55675606D01*
X181350746Y-55675062D01*
X181355581Y-55672733D01*
X181356265Y-55672303D01*
X181357022Y-55672039D01*
X181509762Y-55576066D01*
X181637316Y-55448512D01*
X181733289Y-55295772D01*
X181792868Y-55125505D01*
X181792868Y-55125503D01*
X181792869Y-55125501D01*
X181792869Y-55125499D01*
X181813065Y-54946253D01*
X181813065Y-54946246D01*
X181792869Y-54767000D01*
X181792868Y-54766995D01*
X181733288Y-54596726D01*
X181651239Y-54466146D01*
X181637316Y-54443988D01*
X181637315Y-54443987D01*
X181633611Y-54438092D01*
X181635209Y-54437087D01*
X181612363Y-54381129D01*
X181625117Y-54312433D01*
X181672987Y-54261538D01*
X181735718Y-54244500D01*
X182815268Y-54244500D01*
X182899812Y-54227682D01*
X182940941Y-54219501D01*
X183059324Y-54170465D01*
X183082805Y-54154774D01*
X183094625Y-54146878D01*
X183094626Y-54146878D01*
X183147934Y-54111258D01*
X183165866Y-54099277D01*
X185455124Y-51810017D01*
X185516447Y-51776533D01*
X185542805Y-51773699D01*
X187531471Y-51773699D01*
X187531472Y-51773699D01*
X187591083Y-51767291D01*
X187725931Y-51716996D01*
X187841146Y-51630746D01*
X187927396Y-51515531D01*
X187977691Y-51380683D01*
X187984100Y-51321073D01*
X187984099Y-48825328D01*
X187977691Y-48765717D01*
X187976973Y-48763793D01*
X187927397Y-48630871D01*
X187927393Y-48630864D01*
X187841147Y-48515655D01*
X187841144Y-48515652D01*
X187725935Y-48429406D01*
X187725928Y-48429402D01*
X187591082Y-48379108D01*
X187591083Y-48379108D01*
X187531483Y-48372701D01*
X187531481Y-48372700D01*
X187531473Y-48372700D01*
X187531465Y-48372700D01*
X187009429Y-48372700D01*
X186942390Y-48353015D01*
X186896635Y-48300211D01*
X186886691Y-48231053D01*
X186915716Y-48167497D01*
X186955627Y-48136980D01*
X187085968Y-48074212D01*
X187136226Y-48050009D01*
X187136226Y-48050008D01*
X187136234Y-48050005D01*
X187346817Y-47906432D01*
X187533650Y-47733077D01*
X187692559Y-47533812D01*
X187819993Y-47313088D01*
X187913108Y-47075837D01*
X187969822Y-46827357D01*
X187978555Y-46710821D01*
X187988868Y-46573204D01*
X187988868Y-46573195D01*
X187969822Y-46319045D01*
X187967687Y-46309692D01*
X187913108Y-46070563D01*
X187819993Y-45833312D01*
X187692559Y-45612588D01*
X187533650Y-45413323D01*
X187346817Y-45239968D01*
X187136234Y-45096395D01*
X187136230Y-45096393D01*
X187136227Y-45096391D01*
X187136226Y-45096390D01*
X186906606Y-44985812D01*
X186906608Y-44985812D01*
X186763570Y-44941691D01*
X186705311Y-44903121D01*
X186677153Y-44839176D01*
X186688037Y-44770159D01*
X186734506Y-44717982D01*
X186763570Y-44704709D01*
X186906604Y-44660589D01*
X187136234Y-44550005D01*
X187346817Y-44406432D01*
X187533650Y-44233077D01*
X187692559Y-44033812D01*
X187819993Y-43813088D01*
X187913108Y-43575837D01*
X187969822Y-43327357D01*
X187983479Y-43145115D01*
X187988868Y-43073204D01*
X187988868Y-43073195D01*
X187969822Y-42819045D01*
X187968343Y-42812567D01*
X187913108Y-42570563D01*
X187819993Y-42333312D01*
X187692559Y-42112588D01*
X187533650Y-41913323D01*
X187346817Y-41739968D01*
X187136234Y-41596395D01*
X187136230Y-41596393D01*
X187136227Y-41596391D01*
X187136226Y-41596390D01*
X186906606Y-41485812D01*
X186906608Y-41485812D01*
X186798739Y-41452539D01*
X186763569Y-41441690D01*
X186705311Y-41403121D01*
X186677153Y-41339176D01*
X186688037Y-41270159D01*
X186734506Y-41217982D01*
X186763570Y-41204709D01*
X186906604Y-41160589D01*
X187136234Y-41050005D01*
X187346817Y-40906432D01*
X187533650Y-40733077D01*
X187692559Y-40533812D01*
X187819993Y-40313088D01*
X187913108Y-40075837D01*
X187969822Y-39827357D01*
X187983834Y-39640374D01*
X187988868Y-39573204D01*
X187988868Y-39573195D01*
X187972286Y-39351919D01*
X187969822Y-39319043D01*
X187913108Y-39070563D01*
X187819993Y-38833312D01*
X187692559Y-38612588D01*
X187533650Y-38413323D01*
X187346817Y-38239968D01*
X187136234Y-38096395D01*
X187136230Y-38096393D01*
X187136227Y-38096391D01*
X187136226Y-38096390D01*
X186906606Y-37985812D01*
X186906608Y-37985812D01*
X186663066Y-37910689D01*
X186663062Y-37910688D01*
X186663058Y-37910687D01*
X186528452Y-37890398D01*
X186411040Y-37872700D01*
X186411035Y-37872700D01*
X186156165Y-37872700D01*
X186156159Y-37872700D01*
X186012655Y-37894331D01*
X185904142Y-37910687D01*
X185904139Y-37910688D01*
X185904129Y-37910690D01*
X185748103Y-37958817D01*
X185678240Y-37959767D01*
X185623873Y-37928007D01*
X184020592Y-36324726D01*
X183987053Y-36302316D01*
X183914046Y-36253535D01*
X183795663Y-36204499D01*
X183795657Y-36204497D01*
X183669990Y-36179500D01*
X183669988Y-36179500D01*
X181099446Y-36179500D01*
X181032407Y-36159815D01*
X180993908Y-36120597D01*
X180919283Y-35999612D01*
X180919280Y-35999608D01*
X180908134Y-35988462D01*
X180874649Y-35927139D01*
X180879633Y-35857447D01*
X180921505Y-35801514D01*
X180986969Y-35777097D01*
X180995815Y-35776781D01*
X191912592Y-35776781D01*
X191979631Y-35796466D01*
G37*
%TD.AperFunction*%
%TA.AperFunction,Conductor*%
G36*
X184694622Y-47243385D02*
G01*
X184740377Y-47296189D01*
X184743011Y-47302398D01*
X184747204Y-47313082D01*
X184747207Y-47313088D01*
X184874641Y-47533812D01*
X185033550Y-47733077D01*
X185220383Y-47906432D01*
X185430966Y-48050005D01*
X185430971Y-48050007D01*
X185430972Y-48050008D01*
X185430973Y-48050009D01*
X185555726Y-48110086D01*
X185611572Y-48136980D01*
X185663432Y-48183802D01*
X185681745Y-48251229D01*
X185660697Y-48317853D01*
X185606971Y-48362521D01*
X185557771Y-48372700D01*
X185035729Y-48372700D01*
X185035723Y-48372701D01*
X184976116Y-48379108D01*
X184841271Y-48429402D01*
X184841264Y-48429406D01*
X184726055Y-48515652D01*
X184726052Y-48515655D01*
X184639806Y-48630864D01*
X184639802Y-48630871D01*
X184589508Y-48765717D01*
X184586508Y-48793626D01*
X184583101Y-48825323D01*
X184583100Y-48825335D01*
X184583100Y-50790788D01*
X184563415Y-50857827D01*
X184546781Y-50878469D01*
X182518070Y-52907181D01*
X182456747Y-52940666D01*
X182430389Y-52943500D01*
X181801993Y-52943500D01*
X181734954Y-52923815D01*
X181689199Y-52871011D01*
X181679255Y-52801853D01*
X181696999Y-52753528D01*
X181733288Y-52695773D01*
X181733289Y-52695772D01*
X181792868Y-52525505D01*
X181795452Y-52502570D01*
X181813065Y-52346253D01*
X181813065Y-52346246D01*
X181792869Y-52167000D01*
X181792868Y-52166995D01*
X181733288Y-51996726D01*
X181694082Y-51934330D01*
X181637316Y-51843988D01*
X181509762Y-51716434D01*
X181508613Y-51715712D01*
X181357023Y-51620461D01*
X181186754Y-51560881D01*
X181186749Y-51560880D01*
X181007504Y-51540685D01*
X181007496Y-51540685D01*
X180877812Y-51555296D01*
X180808990Y-51543241D01*
X180758391Y-51497174D01*
X180714026Y-51425247D01*
X180714025Y-51425246D01*
X180714024Y-51425244D01*
X180709548Y-51419584D01*
X180711627Y-51417939D01*
X180684046Y-51367429D01*
X180689030Y-51297737D01*
X180717527Y-51253394D01*
X180794281Y-51176641D01*
X180882549Y-51033537D01*
X180935436Y-50873935D01*
X180945500Y-50775424D01*
X180945500Y-50379558D01*
X180965185Y-50312519D01*
X180981819Y-50291877D01*
X184013677Y-47260019D01*
X184075000Y-47226534D01*
X184101358Y-47223700D01*
X184627583Y-47223700D01*
X184694622Y-47243385D01*
G37*
%TD.AperFunction*%
%TA.AperFunction,Conductor*%
G36*
X171829017Y-37731624D02*
G01*
X171870799Y-37769576D01*
X171872807Y-37767989D01*
X171877288Y-37773656D01*
X172001344Y-37897712D01*
X172150666Y-37989814D01*
X172201452Y-38006642D01*
X172258896Y-38046414D01*
X172285720Y-38110930D01*
X172273405Y-38179706D01*
X172225863Y-38230906D01*
X172220538Y-38233723D01*
X172068842Y-38327289D01*
X171944789Y-38451342D01*
X171852687Y-38600663D01*
X171852685Y-38600668D01*
X171838136Y-38644575D01*
X171797501Y-38767203D01*
X171797501Y-38767204D01*
X171797500Y-38767204D01*
X171787000Y-38869983D01*
X171787000Y-39245500D01*
X171767315Y-39312539D01*
X171714511Y-39358294D01*
X171663000Y-39369500D01*
X169990516Y-39369500D01*
X169927395Y-39352232D01*
X169785396Y-39268255D01*
X169785393Y-39268254D01*
X169627573Y-39222402D01*
X169627567Y-39222401D01*
X169590701Y-39219500D01*
X169590694Y-39219500D01*
X168009306Y-39219500D01*
X168009298Y-39219500D01*
X167972432Y-39222401D01*
X167972426Y-39222402D01*
X167814606Y-39268254D01*
X167814603Y-39268255D01*
X167673137Y-39351917D01*
X167673129Y-39351923D01*
X167556923Y-39468129D01*
X167556917Y-39468137D01*
X167473255Y-39609603D01*
X167473254Y-39609606D01*
X167427402Y-39767426D01*
X167427401Y-39767432D01*
X167424500Y-39804298D01*
X167424500Y-40235701D01*
X167427401Y-40272567D01*
X167427402Y-40272573D01*
X167473254Y-40430393D01*
X167473255Y-40430396D01*
X167556917Y-40571862D01*
X167561702Y-40578031D01*
X167559256Y-40579927D01*
X167585857Y-40628642D01*
X167580873Y-40698334D01*
X167560069Y-40730703D01*
X167561702Y-40731969D01*
X167556917Y-40738137D01*
X167473255Y-40879603D01*
X167473254Y-40879606D01*
X167427402Y-41037426D01*
X167427401Y-41037432D01*
X167424500Y-41074298D01*
X167424500Y-41505701D01*
X167427401Y-41542567D01*
X167427402Y-41542573D01*
X167473254Y-41700393D01*
X167473255Y-41700396D01*
X167473256Y-41700398D01*
X167491203Y-41730745D01*
X167556917Y-41841862D01*
X167561702Y-41848031D01*
X167559256Y-41849927D01*
X167585857Y-41898642D01*
X167580873Y-41968334D01*
X167560069Y-42000703D01*
X167561702Y-42001969D01*
X167556917Y-42008137D01*
X167473255Y-42149603D01*
X167473254Y-42149606D01*
X167427402Y-42307426D01*
X167427401Y-42307432D01*
X167424500Y-42344298D01*
X167424500Y-42775701D01*
X167427401Y-42812567D01*
X167427402Y-42812573D01*
X167473254Y-42970393D01*
X167473255Y-42970396D01*
X167556917Y-43111862D01*
X167561702Y-43118031D01*
X167559256Y-43119927D01*
X167585857Y-43168642D01*
X167580873Y-43238334D01*
X167560069Y-43270703D01*
X167561702Y-43271969D01*
X167556917Y-43278137D01*
X167473255Y-43419603D01*
X167473254Y-43419606D01*
X167427402Y-43577426D01*
X167427401Y-43577432D01*
X167424500Y-43614298D01*
X167424500Y-44045701D01*
X167427401Y-44082567D01*
X167427402Y-44082573D01*
X167473254Y-44240393D01*
X167473255Y-44240396D01*
X167556917Y-44381862D01*
X167556923Y-44381870D01*
X167673129Y-44498076D01*
X167673133Y-44498079D01*
X167673135Y-44498081D01*
X167814602Y-44581744D01*
X167856224Y-44593836D01*
X167972426Y-44627597D01*
X167972429Y-44627597D01*
X167972431Y-44627598D01*
X168009306Y-44630500D01*
X168009314Y-44630500D01*
X169592392Y-44630500D01*
X169659431Y-44650185D01*
X169680073Y-44666819D01*
X169848781Y-44835527D01*
X169882266Y-44896850D01*
X169885100Y-44923208D01*
X169885100Y-45482069D01*
X169865415Y-45549108D01*
X169812611Y-45594863D01*
X169743453Y-45604807D01*
X169726505Y-45601145D01*
X169627573Y-45572402D01*
X169627567Y-45572401D01*
X169590701Y-45569500D01*
X169590694Y-45569500D01*
X168009306Y-45569500D01*
X168009298Y-45569500D01*
X167972436Y-45572401D01*
X167972424Y-45572403D01*
X167931163Y-45584390D01*
X167861293Y-45584189D01*
X167855618Y-45582355D01*
X167819254Y-45569631D01*
X167640004Y-45549435D01*
X167639996Y-45549435D01*
X167460750Y-45569630D01*
X167460745Y-45569631D01*
X167290476Y-45629211D01*
X167137737Y-45725184D01*
X167128181Y-45734741D01*
X167066858Y-45768226D01*
X166997166Y-45763242D01*
X166941233Y-45721370D01*
X166916816Y-45655906D01*
X166916500Y-45647060D01*
X166916500Y-43609159D01*
X166912768Y-43590393D01*
X166912768Y-43590392D01*
X166885738Y-43454507D01*
X166885737Y-43454506D01*
X166885737Y-43454502D01*
X166856741Y-43384500D01*
X166856741Y-43384499D01*
X166825397Y-43308827D01*
X166825390Y-43308814D01*
X166737790Y-43177712D01*
X166705193Y-43145115D01*
X166626289Y-43066211D01*
X166486736Y-42926658D01*
X166456486Y-42877294D01*
X166450682Y-42859432D01*
X166435179Y-42811716D01*
X166435176Y-42811710D01*
X166425112Y-42794277D01*
X166408500Y-42732279D01*
X166408500Y-40260940D01*
X166428185Y-40193901D01*
X166444819Y-40173259D01*
X168301259Y-38316819D01*
X168362582Y-38283334D01*
X168388940Y-38280500D01*
X168721158Y-38280500D01*
X170372633Y-38280500D01*
X170423069Y-38291221D01*
X170535192Y-38341142D01*
X170535197Y-38341144D01*
X170720354Y-38380500D01*
X170720355Y-38380500D01*
X170909644Y-38380500D01*
X170909646Y-38380500D01*
X171094803Y-38341144D01*
X171267730Y-38264151D01*
X171420871Y-38152888D01*
X171547533Y-38012216D01*
X171579081Y-37957572D01*
X171642177Y-37848288D01*
X171642177Y-37848286D01*
X171642179Y-37848284D01*
X171656378Y-37804582D01*
X171695813Y-37746910D01*
X171760171Y-37719711D01*
X171829017Y-37731624D01*
G37*
%TD.AperFunction*%
%TA.AperFunction,Conductor*%
G36*
X183352150Y-37500185D02*
G01*
X183372792Y-37516819D01*
X184673473Y-38817500D01*
X184706958Y-38878823D01*
X184701974Y-38948515D01*
X184701220Y-38950483D01*
X184659727Y-39056206D01*
X184654093Y-39070562D01*
X184654089Y-39070574D01*
X184597377Y-39319045D01*
X184578332Y-39573195D01*
X184578332Y-39573204D01*
X184597377Y-39827354D01*
X184649131Y-40054104D01*
X184654092Y-40075837D01*
X184719895Y-40243500D01*
X184747208Y-40313090D01*
X184760127Y-40335467D01*
X184874641Y-40533812D01*
X185033550Y-40733077D01*
X185220383Y-40906432D01*
X185430966Y-41050005D01*
X185430971Y-41050007D01*
X185430972Y-41050008D01*
X185430973Y-41050009D01*
X185543991Y-41104435D01*
X185660592Y-41160587D01*
X185660593Y-41160587D01*
X185660596Y-41160589D01*
X185737177Y-41184211D01*
X185803629Y-41204709D01*
X185861888Y-41243280D01*
X185890046Y-41307224D01*
X185879162Y-41376241D01*
X185832693Y-41428418D01*
X185803629Y-41441691D01*
X185660592Y-41485812D01*
X185430973Y-41596390D01*
X185430972Y-41596391D01*
X185220382Y-41739968D01*
X185033552Y-41913321D01*
X185033550Y-41913323D01*
X184874641Y-42112588D01*
X184747208Y-42333309D01*
X184654092Y-42570562D01*
X184654090Y-42570569D01*
X184597377Y-42819045D01*
X184578332Y-43073195D01*
X184578332Y-43073204D01*
X184597377Y-43327355D01*
X184641554Y-43520907D01*
X184637281Y-43590646D01*
X184595982Y-43647004D01*
X184530770Y-43672087D01*
X184520663Y-43672500D01*
X181399946Y-43672500D01*
X181332907Y-43652815D01*
X181294408Y-43613597D01*
X181219783Y-43492612D01*
X181219780Y-43492608D01*
X181100891Y-43373719D01*
X181100887Y-43373716D01*
X180957795Y-43285455D01*
X180957789Y-43285452D01*
X180957787Y-43285451D01*
X180798185Y-43232564D01*
X180798183Y-43232563D01*
X180699681Y-43222500D01*
X180699674Y-43222500D01*
X180166326Y-43222500D01*
X180166318Y-43222500D01*
X180067816Y-43232563D01*
X180067815Y-43232564D01*
X179988719Y-43258773D01*
X179908215Y-43285450D01*
X179908204Y-43285455D01*
X179765112Y-43373716D01*
X179765108Y-43373719D01*
X179646219Y-43492608D01*
X179646216Y-43492612D01*
X179557955Y-43635704D01*
X179557950Y-43635715D01*
X179552284Y-43652815D01*
X179505064Y-43795315D01*
X179505064Y-43795316D01*
X179505063Y-43795316D01*
X179495000Y-43893818D01*
X179495000Y-44752181D01*
X179505064Y-44850685D01*
X179509958Y-44865455D01*
X179512358Y-44935283D01*
X179476626Y-44995324D01*
X179458223Y-45009451D01*
X179403280Y-45043974D01*
X179336043Y-45062974D01*
X179269208Y-45042606D01*
X179223994Y-44989338D01*
X179214757Y-44920082D01*
X179219602Y-44899976D01*
X179235936Y-44850685D01*
X179246000Y-44752174D01*
X179246000Y-43893826D01*
X179235936Y-43795315D01*
X179183049Y-43635713D01*
X179183045Y-43635707D01*
X179183044Y-43635704D01*
X179094783Y-43492612D01*
X179094780Y-43492608D01*
X178975891Y-43373719D01*
X178975887Y-43373716D01*
X178832795Y-43285455D01*
X178832789Y-43285452D01*
X178832787Y-43285451D01*
X178673185Y-43232564D01*
X178673183Y-43232563D01*
X178574681Y-43222500D01*
X178574674Y-43222500D01*
X178041326Y-43222500D01*
X178041318Y-43222500D01*
X177942816Y-43232563D01*
X177942812Y-43232564D01*
X177851503Y-43262821D01*
X177781675Y-43265222D01*
X177721633Y-43229490D01*
X177690441Y-43166970D01*
X177688500Y-43145115D01*
X177688500Y-42381307D01*
X177708185Y-42314268D01*
X177724815Y-42293630D01*
X177887627Y-42130817D01*
X177948950Y-42097333D01*
X177975308Y-42094499D01*
X178517002Y-42094499D01*
X178517008Y-42094499D01*
X178619797Y-42083999D01*
X178786334Y-42028814D01*
X178935656Y-41936712D01*
X179059712Y-41812656D01*
X179151814Y-41663334D01*
X179159052Y-41641488D01*
X179198821Y-41584047D01*
X179263336Y-41557222D01*
X179332112Y-41569535D01*
X179372610Y-41601829D01*
X179375116Y-41604883D01*
X179527460Y-41729909D01*
X179527467Y-41729913D01*
X179701266Y-41822811D01*
X179701269Y-41822811D01*
X179701273Y-41822814D01*
X179889868Y-41880024D01*
X180086000Y-41899341D01*
X180282132Y-41880024D01*
X180470727Y-41822814D01*
X180475373Y-41820331D01*
X180621300Y-41742331D01*
X180644538Y-41729910D01*
X180796883Y-41604883D01*
X180921910Y-41452538D01*
X181014814Y-41278727D01*
X181072024Y-41090132D01*
X181091341Y-40894000D01*
X181072024Y-40697868D01*
X181014814Y-40509273D01*
X181014811Y-40509269D01*
X181014811Y-40509266D01*
X180921913Y-40335467D01*
X180921909Y-40335460D01*
X180796884Y-40183118D01*
X180781833Y-40170765D01*
X180742500Y-40113019D01*
X180736500Y-40074914D01*
X180736500Y-39932509D01*
X180756185Y-39865470D01*
X180789463Y-39832804D01*
X180788834Y-39832009D01*
X180794501Y-39827527D01*
X180794500Y-39827527D01*
X180794503Y-39827526D01*
X180917526Y-39704503D01*
X181008862Y-39556425D01*
X181063587Y-39391275D01*
X181074000Y-39289348D01*
X181074000Y-38277652D01*
X181063587Y-38175725D01*
X181008862Y-38010575D01*
X181008858Y-38010568D01*
X181008857Y-38010566D01*
X180917528Y-37862500D01*
X180917525Y-37862496D01*
X180905031Y-37850002D01*
X180871546Y-37788679D01*
X180876530Y-37718987D01*
X180905031Y-37674640D01*
X180919281Y-37660391D01*
X180919283Y-37660388D01*
X180993908Y-37539403D01*
X181045856Y-37492678D01*
X181099446Y-37480500D01*
X183285111Y-37480500D01*
X183352150Y-37500185D01*
G37*
%TD.AperFunction*%
%TA.AperFunction,Conductor*%
G36*
X173330039Y-43050185D02*
G01*
X173375794Y-43102989D01*
X173387000Y-43154500D01*
X173387000Y-43395701D01*
X173389901Y-43432567D01*
X173389902Y-43432573D01*
X173435754Y-43590393D01*
X173435755Y-43590396D01*
X173519417Y-43731862D01*
X173519423Y-43731870D01*
X173560466Y-43772913D01*
X173593951Y-43834236D01*
X173588967Y-43903928D01*
X173547095Y-43959861D01*
X173481631Y-43984278D01*
X173413358Y-43969426D01*
X173407689Y-43966133D01*
X173381840Y-43950190D01*
X173381834Y-43950186D01*
X173284052Y-43917784D01*
X173265101Y-43911504D01*
X173216425Y-43881479D01*
X172577127Y-43242181D01*
X172543642Y-43180858D01*
X172548626Y-43111166D01*
X172590498Y-43055233D01*
X172655962Y-43030816D01*
X172664808Y-43030500D01*
X172671158Y-43030500D01*
X172828842Y-43030500D01*
X173263000Y-43030500D01*
X173330039Y-43050185D01*
G37*
%TD.AperFunction*%
%TA.AperFunction,Conductor*%
G36*
X177211224Y-35796466D02*
G01*
X177256979Y-35849270D01*
X177266923Y-35918428D01*
X177237898Y-35981984D01*
X177231866Y-35988462D01*
X177220719Y-35999608D01*
X177220716Y-35999612D01*
X177132455Y-36142704D01*
X177132451Y-36142713D01*
X177079564Y-36302315D01*
X177079564Y-36302316D01*
X177079563Y-36302316D01*
X177069500Y-36400818D01*
X177069500Y-37259181D01*
X177079563Y-37357683D01*
X177132450Y-37517284D01*
X177132455Y-37517295D01*
X177220716Y-37660387D01*
X177220719Y-37660391D01*
X177326682Y-37766354D01*
X177360167Y-37827677D01*
X177355183Y-37897369D01*
X177344540Y-37919131D01*
X177288141Y-38010568D01*
X177288137Y-38010577D01*
X177233413Y-38175723D01*
X177223000Y-38277644D01*
X177223000Y-39289355D01*
X177233413Y-39391276D01*
X177288137Y-39556422D01*
X177288142Y-39556433D01*
X177379471Y-39704499D01*
X177379474Y-39704503D01*
X177412120Y-39737149D01*
X177445605Y-39798472D01*
X177440621Y-39868164D01*
X177412119Y-39912513D01*
X177379679Y-39944952D01*
X177318355Y-39978436D01*
X177248664Y-39973450D01*
X177204318Y-39944950D01*
X177110657Y-39851289D01*
X177110656Y-39851288D01*
X176974703Y-39767432D01*
X176961336Y-39759187D01*
X176961331Y-39759185D01*
X176957996Y-39758080D01*
X176794797Y-39704001D01*
X176794795Y-39704000D01*
X176692010Y-39693500D01*
X176066998Y-39693500D01*
X176066980Y-39693501D01*
X175964203Y-39704000D01*
X175964200Y-39704001D01*
X175801003Y-39758080D01*
X175731175Y-39760482D01*
X175671133Y-39724750D01*
X175639940Y-39662230D01*
X175637999Y-39640374D01*
X175637999Y-38869998D01*
X175637998Y-38869981D01*
X175627499Y-38767203D01*
X175627498Y-38767200D01*
X175616652Y-38734468D01*
X175572314Y-38600666D01*
X175480212Y-38451344D01*
X175356156Y-38327288D01*
X175356155Y-38327287D01*
X175235172Y-38252665D01*
X175195274Y-38213098D01*
X175185873Y-38198137D01*
X175127816Y-38105738D01*
X175000262Y-37978184D01*
X174969440Y-37958817D01*
X174847523Y-37882211D01*
X174677254Y-37822631D01*
X174677249Y-37822630D01*
X174498004Y-37802435D01*
X174497996Y-37802435D01*
X174318750Y-37822630D01*
X174318745Y-37822631D01*
X174148476Y-37882211D01*
X173995737Y-37978184D01*
X173868184Y-38105737D01*
X173772210Y-38258478D01*
X173757069Y-38301751D01*
X173716347Y-38358527D01*
X173651395Y-38384275D01*
X173582833Y-38370819D01*
X173552346Y-38348478D01*
X173531157Y-38327289D01*
X173531156Y-38327288D01*
X173389587Y-38239968D01*
X173381836Y-38235187D01*
X173381831Y-38235185D01*
X173368918Y-38230906D01*
X173315296Y-38213137D01*
X173257852Y-38173365D01*
X173231029Y-38108849D01*
X173243344Y-38040073D01*
X173289205Y-37989893D01*
X173289332Y-37989814D01*
X173289334Y-37989814D01*
X173438656Y-37897712D01*
X173562712Y-37773656D01*
X173654814Y-37624334D01*
X173709999Y-37457797D01*
X173720500Y-37355009D01*
X173720499Y-36304992D01*
X173709999Y-36202203D01*
X173654814Y-36035666D01*
X173611767Y-35965876D01*
X173593328Y-35898485D01*
X173614251Y-35831822D01*
X173667893Y-35787052D01*
X173717307Y-35776781D01*
X177144185Y-35776781D01*
X177211224Y-35796466D01*
G37*
%TD.AperFunction*%
%TD*%
M02*
