%TF.GenerationSoftware,KiCad,Pcbnew,8.0.1*%
%TF.CreationDate,2024-04-28T14:47:00+02:00*%
%TF.ProjectId,2in-2out_2.0,32696e2d-326f-4757-945f-322e302e6b69,rev?*%
%TF.SameCoordinates,Original*%
%TF.FileFunction,Legend,Top*%
%TF.FilePolarity,Positive*%
%FSLAX46Y46*%
G04 Gerber Fmt 4.6, Leading zero omitted, Abs format (unit mm)*
G04 Created by KiCad (PCBNEW 8.0.1) date 2024-04-28 14:47:00*
%MOMM*%
%LPD*%
G01*
G04 APERTURE LIST*
%ADD10C,0.150000*%
%ADD11C,0.200000*%
%ADD12C,0.127000*%
%ADD13C,0.120000*%
G04 APERTURE END LIST*
D10*
X147606476Y-45928208D02*
X147796952Y-46594875D01*
X147796952Y-46594875D02*
X147987428Y-46118684D01*
X147987428Y-46118684D02*
X148177904Y-46594875D01*
X148177904Y-46594875D02*
X148368380Y-45928208D01*
X148654095Y-45928208D02*
X148844571Y-46594875D01*
X148844571Y-46594875D02*
X149035047Y-46118684D01*
X149035047Y-46118684D02*
X149225523Y-46594875D01*
X149225523Y-46594875D02*
X149415999Y-45928208D01*
X149701714Y-45928208D02*
X149892190Y-46594875D01*
X149892190Y-46594875D02*
X150082666Y-46118684D01*
X150082666Y-46118684D02*
X150273142Y-46594875D01*
X150273142Y-46594875D02*
X150463618Y-45928208D01*
X150844571Y-46499636D02*
X150892190Y-46547256D01*
X150892190Y-46547256D02*
X150844571Y-46594875D01*
X150844571Y-46594875D02*
X150796952Y-46547256D01*
X150796952Y-46547256D02*
X150844571Y-46499636D01*
X150844571Y-46499636D02*
X150844571Y-46594875D01*
X151273142Y-46547256D02*
X151368380Y-46594875D01*
X151368380Y-46594875D02*
X151558856Y-46594875D01*
X151558856Y-46594875D02*
X151654094Y-46547256D01*
X151654094Y-46547256D02*
X151701713Y-46452017D01*
X151701713Y-46452017D02*
X151701713Y-46404398D01*
X151701713Y-46404398D02*
X151654094Y-46309160D01*
X151654094Y-46309160D02*
X151558856Y-46261541D01*
X151558856Y-46261541D02*
X151415999Y-46261541D01*
X151415999Y-46261541D02*
X151320761Y-46213922D01*
X151320761Y-46213922D02*
X151273142Y-46118684D01*
X151273142Y-46118684D02*
X151273142Y-46071065D01*
X151273142Y-46071065D02*
X151320761Y-45975827D01*
X151320761Y-45975827D02*
X151415999Y-45928208D01*
X151415999Y-45928208D02*
X151558856Y-45928208D01*
X151558856Y-45928208D02*
X151654094Y-45975827D01*
X152511237Y-46547256D02*
X152415999Y-46594875D01*
X152415999Y-46594875D02*
X152225523Y-46594875D01*
X152225523Y-46594875D02*
X152130285Y-46547256D01*
X152130285Y-46547256D02*
X152082666Y-46452017D01*
X152082666Y-46452017D02*
X152082666Y-46071065D01*
X152082666Y-46071065D02*
X152130285Y-45975827D01*
X152130285Y-45975827D02*
X152225523Y-45928208D01*
X152225523Y-45928208D02*
X152415999Y-45928208D01*
X152415999Y-45928208D02*
X152511237Y-45975827D01*
X152511237Y-45975827D02*
X152558856Y-46071065D01*
X152558856Y-46071065D02*
X152558856Y-46166303D01*
X152558856Y-46166303D02*
X152082666Y-46261541D01*
X153130285Y-46594875D02*
X153035047Y-46547256D01*
X153035047Y-46547256D02*
X152987428Y-46452017D01*
X152987428Y-46452017D02*
X152987428Y-45594875D01*
X153368381Y-45928208D02*
X153749333Y-45928208D01*
X153511238Y-46594875D02*
X153511238Y-45737732D01*
X153511238Y-45737732D02*
X153558857Y-45642494D01*
X153558857Y-45642494D02*
X153654095Y-45594875D01*
X153654095Y-45594875D02*
X153749333Y-45594875D01*
X154082667Y-46594875D02*
X154082667Y-45594875D01*
X154082667Y-45975827D02*
X154177905Y-45928208D01*
X154177905Y-45928208D02*
X154368381Y-45928208D01*
X154368381Y-45928208D02*
X154463619Y-45975827D01*
X154463619Y-45975827D02*
X154511238Y-46023446D01*
X154511238Y-46023446D02*
X154558857Y-46118684D01*
X154558857Y-46118684D02*
X154558857Y-46404398D01*
X154558857Y-46404398D02*
X154511238Y-46499636D01*
X154511238Y-46499636D02*
X154463619Y-46547256D01*
X154463619Y-46547256D02*
X154368381Y-46594875D01*
X154368381Y-46594875D02*
X154177905Y-46594875D01*
X154177905Y-46594875D02*
X154082667Y-46547256D01*
X155416000Y-45928208D02*
X155416000Y-46594875D01*
X154987429Y-45928208D02*
X154987429Y-46452017D01*
X154987429Y-46452017D02*
X155035048Y-46547256D01*
X155035048Y-46547256D02*
X155130286Y-46594875D01*
X155130286Y-46594875D02*
X155273143Y-46594875D01*
X155273143Y-46594875D02*
X155368381Y-46547256D01*
X155368381Y-46547256D02*
X155416000Y-46499636D01*
X155844572Y-46547256D02*
X155939810Y-46594875D01*
X155939810Y-46594875D02*
X156130286Y-46594875D01*
X156130286Y-46594875D02*
X156225524Y-46547256D01*
X156225524Y-46547256D02*
X156273143Y-46452017D01*
X156273143Y-46452017D02*
X156273143Y-46404398D01*
X156273143Y-46404398D02*
X156225524Y-46309160D01*
X156225524Y-46309160D02*
X156130286Y-46261541D01*
X156130286Y-46261541D02*
X155987429Y-46261541D01*
X155987429Y-46261541D02*
X155892191Y-46213922D01*
X155892191Y-46213922D02*
X155844572Y-46118684D01*
X155844572Y-46118684D02*
X155844572Y-46071065D01*
X155844572Y-46071065D02*
X155892191Y-45975827D01*
X155892191Y-45975827D02*
X155987429Y-45928208D01*
X155987429Y-45928208D02*
X156130286Y-45928208D01*
X156130286Y-45928208D02*
X156225524Y-45975827D01*
X156701715Y-46499636D02*
X156749334Y-46547256D01*
X156749334Y-46547256D02*
X156701715Y-46594875D01*
X156701715Y-46594875D02*
X156654096Y-46547256D01*
X156654096Y-46547256D02*
X156701715Y-46499636D01*
X156701715Y-46499636D02*
X156701715Y-46594875D01*
X157320762Y-46594875D02*
X157225524Y-46547256D01*
X157225524Y-46547256D02*
X157177905Y-46499636D01*
X157177905Y-46499636D02*
X157130286Y-46404398D01*
X157130286Y-46404398D02*
X157130286Y-46118684D01*
X157130286Y-46118684D02*
X157177905Y-46023446D01*
X157177905Y-46023446D02*
X157225524Y-45975827D01*
X157225524Y-45975827D02*
X157320762Y-45928208D01*
X157320762Y-45928208D02*
X157463619Y-45928208D01*
X157463619Y-45928208D02*
X157558857Y-45975827D01*
X157558857Y-45975827D02*
X157606476Y-46023446D01*
X157606476Y-46023446D02*
X157654095Y-46118684D01*
X157654095Y-46118684D02*
X157654095Y-46404398D01*
X157654095Y-46404398D02*
X157606476Y-46499636D01*
X157606476Y-46499636D02*
X157558857Y-46547256D01*
X157558857Y-46547256D02*
X157463619Y-46594875D01*
X157463619Y-46594875D02*
X157320762Y-46594875D01*
X158082667Y-46594875D02*
X158082667Y-45928208D01*
X158082667Y-46118684D02*
X158130286Y-46023446D01*
X158130286Y-46023446D02*
X158177905Y-45975827D01*
X158177905Y-45975827D02*
X158273143Y-45928208D01*
X158273143Y-45928208D02*
X158368381Y-45928208D01*
X159130286Y-45928208D02*
X159130286Y-46737732D01*
X159130286Y-46737732D02*
X159082667Y-46832970D01*
X159082667Y-46832970D02*
X159035048Y-46880589D01*
X159035048Y-46880589D02*
X158939810Y-46928208D01*
X158939810Y-46928208D02*
X158796953Y-46928208D01*
X158796953Y-46928208D02*
X158701715Y-46880589D01*
X159130286Y-46547256D02*
X159035048Y-46594875D01*
X159035048Y-46594875D02*
X158844572Y-46594875D01*
X158844572Y-46594875D02*
X158749334Y-46547256D01*
X158749334Y-46547256D02*
X158701715Y-46499636D01*
X158701715Y-46499636D02*
X158654096Y-46404398D01*
X158654096Y-46404398D02*
X158654096Y-46118684D01*
X158654096Y-46118684D02*
X158701715Y-46023446D01*
X158701715Y-46023446D02*
X158749334Y-45975827D01*
X158749334Y-45975827D02*
X158844572Y-45928208D01*
X158844572Y-45928208D02*
X159035048Y-45928208D01*
X159035048Y-45928208D02*
X159130286Y-45975827D01*
X149439809Y-48204819D02*
X149439809Y-47204819D01*
X150011237Y-48204819D02*
X149582666Y-47633390D01*
X150011237Y-47204819D02*
X149439809Y-47776247D01*
X150582666Y-48204819D02*
X150487428Y-48157200D01*
X150487428Y-48157200D02*
X150439809Y-48109580D01*
X150439809Y-48109580D02*
X150392190Y-48014342D01*
X150392190Y-48014342D02*
X150392190Y-47728628D01*
X150392190Y-47728628D02*
X150439809Y-47633390D01*
X150439809Y-47633390D02*
X150487428Y-47585771D01*
X150487428Y-47585771D02*
X150582666Y-47538152D01*
X150582666Y-47538152D02*
X150725523Y-47538152D01*
X150725523Y-47538152D02*
X150820761Y-47585771D01*
X150820761Y-47585771D02*
X150868380Y-47633390D01*
X150868380Y-47633390D02*
X150915999Y-47728628D01*
X150915999Y-47728628D02*
X150915999Y-48014342D01*
X150915999Y-48014342D02*
X150868380Y-48109580D01*
X150868380Y-48109580D02*
X150820761Y-48157200D01*
X150820761Y-48157200D02*
X150725523Y-48204819D01*
X150725523Y-48204819D02*
X150582666Y-48204819D01*
X151344571Y-48204819D02*
X151344571Y-47538152D01*
X151344571Y-47633390D02*
X151392190Y-47585771D01*
X151392190Y-47585771D02*
X151487428Y-47538152D01*
X151487428Y-47538152D02*
X151630285Y-47538152D01*
X151630285Y-47538152D02*
X151725523Y-47585771D01*
X151725523Y-47585771D02*
X151773142Y-47681009D01*
X151773142Y-47681009D02*
X151773142Y-48204819D01*
X151773142Y-47681009D02*
X151820761Y-47585771D01*
X151820761Y-47585771D02*
X151915999Y-47538152D01*
X151915999Y-47538152D02*
X152058856Y-47538152D01*
X152058856Y-47538152D02*
X152154095Y-47585771D01*
X152154095Y-47585771D02*
X152201714Y-47681009D01*
X152201714Y-47681009D02*
X152201714Y-48204819D01*
X152677904Y-48204819D02*
X152677904Y-47204819D01*
X152677904Y-47585771D02*
X152773142Y-47538152D01*
X152773142Y-47538152D02*
X152963618Y-47538152D01*
X152963618Y-47538152D02*
X153058856Y-47585771D01*
X153058856Y-47585771D02*
X153106475Y-47633390D01*
X153106475Y-47633390D02*
X153154094Y-47728628D01*
X153154094Y-47728628D02*
X153154094Y-48014342D01*
X153154094Y-48014342D02*
X153106475Y-48109580D01*
X153106475Y-48109580D02*
X153058856Y-48157200D01*
X153058856Y-48157200D02*
X152963618Y-48204819D01*
X152963618Y-48204819D02*
X152773142Y-48204819D01*
X152773142Y-48204819D02*
X152677904Y-48157200D01*
X153582666Y-48204819D02*
X153582666Y-47538152D01*
X153582666Y-47204819D02*
X153535047Y-47252438D01*
X153535047Y-47252438D02*
X153582666Y-47300057D01*
X153582666Y-47300057D02*
X153630285Y-47252438D01*
X153630285Y-47252438D02*
X153582666Y-47204819D01*
X153582666Y-47204819D02*
X153582666Y-47300057D01*
X154487427Y-48204819D02*
X154487427Y-47681009D01*
X154487427Y-47681009D02*
X154439808Y-47585771D01*
X154439808Y-47585771D02*
X154344570Y-47538152D01*
X154344570Y-47538152D02*
X154154094Y-47538152D01*
X154154094Y-47538152D02*
X154058856Y-47585771D01*
X154487427Y-48157200D02*
X154392189Y-48204819D01*
X154392189Y-48204819D02*
X154154094Y-48204819D01*
X154154094Y-48204819D02*
X154058856Y-48157200D01*
X154058856Y-48157200D02*
X154011237Y-48061961D01*
X154011237Y-48061961D02*
X154011237Y-47966723D01*
X154011237Y-47966723D02*
X154058856Y-47871485D01*
X154058856Y-47871485D02*
X154154094Y-47823866D01*
X154154094Y-47823866D02*
X154392189Y-47823866D01*
X154392189Y-47823866D02*
X154487427Y-47776247D01*
X154963618Y-48204819D02*
X154963618Y-47204819D01*
X155058856Y-47823866D02*
X155344570Y-48204819D01*
X155344570Y-47538152D02*
X154963618Y-47919104D01*
X155630285Y-47538152D02*
X156011237Y-47538152D01*
X155773142Y-47204819D02*
X155773142Y-48061961D01*
X155773142Y-48061961D02*
X155820761Y-48157200D01*
X155820761Y-48157200D02*
X155915999Y-48204819D01*
X155915999Y-48204819D02*
X156011237Y-48204819D01*
X156487428Y-48204819D02*
X156392190Y-48157200D01*
X156392190Y-48157200D02*
X156344571Y-48109580D01*
X156344571Y-48109580D02*
X156296952Y-48014342D01*
X156296952Y-48014342D02*
X156296952Y-47728628D01*
X156296952Y-47728628D02*
X156344571Y-47633390D01*
X156344571Y-47633390D02*
X156392190Y-47585771D01*
X156392190Y-47585771D02*
X156487428Y-47538152D01*
X156487428Y-47538152D02*
X156630285Y-47538152D01*
X156630285Y-47538152D02*
X156725523Y-47585771D01*
X156725523Y-47585771D02*
X156773142Y-47633390D01*
X156773142Y-47633390D02*
X156820761Y-47728628D01*
X156820761Y-47728628D02*
X156820761Y-48014342D01*
X156820761Y-48014342D02*
X156773142Y-48109580D01*
X156773142Y-48109580D02*
X156725523Y-48157200D01*
X156725523Y-48157200D02*
X156630285Y-48204819D01*
X156630285Y-48204819D02*
X156487428Y-48204819D01*
X157249333Y-48204819D02*
X157249333Y-47538152D01*
X157249333Y-47728628D02*
X157296952Y-47633390D01*
X157296952Y-47633390D02*
X157344571Y-47585771D01*
X157344571Y-47585771D02*
X157439809Y-47538152D01*
X157439809Y-47538152D02*
X157535047Y-47538152D01*
X148915999Y-49148096D02*
X148915999Y-49814763D01*
X148677904Y-48767144D02*
X148439809Y-49481429D01*
X148439809Y-49481429D02*
X149058856Y-49481429D01*
X149439809Y-49814763D02*
X149439809Y-49148096D01*
X149439809Y-48814763D02*
X149392190Y-48862382D01*
X149392190Y-48862382D02*
X149439809Y-48910001D01*
X149439809Y-48910001D02*
X149487428Y-48862382D01*
X149487428Y-48862382D02*
X149439809Y-48814763D01*
X149439809Y-48814763D02*
X149439809Y-48910001D01*
X149915999Y-49148096D02*
X149915999Y-49814763D01*
X149915999Y-49243334D02*
X149963618Y-49195715D01*
X149963618Y-49195715D02*
X150058856Y-49148096D01*
X150058856Y-49148096D02*
X150201713Y-49148096D01*
X150201713Y-49148096D02*
X150296951Y-49195715D01*
X150296951Y-49195715D02*
X150344570Y-49290953D01*
X150344570Y-49290953D02*
X150344570Y-49814763D01*
X151535047Y-48910001D02*
X151582666Y-48862382D01*
X151582666Y-48862382D02*
X151677904Y-48814763D01*
X151677904Y-48814763D02*
X151915999Y-48814763D01*
X151915999Y-48814763D02*
X152011237Y-48862382D01*
X152011237Y-48862382D02*
X152058856Y-48910001D01*
X152058856Y-48910001D02*
X152106475Y-49005239D01*
X152106475Y-49005239D02*
X152106475Y-49100477D01*
X152106475Y-49100477D02*
X152058856Y-49243334D01*
X152058856Y-49243334D02*
X151487428Y-49814763D01*
X151487428Y-49814763D02*
X152106475Y-49814763D01*
X152677904Y-49814763D02*
X152582666Y-49767144D01*
X152582666Y-49767144D02*
X152535047Y-49719524D01*
X152535047Y-49719524D02*
X152487428Y-49624286D01*
X152487428Y-49624286D02*
X152487428Y-49338572D01*
X152487428Y-49338572D02*
X152535047Y-49243334D01*
X152535047Y-49243334D02*
X152582666Y-49195715D01*
X152582666Y-49195715D02*
X152677904Y-49148096D01*
X152677904Y-49148096D02*
X152820761Y-49148096D01*
X152820761Y-49148096D02*
X152915999Y-49195715D01*
X152915999Y-49195715D02*
X152963618Y-49243334D01*
X152963618Y-49243334D02*
X153011237Y-49338572D01*
X153011237Y-49338572D02*
X153011237Y-49624286D01*
X153011237Y-49624286D02*
X152963618Y-49719524D01*
X152963618Y-49719524D02*
X152915999Y-49767144D01*
X152915999Y-49767144D02*
X152820761Y-49814763D01*
X152820761Y-49814763D02*
X152677904Y-49814763D01*
X153868380Y-49148096D02*
X153868380Y-49814763D01*
X153439809Y-49148096D02*
X153439809Y-49671905D01*
X153439809Y-49671905D02*
X153487428Y-49767144D01*
X153487428Y-49767144D02*
X153582666Y-49814763D01*
X153582666Y-49814763D02*
X153725523Y-49814763D01*
X153725523Y-49814763D02*
X153820761Y-49767144D01*
X153820761Y-49767144D02*
X153868380Y-49719524D01*
X154201714Y-49148096D02*
X154582666Y-49148096D01*
X154344571Y-48814763D02*
X154344571Y-49671905D01*
X154344571Y-49671905D02*
X154392190Y-49767144D01*
X154392190Y-49767144D02*
X154487428Y-49814763D01*
X154487428Y-49814763D02*
X154582666Y-49814763D01*
X155582667Y-49148096D02*
X155820762Y-49814763D01*
X155820762Y-49814763D02*
X156058857Y-49148096D01*
X156392191Y-48910001D02*
X156439810Y-48862382D01*
X156439810Y-48862382D02*
X156535048Y-48814763D01*
X156535048Y-48814763D02*
X156773143Y-48814763D01*
X156773143Y-48814763D02*
X156868381Y-48862382D01*
X156868381Y-48862382D02*
X156916000Y-48910001D01*
X156916000Y-48910001D02*
X156963619Y-49005239D01*
X156963619Y-49005239D02*
X156963619Y-49100477D01*
X156963619Y-49100477D02*
X156916000Y-49243334D01*
X156916000Y-49243334D02*
X156344572Y-49814763D01*
X156344572Y-49814763D02*
X156963619Y-49814763D01*
X157392191Y-49719524D02*
X157439810Y-49767144D01*
X157439810Y-49767144D02*
X157392191Y-49814763D01*
X157392191Y-49814763D02*
X157344572Y-49767144D01*
X157344572Y-49767144D02*
X157392191Y-49719524D01*
X157392191Y-49719524D02*
X157392191Y-49814763D01*
X158058857Y-48814763D02*
X158154095Y-48814763D01*
X158154095Y-48814763D02*
X158249333Y-48862382D01*
X158249333Y-48862382D02*
X158296952Y-48910001D01*
X158296952Y-48910001D02*
X158344571Y-49005239D01*
X158344571Y-49005239D02*
X158392190Y-49195715D01*
X158392190Y-49195715D02*
X158392190Y-49433810D01*
X158392190Y-49433810D02*
X158344571Y-49624286D01*
X158344571Y-49624286D02*
X158296952Y-49719524D01*
X158296952Y-49719524D02*
X158249333Y-49767144D01*
X158249333Y-49767144D02*
X158154095Y-49814763D01*
X158154095Y-49814763D02*
X158058857Y-49814763D01*
X158058857Y-49814763D02*
X157963619Y-49767144D01*
X157963619Y-49767144D02*
X157916000Y-49719524D01*
X157916000Y-49719524D02*
X157868381Y-49624286D01*
X157868381Y-49624286D02*
X157820762Y-49433810D01*
X157820762Y-49433810D02*
X157820762Y-49195715D01*
X157820762Y-49195715D02*
X157868381Y-49005239D01*
X157868381Y-49005239D02*
X157916000Y-48910001D01*
X157916000Y-48910001D02*
X157963619Y-48862382D01*
X157963619Y-48862382D02*
X158058857Y-48814763D01*
D11*
X190083100Y-57978456D02*
X190083100Y-59121314D01*
X189511671Y-58549885D02*
X190654528Y-58549885D01*
X189511671Y-60978456D02*
X191011671Y-60978456D01*
X190440242Y-60978456D02*
X190511671Y-61121314D01*
X190511671Y-61121314D02*
X190511671Y-61407028D01*
X190511671Y-61407028D02*
X190440242Y-61549885D01*
X190440242Y-61549885D02*
X190368814Y-61621314D01*
X190368814Y-61621314D02*
X190225957Y-61692742D01*
X190225957Y-61692742D02*
X189797385Y-61692742D01*
X189797385Y-61692742D02*
X189654528Y-61621314D01*
X189654528Y-61621314D02*
X189583100Y-61549885D01*
X189583100Y-61549885D02*
X189511671Y-61407028D01*
X189511671Y-61407028D02*
X189511671Y-61121314D01*
X189511671Y-61121314D02*
X189583100Y-60978456D01*
X190511671Y-62978457D02*
X189511671Y-62978457D01*
X190511671Y-62335599D02*
X189725957Y-62335599D01*
X189725957Y-62335599D02*
X189583100Y-62407028D01*
X189583100Y-62407028D02*
X189511671Y-62549885D01*
X189511671Y-62549885D02*
X189511671Y-62764171D01*
X189511671Y-62764171D02*
X189583100Y-62907028D01*
X189583100Y-62907028D02*
X189654528Y-62978457D01*
X189583100Y-63621314D02*
X189511671Y-63764171D01*
X189511671Y-63764171D02*
X189511671Y-64049885D01*
X189511671Y-64049885D02*
X189583100Y-64192742D01*
X189583100Y-64192742D02*
X189725957Y-64264171D01*
X189725957Y-64264171D02*
X189797385Y-64264171D01*
X189797385Y-64264171D02*
X189940242Y-64192742D01*
X189940242Y-64192742D02*
X190011671Y-64049885D01*
X190011671Y-64049885D02*
X190011671Y-63835600D01*
X190011671Y-63835600D02*
X190083100Y-63692742D01*
X190083100Y-63692742D02*
X190225957Y-63621314D01*
X190225957Y-63621314D02*
X190297385Y-63621314D01*
X190297385Y-63621314D02*
X190440242Y-63692742D01*
X190440242Y-63692742D02*
X190511671Y-63835600D01*
X190511671Y-63835600D02*
X190511671Y-64049885D01*
X190511671Y-64049885D02*
X190440242Y-64192742D01*
X190083100Y-66049885D02*
X190083100Y-67192743D01*
D10*
X195905726Y-73309238D02*
X194635726Y-73309238D01*
X195240488Y-73309238D02*
X195240488Y-72583523D01*
X195905726Y-72583523D02*
X194635726Y-72583523D01*
X194635726Y-71978762D02*
X195663821Y-71978762D01*
X195663821Y-71978762D02*
X195784773Y-71918285D01*
X195784773Y-71918285D02*
X195845250Y-71857809D01*
X195845250Y-71857809D02*
X195905726Y-71736857D01*
X195905726Y-71736857D02*
X195905726Y-71494952D01*
X195905726Y-71494952D02*
X195845250Y-71374000D01*
X195845250Y-71374000D02*
X195784773Y-71313523D01*
X195784773Y-71313523D02*
X195663821Y-71253047D01*
X195663821Y-71253047D02*
X194635726Y-71253047D01*
X194635726Y-70829714D02*
X194635726Y-70104000D01*
X195905726Y-70466857D02*
X194635726Y-70466857D01*
X196026678Y-69983048D02*
X196026678Y-69015428D01*
X195784773Y-67987333D02*
X195845250Y-68047809D01*
X195845250Y-68047809D02*
X195905726Y-68229238D01*
X195905726Y-68229238D02*
X195905726Y-68350190D01*
X195905726Y-68350190D02*
X195845250Y-68531619D01*
X195845250Y-68531619D02*
X195724297Y-68652571D01*
X195724297Y-68652571D02*
X195603345Y-68713048D01*
X195603345Y-68713048D02*
X195361440Y-68773524D01*
X195361440Y-68773524D02*
X195180011Y-68773524D01*
X195180011Y-68773524D02*
X194938107Y-68713048D01*
X194938107Y-68713048D02*
X194817154Y-68652571D01*
X194817154Y-68652571D02*
X194696202Y-68531619D01*
X194696202Y-68531619D02*
X194635726Y-68350190D01*
X194635726Y-68350190D02*
X194635726Y-68229238D01*
X194635726Y-68229238D02*
X194696202Y-68047809D01*
X194696202Y-68047809D02*
X194756678Y-67987333D01*
X195905726Y-67443048D02*
X194635726Y-67443048D01*
X194635726Y-67443048D02*
X195905726Y-66717333D01*
X195905726Y-66717333D02*
X194635726Y-66717333D01*
X195905726Y-66112572D02*
X194635726Y-66112572D01*
X194635726Y-66112572D02*
X195542869Y-65689238D01*
X195542869Y-65689238D02*
X194635726Y-65265905D01*
X194635726Y-65265905D02*
X195905726Y-65265905D01*
X195240488Y-64237809D02*
X195300964Y-64056381D01*
X195300964Y-64056381D02*
X195361440Y-63995904D01*
X195361440Y-63995904D02*
X195482392Y-63935428D01*
X195482392Y-63935428D02*
X195663821Y-63935428D01*
X195663821Y-63935428D02*
X195784773Y-63995904D01*
X195784773Y-63995904D02*
X195845250Y-64056381D01*
X195845250Y-64056381D02*
X195905726Y-64177333D01*
X195905726Y-64177333D02*
X195905726Y-64661143D01*
X195905726Y-64661143D02*
X194635726Y-64661143D01*
X194635726Y-64661143D02*
X194635726Y-64237809D01*
X194635726Y-64237809D02*
X194696202Y-64116857D01*
X194696202Y-64116857D02*
X194756678Y-64056381D01*
X194756678Y-64056381D02*
X194877630Y-63995904D01*
X194877630Y-63995904D02*
X194998583Y-63995904D01*
X194998583Y-63995904D02*
X195119535Y-64056381D01*
X195119535Y-64056381D02*
X195180011Y-64116857D01*
X195180011Y-64116857D02*
X195240488Y-64237809D01*
X195240488Y-64237809D02*
X195240488Y-64661143D01*
X196026678Y-63693524D02*
X196026678Y-62725904D01*
X194756678Y-62484000D02*
X194696202Y-62423524D01*
X194696202Y-62423524D02*
X194635726Y-62302571D01*
X194635726Y-62302571D02*
X194635726Y-62000190D01*
X194635726Y-62000190D02*
X194696202Y-61879238D01*
X194696202Y-61879238D02*
X194756678Y-61818762D01*
X194756678Y-61818762D02*
X194877630Y-61758285D01*
X194877630Y-61758285D02*
X194998583Y-61758285D01*
X194998583Y-61758285D02*
X195180011Y-61818762D01*
X195180011Y-61818762D02*
X195905726Y-62544476D01*
X195905726Y-62544476D02*
X195905726Y-61758285D01*
X149221819Y-41827220D02*
X148221819Y-41827220D01*
X149221819Y-41255792D02*
X148650390Y-41684363D01*
X148221819Y-41255792D02*
X148793247Y-41827220D01*
X148317057Y-40874839D02*
X148269438Y-40827220D01*
X148269438Y-40827220D02*
X148221819Y-40731982D01*
X148221819Y-40731982D02*
X148221819Y-40493887D01*
X148221819Y-40493887D02*
X148269438Y-40398649D01*
X148269438Y-40398649D02*
X148317057Y-40351030D01*
X148317057Y-40351030D02*
X148412295Y-40303411D01*
X148412295Y-40303411D02*
X148507533Y-40303411D01*
X148507533Y-40303411D02*
X148650390Y-40351030D01*
X148650390Y-40351030D02*
X149221819Y-40922458D01*
X149221819Y-40922458D02*
X149221819Y-40303411D01*
X158063333Y-59414580D02*
X158015714Y-59462200D01*
X158015714Y-59462200D02*
X157872857Y-59509819D01*
X157872857Y-59509819D02*
X157777619Y-59509819D01*
X157777619Y-59509819D02*
X157634762Y-59462200D01*
X157634762Y-59462200D02*
X157539524Y-59366961D01*
X157539524Y-59366961D02*
X157491905Y-59271723D01*
X157491905Y-59271723D02*
X157444286Y-59081247D01*
X157444286Y-59081247D02*
X157444286Y-58938390D01*
X157444286Y-58938390D02*
X157491905Y-58747914D01*
X157491905Y-58747914D02*
X157539524Y-58652676D01*
X157539524Y-58652676D02*
X157634762Y-58557438D01*
X157634762Y-58557438D02*
X157777619Y-58509819D01*
X157777619Y-58509819D02*
X157872857Y-58509819D01*
X157872857Y-58509819D02*
X158015714Y-58557438D01*
X158015714Y-58557438D02*
X158063333Y-58605057D01*
X159015714Y-59509819D02*
X158444286Y-59509819D01*
X158730000Y-59509819D02*
X158730000Y-58509819D01*
X158730000Y-58509819D02*
X158634762Y-58652676D01*
X158634762Y-58652676D02*
X158539524Y-58747914D01*
X158539524Y-58747914D02*
X158444286Y-58795533D01*
X172347095Y-59017819D02*
X172918523Y-59017819D01*
X172632809Y-60017819D02*
X172632809Y-59017819D01*
X173251857Y-60017819D02*
X173251857Y-59017819D01*
X173251857Y-59017819D02*
X173632809Y-59017819D01*
X173632809Y-59017819D02*
X173728047Y-59065438D01*
X173728047Y-59065438D02*
X173775666Y-59113057D01*
X173775666Y-59113057D02*
X173823285Y-59208295D01*
X173823285Y-59208295D02*
X173823285Y-59351152D01*
X173823285Y-59351152D02*
X173775666Y-59446390D01*
X173775666Y-59446390D02*
X173728047Y-59494009D01*
X173728047Y-59494009D02*
X173632809Y-59541628D01*
X173632809Y-59541628D02*
X173251857Y-59541628D01*
X174156619Y-59017819D02*
X174823285Y-59017819D01*
X174823285Y-59017819D02*
X174394714Y-60017819D01*
X140408819Y-52988094D02*
X139408819Y-52988094D01*
X139408819Y-52988094D02*
X139408819Y-52749999D01*
X139408819Y-52749999D02*
X139456438Y-52607142D01*
X139456438Y-52607142D02*
X139551676Y-52511904D01*
X139551676Y-52511904D02*
X139646914Y-52464285D01*
X139646914Y-52464285D02*
X139837390Y-52416666D01*
X139837390Y-52416666D02*
X139980247Y-52416666D01*
X139980247Y-52416666D02*
X140170723Y-52464285D01*
X140170723Y-52464285D02*
X140265961Y-52511904D01*
X140265961Y-52511904D02*
X140361200Y-52607142D01*
X140361200Y-52607142D02*
X140408819Y-52749999D01*
X140408819Y-52749999D02*
X140408819Y-52988094D01*
X139837390Y-51845237D02*
X139789771Y-51940475D01*
X139789771Y-51940475D02*
X139742152Y-51988094D01*
X139742152Y-51988094D02*
X139646914Y-52035713D01*
X139646914Y-52035713D02*
X139599295Y-52035713D01*
X139599295Y-52035713D02*
X139504057Y-51988094D01*
X139504057Y-51988094D02*
X139456438Y-51940475D01*
X139456438Y-51940475D02*
X139408819Y-51845237D01*
X139408819Y-51845237D02*
X139408819Y-51654761D01*
X139408819Y-51654761D02*
X139456438Y-51559523D01*
X139456438Y-51559523D02*
X139504057Y-51511904D01*
X139504057Y-51511904D02*
X139599295Y-51464285D01*
X139599295Y-51464285D02*
X139646914Y-51464285D01*
X139646914Y-51464285D02*
X139742152Y-51511904D01*
X139742152Y-51511904D02*
X139789771Y-51559523D01*
X139789771Y-51559523D02*
X139837390Y-51654761D01*
X139837390Y-51654761D02*
X139837390Y-51845237D01*
X139837390Y-51845237D02*
X139885009Y-51940475D01*
X139885009Y-51940475D02*
X139932628Y-51988094D01*
X139932628Y-51988094D02*
X140027866Y-52035713D01*
X140027866Y-52035713D02*
X140218342Y-52035713D01*
X140218342Y-52035713D02*
X140313580Y-51988094D01*
X140313580Y-51988094D02*
X140361200Y-51940475D01*
X140361200Y-51940475D02*
X140408819Y-51845237D01*
X140408819Y-51845237D02*
X140408819Y-51654761D01*
X140408819Y-51654761D02*
X140361200Y-51559523D01*
X140361200Y-51559523D02*
X140313580Y-51511904D01*
X140313580Y-51511904D02*
X140218342Y-51464285D01*
X140218342Y-51464285D02*
X140027866Y-51464285D01*
X140027866Y-51464285D02*
X139932628Y-51511904D01*
X139932628Y-51511904D02*
X139885009Y-51559523D01*
X139885009Y-51559523D02*
X139837390Y-51654761D01*
X181922009Y-51125333D02*
X181922009Y-51458666D01*
X182445819Y-51458666D02*
X181445819Y-51458666D01*
X181445819Y-51458666D02*
X181445819Y-50982476D01*
X181922009Y-50268190D02*
X181969628Y-50125333D01*
X181969628Y-50125333D02*
X182017247Y-50077714D01*
X182017247Y-50077714D02*
X182112485Y-50030095D01*
X182112485Y-50030095D02*
X182255342Y-50030095D01*
X182255342Y-50030095D02*
X182350580Y-50077714D01*
X182350580Y-50077714D02*
X182398200Y-50125333D01*
X182398200Y-50125333D02*
X182445819Y-50220571D01*
X182445819Y-50220571D02*
X182445819Y-50601523D01*
X182445819Y-50601523D02*
X181445819Y-50601523D01*
X181445819Y-50601523D02*
X181445819Y-50268190D01*
X181445819Y-50268190D02*
X181493438Y-50172952D01*
X181493438Y-50172952D02*
X181541057Y-50125333D01*
X181541057Y-50125333D02*
X181636295Y-50077714D01*
X181636295Y-50077714D02*
X181731533Y-50077714D01*
X181731533Y-50077714D02*
X181826771Y-50125333D01*
X181826771Y-50125333D02*
X181874390Y-50172952D01*
X181874390Y-50172952D02*
X181922009Y-50268190D01*
X181922009Y-50268190D02*
X181922009Y-50601523D01*
X181445819Y-49696761D02*
X181445819Y-49077714D01*
X181445819Y-49077714D02*
X181826771Y-49411047D01*
X181826771Y-49411047D02*
X181826771Y-49268190D01*
X181826771Y-49268190D02*
X181874390Y-49172952D01*
X181874390Y-49172952D02*
X181922009Y-49125333D01*
X181922009Y-49125333D02*
X182017247Y-49077714D01*
X182017247Y-49077714D02*
X182255342Y-49077714D01*
X182255342Y-49077714D02*
X182350580Y-49125333D01*
X182350580Y-49125333D02*
X182398200Y-49172952D01*
X182398200Y-49172952D02*
X182445819Y-49268190D01*
X182445819Y-49268190D02*
X182445819Y-49553904D01*
X182445819Y-49553904D02*
X182398200Y-49649142D01*
X182398200Y-49649142D02*
X182350580Y-49696761D01*
X157107095Y-50889819D02*
X157678523Y-50889819D01*
X157392809Y-51889819D02*
X157392809Y-50889819D01*
X158011857Y-51889819D02*
X158011857Y-50889819D01*
X158011857Y-50889819D02*
X158392809Y-50889819D01*
X158392809Y-50889819D02*
X158488047Y-50937438D01*
X158488047Y-50937438D02*
X158535666Y-50985057D01*
X158535666Y-50985057D02*
X158583285Y-51080295D01*
X158583285Y-51080295D02*
X158583285Y-51223152D01*
X158583285Y-51223152D02*
X158535666Y-51318390D01*
X158535666Y-51318390D02*
X158488047Y-51366009D01*
X158488047Y-51366009D02*
X158392809Y-51413628D01*
X158392809Y-51413628D02*
X158011857Y-51413628D01*
X159440428Y-50889819D02*
X159249952Y-50889819D01*
X159249952Y-50889819D02*
X159154714Y-50937438D01*
X159154714Y-50937438D02*
X159107095Y-50985057D01*
X159107095Y-50985057D02*
X159011857Y-51127914D01*
X159011857Y-51127914D02*
X158964238Y-51318390D01*
X158964238Y-51318390D02*
X158964238Y-51699342D01*
X158964238Y-51699342D02*
X159011857Y-51794580D01*
X159011857Y-51794580D02*
X159059476Y-51842200D01*
X159059476Y-51842200D02*
X159154714Y-51889819D01*
X159154714Y-51889819D02*
X159345190Y-51889819D01*
X159345190Y-51889819D02*
X159440428Y-51842200D01*
X159440428Y-51842200D02*
X159488047Y-51794580D01*
X159488047Y-51794580D02*
X159535666Y-51699342D01*
X159535666Y-51699342D02*
X159535666Y-51461247D01*
X159535666Y-51461247D02*
X159488047Y-51366009D01*
X159488047Y-51366009D02*
X159440428Y-51318390D01*
X159440428Y-51318390D02*
X159345190Y-51270771D01*
X159345190Y-51270771D02*
X159154714Y-51270771D01*
X159154714Y-51270771D02*
X159059476Y-51318390D01*
X159059476Y-51318390D02*
X159011857Y-51366009D01*
X159011857Y-51366009D02*
X158964238Y-51461247D01*
X181589466Y-36761009D02*
X181256133Y-36761009D01*
X181256133Y-37284819D02*
X181256133Y-36284819D01*
X181256133Y-36284819D02*
X181732323Y-36284819D01*
X182446609Y-36761009D02*
X182589466Y-36808628D01*
X182589466Y-36808628D02*
X182637085Y-36856247D01*
X182637085Y-36856247D02*
X182684704Y-36951485D01*
X182684704Y-36951485D02*
X182684704Y-37094342D01*
X182684704Y-37094342D02*
X182637085Y-37189580D01*
X182637085Y-37189580D02*
X182589466Y-37237200D01*
X182589466Y-37237200D02*
X182494228Y-37284819D01*
X182494228Y-37284819D02*
X182113276Y-37284819D01*
X182113276Y-37284819D02*
X182113276Y-36284819D01*
X182113276Y-36284819D02*
X182446609Y-36284819D01*
X182446609Y-36284819D02*
X182541847Y-36332438D01*
X182541847Y-36332438D02*
X182589466Y-36380057D01*
X182589466Y-36380057D02*
X182637085Y-36475295D01*
X182637085Y-36475295D02*
X182637085Y-36570533D01*
X182637085Y-36570533D02*
X182589466Y-36665771D01*
X182589466Y-36665771D02*
X182541847Y-36713390D01*
X182541847Y-36713390D02*
X182446609Y-36761009D01*
X182446609Y-36761009D02*
X182113276Y-36761009D01*
X183637085Y-37284819D02*
X183065657Y-37284819D01*
X183351371Y-37284819D02*
X183351371Y-36284819D01*
X183351371Y-36284819D02*
X183256133Y-36427676D01*
X183256133Y-36427676D02*
X183160895Y-36522914D01*
X183160895Y-36522914D02*
X183065657Y-36570533D01*
X173428819Y-50966666D02*
X172952628Y-51299999D01*
X173428819Y-51538094D02*
X172428819Y-51538094D01*
X172428819Y-51538094D02*
X172428819Y-51157142D01*
X172428819Y-51157142D02*
X172476438Y-51061904D01*
X172476438Y-51061904D02*
X172524057Y-51014285D01*
X172524057Y-51014285D02*
X172619295Y-50966666D01*
X172619295Y-50966666D02*
X172762152Y-50966666D01*
X172762152Y-50966666D02*
X172857390Y-51014285D01*
X172857390Y-51014285D02*
X172905009Y-51061904D01*
X172905009Y-51061904D02*
X172952628Y-51157142D01*
X172952628Y-51157142D02*
X172952628Y-51538094D01*
X172762152Y-50109523D02*
X173428819Y-50109523D01*
X172381200Y-50347618D02*
X173095485Y-50585713D01*
X173095485Y-50585713D02*
X173095485Y-49966666D01*
X178601905Y-42076019D02*
X179173333Y-42076019D01*
X178887619Y-43076019D02*
X178887619Y-42076019D01*
X179506667Y-43076019D02*
X179506667Y-42076019D01*
X179506667Y-42076019D02*
X179887619Y-42076019D01*
X179887619Y-42076019D02*
X179982857Y-42123638D01*
X179982857Y-42123638D02*
X180030476Y-42171257D01*
X180030476Y-42171257D02*
X180078095Y-42266495D01*
X180078095Y-42266495D02*
X180078095Y-42409352D01*
X180078095Y-42409352D02*
X180030476Y-42504590D01*
X180030476Y-42504590D02*
X179982857Y-42552209D01*
X179982857Y-42552209D02*
X179887619Y-42599828D01*
X179887619Y-42599828D02*
X179506667Y-42599828D01*
X181030476Y-43076019D02*
X180459048Y-43076019D01*
X180744762Y-43076019D02*
X180744762Y-42076019D01*
X180744762Y-42076019D02*
X180649524Y-42218876D01*
X180649524Y-42218876D02*
X180554286Y-42314114D01*
X180554286Y-42314114D02*
X180459048Y-42361733D01*
X181649524Y-42076019D02*
X181744762Y-42076019D01*
X181744762Y-42076019D02*
X181840000Y-42123638D01*
X181840000Y-42123638D02*
X181887619Y-42171257D01*
X181887619Y-42171257D02*
X181935238Y-42266495D01*
X181935238Y-42266495D02*
X181982857Y-42456971D01*
X181982857Y-42456971D02*
X181982857Y-42695066D01*
X181982857Y-42695066D02*
X181935238Y-42885542D01*
X181935238Y-42885542D02*
X181887619Y-42980780D01*
X181887619Y-42980780D02*
X181840000Y-43028400D01*
X181840000Y-43028400D02*
X181744762Y-43076019D01*
X181744762Y-43076019D02*
X181649524Y-43076019D01*
X181649524Y-43076019D02*
X181554286Y-43028400D01*
X181554286Y-43028400D02*
X181506667Y-42980780D01*
X181506667Y-42980780D02*
X181459048Y-42885542D01*
X181459048Y-42885542D02*
X181411429Y-42695066D01*
X181411429Y-42695066D02*
X181411429Y-42456971D01*
X181411429Y-42456971D02*
X181459048Y-42266495D01*
X181459048Y-42266495D02*
X181506667Y-42171257D01*
X181506667Y-42171257D02*
X181554286Y-42123638D01*
X181554286Y-42123638D02*
X181649524Y-42076019D01*
X176577666Y-46540009D02*
X176244333Y-46540009D01*
X176244333Y-47063819D02*
X176244333Y-46063819D01*
X176244333Y-46063819D02*
X176720523Y-46063819D01*
X177053857Y-46159057D02*
X177101476Y-46111438D01*
X177101476Y-46111438D02*
X177196714Y-46063819D01*
X177196714Y-46063819D02*
X177434809Y-46063819D01*
X177434809Y-46063819D02*
X177530047Y-46111438D01*
X177530047Y-46111438D02*
X177577666Y-46159057D01*
X177577666Y-46159057D02*
X177625285Y-46254295D01*
X177625285Y-46254295D02*
X177625285Y-46349533D01*
X177625285Y-46349533D02*
X177577666Y-46492390D01*
X177577666Y-46492390D02*
X177006238Y-47063819D01*
X177006238Y-47063819D02*
X177625285Y-47063819D01*
X175476819Y-57491094D02*
X175476819Y-56919666D01*
X176476819Y-57205380D02*
X175476819Y-57205380D01*
X176476819Y-56586332D02*
X175476819Y-56586332D01*
X175476819Y-56586332D02*
X175476819Y-56205380D01*
X175476819Y-56205380D02*
X175524438Y-56110142D01*
X175524438Y-56110142D02*
X175572057Y-56062523D01*
X175572057Y-56062523D02*
X175667295Y-56014904D01*
X175667295Y-56014904D02*
X175810152Y-56014904D01*
X175810152Y-56014904D02*
X175905390Y-56062523D01*
X175905390Y-56062523D02*
X175953009Y-56110142D01*
X175953009Y-56110142D02*
X176000628Y-56205380D01*
X176000628Y-56205380D02*
X176000628Y-56586332D01*
X176476819Y-55062523D02*
X176476819Y-55633951D01*
X176476819Y-55348237D02*
X175476819Y-55348237D01*
X175476819Y-55348237D02*
X175619676Y-55443475D01*
X175619676Y-55443475D02*
X175714914Y-55538713D01*
X175714914Y-55538713D02*
X175762533Y-55633951D01*
X175572057Y-54681570D02*
X175524438Y-54633951D01*
X175524438Y-54633951D02*
X175476819Y-54538713D01*
X175476819Y-54538713D02*
X175476819Y-54300618D01*
X175476819Y-54300618D02*
X175524438Y-54205380D01*
X175524438Y-54205380D02*
X175572057Y-54157761D01*
X175572057Y-54157761D02*
X175667295Y-54110142D01*
X175667295Y-54110142D02*
X175762533Y-54110142D01*
X175762533Y-54110142D02*
X175905390Y-54157761D01*
X175905390Y-54157761D02*
X176476819Y-54729189D01*
X176476819Y-54729189D02*
X176476819Y-54110142D01*
X171819219Y-66424133D02*
X172533504Y-66424133D01*
X172533504Y-66424133D02*
X172676361Y-66471752D01*
X172676361Y-66471752D02*
X172771600Y-66566990D01*
X172771600Y-66566990D02*
X172819219Y-66709847D01*
X172819219Y-66709847D02*
X172819219Y-66805085D01*
X172819219Y-65424133D02*
X172819219Y-65995561D01*
X172819219Y-65709847D02*
X171819219Y-65709847D01*
X171819219Y-65709847D02*
X171962076Y-65805085D01*
X171962076Y-65805085D02*
X172057314Y-65900323D01*
X172057314Y-65900323D02*
X172104933Y-65995561D01*
X171428580Y-36996666D02*
X171476200Y-37044285D01*
X171476200Y-37044285D02*
X171523819Y-37187142D01*
X171523819Y-37187142D02*
X171523819Y-37282380D01*
X171523819Y-37282380D02*
X171476200Y-37425237D01*
X171476200Y-37425237D02*
X171380961Y-37520475D01*
X171380961Y-37520475D02*
X171285723Y-37568094D01*
X171285723Y-37568094D02*
X171095247Y-37615713D01*
X171095247Y-37615713D02*
X170952390Y-37615713D01*
X170952390Y-37615713D02*
X170761914Y-37568094D01*
X170761914Y-37568094D02*
X170666676Y-37520475D01*
X170666676Y-37520475D02*
X170571438Y-37425237D01*
X170571438Y-37425237D02*
X170523819Y-37282380D01*
X170523819Y-37282380D02*
X170523819Y-37187142D01*
X170523819Y-37187142D02*
X170571438Y-37044285D01*
X170571438Y-37044285D02*
X170619057Y-36996666D01*
X170523819Y-36091904D02*
X170523819Y-36568094D01*
X170523819Y-36568094D02*
X171000009Y-36615713D01*
X171000009Y-36615713D02*
X170952390Y-36568094D01*
X170952390Y-36568094D02*
X170904771Y-36472856D01*
X170904771Y-36472856D02*
X170904771Y-36234761D01*
X170904771Y-36234761D02*
X170952390Y-36139523D01*
X170952390Y-36139523D02*
X171000009Y-36091904D01*
X171000009Y-36091904D02*
X171095247Y-36044285D01*
X171095247Y-36044285D02*
X171333342Y-36044285D01*
X171333342Y-36044285D02*
X171428580Y-36091904D01*
X171428580Y-36091904D02*
X171476200Y-36139523D01*
X171476200Y-36139523D02*
X171523819Y-36234761D01*
X171523819Y-36234761D02*
X171523819Y-36472856D01*
X171523819Y-36472856D02*
X171476200Y-36568094D01*
X171476200Y-36568094D02*
X171428580Y-36615713D01*
X177176133Y-43025219D02*
X176842800Y-42549028D01*
X176604705Y-43025219D02*
X176604705Y-42025219D01*
X176604705Y-42025219D02*
X176985657Y-42025219D01*
X176985657Y-42025219D02*
X177080895Y-42072838D01*
X177080895Y-42072838D02*
X177128514Y-42120457D01*
X177128514Y-42120457D02*
X177176133Y-42215695D01*
X177176133Y-42215695D02*
X177176133Y-42358552D01*
X177176133Y-42358552D02*
X177128514Y-42453790D01*
X177128514Y-42453790D02*
X177080895Y-42501409D01*
X177080895Y-42501409D02*
X176985657Y-42549028D01*
X176985657Y-42549028D02*
X176604705Y-42549028D01*
X177557086Y-42120457D02*
X177604705Y-42072838D01*
X177604705Y-42072838D02*
X177699943Y-42025219D01*
X177699943Y-42025219D02*
X177938038Y-42025219D01*
X177938038Y-42025219D02*
X178033276Y-42072838D01*
X178033276Y-42072838D02*
X178080895Y-42120457D01*
X178080895Y-42120457D02*
X178128514Y-42215695D01*
X178128514Y-42215695D02*
X178128514Y-42310933D01*
X178128514Y-42310933D02*
X178080895Y-42453790D01*
X178080895Y-42453790D02*
X177509467Y-43025219D01*
X177509467Y-43025219D02*
X178128514Y-43025219D01*
X158204819Y-41971904D02*
X159014342Y-41971904D01*
X159014342Y-41971904D02*
X159109580Y-41924285D01*
X159109580Y-41924285D02*
X159157200Y-41876666D01*
X159157200Y-41876666D02*
X159204819Y-41781428D01*
X159204819Y-41781428D02*
X159204819Y-41590952D01*
X159204819Y-41590952D02*
X159157200Y-41495714D01*
X159157200Y-41495714D02*
X159109580Y-41448095D01*
X159109580Y-41448095D02*
X159014342Y-41400476D01*
X159014342Y-41400476D02*
X158204819Y-41400476D01*
X159204819Y-40400476D02*
X159204819Y-40971904D01*
X159204819Y-40686190D02*
X158204819Y-40686190D01*
X158204819Y-40686190D02*
X158347676Y-40781428D01*
X158347676Y-40781428D02*
X158442914Y-40876666D01*
X158442914Y-40876666D02*
X158490533Y-40971904D01*
X152298095Y-60414819D02*
X152869523Y-60414819D01*
X152583809Y-61414819D02*
X152583809Y-60414819D01*
X153202857Y-61414819D02*
X153202857Y-60414819D01*
X153202857Y-60414819D02*
X153583809Y-60414819D01*
X153583809Y-60414819D02*
X153679047Y-60462438D01*
X153679047Y-60462438D02*
X153726666Y-60510057D01*
X153726666Y-60510057D02*
X153774285Y-60605295D01*
X153774285Y-60605295D02*
X153774285Y-60748152D01*
X153774285Y-60748152D02*
X153726666Y-60843390D01*
X153726666Y-60843390D02*
X153679047Y-60891009D01*
X153679047Y-60891009D02*
X153583809Y-60938628D01*
X153583809Y-60938628D02*
X153202857Y-60938628D01*
X154250476Y-61414819D02*
X154440952Y-61414819D01*
X154440952Y-61414819D02*
X154536190Y-61367200D01*
X154536190Y-61367200D02*
X154583809Y-61319580D01*
X154583809Y-61319580D02*
X154679047Y-61176723D01*
X154679047Y-61176723D02*
X154726666Y-60986247D01*
X154726666Y-60986247D02*
X154726666Y-60605295D01*
X154726666Y-60605295D02*
X154679047Y-60510057D01*
X154679047Y-60510057D02*
X154631428Y-60462438D01*
X154631428Y-60462438D02*
X154536190Y-60414819D01*
X154536190Y-60414819D02*
X154345714Y-60414819D01*
X154345714Y-60414819D02*
X154250476Y-60462438D01*
X154250476Y-60462438D02*
X154202857Y-60510057D01*
X154202857Y-60510057D02*
X154155238Y-60605295D01*
X154155238Y-60605295D02*
X154155238Y-60843390D01*
X154155238Y-60843390D02*
X154202857Y-60938628D01*
X154202857Y-60938628D02*
X154250476Y-60986247D01*
X154250476Y-60986247D02*
X154345714Y-61033866D01*
X154345714Y-61033866D02*
X154536190Y-61033866D01*
X154536190Y-61033866D02*
X154631428Y-60986247D01*
X154631428Y-60986247D02*
X154679047Y-60938628D01*
X154679047Y-60938628D02*
X154726666Y-60843390D01*
X181538666Y-54287009D02*
X181205333Y-54287009D01*
X181205333Y-54810819D02*
X181205333Y-53810819D01*
X181205333Y-53810819D02*
X181681523Y-53810819D01*
X182395809Y-54287009D02*
X182538666Y-54334628D01*
X182538666Y-54334628D02*
X182586285Y-54382247D01*
X182586285Y-54382247D02*
X182633904Y-54477485D01*
X182633904Y-54477485D02*
X182633904Y-54620342D01*
X182633904Y-54620342D02*
X182586285Y-54715580D01*
X182586285Y-54715580D02*
X182538666Y-54763200D01*
X182538666Y-54763200D02*
X182443428Y-54810819D01*
X182443428Y-54810819D02*
X182062476Y-54810819D01*
X182062476Y-54810819D02*
X182062476Y-53810819D01*
X182062476Y-53810819D02*
X182395809Y-53810819D01*
X182395809Y-53810819D02*
X182491047Y-53858438D01*
X182491047Y-53858438D02*
X182538666Y-53906057D01*
X182538666Y-53906057D02*
X182586285Y-54001295D01*
X182586285Y-54001295D02*
X182586285Y-54096533D01*
X182586285Y-54096533D02*
X182538666Y-54191771D01*
X182538666Y-54191771D02*
X182491047Y-54239390D01*
X182491047Y-54239390D02*
X182395809Y-54287009D01*
X182395809Y-54287009D02*
X182062476Y-54287009D01*
X183491047Y-54144152D02*
X183491047Y-54810819D01*
X183252952Y-53763200D02*
X183014857Y-54477485D01*
X183014857Y-54477485D02*
X183633904Y-54477485D01*
X148713819Y-57448220D02*
X147713819Y-57448220D01*
X148713819Y-56876792D02*
X148142390Y-57305363D01*
X147713819Y-56876792D02*
X148285247Y-57448220D01*
X148713819Y-55924411D02*
X148713819Y-56495839D01*
X148713819Y-56210125D02*
X147713819Y-56210125D01*
X147713819Y-56210125D02*
X147856676Y-56305363D01*
X147856676Y-56305363D02*
X147951914Y-56400601D01*
X147951914Y-56400601D02*
X147999533Y-56495839D01*
X163935580Y-48934666D02*
X163983200Y-48982285D01*
X163983200Y-48982285D02*
X164030819Y-49125142D01*
X164030819Y-49125142D02*
X164030819Y-49220380D01*
X164030819Y-49220380D02*
X163983200Y-49363237D01*
X163983200Y-49363237D02*
X163887961Y-49458475D01*
X163887961Y-49458475D02*
X163792723Y-49506094D01*
X163792723Y-49506094D02*
X163602247Y-49553713D01*
X163602247Y-49553713D02*
X163459390Y-49553713D01*
X163459390Y-49553713D02*
X163268914Y-49506094D01*
X163268914Y-49506094D02*
X163173676Y-49458475D01*
X163173676Y-49458475D02*
X163078438Y-49363237D01*
X163078438Y-49363237D02*
X163030819Y-49220380D01*
X163030819Y-49220380D02*
X163030819Y-49125142D01*
X163030819Y-49125142D02*
X163078438Y-48982285D01*
X163078438Y-48982285D02*
X163126057Y-48934666D01*
X163030819Y-48077523D02*
X163030819Y-48267999D01*
X163030819Y-48267999D02*
X163078438Y-48363237D01*
X163078438Y-48363237D02*
X163126057Y-48410856D01*
X163126057Y-48410856D02*
X163268914Y-48506094D01*
X163268914Y-48506094D02*
X163459390Y-48553713D01*
X163459390Y-48553713D02*
X163840342Y-48553713D01*
X163840342Y-48553713D02*
X163935580Y-48506094D01*
X163935580Y-48506094D02*
X163983200Y-48458475D01*
X163983200Y-48458475D02*
X164030819Y-48363237D01*
X164030819Y-48363237D02*
X164030819Y-48172761D01*
X164030819Y-48172761D02*
X163983200Y-48077523D01*
X163983200Y-48077523D02*
X163935580Y-48029904D01*
X163935580Y-48029904D02*
X163840342Y-47982285D01*
X163840342Y-47982285D02*
X163602247Y-47982285D01*
X163602247Y-47982285D02*
X163507009Y-48029904D01*
X163507009Y-48029904D02*
X163459390Y-48077523D01*
X163459390Y-48077523D02*
X163411771Y-48172761D01*
X163411771Y-48172761D02*
X163411771Y-48363237D01*
X163411771Y-48363237D02*
X163459390Y-48458475D01*
X163459390Y-48458475D02*
X163507009Y-48506094D01*
X163507009Y-48506094D02*
X163602247Y-48553713D01*
X163907200Y-62737856D02*
X163954819Y-62594999D01*
X163954819Y-62594999D02*
X163954819Y-62356904D01*
X163954819Y-62356904D02*
X163907200Y-62261666D01*
X163907200Y-62261666D02*
X163859580Y-62214047D01*
X163859580Y-62214047D02*
X163764342Y-62166428D01*
X163764342Y-62166428D02*
X163669104Y-62166428D01*
X163669104Y-62166428D02*
X163573866Y-62214047D01*
X163573866Y-62214047D02*
X163526247Y-62261666D01*
X163526247Y-62261666D02*
X163478628Y-62356904D01*
X163478628Y-62356904D02*
X163431009Y-62547380D01*
X163431009Y-62547380D02*
X163383390Y-62642618D01*
X163383390Y-62642618D02*
X163335771Y-62690237D01*
X163335771Y-62690237D02*
X163240533Y-62737856D01*
X163240533Y-62737856D02*
X163145295Y-62737856D01*
X163145295Y-62737856D02*
X163050057Y-62690237D01*
X163050057Y-62690237D02*
X163002438Y-62642618D01*
X163002438Y-62642618D02*
X162954819Y-62547380D01*
X162954819Y-62547380D02*
X162954819Y-62309285D01*
X162954819Y-62309285D02*
X163002438Y-62166428D01*
X162954819Y-61452142D02*
X163669104Y-61452142D01*
X163669104Y-61452142D02*
X163811961Y-61499761D01*
X163811961Y-61499761D02*
X163907200Y-61594999D01*
X163907200Y-61594999D02*
X163954819Y-61737856D01*
X163954819Y-61737856D02*
X163954819Y-61833094D01*
X163954819Y-60452142D02*
X163954819Y-61023570D01*
X163954819Y-60737856D02*
X162954819Y-60737856D01*
X162954819Y-60737856D02*
X163097676Y-60833094D01*
X163097676Y-60833094D02*
X163192914Y-60928332D01*
X163192914Y-60928332D02*
X163240533Y-61023570D01*
X173698819Y-57491094D02*
X173698819Y-56919666D01*
X174698819Y-57205380D02*
X173698819Y-57205380D01*
X174698819Y-56586332D02*
X173698819Y-56586332D01*
X173698819Y-56586332D02*
X173698819Y-56205380D01*
X173698819Y-56205380D02*
X173746438Y-56110142D01*
X173746438Y-56110142D02*
X173794057Y-56062523D01*
X173794057Y-56062523D02*
X173889295Y-56014904D01*
X173889295Y-56014904D02*
X174032152Y-56014904D01*
X174032152Y-56014904D02*
X174127390Y-56062523D01*
X174127390Y-56062523D02*
X174175009Y-56110142D01*
X174175009Y-56110142D02*
X174222628Y-56205380D01*
X174222628Y-56205380D02*
X174222628Y-56586332D01*
X174698819Y-55062523D02*
X174698819Y-55633951D01*
X174698819Y-55348237D02*
X173698819Y-55348237D01*
X173698819Y-55348237D02*
X173841676Y-55443475D01*
X173841676Y-55443475D02*
X173936914Y-55538713D01*
X173936914Y-55538713D02*
X173984533Y-55633951D01*
X173698819Y-54729189D02*
X173698819Y-54110142D01*
X173698819Y-54110142D02*
X174079771Y-54443475D01*
X174079771Y-54443475D02*
X174079771Y-54300618D01*
X174079771Y-54300618D02*
X174127390Y-54205380D01*
X174127390Y-54205380D02*
X174175009Y-54157761D01*
X174175009Y-54157761D02*
X174270247Y-54110142D01*
X174270247Y-54110142D02*
X174508342Y-54110142D01*
X174508342Y-54110142D02*
X174603580Y-54157761D01*
X174603580Y-54157761D02*
X174651200Y-54205380D01*
X174651200Y-54205380D02*
X174698819Y-54300618D01*
X174698819Y-54300618D02*
X174698819Y-54586332D01*
X174698819Y-54586332D02*
X174651200Y-54681570D01*
X174651200Y-54681570D02*
X174603580Y-54729189D01*
X148238095Y-60414819D02*
X148809523Y-60414819D01*
X148523809Y-61414819D02*
X148523809Y-60414819D01*
X149142857Y-61414819D02*
X149142857Y-60414819D01*
X149142857Y-60414819D02*
X149523809Y-60414819D01*
X149523809Y-60414819D02*
X149619047Y-60462438D01*
X149619047Y-60462438D02*
X149666666Y-60510057D01*
X149666666Y-60510057D02*
X149714285Y-60605295D01*
X149714285Y-60605295D02*
X149714285Y-60748152D01*
X149714285Y-60748152D02*
X149666666Y-60843390D01*
X149666666Y-60843390D02*
X149619047Y-60891009D01*
X149619047Y-60891009D02*
X149523809Y-60938628D01*
X149523809Y-60938628D02*
X149142857Y-60938628D01*
X150666666Y-61414819D02*
X150095238Y-61414819D01*
X150380952Y-61414819D02*
X150380952Y-60414819D01*
X150380952Y-60414819D02*
X150285714Y-60557676D01*
X150285714Y-60557676D02*
X150190476Y-60652914D01*
X150190476Y-60652914D02*
X150095238Y-60700533D01*
X176715009Y-45384933D02*
X176715009Y-45718266D01*
X177238819Y-45718266D02*
X176238819Y-45718266D01*
X176238819Y-45718266D02*
X176238819Y-45242076D01*
X176715009Y-44527790D02*
X176762628Y-44384933D01*
X176762628Y-44384933D02*
X176810247Y-44337314D01*
X176810247Y-44337314D02*
X176905485Y-44289695D01*
X176905485Y-44289695D02*
X177048342Y-44289695D01*
X177048342Y-44289695D02*
X177143580Y-44337314D01*
X177143580Y-44337314D02*
X177191200Y-44384933D01*
X177191200Y-44384933D02*
X177238819Y-44480171D01*
X177238819Y-44480171D02*
X177238819Y-44861123D01*
X177238819Y-44861123D02*
X176238819Y-44861123D01*
X176238819Y-44861123D02*
X176238819Y-44527790D01*
X176238819Y-44527790D02*
X176286438Y-44432552D01*
X176286438Y-44432552D02*
X176334057Y-44384933D01*
X176334057Y-44384933D02*
X176429295Y-44337314D01*
X176429295Y-44337314D02*
X176524533Y-44337314D01*
X176524533Y-44337314D02*
X176619771Y-44384933D01*
X176619771Y-44384933D02*
X176667390Y-44432552D01*
X176667390Y-44432552D02*
X176715009Y-44527790D01*
X176715009Y-44527790D02*
X176715009Y-44861123D01*
X176334057Y-43908742D02*
X176286438Y-43861123D01*
X176286438Y-43861123D02*
X176238819Y-43765885D01*
X176238819Y-43765885D02*
X176238819Y-43527790D01*
X176238819Y-43527790D02*
X176286438Y-43432552D01*
X176286438Y-43432552D02*
X176334057Y-43384933D01*
X176334057Y-43384933D02*
X176429295Y-43337314D01*
X176429295Y-43337314D02*
X176524533Y-43337314D01*
X176524533Y-43337314D02*
X176667390Y-43384933D01*
X176667390Y-43384933D02*
X177238819Y-43956361D01*
X177238819Y-43956361D02*
X177238819Y-43337314D01*
X169872819Y-48426666D02*
X169396628Y-48759999D01*
X169872819Y-48998094D02*
X168872819Y-48998094D01*
X168872819Y-48998094D02*
X168872819Y-48617142D01*
X168872819Y-48617142D02*
X168920438Y-48521904D01*
X168920438Y-48521904D02*
X168968057Y-48474285D01*
X168968057Y-48474285D02*
X169063295Y-48426666D01*
X169063295Y-48426666D02*
X169206152Y-48426666D01*
X169206152Y-48426666D02*
X169301390Y-48474285D01*
X169301390Y-48474285D02*
X169349009Y-48521904D01*
X169349009Y-48521904D02*
X169396628Y-48617142D01*
X169396628Y-48617142D02*
X169396628Y-48998094D01*
X169872819Y-47950475D02*
X169872819Y-47759999D01*
X169872819Y-47759999D02*
X169825200Y-47664761D01*
X169825200Y-47664761D02*
X169777580Y-47617142D01*
X169777580Y-47617142D02*
X169634723Y-47521904D01*
X169634723Y-47521904D02*
X169444247Y-47474285D01*
X169444247Y-47474285D02*
X169063295Y-47474285D01*
X169063295Y-47474285D02*
X168968057Y-47521904D01*
X168968057Y-47521904D02*
X168920438Y-47569523D01*
X168920438Y-47569523D02*
X168872819Y-47664761D01*
X168872819Y-47664761D02*
X168872819Y-47855237D01*
X168872819Y-47855237D02*
X168920438Y-47950475D01*
X168920438Y-47950475D02*
X168968057Y-47998094D01*
X168968057Y-47998094D02*
X169063295Y-48045713D01*
X169063295Y-48045713D02*
X169301390Y-48045713D01*
X169301390Y-48045713D02*
X169396628Y-47998094D01*
X169396628Y-47998094D02*
X169444247Y-47950475D01*
X169444247Y-47950475D02*
X169491866Y-47855237D01*
X169491866Y-47855237D02*
X169491866Y-47664761D01*
X169491866Y-47664761D02*
X169444247Y-47569523D01*
X169444247Y-47569523D02*
X169396628Y-47521904D01*
X169396628Y-47521904D02*
X169301390Y-47474285D01*
X185626476Y-54826819D02*
X186293142Y-55826819D01*
X186293142Y-54826819D02*
X185626476Y-55826819D01*
X186721714Y-55826819D02*
X186912190Y-55826819D01*
X186912190Y-55826819D02*
X187007428Y-55779200D01*
X187007428Y-55779200D02*
X187055047Y-55731580D01*
X187055047Y-55731580D02*
X187150285Y-55588723D01*
X187150285Y-55588723D02*
X187197904Y-55398247D01*
X187197904Y-55398247D02*
X187197904Y-55017295D01*
X187197904Y-55017295D02*
X187150285Y-54922057D01*
X187150285Y-54922057D02*
X187102666Y-54874438D01*
X187102666Y-54874438D02*
X187007428Y-54826819D01*
X187007428Y-54826819D02*
X186816952Y-54826819D01*
X186816952Y-54826819D02*
X186721714Y-54874438D01*
X186721714Y-54874438D02*
X186674095Y-54922057D01*
X186674095Y-54922057D02*
X186626476Y-55017295D01*
X186626476Y-55017295D02*
X186626476Y-55255390D01*
X186626476Y-55255390D02*
X186674095Y-55350628D01*
X186674095Y-55350628D02*
X186721714Y-55398247D01*
X186721714Y-55398247D02*
X186816952Y-55445866D01*
X186816952Y-55445866D02*
X187007428Y-55445866D01*
X187007428Y-55445866D02*
X187102666Y-55398247D01*
X187102666Y-55398247D02*
X187150285Y-55350628D01*
X187150285Y-55350628D02*
X187197904Y-55255390D01*
X155548095Y-60414819D02*
X156119523Y-60414819D01*
X155833809Y-61414819D02*
X155833809Y-60414819D01*
X156452857Y-61414819D02*
X156452857Y-60414819D01*
X156452857Y-60414819D02*
X156833809Y-60414819D01*
X156833809Y-60414819D02*
X156929047Y-60462438D01*
X156929047Y-60462438D02*
X156976666Y-60510057D01*
X156976666Y-60510057D02*
X157024285Y-60605295D01*
X157024285Y-60605295D02*
X157024285Y-60748152D01*
X157024285Y-60748152D02*
X156976666Y-60843390D01*
X156976666Y-60843390D02*
X156929047Y-60891009D01*
X156929047Y-60891009D02*
X156833809Y-60938628D01*
X156833809Y-60938628D02*
X156452857Y-60938628D01*
X157595714Y-60843390D02*
X157500476Y-60795771D01*
X157500476Y-60795771D02*
X157452857Y-60748152D01*
X157452857Y-60748152D02*
X157405238Y-60652914D01*
X157405238Y-60652914D02*
X157405238Y-60605295D01*
X157405238Y-60605295D02*
X157452857Y-60510057D01*
X157452857Y-60510057D02*
X157500476Y-60462438D01*
X157500476Y-60462438D02*
X157595714Y-60414819D01*
X157595714Y-60414819D02*
X157786190Y-60414819D01*
X157786190Y-60414819D02*
X157881428Y-60462438D01*
X157881428Y-60462438D02*
X157929047Y-60510057D01*
X157929047Y-60510057D02*
X157976666Y-60605295D01*
X157976666Y-60605295D02*
X157976666Y-60652914D01*
X157976666Y-60652914D02*
X157929047Y-60748152D01*
X157929047Y-60748152D02*
X157881428Y-60795771D01*
X157881428Y-60795771D02*
X157786190Y-60843390D01*
X157786190Y-60843390D02*
X157595714Y-60843390D01*
X157595714Y-60843390D02*
X157500476Y-60891009D01*
X157500476Y-60891009D02*
X157452857Y-60938628D01*
X157452857Y-60938628D02*
X157405238Y-61033866D01*
X157405238Y-61033866D02*
X157405238Y-61224342D01*
X157405238Y-61224342D02*
X157452857Y-61319580D01*
X157452857Y-61319580D02*
X157500476Y-61367200D01*
X157500476Y-61367200D02*
X157595714Y-61414819D01*
X157595714Y-61414819D02*
X157786190Y-61414819D01*
X157786190Y-61414819D02*
X157881428Y-61367200D01*
X157881428Y-61367200D02*
X157929047Y-61319580D01*
X157929047Y-61319580D02*
X157976666Y-61224342D01*
X157976666Y-61224342D02*
X157976666Y-61033866D01*
X157976666Y-61033866D02*
X157929047Y-60938628D01*
X157929047Y-60938628D02*
X157881428Y-60891009D01*
X157881428Y-60891009D02*
X157786190Y-60843390D01*
X177061905Y-60525819D02*
X177061905Y-59525819D01*
X177061905Y-59525819D02*
X177300000Y-59525819D01*
X177300000Y-59525819D02*
X177442857Y-59573438D01*
X177442857Y-59573438D02*
X177538095Y-59668676D01*
X177538095Y-59668676D02*
X177585714Y-59763914D01*
X177585714Y-59763914D02*
X177633333Y-59954390D01*
X177633333Y-59954390D02*
X177633333Y-60097247D01*
X177633333Y-60097247D02*
X177585714Y-60287723D01*
X177585714Y-60287723D02*
X177538095Y-60382961D01*
X177538095Y-60382961D02*
X177442857Y-60478200D01*
X177442857Y-60478200D02*
X177300000Y-60525819D01*
X177300000Y-60525819D02*
X177061905Y-60525819D01*
X178585714Y-60525819D02*
X178014286Y-60525819D01*
X178300000Y-60525819D02*
X178300000Y-59525819D01*
X178300000Y-59525819D02*
X178204762Y-59668676D01*
X178204762Y-59668676D02*
X178109524Y-59763914D01*
X178109524Y-59763914D02*
X178014286Y-59811533D01*
X170704819Y-62142666D02*
X170228628Y-62475999D01*
X170704819Y-62714094D02*
X169704819Y-62714094D01*
X169704819Y-62714094D02*
X169704819Y-62333142D01*
X169704819Y-62333142D02*
X169752438Y-62237904D01*
X169752438Y-62237904D02*
X169800057Y-62190285D01*
X169800057Y-62190285D02*
X169895295Y-62142666D01*
X169895295Y-62142666D02*
X170038152Y-62142666D01*
X170038152Y-62142666D02*
X170133390Y-62190285D01*
X170133390Y-62190285D02*
X170181009Y-62237904D01*
X170181009Y-62237904D02*
X170228628Y-62333142D01*
X170228628Y-62333142D02*
X170228628Y-62714094D01*
X170704819Y-61190285D02*
X170704819Y-61761713D01*
X170704819Y-61475999D02*
X169704819Y-61475999D01*
X169704819Y-61475999D02*
X169847676Y-61571237D01*
X169847676Y-61571237D02*
X169942914Y-61666475D01*
X169942914Y-61666475D02*
X169990533Y-61761713D01*
X171396819Y-42902094D02*
X170396819Y-42902094D01*
X170396819Y-42902094D02*
X170396819Y-42663999D01*
X170396819Y-42663999D02*
X170444438Y-42521142D01*
X170444438Y-42521142D02*
X170539676Y-42425904D01*
X170539676Y-42425904D02*
X170634914Y-42378285D01*
X170634914Y-42378285D02*
X170825390Y-42330666D01*
X170825390Y-42330666D02*
X170968247Y-42330666D01*
X170968247Y-42330666D02*
X171158723Y-42378285D01*
X171158723Y-42378285D02*
X171253961Y-42425904D01*
X171253961Y-42425904D02*
X171349200Y-42521142D01*
X171349200Y-42521142D02*
X171396819Y-42663999D01*
X171396819Y-42663999D02*
X171396819Y-42902094D01*
X170396819Y-41473523D02*
X170396819Y-41663999D01*
X170396819Y-41663999D02*
X170444438Y-41759237D01*
X170444438Y-41759237D02*
X170492057Y-41806856D01*
X170492057Y-41806856D02*
X170634914Y-41902094D01*
X170634914Y-41902094D02*
X170825390Y-41949713D01*
X170825390Y-41949713D02*
X171206342Y-41949713D01*
X171206342Y-41949713D02*
X171301580Y-41902094D01*
X171301580Y-41902094D02*
X171349200Y-41854475D01*
X171349200Y-41854475D02*
X171396819Y-41759237D01*
X171396819Y-41759237D02*
X171396819Y-41568761D01*
X171396819Y-41568761D02*
X171349200Y-41473523D01*
X171349200Y-41473523D02*
X171301580Y-41425904D01*
X171301580Y-41425904D02*
X171206342Y-41378285D01*
X171206342Y-41378285D02*
X170968247Y-41378285D01*
X170968247Y-41378285D02*
X170873009Y-41425904D01*
X170873009Y-41425904D02*
X170825390Y-41473523D01*
X170825390Y-41473523D02*
X170777771Y-41568761D01*
X170777771Y-41568761D02*
X170777771Y-41759237D01*
X170777771Y-41759237D02*
X170825390Y-41854475D01*
X170825390Y-41854475D02*
X170873009Y-41902094D01*
X170873009Y-41902094D02*
X170968247Y-41949713D01*
X159062895Y-38977219D02*
X159634323Y-38977219D01*
X159348609Y-39977219D02*
X159348609Y-38977219D01*
X159967657Y-39977219D02*
X159967657Y-38977219D01*
X159967657Y-38977219D02*
X160348609Y-38977219D01*
X160348609Y-38977219D02*
X160443847Y-39024838D01*
X160443847Y-39024838D02*
X160491466Y-39072457D01*
X160491466Y-39072457D02*
X160539085Y-39167695D01*
X160539085Y-39167695D02*
X160539085Y-39310552D01*
X160539085Y-39310552D02*
X160491466Y-39405790D01*
X160491466Y-39405790D02*
X160443847Y-39453409D01*
X160443847Y-39453409D02*
X160348609Y-39501028D01*
X160348609Y-39501028D02*
X159967657Y-39501028D01*
X161396228Y-39310552D02*
X161396228Y-39977219D01*
X161158133Y-38929600D02*
X160920038Y-39643885D01*
X160920038Y-39643885D02*
X161539085Y-39643885D01*
X181471219Y-48855094D02*
X181471219Y-48283666D01*
X182471219Y-48569380D02*
X181471219Y-48569380D01*
X182471219Y-47950332D02*
X181471219Y-47950332D01*
X181471219Y-47950332D02*
X181471219Y-47569380D01*
X181471219Y-47569380D02*
X181518838Y-47474142D01*
X181518838Y-47474142D02*
X181566457Y-47426523D01*
X181566457Y-47426523D02*
X181661695Y-47378904D01*
X181661695Y-47378904D02*
X181804552Y-47378904D01*
X181804552Y-47378904D02*
X181899790Y-47426523D01*
X181899790Y-47426523D02*
X181947409Y-47474142D01*
X181947409Y-47474142D02*
X181995028Y-47569380D01*
X181995028Y-47569380D02*
X181995028Y-47950332D01*
X182471219Y-46426523D02*
X182471219Y-46997951D01*
X182471219Y-46712237D02*
X181471219Y-46712237D01*
X181471219Y-46712237D02*
X181614076Y-46807475D01*
X181614076Y-46807475D02*
X181709314Y-46902713D01*
X181709314Y-46902713D02*
X181756933Y-46997951D01*
X182471219Y-45474142D02*
X182471219Y-46045570D01*
X182471219Y-45759856D02*
X181471219Y-45759856D01*
X181471219Y-45759856D02*
X181614076Y-45855094D01*
X181614076Y-45855094D02*
X181709314Y-45950332D01*
X181709314Y-45950332D02*
X181756933Y-46045570D01*
X178482666Y-58097009D02*
X178149333Y-58097009D01*
X178149333Y-58620819D02*
X178149333Y-57620819D01*
X178149333Y-57620819D02*
X178625523Y-57620819D01*
X179435047Y-57954152D02*
X179435047Y-58620819D01*
X179196952Y-57573200D02*
X178958857Y-58287485D01*
X178958857Y-58287485D02*
X179577904Y-58287485D01*
X168094819Y-52300094D02*
X167094819Y-52300094D01*
X167094819Y-52300094D02*
X167094819Y-52061999D01*
X167094819Y-52061999D02*
X167142438Y-51919142D01*
X167142438Y-51919142D02*
X167237676Y-51823904D01*
X167237676Y-51823904D02*
X167332914Y-51776285D01*
X167332914Y-51776285D02*
X167523390Y-51728666D01*
X167523390Y-51728666D02*
X167666247Y-51728666D01*
X167666247Y-51728666D02*
X167856723Y-51776285D01*
X167856723Y-51776285D02*
X167951961Y-51823904D01*
X167951961Y-51823904D02*
X168047200Y-51919142D01*
X168047200Y-51919142D02*
X168094819Y-52061999D01*
X168094819Y-52061999D02*
X168094819Y-52300094D01*
X167094819Y-51395332D02*
X167094819Y-50776285D01*
X167094819Y-50776285D02*
X167475771Y-51109618D01*
X167475771Y-51109618D02*
X167475771Y-50966761D01*
X167475771Y-50966761D02*
X167523390Y-50871523D01*
X167523390Y-50871523D02*
X167571009Y-50823904D01*
X167571009Y-50823904D02*
X167666247Y-50776285D01*
X167666247Y-50776285D02*
X167904342Y-50776285D01*
X167904342Y-50776285D02*
X167999580Y-50823904D01*
X167999580Y-50823904D02*
X168047200Y-50871523D01*
X168047200Y-50871523D02*
X168094819Y-50966761D01*
X168094819Y-50966761D02*
X168094819Y-51252475D01*
X168094819Y-51252475D02*
X168047200Y-51347713D01*
X168047200Y-51347713D02*
X167999580Y-51395332D01*
X171650819Y-39536666D02*
X171174628Y-39869999D01*
X171650819Y-40108094D02*
X170650819Y-40108094D01*
X170650819Y-40108094D02*
X170650819Y-39727142D01*
X170650819Y-39727142D02*
X170698438Y-39631904D01*
X170698438Y-39631904D02*
X170746057Y-39584285D01*
X170746057Y-39584285D02*
X170841295Y-39536666D01*
X170841295Y-39536666D02*
X170984152Y-39536666D01*
X170984152Y-39536666D02*
X171079390Y-39584285D01*
X171079390Y-39584285D02*
X171127009Y-39631904D01*
X171127009Y-39631904D02*
X171174628Y-39727142D01*
X171174628Y-39727142D02*
X171174628Y-40108094D01*
X170650819Y-38679523D02*
X170650819Y-38869999D01*
X170650819Y-38869999D02*
X170698438Y-38965237D01*
X170698438Y-38965237D02*
X170746057Y-39012856D01*
X170746057Y-39012856D02*
X170888914Y-39108094D01*
X170888914Y-39108094D02*
X171079390Y-39155713D01*
X171079390Y-39155713D02*
X171460342Y-39155713D01*
X171460342Y-39155713D02*
X171555580Y-39108094D01*
X171555580Y-39108094D02*
X171603200Y-39060475D01*
X171603200Y-39060475D02*
X171650819Y-38965237D01*
X171650819Y-38965237D02*
X171650819Y-38774761D01*
X171650819Y-38774761D02*
X171603200Y-38679523D01*
X171603200Y-38679523D02*
X171555580Y-38631904D01*
X171555580Y-38631904D02*
X171460342Y-38584285D01*
X171460342Y-38584285D02*
X171222247Y-38584285D01*
X171222247Y-38584285D02*
X171127009Y-38631904D01*
X171127009Y-38631904D02*
X171079390Y-38679523D01*
X171079390Y-38679523D02*
X171031771Y-38774761D01*
X171031771Y-38774761D02*
X171031771Y-38965237D01*
X171031771Y-38965237D02*
X171079390Y-39060475D01*
X171079390Y-39060475D02*
X171127009Y-39108094D01*
X171127009Y-39108094D02*
X171222247Y-39155713D01*
X175460819Y-48426666D02*
X174984628Y-48759999D01*
X175460819Y-48998094D02*
X174460819Y-48998094D01*
X174460819Y-48998094D02*
X174460819Y-48617142D01*
X174460819Y-48617142D02*
X174508438Y-48521904D01*
X174508438Y-48521904D02*
X174556057Y-48474285D01*
X174556057Y-48474285D02*
X174651295Y-48426666D01*
X174651295Y-48426666D02*
X174794152Y-48426666D01*
X174794152Y-48426666D02*
X174889390Y-48474285D01*
X174889390Y-48474285D02*
X174937009Y-48521904D01*
X174937009Y-48521904D02*
X174984628Y-48617142D01*
X174984628Y-48617142D02*
X174984628Y-48998094D01*
X174460819Y-48093332D02*
X174460819Y-47474285D01*
X174460819Y-47474285D02*
X174841771Y-47807618D01*
X174841771Y-47807618D02*
X174841771Y-47664761D01*
X174841771Y-47664761D02*
X174889390Y-47569523D01*
X174889390Y-47569523D02*
X174937009Y-47521904D01*
X174937009Y-47521904D02*
X175032247Y-47474285D01*
X175032247Y-47474285D02*
X175270342Y-47474285D01*
X175270342Y-47474285D02*
X175365580Y-47521904D01*
X175365580Y-47521904D02*
X175413200Y-47569523D01*
X175413200Y-47569523D02*
X175460819Y-47664761D01*
X175460819Y-47664761D02*
X175460819Y-47950475D01*
X175460819Y-47950475D02*
X175413200Y-48045713D01*
X175413200Y-48045713D02*
X175365580Y-48093332D01*
X174839333Y-47190819D02*
X174506000Y-46714628D01*
X174267905Y-47190819D02*
X174267905Y-46190819D01*
X174267905Y-46190819D02*
X174648857Y-46190819D01*
X174648857Y-46190819D02*
X174744095Y-46238438D01*
X174744095Y-46238438D02*
X174791714Y-46286057D01*
X174791714Y-46286057D02*
X174839333Y-46381295D01*
X174839333Y-46381295D02*
X174839333Y-46524152D01*
X174839333Y-46524152D02*
X174791714Y-46619390D01*
X174791714Y-46619390D02*
X174744095Y-46667009D01*
X174744095Y-46667009D02*
X174648857Y-46714628D01*
X174648857Y-46714628D02*
X174267905Y-46714628D01*
X175410762Y-46619390D02*
X175315524Y-46571771D01*
X175315524Y-46571771D02*
X175267905Y-46524152D01*
X175267905Y-46524152D02*
X175220286Y-46428914D01*
X175220286Y-46428914D02*
X175220286Y-46381295D01*
X175220286Y-46381295D02*
X175267905Y-46286057D01*
X175267905Y-46286057D02*
X175315524Y-46238438D01*
X175315524Y-46238438D02*
X175410762Y-46190819D01*
X175410762Y-46190819D02*
X175601238Y-46190819D01*
X175601238Y-46190819D02*
X175696476Y-46238438D01*
X175696476Y-46238438D02*
X175744095Y-46286057D01*
X175744095Y-46286057D02*
X175791714Y-46381295D01*
X175791714Y-46381295D02*
X175791714Y-46428914D01*
X175791714Y-46428914D02*
X175744095Y-46524152D01*
X175744095Y-46524152D02*
X175696476Y-46571771D01*
X175696476Y-46571771D02*
X175601238Y-46619390D01*
X175601238Y-46619390D02*
X175410762Y-46619390D01*
X175410762Y-46619390D02*
X175315524Y-46667009D01*
X175315524Y-46667009D02*
X175267905Y-46714628D01*
X175267905Y-46714628D02*
X175220286Y-46809866D01*
X175220286Y-46809866D02*
X175220286Y-47000342D01*
X175220286Y-47000342D02*
X175267905Y-47095580D01*
X175267905Y-47095580D02*
X175315524Y-47143200D01*
X175315524Y-47143200D02*
X175410762Y-47190819D01*
X175410762Y-47190819D02*
X175601238Y-47190819D01*
X175601238Y-47190819D02*
X175696476Y-47143200D01*
X175696476Y-47143200D02*
X175744095Y-47095580D01*
X175744095Y-47095580D02*
X175791714Y-47000342D01*
X175791714Y-47000342D02*
X175791714Y-46809866D01*
X175791714Y-46809866D02*
X175744095Y-46714628D01*
X175744095Y-46714628D02*
X175696476Y-46667009D01*
X175696476Y-46667009D02*
X175601238Y-46619390D01*
X159488095Y-44454819D02*
X160059523Y-44454819D01*
X159773809Y-45454819D02*
X159773809Y-44454819D01*
X160392857Y-45454819D02*
X160392857Y-44454819D01*
X160392857Y-44454819D02*
X160773809Y-44454819D01*
X160773809Y-44454819D02*
X160869047Y-44502438D01*
X160869047Y-44502438D02*
X160916666Y-44550057D01*
X160916666Y-44550057D02*
X160964285Y-44645295D01*
X160964285Y-44645295D02*
X160964285Y-44788152D01*
X160964285Y-44788152D02*
X160916666Y-44883390D01*
X160916666Y-44883390D02*
X160869047Y-44931009D01*
X160869047Y-44931009D02*
X160773809Y-44978628D01*
X160773809Y-44978628D02*
X160392857Y-44978628D01*
X161869047Y-44454819D02*
X161392857Y-44454819D01*
X161392857Y-44454819D02*
X161345238Y-44931009D01*
X161345238Y-44931009D02*
X161392857Y-44883390D01*
X161392857Y-44883390D02*
X161488095Y-44835771D01*
X161488095Y-44835771D02*
X161726190Y-44835771D01*
X161726190Y-44835771D02*
X161821428Y-44883390D01*
X161821428Y-44883390D02*
X161869047Y-44931009D01*
X161869047Y-44931009D02*
X161916666Y-45026247D01*
X161916666Y-45026247D02*
X161916666Y-45264342D01*
X161916666Y-45264342D02*
X161869047Y-45359580D01*
X161869047Y-45359580D02*
X161821428Y-45407200D01*
X161821428Y-45407200D02*
X161726190Y-45454819D01*
X161726190Y-45454819D02*
X161488095Y-45454819D01*
X161488095Y-45454819D02*
X161392857Y-45407200D01*
X161392857Y-45407200D02*
X161345238Y-45359580D01*
X170775333Y-45666819D02*
X170442000Y-45190628D01*
X170203905Y-45666819D02*
X170203905Y-44666819D01*
X170203905Y-44666819D02*
X170584857Y-44666819D01*
X170584857Y-44666819D02*
X170680095Y-44714438D01*
X170680095Y-44714438D02*
X170727714Y-44762057D01*
X170727714Y-44762057D02*
X170775333Y-44857295D01*
X170775333Y-44857295D02*
X170775333Y-45000152D01*
X170775333Y-45000152D02*
X170727714Y-45095390D01*
X170727714Y-45095390D02*
X170680095Y-45143009D01*
X170680095Y-45143009D02*
X170584857Y-45190628D01*
X170584857Y-45190628D02*
X170203905Y-45190628D01*
X171108667Y-44666819D02*
X171775333Y-44666819D01*
X171775333Y-44666819D02*
X171346762Y-45666819D01*
X181530666Y-38666009D02*
X181197333Y-38666009D01*
X181197333Y-39189819D02*
X181197333Y-38189819D01*
X181197333Y-38189819D02*
X181673523Y-38189819D01*
X182578285Y-39189819D02*
X182006857Y-39189819D01*
X182292571Y-39189819D02*
X182292571Y-38189819D01*
X182292571Y-38189819D02*
X182197333Y-38332676D01*
X182197333Y-38332676D02*
X182102095Y-38427914D01*
X182102095Y-38427914D02*
X182006857Y-38475533D01*
X186102666Y-52540819D02*
X186102666Y-53255104D01*
X186102666Y-53255104D02*
X186055047Y-53397961D01*
X186055047Y-53397961D02*
X185959809Y-53493200D01*
X185959809Y-53493200D02*
X185816952Y-53540819D01*
X185816952Y-53540819D02*
X185721714Y-53540819D01*
X186531238Y-52636057D02*
X186578857Y-52588438D01*
X186578857Y-52588438D02*
X186674095Y-52540819D01*
X186674095Y-52540819D02*
X186912190Y-52540819D01*
X186912190Y-52540819D02*
X187007428Y-52588438D01*
X187007428Y-52588438D02*
X187055047Y-52636057D01*
X187055047Y-52636057D02*
X187102666Y-52731295D01*
X187102666Y-52731295D02*
X187102666Y-52826533D01*
X187102666Y-52826533D02*
X187055047Y-52969390D01*
X187055047Y-52969390D02*
X186483619Y-53540819D01*
X186483619Y-53540819D02*
X187102666Y-53540819D01*
X149058333Y-59414580D02*
X149010714Y-59462200D01*
X149010714Y-59462200D02*
X148867857Y-59509819D01*
X148867857Y-59509819D02*
X148772619Y-59509819D01*
X148772619Y-59509819D02*
X148629762Y-59462200D01*
X148629762Y-59462200D02*
X148534524Y-59366961D01*
X148534524Y-59366961D02*
X148486905Y-59271723D01*
X148486905Y-59271723D02*
X148439286Y-59081247D01*
X148439286Y-59081247D02*
X148439286Y-58938390D01*
X148439286Y-58938390D02*
X148486905Y-58747914D01*
X148486905Y-58747914D02*
X148534524Y-58652676D01*
X148534524Y-58652676D02*
X148629762Y-58557438D01*
X148629762Y-58557438D02*
X148772619Y-58509819D01*
X148772619Y-58509819D02*
X148867857Y-58509819D01*
X148867857Y-58509819D02*
X149010714Y-58557438D01*
X149010714Y-58557438D02*
X149058333Y-58605057D01*
X149439286Y-58605057D02*
X149486905Y-58557438D01*
X149486905Y-58557438D02*
X149582143Y-58509819D01*
X149582143Y-58509819D02*
X149820238Y-58509819D01*
X149820238Y-58509819D02*
X149915476Y-58557438D01*
X149915476Y-58557438D02*
X149963095Y-58605057D01*
X149963095Y-58605057D02*
X150010714Y-58700295D01*
X150010714Y-58700295D02*
X150010714Y-58795533D01*
X150010714Y-58795533D02*
X149963095Y-58938390D01*
X149963095Y-58938390D02*
X149391667Y-59509819D01*
X149391667Y-59509819D02*
X150010714Y-59509819D01*
X161506819Y-63999904D02*
X161506819Y-63428476D01*
X162506819Y-63714190D02*
X161506819Y-63714190D01*
X162506819Y-63095142D02*
X161506819Y-63095142D01*
X161506819Y-63095142D02*
X161506819Y-62714190D01*
X161506819Y-62714190D02*
X161554438Y-62618952D01*
X161554438Y-62618952D02*
X161602057Y-62571333D01*
X161602057Y-62571333D02*
X161697295Y-62523714D01*
X161697295Y-62523714D02*
X161840152Y-62523714D01*
X161840152Y-62523714D02*
X161935390Y-62571333D01*
X161935390Y-62571333D02*
X161983009Y-62618952D01*
X161983009Y-62618952D02*
X162030628Y-62714190D01*
X162030628Y-62714190D02*
X162030628Y-63095142D01*
X161506819Y-62190380D02*
X161506819Y-61571333D01*
X161506819Y-61571333D02*
X161887771Y-61904666D01*
X161887771Y-61904666D02*
X161887771Y-61761809D01*
X161887771Y-61761809D02*
X161935390Y-61666571D01*
X161935390Y-61666571D02*
X161983009Y-61618952D01*
X161983009Y-61618952D02*
X162078247Y-61571333D01*
X162078247Y-61571333D02*
X162316342Y-61571333D01*
X162316342Y-61571333D02*
X162411580Y-61618952D01*
X162411580Y-61618952D02*
X162459200Y-61666571D01*
X162459200Y-61666571D02*
X162506819Y-61761809D01*
X162506819Y-61761809D02*
X162506819Y-62047523D01*
X162506819Y-62047523D02*
X162459200Y-62142761D01*
X162459200Y-62142761D02*
X162411580Y-62190380D01*
X161204819Y-42011904D02*
X162014342Y-42011904D01*
X162014342Y-42011904D02*
X162109580Y-41964285D01*
X162109580Y-41964285D02*
X162157200Y-41916666D01*
X162157200Y-41916666D02*
X162204819Y-41821428D01*
X162204819Y-41821428D02*
X162204819Y-41630952D01*
X162204819Y-41630952D02*
X162157200Y-41535714D01*
X162157200Y-41535714D02*
X162109580Y-41488095D01*
X162109580Y-41488095D02*
X162014342Y-41440476D01*
X162014342Y-41440476D02*
X161204819Y-41440476D01*
X161300057Y-41011904D02*
X161252438Y-40964285D01*
X161252438Y-40964285D02*
X161204819Y-40869047D01*
X161204819Y-40869047D02*
X161204819Y-40630952D01*
X161204819Y-40630952D02*
X161252438Y-40535714D01*
X161252438Y-40535714D02*
X161300057Y-40488095D01*
X161300057Y-40488095D02*
X161395295Y-40440476D01*
X161395295Y-40440476D02*
X161490533Y-40440476D01*
X161490533Y-40440476D02*
X161633390Y-40488095D01*
X161633390Y-40488095D02*
X162204819Y-41059523D01*
X162204819Y-41059523D02*
X162204819Y-40440476D01*
X111934666Y-37808819D02*
X111934666Y-38523104D01*
X111934666Y-38523104D02*
X111887047Y-38665961D01*
X111887047Y-38665961D02*
X111791809Y-38761200D01*
X111791809Y-38761200D02*
X111648952Y-38808819D01*
X111648952Y-38808819D02*
X111553714Y-38808819D01*
X112887047Y-37808819D02*
X112410857Y-37808819D01*
X112410857Y-37808819D02*
X112363238Y-38285009D01*
X112363238Y-38285009D02*
X112410857Y-38237390D01*
X112410857Y-38237390D02*
X112506095Y-38189771D01*
X112506095Y-38189771D02*
X112744190Y-38189771D01*
X112744190Y-38189771D02*
X112839428Y-38237390D01*
X112839428Y-38237390D02*
X112887047Y-38285009D01*
X112887047Y-38285009D02*
X112934666Y-38380247D01*
X112934666Y-38380247D02*
X112934666Y-38618342D01*
X112934666Y-38618342D02*
X112887047Y-38713580D01*
X112887047Y-38713580D02*
X112839428Y-38761200D01*
X112839428Y-38761200D02*
X112744190Y-38808819D01*
X112744190Y-38808819D02*
X112506095Y-38808819D01*
X112506095Y-38808819D02*
X112410857Y-38761200D01*
X112410857Y-38761200D02*
X112363238Y-38713580D01*
X181657666Y-52382009D02*
X181324333Y-52382009D01*
X181324333Y-52905819D02*
X181324333Y-51905819D01*
X181324333Y-51905819D02*
X181800523Y-51905819D01*
X182086238Y-51905819D02*
X182705285Y-51905819D01*
X182705285Y-51905819D02*
X182371952Y-52286771D01*
X182371952Y-52286771D02*
X182514809Y-52286771D01*
X182514809Y-52286771D02*
X182610047Y-52334390D01*
X182610047Y-52334390D02*
X182657666Y-52382009D01*
X182657666Y-52382009D02*
X182705285Y-52477247D01*
X182705285Y-52477247D02*
X182705285Y-52715342D01*
X182705285Y-52715342D02*
X182657666Y-52810580D01*
X182657666Y-52810580D02*
X182610047Y-52858200D01*
X182610047Y-52858200D02*
X182514809Y-52905819D01*
X182514809Y-52905819D02*
X182229095Y-52905819D01*
X182229095Y-52905819D02*
X182133857Y-52858200D01*
X182133857Y-52858200D02*
X182086238Y-52810580D01*
X147328095Y-50704819D02*
X147899523Y-50704819D01*
X147613809Y-51704819D02*
X147613809Y-50704819D01*
X148232857Y-51704819D02*
X148232857Y-50704819D01*
X148232857Y-50704819D02*
X148613809Y-50704819D01*
X148613809Y-50704819D02*
X148709047Y-50752438D01*
X148709047Y-50752438D02*
X148756666Y-50800057D01*
X148756666Y-50800057D02*
X148804285Y-50895295D01*
X148804285Y-50895295D02*
X148804285Y-51038152D01*
X148804285Y-51038152D02*
X148756666Y-51133390D01*
X148756666Y-51133390D02*
X148709047Y-51181009D01*
X148709047Y-51181009D02*
X148613809Y-51228628D01*
X148613809Y-51228628D02*
X148232857Y-51228628D01*
X149185238Y-50800057D02*
X149232857Y-50752438D01*
X149232857Y-50752438D02*
X149328095Y-50704819D01*
X149328095Y-50704819D02*
X149566190Y-50704819D01*
X149566190Y-50704819D02*
X149661428Y-50752438D01*
X149661428Y-50752438D02*
X149709047Y-50800057D01*
X149709047Y-50800057D02*
X149756666Y-50895295D01*
X149756666Y-50895295D02*
X149756666Y-50990533D01*
X149756666Y-50990533D02*
X149709047Y-51133390D01*
X149709047Y-51133390D02*
X149137619Y-51704819D01*
X149137619Y-51704819D02*
X149756666Y-51704819D01*
X171173633Y-56827619D02*
X170840300Y-56351428D01*
X170602205Y-56827619D02*
X170602205Y-55827619D01*
X170602205Y-55827619D02*
X170983157Y-55827619D01*
X170983157Y-55827619D02*
X171078395Y-55875238D01*
X171078395Y-55875238D02*
X171126014Y-55922857D01*
X171126014Y-55922857D02*
X171173633Y-56018095D01*
X171173633Y-56018095D02*
X171173633Y-56160952D01*
X171173633Y-56160952D02*
X171126014Y-56256190D01*
X171126014Y-56256190D02*
X171078395Y-56303809D01*
X171078395Y-56303809D02*
X170983157Y-56351428D01*
X170983157Y-56351428D02*
X170602205Y-56351428D01*
X172078395Y-55827619D02*
X171602205Y-55827619D01*
X171602205Y-55827619D02*
X171554586Y-56303809D01*
X171554586Y-56303809D02*
X171602205Y-56256190D01*
X171602205Y-56256190D02*
X171697443Y-56208571D01*
X171697443Y-56208571D02*
X171935538Y-56208571D01*
X171935538Y-56208571D02*
X172030776Y-56256190D01*
X172030776Y-56256190D02*
X172078395Y-56303809D01*
X172078395Y-56303809D02*
X172126014Y-56399047D01*
X172126014Y-56399047D02*
X172126014Y-56637142D01*
X172126014Y-56637142D02*
X172078395Y-56732380D01*
X172078395Y-56732380D02*
X172030776Y-56780000D01*
X172030776Y-56780000D02*
X171935538Y-56827619D01*
X171935538Y-56827619D02*
X171697443Y-56827619D01*
X171697443Y-56827619D02*
X171602205Y-56780000D01*
X171602205Y-56780000D02*
X171554586Y-56732380D01*
D12*
%TO.C,HUT_CNMB_2*%
X103562092Y-70251281D02*
X103562092Y-34251281D01*
X193562092Y-70251281D02*
X103562092Y-70251281D01*
X103562092Y-34251281D02*
X193562092Y-34251281D01*
X193562092Y-34251281D02*
X193562092Y-70251281D01*
D13*
%TO.C,K2*%
X117690000Y-37700000D02*
X117690000Y-50800000D01*
X117690000Y-50800000D02*
X147090000Y-50800000D01*
X147090000Y-37700000D02*
X117690000Y-37700000D01*
X147090000Y-50800000D02*
X147090000Y-37700000D01*
X147290000Y-37500000D02*
X145790000Y-37500000D01*
X147290000Y-39000000D02*
X147290000Y-37500000D01*
%TO.C,C1*%
X158480000Y-55955000D02*
X166640000Y-55955000D01*
X158480000Y-55995000D02*
X166640000Y-55995000D01*
X158480000Y-56035000D02*
X166640000Y-56035000D01*
X158481000Y-55915000D02*
X166639000Y-55915000D01*
X158483000Y-55875000D02*
X166637000Y-55875000D01*
X158484000Y-55835000D02*
X166636000Y-55835000D01*
X158486000Y-55795000D02*
X166634000Y-55795000D01*
X158489000Y-55755000D02*
X166631000Y-55755000D01*
X158492000Y-55715000D02*
X166628000Y-55715000D01*
X158495000Y-55675000D02*
X166625000Y-55675000D01*
X158499000Y-55635000D02*
X166621000Y-55635000D01*
X158503000Y-55595000D02*
X166617000Y-55595000D01*
X158508000Y-55555000D02*
X166612000Y-55555000D01*
X158512000Y-55515000D02*
X166608000Y-55515000D01*
X158518000Y-55475000D02*
X166602000Y-55475000D01*
X158523000Y-55435000D02*
X166597000Y-55435000D01*
X158530000Y-55395000D02*
X166590000Y-55395000D01*
X158536000Y-55355000D02*
X166584000Y-55355000D01*
X158543000Y-55314000D02*
X161520000Y-55314000D01*
X158550000Y-55274000D02*
X161520000Y-55274000D01*
X158558000Y-55234000D02*
X161520000Y-55234000D01*
X158566000Y-55194000D02*
X161520000Y-55194000D01*
X158575000Y-55154000D02*
X161520000Y-55154000D01*
X158584000Y-55114000D02*
X161520000Y-55114000D01*
X158593000Y-55074000D02*
X161520000Y-55074000D01*
X158603000Y-55034000D02*
X161520000Y-55034000D01*
X158613000Y-54994000D02*
X161520000Y-54994000D01*
X158624000Y-54954000D02*
X161520000Y-54954000D01*
X158635000Y-54914000D02*
X161520000Y-54914000D01*
X158646000Y-54874000D02*
X161520000Y-54874000D01*
X158658000Y-54834000D02*
X161520000Y-54834000D01*
X158671000Y-54794000D02*
X161520000Y-54794000D01*
X158683000Y-54754000D02*
X161520000Y-54754000D01*
X158697000Y-54714000D02*
X161520000Y-54714000D01*
X158710000Y-54674000D02*
X161520000Y-54674000D01*
X158725000Y-54634000D02*
X161520000Y-54634000D01*
X158739000Y-54594000D02*
X161520000Y-54594000D01*
X158755000Y-54554000D02*
X161520000Y-54554000D01*
X158770000Y-54514000D02*
X161520000Y-54514000D01*
X158786000Y-54474000D02*
X161520000Y-54474000D01*
X158803000Y-54434000D02*
X161520000Y-54434000D01*
X158820000Y-54394000D02*
X161520000Y-54394000D01*
X158838000Y-54354000D02*
X161520000Y-54354000D01*
X158856000Y-54314000D02*
X161520000Y-54314000D01*
X158874000Y-54274000D02*
X161520000Y-54274000D01*
X158894000Y-54234000D02*
X161520000Y-54234000D01*
X158913000Y-54194000D02*
X161520000Y-54194000D01*
X158933000Y-54154000D02*
X161520000Y-54154000D01*
X158954000Y-54114000D02*
X161520000Y-54114000D01*
X158976000Y-54074000D02*
X161520000Y-54074000D01*
X158998000Y-54034000D02*
X161520000Y-54034000D01*
X159020000Y-53994000D02*
X161520000Y-53994000D01*
X159043000Y-53954000D02*
X161520000Y-53954000D01*
X159067000Y-53914000D02*
X161520000Y-53914000D01*
X159091000Y-53874000D02*
X161520000Y-53874000D01*
X159116000Y-53834000D02*
X161520000Y-53834000D01*
X159142000Y-53794000D02*
X161520000Y-53794000D01*
X159168000Y-53754000D02*
X161520000Y-53754000D01*
X159195000Y-53714000D02*
X161520000Y-53714000D01*
X159222000Y-53674000D02*
X161520000Y-53674000D01*
X159251000Y-53634000D02*
X161520000Y-53634000D01*
X159280000Y-53594000D02*
X161520000Y-53594000D01*
X159310000Y-53554000D02*
X161520000Y-53554000D01*
X159340000Y-53514000D02*
X161520000Y-53514000D01*
X159371000Y-53474000D02*
X161520000Y-53474000D01*
X159404000Y-53434000D02*
X161520000Y-53434000D01*
X159436000Y-53394000D02*
X161520000Y-53394000D01*
X159470000Y-53354000D02*
X161520000Y-53354000D01*
X159505000Y-53314000D02*
X161520000Y-53314000D01*
X159541000Y-53274000D02*
X161520000Y-53274000D01*
X159577000Y-53234000D02*
X165543000Y-53234000D01*
X159615000Y-53194000D02*
X165505000Y-53194000D01*
X159653000Y-53154000D02*
X165467000Y-53154000D01*
X159693000Y-53114000D02*
X165427000Y-53114000D01*
X159734000Y-53074000D02*
X165386000Y-53074000D01*
X159776000Y-53034000D02*
X165344000Y-53034000D01*
X159819000Y-52994000D02*
X165301000Y-52994000D01*
X159845000Y-60044698D02*
X160645000Y-60044698D01*
X159863000Y-52954000D02*
X165257000Y-52954000D01*
X159909000Y-52914000D02*
X165211000Y-52914000D01*
X159956000Y-52874000D02*
X165164000Y-52874000D01*
X160004000Y-52834000D02*
X165116000Y-52834000D01*
X160055000Y-52794000D02*
X165065000Y-52794000D01*
X160106000Y-52754000D02*
X165014000Y-52754000D01*
X160160000Y-52714000D02*
X164960000Y-52714000D01*
X160215000Y-52674000D02*
X164905000Y-52674000D01*
X160245000Y-60444698D02*
X160245000Y-59644698D01*
X160273000Y-52634000D02*
X164847000Y-52634000D01*
X160332000Y-52594000D02*
X164788000Y-52594000D01*
X160394000Y-52554000D02*
X164726000Y-52554000D01*
X160458000Y-52514000D02*
X164662000Y-52514000D01*
X160526000Y-52474000D02*
X164594000Y-52474000D01*
X160596000Y-52434000D02*
X164524000Y-52434000D01*
X160670000Y-52394000D02*
X164450000Y-52394000D01*
X160747000Y-52354000D02*
X164373000Y-52354000D01*
X160829000Y-52314000D02*
X164291000Y-52314000D01*
X160915000Y-52274000D02*
X164205000Y-52274000D01*
X161008000Y-52234000D02*
X164112000Y-52234000D01*
X161107000Y-52194000D02*
X164013000Y-52194000D01*
X161214000Y-52154000D02*
X163906000Y-52154000D01*
X161331000Y-52114000D02*
X163789000Y-52114000D01*
X161462000Y-52074000D02*
X163658000Y-52074000D01*
X161612000Y-52034000D02*
X163508000Y-52034000D01*
X161792000Y-51994000D02*
X163328000Y-51994000D01*
X162027000Y-51954000D02*
X163093000Y-51954000D01*
X163600000Y-53274000D02*
X165579000Y-53274000D01*
X163600000Y-53314000D02*
X165615000Y-53314000D01*
X163600000Y-53354000D02*
X165650000Y-53354000D01*
X163600000Y-53394000D02*
X165684000Y-53394000D01*
X163600000Y-53434000D02*
X165716000Y-53434000D01*
X163600000Y-53474000D02*
X165749000Y-53474000D01*
X163600000Y-53514000D02*
X165780000Y-53514000D01*
X163600000Y-53554000D02*
X165810000Y-53554000D01*
X163600000Y-53594000D02*
X165840000Y-53594000D01*
X163600000Y-53634000D02*
X165869000Y-53634000D01*
X163600000Y-53674000D02*
X165898000Y-53674000D01*
X163600000Y-53714000D02*
X165925000Y-53714000D01*
X163600000Y-53754000D02*
X165952000Y-53754000D01*
X163600000Y-53794000D02*
X165978000Y-53794000D01*
X163600000Y-53834000D02*
X166004000Y-53834000D01*
X163600000Y-53874000D02*
X166029000Y-53874000D01*
X163600000Y-53914000D02*
X166053000Y-53914000D01*
X163600000Y-53954000D02*
X166077000Y-53954000D01*
X163600000Y-53994000D02*
X166100000Y-53994000D01*
X163600000Y-54034000D02*
X166122000Y-54034000D01*
X163600000Y-54074000D02*
X166144000Y-54074000D01*
X163600000Y-54114000D02*
X166166000Y-54114000D01*
X163600000Y-54154000D02*
X166187000Y-54154000D01*
X163600000Y-54194000D02*
X166207000Y-54194000D01*
X163600000Y-54234000D02*
X166226000Y-54234000D01*
X163600000Y-54274000D02*
X166246000Y-54274000D01*
X163600000Y-54314000D02*
X166264000Y-54314000D01*
X163600000Y-54354000D02*
X166282000Y-54354000D01*
X163600000Y-54394000D02*
X166300000Y-54394000D01*
X163600000Y-54434000D02*
X166317000Y-54434000D01*
X163600000Y-54474000D02*
X166334000Y-54474000D01*
X163600000Y-54514000D02*
X166350000Y-54514000D01*
X163600000Y-54554000D02*
X166365000Y-54554000D01*
X163600000Y-54594000D02*
X166381000Y-54594000D01*
X163600000Y-54634000D02*
X166395000Y-54634000D01*
X163600000Y-54674000D02*
X166410000Y-54674000D01*
X163600000Y-54714000D02*
X166423000Y-54714000D01*
X163600000Y-54754000D02*
X166437000Y-54754000D01*
X163600000Y-54794000D02*
X166449000Y-54794000D01*
X163600000Y-54834000D02*
X166462000Y-54834000D01*
X163600000Y-54874000D02*
X166474000Y-54874000D01*
X163600000Y-54914000D02*
X166485000Y-54914000D01*
X163600000Y-54954000D02*
X166496000Y-54954000D01*
X163600000Y-54994000D02*
X166507000Y-54994000D01*
X163600000Y-55034000D02*
X166517000Y-55034000D01*
X163600000Y-55074000D02*
X166527000Y-55074000D01*
X163600000Y-55114000D02*
X166536000Y-55114000D01*
X163600000Y-55154000D02*
X166545000Y-55154000D01*
X163600000Y-55194000D02*
X166554000Y-55194000D01*
X163600000Y-55234000D02*
X166562000Y-55234000D01*
X163600000Y-55274000D02*
X166570000Y-55274000D01*
X163600000Y-55314000D02*
X166577000Y-55314000D01*
X166680000Y-56035000D02*
G75*
G02*
X158440000Y-56035000I-4120000J0D01*
G01*
X158440000Y-56035000D02*
G75*
G02*
X166680000Y-56035000I4120000J0D01*
G01*
%TO.C,TP7*%
X171892000Y-59563000D02*
G75*
G02*
X169992000Y-59563000I-950000J0D01*
G01*
X169992000Y-59563000D02*
G75*
G02*
X171892000Y-59563000I950000J0D01*
G01*
%TO.C,D8*%
X141500000Y-53360000D02*
X145910000Y-53360000D01*
X145910000Y-51140000D02*
X141500000Y-51140000D01*
X145910000Y-53360000D02*
X145910000Y-51140000D01*
%TO.C,FB3*%
X178545378Y-49786250D02*
X179344622Y-49786250D01*
X178545378Y-50906250D02*
X179344622Y-50906250D01*
%TO.C,TP6*%
X161700000Y-50000000D02*
G75*
G02*
X159800000Y-50000000I-950000J0D01*
G01*
X159800000Y-50000000D02*
G75*
G02*
X161700000Y-50000000I950000J0D01*
G01*
%TO.C,FB1*%
X178670378Y-36270000D02*
X179469622Y-36270000D01*
X178670378Y-37390000D02*
X179469622Y-37390000D01*
%TO.C,R4*%
X175634564Y-49938000D02*
X175180436Y-49938000D01*
X175634564Y-51408000D02*
X175180436Y-51408000D01*
%TO.C,TP10*%
X180786000Y-40894000D02*
G75*
G02*
X179386000Y-40894000I-700000J0D01*
G01*
X179386000Y-40894000D02*
G75*
G02*
X180786000Y-40894000I700000J0D01*
G01*
%TO.C,F2*%
X179758078Y-45518000D02*
X179240922Y-45518000D01*
X179758078Y-46938000D02*
X179240922Y-46938000D01*
%TO.C,TP12*%
X176849000Y-52832000D02*
G75*
G02*
X175449000Y-52832000I-700000J0D01*
G01*
X175449000Y-52832000D02*
G75*
G02*
X176849000Y-52832000I700000J0D01*
G01*
%TO.C,J1*%
X148130000Y-67330000D02*
X148130000Y-66000000D01*
X149460000Y-67330000D02*
X148130000Y-67330000D01*
X150730000Y-64670000D02*
X171110000Y-64670000D01*
X150730000Y-67330000D02*
X150730000Y-64670000D01*
X150730000Y-67330000D02*
X171110000Y-67330000D01*
X171110000Y-67330000D02*
X171110000Y-64670000D01*
%TO.C,C5*%
X173408748Y-36095000D02*
X173931252Y-36095000D01*
X173408748Y-37565000D02*
X173931252Y-37565000D01*
%TO.C,R2*%
X177519064Y-40159000D02*
X177064936Y-40159000D01*
X177519064Y-41629000D02*
X177064936Y-41629000D01*
%TO.C,U1*%
X147690000Y-41210000D02*
X147690000Y-39260000D01*
X147690000Y-41210000D02*
X147690000Y-43160000D01*
X157810000Y-41210000D02*
X157810000Y-39260000D01*
X157810000Y-41210000D02*
X157810000Y-43160000D01*
X158085000Y-38750000D02*
X157755000Y-38510000D01*
X158085000Y-38270000D01*
X158085000Y-38750000D01*
G36*
X158085000Y-38750000D02*
G01*
X157755000Y-38510000D01*
X158085000Y-38270000D01*
X158085000Y-38750000D01*
G37*
%TO.C,TP9*%
X154510000Y-62738000D02*
G75*
G02*
X152610000Y-62738000I-950000J0D01*
G01*
X152610000Y-62738000D02*
G75*
G02*
X154510000Y-62738000I950000J0D01*
G01*
%TO.C,FB4*%
X178545378Y-53786250D02*
X179344622Y-53786250D01*
X178545378Y-54906250D02*
X179344622Y-54906250D01*
%TO.C,K1*%
X117690000Y-53950000D02*
X117690000Y-67050000D01*
X117690000Y-67050000D02*
X147090000Y-67050000D01*
X147090000Y-53950000D02*
X117690000Y-53950000D01*
X147090000Y-67050000D02*
X147090000Y-53950000D01*
X147290000Y-53750000D02*
X145790000Y-53750000D01*
X147290000Y-55250000D02*
X147290000Y-53750000D01*
%TO.C,C6*%
X166189252Y-48033000D02*
X165666748Y-48033000D01*
X166189252Y-49503000D02*
X165666748Y-49503000D01*
%TO.C,SJ1*%
X164735000Y-60195000D02*
X166735000Y-60195000D01*
X164735000Y-62995000D02*
X164735000Y-60195000D01*
X166735000Y-60195000D02*
X166735000Y-62995000D01*
X166735000Y-62995000D02*
X164735000Y-62995000D01*
%TO.C,TP13*%
X174817000Y-52832000D02*
G75*
G02*
X173417000Y-52832000I-700000J0D01*
G01*
X173417000Y-52832000D02*
G75*
G02*
X174817000Y-52832000I700000J0D01*
G01*
%TO.C,TP1*%
X150450000Y-62738000D02*
G75*
G02*
X148550000Y-62738000I-950000J0D01*
G01*
X148550000Y-62738000D02*
G75*
G02*
X150450000Y-62738000I950000J0D01*
G01*
%TO.C,FB2*%
X178970878Y-43763000D02*
X179770122Y-43763000D01*
X178970878Y-44883000D02*
X179770122Y-44883000D01*
%TO.C,R9*%
X170334000Y-47651936D02*
X170334000Y-48106064D01*
X171804000Y-47651936D02*
X171804000Y-48106064D01*
%TO.C,X9*%
X181385000Y-56455000D02*
X191385000Y-56455000D01*
X181385000Y-67955000D02*
X181385000Y-56455000D01*
X189145000Y-62205000D02*
X181675000Y-62205000D01*
X190585000Y-68305000D02*
X191735000Y-68305000D01*
X191385000Y-56455000D02*
X191385000Y-67955000D01*
X191385000Y-67955000D02*
X181385000Y-67955000D01*
X191735000Y-68305000D02*
X191735000Y-67055000D01*
%TO.C,TP8*%
X157760000Y-62738000D02*
G75*
G02*
X155860000Y-62738000I-950000J0D01*
G01*
X155860000Y-62738000D02*
G75*
G02*
X157760000Y-62738000I950000J0D01*
G01*
%TO.C,D1*%
X176150000Y-68026000D02*
X176150000Y-62516000D01*
X176150000Y-68026000D02*
X179450000Y-68026000D01*
X179450000Y-68026000D02*
X179450000Y-62516000D01*
%TO.C,R1*%
X167365000Y-61879564D02*
X167365000Y-60425436D01*
X169185000Y-61879564D02*
X169185000Y-60425436D01*
%TO.C,D6*%
X173687500Y-40670000D02*
X173037500Y-40670000D01*
X173687500Y-40670000D02*
X174337500Y-40670000D01*
X173687500Y-43790000D02*
X173037500Y-43790000D01*
X173687500Y-43790000D02*
X174337500Y-43790000D01*
X175090000Y-44070000D02*
X174610000Y-44070000D01*
X174850000Y-43740000D01*
X175090000Y-44070000D01*
G36*
X175090000Y-44070000D02*
G01*
X174610000Y-44070000D01*
X174850000Y-43740000D01*
X175090000Y-44070000D01*
G37*
%TO.C,TP4*%
X161605000Y-37465000D02*
G75*
G02*
X159705000Y-37465000I-950000J0D01*
G01*
X159705000Y-37465000D02*
G75*
G02*
X161605000Y-37465000I950000J0D01*
G01*
%TO.C,TP11*%
X180786000Y-48260000D02*
G75*
G02*
X179386000Y-48260000I-700000J0D01*
G01*
X179386000Y-48260000D02*
G75*
G02*
X180786000Y-48260000I700000J0D01*
G01*
%TO.C,F4*%
X179066078Y-55636250D02*
X178548922Y-55636250D01*
X179066078Y-57056250D02*
X178548922Y-57056250D01*
%TO.C,D3*%
X170355500Y-50080500D02*
X169705500Y-50080500D01*
X170355500Y-50080500D02*
X171005500Y-50080500D01*
X170355500Y-53200500D02*
X169705500Y-53200500D01*
X170355500Y-53200500D02*
X171005500Y-53200500D01*
X171758000Y-53480500D02*
X171278000Y-53480500D01*
X171518000Y-53150500D01*
X171758000Y-53480500D01*
G36*
X171758000Y-53480500D02*
G01*
X171278000Y-53480500D01*
X171518000Y-53150500D01*
X171758000Y-53480500D01*
G37*
%TO.C,R6*%
X173939564Y-38635000D02*
X173485436Y-38635000D01*
X173939564Y-40105000D02*
X173485436Y-40105000D01*
%TO.C,R3*%
X177519064Y-47525000D02*
X177064936Y-47525000D01*
X177519064Y-48995000D02*
X177064936Y-48995000D01*
%TO.C,R8*%
X172366000Y-48106064D02*
X172366000Y-47651936D01*
X173836000Y-48106064D02*
X173836000Y-47651936D01*
%TO.C,TP5*%
X161700000Y-47000000D02*
G75*
G02*
X159800000Y-47000000I-950000J0D01*
G01*
X159800000Y-47000000D02*
G75*
G02*
X161700000Y-47000000I950000J0D01*
G01*
%TO.C,R7*%
X173939564Y-44350000D02*
X173485436Y-44350000D01*
X173939564Y-45820000D02*
X173485436Y-45820000D01*
%TO.C,F1*%
X179407078Y-38073500D02*
X178889922Y-38073500D01*
X179407078Y-39493500D02*
X178889922Y-39493500D01*
%TO.C,J2*%
X183123600Y-37763200D02*
X190843600Y-37763200D01*
X183123600Y-51883200D02*
X183123600Y-37763200D01*
X183123600Y-51883200D02*
X190843600Y-51883200D01*
X185008600Y-38503200D02*
X185102600Y-38597200D01*
X185008600Y-42003200D02*
X185102600Y-42097200D01*
X185008600Y-45503200D02*
X185102600Y-45597200D01*
X185214600Y-38298200D02*
X185342600Y-38427200D01*
X185214600Y-41798200D02*
X185342600Y-41927200D01*
X185214600Y-45298200D02*
X185342600Y-45427200D01*
X187224600Y-40718200D02*
X187352600Y-40847200D01*
X187224600Y-44218200D02*
X187352600Y-44347200D01*
X187224600Y-47718200D02*
X187352600Y-47847200D01*
X187464600Y-40548200D02*
X187557600Y-40642200D01*
X187464600Y-44048200D02*
X187557600Y-44142200D01*
X187464600Y-47548200D02*
X187557600Y-47642200D01*
X189283600Y-51883200D02*
X189283600Y-37763200D01*
X190383600Y-51883200D02*
X190383600Y-37763200D01*
X190443600Y-52123200D02*
X191083600Y-52123200D01*
X190843600Y-51883200D02*
X190843600Y-37763200D01*
X191083600Y-52123200D02*
X191083600Y-51723200D01*
X184858242Y-50963094D02*
G75*
G02*
X184843600Y-49207200I1425356J889894D01*
G01*
X185393408Y-48647697D02*
G75*
G02*
X187174599Y-48648201I890192J-1425506D01*
G01*
X187173494Y-51498558D02*
G75*
G02*
X185417600Y-51513200I-889894J1425356D01*
G01*
X187708320Y-49182936D02*
G75*
G02*
X187963599Y-50073200I-1424710J-890261D01*
G01*
X187963698Y-50044526D02*
G75*
G02*
X187723600Y-50939200I-1680112J-28671D01*
G01*
X187963600Y-39573200D02*
G75*
G02*
X184603600Y-39573200I-1680000J0D01*
G01*
X184603600Y-39573200D02*
G75*
G02*
X187963600Y-39573200I1680000J0D01*
G01*
X187963600Y-43073200D02*
G75*
G02*
X184603600Y-43073200I-1680000J0D01*
G01*
X184603600Y-43073200D02*
G75*
G02*
X187963600Y-43073200I1680000J0D01*
G01*
X187963600Y-46573200D02*
G75*
G02*
X184603600Y-46573200I-1680000J0D01*
G01*
X184603600Y-46573200D02*
G75*
G02*
X187963600Y-46573200I1680000J0D01*
G01*
%TO.C,C2*%
X149590000Y-55955000D02*
X157750000Y-55955000D01*
X149590000Y-55995000D02*
X157750000Y-55995000D01*
X149590000Y-56035000D02*
X157750000Y-56035000D01*
X149591000Y-55915000D02*
X157749000Y-55915000D01*
X149593000Y-55875000D02*
X157747000Y-55875000D01*
X149594000Y-55835000D02*
X157746000Y-55835000D01*
X149596000Y-55795000D02*
X157744000Y-55795000D01*
X149599000Y-55755000D02*
X157741000Y-55755000D01*
X149602000Y-55715000D02*
X157738000Y-55715000D01*
X149605000Y-55675000D02*
X157735000Y-55675000D01*
X149609000Y-55635000D02*
X157731000Y-55635000D01*
X149613000Y-55595000D02*
X157727000Y-55595000D01*
X149618000Y-55555000D02*
X157722000Y-55555000D01*
X149622000Y-55515000D02*
X157718000Y-55515000D01*
X149628000Y-55475000D02*
X157712000Y-55475000D01*
X149633000Y-55435000D02*
X157707000Y-55435000D01*
X149640000Y-55395000D02*
X157700000Y-55395000D01*
X149646000Y-55355000D02*
X157694000Y-55355000D01*
X149653000Y-55314000D02*
X152630000Y-55314000D01*
X149660000Y-55274000D02*
X152630000Y-55274000D01*
X149668000Y-55234000D02*
X152630000Y-55234000D01*
X149676000Y-55194000D02*
X152630000Y-55194000D01*
X149685000Y-55154000D02*
X152630000Y-55154000D01*
X149694000Y-55114000D02*
X152630000Y-55114000D01*
X149703000Y-55074000D02*
X152630000Y-55074000D01*
X149713000Y-55034000D02*
X152630000Y-55034000D01*
X149723000Y-54994000D02*
X152630000Y-54994000D01*
X149734000Y-54954000D02*
X152630000Y-54954000D01*
X149745000Y-54914000D02*
X152630000Y-54914000D01*
X149756000Y-54874000D02*
X152630000Y-54874000D01*
X149768000Y-54834000D02*
X152630000Y-54834000D01*
X149781000Y-54794000D02*
X152630000Y-54794000D01*
X149793000Y-54754000D02*
X152630000Y-54754000D01*
X149807000Y-54714000D02*
X152630000Y-54714000D01*
X149820000Y-54674000D02*
X152630000Y-54674000D01*
X149835000Y-54634000D02*
X152630000Y-54634000D01*
X149849000Y-54594000D02*
X152630000Y-54594000D01*
X149865000Y-54554000D02*
X152630000Y-54554000D01*
X149880000Y-54514000D02*
X152630000Y-54514000D01*
X149896000Y-54474000D02*
X152630000Y-54474000D01*
X149913000Y-54434000D02*
X152630000Y-54434000D01*
X149930000Y-54394000D02*
X152630000Y-54394000D01*
X149948000Y-54354000D02*
X152630000Y-54354000D01*
X149966000Y-54314000D02*
X152630000Y-54314000D01*
X149984000Y-54274000D02*
X152630000Y-54274000D01*
X150004000Y-54234000D02*
X152630000Y-54234000D01*
X150023000Y-54194000D02*
X152630000Y-54194000D01*
X150043000Y-54154000D02*
X152630000Y-54154000D01*
X150064000Y-54114000D02*
X152630000Y-54114000D01*
X150086000Y-54074000D02*
X152630000Y-54074000D01*
X150108000Y-54034000D02*
X152630000Y-54034000D01*
X150130000Y-53994000D02*
X152630000Y-53994000D01*
X150153000Y-53954000D02*
X152630000Y-53954000D01*
X150177000Y-53914000D02*
X152630000Y-53914000D01*
X150201000Y-53874000D02*
X152630000Y-53874000D01*
X150226000Y-53834000D02*
X152630000Y-53834000D01*
X150252000Y-53794000D02*
X152630000Y-53794000D01*
X150278000Y-53754000D02*
X152630000Y-53754000D01*
X150305000Y-53714000D02*
X152630000Y-53714000D01*
X150332000Y-53674000D02*
X152630000Y-53674000D01*
X150361000Y-53634000D02*
X152630000Y-53634000D01*
X150390000Y-53594000D02*
X152630000Y-53594000D01*
X150420000Y-53554000D02*
X152630000Y-53554000D01*
X150450000Y-53514000D02*
X152630000Y-53514000D01*
X150481000Y-53474000D02*
X152630000Y-53474000D01*
X150514000Y-53434000D02*
X152630000Y-53434000D01*
X150546000Y-53394000D02*
X152630000Y-53394000D01*
X150580000Y-53354000D02*
X152630000Y-53354000D01*
X150615000Y-53314000D02*
X152630000Y-53314000D01*
X150651000Y-53274000D02*
X152630000Y-53274000D01*
X150687000Y-53234000D02*
X156653000Y-53234000D01*
X150725000Y-53194000D02*
X156615000Y-53194000D01*
X150763000Y-53154000D02*
X156577000Y-53154000D01*
X150803000Y-53114000D02*
X156537000Y-53114000D01*
X150844000Y-53074000D02*
X156496000Y-53074000D01*
X150886000Y-53034000D02*
X156454000Y-53034000D01*
X150929000Y-52994000D02*
X156411000Y-52994000D01*
X150955000Y-60044698D02*
X151755000Y-60044698D01*
X150973000Y-52954000D02*
X156367000Y-52954000D01*
X151019000Y-52914000D02*
X156321000Y-52914000D01*
X151066000Y-52874000D02*
X156274000Y-52874000D01*
X151114000Y-52834000D02*
X156226000Y-52834000D01*
X151165000Y-52794000D02*
X156175000Y-52794000D01*
X151216000Y-52754000D02*
X156124000Y-52754000D01*
X151270000Y-52714000D02*
X156070000Y-52714000D01*
X151325000Y-52674000D02*
X156015000Y-52674000D01*
X151355000Y-60444698D02*
X151355000Y-59644698D01*
X151383000Y-52634000D02*
X155957000Y-52634000D01*
X151442000Y-52594000D02*
X155898000Y-52594000D01*
X151504000Y-52554000D02*
X155836000Y-52554000D01*
X151568000Y-52514000D02*
X155772000Y-52514000D01*
X151636000Y-52474000D02*
X155704000Y-52474000D01*
X151706000Y-52434000D02*
X155634000Y-52434000D01*
X151780000Y-52394000D02*
X155560000Y-52394000D01*
X151857000Y-52354000D02*
X155483000Y-52354000D01*
X151939000Y-52314000D02*
X155401000Y-52314000D01*
X152025000Y-52274000D02*
X155315000Y-52274000D01*
X152118000Y-52234000D02*
X155222000Y-52234000D01*
X152217000Y-52194000D02*
X155123000Y-52194000D01*
X152324000Y-52154000D02*
X155016000Y-52154000D01*
X152441000Y-52114000D02*
X154899000Y-52114000D01*
X152572000Y-52074000D02*
X154768000Y-52074000D01*
X152722000Y-52034000D02*
X154618000Y-52034000D01*
X152902000Y-51994000D02*
X154438000Y-51994000D01*
X153137000Y-51954000D02*
X154203000Y-51954000D01*
X154710000Y-53274000D02*
X156689000Y-53274000D01*
X154710000Y-53314000D02*
X156725000Y-53314000D01*
X154710000Y-53354000D02*
X156760000Y-53354000D01*
X154710000Y-53394000D02*
X156794000Y-53394000D01*
X154710000Y-53434000D02*
X156826000Y-53434000D01*
X154710000Y-53474000D02*
X156859000Y-53474000D01*
X154710000Y-53514000D02*
X156890000Y-53514000D01*
X154710000Y-53554000D02*
X156920000Y-53554000D01*
X154710000Y-53594000D02*
X156950000Y-53594000D01*
X154710000Y-53634000D02*
X156979000Y-53634000D01*
X154710000Y-53674000D02*
X157008000Y-53674000D01*
X154710000Y-53714000D02*
X157035000Y-53714000D01*
X154710000Y-53754000D02*
X157062000Y-53754000D01*
X154710000Y-53794000D02*
X157088000Y-53794000D01*
X154710000Y-53834000D02*
X157114000Y-53834000D01*
X154710000Y-53874000D02*
X157139000Y-53874000D01*
X154710000Y-53914000D02*
X157163000Y-53914000D01*
X154710000Y-53954000D02*
X157187000Y-53954000D01*
X154710000Y-53994000D02*
X157210000Y-53994000D01*
X154710000Y-54034000D02*
X157232000Y-54034000D01*
X154710000Y-54074000D02*
X157254000Y-54074000D01*
X154710000Y-54114000D02*
X157276000Y-54114000D01*
X154710000Y-54154000D02*
X157297000Y-54154000D01*
X154710000Y-54194000D02*
X157317000Y-54194000D01*
X154710000Y-54234000D02*
X157336000Y-54234000D01*
X154710000Y-54274000D02*
X157356000Y-54274000D01*
X154710000Y-54314000D02*
X157374000Y-54314000D01*
X154710000Y-54354000D02*
X157392000Y-54354000D01*
X154710000Y-54394000D02*
X157410000Y-54394000D01*
X154710000Y-54434000D02*
X157427000Y-54434000D01*
X154710000Y-54474000D02*
X157444000Y-54474000D01*
X154710000Y-54514000D02*
X157460000Y-54514000D01*
X154710000Y-54554000D02*
X157475000Y-54554000D01*
X154710000Y-54594000D02*
X157491000Y-54594000D01*
X154710000Y-54634000D02*
X157505000Y-54634000D01*
X154710000Y-54674000D02*
X157520000Y-54674000D01*
X154710000Y-54714000D02*
X157533000Y-54714000D01*
X154710000Y-54754000D02*
X157547000Y-54754000D01*
X154710000Y-54794000D02*
X157559000Y-54794000D01*
X154710000Y-54834000D02*
X157572000Y-54834000D01*
X154710000Y-54874000D02*
X157584000Y-54874000D01*
X154710000Y-54914000D02*
X157595000Y-54914000D01*
X154710000Y-54954000D02*
X157606000Y-54954000D01*
X154710000Y-54994000D02*
X157617000Y-54994000D01*
X154710000Y-55034000D02*
X157627000Y-55034000D01*
X154710000Y-55074000D02*
X157637000Y-55074000D01*
X154710000Y-55114000D02*
X157646000Y-55114000D01*
X154710000Y-55154000D02*
X157655000Y-55154000D01*
X154710000Y-55194000D02*
X157664000Y-55194000D01*
X154710000Y-55234000D02*
X157672000Y-55234000D01*
X154710000Y-55274000D02*
X157680000Y-55274000D01*
X154710000Y-55314000D02*
X157687000Y-55314000D01*
X157790000Y-56035000D02*
G75*
G02*
X149550000Y-56035000I-4120000J0D01*
G01*
X149550000Y-56035000D02*
G75*
G02*
X157790000Y-56035000I4120000J0D01*
G01*
%TO.C,TP3*%
X160760000Y-62738000D02*
G75*
G02*
X158860000Y-62738000I-950000J0D01*
G01*
X158860000Y-62738000D02*
G75*
G02*
X160760000Y-62738000I950000J0D01*
G01*
%TO.C,U2*%
X166225000Y-36865000D02*
X164275000Y-36865000D01*
X166225000Y-36865000D02*
X168175000Y-36865000D01*
X166225000Y-46985000D02*
X164275000Y-46985000D01*
X166225000Y-46985000D02*
X168175000Y-46985000D01*
X163525000Y-36920000D02*
X163285000Y-36590000D01*
X163765000Y-36590000D01*
X163525000Y-36920000D01*
G36*
X163525000Y-36920000D02*
G01*
X163285000Y-36590000D01*
X163765000Y-36590000D01*
X163525000Y-36920000D01*
G37*
%TO.C,J5*%
X103968000Y-39252996D02*
X103968000Y-39752996D01*
X104208000Y-39492996D02*
X104208000Y-65012996D01*
X104708000Y-39252996D02*
X103968000Y-39252996D01*
X104768000Y-39492996D02*
X104749600Y-65029196D01*
X109768000Y-39492996D02*
X109778800Y-65029196D01*
X110766000Y-41491996D02*
X110614000Y-41339996D01*
X111033000Y-41225996D02*
X110880000Y-41073996D01*
X111040000Y-48116996D02*
X110614000Y-47690996D01*
X111040000Y-54466996D02*
X110614000Y-54040996D01*
X111040000Y-60823196D02*
X110614000Y-60397196D01*
X111306000Y-47850996D02*
X110880000Y-47424996D01*
X111306000Y-54200996D02*
X110880000Y-53774996D01*
X111306000Y-60557196D02*
X110880000Y-60131196D01*
X113656000Y-44381996D02*
X113504000Y-44229996D01*
X113656000Y-50731996D02*
X113215000Y-50290996D01*
X113656000Y-57081996D02*
X113215000Y-56640996D01*
X113656000Y-63438196D02*
X113215000Y-62997196D01*
X113922000Y-44115996D02*
X113770000Y-43963996D01*
X113922000Y-50465996D02*
X113496000Y-50039996D01*
X113922000Y-56815996D02*
X113496000Y-56389996D01*
X113922000Y-63172196D02*
X113496000Y-62746196D01*
X114768000Y-39492996D02*
X114768000Y-65029196D01*
X115768000Y-41727996D02*
X115768000Y-43727996D01*
X115768000Y-48077996D02*
X115768000Y-50077996D01*
X115768000Y-54427996D02*
X115768000Y-56427996D01*
X115768000Y-60793996D02*
X115768000Y-62793996D01*
X116768000Y-41727996D02*
X115768000Y-41727996D01*
X116768000Y-41727996D02*
X116768000Y-43727996D01*
X116768000Y-43727996D02*
X115768000Y-43727996D01*
X116768000Y-48077996D02*
X115768000Y-48077996D01*
X116768000Y-48077996D02*
X116768000Y-50077996D01*
X116768000Y-50077996D02*
X115768000Y-50077996D01*
X116768000Y-54427996D02*
X115768000Y-54427996D01*
X116768000Y-54427996D02*
X116768000Y-56427996D01*
X116768000Y-56427996D02*
X115768000Y-56427996D01*
X116768000Y-60793996D02*
X115768000Y-60793996D01*
X116768000Y-62793996D02*
X115768000Y-62793996D01*
X116828000Y-39492996D02*
X104208000Y-39492996D01*
X116828000Y-39492996D02*
X116828000Y-65012996D01*
X116828000Y-65012996D02*
X104208000Y-65012996D01*
X114448000Y-42727996D02*
G75*
G02*
X110088000Y-42727996I-2180000J0D01*
G01*
X110088000Y-42727996D02*
G75*
G02*
X114448000Y-42727996I2180000J0D01*
G01*
X114448000Y-49077996D02*
G75*
G02*
X110088000Y-49077996I-2180000J0D01*
G01*
X110088000Y-49077996D02*
G75*
G02*
X114448000Y-49077996I2180000J0D01*
G01*
X114448000Y-55427996D02*
G75*
G02*
X110088000Y-55427996I-2180000J0D01*
G01*
X110088000Y-55427996D02*
G75*
G02*
X114448000Y-55427996I2180000J0D01*
G01*
X114448000Y-61784196D02*
G75*
G02*
X110088000Y-61784196I-2180000J0D01*
G01*
X110088000Y-61784196D02*
G75*
G02*
X114448000Y-61784196I2180000J0D01*
G01*
%TO.C,F3*%
X179203578Y-51636250D02*
X178686422Y-51636250D01*
X179203578Y-53056250D02*
X178686422Y-53056250D01*
%TO.C,TP2*%
X149540000Y-53340000D02*
G75*
G02*
X147640000Y-53340000I-950000J0D01*
G01*
X147640000Y-53340000D02*
G75*
G02*
X149540000Y-53340000I950000J0D01*
G01*
%TO.C,R5*%
X171577364Y-53925800D02*
X171123236Y-53925800D01*
X171577364Y-55395800D02*
X171123236Y-55395800D01*
%TD*%
M02*
