%TF.GenerationSoftware,KiCad,Pcbnew,8.0.1*%
%TF.CreationDate,2024-04-28T14:47:00+02:00*%
%TF.ProjectId,2in-2out_2.0,32696e2d-326f-4757-945f-322e302e6b69,rev?*%
%TF.SameCoordinates,Original*%
%TF.FileFunction,Soldermask,Bot*%
%TF.FilePolarity,Negative*%
%FSLAX46Y46*%
G04 Gerber Fmt 4.6, Leading zero omitted, Abs format (unit mm)*
G04 Created by KiCad (PCBNEW 8.0.1) date 2024-04-28 14:47:00*
%MOMM*%
%LPD*%
G01*
G04 APERTURE LIST*
G04 Aperture macros list*
%AMRoundRect*
0 Rectangle with rounded corners*
0 $1 Rounding radius*
0 $2 $3 $4 $5 $6 $7 $8 $9 X,Y pos of 4 corners*
0 Add a 4 corners polygon primitive as box body*
4,1,4,$2,$3,$4,$5,$6,$7,$8,$9,$2,$3,0*
0 Add four circle primitives for the rounded corners*
1,1,$1+$1,$2,$3*
1,1,$1+$1,$4,$5*
1,1,$1+$1,$6,$7*
1,1,$1+$1,$8,$9*
0 Add four rect primitives between the rounded corners*
20,1,$1+$1,$2,$3,$4,$5,0*
20,1,$1+$1,$4,$5,$6,$7,0*
20,1,$1+$1,$6,$7,$8,$9,0*
20,1,$1+$1,$8,$9,$2,$3,0*%
G04 Aperture macros list end*
%ADD10O,3.101600X4.101600*%
%ADD11RoundRect,0.050800X-1.500000X-1.000000X1.500000X-1.000000X1.500000X1.000000X-1.500000X1.000000X0*%
%ADD12O,3.101600X2.101600*%
%ADD13R,1.600000X1.600000*%
%ADD14C,1.600000*%
%ADD15R,1.700000X1.700000*%
%ADD16O,1.700000X1.700000*%
%ADD17RoundRect,0.250000X1.550000X-0.650000X1.550000X0.650000X-1.550000X0.650000X-1.550000X-0.650000X0*%
%ADD18O,3.600000X1.800000*%
%ADD19R,2.400000X2.400000*%
%ADD20C,2.400000*%
%ADD21R,2.500000X2.500000*%
%ADD22C,2.500000*%
%ADD23R,1.500000X1.000000*%
%ADD24RoundRect,0.250000X0.475000X-0.250000X0.475000X0.250000X-0.475000X0.250000X-0.475000X-0.250000X0*%
%ADD25RoundRect,0.150000X-0.512500X-0.150000X0.512500X-0.150000X0.512500X0.150000X-0.512500X0.150000X0*%
%ADD26RoundRect,0.150000X-0.150000X0.875000X-0.150000X-0.875000X0.150000X-0.875000X0.150000X0.875000X0*%
%ADD27RoundRect,0.225000X0.375000X-0.225000X0.375000X0.225000X-0.375000X0.225000X-0.375000X-0.225000X0*%
%ADD28RoundRect,0.225000X-0.225000X-0.375000X0.225000X-0.375000X0.225000X0.375000X-0.225000X0.375000X0*%
G04 APERTURE END LIST*
D10*
%TO.C,K2*%
X124790000Y-48000000D03*
X124790000Y-40500000D03*
X129830000Y-48000000D03*
X129830000Y-40500000D03*
X119750000Y-48000000D03*
X119750000Y-40500000D03*
D11*
X145090000Y-40500000D03*
D12*
X145090000Y-48000000D03*
X145090000Y-44250000D03*
%TD*%
D13*
%TO.C,C1*%
X162560000Y-57785000D03*
D14*
X162560000Y-54285000D03*
%TD*%
D15*
%TO.C,J1*%
X149460000Y-66000000D03*
D16*
X152000000Y-66000000D03*
X154540000Y-66000000D03*
X157080000Y-66000000D03*
X159620000Y-66000000D03*
X162160000Y-66000000D03*
X164700000Y-66000000D03*
X167240000Y-66000000D03*
X169780000Y-66000000D03*
%TD*%
D10*
%TO.C,K1*%
X124790000Y-64250000D03*
X124790000Y-56750000D03*
X129830000Y-64250000D03*
X129830000Y-56750000D03*
X119750000Y-64250000D03*
X119750000Y-56750000D03*
D11*
X145090000Y-56750000D03*
D12*
X145090000Y-64250000D03*
X145090000Y-60500000D03*
%TD*%
D17*
%TO.C,X9*%
X184785000Y-65405000D03*
D18*
X184785000Y-59655000D03*
%TD*%
D19*
%TO.C,J2*%
X186283600Y-50073200D03*
D20*
X186283600Y-46573200D03*
X186283600Y-43073200D03*
X186283600Y-39573200D03*
%TD*%
D13*
%TO.C,C2*%
X153670000Y-57785000D03*
D14*
X153670000Y-54285000D03*
%TD*%
D21*
%TO.C,J5*%
X112268000Y-42727996D03*
D22*
X112268000Y-49077996D03*
X112268000Y-55427996D03*
X112268000Y-61777996D03*
%TD*%
D23*
%TO.C,SJ6*%
X182322500Y-55656250D03*
X182322500Y-54356250D03*
%TD*%
%TO.C,SJ5*%
X179782500Y-55656250D03*
X179782500Y-54356250D03*
%TD*%
D24*
%TO.C,C3*%
X160655000Y-43180000D03*
X160655000Y-41280000D03*
%TD*%
D25*
%TO.C,TVS1*%
X177932500Y-48072500D03*
X177932500Y-47122500D03*
X177932500Y-46172500D03*
X180207500Y-46172500D03*
X180207500Y-47122500D03*
X180207500Y-48072500D03*
%TD*%
D23*
%TO.C,SJ4*%
X177242500Y-50546250D03*
X177242500Y-51846250D03*
%TD*%
D26*
%TO.C,IC1*%
X147955000Y-38605000D03*
X149225000Y-38605000D03*
X150495000Y-38605000D03*
X151765000Y-38605000D03*
X153035000Y-38605000D03*
X154305000Y-38605000D03*
X155575000Y-38605000D03*
X156845000Y-38605000D03*
X158115000Y-38605000D03*
X158115000Y-47905000D03*
X156845000Y-47905000D03*
X155575000Y-47905000D03*
X154305000Y-47905000D03*
X153035000Y-47905000D03*
X151765000Y-47905000D03*
X150495000Y-47905000D03*
X149225000Y-47905000D03*
X147955000Y-47905000D03*
%TD*%
D24*
%TO.C,C4*%
X182245000Y-47940000D03*
X182245000Y-46040000D03*
%TD*%
D27*
%TO.C,D5*%
X172210000Y-48512000D03*
X172210000Y-45212000D03*
%TD*%
D28*
%TO.C,D2*%
X175388000Y-42926000D03*
X178688000Y-42926000D03*
%TD*%
D27*
%TO.C,D7*%
X175006000Y-48512000D03*
X175006000Y-45212000D03*
%TD*%
D23*
%TO.C,SJ3*%
X182407500Y-50546250D03*
X182407500Y-51846250D03*
%TD*%
%TO.C,SJ2*%
X179807500Y-50546250D03*
X179807500Y-51846250D03*
%TD*%
%TO.C,SJ7*%
X177242500Y-55641250D03*
X177242500Y-54341250D03*
%TD*%
D28*
%TO.C,D4*%
X175388000Y-39116000D03*
X178688000Y-39116000D03*
%TD*%
M02*
