%TF.GenerationSoftware,KiCad,Pcbnew,8.0.3*%
%TF.CreationDate,2024-06-29T02:25:23+02:00*%
%TF.ProjectId,io-16x-fused-fm,696f2d31-3678-42d6-9675-7365642d666d,rev?*%
%TF.SameCoordinates,Original*%
%TF.FileFunction,Soldermask,Top*%
%TF.FilePolarity,Negative*%
%FSLAX46Y46*%
G04 Gerber Fmt 4.6, Leading zero omitted, Abs format (unit mm)*
G04 Created by KiCad (PCBNEW 8.0.3) date 2024-06-29 02:25:23*
%MOMM*%
%LPD*%
G01*
G04 APERTURE LIST*
G04 Aperture macros list*
%AMRoundRect*
0 Rectangle with rounded corners*
0 $1 Rounding radius*
0 $2 $3 $4 $5 $6 $7 $8 $9 X,Y pos of 4 corners*
0 Add a 4 corners polygon primitive as box body*
4,1,4,$2,$3,$4,$5,$6,$7,$8,$9,$2,$3,0*
0 Add four circle primitives for the rounded corners*
1,1,$1+$1,$2,$3*
1,1,$1+$1,$4,$5*
1,1,$1+$1,$6,$7*
1,1,$1+$1,$8,$9*
0 Add four rect primitives between the rounded corners*
20,1,$1+$1,$2,$3,$4,$5,0*
20,1,$1+$1,$4,$5,$6,$7,0*
20,1,$1+$1,$6,$7,$8,$9,0*
20,1,$1+$1,$8,$9,$2,$3,0*%
%AMFreePoly0*
4,1,25,0.406913,0.920396,0.419036,0.910042,0.910042,0.419036,0.938549,0.363088,0.939800,0.347194,0.939800,-0.347194,0.920396,-0.406913,0.910042,-0.419036,0.419036,-0.910042,0.363088,-0.938549,0.347194,-0.939800,-0.347194,-0.939800,-0.406913,-0.920396,-0.419036,-0.910042,-0.910042,-0.419036,-0.938549,-0.363088,-0.939800,-0.347194,-0.939800,0.347194,-0.920396,0.406913,-0.910042,0.419036,
-0.419036,0.910042,-0.363088,0.938549,-0.347194,0.939800,0.347194,0.939800,0.406913,0.920396,0.406913,0.920396,$1*%
%AMFreePoly1*
4,1,25,0.438476,0.996596,0.450599,0.986242,0.986242,0.450599,1.014749,0.394651,1.016000,0.378757,1.016000,-0.378757,0.996596,-0.438476,0.986242,-0.450599,0.450599,-0.986242,0.394651,-1.014749,0.378757,-1.016000,-0.378757,-1.016000,-0.438476,-0.996596,-0.450599,-0.986242,-0.986242,-0.450599,-1.014749,-0.394651,-1.016000,-0.378757,-1.016000,0.378757,-0.996596,0.438476,-0.986242,0.450599,
-0.450599,0.986242,-0.394651,1.014749,-0.378757,1.016000,0.378757,1.016000,0.438476,0.996596,0.438476,0.996596,$1*%
G04 Aperture macros list end*
%ADD10RoundRect,0.101600X-0.750000X0.650000X-0.750000X-0.650000X0.750000X-0.650000X0.750000X0.650000X0*%
%ADD11RoundRect,0.101600X0.635000X0.635000X-0.635000X0.635000X-0.635000X-0.635000X0.635000X-0.635000X0*%
%ADD12C,1.473200*%
%ADD13RoundRect,0.101600X-0.700000X0.500000X-0.700000X-0.500000X0.700000X-0.500000X0.700000X0.500000X0*%
%ADD14RoundRect,0.101600X-0.500000X-0.750000X0.500000X-0.750000X0.500000X0.750000X-0.500000X0.750000X0*%
%ADD15RoundRect,0.101600X0.600000X0.650000X-0.600000X0.650000X-0.600000X-0.650000X0.600000X-0.650000X0*%
%ADD16RoundRect,0.101600X-0.650000X-0.750000X0.650000X-0.750000X0.650000X0.750000X-0.650000X0.750000X0*%
%ADD17RoundRect,0.101600X0.600000X0.600000X-0.600000X0.600000X-0.600000X-0.600000X0.600000X-0.600000X0*%
%ADD18RoundRect,0.101600X-0.700000X0.700000X-0.700000X-0.700000X0.700000X-0.700000X0.700000X0.700000X0*%
%ADD19RoundRect,0.101600X0.750000X-0.650000X0.750000X0.650000X-0.750000X0.650000X-0.750000X-0.650000X0*%
%ADD20RoundRect,0.101600X0.650000X0.750000X-0.650000X0.750000X-0.650000X-0.750000X0.650000X-0.750000X0*%
%ADD21RoundRect,0.101600X-0.298550X0.582300X-0.298550X-0.582300X0.298550X-0.582300X0.298550X0.582300X0*%
%ADD22FreePoly0,0.000000*%
%ADD23RoundRect,0.101600X-0.275000X-0.600000X0.275000X-0.600000X0.275000X0.600000X-0.275000X0.600000X0*%
%ADD24RoundRect,0.101600X0.354285X0.927083X-0.867315X0.482456X-0.354285X-0.927083X0.867315X-0.482456X0*%
%ADD25RoundRect,0.101600X0.914400X-0.914400X0.914400X0.914400X-0.914400X0.914400X-0.914400X-0.914400X0*%
%ADD26C,2.032000*%
%ADD27FreePoly0,270.000000*%
%ADD28RoundRect,0.101600X0.298550X-0.582300X0.298550X0.582300X-0.298550X0.582300X-0.298550X-0.582300X0*%
%ADD29RoundRect,0.101600X-0.125000X0.750000X-0.125000X-0.750000X0.125000X-0.750000X0.125000X0.750000X0*%
%ADD30RoundRect,0.101600X-0.750000X0.125000X-0.750000X-0.125000X0.750000X-0.125000X0.750000X0.125000X0*%
%ADD31RoundRect,0.101600X-0.769028X0.358603X-0.358603X-0.769028X0.769028X-0.358603X0.358603X0.769028X0*%
%ADD32RoundRect,0.101600X-0.750000X-0.325000X0.750000X-0.325000X0.750000X0.325000X-0.750000X0.325000X0*%
%ADD33C,1.643200*%
%ADD34RoundRect,0.101600X0.800000X0.750000X-0.800000X0.750000X-0.800000X-0.750000X0.800000X-0.750000X0*%
%ADD35RoundRect,0.101600X-0.800000X-0.750000X0.800000X-0.750000X0.800000X0.750000X-0.800000X0.750000X0*%
%ADD36FreePoly1,110.000000*%
%ADD37RoundRect,0.101600X0.900000X-0.900000X0.900000X0.900000X-0.900000X0.900000X-0.900000X-0.900000X0*%
%ADD38C,2.003200*%
%ADD39RoundRect,0.101600X-0.900000X0.900000X-0.900000X-0.900000X0.900000X-0.900000X0.900000X0.900000X0*%
%ADD40RoundRect,0.101600X0.914400X0.914400X-0.914400X0.914400X-0.914400X-0.914400X0.914400X-0.914400X0*%
%ADD41FreePoly0,290.000000*%
%ADD42RoundRect,0.101600X-0.914400X0.914400X-0.914400X-0.914400X0.914400X-0.914400X0.914400X0.914400X0*%
%ADD43FreePoly1,270.000000*%
G04 APERTURE END LIST*
D10*
%TO.C,C32*%
X137818400Y-117682050D03*
X137818400Y-119582050D03*
%TD*%
D11*
%TO.C,JP17*%
X158818400Y-85632050D03*
D12*
X158818400Y-87632050D03*
X156818400Y-85632050D03*
X156818400Y-87632050D03*
X154818400Y-85632050D03*
X154818400Y-87632050D03*
X152818400Y-85632050D03*
X152818400Y-87632050D03*
X150818400Y-85632050D03*
X150818400Y-87632050D03*
%TD*%
D13*
%TO.C,D23*%
X142919200Y-113282050D03*
X142919200Y-115182050D03*
X145119200Y-114232050D03*
%TD*%
D14*
%TO.C,F13*%
X133260400Y-95832050D03*
X135460400Y-95832050D03*
%TD*%
D15*
%TO.C,FB21*%
X135376400Y-106692050D03*
X133344400Y-106692050D03*
%TD*%
D16*
%TO.C,R79*%
X143069200Y-108332050D03*
X144969200Y-108332050D03*
%TD*%
D14*
%TO.C,F16*%
X133260400Y-108785350D03*
X135460400Y-108785350D03*
%TD*%
D17*
%TO.C,LED6*%
X148018400Y-122882050D03*
X148018400Y-124982050D03*
%TD*%
D18*
%TO.C,D20*%
X137568400Y-98232050D03*
X141268400Y-98232050D03*
%TD*%
D16*
%TO.C,R65*%
X138168400Y-108432050D03*
X140068400Y-108432050D03*
%TD*%
D14*
%TO.C,F9*%
X133260400Y-110778750D03*
X135460400Y-110778750D03*
%TD*%
D19*
%TO.C,R69*%
X136018400Y-91682050D03*
X136018400Y-89782050D03*
%TD*%
D18*
%TO.C,D18*%
X137368400Y-106432050D03*
X141068400Y-106432050D03*
%TD*%
D14*
%TO.C,F15*%
X133260400Y-103005450D03*
X135460400Y-103005450D03*
%TD*%
D16*
%TO.C,R74*%
X148269200Y-119532050D03*
X150169200Y-119532050D03*
%TD*%
%TO.C,C28*%
X151368400Y-93732050D03*
X153268400Y-93732050D03*
%TD*%
%TO.C,R75*%
X143069200Y-125532050D03*
X144969200Y-125532050D03*
%TD*%
D20*
%TO.C,C35*%
X160768400Y-82632050D03*
X158868400Y-82632050D03*
%TD*%
D10*
%TO.C,R68*%
X142318400Y-89782050D03*
X142318400Y-91682050D03*
%TD*%
D14*
%TO.C,F10*%
X133260400Y-116058750D03*
X135460400Y-116058750D03*
%TD*%
D21*
%TO.C,TVS9*%
X141468400Y-100056650D03*
X140518400Y-100056650D03*
X139568400Y-100056650D03*
X139568400Y-102607450D03*
X140518400Y-102607450D03*
X141468400Y-102607450D03*
%TD*%
D20*
%TO.C,R70*%
X156568400Y-82732050D03*
X154668400Y-82732050D03*
%TD*%
D22*
%TO.C,JP24*%
X152818400Y-121062050D03*
X152818400Y-123602050D03*
%TD*%
D15*
%TO.C,FB17*%
X135376400Y-112572050D03*
X133344400Y-112572050D03*
%TD*%
D19*
%TO.C,R71*%
X167818400Y-90582050D03*
X167818400Y-88682050D03*
%TD*%
D15*
%TO.C,FB19*%
X135476400Y-119745350D03*
X133444400Y-119745350D03*
%TD*%
D16*
%TO.C,R59*%
X144168400Y-117332050D03*
X146068400Y-117332050D03*
%TD*%
D23*
%TO.C,U3*%
X164068400Y-88332150D03*
X165018400Y-88332150D03*
X165968400Y-88332150D03*
X165968400Y-85731950D03*
X164068400Y-85731950D03*
%TD*%
D24*
%TO.C,R57*%
X160511108Y-121607131D03*
X158725692Y-122256969D03*
%TD*%
D18*
%TO.C,D13*%
X137468400Y-113232050D03*
X141168400Y-113232050D03*
%TD*%
D10*
%TO.C,R55*%
X138118400Y-89782050D03*
X138118400Y-91682050D03*
%TD*%
D25*
%TO.C,JP2*%
X149338400Y-90732050D03*
D26*
X151878400Y-90732050D03*
X154418400Y-90732050D03*
X156958400Y-90732050D03*
X159498400Y-90732050D03*
%TD*%
D16*
%TO.C,R76*%
X143069200Y-111032050D03*
X144969200Y-111032050D03*
%TD*%
%TO.C,C34*%
X151368400Y-95832050D03*
X153268400Y-95832050D03*
%TD*%
%TO.C,R60*%
X144168400Y-119532050D03*
X146068400Y-119532050D03*
%TD*%
D18*
%TO.C,D15*%
X138368400Y-123632050D03*
X142068400Y-123632050D03*
%TD*%
D27*
%TO.C,JP21*%
X156488400Y-113132050D03*
X153948400Y-113132050D03*
%TD*%
D28*
%TO.C,TVS5*%
X145968400Y-87707450D03*
X146918400Y-87707450D03*
X147868400Y-87707450D03*
X147868400Y-85156650D03*
X146918400Y-85156650D03*
X145968400Y-85156650D03*
%TD*%
D19*
%TO.C,C26*%
X140218400Y-91682050D03*
X140218400Y-89782050D03*
%TD*%
D18*
%TO.C,D14*%
X137468400Y-115332050D03*
X141168400Y-115332050D03*
%TD*%
D21*
%TO.C,TVS6*%
X141768400Y-117156650D03*
X140818400Y-117156650D03*
X139868400Y-117156650D03*
X139868400Y-119707450D03*
X140818400Y-119707450D03*
X141768400Y-119707450D03*
%TD*%
D10*
%TO.C,C33*%
X137418400Y-100282050D03*
X137418400Y-102182050D03*
%TD*%
D29*
%TO.C,IC5*%
X159368400Y-99632050D03*
X158868400Y-99632050D03*
X158368400Y-99632050D03*
X157868400Y-99632050D03*
X157368400Y-99632050D03*
X156868400Y-99632050D03*
X156368400Y-99632050D03*
X155868400Y-99632050D03*
X155368400Y-99632050D03*
X154868400Y-99632050D03*
X154368400Y-99632050D03*
X153868400Y-99632050D03*
D30*
X152318400Y-101182050D03*
X152318400Y-101682050D03*
X152318400Y-102182050D03*
X152318400Y-102682050D03*
X152318400Y-103182050D03*
X152318400Y-103682050D03*
X152318400Y-104182050D03*
X152318400Y-104682050D03*
X152318400Y-105182050D03*
X152318400Y-105682050D03*
X152318400Y-106182050D03*
X152318400Y-106682050D03*
D29*
X153868400Y-108232050D03*
X154368400Y-108232050D03*
X154868400Y-108232050D03*
X155368400Y-108232050D03*
X155868400Y-108232050D03*
X156368400Y-108232050D03*
X156868400Y-108232050D03*
X157368400Y-108232050D03*
X157868400Y-108232050D03*
X158368400Y-108232050D03*
X158868400Y-108232050D03*
X159368400Y-108232050D03*
D30*
X160918400Y-106682050D03*
X160918400Y-106182050D03*
X160918400Y-105682050D03*
X160918400Y-105182050D03*
X160918400Y-104682050D03*
X160918400Y-104182050D03*
X160918400Y-103682050D03*
X160918400Y-103182050D03*
X160918400Y-102682050D03*
X160918400Y-102182050D03*
X160918400Y-101682050D03*
X160918400Y-101182050D03*
%TD*%
D16*
%TO.C,R61*%
X138568400Y-125632050D03*
X140468400Y-125632050D03*
%TD*%
%TO.C,R58*%
X137868400Y-111032050D03*
X139768400Y-111032050D03*
%TD*%
D13*
%TO.C,D22*%
X143319200Y-95882050D03*
X143319200Y-97782050D03*
X145519200Y-96832050D03*
%TD*%
D10*
%TO.C,C27*%
X165118400Y-101182050D03*
X165118400Y-103082050D03*
%TD*%
D16*
%TO.C,R64*%
X143568400Y-101632050D03*
X145468400Y-101632050D03*
%TD*%
%TO.C,R63*%
X143568400Y-99532050D03*
X145468400Y-99532050D03*
%TD*%
D18*
%TO.C,D17*%
X137368400Y-104432050D03*
X141068400Y-104432050D03*
%TD*%
D31*
%TO.C,LED5*%
X163231723Y-120691171D03*
X165205077Y-119972929D03*
%TD*%
D15*
%TO.C,FB24*%
X135376400Y-97625450D03*
X133344400Y-97625450D03*
%TD*%
D32*
%TO.C,IC6*%
X159518400Y-111827050D03*
X159518400Y-113097050D03*
X159518400Y-114367050D03*
X159518400Y-115637050D03*
X164918400Y-115637050D03*
X164918400Y-114367050D03*
X164918400Y-113097050D03*
X164918400Y-111827050D03*
%TD*%
D15*
%TO.C,FB20*%
X135476400Y-121438750D03*
X133444400Y-121438750D03*
%TD*%
D16*
%TO.C,C30*%
X155968400Y-95432050D03*
X157868400Y-95432050D03*
%TD*%
D10*
%TO.C,R81*%
X149818400Y-122882050D03*
X149818400Y-124782050D03*
%TD*%
D19*
%TO.C,R77*%
X147618400Y-101381250D03*
X147618400Y-99481250D03*
%TD*%
D13*
%TO.C,D21*%
X142919200Y-104582050D03*
X142919200Y-106482050D03*
X145119200Y-105532050D03*
%TD*%
D18*
%TO.C,D19*%
X137568400Y-96232050D03*
X141268400Y-96232050D03*
%TD*%
D15*
%TO.C,FB23*%
X135376400Y-99318750D03*
X133344400Y-99318750D03*
%TD*%
D33*
%TO.C,JP22*%
X170118400Y-94332050D03*
X170118400Y-96332050D03*
X170118400Y-98332050D03*
X170118400Y-100332050D03*
%TD*%
D34*
%TO.C,Q3*%
X162768400Y-93182050D03*
X160268400Y-93182050D03*
D35*
X160268400Y-95482050D03*
X162768400Y-95482050D03*
%TD*%
D36*
%TO.C,PRGBTN2*%
X156218400Y-120632050D03*
%TD*%
D14*
%TO.C,F14*%
X133260400Y-101112050D03*
X135460400Y-101112050D03*
%TD*%
D19*
%TO.C,R66*%
X144418400Y-91682050D03*
X144418400Y-89782050D03*
%TD*%
D14*
%TO.C,F12*%
X133360400Y-123232050D03*
X135560400Y-123232050D03*
%TD*%
D19*
%TO.C,R72*%
X164918400Y-109482050D03*
X164918400Y-107582050D03*
%TD*%
D37*
%TO.C,J3*%
X129618400Y-116332050D03*
D38*
X126518400Y-116332050D03*
X129618400Y-113832050D03*
X126518400Y-113832050D03*
%TD*%
D20*
%TO.C,C31*%
X164268400Y-97432050D03*
X162368400Y-97432050D03*
%TD*%
D39*
%TO.C,J2*%
X126518400Y-93732050D03*
D38*
X129618400Y-93732050D03*
X126518400Y-96232050D03*
X129618400Y-96232050D03*
X126518400Y-98732050D03*
X129618400Y-98732050D03*
X126518400Y-101232050D03*
X129618400Y-101232050D03*
X126518400Y-103732050D03*
X129618400Y-103732050D03*
X126518400Y-106232050D03*
X129618400Y-106232050D03*
X126518400Y-108732050D03*
X129618400Y-108732050D03*
X126518400Y-111232050D03*
X129618400Y-111232050D03*
%TD*%
D16*
%TO.C,C25*%
X163468400Y-105232050D03*
X165368400Y-105232050D03*
%TD*%
%TO.C,R78*%
X146069200Y-103732050D03*
X147969200Y-103732050D03*
%TD*%
D20*
%TO.C,C36*%
X156768400Y-116032050D03*
X154868400Y-116032050D03*
%TD*%
D33*
%TO.C,J1*%
X170118400Y-105632050D03*
X170118400Y-107632050D03*
X170118400Y-109632050D03*
X170118400Y-111632050D03*
X170118400Y-113632050D03*
X170118400Y-115632050D03*
%TD*%
D13*
%TO.C,D24*%
X143819200Y-121682050D03*
X143819200Y-123582050D03*
X146019200Y-122632050D03*
%TD*%
D40*
%TO.C,JP23*%
X167818400Y-101042050D03*
X167818400Y-98502050D03*
X167818400Y-95962050D03*
X167818400Y-93422050D03*
%TD*%
D16*
%TO.C,R62*%
X137868400Y-93932050D03*
X139768400Y-93932050D03*
%TD*%
D19*
%TO.C,R56*%
X133818400Y-91682050D03*
X133818400Y-89782050D03*
%TD*%
D41*
%TO.C,JP18*%
X162911810Y-118197684D03*
X160524990Y-119066416D03*
%TD*%
D16*
%TO.C,R73*%
X148269200Y-117332050D03*
X150169200Y-117332050D03*
%TD*%
D42*
%TO.C,JP1*%
X167818400Y-104382050D03*
D43*
X167818400Y-106922050D03*
X167818400Y-109462050D03*
X167818400Y-112002050D03*
X167818400Y-114542050D03*
X167818400Y-117082050D03*
%TD*%
D20*
%TO.C,C29*%
X157868400Y-93332050D03*
X155968400Y-93332050D03*
%TD*%
D15*
%TO.C,FB22*%
X135376400Y-104798750D03*
X133344400Y-104798750D03*
%TD*%
D14*
%TO.C,F11*%
X133260400Y-117952050D03*
X135460400Y-117952050D03*
%TD*%
D19*
%TO.C,R67*%
X146518400Y-91682050D03*
X146518400Y-89782050D03*
%TD*%
D15*
%TO.C,FB18*%
X135376400Y-114265350D03*
X133344400Y-114265350D03*
%TD*%
D18*
%TO.C,D16*%
X138368400Y-121532050D03*
X142068400Y-121532050D03*
%TD*%
D16*
%TO.C,R80*%
X142169200Y-93932050D03*
X144069200Y-93932050D03*
%TD*%
M02*
