%TF.GenerationSoftware,KiCad,Pcbnew,8.0.3*%
%TF.CreationDate,2024-06-29T02:25:23+02:00*%
%TF.ProjectId,io-16x-fused-fm,696f2d31-3678-42d6-9675-7365642d666d,rev?*%
%TF.SameCoordinates,Original*%
%TF.FileFunction,Paste,Bot*%
%TF.FilePolarity,Positive*%
%FSLAX46Y46*%
G04 Gerber Fmt 4.6, Leading zero omitted, Abs format (unit mm)*
G04 Created by KiCad (PCBNEW 8.0.3) date 2024-06-29 02:25:23*
%MOMM*%
%LPD*%
G01*
G04 APERTURE LIST*
%ADD10R,1.400000X1.000000*%
%ADD11R,1.300000X1.500000*%
%ADD12R,1.500000X1.300000*%
%ADD13R,1.200000X1.300000*%
%ADD14R,1.400000X1.400000*%
%ADD15R,1.000000X1.500000*%
%ADD16R,1.164600X0.597100*%
%ADD17R,3.810000X1.270000*%
G04 APERTURE END LIST*
D10*
%TO.C,D9*%
X147142600Y-120582050D03*
X147142600Y-118682050D03*
X149342600Y-119632050D03*
%TD*%
D11*
%TO.C,R15*%
X148168400Y-107732050D03*
X150068400Y-107732050D03*
%TD*%
%TO.C,R7*%
X143968400Y-100832050D03*
X145868400Y-100832050D03*
%TD*%
D12*
%TO.C,R1*%
X137518400Y-116082050D03*
X137518400Y-114182050D03*
%TD*%
D11*
%TO.C,R9*%
X147068400Y-114132050D03*
X148968400Y-114132050D03*
%TD*%
D13*
%TO.C,FB3*%
X134484400Y-124398750D03*
X132452400Y-124398750D03*
%TD*%
D14*
%TO.C,D3*%
X147992600Y-123132050D03*
X144292600Y-123132050D03*
%TD*%
D11*
%TO.C,R11*%
X151392600Y-116332050D03*
X153292600Y-116332050D03*
%TD*%
%TO.C,R13*%
X159068400Y-95732050D03*
X160968400Y-95732050D03*
%TD*%
D12*
%TO.C,C2*%
X146718400Y-92682050D03*
X146718400Y-90782050D03*
%TD*%
D13*
%TO.C,FB2*%
X134484400Y-120845350D03*
X132452400Y-120845350D03*
%TD*%
D14*
%TO.C,D4*%
X148092600Y-125332050D03*
X144392600Y-125332050D03*
%TD*%
%TO.C,D6*%
X143268400Y-103232050D03*
X146968400Y-103232050D03*
%TD*%
D13*
%TO.C,FB6*%
X133952400Y-89298750D03*
X135984400Y-89298750D03*
%TD*%
%TO.C,FB1*%
X134484400Y-118958750D03*
X132452400Y-118958750D03*
%TD*%
D15*
%TO.C,F3*%
X135968400Y-124378750D03*
X138168400Y-124378750D03*
%TD*%
D11*
%TO.C,R8*%
X143768400Y-107732050D03*
X145668400Y-107732050D03*
%TD*%
D13*
%TO.C,FB4*%
X134484400Y-122612050D03*
X132452400Y-122612050D03*
%TD*%
D11*
%TO.C,R6*%
X146368400Y-87232050D03*
X148268400Y-87232050D03*
%TD*%
D10*
%TO.C,D10*%
X143018400Y-112182050D03*
X143018400Y-110282050D03*
X145218400Y-111232050D03*
%TD*%
D16*
%TO.C,TVS2*%
X141843000Y-92482050D03*
X141843000Y-91532050D03*
X141843000Y-90582050D03*
X144393800Y-90582050D03*
X144393800Y-91532050D03*
X144393800Y-92482050D03*
%TD*%
D11*
%TO.C,R4*%
X140368400Y-125332050D03*
X142268400Y-125332050D03*
%TD*%
D16*
%TO.C,TVS1*%
X140043000Y-120982050D03*
X140043000Y-120032050D03*
X140043000Y-119082050D03*
X142593800Y-119082050D03*
X142593800Y-120032050D03*
X142593800Y-120982050D03*
%TD*%
D12*
%TO.C,C1*%
X144518400Y-118982050D03*
X144518400Y-120882050D03*
%TD*%
D14*
%TO.C,D8*%
X148768400Y-93732050D03*
X152468400Y-93732050D03*
%TD*%
%TO.C,D2*%
X144468400Y-113932050D03*
X140768400Y-113932050D03*
%TD*%
D11*
%TO.C,R10*%
X151392600Y-118432050D03*
X153292600Y-118432050D03*
%TD*%
D14*
%TO.C,D7*%
X148768400Y-96132050D03*
X152468400Y-96132050D03*
%TD*%
D13*
%TO.C,FB7*%
X133952400Y-94658750D03*
X135984400Y-94658750D03*
%TD*%
D15*
%TO.C,F2*%
X135968400Y-120892050D03*
X138168400Y-120892050D03*
%TD*%
D11*
%TO.C,R14*%
X148168400Y-100832050D03*
X150068400Y-100832050D03*
%TD*%
D14*
%TO.C,D1*%
X144468400Y-116132050D03*
X140768400Y-116132050D03*
%TD*%
D13*
%TO.C,FB5*%
X133952400Y-91112050D03*
X135984400Y-91112050D03*
%TD*%
D11*
%TO.C,R16*%
X159068400Y-93632050D03*
X160968400Y-93632050D03*
%TD*%
D15*
%TO.C,F1*%
X135968400Y-118932050D03*
X138168400Y-118932050D03*
%TD*%
D10*
%TO.C,D11*%
X150218400Y-105182050D03*
X150218400Y-103282050D03*
X152418400Y-104232050D03*
%TD*%
D12*
%TO.C,R2*%
X135318400Y-116082050D03*
X135318400Y-114182050D03*
%TD*%
D11*
%TO.C,R3*%
X140368400Y-123132050D03*
X142268400Y-123132050D03*
%TD*%
D10*
%TO.C,D12*%
X156418400Y-93882050D03*
X156418400Y-95782050D03*
X154218400Y-94832050D03*
%TD*%
D15*
%TO.C,F5*%
X137868400Y-91025350D03*
X140068400Y-91025350D03*
%TD*%
D13*
%TO.C,FB8*%
X134052400Y-92845350D03*
X136084400Y-92845350D03*
%TD*%
D17*
%TO.C,X1*%
X139458400Y-109747050D03*
X134378400Y-108477050D03*
X139458400Y-107207050D03*
X134378400Y-105937050D03*
X139458400Y-104667050D03*
X134378400Y-103397050D03*
X139458400Y-102127050D03*
X134378400Y-100857050D03*
X139458400Y-99587050D03*
X134378400Y-98317050D03*
%TD*%
D11*
%TO.C,R5*%
X142168400Y-87232050D03*
X144068400Y-87232050D03*
%TD*%
D15*
%TO.C,F8*%
X137868400Y-92832050D03*
X140068400Y-92832050D03*
%TD*%
%TO.C,F6*%
X137868400Y-89285350D03*
X140068400Y-89285350D03*
%TD*%
%TO.C,F4*%
X135968400Y-122638750D03*
X138168400Y-122638750D03*
%TD*%
%TO.C,F7*%
X137868400Y-94572050D03*
X140068400Y-94572050D03*
%TD*%
D14*
%TO.C,D5*%
X143268400Y-105332050D03*
X146968400Y-105332050D03*
%TD*%
D11*
%TO.C,R12*%
X147068400Y-116232050D03*
X148968400Y-116232050D03*
%TD*%
M02*
