%TF.GenerationSoftware,KiCad,Pcbnew,8.0.3*%
%TF.CreationDate,2024-06-29T02:25:23+02:00*%
%TF.ProjectId,io-16x-fused-fm,696f2d31-3678-42d6-9675-7365642d666d,rev?*%
%TF.SameCoordinates,Original*%
%TF.FileFunction,Legend,Top*%
%TF.FilePolarity,Positive*%
%FSLAX46Y46*%
G04 Gerber Fmt 4.6, Leading zero omitted, Abs format (unit mm)*
G04 Created by KiCad (PCBNEW 8.0.3) date 2024-06-29 02:25:23*
%MOMM*%
%LPD*%
G01*
G04 APERTURE LIST*
%ADD10C,0.093472*%
%ADD11C,0.094419*%
%ADD12C,0.095008*%
%ADD13C,0.096425*%
%ADD14C,0.114300*%
%ADD15C,0.074778*%
%ADD16C,0.203200*%
%ADD17C,0.152400*%
%ADD18C,0.000000*%
%ADD19C,0.120000*%
%ADD20C,0.250000*%
%ADD21C,0.400000*%
%ADD22C,0.406400*%
%ADD23C,0.200000*%
%ADD24C,0.100000*%
G04 APERTURE END LIST*
D10*
X139470708Y-118275317D02*
X139490067Y-118294676D01*
X139490067Y-118294676D02*
X139509425Y-118352751D01*
X139509425Y-118352751D02*
X139509425Y-118391468D01*
X139509425Y-118391468D02*
X139490067Y-118449544D01*
X139490067Y-118449544D02*
X139451350Y-118488261D01*
X139451350Y-118488261D02*
X139412633Y-118507619D01*
X139412633Y-118507619D02*
X139335199Y-118526978D01*
X139335199Y-118526978D02*
X139277123Y-118526978D01*
X139277123Y-118526978D02*
X139199689Y-118507619D01*
X139199689Y-118507619D02*
X139160972Y-118488261D01*
X139160972Y-118488261D02*
X139122255Y-118449544D01*
X139122255Y-118449544D02*
X139102897Y-118391468D01*
X139102897Y-118391468D02*
X139102897Y-118352751D01*
X139102897Y-118352751D02*
X139122255Y-118294676D01*
X139122255Y-118294676D02*
X139141614Y-118275317D01*
X139102897Y-118139808D02*
X139102897Y-117888148D01*
X139102897Y-117888148D02*
X139257765Y-118023657D01*
X139257765Y-118023657D02*
X139257765Y-117965582D01*
X139257765Y-117965582D02*
X139277123Y-117926865D01*
X139277123Y-117926865D02*
X139296482Y-117907506D01*
X139296482Y-117907506D02*
X139335199Y-117888148D01*
X139335199Y-117888148D02*
X139431991Y-117888148D01*
X139431991Y-117888148D02*
X139470708Y-117907506D01*
X139470708Y-117907506D02*
X139490067Y-117926865D01*
X139490067Y-117926865D02*
X139509425Y-117965582D01*
X139509425Y-117965582D02*
X139509425Y-118081733D01*
X139509425Y-118081733D02*
X139490067Y-118120450D01*
X139490067Y-118120450D02*
X139470708Y-118139808D01*
X139141614Y-117733280D02*
X139122255Y-117713921D01*
X139122255Y-117713921D02*
X139102897Y-117675204D01*
X139102897Y-117675204D02*
X139102897Y-117578412D01*
X139102897Y-117578412D02*
X139122255Y-117539695D01*
X139122255Y-117539695D02*
X139141614Y-117520336D01*
X139141614Y-117520336D02*
X139180331Y-117500978D01*
X139180331Y-117500978D02*
X139219048Y-117500978D01*
X139219048Y-117500978D02*
X139277123Y-117520336D01*
X139277123Y-117520336D02*
X139509425Y-117752638D01*
X139509425Y-117752638D02*
X139509425Y-117500978D01*
D11*
X160831474Y-85881143D02*
X161101241Y-85881143D01*
X161101241Y-85881143D02*
X161155195Y-85899128D01*
X161155195Y-85899128D02*
X161191164Y-85935097D01*
X161191164Y-85935097D02*
X161209148Y-85989050D01*
X161209148Y-85989050D02*
X161209148Y-86025019D01*
X161209148Y-85701298D02*
X160831474Y-85701298D01*
X160831474Y-85701298D02*
X160831474Y-85557422D01*
X160831474Y-85557422D02*
X160849458Y-85521453D01*
X160849458Y-85521453D02*
X160867443Y-85503469D01*
X160867443Y-85503469D02*
X160903412Y-85485484D01*
X160903412Y-85485484D02*
X160957365Y-85485484D01*
X160957365Y-85485484D02*
X160993334Y-85503469D01*
X160993334Y-85503469D02*
X161011319Y-85521453D01*
X161011319Y-85521453D02*
X161029303Y-85557422D01*
X161029303Y-85557422D02*
X161029303Y-85701298D01*
X161209148Y-85125795D02*
X161209148Y-85341609D01*
X161209148Y-85233702D02*
X160831474Y-85233702D01*
X160831474Y-85233702D02*
X160885427Y-85269671D01*
X160885427Y-85269671D02*
X160921396Y-85305640D01*
X160921396Y-85305640D02*
X160939381Y-85341609D01*
X160831474Y-84999903D02*
X160831474Y-84748120D01*
X160831474Y-84748120D02*
X161209148Y-84909981D01*
D10*
X146345225Y-113472619D02*
X145938697Y-113472619D01*
X145938697Y-113472619D02*
X145938697Y-113375827D01*
X145938697Y-113375827D02*
X145958055Y-113317751D01*
X145958055Y-113317751D02*
X145996772Y-113279034D01*
X145996772Y-113279034D02*
X146035489Y-113259676D01*
X146035489Y-113259676D02*
X146112923Y-113240317D01*
X146112923Y-113240317D02*
X146170999Y-113240317D01*
X146170999Y-113240317D02*
X146248433Y-113259676D01*
X146248433Y-113259676D02*
X146287150Y-113279034D01*
X146287150Y-113279034D02*
X146325867Y-113317751D01*
X146325867Y-113317751D02*
X146345225Y-113375827D01*
X146345225Y-113375827D02*
X146345225Y-113472619D01*
X145977414Y-113085450D02*
X145958055Y-113066091D01*
X145958055Y-113066091D02*
X145938697Y-113027374D01*
X145938697Y-113027374D02*
X145938697Y-112930582D01*
X145938697Y-112930582D02*
X145958055Y-112891865D01*
X145958055Y-112891865D02*
X145977414Y-112872506D01*
X145977414Y-112872506D02*
X146016131Y-112853148D01*
X146016131Y-112853148D02*
X146054848Y-112853148D01*
X146054848Y-112853148D02*
X146112923Y-112872506D01*
X146112923Y-112872506D02*
X146345225Y-113104808D01*
X146345225Y-113104808D02*
X146345225Y-112853148D01*
X145938697Y-112717638D02*
X145938697Y-112465978D01*
X145938697Y-112465978D02*
X146093565Y-112601487D01*
X146093565Y-112601487D02*
X146093565Y-112543412D01*
X146093565Y-112543412D02*
X146112923Y-112504695D01*
X146112923Y-112504695D02*
X146132282Y-112485336D01*
X146132282Y-112485336D02*
X146170999Y-112465978D01*
X146170999Y-112465978D02*
X146267791Y-112465978D01*
X146267791Y-112465978D02*
X146306508Y-112485336D01*
X146306508Y-112485336D02*
X146325867Y-112504695D01*
X146325867Y-112504695D02*
X146345225Y-112543412D01*
X146345225Y-112543412D02*
X146345225Y-112659563D01*
X146345225Y-112659563D02*
X146325867Y-112698280D01*
X146325867Y-112698280D02*
X146306508Y-112717638D01*
X133654195Y-94414495D02*
X133518686Y-94414495D01*
X133518686Y-94627438D02*
X133518686Y-94220910D01*
X133518686Y-94220910D02*
X133712271Y-94220910D01*
X134080082Y-94627438D02*
X133847780Y-94627438D01*
X133963931Y-94627438D02*
X133963931Y-94220910D01*
X133963931Y-94220910D02*
X133925214Y-94278985D01*
X133925214Y-94278985D02*
X133886497Y-94317702D01*
X133886497Y-94317702D02*
X133847780Y-94337061D01*
X134215592Y-94220910D02*
X134467252Y-94220910D01*
X134467252Y-94220910D02*
X134331743Y-94375778D01*
X134331743Y-94375778D02*
X134389818Y-94375778D01*
X134389818Y-94375778D02*
X134428535Y-94395136D01*
X134428535Y-94395136D02*
X134447894Y-94414495D01*
X134447894Y-94414495D02*
X134467252Y-94453212D01*
X134467252Y-94453212D02*
X134467252Y-94550004D01*
X134467252Y-94550004D02*
X134447894Y-94588721D01*
X134447894Y-94588721D02*
X134428535Y-94608080D01*
X134428535Y-94608080D02*
X134389818Y-94627438D01*
X134389818Y-94627438D02*
X134273667Y-94627438D01*
X134273667Y-94627438D02*
X134234950Y-94608080D01*
X134234950Y-94608080D02*
X134215592Y-94588721D01*
D12*
X134672915Y-107838672D02*
X134546238Y-107838672D01*
X134546238Y-108037736D02*
X134546238Y-107657705D01*
X134546238Y-107657705D02*
X134727205Y-107657705D01*
X134998656Y-107838672D02*
X135052946Y-107856769D01*
X135052946Y-107856769D02*
X135071043Y-107874866D01*
X135071043Y-107874866D02*
X135089140Y-107911059D01*
X135089140Y-107911059D02*
X135089140Y-107965349D01*
X135089140Y-107965349D02*
X135071043Y-108001543D01*
X135071043Y-108001543D02*
X135052946Y-108019640D01*
X135052946Y-108019640D02*
X135016753Y-108037736D01*
X135016753Y-108037736D02*
X134871979Y-108037736D01*
X134871979Y-108037736D02*
X134871979Y-107657705D01*
X134871979Y-107657705D02*
X134998656Y-107657705D01*
X134998656Y-107657705D02*
X135034850Y-107675802D01*
X135034850Y-107675802D02*
X135052946Y-107693899D01*
X135052946Y-107693899D02*
X135071043Y-107730092D01*
X135071043Y-107730092D02*
X135071043Y-107766286D01*
X135071043Y-107766286D02*
X135052946Y-107802479D01*
X135052946Y-107802479D02*
X135034850Y-107820576D01*
X135034850Y-107820576D02*
X134998656Y-107838672D01*
X134998656Y-107838672D02*
X134871979Y-107838672D01*
X135233913Y-107693899D02*
X135252010Y-107675802D01*
X135252010Y-107675802D02*
X135288204Y-107657705D01*
X135288204Y-107657705D02*
X135378687Y-107657705D01*
X135378687Y-107657705D02*
X135414881Y-107675802D01*
X135414881Y-107675802D02*
X135432977Y-107693899D01*
X135432977Y-107693899D02*
X135451074Y-107730092D01*
X135451074Y-107730092D02*
X135451074Y-107766286D01*
X135451074Y-107766286D02*
X135432977Y-107820576D01*
X135432977Y-107820576D02*
X135215817Y-108037736D01*
X135215817Y-108037736D02*
X135451074Y-108037736D01*
X135813008Y-108037736D02*
X135595847Y-108037736D01*
X135704428Y-108037736D02*
X135704428Y-107657705D01*
X135704428Y-107657705D02*
X135668234Y-107711995D01*
X135668234Y-107711995D02*
X135632041Y-107748189D01*
X135632041Y-107748189D02*
X135595847Y-107766286D01*
D10*
X143774788Y-107007438D02*
X143639278Y-106813853D01*
X143542486Y-107007438D02*
X143542486Y-106600910D01*
X143542486Y-106600910D02*
X143697354Y-106600910D01*
X143697354Y-106600910D02*
X143736071Y-106620268D01*
X143736071Y-106620268D02*
X143755429Y-106639627D01*
X143755429Y-106639627D02*
X143774788Y-106678344D01*
X143774788Y-106678344D02*
X143774788Y-106736419D01*
X143774788Y-106736419D02*
X143755429Y-106775136D01*
X143755429Y-106775136D02*
X143736071Y-106794495D01*
X143736071Y-106794495D02*
X143697354Y-106813853D01*
X143697354Y-106813853D02*
X143542486Y-106813853D01*
X143910297Y-106600910D02*
X144181316Y-106600910D01*
X144181316Y-106600910D02*
X144007089Y-107007438D01*
X144355542Y-107007438D02*
X144432976Y-107007438D01*
X144432976Y-107007438D02*
X144471693Y-106988080D01*
X144471693Y-106988080D02*
X144491052Y-106968721D01*
X144491052Y-106968721D02*
X144529769Y-106910646D01*
X144529769Y-106910646D02*
X144549127Y-106833212D01*
X144549127Y-106833212D02*
X144549127Y-106678344D01*
X144549127Y-106678344D02*
X144529769Y-106639627D01*
X144529769Y-106639627D02*
X144510410Y-106620268D01*
X144510410Y-106620268D02*
X144471693Y-106600910D01*
X144471693Y-106600910D02*
X144394259Y-106600910D01*
X144394259Y-106600910D02*
X144355542Y-106620268D01*
X144355542Y-106620268D02*
X144336184Y-106639627D01*
X144336184Y-106639627D02*
X144316825Y-106678344D01*
X144316825Y-106678344D02*
X144316825Y-106775136D01*
X144316825Y-106775136D02*
X144336184Y-106813853D01*
X144336184Y-106813853D02*
X144355542Y-106833212D01*
X144355542Y-106833212D02*
X144394259Y-106852570D01*
X144394259Y-106852570D02*
X144471693Y-106852570D01*
X144471693Y-106852570D02*
X144510410Y-106833212D01*
X144510410Y-106833212D02*
X144529769Y-106813853D01*
X144529769Y-106813853D02*
X144549127Y-106775136D01*
X133654195Y-107367795D02*
X133518686Y-107367795D01*
X133518686Y-107580738D02*
X133518686Y-107174210D01*
X133518686Y-107174210D02*
X133712271Y-107174210D01*
X134080082Y-107580738D02*
X133847780Y-107580738D01*
X133963931Y-107580738D02*
X133963931Y-107174210D01*
X133963931Y-107174210D02*
X133925214Y-107232285D01*
X133925214Y-107232285D02*
X133886497Y-107271002D01*
X133886497Y-107271002D02*
X133847780Y-107290361D01*
X134428535Y-107174210D02*
X134351101Y-107174210D01*
X134351101Y-107174210D02*
X134312384Y-107193568D01*
X134312384Y-107193568D02*
X134293026Y-107212927D01*
X134293026Y-107212927D02*
X134254309Y-107271002D01*
X134254309Y-107271002D02*
X134234950Y-107348436D01*
X134234950Y-107348436D02*
X134234950Y-107503304D01*
X134234950Y-107503304D02*
X134254309Y-107542021D01*
X134254309Y-107542021D02*
X134273667Y-107561380D01*
X134273667Y-107561380D02*
X134312384Y-107580738D01*
X134312384Y-107580738D02*
X134389818Y-107580738D01*
X134389818Y-107580738D02*
X134428535Y-107561380D01*
X134428535Y-107561380D02*
X134447894Y-107542021D01*
X134447894Y-107542021D02*
X134467252Y-107503304D01*
X134467252Y-107503304D02*
X134467252Y-107406512D01*
X134467252Y-107406512D02*
X134447894Y-107367795D01*
X134447894Y-107367795D02*
X134428535Y-107348436D01*
X134428535Y-107348436D02*
X134389818Y-107329078D01*
X134389818Y-107329078D02*
X134312384Y-107329078D01*
X134312384Y-107329078D02*
X134273667Y-107348436D01*
X134273667Y-107348436D02*
X134254309Y-107367795D01*
X134254309Y-107367795D02*
X134234950Y-107406512D01*
X149709425Y-123923769D02*
X149709425Y-124117354D01*
X149709425Y-124117354D02*
X149302897Y-124117354D01*
X149496482Y-123788260D02*
X149496482Y-123652751D01*
X149709425Y-123594675D02*
X149709425Y-123788260D01*
X149709425Y-123788260D02*
X149302897Y-123788260D01*
X149302897Y-123788260D02*
X149302897Y-123594675D01*
X149709425Y-123420449D02*
X149302897Y-123420449D01*
X149302897Y-123420449D02*
X149302897Y-123323657D01*
X149302897Y-123323657D02*
X149322255Y-123265581D01*
X149322255Y-123265581D02*
X149360972Y-123226864D01*
X149360972Y-123226864D02*
X149399689Y-123207506D01*
X149399689Y-123207506D02*
X149477123Y-123188147D01*
X149477123Y-123188147D02*
X149535199Y-123188147D01*
X149535199Y-123188147D02*
X149612633Y-123207506D01*
X149612633Y-123207506D02*
X149651350Y-123226864D01*
X149651350Y-123226864D02*
X149690067Y-123265581D01*
X149690067Y-123265581D02*
X149709425Y-123323657D01*
X149709425Y-123323657D02*
X149709425Y-123420449D01*
X149302897Y-122839695D02*
X149302897Y-122917129D01*
X149302897Y-122917129D02*
X149322255Y-122955846D01*
X149322255Y-122955846D02*
X149341614Y-122975204D01*
X149341614Y-122975204D02*
X149399689Y-123013921D01*
X149399689Y-123013921D02*
X149477123Y-123033280D01*
X149477123Y-123033280D02*
X149631991Y-123033280D01*
X149631991Y-123033280D02*
X149670708Y-123013921D01*
X149670708Y-123013921D02*
X149690067Y-122994563D01*
X149690067Y-122994563D02*
X149709425Y-122955846D01*
X149709425Y-122955846D02*
X149709425Y-122878412D01*
X149709425Y-122878412D02*
X149690067Y-122839695D01*
X149690067Y-122839695D02*
X149670708Y-122820336D01*
X149670708Y-122820336D02*
X149631991Y-122800978D01*
X149631991Y-122800978D02*
X149535199Y-122800978D01*
X149535199Y-122800978D02*
X149496482Y-122820336D01*
X149496482Y-122820336D02*
X149477123Y-122839695D01*
X149477123Y-122839695D02*
X149457765Y-122878412D01*
X149457765Y-122878412D02*
X149457765Y-122955846D01*
X149457765Y-122955846D02*
X149477123Y-122994563D01*
X149477123Y-122994563D02*
X149496482Y-123013921D01*
X149496482Y-123013921D02*
X149535199Y-123033280D01*
D12*
X139612479Y-99641236D02*
X139612479Y-99261205D01*
X139612479Y-99261205D02*
X139702963Y-99261205D01*
X139702963Y-99261205D02*
X139757253Y-99279302D01*
X139757253Y-99279302D02*
X139793446Y-99315495D01*
X139793446Y-99315495D02*
X139811543Y-99351689D01*
X139811543Y-99351689D02*
X139829640Y-99424076D01*
X139829640Y-99424076D02*
X139829640Y-99478366D01*
X139829640Y-99478366D02*
X139811543Y-99550753D01*
X139811543Y-99550753D02*
X139793446Y-99586946D01*
X139793446Y-99586946D02*
X139757253Y-99623140D01*
X139757253Y-99623140D02*
X139702963Y-99641236D01*
X139702963Y-99641236D02*
X139612479Y-99641236D01*
X139974413Y-99297399D02*
X139992510Y-99279302D01*
X139992510Y-99279302D02*
X140028704Y-99261205D01*
X140028704Y-99261205D02*
X140119187Y-99261205D01*
X140119187Y-99261205D02*
X140155381Y-99279302D01*
X140155381Y-99279302D02*
X140173477Y-99297399D01*
X140173477Y-99297399D02*
X140191574Y-99333592D01*
X140191574Y-99333592D02*
X140191574Y-99369786D01*
X140191574Y-99369786D02*
X140173477Y-99424076D01*
X140173477Y-99424076D02*
X139956317Y-99641236D01*
X139956317Y-99641236D02*
X140191574Y-99641236D01*
X140426831Y-99261205D02*
X140463024Y-99261205D01*
X140463024Y-99261205D02*
X140499218Y-99279302D01*
X140499218Y-99279302D02*
X140517315Y-99297399D01*
X140517315Y-99297399D02*
X140535411Y-99333592D01*
X140535411Y-99333592D02*
X140553508Y-99405979D01*
X140553508Y-99405979D02*
X140553508Y-99496463D01*
X140553508Y-99496463D02*
X140535411Y-99568849D01*
X140535411Y-99568849D02*
X140517315Y-99605043D01*
X140517315Y-99605043D02*
X140499218Y-99623140D01*
X140499218Y-99623140D02*
X140463024Y-99641236D01*
X140463024Y-99641236D02*
X140426831Y-99641236D01*
X140426831Y-99641236D02*
X140390638Y-99623140D01*
X140390638Y-99623140D02*
X140372541Y-99605043D01*
X140372541Y-99605043D02*
X140354444Y-99568849D01*
X140354444Y-99568849D02*
X140336347Y-99496463D01*
X140336347Y-99496463D02*
X140336347Y-99405979D01*
X140336347Y-99405979D02*
X140354444Y-99333592D01*
X140354444Y-99333592D02*
X140372541Y-99297399D01*
X140372541Y-99297399D02*
X140390638Y-99279302D01*
X140390638Y-99279302D02*
X140426831Y-99261205D01*
D10*
X138873988Y-107107438D02*
X138738478Y-106913853D01*
X138641686Y-107107438D02*
X138641686Y-106700910D01*
X138641686Y-106700910D02*
X138796554Y-106700910D01*
X138796554Y-106700910D02*
X138835271Y-106720268D01*
X138835271Y-106720268D02*
X138854629Y-106739627D01*
X138854629Y-106739627D02*
X138873988Y-106778344D01*
X138873988Y-106778344D02*
X138873988Y-106836419D01*
X138873988Y-106836419D02*
X138854629Y-106875136D01*
X138854629Y-106875136D02*
X138835271Y-106894495D01*
X138835271Y-106894495D02*
X138796554Y-106913853D01*
X138796554Y-106913853D02*
X138641686Y-106913853D01*
X139222440Y-106700910D02*
X139145006Y-106700910D01*
X139145006Y-106700910D02*
X139106289Y-106720268D01*
X139106289Y-106720268D02*
X139086931Y-106739627D01*
X139086931Y-106739627D02*
X139048214Y-106797702D01*
X139048214Y-106797702D02*
X139028855Y-106875136D01*
X139028855Y-106875136D02*
X139028855Y-107030004D01*
X139028855Y-107030004D02*
X139048214Y-107068721D01*
X139048214Y-107068721D02*
X139067572Y-107088080D01*
X139067572Y-107088080D02*
X139106289Y-107107438D01*
X139106289Y-107107438D02*
X139183723Y-107107438D01*
X139183723Y-107107438D02*
X139222440Y-107088080D01*
X139222440Y-107088080D02*
X139241799Y-107068721D01*
X139241799Y-107068721D02*
X139261157Y-107030004D01*
X139261157Y-107030004D02*
X139261157Y-106933212D01*
X139261157Y-106933212D02*
X139241799Y-106894495D01*
X139241799Y-106894495D02*
X139222440Y-106875136D01*
X139222440Y-106875136D02*
X139183723Y-106855778D01*
X139183723Y-106855778D02*
X139106289Y-106855778D01*
X139106289Y-106855778D02*
X139067572Y-106875136D01*
X139067572Y-106875136D02*
X139048214Y-106894495D01*
X139048214Y-106894495D02*
X139028855Y-106933212D01*
X139628969Y-106700910D02*
X139435384Y-106700910D01*
X139435384Y-106700910D02*
X139416025Y-106894495D01*
X139416025Y-106894495D02*
X139435384Y-106875136D01*
X139435384Y-106875136D02*
X139474101Y-106855778D01*
X139474101Y-106855778D02*
X139570893Y-106855778D01*
X139570893Y-106855778D02*
X139609610Y-106875136D01*
X139609610Y-106875136D02*
X139628969Y-106894495D01*
X139628969Y-106894495D02*
X139648327Y-106933212D01*
X139648327Y-106933212D02*
X139648327Y-107030004D01*
X139648327Y-107030004D02*
X139628969Y-107068721D01*
X139628969Y-107068721D02*
X139609610Y-107088080D01*
X139609610Y-107088080D02*
X139570893Y-107107438D01*
X139570893Y-107107438D02*
X139474101Y-107107438D01*
X139474101Y-107107438D02*
X139435384Y-107088080D01*
X139435384Y-107088080D02*
X139416025Y-107068721D01*
X133654195Y-109361195D02*
X133518686Y-109361195D01*
X133518686Y-109574138D02*
X133518686Y-109167610D01*
X133518686Y-109167610D02*
X133712271Y-109167610D01*
X133886497Y-109574138D02*
X133963931Y-109574138D01*
X133963931Y-109574138D02*
X134002648Y-109554780D01*
X134002648Y-109554780D02*
X134022007Y-109535421D01*
X134022007Y-109535421D02*
X134060724Y-109477346D01*
X134060724Y-109477346D02*
X134080082Y-109399912D01*
X134080082Y-109399912D02*
X134080082Y-109245044D01*
X134080082Y-109245044D02*
X134060724Y-109206327D01*
X134060724Y-109206327D02*
X134041365Y-109186968D01*
X134041365Y-109186968D02*
X134002648Y-109167610D01*
X134002648Y-109167610D02*
X133925214Y-109167610D01*
X133925214Y-109167610D02*
X133886497Y-109186968D01*
X133886497Y-109186968D02*
X133867139Y-109206327D01*
X133867139Y-109206327D02*
X133847780Y-109245044D01*
X133847780Y-109245044D02*
X133847780Y-109341836D01*
X133847780Y-109341836D02*
X133867139Y-109380553D01*
X133867139Y-109380553D02*
X133886497Y-109399912D01*
X133886497Y-109399912D02*
X133925214Y-109419270D01*
X133925214Y-109419270D02*
X134002648Y-109419270D01*
X134002648Y-109419270D02*
X134041365Y-109399912D01*
X134041365Y-109399912D02*
X134060724Y-109380553D01*
X134060724Y-109380553D02*
X134080082Y-109341836D01*
X134693788Y-90976461D02*
X134500203Y-91111971D01*
X134693788Y-91208763D02*
X134287260Y-91208763D01*
X134287260Y-91208763D02*
X134287260Y-91053895D01*
X134287260Y-91053895D02*
X134306618Y-91015178D01*
X134306618Y-91015178D02*
X134325977Y-90995820D01*
X134325977Y-90995820D02*
X134364694Y-90976461D01*
X134364694Y-90976461D02*
X134422769Y-90976461D01*
X134422769Y-90976461D02*
X134461486Y-90995820D01*
X134461486Y-90995820D02*
X134480845Y-91015178D01*
X134480845Y-91015178D02*
X134500203Y-91053895D01*
X134500203Y-91053895D02*
X134500203Y-91208763D01*
X134287260Y-90628009D02*
X134287260Y-90705443D01*
X134287260Y-90705443D02*
X134306618Y-90744160D01*
X134306618Y-90744160D02*
X134325977Y-90763518D01*
X134325977Y-90763518D02*
X134384052Y-90802235D01*
X134384052Y-90802235D02*
X134461486Y-90821594D01*
X134461486Y-90821594D02*
X134616354Y-90821594D01*
X134616354Y-90821594D02*
X134655071Y-90802235D01*
X134655071Y-90802235D02*
X134674430Y-90782877D01*
X134674430Y-90782877D02*
X134693788Y-90744160D01*
X134693788Y-90744160D02*
X134693788Y-90666726D01*
X134693788Y-90666726D02*
X134674430Y-90628009D01*
X134674430Y-90628009D02*
X134655071Y-90608650D01*
X134655071Y-90608650D02*
X134616354Y-90589292D01*
X134616354Y-90589292D02*
X134519562Y-90589292D01*
X134519562Y-90589292D02*
X134480845Y-90608650D01*
X134480845Y-90608650D02*
X134461486Y-90628009D01*
X134461486Y-90628009D02*
X134442128Y-90666726D01*
X134442128Y-90666726D02*
X134442128Y-90744160D01*
X134442128Y-90744160D02*
X134461486Y-90782877D01*
X134461486Y-90782877D02*
X134480845Y-90802235D01*
X134480845Y-90802235D02*
X134519562Y-90821594D01*
X134693788Y-90395707D02*
X134693788Y-90318273D01*
X134693788Y-90318273D02*
X134674430Y-90279556D01*
X134674430Y-90279556D02*
X134655071Y-90260197D01*
X134655071Y-90260197D02*
X134596996Y-90221480D01*
X134596996Y-90221480D02*
X134519562Y-90202122D01*
X134519562Y-90202122D02*
X134364694Y-90202122D01*
X134364694Y-90202122D02*
X134325977Y-90221480D01*
X134325977Y-90221480D02*
X134306618Y-90240839D01*
X134306618Y-90240839D02*
X134287260Y-90279556D01*
X134287260Y-90279556D02*
X134287260Y-90356990D01*
X134287260Y-90356990D02*
X134306618Y-90395707D01*
X134306618Y-90395707D02*
X134325977Y-90415065D01*
X134325977Y-90415065D02*
X134364694Y-90434424D01*
X134364694Y-90434424D02*
X134461486Y-90434424D01*
X134461486Y-90434424D02*
X134500203Y-90415065D01*
X134500203Y-90415065D02*
X134519562Y-90395707D01*
X134519562Y-90395707D02*
X134538920Y-90356990D01*
X134538920Y-90356990D02*
X134538920Y-90279556D01*
X134538920Y-90279556D02*
X134519562Y-90240839D01*
X134519562Y-90240839D02*
X134500203Y-90221480D01*
X134500203Y-90221480D02*
X134461486Y-90202122D01*
D12*
X139412479Y-107841236D02*
X139412479Y-107461205D01*
X139412479Y-107461205D02*
X139502963Y-107461205D01*
X139502963Y-107461205D02*
X139557253Y-107479302D01*
X139557253Y-107479302D02*
X139593446Y-107515495D01*
X139593446Y-107515495D02*
X139611543Y-107551689D01*
X139611543Y-107551689D02*
X139629640Y-107624076D01*
X139629640Y-107624076D02*
X139629640Y-107678366D01*
X139629640Y-107678366D02*
X139611543Y-107750753D01*
X139611543Y-107750753D02*
X139593446Y-107786946D01*
X139593446Y-107786946D02*
X139557253Y-107823140D01*
X139557253Y-107823140D02*
X139502963Y-107841236D01*
X139502963Y-107841236D02*
X139412479Y-107841236D01*
X139991574Y-107841236D02*
X139774413Y-107841236D01*
X139882994Y-107841236D02*
X139882994Y-107461205D01*
X139882994Y-107461205D02*
X139846800Y-107515495D01*
X139846800Y-107515495D02*
X139810607Y-107551689D01*
X139810607Y-107551689D02*
X139774413Y-107569786D01*
X140208734Y-107624076D02*
X140172541Y-107605979D01*
X140172541Y-107605979D02*
X140154444Y-107587882D01*
X140154444Y-107587882D02*
X140136347Y-107551689D01*
X140136347Y-107551689D02*
X140136347Y-107533592D01*
X140136347Y-107533592D02*
X140154444Y-107497399D01*
X140154444Y-107497399D02*
X140172541Y-107479302D01*
X140172541Y-107479302D02*
X140208734Y-107461205D01*
X140208734Y-107461205D02*
X140281121Y-107461205D01*
X140281121Y-107461205D02*
X140317315Y-107479302D01*
X140317315Y-107479302D02*
X140335411Y-107497399D01*
X140335411Y-107497399D02*
X140353508Y-107533592D01*
X140353508Y-107533592D02*
X140353508Y-107551689D01*
X140353508Y-107551689D02*
X140335411Y-107587882D01*
X140335411Y-107587882D02*
X140317315Y-107605979D01*
X140317315Y-107605979D02*
X140281121Y-107624076D01*
X140281121Y-107624076D02*
X140208734Y-107624076D01*
X140208734Y-107624076D02*
X140172541Y-107642172D01*
X140172541Y-107642172D02*
X140154444Y-107660269D01*
X140154444Y-107660269D02*
X140136347Y-107696463D01*
X140136347Y-107696463D02*
X140136347Y-107768849D01*
X140136347Y-107768849D02*
X140154444Y-107805043D01*
X140154444Y-107805043D02*
X140172541Y-107823140D01*
X140172541Y-107823140D02*
X140208734Y-107841236D01*
X140208734Y-107841236D02*
X140281121Y-107841236D01*
X140281121Y-107841236D02*
X140317315Y-107823140D01*
X140317315Y-107823140D02*
X140335411Y-107805043D01*
X140335411Y-107805043D02*
X140353508Y-107768849D01*
X140353508Y-107768849D02*
X140353508Y-107696463D01*
X140353508Y-107696463D02*
X140335411Y-107660269D01*
X140335411Y-107660269D02*
X140317315Y-107642172D01*
X140317315Y-107642172D02*
X140281121Y-107624076D01*
D10*
X133654195Y-101587895D02*
X133518686Y-101587895D01*
X133518686Y-101800838D02*
X133518686Y-101394310D01*
X133518686Y-101394310D02*
X133712271Y-101394310D01*
X134080082Y-101800838D02*
X133847780Y-101800838D01*
X133963931Y-101800838D02*
X133963931Y-101394310D01*
X133963931Y-101394310D02*
X133925214Y-101452385D01*
X133925214Y-101452385D02*
X133886497Y-101491102D01*
X133886497Y-101491102D02*
X133847780Y-101510461D01*
X134447894Y-101394310D02*
X134254309Y-101394310D01*
X134254309Y-101394310D02*
X134234950Y-101587895D01*
X134234950Y-101587895D02*
X134254309Y-101568536D01*
X134254309Y-101568536D02*
X134293026Y-101549178D01*
X134293026Y-101549178D02*
X134389818Y-101549178D01*
X134389818Y-101549178D02*
X134428535Y-101568536D01*
X134428535Y-101568536D02*
X134447894Y-101587895D01*
X134447894Y-101587895D02*
X134467252Y-101626612D01*
X134467252Y-101626612D02*
X134467252Y-101723404D01*
X134467252Y-101723404D02*
X134447894Y-101762121D01*
X134447894Y-101762121D02*
X134428535Y-101781480D01*
X134428535Y-101781480D02*
X134389818Y-101800838D01*
X134389818Y-101800838D02*
X134293026Y-101800838D01*
X134293026Y-101800838D02*
X134254309Y-101781480D01*
X134254309Y-101781480D02*
X134234950Y-101762121D01*
X148974788Y-118207438D02*
X148839278Y-118013853D01*
X148742486Y-118207438D02*
X148742486Y-117800910D01*
X148742486Y-117800910D02*
X148897354Y-117800910D01*
X148897354Y-117800910D02*
X148936071Y-117820268D01*
X148936071Y-117820268D02*
X148955429Y-117839627D01*
X148955429Y-117839627D02*
X148974788Y-117878344D01*
X148974788Y-117878344D02*
X148974788Y-117936419D01*
X148974788Y-117936419D02*
X148955429Y-117975136D01*
X148955429Y-117975136D02*
X148936071Y-117994495D01*
X148936071Y-117994495D02*
X148897354Y-118013853D01*
X148897354Y-118013853D02*
X148742486Y-118013853D01*
X149110297Y-117800910D02*
X149381316Y-117800910D01*
X149381316Y-117800910D02*
X149207089Y-118207438D01*
X149710410Y-117936419D02*
X149710410Y-118207438D01*
X149613618Y-117781552D02*
X149516825Y-118071929D01*
X149516825Y-118071929D02*
X149768486Y-118071929D01*
X151438988Y-92368721D02*
X151419629Y-92388080D01*
X151419629Y-92388080D02*
X151361554Y-92407438D01*
X151361554Y-92407438D02*
X151322837Y-92407438D01*
X151322837Y-92407438D02*
X151264761Y-92388080D01*
X151264761Y-92388080D02*
X151226044Y-92349363D01*
X151226044Y-92349363D02*
X151206686Y-92310646D01*
X151206686Y-92310646D02*
X151187327Y-92233212D01*
X151187327Y-92233212D02*
X151187327Y-92175136D01*
X151187327Y-92175136D02*
X151206686Y-92097702D01*
X151206686Y-92097702D02*
X151226044Y-92058985D01*
X151226044Y-92058985D02*
X151264761Y-92020268D01*
X151264761Y-92020268D02*
X151322837Y-92000910D01*
X151322837Y-92000910D02*
X151361554Y-92000910D01*
X151361554Y-92000910D02*
X151419629Y-92020268D01*
X151419629Y-92020268D02*
X151438988Y-92039627D01*
X151593855Y-92039627D02*
X151613214Y-92020268D01*
X151613214Y-92020268D02*
X151651931Y-92000910D01*
X151651931Y-92000910D02*
X151748723Y-92000910D01*
X151748723Y-92000910D02*
X151787440Y-92020268D01*
X151787440Y-92020268D02*
X151806799Y-92039627D01*
X151806799Y-92039627D02*
X151826157Y-92078344D01*
X151826157Y-92078344D02*
X151826157Y-92117061D01*
X151826157Y-92117061D02*
X151806799Y-92175136D01*
X151806799Y-92175136D02*
X151574497Y-92407438D01*
X151574497Y-92407438D02*
X151826157Y-92407438D01*
X152058459Y-92175136D02*
X152019742Y-92155778D01*
X152019742Y-92155778D02*
X152000384Y-92136419D01*
X152000384Y-92136419D02*
X151981025Y-92097702D01*
X151981025Y-92097702D02*
X151981025Y-92078344D01*
X151981025Y-92078344D02*
X152000384Y-92039627D01*
X152000384Y-92039627D02*
X152019742Y-92020268D01*
X152019742Y-92020268D02*
X152058459Y-92000910D01*
X152058459Y-92000910D02*
X152135893Y-92000910D01*
X152135893Y-92000910D02*
X152174610Y-92020268D01*
X152174610Y-92020268D02*
X152193969Y-92039627D01*
X152193969Y-92039627D02*
X152213327Y-92078344D01*
X152213327Y-92078344D02*
X152213327Y-92097702D01*
X152213327Y-92097702D02*
X152193969Y-92136419D01*
X152193969Y-92136419D02*
X152174610Y-92155778D01*
X152174610Y-92155778D02*
X152135893Y-92175136D01*
X152135893Y-92175136D02*
X152058459Y-92175136D01*
X152058459Y-92175136D02*
X152019742Y-92194495D01*
X152019742Y-92194495D02*
X152000384Y-92213853D01*
X152000384Y-92213853D02*
X151981025Y-92252570D01*
X151981025Y-92252570D02*
X151981025Y-92330004D01*
X151981025Y-92330004D02*
X152000384Y-92368721D01*
X152000384Y-92368721D02*
X152019742Y-92388080D01*
X152019742Y-92388080D02*
X152058459Y-92407438D01*
X152058459Y-92407438D02*
X152135893Y-92407438D01*
X152135893Y-92407438D02*
X152174610Y-92388080D01*
X152174610Y-92388080D02*
X152193969Y-92368721D01*
X152193969Y-92368721D02*
X152213327Y-92330004D01*
X152213327Y-92330004D02*
X152213327Y-92252570D01*
X152213327Y-92252570D02*
X152193969Y-92213853D01*
X152193969Y-92213853D02*
X152174610Y-92194495D01*
X152174610Y-92194495D02*
X152135893Y-92175136D01*
X143774788Y-124207438D02*
X143639278Y-124013853D01*
X143542486Y-124207438D02*
X143542486Y-123800910D01*
X143542486Y-123800910D02*
X143697354Y-123800910D01*
X143697354Y-123800910D02*
X143736071Y-123820268D01*
X143736071Y-123820268D02*
X143755429Y-123839627D01*
X143755429Y-123839627D02*
X143774788Y-123878344D01*
X143774788Y-123878344D02*
X143774788Y-123936419D01*
X143774788Y-123936419D02*
X143755429Y-123975136D01*
X143755429Y-123975136D02*
X143736071Y-123994495D01*
X143736071Y-123994495D02*
X143697354Y-124013853D01*
X143697354Y-124013853D02*
X143542486Y-124013853D01*
X143910297Y-123800910D02*
X144181316Y-123800910D01*
X144181316Y-123800910D02*
X144007089Y-124207438D01*
X144529769Y-123800910D02*
X144336184Y-123800910D01*
X144336184Y-123800910D02*
X144316825Y-123994495D01*
X144316825Y-123994495D02*
X144336184Y-123975136D01*
X144336184Y-123975136D02*
X144374901Y-123955778D01*
X144374901Y-123955778D02*
X144471693Y-123955778D01*
X144471693Y-123955778D02*
X144510410Y-123975136D01*
X144510410Y-123975136D02*
X144529769Y-123994495D01*
X144529769Y-123994495D02*
X144549127Y-124033212D01*
X144549127Y-124033212D02*
X144549127Y-124130004D01*
X144549127Y-124130004D02*
X144529769Y-124168721D01*
X144529769Y-124168721D02*
X144510410Y-124188080D01*
X144510410Y-124188080D02*
X144471693Y-124207438D01*
X144471693Y-124207438D02*
X144374901Y-124207438D01*
X144374901Y-124207438D02*
X144336184Y-124188080D01*
X144336184Y-124188080D02*
X144316825Y-124168721D01*
X160175132Y-84284358D02*
X160155773Y-84303717D01*
X160155773Y-84303717D02*
X160097698Y-84323075D01*
X160097698Y-84323075D02*
X160058981Y-84323075D01*
X160058981Y-84323075D02*
X160000905Y-84303717D01*
X160000905Y-84303717D02*
X159962188Y-84265000D01*
X159962188Y-84265000D02*
X159942830Y-84226283D01*
X159942830Y-84226283D02*
X159923471Y-84148849D01*
X159923471Y-84148849D02*
X159923471Y-84090773D01*
X159923471Y-84090773D02*
X159942830Y-84013339D01*
X159942830Y-84013339D02*
X159962188Y-83974622D01*
X159962188Y-83974622D02*
X160000905Y-83935905D01*
X160000905Y-83935905D02*
X160058981Y-83916547D01*
X160058981Y-83916547D02*
X160097698Y-83916547D01*
X160097698Y-83916547D02*
X160155773Y-83935905D01*
X160155773Y-83935905D02*
X160175132Y-83955264D01*
X160310641Y-83916547D02*
X160562301Y-83916547D01*
X160562301Y-83916547D02*
X160426792Y-84071415D01*
X160426792Y-84071415D02*
X160484867Y-84071415D01*
X160484867Y-84071415D02*
X160523584Y-84090773D01*
X160523584Y-84090773D02*
X160542943Y-84110132D01*
X160542943Y-84110132D02*
X160562301Y-84148849D01*
X160562301Y-84148849D02*
X160562301Y-84245641D01*
X160562301Y-84245641D02*
X160542943Y-84284358D01*
X160542943Y-84284358D02*
X160523584Y-84303717D01*
X160523584Y-84303717D02*
X160484867Y-84323075D01*
X160484867Y-84323075D02*
X160368716Y-84323075D01*
X160368716Y-84323075D02*
X160329999Y-84303717D01*
X160329999Y-84303717D02*
X160310641Y-84284358D01*
X160930113Y-83916547D02*
X160736528Y-83916547D01*
X160736528Y-83916547D02*
X160717169Y-84110132D01*
X160717169Y-84110132D02*
X160736528Y-84090773D01*
X160736528Y-84090773D02*
X160775245Y-84071415D01*
X160775245Y-84071415D02*
X160872037Y-84071415D01*
X160872037Y-84071415D02*
X160910754Y-84090773D01*
X160910754Y-84090773D02*
X160930113Y-84110132D01*
X160930113Y-84110132D02*
X160949471Y-84148849D01*
X160949471Y-84148849D02*
X160949471Y-84245641D01*
X160949471Y-84245641D02*
X160930113Y-84284358D01*
X160930113Y-84284358D02*
X160910754Y-84303717D01*
X160910754Y-84303717D02*
X160872037Y-84323075D01*
X160872037Y-84323075D02*
X160775245Y-84323075D01*
X160775245Y-84323075D02*
X160736528Y-84303717D01*
X160736528Y-84303717D02*
X160717169Y-84284358D01*
X144009425Y-91010317D02*
X143815840Y-91145827D01*
X144009425Y-91242619D02*
X143602897Y-91242619D01*
X143602897Y-91242619D02*
X143602897Y-91087751D01*
X143602897Y-91087751D02*
X143622255Y-91049034D01*
X143622255Y-91049034D02*
X143641614Y-91029676D01*
X143641614Y-91029676D02*
X143680331Y-91010317D01*
X143680331Y-91010317D02*
X143738406Y-91010317D01*
X143738406Y-91010317D02*
X143777123Y-91029676D01*
X143777123Y-91029676D02*
X143796482Y-91049034D01*
X143796482Y-91049034D02*
X143815840Y-91087751D01*
X143815840Y-91087751D02*
X143815840Y-91242619D01*
X143602897Y-90661865D02*
X143602897Y-90739299D01*
X143602897Y-90739299D02*
X143622255Y-90778016D01*
X143622255Y-90778016D02*
X143641614Y-90797374D01*
X143641614Y-90797374D02*
X143699689Y-90836091D01*
X143699689Y-90836091D02*
X143777123Y-90855450D01*
X143777123Y-90855450D02*
X143931991Y-90855450D01*
X143931991Y-90855450D02*
X143970708Y-90836091D01*
X143970708Y-90836091D02*
X143990067Y-90816733D01*
X143990067Y-90816733D02*
X144009425Y-90778016D01*
X144009425Y-90778016D02*
X144009425Y-90700582D01*
X144009425Y-90700582D02*
X143990067Y-90661865D01*
X143990067Y-90661865D02*
X143970708Y-90642506D01*
X143970708Y-90642506D02*
X143931991Y-90623148D01*
X143931991Y-90623148D02*
X143835199Y-90623148D01*
X143835199Y-90623148D02*
X143796482Y-90642506D01*
X143796482Y-90642506D02*
X143777123Y-90661865D01*
X143777123Y-90661865D02*
X143757765Y-90700582D01*
X143757765Y-90700582D02*
X143757765Y-90778016D01*
X143757765Y-90778016D02*
X143777123Y-90816733D01*
X143777123Y-90816733D02*
X143796482Y-90836091D01*
X143796482Y-90836091D02*
X143835199Y-90855450D01*
X143777123Y-90390846D02*
X143757765Y-90429563D01*
X143757765Y-90429563D02*
X143738406Y-90448921D01*
X143738406Y-90448921D02*
X143699689Y-90468280D01*
X143699689Y-90468280D02*
X143680331Y-90468280D01*
X143680331Y-90468280D02*
X143641614Y-90448921D01*
X143641614Y-90448921D02*
X143622255Y-90429563D01*
X143622255Y-90429563D02*
X143602897Y-90390846D01*
X143602897Y-90390846D02*
X143602897Y-90313412D01*
X143602897Y-90313412D02*
X143622255Y-90274695D01*
X143622255Y-90274695D02*
X143641614Y-90255336D01*
X143641614Y-90255336D02*
X143680331Y-90235978D01*
X143680331Y-90235978D02*
X143699689Y-90235978D01*
X143699689Y-90235978D02*
X143738406Y-90255336D01*
X143738406Y-90255336D02*
X143757765Y-90274695D01*
X143757765Y-90274695D02*
X143777123Y-90313412D01*
X143777123Y-90313412D02*
X143777123Y-90390846D01*
X143777123Y-90390846D02*
X143796482Y-90429563D01*
X143796482Y-90429563D02*
X143815840Y-90448921D01*
X143815840Y-90448921D02*
X143854557Y-90468280D01*
X143854557Y-90468280D02*
X143931991Y-90468280D01*
X143931991Y-90468280D02*
X143970708Y-90448921D01*
X143970708Y-90448921D02*
X143990067Y-90429563D01*
X143990067Y-90429563D02*
X144009425Y-90390846D01*
X144009425Y-90390846D02*
X144009425Y-90313412D01*
X144009425Y-90313412D02*
X143990067Y-90274695D01*
X143990067Y-90274695D02*
X143970708Y-90255336D01*
X143970708Y-90255336D02*
X143931991Y-90235978D01*
X143931991Y-90235978D02*
X143854557Y-90235978D01*
X143854557Y-90235978D02*
X143815840Y-90255336D01*
X143815840Y-90255336D02*
X143796482Y-90274695D01*
X143796482Y-90274695D02*
X143777123Y-90313412D01*
X133654195Y-114641195D02*
X133518686Y-114641195D01*
X133518686Y-114854138D02*
X133518686Y-114447610D01*
X133518686Y-114447610D02*
X133712271Y-114447610D01*
X134080082Y-114854138D02*
X133847780Y-114854138D01*
X133963931Y-114854138D02*
X133963931Y-114447610D01*
X133963931Y-114447610D02*
X133925214Y-114505685D01*
X133925214Y-114505685D02*
X133886497Y-114544402D01*
X133886497Y-114544402D02*
X133847780Y-114563761D01*
X134331743Y-114447610D02*
X134370460Y-114447610D01*
X134370460Y-114447610D02*
X134409177Y-114466968D01*
X134409177Y-114466968D02*
X134428535Y-114486327D01*
X134428535Y-114486327D02*
X134447894Y-114525044D01*
X134447894Y-114525044D02*
X134467252Y-114602478D01*
X134467252Y-114602478D02*
X134467252Y-114699270D01*
X134467252Y-114699270D02*
X134447894Y-114776704D01*
X134447894Y-114776704D02*
X134428535Y-114815421D01*
X134428535Y-114815421D02*
X134409177Y-114834780D01*
X134409177Y-114834780D02*
X134370460Y-114854138D01*
X134370460Y-114854138D02*
X134331743Y-114854138D01*
X134331743Y-114854138D02*
X134293026Y-114834780D01*
X134293026Y-114834780D02*
X134273667Y-114815421D01*
X134273667Y-114815421D02*
X134254309Y-114776704D01*
X134254309Y-114776704D02*
X134234950Y-114699270D01*
X134234950Y-114699270D02*
X134234950Y-114602478D01*
X134234950Y-114602478D02*
X134254309Y-114525044D01*
X134254309Y-114525044D02*
X134273667Y-114486327D01*
X134273667Y-114486327D02*
X134293026Y-114466968D01*
X134293026Y-114466968D02*
X134331743Y-114447610D01*
X143170397Y-102009597D02*
X143170397Y-101777295D01*
X143576925Y-101893446D02*
X143170397Y-101893446D01*
X143170397Y-101699861D02*
X143576925Y-101564351D01*
X143576925Y-101564351D02*
X143170397Y-101428842D01*
X143557567Y-101312691D02*
X143576925Y-101254615D01*
X143576925Y-101254615D02*
X143576925Y-101157823D01*
X143576925Y-101157823D02*
X143557567Y-101119106D01*
X143557567Y-101119106D02*
X143538208Y-101099747D01*
X143538208Y-101099747D02*
X143499491Y-101080389D01*
X143499491Y-101080389D02*
X143460774Y-101080389D01*
X143460774Y-101080389D02*
X143422057Y-101099747D01*
X143422057Y-101099747D02*
X143402699Y-101119106D01*
X143402699Y-101119106D02*
X143383340Y-101157823D01*
X143383340Y-101157823D02*
X143363982Y-101235257D01*
X143363982Y-101235257D02*
X143344623Y-101273974D01*
X143344623Y-101273974D02*
X143325265Y-101293332D01*
X143325265Y-101293332D02*
X143286548Y-101312691D01*
X143286548Y-101312691D02*
X143247831Y-101312691D01*
X143247831Y-101312691D02*
X143209114Y-101293332D01*
X143209114Y-101293332D02*
X143189755Y-101273974D01*
X143189755Y-101273974D02*
X143170397Y-101235257D01*
X143170397Y-101235257D02*
X143170397Y-101138464D01*
X143170397Y-101138464D02*
X143189755Y-101080389D01*
X143576925Y-100886804D02*
X143576925Y-100809370D01*
X143576925Y-100809370D02*
X143557567Y-100770653D01*
X143557567Y-100770653D02*
X143538208Y-100751294D01*
X143538208Y-100751294D02*
X143480133Y-100712577D01*
X143480133Y-100712577D02*
X143402699Y-100693219D01*
X143402699Y-100693219D02*
X143247831Y-100693219D01*
X143247831Y-100693219D02*
X143209114Y-100712577D01*
X143209114Y-100712577D02*
X143189755Y-100731936D01*
X143189755Y-100731936D02*
X143170397Y-100770653D01*
X143170397Y-100770653D02*
X143170397Y-100848087D01*
X143170397Y-100848087D02*
X143189755Y-100886804D01*
X143189755Y-100886804D02*
X143209114Y-100906162D01*
X143209114Y-100906162D02*
X143247831Y-100925521D01*
X143247831Y-100925521D02*
X143344623Y-100925521D01*
X143344623Y-100925521D02*
X143383340Y-100906162D01*
X143383340Y-100906162D02*
X143402699Y-100886804D01*
X143402699Y-100886804D02*
X143422057Y-100848087D01*
X143422057Y-100848087D02*
X143422057Y-100770653D01*
X143422057Y-100770653D02*
X143402699Y-100731936D01*
X143402699Y-100731936D02*
X143383340Y-100712577D01*
X143383340Y-100712577D02*
X143344623Y-100693219D01*
X155340132Y-84423075D02*
X155204622Y-84229490D01*
X155107830Y-84423075D02*
X155107830Y-84016547D01*
X155107830Y-84016547D02*
X155262698Y-84016547D01*
X155262698Y-84016547D02*
X155301415Y-84035905D01*
X155301415Y-84035905D02*
X155320773Y-84055264D01*
X155320773Y-84055264D02*
X155340132Y-84093981D01*
X155340132Y-84093981D02*
X155340132Y-84152056D01*
X155340132Y-84152056D02*
X155320773Y-84190773D01*
X155320773Y-84190773D02*
X155301415Y-84210132D01*
X155301415Y-84210132D02*
X155262698Y-84229490D01*
X155262698Y-84229490D02*
X155107830Y-84229490D01*
X155475641Y-84016547D02*
X155746660Y-84016547D01*
X155746660Y-84016547D02*
X155572433Y-84423075D01*
X155978962Y-84016547D02*
X156017679Y-84016547D01*
X156017679Y-84016547D02*
X156056396Y-84035905D01*
X156056396Y-84035905D02*
X156075754Y-84055264D01*
X156075754Y-84055264D02*
X156095113Y-84093981D01*
X156095113Y-84093981D02*
X156114471Y-84171415D01*
X156114471Y-84171415D02*
X156114471Y-84268207D01*
X156114471Y-84268207D02*
X156095113Y-84345641D01*
X156095113Y-84345641D02*
X156075754Y-84384358D01*
X156075754Y-84384358D02*
X156056396Y-84403717D01*
X156056396Y-84403717D02*
X156017679Y-84423075D01*
X156017679Y-84423075D02*
X155978962Y-84423075D01*
X155978962Y-84423075D02*
X155940245Y-84403717D01*
X155940245Y-84403717D02*
X155920886Y-84384358D01*
X155920886Y-84384358D02*
X155901528Y-84345641D01*
X155901528Y-84345641D02*
X155882169Y-84268207D01*
X155882169Y-84268207D02*
X155882169Y-84171415D01*
X155882169Y-84171415D02*
X155901528Y-84093981D01*
X155901528Y-84093981D02*
X155920886Y-84055264D01*
X155920886Y-84055264D02*
X155940245Y-84035905D01*
X155940245Y-84035905D02*
X155978962Y-84016547D01*
D13*
X153660551Y-123291486D02*
X153936051Y-123291486D01*
X153936051Y-123291486D02*
X153991151Y-123309853D01*
X153991151Y-123309853D02*
X154027885Y-123346586D01*
X154027885Y-123346586D02*
X154046251Y-123401686D01*
X154046251Y-123401686D02*
X154046251Y-123438420D01*
X154046251Y-123107819D02*
X153660551Y-123107819D01*
X153660551Y-123107819D02*
X153660551Y-122960886D01*
X153660551Y-122960886D02*
X153678918Y-122924153D01*
X153678918Y-122924153D02*
X153697285Y-122905786D01*
X153697285Y-122905786D02*
X153734018Y-122887419D01*
X153734018Y-122887419D02*
X153789118Y-122887419D01*
X153789118Y-122887419D02*
X153825851Y-122905786D01*
X153825851Y-122905786D02*
X153844218Y-122924153D01*
X153844218Y-122924153D02*
X153862585Y-122960886D01*
X153862585Y-122960886D02*
X153862585Y-123107819D01*
X153697285Y-122740486D02*
X153678918Y-122722119D01*
X153678918Y-122722119D02*
X153660551Y-122685386D01*
X153660551Y-122685386D02*
X153660551Y-122593553D01*
X153660551Y-122593553D02*
X153678918Y-122556819D01*
X153678918Y-122556819D02*
X153697285Y-122538453D01*
X153697285Y-122538453D02*
X153734018Y-122520086D01*
X153734018Y-122520086D02*
X153770751Y-122520086D01*
X153770751Y-122520086D02*
X153825851Y-122538453D01*
X153825851Y-122538453D02*
X154046251Y-122758853D01*
X154046251Y-122758853D02*
X154046251Y-122520086D01*
X153789118Y-122189486D02*
X154046251Y-122189486D01*
X153642185Y-122281320D02*
X153917685Y-122373153D01*
X153917685Y-122373153D02*
X153917685Y-122134386D01*
D12*
X134672915Y-113718672D02*
X134546238Y-113718672D01*
X134546238Y-113917736D02*
X134546238Y-113537705D01*
X134546238Y-113537705D02*
X134727205Y-113537705D01*
X134998656Y-113718672D02*
X135052946Y-113736769D01*
X135052946Y-113736769D02*
X135071043Y-113754866D01*
X135071043Y-113754866D02*
X135089140Y-113791059D01*
X135089140Y-113791059D02*
X135089140Y-113845349D01*
X135089140Y-113845349D02*
X135071043Y-113881543D01*
X135071043Y-113881543D02*
X135052946Y-113899640D01*
X135052946Y-113899640D02*
X135016753Y-113917736D01*
X135016753Y-113917736D02*
X134871979Y-113917736D01*
X134871979Y-113917736D02*
X134871979Y-113537705D01*
X134871979Y-113537705D02*
X134998656Y-113537705D01*
X134998656Y-113537705D02*
X135034850Y-113555802D01*
X135034850Y-113555802D02*
X135052946Y-113573899D01*
X135052946Y-113573899D02*
X135071043Y-113610092D01*
X135071043Y-113610092D02*
X135071043Y-113646286D01*
X135071043Y-113646286D02*
X135052946Y-113682479D01*
X135052946Y-113682479D02*
X135034850Y-113700576D01*
X135034850Y-113700576D02*
X134998656Y-113718672D01*
X134998656Y-113718672D02*
X134871979Y-113718672D01*
X135451074Y-113917736D02*
X135233913Y-113917736D01*
X135342494Y-113917736D02*
X135342494Y-113537705D01*
X135342494Y-113537705D02*
X135306300Y-113591995D01*
X135306300Y-113591995D02*
X135270107Y-113628189D01*
X135270107Y-113628189D02*
X135233913Y-113646286D01*
X135577751Y-113537705D02*
X135831105Y-113537705D01*
X135831105Y-113537705D02*
X135668234Y-113917736D01*
D10*
X166493788Y-89876461D02*
X166300203Y-90011971D01*
X166493788Y-90108763D02*
X166087260Y-90108763D01*
X166087260Y-90108763D02*
X166087260Y-89953895D01*
X166087260Y-89953895D02*
X166106618Y-89915178D01*
X166106618Y-89915178D02*
X166125977Y-89895820D01*
X166125977Y-89895820D02*
X166164694Y-89876461D01*
X166164694Y-89876461D02*
X166222769Y-89876461D01*
X166222769Y-89876461D02*
X166261486Y-89895820D01*
X166261486Y-89895820D02*
X166280845Y-89915178D01*
X166280845Y-89915178D02*
X166300203Y-89953895D01*
X166300203Y-89953895D02*
X166300203Y-90108763D01*
X166087260Y-89740952D02*
X166087260Y-89469933D01*
X166087260Y-89469933D02*
X166493788Y-89644160D01*
X166493788Y-89102122D02*
X166493788Y-89334424D01*
X166493788Y-89218273D02*
X166087260Y-89218273D01*
X166087260Y-89218273D02*
X166145335Y-89256990D01*
X166145335Y-89256990D02*
X166184052Y-89295707D01*
X166184052Y-89295707D02*
X166203411Y-89334424D01*
D12*
X134772915Y-120891972D02*
X134646238Y-120891972D01*
X134646238Y-121091036D02*
X134646238Y-120711005D01*
X134646238Y-120711005D02*
X134827205Y-120711005D01*
X135098656Y-120891972D02*
X135152946Y-120910069D01*
X135152946Y-120910069D02*
X135171043Y-120928166D01*
X135171043Y-120928166D02*
X135189140Y-120964359D01*
X135189140Y-120964359D02*
X135189140Y-121018649D01*
X135189140Y-121018649D02*
X135171043Y-121054843D01*
X135171043Y-121054843D02*
X135152946Y-121072940D01*
X135152946Y-121072940D02*
X135116753Y-121091036D01*
X135116753Y-121091036D02*
X134971979Y-121091036D01*
X134971979Y-121091036D02*
X134971979Y-120711005D01*
X134971979Y-120711005D02*
X135098656Y-120711005D01*
X135098656Y-120711005D02*
X135134850Y-120729102D01*
X135134850Y-120729102D02*
X135152946Y-120747199D01*
X135152946Y-120747199D02*
X135171043Y-120783392D01*
X135171043Y-120783392D02*
X135171043Y-120819586D01*
X135171043Y-120819586D02*
X135152946Y-120855779D01*
X135152946Y-120855779D02*
X135134850Y-120873876D01*
X135134850Y-120873876D02*
X135098656Y-120891972D01*
X135098656Y-120891972D02*
X134971979Y-120891972D01*
X135551074Y-121091036D02*
X135333913Y-121091036D01*
X135442494Y-121091036D02*
X135442494Y-120711005D01*
X135442494Y-120711005D02*
X135406300Y-120765295D01*
X135406300Y-120765295D02*
X135370107Y-120801489D01*
X135370107Y-120801489D02*
X135333913Y-120819586D01*
X135732041Y-121091036D02*
X135804428Y-121091036D01*
X135804428Y-121091036D02*
X135840621Y-121072940D01*
X135840621Y-121072940D02*
X135858718Y-121054843D01*
X135858718Y-121054843D02*
X135894911Y-121000553D01*
X135894911Y-121000553D02*
X135913008Y-120928166D01*
X135913008Y-120928166D02*
X135913008Y-120783392D01*
X135913008Y-120783392D02*
X135894911Y-120747199D01*
X135894911Y-120747199D02*
X135876815Y-120729102D01*
X135876815Y-120729102D02*
X135840621Y-120711005D01*
X135840621Y-120711005D02*
X135768234Y-120711005D01*
X135768234Y-120711005D02*
X135732041Y-120729102D01*
X135732041Y-120729102D02*
X135713944Y-120747199D01*
X135713944Y-120747199D02*
X135695847Y-120783392D01*
X135695847Y-120783392D02*
X135695847Y-120873876D01*
X135695847Y-120873876D02*
X135713944Y-120910069D01*
X135713944Y-120910069D02*
X135732041Y-120928166D01*
X135732041Y-120928166D02*
X135768234Y-120946263D01*
X135768234Y-120946263D02*
X135840621Y-120946263D01*
X135840621Y-120946263D02*
X135876815Y-120928166D01*
X135876815Y-120928166D02*
X135894911Y-120910069D01*
X135894911Y-120910069D02*
X135913008Y-120873876D01*
D10*
X144873988Y-116007438D02*
X144738478Y-115813853D01*
X144641686Y-116007438D02*
X144641686Y-115600910D01*
X144641686Y-115600910D02*
X144796554Y-115600910D01*
X144796554Y-115600910D02*
X144835271Y-115620268D01*
X144835271Y-115620268D02*
X144854629Y-115639627D01*
X144854629Y-115639627D02*
X144873988Y-115678344D01*
X144873988Y-115678344D02*
X144873988Y-115736419D01*
X144873988Y-115736419D02*
X144854629Y-115775136D01*
X144854629Y-115775136D02*
X144835271Y-115794495D01*
X144835271Y-115794495D02*
X144796554Y-115813853D01*
X144796554Y-115813853D02*
X144641686Y-115813853D01*
X145241799Y-115600910D02*
X145048214Y-115600910D01*
X145048214Y-115600910D02*
X145028855Y-115794495D01*
X145028855Y-115794495D02*
X145048214Y-115775136D01*
X145048214Y-115775136D02*
X145086931Y-115755778D01*
X145086931Y-115755778D02*
X145183723Y-115755778D01*
X145183723Y-115755778D02*
X145222440Y-115775136D01*
X145222440Y-115775136D02*
X145241799Y-115794495D01*
X145241799Y-115794495D02*
X145261157Y-115833212D01*
X145261157Y-115833212D02*
X145261157Y-115930004D01*
X145261157Y-115930004D02*
X145241799Y-115968721D01*
X145241799Y-115968721D02*
X145222440Y-115988080D01*
X145222440Y-115988080D02*
X145183723Y-116007438D01*
X145183723Y-116007438D02*
X145086931Y-116007438D01*
X145086931Y-116007438D02*
X145048214Y-115988080D01*
X145048214Y-115988080D02*
X145028855Y-115968721D01*
X145454742Y-116007438D02*
X145532176Y-116007438D01*
X145532176Y-116007438D02*
X145570893Y-115988080D01*
X145570893Y-115988080D02*
X145590252Y-115968721D01*
X145590252Y-115968721D02*
X145628969Y-115910646D01*
X145628969Y-115910646D02*
X145648327Y-115833212D01*
X145648327Y-115833212D02*
X145648327Y-115678344D01*
X145648327Y-115678344D02*
X145628969Y-115639627D01*
X145628969Y-115639627D02*
X145609610Y-115620268D01*
X145609610Y-115620268D02*
X145570893Y-115600910D01*
X145570893Y-115600910D02*
X145493459Y-115600910D01*
X145493459Y-115600910D02*
X145454742Y-115620268D01*
X145454742Y-115620268D02*
X145435384Y-115639627D01*
X145435384Y-115639627D02*
X145416025Y-115678344D01*
X145416025Y-115678344D02*
X145416025Y-115775136D01*
X145416025Y-115775136D02*
X145435384Y-115813853D01*
X145435384Y-115813853D02*
X145454742Y-115833212D01*
X145454742Y-115833212D02*
X145493459Y-115852570D01*
X145493459Y-115852570D02*
X145570893Y-115852570D01*
X145570893Y-115852570D02*
X145609610Y-115833212D01*
X145609610Y-115833212D02*
X145628969Y-115813853D01*
X145628969Y-115813853D02*
X145648327Y-115775136D01*
D12*
X166949388Y-86600569D02*
X166949388Y-86908213D01*
X166949388Y-86908213D02*
X166967485Y-86944407D01*
X166967485Y-86944407D02*
X166985582Y-86962504D01*
X166985582Y-86962504D02*
X167021775Y-86980600D01*
X167021775Y-86980600D02*
X167094162Y-86980600D01*
X167094162Y-86980600D02*
X167130355Y-86962504D01*
X167130355Y-86962504D02*
X167148452Y-86944407D01*
X167148452Y-86944407D02*
X167166549Y-86908213D01*
X167166549Y-86908213D02*
X167166549Y-86600569D01*
X167311323Y-86600569D02*
X167546580Y-86600569D01*
X167546580Y-86600569D02*
X167419903Y-86745343D01*
X167419903Y-86745343D02*
X167474193Y-86745343D01*
X167474193Y-86745343D02*
X167510387Y-86763440D01*
X167510387Y-86763440D02*
X167528483Y-86781536D01*
X167528483Y-86781536D02*
X167546580Y-86817730D01*
X167546580Y-86817730D02*
X167546580Y-86908213D01*
X167546580Y-86908213D02*
X167528483Y-86944407D01*
X167528483Y-86944407D02*
X167510387Y-86962504D01*
X167510387Y-86962504D02*
X167474193Y-86980600D01*
X167474193Y-86980600D02*
X167365613Y-86980600D01*
X167365613Y-86980600D02*
X167329419Y-86962504D01*
X167329419Y-86962504D02*
X167311323Y-86944407D01*
D10*
X159067200Y-120693989D02*
X159295457Y-120632862D01*
X159146651Y-120475697D02*
X159528663Y-120614738D01*
X159528663Y-120614738D02*
X159475695Y-120760266D01*
X159475695Y-120760266D02*
X159444262Y-120790027D01*
X159444262Y-120790027D02*
X159419450Y-120801597D01*
X159419450Y-120801597D02*
X159376447Y-120806546D01*
X159376447Y-120806546D02*
X159321874Y-120786683D01*
X159321874Y-120786683D02*
X159292113Y-120755250D01*
X159292113Y-120755250D02*
X159280543Y-120730438D01*
X159280543Y-120730438D02*
X159275594Y-120687435D01*
X159275594Y-120687435D02*
X159328562Y-120541907D01*
X159323412Y-121178660D02*
X159389622Y-120996749D01*
X159389622Y-120996749D02*
X159214333Y-120912349D01*
X159214333Y-120912349D02*
X159225903Y-120937161D01*
X159225903Y-120937161D02*
X159230852Y-120980164D01*
X159230852Y-120980164D02*
X159197747Y-121071119D01*
X159197747Y-121071119D02*
X159166314Y-121100880D01*
X159166314Y-121100880D02*
X159141502Y-121112450D01*
X159141502Y-121112450D02*
X159098499Y-121117399D01*
X159098499Y-121117399D02*
X159007544Y-121084294D01*
X159007544Y-121084294D02*
X158977783Y-121052861D01*
X158977783Y-121052861D02*
X158966213Y-121028049D01*
X158966213Y-121028049D02*
X158961264Y-120985046D01*
X158961264Y-120985046D02*
X158994369Y-120894091D01*
X158994369Y-120894091D02*
X159025802Y-120864330D01*
X159025802Y-120864330D02*
X159050614Y-120852760D01*
X159270444Y-121324188D02*
X159177750Y-121578862D01*
X159177750Y-121578862D02*
X158855328Y-121276102D01*
D12*
X139512479Y-114641236D02*
X139512479Y-114261205D01*
X139512479Y-114261205D02*
X139602963Y-114261205D01*
X139602963Y-114261205D02*
X139657253Y-114279302D01*
X139657253Y-114279302D02*
X139693446Y-114315495D01*
X139693446Y-114315495D02*
X139711543Y-114351689D01*
X139711543Y-114351689D02*
X139729640Y-114424076D01*
X139729640Y-114424076D02*
X139729640Y-114478366D01*
X139729640Y-114478366D02*
X139711543Y-114550753D01*
X139711543Y-114550753D02*
X139693446Y-114586946D01*
X139693446Y-114586946D02*
X139657253Y-114623140D01*
X139657253Y-114623140D02*
X139602963Y-114641236D01*
X139602963Y-114641236D02*
X139512479Y-114641236D01*
X140091574Y-114641236D02*
X139874413Y-114641236D01*
X139982994Y-114641236D02*
X139982994Y-114261205D01*
X139982994Y-114261205D02*
X139946800Y-114315495D01*
X139946800Y-114315495D02*
X139910607Y-114351689D01*
X139910607Y-114351689D02*
X139874413Y-114369786D01*
X140218251Y-114261205D02*
X140453508Y-114261205D01*
X140453508Y-114261205D02*
X140326831Y-114405979D01*
X140326831Y-114405979D02*
X140381121Y-114405979D01*
X140381121Y-114405979D02*
X140417315Y-114424076D01*
X140417315Y-114424076D02*
X140435411Y-114442172D01*
X140435411Y-114442172D02*
X140453508Y-114478366D01*
X140453508Y-114478366D02*
X140453508Y-114568849D01*
X140453508Y-114568849D02*
X140435411Y-114605043D01*
X140435411Y-114605043D02*
X140417315Y-114623140D01*
X140417315Y-114623140D02*
X140381121Y-114641236D01*
X140381121Y-114641236D02*
X140272541Y-114641236D01*
X140272541Y-114641236D02*
X140236347Y-114623140D01*
X140236347Y-114623140D02*
X140218251Y-114605043D01*
D10*
X139809425Y-91010317D02*
X139615840Y-91145827D01*
X139809425Y-91242619D02*
X139402897Y-91242619D01*
X139402897Y-91242619D02*
X139402897Y-91087751D01*
X139402897Y-91087751D02*
X139422255Y-91049034D01*
X139422255Y-91049034D02*
X139441614Y-91029676D01*
X139441614Y-91029676D02*
X139480331Y-91010317D01*
X139480331Y-91010317D02*
X139538406Y-91010317D01*
X139538406Y-91010317D02*
X139577123Y-91029676D01*
X139577123Y-91029676D02*
X139596482Y-91049034D01*
X139596482Y-91049034D02*
X139615840Y-91087751D01*
X139615840Y-91087751D02*
X139615840Y-91242619D01*
X139402897Y-90642506D02*
X139402897Y-90836091D01*
X139402897Y-90836091D02*
X139596482Y-90855450D01*
X139596482Y-90855450D02*
X139577123Y-90836091D01*
X139577123Y-90836091D02*
X139557765Y-90797374D01*
X139557765Y-90797374D02*
X139557765Y-90700582D01*
X139557765Y-90700582D02*
X139577123Y-90661865D01*
X139577123Y-90661865D02*
X139596482Y-90642506D01*
X139596482Y-90642506D02*
X139635199Y-90623148D01*
X139635199Y-90623148D02*
X139731991Y-90623148D01*
X139731991Y-90623148D02*
X139770708Y-90642506D01*
X139770708Y-90642506D02*
X139790067Y-90661865D01*
X139790067Y-90661865D02*
X139809425Y-90700582D01*
X139809425Y-90700582D02*
X139809425Y-90797374D01*
X139809425Y-90797374D02*
X139790067Y-90836091D01*
X139790067Y-90836091D02*
X139770708Y-90855450D01*
X139402897Y-90255336D02*
X139402897Y-90448921D01*
X139402897Y-90448921D02*
X139596482Y-90468280D01*
X139596482Y-90468280D02*
X139577123Y-90448921D01*
X139577123Y-90448921D02*
X139557765Y-90410204D01*
X139557765Y-90410204D02*
X139557765Y-90313412D01*
X139557765Y-90313412D02*
X139577123Y-90274695D01*
X139577123Y-90274695D02*
X139596482Y-90255336D01*
X139596482Y-90255336D02*
X139635199Y-90235978D01*
X139635199Y-90235978D02*
X139731991Y-90235978D01*
X139731991Y-90235978D02*
X139770708Y-90255336D01*
X139770708Y-90255336D02*
X139790067Y-90274695D01*
X139790067Y-90274695D02*
X139809425Y-90313412D01*
X139809425Y-90313412D02*
X139809425Y-90410204D01*
X139809425Y-90410204D02*
X139790067Y-90448921D01*
X139790067Y-90448921D02*
X139770708Y-90468280D01*
D14*
X148672763Y-87600170D02*
X148672763Y-88425670D01*
X148672763Y-88425670D02*
X148617730Y-88590770D01*
X148617730Y-88590770D02*
X148507663Y-88700837D01*
X148507663Y-88700837D02*
X148342563Y-88755870D01*
X148342563Y-88755870D02*
X148232497Y-88755870D01*
X149223096Y-88755870D02*
X149223096Y-87600170D01*
X149223096Y-87600170D02*
X149663363Y-87600170D01*
X149663363Y-87600170D02*
X149773430Y-87655203D01*
X149773430Y-87655203D02*
X149828463Y-87710237D01*
X149828463Y-87710237D02*
X149883496Y-87820303D01*
X149883496Y-87820303D02*
X149883496Y-87985403D01*
X149883496Y-87985403D02*
X149828463Y-88095470D01*
X149828463Y-88095470D02*
X149773430Y-88150503D01*
X149773430Y-88150503D02*
X149663363Y-88205537D01*
X149663363Y-88205537D02*
X149223096Y-88205537D01*
X150323763Y-87710237D02*
X150378796Y-87655203D01*
X150378796Y-87655203D02*
X150488863Y-87600170D01*
X150488863Y-87600170D02*
X150764030Y-87600170D01*
X150764030Y-87600170D02*
X150874096Y-87655203D01*
X150874096Y-87655203D02*
X150929130Y-87710237D01*
X150929130Y-87710237D02*
X150984163Y-87820303D01*
X150984163Y-87820303D02*
X150984163Y-87930370D01*
X150984163Y-87930370D02*
X150929130Y-88095470D01*
X150929130Y-88095470D02*
X150268730Y-88755870D01*
X150268730Y-88755870D02*
X150984163Y-88755870D01*
D10*
X143774788Y-109707438D02*
X143639278Y-109513853D01*
X143542486Y-109707438D02*
X143542486Y-109300910D01*
X143542486Y-109300910D02*
X143697354Y-109300910D01*
X143697354Y-109300910D02*
X143736071Y-109320268D01*
X143736071Y-109320268D02*
X143755429Y-109339627D01*
X143755429Y-109339627D02*
X143774788Y-109378344D01*
X143774788Y-109378344D02*
X143774788Y-109436419D01*
X143774788Y-109436419D02*
X143755429Y-109475136D01*
X143755429Y-109475136D02*
X143736071Y-109494495D01*
X143736071Y-109494495D02*
X143697354Y-109513853D01*
X143697354Y-109513853D02*
X143542486Y-109513853D01*
X143910297Y-109300910D02*
X144181316Y-109300910D01*
X144181316Y-109300910D02*
X144007089Y-109707438D01*
X144510410Y-109300910D02*
X144432976Y-109300910D01*
X144432976Y-109300910D02*
X144394259Y-109320268D01*
X144394259Y-109320268D02*
X144374901Y-109339627D01*
X144374901Y-109339627D02*
X144336184Y-109397702D01*
X144336184Y-109397702D02*
X144316825Y-109475136D01*
X144316825Y-109475136D02*
X144316825Y-109630004D01*
X144316825Y-109630004D02*
X144336184Y-109668721D01*
X144336184Y-109668721D02*
X144355542Y-109688080D01*
X144355542Y-109688080D02*
X144394259Y-109707438D01*
X144394259Y-109707438D02*
X144471693Y-109707438D01*
X144471693Y-109707438D02*
X144510410Y-109688080D01*
X144510410Y-109688080D02*
X144529769Y-109668721D01*
X144529769Y-109668721D02*
X144549127Y-109630004D01*
X144549127Y-109630004D02*
X144549127Y-109533212D01*
X144549127Y-109533212D02*
X144529769Y-109494495D01*
X144529769Y-109494495D02*
X144510410Y-109475136D01*
X144510410Y-109475136D02*
X144471693Y-109455778D01*
X144471693Y-109455778D02*
X144394259Y-109455778D01*
X144394259Y-109455778D02*
X144355542Y-109475136D01*
X144355542Y-109475136D02*
X144336184Y-109494495D01*
X144336184Y-109494495D02*
X144316825Y-109533212D01*
X150938988Y-94468721D02*
X150919629Y-94488080D01*
X150919629Y-94488080D02*
X150861554Y-94507438D01*
X150861554Y-94507438D02*
X150822837Y-94507438D01*
X150822837Y-94507438D02*
X150764761Y-94488080D01*
X150764761Y-94488080D02*
X150726044Y-94449363D01*
X150726044Y-94449363D02*
X150706686Y-94410646D01*
X150706686Y-94410646D02*
X150687327Y-94333212D01*
X150687327Y-94333212D02*
X150687327Y-94275136D01*
X150687327Y-94275136D02*
X150706686Y-94197702D01*
X150706686Y-94197702D02*
X150726044Y-94158985D01*
X150726044Y-94158985D02*
X150764761Y-94120268D01*
X150764761Y-94120268D02*
X150822837Y-94100910D01*
X150822837Y-94100910D02*
X150861554Y-94100910D01*
X150861554Y-94100910D02*
X150919629Y-94120268D01*
X150919629Y-94120268D02*
X150938988Y-94139627D01*
X151074497Y-94100910D02*
X151326157Y-94100910D01*
X151326157Y-94100910D02*
X151190648Y-94255778D01*
X151190648Y-94255778D02*
X151248723Y-94255778D01*
X151248723Y-94255778D02*
X151287440Y-94275136D01*
X151287440Y-94275136D02*
X151306799Y-94294495D01*
X151306799Y-94294495D02*
X151326157Y-94333212D01*
X151326157Y-94333212D02*
X151326157Y-94430004D01*
X151326157Y-94430004D02*
X151306799Y-94468721D01*
X151306799Y-94468721D02*
X151287440Y-94488080D01*
X151287440Y-94488080D02*
X151248723Y-94507438D01*
X151248723Y-94507438D02*
X151132572Y-94507438D01*
X151132572Y-94507438D02*
X151093855Y-94488080D01*
X151093855Y-94488080D02*
X151074497Y-94468721D01*
X151674610Y-94236419D02*
X151674610Y-94507438D01*
X151577818Y-94081552D02*
X151481025Y-94371929D01*
X151481025Y-94371929D02*
X151732686Y-94371929D01*
X144873988Y-118207438D02*
X144738478Y-118013853D01*
X144641686Y-118207438D02*
X144641686Y-117800910D01*
X144641686Y-117800910D02*
X144796554Y-117800910D01*
X144796554Y-117800910D02*
X144835271Y-117820268D01*
X144835271Y-117820268D02*
X144854629Y-117839627D01*
X144854629Y-117839627D02*
X144873988Y-117878344D01*
X144873988Y-117878344D02*
X144873988Y-117936419D01*
X144873988Y-117936419D02*
X144854629Y-117975136D01*
X144854629Y-117975136D02*
X144835271Y-117994495D01*
X144835271Y-117994495D02*
X144796554Y-118013853D01*
X144796554Y-118013853D02*
X144641686Y-118013853D01*
X145222440Y-117800910D02*
X145145006Y-117800910D01*
X145145006Y-117800910D02*
X145106289Y-117820268D01*
X145106289Y-117820268D02*
X145086931Y-117839627D01*
X145086931Y-117839627D02*
X145048214Y-117897702D01*
X145048214Y-117897702D02*
X145028855Y-117975136D01*
X145028855Y-117975136D02*
X145028855Y-118130004D01*
X145028855Y-118130004D02*
X145048214Y-118168721D01*
X145048214Y-118168721D02*
X145067572Y-118188080D01*
X145067572Y-118188080D02*
X145106289Y-118207438D01*
X145106289Y-118207438D02*
X145183723Y-118207438D01*
X145183723Y-118207438D02*
X145222440Y-118188080D01*
X145222440Y-118188080D02*
X145241799Y-118168721D01*
X145241799Y-118168721D02*
X145261157Y-118130004D01*
X145261157Y-118130004D02*
X145261157Y-118033212D01*
X145261157Y-118033212D02*
X145241799Y-117994495D01*
X145241799Y-117994495D02*
X145222440Y-117975136D01*
X145222440Y-117975136D02*
X145183723Y-117955778D01*
X145183723Y-117955778D02*
X145106289Y-117955778D01*
X145106289Y-117955778D02*
X145067572Y-117975136D01*
X145067572Y-117975136D02*
X145048214Y-117994495D01*
X145048214Y-117994495D02*
X145028855Y-118033212D01*
X145512818Y-117800910D02*
X145551535Y-117800910D01*
X145551535Y-117800910D02*
X145590252Y-117820268D01*
X145590252Y-117820268D02*
X145609610Y-117839627D01*
X145609610Y-117839627D02*
X145628969Y-117878344D01*
X145628969Y-117878344D02*
X145648327Y-117955778D01*
X145648327Y-117955778D02*
X145648327Y-118052570D01*
X145648327Y-118052570D02*
X145628969Y-118130004D01*
X145628969Y-118130004D02*
X145609610Y-118168721D01*
X145609610Y-118168721D02*
X145590252Y-118188080D01*
X145590252Y-118188080D02*
X145551535Y-118207438D01*
X145551535Y-118207438D02*
X145512818Y-118207438D01*
X145512818Y-118207438D02*
X145474101Y-118188080D01*
X145474101Y-118188080D02*
X145454742Y-118168721D01*
X145454742Y-118168721D02*
X145435384Y-118130004D01*
X145435384Y-118130004D02*
X145416025Y-118052570D01*
X145416025Y-118052570D02*
X145416025Y-117955778D01*
X145416025Y-117955778D02*
X145435384Y-117878344D01*
X145435384Y-117878344D02*
X145454742Y-117839627D01*
X145454742Y-117839627D02*
X145474101Y-117820268D01*
X145474101Y-117820268D02*
X145512818Y-117800910D01*
D12*
X140412479Y-125041236D02*
X140412479Y-124661205D01*
X140412479Y-124661205D02*
X140502963Y-124661205D01*
X140502963Y-124661205D02*
X140557253Y-124679302D01*
X140557253Y-124679302D02*
X140593446Y-124715495D01*
X140593446Y-124715495D02*
X140611543Y-124751689D01*
X140611543Y-124751689D02*
X140629640Y-124824076D01*
X140629640Y-124824076D02*
X140629640Y-124878366D01*
X140629640Y-124878366D02*
X140611543Y-124950753D01*
X140611543Y-124950753D02*
X140593446Y-124986946D01*
X140593446Y-124986946D02*
X140557253Y-125023140D01*
X140557253Y-125023140D02*
X140502963Y-125041236D01*
X140502963Y-125041236D02*
X140412479Y-125041236D01*
X140991574Y-125041236D02*
X140774413Y-125041236D01*
X140882994Y-125041236D02*
X140882994Y-124661205D01*
X140882994Y-124661205D02*
X140846800Y-124715495D01*
X140846800Y-124715495D02*
X140810607Y-124751689D01*
X140810607Y-124751689D02*
X140774413Y-124769786D01*
X141335411Y-124661205D02*
X141154444Y-124661205D01*
X141154444Y-124661205D02*
X141136347Y-124842172D01*
X141136347Y-124842172D02*
X141154444Y-124824076D01*
X141154444Y-124824076D02*
X141190638Y-124805979D01*
X141190638Y-124805979D02*
X141281121Y-124805979D01*
X141281121Y-124805979D02*
X141317315Y-124824076D01*
X141317315Y-124824076D02*
X141335411Y-124842172D01*
X141335411Y-124842172D02*
X141353508Y-124878366D01*
X141353508Y-124878366D02*
X141353508Y-124968849D01*
X141353508Y-124968849D02*
X141335411Y-125005043D01*
X141335411Y-125005043D02*
X141317315Y-125023140D01*
X141317315Y-125023140D02*
X141281121Y-125041236D01*
X141281121Y-125041236D02*
X141190638Y-125041236D01*
X141190638Y-125041236D02*
X141154444Y-125023140D01*
X141154444Y-125023140D02*
X141136347Y-125005043D01*
D13*
X156558963Y-114974201D02*
X156558963Y-115249701D01*
X156558963Y-115249701D02*
X156540596Y-115304801D01*
X156540596Y-115304801D02*
X156503863Y-115341535D01*
X156503863Y-115341535D02*
X156448763Y-115359901D01*
X156448763Y-115359901D02*
X156412030Y-115359901D01*
X156742630Y-115359901D02*
X156742630Y-114974201D01*
X156742630Y-114974201D02*
X156889563Y-114974201D01*
X156889563Y-114974201D02*
X156926297Y-114992568D01*
X156926297Y-114992568D02*
X156944663Y-115010935D01*
X156944663Y-115010935D02*
X156963030Y-115047668D01*
X156963030Y-115047668D02*
X156963030Y-115102768D01*
X156963030Y-115102768D02*
X156944663Y-115139501D01*
X156944663Y-115139501D02*
X156926297Y-115157868D01*
X156926297Y-115157868D02*
X156889563Y-115176235D01*
X156889563Y-115176235D02*
X156742630Y-115176235D01*
X157109963Y-115010935D02*
X157128330Y-114992568D01*
X157128330Y-114992568D02*
X157165063Y-114974201D01*
X157165063Y-114974201D02*
X157256897Y-114974201D01*
X157256897Y-114974201D02*
X157293630Y-114992568D01*
X157293630Y-114992568D02*
X157311997Y-115010935D01*
X157311997Y-115010935D02*
X157330363Y-115047668D01*
X157330363Y-115047668D02*
X157330363Y-115084401D01*
X157330363Y-115084401D02*
X157311997Y-115139501D01*
X157311997Y-115139501D02*
X157091597Y-115359901D01*
X157091597Y-115359901D02*
X157330363Y-115359901D01*
X157697696Y-115359901D02*
X157477296Y-115359901D01*
X157587496Y-115359901D02*
X157587496Y-114974201D01*
X157587496Y-114974201D02*
X157550763Y-115029301D01*
X157550763Y-115029301D02*
X157514030Y-115066035D01*
X157514030Y-115066035D02*
X157477296Y-115084401D01*
D10*
X143819760Y-87109597D02*
X143819760Y-86877295D01*
X144226288Y-86993446D02*
X143819760Y-86993446D01*
X143819760Y-86799861D02*
X144226288Y-86664351D01*
X144226288Y-86664351D02*
X143819760Y-86528842D01*
X144206930Y-86412691D02*
X144226288Y-86354615D01*
X144226288Y-86354615D02*
X144226288Y-86257823D01*
X144226288Y-86257823D02*
X144206930Y-86219106D01*
X144206930Y-86219106D02*
X144187571Y-86199747D01*
X144187571Y-86199747D02*
X144148854Y-86180389D01*
X144148854Y-86180389D02*
X144110137Y-86180389D01*
X144110137Y-86180389D02*
X144071420Y-86199747D01*
X144071420Y-86199747D02*
X144052062Y-86219106D01*
X144052062Y-86219106D02*
X144032703Y-86257823D01*
X144032703Y-86257823D02*
X144013345Y-86335257D01*
X144013345Y-86335257D02*
X143993986Y-86373974D01*
X143993986Y-86373974D02*
X143974628Y-86393332D01*
X143974628Y-86393332D02*
X143935911Y-86412691D01*
X143935911Y-86412691D02*
X143897194Y-86412691D01*
X143897194Y-86412691D02*
X143858477Y-86393332D01*
X143858477Y-86393332D02*
X143839118Y-86373974D01*
X143839118Y-86373974D02*
X143819760Y-86335257D01*
X143819760Y-86335257D02*
X143819760Y-86238464D01*
X143819760Y-86238464D02*
X143839118Y-86180389D01*
X143819760Y-85812577D02*
X143819760Y-86006162D01*
X143819760Y-86006162D02*
X144013345Y-86025521D01*
X144013345Y-86025521D02*
X143993986Y-86006162D01*
X143993986Y-86006162D02*
X143974628Y-85967445D01*
X143974628Y-85967445D02*
X143974628Y-85870653D01*
X143974628Y-85870653D02*
X143993986Y-85831936D01*
X143993986Y-85831936D02*
X144013345Y-85812577D01*
X144013345Y-85812577D02*
X144052062Y-85793219D01*
X144052062Y-85793219D02*
X144148854Y-85793219D01*
X144148854Y-85793219D02*
X144187571Y-85812577D01*
X144187571Y-85812577D02*
X144206930Y-85831936D01*
X144206930Y-85831936D02*
X144226288Y-85870653D01*
X144226288Y-85870653D02*
X144226288Y-85967445D01*
X144226288Y-85967445D02*
X144206930Y-86006162D01*
X144206930Y-86006162D02*
X144187571Y-86025521D01*
X138855071Y-91611461D02*
X138874430Y-91630820D01*
X138874430Y-91630820D02*
X138893788Y-91688895D01*
X138893788Y-91688895D02*
X138893788Y-91727612D01*
X138893788Y-91727612D02*
X138874430Y-91785688D01*
X138874430Y-91785688D02*
X138835713Y-91824405D01*
X138835713Y-91824405D02*
X138796996Y-91843763D01*
X138796996Y-91843763D02*
X138719562Y-91863122D01*
X138719562Y-91863122D02*
X138661486Y-91863122D01*
X138661486Y-91863122D02*
X138584052Y-91843763D01*
X138584052Y-91843763D02*
X138545335Y-91824405D01*
X138545335Y-91824405D02*
X138506618Y-91785688D01*
X138506618Y-91785688D02*
X138487260Y-91727612D01*
X138487260Y-91727612D02*
X138487260Y-91688895D01*
X138487260Y-91688895D02*
X138506618Y-91630820D01*
X138506618Y-91630820D02*
X138525977Y-91611461D01*
X138525977Y-91456594D02*
X138506618Y-91437235D01*
X138506618Y-91437235D02*
X138487260Y-91398518D01*
X138487260Y-91398518D02*
X138487260Y-91301726D01*
X138487260Y-91301726D02*
X138506618Y-91263009D01*
X138506618Y-91263009D02*
X138525977Y-91243650D01*
X138525977Y-91243650D02*
X138564694Y-91224292D01*
X138564694Y-91224292D02*
X138603411Y-91224292D01*
X138603411Y-91224292D02*
X138661486Y-91243650D01*
X138661486Y-91243650D02*
X138893788Y-91475952D01*
X138893788Y-91475952D02*
X138893788Y-91224292D01*
X138487260Y-90875839D02*
X138487260Y-90953273D01*
X138487260Y-90953273D02*
X138506618Y-90991990D01*
X138506618Y-90991990D02*
X138525977Y-91011348D01*
X138525977Y-91011348D02*
X138584052Y-91050065D01*
X138584052Y-91050065D02*
X138661486Y-91069424D01*
X138661486Y-91069424D02*
X138816354Y-91069424D01*
X138816354Y-91069424D02*
X138855071Y-91050065D01*
X138855071Y-91050065D02*
X138874430Y-91030707D01*
X138874430Y-91030707D02*
X138893788Y-90991990D01*
X138893788Y-90991990D02*
X138893788Y-90914556D01*
X138893788Y-90914556D02*
X138874430Y-90875839D01*
X138874430Y-90875839D02*
X138855071Y-90856480D01*
X138855071Y-90856480D02*
X138816354Y-90837122D01*
X138816354Y-90837122D02*
X138719562Y-90837122D01*
X138719562Y-90837122D02*
X138680845Y-90856480D01*
X138680845Y-90856480D02*
X138661486Y-90875839D01*
X138661486Y-90875839D02*
X138642128Y-90914556D01*
X138642128Y-90914556D02*
X138642128Y-90991990D01*
X138642128Y-90991990D02*
X138661486Y-91030707D01*
X138661486Y-91030707D02*
X138680845Y-91050065D01*
X138680845Y-91050065D02*
X138719562Y-91069424D01*
D12*
X139512479Y-116741236D02*
X139512479Y-116361205D01*
X139512479Y-116361205D02*
X139602963Y-116361205D01*
X139602963Y-116361205D02*
X139657253Y-116379302D01*
X139657253Y-116379302D02*
X139693446Y-116415495D01*
X139693446Y-116415495D02*
X139711543Y-116451689D01*
X139711543Y-116451689D02*
X139729640Y-116524076D01*
X139729640Y-116524076D02*
X139729640Y-116578366D01*
X139729640Y-116578366D02*
X139711543Y-116650753D01*
X139711543Y-116650753D02*
X139693446Y-116686946D01*
X139693446Y-116686946D02*
X139657253Y-116723140D01*
X139657253Y-116723140D02*
X139602963Y-116741236D01*
X139602963Y-116741236D02*
X139512479Y-116741236D01*
X140091574Y-116741236D02*
X139874413Y-116741236D01*
X139982994Y-116741236D02*
X139982994Y-116361205D01*
X139982994Y-116361205D02*
X139946800Y-116415495D01*
X139946800Y-116415495D02*
X139910607Y-116451689D01*
X139910607Y-116451689D02*
X139874413Y-116469786D01*
X140417315Y-116487882D02*
X140417315Y-116741236D01*
X140326831Y-116343109D02*
X140236347Y-116614559D01*
X140236347Y-116614559D02*
X140471605Y-116614559D01*
D10*
X143470397Y-119109597D02*
X143470397Y-118877295D01*
X143876925Y-118993446D02*
X143470397Y-118993446D01*
X143470397Y-118799861D02*
X143876925Y-118664351D01*
X143876925Y-118664351D02*
X143470397Y-118528842D01*
X143857567Y-118412691D02*
X143876925Y-118354615D01*
X143876925Y-118354615D02*
X143876925Y-118257823D01*
X143876925Y-118257823D02*
X143857567Y-118219106D01*
X143857567Y-118219106D02*
X143838208Y-118199747D01*
X143838208Y-118199747D02*
X143799491Y-118180389D01*
X143799491Y-118180389D02*
X143760774Y-118180389D01*
X143760774Y-118180389D02*
X143722057Y-118199747D01*
X143722057Y-118199747D02*
X143702699Y-118219106D01*
X143702699Y-118219106D02*
X143683340Y-118257823D01*
X143683340Y-118257823D02*
X143663982Y-118335257D01*
X143663982Y-118335257D02*
X143644623Y-118373974D01*
X143644623Y-118373974D02*
X143625265Y-118393332D01*
X143625265Y-118393332D02*
X143586548Y-118412691D01*
X143586548Y-118412691D02*
X143547831Y-118412691D01*
X143547831Y-118412691D02*
X143509114Y-118393332D01*
X143509114Y-118393332D02*
X143489755Y-118373974D01*
X143489755Y-118373974D02*
X143470397Y-118335257D01*
X143470397Y-118335257D02*
X143470397Y-118238464D01*
X143470397Y-118238464D02*
X143489755Y-118180389D01*
X143470397Y-117831936D02*
X143470397Y-117909370D01*
X143470397Y-117909370D02*
X143489755Y-117948087D01*
X143489755Y-117948087D02*
X143509114Y-117967445D01*
X143509114Y-117967445D02*
X143567189Y-118006162D01*
X143567189Y-118006162D02*
X143644623Y-118025521D01*
X143644623Y-118025521D02*
X143799491Y-118025521D01*
X143799491Y-118025521D02*
X143838208Y-118006162D01*
X143838208Y-118006162D02*
X143857567Y-117986804D01*
X143857567Y-117986804D02*
X143876925Y-117948087D01*
X143876925Y-117948087D02*
X143876925Y-117870653D01*
X143876925Y-117870653D02*
X143857567Y-117831936D01*
X143857567Y-117831936D02*
X143838208Y-117812577D01*
X143838208Y-117812577D02*
X143799491Y-117793219D01*
X143799491Y-117793219D02*
X143702699Y-117793219D01*
X143702699Y-117793219D02*
X143663982Y-117812577D01*
X143663982Y-117812577D02*
X143644623Y-117831936D01*
X143644623Y-117831936D02*
X143625265Y-117870653D01*
X143625265Y-117870653D02*
X143625265Y-117948087D01*
X143625265Y-117948087D02*
X143644623Y-117986804D01*
X143644623Y-117986804D02*
X143663982Y-118006162D01*
X143663982Y-118006162D02*
X143702699Y-118025521D01*
X139070708Y-100875317D02*
X139090067Y-100894676D01*
X139090067Y-100894676D02*
X139109425Y-100952751D01*
X139109425Y-100952751D02*
X139109425Y-100991468D01*
X139109425Y-100991468D02*
X139090067Y-101049544D01*
X139090067Y-101049544D02*
X139051350Y-101088261D01*
X139051350Y-101088261D02*
X139012633Y-101107619D01*
X139012633Y-101107619D02*
X138935199Y-101126978D01*
X138935199Y-101126978D02*
X138877123Y-101126978D01*
X138877123Y-101126978D02*
X138799689Y-101107619D01*
X138799689Y-101107619D02*
X138760972Y-101088261D01*
X138760972Y-101088261D02*
X138722255Y-101049544D01*
X138722255Y-101049544D02*
X138702897Y-100991468D01*
X138702897Y-100991468D02*
X138702897Y-100952751D01*
X138702897Y-100952751D02*
X138722255Y-100894676D01*
X138722255Y-100894676D02*
X138741614Y-100875317D01*
X138702897Y-100739808D02*
X138702897Y-100488148D01*
X138702897Y-100488148D02*
X138857765Y-100623657D01*
X138857765Y-100623657D02*
X138857765Y-100565582D01*
X138857765Y-100565582D02*
X138877123Y-100526865D01*
X138877123Y-100526865D02*
X138896482Y-100507506D01*
X138896482Y-100507506D02*
X138935199Y-100488148D01*
X138935199Y-100488148D02*
X139031991Y-100488148D01*
X139031991Y-100488148D02*
X139070708Y-100507506D01*
X139070708Y-100507506D02*
X139090067Y-100526865D01*
X139090067Y-100526865D02*
X139109425Y-100565582D01*
X139109425Y-100565582D02*
X139109425Y-100681733D01*
X139109425Y-100681733D02*
X139090067Y-100720450D01*
X139090067Y-100720450D02*
X139070708Y-100739808D01*
X138702897Y-100352638D02*
X138702897Y-100100978D01*
X138702897Y-100100978D02*
X138857765Y-100236487D01*
X138857765Y-100236487D02*
X138857765Y-100178412D01*
X138857765Y-100178412D02*
X138877123Y-100139695D01*
X138877123Y-100139695D02*
X138896482Y-100120336D01*
X138896482Y-100120336D02*
X138935199Y-100100978D01*
X138935199Y-100100978D02*
X139031991Y-100100978D01*
X139031991Y-100100978D02*
X139070708Y-100120336D01*
X139070708Y-100120336D02*
X139090067Y-100139695D01*
X139090067Y-100139695D02*
X139109425Y-100178412D01*
X139109425Y-100178412D02*
X139109425Y-100294563D01*
X139109425Y-100294563D02*
X139090067Y-100333280D01*
X139090067Y-100333280D02*
X139070708Y-100352638D01*
D12*
X162311686Y-101853003D02*
X161931655Y-101853003D01*
X162275493Y-101454875D02*
X162293590Y-101472972D01*
X162293590Y-101472972D02*
X162311686Y-101527262D01*
X162311686Y-101527262D02*
X162311686Y-101563456D01*
X162311686Y-101563456D02*
X162293590Y-101617746D01*
X162293590Y-101617746D02*
X162257396Y-101653939D01*
X162257396Y-101653939D02*
X162221203Y-101672036D01*
X162221203Y-101672036D02*
X162148816Y-101690133D01*
X162148816Y-101690133D02*
X162094526Y-101690133D01*
X162094526Y-101690133D02*
X162022139Y-101672036D01*
X162022139Y-101672036D02*
X161985945Y-101653939D01*
X161985945Y-101653939D02*
X161949752Y-101617746D01*
X161949752Y-101617746D02*
X161931655Y-101563456D01*
X161931655Y-101563456D02*
X161931655Y-101527262D01*
X161931655Y-101527262D02*
X161949752Y-101472972D01*
X161949752Y-101472972D02*
X161967849Y-101454875D01*
X161931655Y-101111038D02*
X161931655Y-101292005D01*
X161931655Y-101292005D02*
X162112622Y-101310102D01*
X162112622Y-101310102D02*
X162094526Y-101292005D01*
X162094526Y-101292005D02*
X162076429Y-101255812D01*
X162076429Y-101255812D02*
X162076429Y-101165328D01*
X162076429Y-101165328D02*
X162094526Y-101129135D01*
X162094526Y-101129135D02*
X162112622Y-101111038D01*
X162112622Y-101111038D02*
X162148816Y-101092941D01*
X162148816Y-101092941D02*
X162239299Y-101092941D01*
X162239299Y-101092941D02*
X162275493Y-101111038D01*
X162275493Y-101111038D02*
X162293590Y-101129135D01*
X162293590Y-101129135D02*
X162311686Y-101165328D01*
X162311686Y-101165328D02*
X162311686Y-101255812D01*
X162311686Y-101255812D02*
X162293590Y-101292005D01*
X162293590Y-101292005D02*
X162275493Y-101310102D01*
D10*
X139273988Y-124307438D02*
X139138478Y-124113853D01*
X139041686Y-124307438D02*
X139041686Y-123900910D01*
X139041686Y-123900910D02*
X139196554Y-123900910D01*
X139196554Y-123900910D02*
X139235271Y-123920268D01*
X139235271Y-123920268D02*
X139254629Y-123939627D01*
X139254629Y-123939627D02*
X139273988Y-123978344D01*
X139273988Y-123978344D02*
X139273988Y-124036419D01*
X139273988Y-124036419D02*
X139254629Y-124075136D01*
X139254629Y-124075136D02*
X139235271Y-124094495D01*
X139235271Y-124094495D02*
X139196554Y-124113853D01*
X139196554Y-124113853D02*
X139041686Y-124113853D01*
X139622440Y-123900910D02*
X139545006Y-123900910D01*
X139545006Y-123900910D02*
X139506289Y-123920268D01*
X139506289Y-123920268D02*
X139486931Y-123939627D01*
X139486931Y-123939627D02*
X139448214Y-123997702D01*
X139448214Y-123997702D02*
X139428855Y-124075136D01*
X139428855Y-124075136D02*
X139428855Y-124230004D01*
X139428855Y-124230004D02*
X139448214Y-124268721D01*
X139448214Y-124268721D02*
X139467572Y-124288080D01*
X139467572Y-124288080D02*
X139506289Y-124307438D01*
X139506289Y-124307438D02*
X139583723Y-124307438D01*
X139583723Y-124307438D02*
X139622440Y-124288080D01*
X139622440Y-124288080D02*
X139641799Y-124268721D01*
X139641799Y-124268721D02*
X139661157Y-124230004D01*
X139661157Y-124230004D02*
X139661157Y-124133212D01*
X139661157Y-124133212D02*
X139641799Y-124094495D01*
X139641799Y-124094495D02*
X139622440Y-124075136D01*
X139622440Y-124075136D02*
X139583723Y-124055778D01*
X139583723Y-124055778D02*
X139506289Y-124055778D01*
X139506289Y-124055778D02*
X139467572Y-124075136D01*
X139467572Y-124075136D02*
X139448214Y-124094495D01*
X139448214Y-124094495D02*
X139428855Y-124133212D01*
X140048327Y-124307438D02*
X139816025Y-124307438D01*
X139932176Y-124307438D02*
X139932176Y-123900910D01*
X139932176Y-123900910D02*
X139893459Y-123958985D01*
X139893459Y-123958985D02*
X139854742Y-123997702D01*
X139854742Y-123997702D02*
X139816025Y-124017061D01*
X138573988Y-109707438D02*
X138438478Y-109513853D01*
X138341686Y-109707438D02*
X138341686Y-109300910D01*
X138341686Y-109300910D02*
X138496554Y-109300910D01*
X138496554Y-109300910D02*
X138535271Y-109320268D01*
X138535271Y-109320268D02*
X138554629Y-109339627D01*
X138554629Y-109339627D02*
X138573988Y-109378344D01*
X138573988Y-109378344D02*
X138573988Y-109436419D01*
X138573988Y-109436419D02*
X138554629Y-109475136D01*
X138554629Y-109475136D02*
X138535271Y-109494495D01*
X138535271Y-109494495D02*
X138496554Y-109513853D01*
X138496554Y-109513853D02*
X138341686Y-109513853D01*
X138941799Y-109300910D02*
X138748214Y-109300910D01*
X138748214Y-109300910D02*
X138728855Y-109494495D01*
X138728855Y-109494495D02*
X138748214Y-109475136D01*
X138748214Y-109475136D02*
X138786931Y-109455778D01*
X138786931Y-109455778D02*
X138883723Y-109455778D01*
X138883723Y-109455778D02*
X138922440Y-109475136D01*
X138922440Y-109475136D02*
X138941799Y-109494495D01*
X138941799Y-109494495D02*
X138961157Y-109533212D01*
X138961157Y-109533212D02*
X138961157Y-109630004D01*
X138961157Y-109630004D02*
X138941799Y-109668721D01*
X138941799Y-109668721D02*
X138922440Y-109688080D01*
X138922440Y-109688080D02*
X138883723Y-109707438D01*
X138883723Y-109707438D02*
X138786931Y-109707438D01*
X138786931Y-109707438D02*
X138748214Y-109688080D01*
X138748214Y-109688080D02*
X138728855Y-109668721D01*
X139193459Y-109475136D02*
X139154742Y-109455778D01*
X139154742Y-109455778D02*
X139135384Y-109436419D01*
X139135384Y-109436419D02*
X139116025Y-109397702D01*
X139116025Y-109397702D02*
X139116025Y-109378344D01*
X139116025Y-109378344D02*
X139135384Y-109339627D01*
X139135384Y-109339627D02*
X139154742Y-109320268D01*
X139154742Y-109320268D02*
X139193459Y-109300910D01*
X139193459Y-109300910D02*
X139270893Y-109300910D01*
X139270893Y-109300910D02*
X139309610Y-109320268D01*
X139309610Y-109320268D02*
X139328969Y-109339627D01*
X139328969Y-109339627D02*
X139348327Y-109378344D01*
X139348327Y-109378344D02*
X139348327Y-109397702D01*
X139348327Y-109397702D02*
X139328969Y-109436419D01*
X139328969Y-109436419D02*
X139309610Y-109455778D01*
X139309610Y-109455778D02*
X139270893Y-109475136D01*
X139270893Y-109475136D02*
X139193459Y-109475136D01*
X139193459Y-109475136D02*
X139154742Y-109494495D01*
X139154742Y-109494495D02*
X139135384Y-109513853D01*
X139135384Y-109513853D02*
X139116025Y-109552570D01*
X139116025Y-109552570D02*
X139116025Y-109630004D01*
X139116025Y-109630004D02*
X139135384Y-109668721D01*
X139135384Y-109668721D02*
X139154742Y-109688080D01*
X139154742Y-109688080D02*
X139193459Y-109707438D01*
X139193459Y-109707438D02*
X139270893Y-109707438D01*
X139270893Y-109707438D02*
X139309610Y-109688080D01*
X139309610Y-109688080D02*
X139328969Y-109668721D01*
X139328969Y-109668721D02*
X139348327Y-109630004D01*
X139348327Y-109630004D02*
X139348327Y-109552570D01*
X139348327Y-109552570D02*
X139328969Y-109513853D01*
X139328969Y-109513853D02*
X139309610Y-109494495D01*
X139309610Y-109494495D02*
X139270893Y-109475136D01*
X146745225Y-96072619D02*
X146338697Y-96072619D01*
X146338697Y-96072619D02*
X146338697Y-95975827D01*
X146338697Y-95975827D02*
X146358055Y-95917751D01*
X146358055Y-95917751D02*
X146396772Y-95879034D01*
X146396772Y-95879034D02*
X146435489Y-95859676D01*
X146435489Y-95859676D02*
X146512923Y-95840317D01*
X146512923Y-95840317D02*
X146570999Y-95840317D01*
X146570999Y-95840317D02*
X146648433Y-95859676D01*
X146648433Y-95859676D02*
X146687150Y-95879034D01*
X146687150Y-95879034D02*
X146725867Y-95917751D01*
X146725867Y-95917751D02*
X146745225Y-95975827D01*
X146745225Y-95975827D02*
X146745225Y-96072619D01*
X146377414Y-95685450D02*
X146358055Y-95666091D01*
X146358055Y-95666091D02*
X146338697Y-95627374D01*
X146338697Y-95627374D02*
X146338697Y-95530582D01*
X146338697Y-95530582D02*
X146358055Y-95491865D01*
X146358055Y-95491865D02*
X146377414Y-95472506D01*
X146377414Y-95472506D02*
X146416131Y-95453148D01*
X146416131Y-95453148D02*
X146454848Y-95453148D01*
X146454848Y-95453148D02*
X146512923Y-95472506D01*
X146512923Y-95472506D02*
X146745225Y-95704808D01*
X146745225Y-95704808D02*
X146745225Y-95453148D01*
X146377414Y-95298280D02*
X146358055Y-95278921D01*
X146358055Y-95278921D02*
X146338697Y-95240204D01*
X146338697Y-95240204D02*
X146338697Y-95143412D01*
X146338697Y-95143412D02*
X146358055Y-95104695D01*
X146358055Y-95104695D02*
X146377414Y-95085336D01*
X146377414Y-95085336D02*
X146416131Y-95065978D01*
X146416131Y-95065978D02*
X146454848Y-95065978D01*
X146454848Y-95065978D02*
X146512923Y-95085336D01*
X146512923Y-95085336D02*
X146745225Y-95317638D01*
X146745225Y-95317638D02*
X146745225Y-95065978D01*
X166770708Y-101775317D02*
X166790067Y-101794676D01*
X166790067Y-101794676D02*
X166809425Y-101852751D01*
X166809425Y-101852751D02*
X166809425Y-101891468D01*
X166809425Y-101891468D02*
X166790067Y-101949544D01*
X166790067Y-101949544D02*
X166751350Y-101988261D01*
X166751350Y-101988261D02*
X166712633Y-102007619D01*
X166712633Y-102007619D02*
X166635199Y-102026978D01*
X166635199Y-102026978D02*
X166577123Y-102026978D01*
X166577123Y-102026978D02*
X166499689Y-102007619D01*
X166499689Y-102007619D02*
X166460972Y-101988261D01*
X166460972Y-101988261D02*
X166422255Y-101949544D01*
X166422255Y-101949544D02*
X166402897Y-101891468D01*
X166402897Y-101891468D02*
X166402897Y-101852751D01*
X166402897Y-101852751D02*
X166422255Y-101794676D01*
X166422255Y-101794676D02*
X166441614Y-101775317D01*
X166441614Y-101620450D02*
X166422255Y-101601091D01*
X166422255Y-101601091D02*
X166402897Y-101562374D01*
X166402897Y-101562374D02*
X166402897Y-101465582D01*
X166402897Y-101465582D02*
X166422255Y-101426865D01*
X166422255Y-101426865D02*
X166441614Y-101407506D01*
X166441614Y-101407506D02*
X166480331Y-101388148D01*
X166480331Y-101388148D02*
X166519048Y-101388148D01*
X166519048Y-101388148D02*
X166577123Y-101407506D01*
X166577123Y-101407506D02*
X166809425Y-101639808D01*
X166809425Y-101639808D02*
X166809425Y-101388148D01*
X166402897Y-101252638D02*
X166402897Y-100981619D01*
X166402897Y-100981619D02*
X166809425Y-101155846D01*
X144273988Y-100307438D02*
X144138478Y-100113853D01*
X144041686Y-100307438D02*
X144041686Y-99900910D01*
X144041686Y-99900910D02*
X144196554Y-99900910D01*
X144196554Y-99900910D02*
X144235271Y-99920268D01*
X144235271Y-99920268D02*
X144254629Y-99939627D01*
X144254629Y-99939627D02*
X144273988Y-99978344D01*
X144273988Y-99978344D02*
X144273988Y-100036419D01*
X144273988Y-100036419D02*
X144254629Y-100075136D01*
X144254629Y-100075136D02*
X144235271Y-100094495D01*
X144235271Y-100094495D02*
X144196554Y-100113853D01*
X144196554Y-100113853D02*
X144041686Y-100113853D01*
X144622440Y-99900910D02*
X144545006Y-99900910D01*
X144545006Y-99900910D02*
X144506289Y-99920268D01*
X144506289Y-99920268D02*
X144486931Y-99939627D01*
X144486931Y-99939627D02*
X144448214Y-99997702D01*
X144448214Y-99997702D02*
X144428855Y-100075136D01*
X144428855Y-100075136D02*
X144428855Y-100230004D01*
X144428855Y-100230004D02*
X144448214Y-100268721D01*
X144448214Y-100268721D02*
X144467572Y-100288080D01*
X144467572Y-100288080D02*
X144506289Y-100307438D01*
X144506289Y-100307438D02*
X144583723Y-100307438D01*
X144583723Y-100307438D02*
X144622440Y-100288080D01*
X144622440Y-100288080D02*
X144641799Y-100268721D01*
X144641799Y-100268721D02*
X144661157Y-100230004D01*
X144661157Y-100230004D02*
X144661157Y-100133212D01*
X144661157Y-100133212D02*
X144641799Y-100094495D01*
X144641799Y-100094495D02*
X144622440Y-100075136D01*
X144622440Y-100075136D02*
X144583723Y-100055778D01*
X144583723Y-100055778D02*
X144506289Y-100055778D01*
X144506289Y-100055778D02*
X144467572Y-100075136D01*
X144467572Y-100075136D02*
X144448214Y-100094495D01*
X144448214Y-100094495D02*
X144428855Y-100133212D01*
X145009610Y-100036419D02*
X145009610Y-100307438D01*
X144912818Y-99881552D02*
X144816025Y-100171929D01*
X144816025Y-100171929D02*
X145067686Y-100171929D01*
X144273988Y-98207438D02*
X144138478Y-98013853D01*
X144041686Y-98207438D02*
X144041686Y-97800910D01*
X144041686Y-97800910D02*
X144196554Y-97800910D01*
X144196554Y-97800910D02*
X144235271Y-97820268D01*
X144235271Y-97820268D02*
X144254629Y-97839627D01*
X144254629Y-97839627D02*
X144273988Y-97878344D01*
X144273988Y-97878344D02*
X144273988Y-97936419D01*
X144273988Y-97936419D02*
X144254629Y-97975136D01*
X144254629Y-97975136D02*
X144235271Y-97994495D01*
X144235271Y-97994495D02*
X144196554Y-98013853D01*
X144196554Y-98013853D02*
X144041686Y-98013853D01*
X144622440Y-97800910D02*
X144545006Y-97800910D01*
X144545006Y-97800910D02*
X144506289Y-97820268D01*
X144506289Y-97820268D02*
X144486931Y-97839627D01*
X144486931Y-97839627D02*
X144448214Y-97897702D01*
X144448214Y-97897702D02*
X144428855Y-97975136D01*
X144428855Y-97975136D02*
X144428855Y-98130004D01*
X144428855Y-98130004D02*
X144448214Y-98168721D01*
X144448214Y-98168721D02*
X144467572Y-98188080D01*
X144467572Y-98188080D02*
X144506289Y-98207438D01*
X144506289Y-98207438D02*
X144583723Y-98207438D01*
X144583723Y-98207438D02*
X144622440Y-98188080D01*
X144622440Y-98188080D02*
X144641799Y-98168721D01*
X144641799Y-98168721D02*
X144661157Y-98130004D01*
X144661157Y-98130004D02*
X144661157Y-98033212D01*
X144661157Y-98033212D02*
X144641799Y-97994495D01*
X144641799Y-97994495D02*
X144622440Y-97975136D01*
X144622440Y-97975136D02*
X144583723Y-97955778D01*
X144583723Y-97955778D02*
X144506289Y-97955778D01*
X144506289Y-97955778D02*
X144467572Y-97975136D01*
X144467572Y-97975136D02*
X144448214Y-97994495D01*
X144448214Y-97994495D02*
X144428855Y-98033212D01*
X144796667Y-97800910D02*
X145048327Y-97800910D01*
X145048327Y-97800910D02*
X144912818Y-97955778D01*
X144912818Y-97955778D02*
X144970893Y-97955778D01*
X144970893Y-97955778D02*
X145009610Y-97975136D01*
X145009610Y-97975136D02*
X145028969Y-97994495D01*
X145028969Y-97994495D02*
X145048327Y-98033212D01*
X145048327Y-98033212D02*
X145048327Y-98130004D01*
X145048327Y-98130004D02*
X145028969Y-98168721D01*
X145028969Y-98168721D02*
X145009610Y-98188080D01*
X145009610Y-98188080D02*
X144970893Y-98207438D01*
X144970893Y-98207438D02*
X144854742Y-98207438D01*
X144854742Y-98207438D02*
X144816025Y-98188080D01*
X144816025Y-98188080D02*
X144796667Y-98168721D01*
D12*
X139412479Y-105841236D02*
X139412479Y-105461205D01*
X139412479Y-105461205D02*
X139502963Y-105461205D01*
X139502963Y-105461205D02*
X139557253Y-105479302D01*
X139557253Y-105479302D02*
X139593446Y-105515495D01*
X139593446Y-105515495D02*
X139611543Y-105551689D01*
X139611543Y-105551689D02*
X139629640Y-105624076D01*
X139629640Y-105624076D02*
X139629640Y-105678366D01*
X139629640Y-105678366D02*
X139611543Y-105750753D01*
X139611543Y-105750753D02*
X139593446Y-105786946D01*
X139593446Y-105786946D02*
X139557253Y-105823140D01*
X139557253Y-105823140D02*
X139502963Y-105841236D01*
X139502963Y-105841236D02*
X139412479Y-105841236D01*
X139991574Y-105841236D02*
X139774413Y-105841236D01*
X139882994Y-105841236D02*
X139882994Y-105461205D01*
X139882994Y-105461205D02*
X139846800Y-105515495D01*
X139846800Y-105515495D02*
X139810607Y-105551689D01*
X139810607Y-105551689D02*
X139774413Y-105569786D01*
X140118251Y-105461205D02*
X140371605Y-105461205D01*
X140371605Y-105461205D02*
X140208734Y-105841236D01*
D10*
X160371715Y-117892081D02*
X160305506Y-118073991D01*
X160305506Y-118073991D02*
X159923494Y-117934950D01*
X160217961Y-117691913D02*
X160264308Y-117564576D01*
X160484272Y-117582833D02*
X160418062Y-117764744D01*
X160418062Y-117764744D02*
X160036051Y-117625703D01*
X160036051Y-117625703D02*
X160102261Y-117443793D01*
X160543861Y-117419114D02*
X160161850Y-117280073D01*
X160161850Y-117280073D02*
X160194955Y-117189118D01*
X160194955Y-117189118D02*
X160233009Y-117141166D01*
X160233009Y-117141166D02*
X160282633Y-117118026D01*
X160282633Y-117118026D02*
X160325636Y-117113077D01*
X160325636Y-117113077D02*
X160405021Y-117121370D01*
X160405021Y-117121370D02*
X160459594Y-117141233D01*
X160459594Y-117141233D02*
X160525737Y-117185908D01*
X160525737Y-117185908D02*
X160555498Y-117217341D01*
X160555498Y-117217341D02*
X160578638Y-117266965D01*
X160578638Y-117266965D02*
X160576966Y-117328159D01*
X160576966Y-117328159D02*
X160543861Y-117419114D01*
X160367100Y-116716152D02*
X160300891Y-116898062D01*
X160300891Y-116898062D02*
X160476180Y-116982463D01*
X160476180Y-116982463D02*
X160464610Y-116957651D01*
X160464610Y-116957651D02*
X160459661Y-116914648D01*
X160459661Y-116914648D02*
X160492766Y-116823693D01*
X160492766Y-116823693D02*
X160524199Y-116793932D01*
X160524199Y-116793932D02*
X160549011Y-116782362D01*
X160549011Y-116782362D02*
X160592014Y-116777413D01*
X160592014Y-116777413D02*
X160682969Y-116810518D01*
X160682969Y-116810518D02*
X160712730Y-116841951D01*
X160712730Y-116841951D02*
X160724300Y-116866763D01*
X160724300Y-116866763D02*
X160729249Y-116909766D01*
X160729249Y-116909766D02*
X160696144Y-117000721D01*
X160696144Y-117000721D02*
X160664711Y-117030482D01*
X160664711Y-117030482D02*
X160639899Y-117042052D01*
D12*
X134672915Y-98772072D02*
X134546238Y-98772072D01*
X134546238Y-98971136D02*
X134546238Y-98591105D01*
X134546238Y-98591105D02*
X134727205Y-98591105D01*
X134998656Y-98772072D02*
X135052946Y-98790169D01*
X135052946Y-98790169D02*
X135071043Y-98808266D01*
X135071043Y-98808266D02*
X135089140Y-98844459D01*
X135089140Y-98844459D02*
X135089140Y-98898749D01*
X135089140Y-98898749D02*
X135071043Y-98934943D01*
X135071043Y-98934943D02*
X135052946Y-98953040D01*
X135052946Y-98953040D02*
X135016753Y-98971136D01*
X135016753Y-98971136D02*
X134871979Y-98971136D01*
X134871979Y-98971136D02*
X134871979Y-98591105D01*
X134871979Y-98591105D02*
X134998656Y-98591105D01*
X134998656Y-98591105D02*
X135034850Y-98609202D01*
X135034850Y-98609202D02*
X135052946Y-98627299D01*
X135052946Y-98627299D02*
X135071043Y-98663492D01*
X135071043Y-98663492D02*
X135071043Y-98699686D01*
X135071043Y-98699686D02*
X135052946Y-98735879D01*
X135052946Y-98735879D02*
X135034850Y-98753976D01*
X135034850Y-98753976D02*
X134998656Y-98772072D01*
X134998656Y-98772072D02*
X134871979Y-98772072D01*
X135233913Y-98627299D02*
X135252010Y-98609202D01*
X135252010Y-98609202D02*
X135288204Y-98591105D01*
X135288204Y-98591105D02*
X135378687Y-98591105D01*
X135378687Y-98591105D02*
X135414881Y-98609202D01*
X135414881Y-98609202D02*
X135432977Y-98627299D01*
X135432977Y-98627299D02*
X135451074Y-98663492D01*
X135451074Y-98663492D02*
X135451074Y-98699686D01*
X135451074Y-98699686D02*
X135432977Y-98753976D01*
X135432977Y-98753976D02*
X135215817Y-98971136D01*
X135215817Y-98971136D02*
X135451074Y-98971136D01*
X135776815Y-98717782D02*
X135776815Y-98971136D01*
X135686331Y-98573009D02*
X135595847Y-98844459D01*
X135595847Y-98844459D02*
X135831105Y-98844459D01*
D10*
X161721551Y-116115257D02*
X161721551Y-115708729D01*
X162147438Y-116076540D02*
X162128079Y-116095899D01*
X162128079Y-116095899D02*
X162070004Y-116115257D01*
X162070004Y-116115257D02*
X162031287Y-116115257D01*
X162031287Y-116115257D02*
X161973211Y-116095899D01*
X161973211Y-116095899D02*
X161934494Y-116057182D01*
X161934494Y-116057182D02*
X161915136Y-116018465D01*
X161915136Y-116018465D02*
X161895777Y-115941031D01*
X161895777Y-115941031D02*
X161895777Y-115882955D01*
X161895777Y-115882955D02*
X161915136Y-115805521D01*
X161915136Y-115805521D02*
X161934494Y-115766804D01*
X161934494Y-115766804D02*
X161973211Y-115728087D01*
X161973211Y-115728087D02*
X162031287Y-115708729D01*
X162031287Y-115708729D02*
X162070004Y-115708729D01*
X162070004Y-115708729D02*
X162128079Y-115728087D01*
X162128079Y-115728087D02*
X162147438Y-115747446D01*
X162495890Y-115708729D02*
X162418456Y-115708729D01*
X162418456Y-115708729D02*
X162379739Y-115728087D01*
X162379739Y-115728087D02*
X162360381Y-115747446D01*
X162360381Y-115747446D02*
X162321664Y-115805521D01*
X162321664Y-115805521D02*
X162302305Y-115882955D01*
X162302305Y-115882955D02*
X162302305Y-116037823D01*
X162302305Y-116037823D02*
X162321664Y-116076540D01*
X162321664Y-116076540D02*
X162341022Y-116095899D01*
X162341022Y-116095899D02*
X162379739Y-116115257D01*
X162379739Y-116115257D02*
X162457173Y-116115257D01*
X162457173Y-116115257D02*
X162495890Y-116095899D01*
X162495890Y-116095899D02*
X162515249Y-116076540D01*
X162515249Y-116076540D02*
X162534607Y-116037823D01*
X162534607Y-116037823D02*
X162534607Y-115941031D01*
X162534607Y-115941031D02*
X162515249Y-115902314D01*
X162515249Y-115902314D02*
X162495890Y-115882955D01*
X162495890Y-115882955D02*
X162457173Y-115863597D01*
X162457173Y-115863597D02*
X162379739Y-115863597D01*
X162379739Y-115863597D02*
X162341022Y-115882955D01*
X162341022Y-115882955D02*
X162321664Y-115902314D01*
X162321664Y-115902314D02*
X162302305Y-115941031D01*
D12*
X134772915Y-122585372D02*
X134646238Y-122585372D01*
X134646238Y-122784436D02*
X134646238Y-122404405D01*
X134646238Y-122404405D02*
X134827205Y-122404405D01*
X135098656Y-122585372D02*
X135152946Y-122603469D01*
X135152946Y-122603469D02*
X135171043Y-122621566D01*
X135171043Y-122621566D02*
X135189140Y-122657759D01*
X135189140Y-122657759D02*
X135189140Y-122712049D01*
X135189140Y-122712049D02*
X135171043Y-122748243D01*
X135171043Y-122748243D02*
X135152946Y-122766340D01*
X135152946Y-122766340D02*
X135116753Y-122784436D01*
X135116753Y-122784436D02*
X134971979Y-122784436D01*
X134971979Y-122784436D02*
X134971979Y-122404405D01*
X134971979Y-122404405D02*
X135098656Y-122404405D01*
X135098656Y-122404405D02*
X135134850Y-122422502D01*
X135134850Y-122422502D02*
X135152946Y-122440599D01*
X135152946Y-122440599D02*
X135171043Y-122476792D01*
X135171043Y-122476792D02*
X135171043Y-122512986D01*
X135171043Y-122512986D02*
X135152946Y-122549179D01*
X135152946Y-122549179D02*
X135134850Y-122567276D01*
X135134850Y-122567276D02*
X135098656Y-122585372D01*
X135098656Y-122585372D02*
X134971979Y-122585372D01*
X135333913Y-122440599D02*
X135352010Y-122422502D01*
X135352010Y-122422502D02*
X135388204Y-122404405D01*
X135388204Y-122404405D02*
X135478687Y-122404405D01*
X135478687Y-122404405D02*
X135514881Y-122422502D01*
X135514881Y-122422502D02*
X135532977Y-122440599D01*
X135532977Y-122440599D02*
X135551074Y-122476792D01*
X135551074Y-122476792D02*
X135551074Y-122512986D01*
X135551074Y-122512986D02*
X135532977Y-122567276D01*
X135532977Y-122567276D02*
X135315817Y-122784436D01*
X135315817Y-122784436D02*
X135551074Y-122784436D01*
X135786331Y-122404405D02*
X135822524Y-122404405D01*
X135822524Y-122404405D02*
X135858718Y-122422502D01*
X135858718Y-122422502D02*
X135876815Y-122440599D01*
X135876815Y-122440599D02*
X135894911Y-122476792D01*
X135894911Y-122476792D02*
X135913008Y-122549179D01*
X135913008Y-122549179D02*
X135913008Y-122639663D01*
X135913008Y-122639663D02*
X135894911Y-122712049D01*
X135894911Y-122712049D02*
X135876815Y-122748243D01*
X135876815Y-122748243D02*
X135858718Y-122766340D01*
X135858718Y-122766340D02*
X135822524Y-122784436D01*
X135822524Y-122784436D02*
X135786331Y-122784436D01*
X135786331Y-122784436D02*
X135750138Y-122766340D01*
X135750138Y-122766340D02*
X135732041Y-122748243D01*
X135732041Y-122748243D02*
X135713944Y-122712049D01*
X135713944Y-122712049D02*
X135695847Y-122639663D01*
X135695847Y-122639663D02*
X135695847Y-122549179D01*
X135695847Y-122549179D02*
X135713944Y-122476792D01*
X135713944Y-122476792D02*
X135732041Y-122440599D01*
X135732041Y-122440599D02*
X135750138Y-122422502D01*
X135750138Y-122422502D02*
X135786331Y-122404405D01*
D10*
X156038988Y-94068721D02*
X156019629Y-94088080D01*
X156019629Y-94088080D02*
X155961554Y-94107438D01*
X155961554Y-94107438D02*
X155922837Y-94107438D01*
X155922837Y-94107438D02*
X155864761Y-94088080D01*
X155864761Y-94088080D02*
X155826044Y-94049363D01*
X155826044Y-94049363D02*
X155806686Y-94010646D01*
X155806686Y-94010646D02*
X155787327Y-93933212D01*
X155787327Y-93933212D02*
X155787327Y-93875136D01*
X155787327Y-93875136D02*
X155806686Y-93797702D01*
X155806686Y-93797702D02*
X155826044Y-93758985D01*
X155826044Y-93758985D02*
X155864761Y-93720268D01*
X155864761Y-93720268D02*
X155922837Y-93700910D01*
X155922837Y-93700910D02*
X155961554Y-93700910D01*
X155961554Y-93700910D02*
X156019629Y-93720268D01*
X156019629Y-93720268D02*
X156038988Y-93739627D01*
X156174497Y-93700910D02*
X156426157Y-93700910D01*
X156426157Y-93700910D02*
X156290648Y-93855778D01*
X156290648Y-93855778D02*
X156348723Y-93855778D01*
X156348723Y-93855778D02*
X156387440Y-93875136D01*
X156387440Y-93875136D02*
X156406799Y-93894495D01*
X156406799Y-93894495D02*
X156426157Y-93933212D01*
X156426157Y-93933212D02*
X156426157Y-94030004D01*
X156426157Y-94030004D02*
X156406799Y-94068721D01*
X156406799Y-94068721D02*
X156387440Y-94088080D01*
X156387440Y-94088080D02*
X156348723Y-94107438D01*
X156348723Y-94107438D02*
X156232572Y-94107438D01*
X156232572Y-94107438D02*
X156193855Y-94088080D01*
X156193855Y-94088080D02*
X156174497Y-94068721D01*
X156677818Y-93700910D02*
X156716535Y-93700910D01*
X156716535Y-93700910D02*
X156755252Y-93720268D01*
X156755252Y-93720268D02*
X156774610Y-93739627D01*
X156774610Y-93739627D02*
X156793969Y-93778344D01*
X156793969Y-93778344D02*
X156813327Y-93855778D01*
X156813327Y-93855778D02*
X156813327Y-93952570D01*
X156813327Y-93952570D02*
X156793969Y-94030004D01*
X156793969Y-94030004D02*
X156774610Y-94068721D01*
X156774610Y-94068721D02*
X156755252Y-94088080D01*
X156755252Y-94088080D02*
X156716535Y-94107438D01*
X156716535Y-94107438D02*
X156677818Y-94107438D01*
X156677818Y-94107438D02*
X156639101Y-94088080D01*
X156639101Y-94088080D02*
X156619742Y-94068721D01*
X156619742Y-94068721D02*
X156600384Y-94030004D01*
X156600384Y-94030004D02*
X156581025Y-93952570D01*
X156581025Y-93952570D02*
X156581025Y-93855778D01*
X156581025Y-93855778D02*
X156600384Y-93778344D01*
X156600384Y-93778344D02*
X156619742Y-93739627D01*
X156619742Y-93739627D02*
X156639101Y-93720268D01*
X156639101Y-93720268D02*
X156677818Y-93700910D01*
X151509425Y-124110317D02*
X151315840Y-124245827D01*
X151509425Y-124342619D02*
X151102897Y-124342619D01*
X151102897Y-124342619D02*
X151102897Y-124187751D01*
X151102897Y-124187751D02*
X151122255Y-124149034D01*
X151122255Y-124149034D02*
X151141614Y-124129676D01*
X151141614Y-124129676D02*
X151180331Y-124110317D01*
X151180331Y-124110317D02*
X151238406Y-124110317D01*
X151238406Y-124110317D02*
X151277123Y-124129676D01*
X151277123Y-124129676D02*
X151296482Y-124149034D01*
X151296482Y-124149034D02*
X151315840Y-124187751D01*
X151315840Y-124187751D02*
X151315840Y-124342619D01*
X151277123Y-123878016D02*
X151257765Y-123916733D01*
X151257765Y-123916733D02*
X151238406Y-123936091D01*
X151238406Y-123936091D02*
X151199689Y-123955450D01*
X151199689Y-123955450D02*
X151180331Y-123955450D01*
X151180331Y-123955450D02*
X151141614Y-123936091D01*
X151141614Y-123936091D02*
X151122255Y-123916733D01*
X151122255Y-123916733D02*
X151102897Y-123878016D01*
X151102897Y-123878016D02*
X151102897Y-123800582D01*
X151102897Y-123800582D02*
X151122255Y-123761865D01*
X151122255Y-123761865D02*
X151141614Y-123742506D01*
X151141614Y-123742506D02*
X151180331Y-123723148D01*
X151180331Y-123723148D02*
X151199689Y-123723148D01*
X151199689Y-123723148D02*
X151238406Y-123742506D01*
X151238406Y-123742506D02*
X151257765Y-123761865D01*
X151257765Y-123761865D02*
X151277123Y-123800582D01*
X151277123Y-123800582D02*
X151277123Y-123878016D01*
X151277123Y-123878016D02*
X151296482Y-123916733D01*
X151296482Y-123916733D02*
X151315840Y-123936091D01*
X151315840Y-123936091D02*
X151354557Y-123955450D01*
X151354557Y-123955450D02*
X151431991Y-123955450D01*
X151431991Y-123955450D02*
X151470708Y-123936091D01*
X151470708Y-123936091D02*
X151490067Y-123916733D01*
X151490067Y-123916733D02*
X151509425Y-123878016D01*
X151509425Y-123878016D02*
X151509425Y-123800582D01*
X151509425Y-123800582D02*
X151490067Y-123761865D01*
X151490067Y-123761865D02*
X151470708Y-123742506D01*
X151470708Y-123742506D02*
X151431991Y-123723148D01*
X151431991Y-123723148D02*
X151354557Y-123723148D01*
X151354557Y-123723148D02*
X151315840Y-123742506D01*
X151315840Y-123742506D02*
X151296482Y-123761865D01*
X151296482Y-123761865D02*
X151277123Y-123800582D01*
X151509425Y-123335978D02*
X151509425Y-123568280D01*
X151509425Y-123452129D02*
X151102897Y-123452129D01*
X151102897Y-123452129D02*
X151160972Y-123490846D01*
X151160972Y-123490846D02*
X151199689Y-123529563D01*
X151199689Y-123529563D02*
X151219048Y-123568280D01*
X146293788Y-100675661D02*
X146100203Y-100811171D01*
X146293788Y-100907963D02*
X145887260Y-100907963D01*
X145887260Y-100907963D02*
X145887260Y-100753095D01*
X145887260Y-100753095D02*
X145906618Y-100714378D01*
X145906618Y-100714378D02*
X145925977Y-100695020D01*
X145925977Y-100695020D02*
X145964694Y-100675661D01*
X145964694Y-100675661D02*
X146022769Y-100675661D01*
X146022769Y-100675661D02*
X146061486Y-100695020D01*
X146061486Y-100695020D02*
X146080845Y-100714378D01*
X146080845Y-100714378D02*
X146100203Y-100753095D01*
X146100203Y-100753095D02*
X146100203Y-100907963D01*
X145887260Y-100540152D02*
X145887260Y-100269133D01*
X145887260Y-100269133D02*
X146293788Y-100443360D01*
X145887260Y-100152982D02*
X145887260Y-99881963D01*
X145887260Y-99881963D02*
X146293788Y-100056190D01*
X146345225Y-104772619D02*
X145938697Y-104772619D01*
X145938697Y-104772619D02*
X145938697Y-104675827D01*
X145938697Y-104675827D02*
X145958055Y-104617751D01*
X145958055Y-104617751D02*
X145996772Y-104579034D01*
X145996772Y-104579034D02*
X146035489Y-104559676D01*
X146035489Y-104559676D02*
X146112923Y-104540317D01*
X146112923Y-104540317D02*
X146170999Y-104540317D01*
X146170999Y-104540317D02*
X146248433Y-104559676D01*
X146248433Y-104559676D02*
X146287150Y-104579034D01*
X146287150Y-104579034D02*
X146325867Y-104617751D01*
X146325867Y-104617751D02*
X146345225Y-104675827D01*
X146345225Y-104675827D02*
X146345225Y-104772619D01*
X145977414Y-104385450D02*
X145958055Y-104366091D01*
X145958055Y-104366091D02*
X145938697Y-104327374D01*
X145938697Y-104327374D02*
X145938697Y-104230582D01*
X145938697Y-104230582D02*
X145958055Y-104191865D01*
X145958055Y-104191865D02*
X145977414Y-104172506D01*
X145977414Y-104172506D02*
X146016131Y-104153148D01*
X146016131Y-104153148D02*
X146054848Y-104153148D01*
X146054848Y-104153148D02*
X146112923Y-104172506D01*
X146112923Y-104172506D02*
X146345225Y-104404808D01*
X146345225Y-104404808D02*
X146345225Y-104153148D01*
X146345225Y-103765978D02*
X146345225Y-103998280D01*
X146345225Y-103882129D02*
X145938697Y-103882129D01*
X145938697Y-103882129D02*
X145996772Y-103920846D01*
X145996772Y-103920846D02*
X146035489Y-103959563D01*
X146035489Y-103959563D02*
X146054848Y-103998280D01*
D12*
X139612479Y-97641236D02*
X139612479Y-97261205D01*
X139612479Y-97261205D02*
X139702963Y-97261205D01*
X139702963Y-97261205D02*
X139757253Y-97279302D01*
X139757253Y-97279302D02*
X139793446Y-97315495D01*
X139793446Y-97315495D02*
X139811543Y-97351689D01*
X139811543Y-97351689D02*
X139829640Y-97424076D01*
X139829640Y-97424076D02*
X139829640Y-97478366D01*
X139829640Y-97478366D02*
X139811543Y-97550753D01*
X139811543Y-97550753D02*
X139793446Y-97586946D01*
X139793446Y-97586946D02*
X139757253Y-97623140D01*
X139757253Y-97623140D02*
X139702963Y-97641236D01*
X139702963Y-97641236D02*
X139612479Y-97641236D01*
X140191574Y-97641236D02*
X139974413Y-97641236D01*
X140082994Y-97641236D02*
X140082994Y-97261205D01*
X140082994Y-97261205D02*
X140046800Y-97315495D01*
X140046800Y-97315495D02*
X140010607Y-97351689D01*
X140010607Y-97351689D02*
X139974413Y-97369786D01*
X140372541Y-97641236D02*
X140444928Y-97641236D01*
X140444928Y-97641236D02*
X140481121Y-97623140D01*
X140481121Y-97623140D02*
X140499218Y-97605043D01*
X140499218Y-97605043D02*
X140535411Y-97550753D01*
X140535411Y-97550753D02*
X140553508Y-97478366D01*
X140553508Y-97478366D02*
X140553508Y-97333592D01*
X140553508Y-97333592D02*
X140535411Y-97297399D01*
X140535411Y-97297399D02*
X140517315Y-97279302D01*
X140517315Y-97279302D02*
X140481121Y-97261205D01*
X140481121Y-97261205D02*
X140408734Y-97261205D01*
X140408734Y-97261205D02*
X140372541Y-97279302D01*
X140372541Y-97279302D02*
X140354444Y-97297399D01*
X140354444Y-97297399D02*
X140336347Y-97333592D01*
X140336347Y-97333592D02*
X140336347Y-97424076D01*
X140336347Y-97424076D02*
X140354444Y-97460269D01*
X140354444Y-97460269D02*
X140372541Y-97478366D01*
X140372541Y-97478366D02*
X140408734Y-97496463D01*
X140408734Y-97496463D02*
X140481121Y-97496463D01*
X140481121Y-97496463D02*
X140517315Y-97478366D01*
X140517315Y-97478366D02*
X140535411Y-97460269D01*
X140535411Y-97460269D02*
X140553508Y-97424076D01*
X134672915Y-100465372D02*
X134546238Y-100465372D01*
X134546238Y-100664436D02*
X134546238Y-100284405D01*
X134546238Y-100284405D02*
X134727205Y-100284405D01*
X134998656Y-100465372D02*
X135052946Y-100483469D01*
X135052946Y-100483469D02*
X135071043Y-100501566D01*
X135071043Y-100501566D02*
X135089140Y-100537759D01*
X135089140Y-100537759D02*
X135089140Y-100592049D01*
X135089140Y-100592049D02*
X135071043Y-100628243D01*
X135071043Y-100628243D02*
X135052946Y-100646340D01*
X135052946Y-100646340D02*
X135016753Y-100664436D01*
X135016753Y-100664436D02*
X134871979Y-100664436D01*
X134871979Y-100664436D02*
X134871979Y-100284405D01*
X134871979Y-100284405D02*
X134998656Y-100284405D01*
X134998656Y-100284405D02*
X135034850Y-100302502D01*
X135034850Y-100302502D02*
X135052946Y-100320599D01*
X135052946Y-100320599D02*
X135071043Y-100356792D01*
X135071043Y-100356792D02*
X135071043Y-100392986D01*
X135071043Y-100392986D02*
X135052946Y-100429179D01*
X135052946Y-100429179D02*
X135034850Y-100447276D01*
X135034850Y-100447276D02*
X134998656Y-100465372D01*
X134998656Y-100465372D02*
X134871979Y-100465372D01*
X135233913Y-100320599D02*
X135252010Y-100302502D01*
X135252010Y-100302502D02*
X135288204Y-100284405D01*
X135288204Y-100284405D02*
X135378687Y-100284405D01*
X135378687Y-100284405D02*
X135414881Y-100302502D01*
X135414881Y-100302502D02*
X135432977Y-100320599D01*
X135432977Y-100320599D02*
X135451074Y-100356792D01*
X135451074Y-100356792D02*
X135451074Y-100392986D01*
X135451074Y-100392986D02*
X135432977Y-100447276D01*
X135432977Y-100447276D02*
X135215817Y-100664436D01*
X135215817Y-100664436D02*
X135451074Y-100664436D01*
X135577751Y-100284405D02*
X135813008Y-100284405D01*
X135813008Y-100284405D02*
X135686331Y-100429179D01*
X135686331Y-100429179D02*
X135740621Y-100429179D01*
X135740621Y-100429179D02*
X135776815Y-100447276D01*
X135776815Y-100447276D02*
X135794911Y-100465372D01*
X135794911Y-100465372D02*
X135813008Y-100501566D01*
X135813008Y-100501566D02*
X135813008Y-100592049D01*
X135813008Y-100592049D02*
X135794911Y-100628243D01*
X135794911Y-100628243D02*
X135776815Y-100646340D01*
X135776815Y-100646340D02*
X135740621Y-100664436D01*
X135740621Y-100664436D02*
X135632041Y-100664436D01*
X135632041Y-100664436D02*
X135595847Y-100646340D01*
X135595847Y-100646340D02*
X135577751Y-100628243D01*
D15*
X168287250Y-91075118D02*
X168590980Y-91075118D01*
X168590980Y-91075118D02*
X168651726Y-91095367D01*
X168651726Y-91095367D02*
X168692224Y-91135864D01*
X168692224Y-91135864D02*
X168712472Y-91196610D01*
X168712472Y-91196610D02*
X168712472Y-91237108D01*
X168712472Y-90872631D02*
X168287250Y-90872631D01*
X168287250Y-90872631D02*
X168287250Y-90710642D01*
X168287250Y-90710642D02*
X168307499Y-90670145D01*
X168307499Y-90670145D02*
X168327748Y-90649896D01*
X168327748Y-90649896D02*
X168368245Y-90629647D01*
X168368245Y-90629647D02*
X168428991Y-90629647D01*
X168428991Y-90629647D02*
X168469488Y-90649896D01*
X168469488Y-90649896D02*
X168489737Y-90670145D01*
X168489737Y-90670145D02*
X168509986Y-90710642D01*
X168509986Y-90710642D02*
X168509986Y-90872631D01*
X168327748Y-90467658D02*
X168307499Y-90447409D01*
X168307499Y-90447409D02*
X168287250Y-90406912D01*
X168287250Y-90406912D02*
X168287250Y-90305669D01*
X168287250Y-90305669D02*
X168307499Y-90265171D01*
X168307499Y-90265171D02*
X168327748Y-90244923D01*
X168327748Y-90244923D02*
X168368245Y-90224674D01*
X168368245Y-90224674D02*
X168408742Y-90224674D01*
X168408742Y-90224674D02*
X168469488Y-90244923D01*
X168469488Y-90244923D02*
X168712472Y-90487907D01*
X168712472Y-90487907D02*
X168712472Y-90224674D01*
X168327748Y-90062685D02*
X168307499Y-90042436D01*
X168307499Y-90042436D02*
X168287250Y-90001939D01*
X168287250Y-90001939D02*
X168287250Y-89900696D01*
X168287250Y-89900696D02*
X168307499Y-89860198D01*
X168307499Y-89860198D02*
X168327748Y-89839950D01*
X168327748Y-89839950D02*
X168368245Y-89819701D01*
X168368245Y-89819701D02*
X168408742Y-89819701D01*
X168408742Y-89819701D02*
X168469488Y-89839950D01*
X168469488Y-89839950D02*
X168712472Y-90082934D01*
X168712472Y-90082934D02*
X168712472Y-89819701D01*
D10*
X163551661Y-97331792D02*
X163512944Y-97312433D01*
X163512944Y-97312433D02*
X163474227Y-97273717D01*
X163474227Y-97273717D02*
X163416151Y-97215641D01*
X163416151Y-97215641D02*
X163377434Y-97196283D01*
X163377434Y-97196283D02*
X163338717Y-97196283D01*
X163358076Y-97293075D02*
X163319359Y-97273717D01*
X163319359Y-97273717D02*
X163280642Y-97235000D01*
X163280642Y-97235000D02*
X163261283Y-97157566D01*
X163261283Y-97157566D02*
X163261283Y-97022056D01*
X163261283Y-97022056D02*
X163280642Y-96944622D01*
X163280642Y-96944622D02*
X163319359Y-96905905D01*
X163319359Y-96905905D02*
X163358076Y-96886547D01*
X163358076Y-96886547D02*
X163435510Y-96886547D01*
X163435510Y-96886547D02*
X163474227Y-96905905D01*
X163474227Y-96905905D02*
X163512944Y-96944622D01*
X163512944Y-96944622D02*
X163532302Y-97022056D01*
X163532302Y-97022056D02*
X163532302Y-97157566D01*
X163532302Y-97157566D02*
X163512944Y-97235000D01*
X163512944Y-97235000D02*
X163474227Y-97273717D01*
X163474227Y-97273717D02*
X163435510Y-97293075D01*
X163435510Y-97293075D02*
X163358076Y-97293075D01*
X163667811Y-96886547D02*
X163919471Y-96886547D01*
X163919471Y-96886547D02*
X163783962Y-97041415D01*
X163783962Y-97041415D02*
X163842037Y-97041415D01*
X163842037Y-97041415D02*
X163880754Y-97060773D01*
X163880754Y-97060773D02*
X163900113Y-97080132D01*
X163900113Y-97080132D02*
X163919471Y-97118849D01*
X163919471Y-97118849D02*
X163919471Y-97215641D01*
X163919471Y-97215641D02*
X163900113Y-97254358D01*
X163900113Y-97254358D02*
X163880754Y-97273717D01*
X163880754Y-97273717D02*
X163842037Y-97293075D01*
X163842037Y-97293075D02*
X163725886Y-97293075D01*
X163725886Y-97293075D02*
X163687169Y-97273717D01*
X163687169Y-97273717D02*
X163667811Y-97254358D01*
D13*
X155124080Y-122526591D02*
X155255997Y-122164151D01*
X155255997Y-122164151D02*
X155394070Y-122214406D01*
X155394070Y-122214406D02*
X155422306Y-122244228D01*
X155422306Y-122244228D02*
X155433283Y-122267769D01*
X155433283Y-122267769D02*
X155437979Y-122308569D01*
X155437979Y-122308569D02*
X155419133Y-122360346D01*
X155419133Y-122360346D02*
X155389311Y-122388582D01*
X155389311Y-122388582D02*
X155365770Y-122399559D01*
X155365770Y-122399559D02*
X155324970Y-122404255D01*
X155324970Y-122404255D02*
X155186898Y-122354001D01*
X155693628Y-122733889D02*
X155635633Y-122517327D01*
X155486520Y-122658508D02*
X155618437Y-122296069D01*
X155618437Y-122296069D02*
X155756509Y-122346323D01*
X155756509Y-122346323D02*
X155784745Y-122376145D01*
X155784745Y-122376145D02*
X155795723Y-122399686D01*
X155795723Y-122399686D02*
X155800418Y-122440486D01*
X155800418Y-122440486D02*
X155781573Y-122492263D01*
X155781573Y-122492263D02*
X155751750Y-122520499D01*
X155751750Y-122520499D02*
X155728209Y-122531476D01*
X155728209Y-122531476D02*
X155687410Y-122536172D01*
X155687410Y-122536172D02*
X155549337Y-122485918D01*
X156164444Y-122514344D02*
X156136208Y-122484522D01*
X156136208Y-122484522D02*
X156084430Y-122465676D01*
X156084430Y-122465676D02*
X156026372Y-122464090D01*
X156026372Y-122464090D02*
X155979290Y-122486045D01*
X155979290Y-122486045D02*
X155949467Y-122514281D01*
X155949467Y-122514281D02*
X155907081Y-122577035D01*
X155907081Y-122577035D02*
X155888236Y-122628812D01*
X155888236Y-122628812D02*
X155880368Y-122704130D01*
X155880368Y-122704130D02*
X155885063Y-122744930D01*
X155885063Y-122744930D02*
X155907018Y-122792011D01*
X155907018Y-122792011D02*
X155952513Y-122828116D01*
X155952513Y-122828116D02*
X155987031Y-122840679D01*
X155987031Y-122840679D02*
X156045090Y-122842266D01*
X156045090Y-122842266D02*
X156068631Y-122831288D01*
X156068631Y-122831288D02*
X156112603Y-122710475D01*
X156112603Y-122710475D02*
X156043567Y-122685348D01*
X156401311Y-122776466D02*
X156446807Y-122812570D01*
X156446807Y-122812570D02*
X156457784Y-122836111D01*
X156457784Y-122836111D02*
X156462479Y-122876910D01*
X156462479Y-122876910D02*
X156443634Y-122928688D01*
X156443634Y-122928688D02*
X156413811Y-122956924D01*
X156413811Y-122956924D02*
X156390271Y-122967901D01*
X156390271Y-122967901D02*
X156349471Y-122972597D01*
X156349471Y-122972597D02*
X156211399Y-122922342D01*
X156211399Y-122922342D02*
X156343316Y-122559903D01*
X156343316Y-122559903D02*
X156464129Y-122603875D01*
X156464129Y-122603875D02*
X156492365Y-122633698D01*
X156492365Y-122633698D02*
X156503342Y-122657239D01*
X156503342Y-122657239D02*
X156508038Y-122698038D01*
X156508038Y-122698038D02*
X156495474Y-122732556D01*
X156495474Y-122732556D02*
X156465652Y-122760793D01*
X156465652Y-122760793D02*
X156442111Y-122771770D01*
X156442111Y-122771770D02*
X156401311Y-122776466D01*
X156401311Y-122776466D02*
X156280498Y-122732493D01*
X156653978Y-122672975D02*
X156861086Y-122748356D01*
X156625615Y-123073105D02*
X156757532Y-122710665D01*
X156849983Y-123154768D02*
X156981900Y-122792329D01*
X156981900Y-122792329D02*
X157057091Y-123230149D01*
X157057091Y-123230149D02*
X157189008Y-122867710D01*
X157331776Y-122958764D02*
X157355317Y-122947787D01*
X157355317Y-122947787D02*
X157396117Y-122943091D01*
X157396117Y-122943091D02*
X157482412Y-122974500D01*
X157482412Y-122974500D02*
X157510648Y-123004323D01*
X157510648Y-123004323D02*
X157521625Y-123027863D01*
X157521625Y-123027863D02*
X157526321Y-123068663D01*
X157526321Y-123068663D02*
X157513757Y-123103181D01*
X157513757Y-123103181D02*
X157477653Y-123148676D01*
X157477653Y-123148676D02*
X157195163Y-123280403D01*
X157195163Y-123280403D02*
X157419531Y-123362066D01*
D10*
X133654195Y-99694495D02*
X133518686Y-99694495D01*
X133518686Y-99907438D02*
X133518686Y-99500910D01*
X133518686Y-99500910D02*
X133712271Y-99500910D01*
X134080082Y-99907438D02*
X133847780Y-99907438D01*
X133963931Y-99907438D02*
X133963931Y-99500910D01*
X133963931Y-99500910D02*
X133925214Y-99558985D01*
X133925214Y-99558985D02*
X133886497Y-99597702D01*
X133886497Y-99597702D02*
X133847780Y-99617061D01*
X134428535Y-99636419D02*
X134428535Y-99907438D01*
X134331743Y-99481552D02*
X134234950Y-99771929D01*
X134234950Y-99771929D02*
X134486611Y-99771929D01*
X143093788Y-90976461D02*
X142900203Y-91111971D01*
X143093788Y-91208763D02*
X142687260Y-91208763D01*
X142687260Y-91208763D02*
X142687260Y-91053895D01*
X142687260Y-91053895D02*
X142706618Y-91015178D01*
X142706618Y-91015178D02*
X142725977Y-90995820D01*
X142725977Y-90995820D02*
X142764694Y-90976461D01*
X142764694Y-90976461D02*
X142822769Y-90976461D01*
X142822769Y-90976461D02*
X142861486Y-90995820D01*
X142861486Y-90995820D02*
X142880845Y-91015178D01*
X142880845Y-91015178D02*
X142900203Y-91053895D01*
X142900203Y-91053895D02*
X142900203Y-91208763D01*
X142687260Y-90628009D02*
X142687260Y-90705443D01*
X142687260Y-90705443D02*
X142706618Y-90744160D01*
X142706618Y-90744160D02*
X142725977Y-90763518D01*
X142725977Y-90763518D02*
X142784052Y-90802235D01*
X142784052Y-90802235D02*
X142861486Y-90821594D01*
X142861486Y-90821594D02*
X143016354Y-90821594D01*
X143016354Y-90821594D02*
X143055071Y-90802235D01*
X143055071Y-90802235D02*
X143074430Y-90782877D01*
X143074430Y-90782877D02*
X143093788Y-90744160D01*
X143093788Y-90744160D02*
X143093788Y-90666726D01*
X143093788Y-90666726D02*
X143074430Y-90628009D01*
X143074430Y-90628009D02*
X143055071Y-90608650D01*
X143055071Y-90608650D02*
X143016354Y-90589292D01*
X143016354Y-90589292D02*
X142919562Y-90589292D01*
X142919562Y-90589292D02*
X142880845Y-90608650D01*
X142880845Y-90608650D02*
X142861486Y-90628009D01*
X142861486Y-90628009D02*
X142842128Y-90666726D01*
X142842128Y-90666726D02*
X142842128Y-90744160D01*
X142842128Y-90744160D02*
X142861486Y-90782877D01*
X142861486Y-90782877D02*
X142880845Y-90802235D01*
X142880845Y-90802235D02*
X142919562Y-90821594D01*
X142687260Y-90240839D02*
X142687260Y-90318273D01*
X142687260Y-90318273D02*
X142706618Y-90356990D01*
X142706618Y-90356990D02*
X142725977Y-90376348D01*
X142725977Y-90376348D02*
X142784052Y-90415065D01*
X142784052Y-90415065D02*
X142861486Y-90434424D01*
X142861486Y-90434424D02*
X143016354Y-90434424D01*
X143016354Y-90434424D02*
X143055071Y-90415065D01*
X143055071Y-90415065D02*
X143074430Y-90395707D01*
X143074430Y-90395707D02*
X143093788Y-90356990D01*
X143093788Y-90356990D02*
X143093788Y-90279556D01*
X143093788Y-90279556D02*
X143074430Y-90240839D01*
X143074430Y-90240839D02*
X143055071Y-90221480D01*
X143055071Y-90221480D02*
X143016354Y-90202122D01*
X143016354Y-90202122D02*
X142919562Y-90202122D01*
X142919562Y-90202122D02*
X142880845Y-90221480D01*
X142880845Y-90221480D02*
X142861486Y-90240839D01*
X142861486Y-90240839D02*
X142842128Y-90279556D01*
X142842128Y-90279556D02*
X142842128Y-90356990D01*
X142842128Y-90356990D02*
X142861486Y-90395707D01*
X142861486Y-90395707D02*
X142880845Y-90415065D01*
X142880845Y-90415065D02*
X142919562Y-90434424D01*
X133754195Y-121814495D02*
X133618686Y-121814495D01*
X133618686Y-122027438D02*
X133618686Y-121620910D01*
X133618686Y-121620910D02*
X133812271Y-121620910D01*
X134180082Y-122027438D02*
X133947780Y-122027438D01*
X134063931Y-122027438D02*
X134063931Y-121620910D01*
X134063931Y-121620910D02*
X134025214Y-121678985D01*
X134025214Y-121678985D02*
X133986497Y-121717702D01*
X133986497Y-121717702D02*
X133947780Y-121737061D01*
X134334950Y-121659627D02*
X134354309Y-121640268D01*
X134354309Y-121640268D02*
X134393026Y-121620910D01*
X134393026Y-121620910D02*
X134489818Y-121620910D01*
X134489818Y-121620910D02*
X134528535Y-121640268D01*
X134528535Y-121640268D02*
X134547894Y-121659627D01*
X134547894Y-121659627D02*
X134567252Y-121698344D01*
X134567252Y-121698344D02*
X134567252Y-121737061D01*
X134567252Y-121737061D02*
X134547894Y-121795136D01*
X134547894Y-121795136D02*
X134315592Y-122027438D01*
X134315592Y-122027438D02*
X134567252Y-122027438D01*
X163593788Y-108776461D02*
X163400203Y-108911971D01*
X163593788Y-109008763D02*
X163187260Y-109008763D01*
X163187260Y-109008763D02*
X163187260Y-108853895D01*
X163187260Y-108853895D02*
X163206618Y-108815178D01*
X163206618Y-108815178D02*
X163225977Y-108795820D01*
X163225977Y-108795820D02*
X163264694Y-108776461D01*
X163264694Y-108776461D02*
X163322769Y-108776461D01*
X163322769Y-108776461D02*
X163361486Y-108795820D01*
X163361486Y-108795820D02*
X163380845Y-108815178D01*
X163380845Y-108815178D02*
X163400203Y-108853895D01*
X163400203Y-108853895D02*
X163400203Y-109008763D01*
X163187260Y-108640952D02*
X163187260Y-108369933D01*
X163187260Y-108369933D02*
X163593788Y-108544160D01*
X163225977Y-108234424D02*
X163206618Y-108215065D01*
X163206618Y-108215065D02*
X163187260Y-108176348D01*
X163187260Y-108176348D02*
X163187260Y-108079556D01*
X163187260Y-108079556D02*
X163206618Y-108040839D01*
X163206618Y-108040839D02*
X163225977Y-108021480D01*
X163225977Y-108021480D02*
X163264694Y-108002122D01*
X163264694Y-108002122D02*
X163303411Y-108002122D01*
X163303411Y-108002122D02*
X163361486Y-108021480D01*
X163361486Y-108021480D02*
X163593788Y-108253782D01*
X163593788Y-108253782D02*
X163593788Y-108002122D01*
X129195079Y-116367559D02*
X129485456Y-116367559D01*
X129485456Y-116367559D02*
X129543532Y-116386918D01*
X129543532Y-116386918D02*
X129582249Y-116425635D01*
X129582249Y-116425635D02*
X129601607Y-116483710D01*
X129601607Y-116483710D02*
X129601607Y-116522427D01*
X129195079Y-116212691D02*
X129195079Y-115961031D01*
X129195079Y-115961031D02*
X129349947Y-116096540D01*
X129349947Y-116096540D02*
X129349947Y-116038465D01*
X129349947Y-116038465D02*
X129369305Y-115999748D01*
X129369305Y-115999748D02*
X129388664Y-115980389D01*
X129388664Y-115980389D02*
X129427381Y-115961031D01*
X129427381Y-115961031D02*
X129524173Y-115961031D01*
X129524173Y-115961031D02*
X129562890Y-115980389D01*
X129562890Y-115980389D02*
X129582249Y-115999748D01*
X129582249Y-115999748D02*
X129601607Y-116038465D01*
X129601607Y-116038465D02*
X129601607Y-116154616D01*
X129601607Y-116154616D02*
X129582249Y-116193333D01*
X129582249Y-116193333D02*
X129562890Y-116212691D01*
X163675132Y-100084358D02*
X163655773Y-100103717D01*
X163655773Y-100103717D02*
X163597698Y-100123075D01*
X163597698Y-100123075D02*
X163558981Y-100123075D01*
X163558981Y-100123075D02*
X163500905Y-100103717D01*
X163500905Y-100103717D02*
X163462188Y-100065000D01*
X163462188Y-100065000D02*
X163442830Y-100026283D01*
X163442830Y-100026283D02*
X163423471Y-99948849D01*
X163423471Y-99948849D02*
X163423471Y-99890773D01*
X163423471Y-99890773D02*
X163442830Y-99813339D01*
X163442830Y-99813339D02*
X163462188Y-99774622D01*
X163462188Y-99774622D02*
X163500905Y-99735905D01*
X163500905Y-99735905D02*
X163558981Y-99716547D01*
X163558981Y-99716547D02*
X163597698Y-99716547D01*
X163597698Y-99716547D02*
X163655773Y-99735905D01*
X163655773Y-99735905D02*
X163675132Y-99755264D01*
X163810641Y-99716547D02*
X164062301Y-99716547D01*
X164062301Y-99716547D02*
X163926792Y-99871415D01*
X163926792Y-99871415D02*
X163984867Y-99871415D01*
X163984867Y-99871415D02*
X164023584Y-99890773D01*
X164023584Y-99890773D02*
X164042943Y-99910132D01*
X164042943Y-99910132D02*
X164062301Y-99948849D01*
X164062301Y-99948849D02*
X164062301Y-100045641D01*
X164062301Y-100045641D02*
X164042943Y-100084358D01*
X164042943Y-100084358D02*
X164023584Y-100103717D01*
X164023584Y-100103717D02*
X163984867Y-100123075D01*
X163984867Y-100123075D02*
X163868716Y-100123075D01*
X163868716Y-100123075D02*
X163829999Y-100103717D01*
X163829999Y-100103717D02*
X163810641Y-100084358D01*
X164449471Y-100123075D02*
X164217169Y-100123075D01*
X164333320Y-100123075D02*
X164333320Y-99716547D01*
X164333320Y-99716547D02*
X164294603Y-99774622D01*
X164294603Y-99774622D02*
X164255886Y-99813339D01*
X164255886Y-99813339D02*
X164217169Y-99832698D01*
X126395079Y-92267559D02*
X126685456Y-92267559D01*
X126685456Y-92267559D02*
X126743532Y-92286918D01*
X126743532Y-92286918D02*
X126782249Y-92325635D01*
X126782249Y-92325635D02*
X126801607Y-92383710D01*
X126801607Y-92383710D02*
X126801607Y-92422427D01*
X126433796Y-92093333D02*
X126414437Y-92073974D01*
X126414437Y-92073974D02*
X126395079Y-92035257D01*
X126395079Y-92035257D02*
X126395079Y-91938465D01*
X126395079Y-91938465D02*
X126414437Y-91899748D01*
X126414437Y-91899748D02*
X126433796Y-91880389D01*
X126433796Y-91880389D02*
X126472513Y-91861031D01*
X126472513Y-91861031D02*
X126511230Y-91861031D01*
X126511230Y-91861031D02*
X126569305Y-91880389D01*
X126569305Y-91880389D02*
X126801607Y-92112691D01*
X126801607Y-92112691D02*
X126801607Y-91861031D01*
X163538988Y-103868721D02*
X163519629Y-103888080D01*
X163519629Y-103888080D02*
X163461554Y-103907438D01*
X163461554Y-103907438D02*
X163422837Y-103907438D01*
X163422837Y-103907438D02*
X163364761Y-103888080D01*
X163364761Y-103888080D02*
X163326044Y-103849363D01*
X163326044Y-103849363D02*
X163306686Y-103810646D01*
X163306686Y-103810646D02*
X163287327Y-103733212D01*
X163287327Y-103733212D02*
X163287327Y-103675136D01*
X163287327Y-103675136D02*
X163306686Y-103597702D01*
X163306686Y-103597702D02*
X163326044Y-103558985D01*
X163326044Y-103558985D02*
X163364761Y-103520268D01*
X163364761Y-103520268D02*
X163422837Y-103500910D01*
X163422837Y-103500910D02*
X163461554Y-103500910D01*
X163461554Y-103500910D02*
X163519629Y-103520268D01*
X163519629Y-103520268D02*
X163538988Y-103539627D01*
X163693855Y-103539627D02*
X163713214Y-103520268D01*
X163713214Y-103520268D02*
X163751931Y-103500910D01*
X163751931Y-103500910D02*
X163848723Y-103500910D01*
X163848723Y-103500910D02*
X163887440Y-103520268D01*
X163887440Y-103520268D02*
X163906799Y-103539627D01*
X163906799Y-103539627D02*
X163926157Y-103578344D01*
X163926157Y-103578344D02*
X163926157Y-103617061D01*
X163926157Y-103617061D02*
X163906799Y-103675136D01*
X163906799Y-103675136D02*
X163674497Y-103907438D01*
X163674497Y-103907438D02*
X163926157Y-103907438D01*
X164293969Y-103500910D02*
X164100384Y-103500910D01*
X164100384Y-103500910D02*
X164081025Y-103694495D01*
X164081025Y-103694495D02*
X164100384Y-103675136D01*
X164100384Y-103675136D02*
X164139101Y-103655778D01*
X164139101Y-103655778D02*
X164235893Y-103655778D01*
X164235893Y-103655778D02*
X164274610Y-103675136D01*
X164274610Y-103675136D02*
X164293969Y-103694495D01*
X164293969Y-103694495D02*
X164313327Y-103733212D01*
X164313327Y-103733212D02*
X164313327Y-103830004D01*
X164313327Y-103830004D02*
X164293969Y-103868721D01*
X164293969Y-103868721D02*
X164274610Y-103888080D01*
X164274610Y-103888080D02*
X164235893Y-103907438D01*
X164235893Y-103907438D02*
X164139101Y-103907438D01*
X164139101Y-103907438D02*
X164100384Y-103888080D01*
X164100384Y-103888080D02*
X164081025Y-103868721D01*
X146774788Y-102407438D02*
X146639278Y-102213853D01*
X146542486Y-102407438D02*
X146542486Y-102000910D01*
X146542486Y-102000910D02*
X146697354Y-102000910D01*
X146697354Y-102000910D02*
X146736071Y-102020268D01*
X146736071Y-102020268D02*
X146755429Y-102039627D01*
X146755429Y-102039627D02*
X146774788Y-102078344D01*
X146774788Y-102078344D02*
X146774788Y-102136419D01*
X146774788Y-102136419D02*
X146755429Y-102175136D01*
X146755429Y-102175136D02*
X146736071Y-102194495D01*
X146736071Y-102194495D02*
X146697354Y-102213853D01*
X146697354Y-102213853D02*
X146542486Y-102213853D01*
X146910297Y-102000910D02*
X147181316Y-102000910D01*
X147181316Y-102000910D02*
X147007089Y-102407438D01*
X147394259Y-102175136D02*
X147355542Y-102155778D01*
X147355542Y-102155778D02*
X147336184Y-102136419D01*
X147336184Y-102136419D02*
X147316825Y-102097702D01*
X147316825Y-102097702D02*
X147316825Y-102078344D01*
X147316825Y-102078344D02*
X147336184Y-102039627D01*
X147336184Y-102039627D02*
X147355542Y-102020268D01*
X147355542Y-102020268D02*
X147394259Y-102000910D01*
X147394259Y-102000910D02*
X147471693Y-102000910D01*
X147471693Y-102000910D02*
X147510410Y-102020268D01*
X147510410Y-102020268D02*
X147529769Y-102039627D01*
X147529769Y-102039627D02*
X147549127Y-102078344D01*
X147549127Y-102078344D02*
X147549127Y-102097702D01*
X147549127Y-102097702D02*
X147529769Y-102136419D01*
X147529769Y-102136419D02*
X147510410Y-102155778D01*
X147510410Y-102155778D02*
X147471693Y-102175136D01*
X147471693Y-102175136D02*
X147394259Y-102175136D01*
X147394259Y-102175136D02*
X147355542Y-102194495D01*
X147355542Y-102194495D02*
X147336184Y-102213853D01*
X147336184Y-102213853D02*
X147316825Y-102252570D01*
X147316825Y-102252570D02*
X147316825Y-102330004D01*
X147316825Y-102330004D02*
X147336184Y-102368721D01*
X147336184Y-102368721D02*
X147355542Y-102388080D01*
X147355542Y-102388080D02*
X147394259Y-102407438D01*
X147394259Y-102407438D02*
X147471693Y-102407438D01*
X147471693Y-102407438D02*
X147510410Y-102388080D01*
X147510410Y-102388080D02*
X147529769Y-102368721D01*
X147529769Y-102368721D02*
X147549127Y-102330004D01*
X147549127Y-102330004D02*
X147549127Y-102252570D01*
X147549127Y-102252570D02*
X147529769Y-102213853D01*
X147529769Y-102213853D02*
X147510410Y-102194495D01*
X147510410Y-102194495D02*
X147471693Y-102175136D01*
X156175132Y-117684358D02*
X156155773Y-117703717D01*
X156155773Y-117703717D02*
X156097698Y-117723075D01*
X156097698Y-117723075D02*
X156058981Y-117723075D01*
X156058981Y-117723075D02*
X156000905Y-117703717D01*
X156000905Y-117703717D02*
X155962188Y-117665000D01*
X155962188Y-117665000D02*
X155942830Y-117626283D01*
X155942830Y-117626283D02*
X155923471Y-117548849D01*
X155923471Y-117548849D02*
X155923471Y-117490773D01*
X155923471Y-117490773D02*
X155942830Y-117413339D01*
X155942830Y-117413339D02*
X155962188Y-117374622D01*
X155962188Y-117374622D02*
X156000905Y-117335905D01*
X156000905Y-117335905D02*
X156058981Y-117316547D01*
X156058981Y-117316547D02*
X156097698Y-117316547D01*
X156097698Y-117316547D02*
X156155773Y-117335905D01*
X156155773Y-117335905D02*
X156175132Y-117355264D01*
X156310641Y-117316547D02*
X156562301Y-117316547D01*
X156562301Y-117316547D02*
X156426792Y-117471415D01*
X156426792Y-117471415D02*
X156484867Y-117471415D01*
X156484867Y-117471415D02*
X156523584Y-117490773D01*
X156523584Y-117490773D02*
X156542943Y-117510132D01*
X156542943Y-117510132D02*
X156562301Y-117548849D01*
X156562301Y-117548849D02*
X156562301Y-117645641D01*
X156562301Y-117645641D02*
X156542943Y-117684358D01*
X156542943Y-117684358D02*
X156523584Y-117703717D01*
X156523584Y-117703717D02*
X156484867Y-117723075D01*
X156484867Y-117723075D02*
X156368716Y-117723075D01*
X156368716Y-117723075D02*
X156329999Y-117703717D01*
X156329999Y-117703717D02*
X156310641Y-117684358D01*
X156910754Y-117316547D02*
X156833320Y-117316547D01*
X156833320Y-117316547D02*
X156794603Y-117335905D01*
X156794603Y-117335905D02*
X156775245Y-117355264D01*
X156775245Y-117355264D02*
X156736528Y-117413339D01*
X156736528Y-117413339D02*
X156717169Y-117490773D01*
X156717169Y-117490773D02*
X156717169Y-117645641D01*
X156717169Y-117645641D02*
X156736528Y-117684358D01*
X156736528Y-117684358D02*
X156755886Y-117703717D01*
X156755886Y-117703717D02*
X156794603Y-117723075D01*
X156794603Y-117723075D02*
X156872037Y-117723075D01*
X156872037Y-117723075D02*
X156910754Y-117703717D01*
X156910754Y-117703717D02*
X156930113Y-117684358D01*
X156930113Y-117684358D02*
X156949471Y-117645641D01*
X156949471Y-117645641D02*
X156949471Y-117548849D01*
X156949471Y-117548849D02*
X156930113Y-117510132D01*
X156930113Y-117510132D02*
X156910754Y-117490773D01*
X156910754Y-117490773D02*
X156872037Y-117471415D01*
X156872037Y-117471415D02*
X156794603Y-117471415D01*
X156794603Y-117471415D02*
X156755886Y-117490773D01*
X156755886Y-117490773D02*
X156736528Y-117510132D01*
X156736528Y-117510132D02*
X156717169Y-117548849D01*
D15*
X168287246Y-102375118D02*
X168590976Y-102375118D01*
X168590976Y-102375118D02*
X168651722Y-102395367D01*
X168651722Y-102395367D02*
X168692220Y-102435864D01*
X168692220Y-102435864D02*
X168712468Y-102496610D01*
X168712468Y-102496610D02*
X168712468Y-102537108D01*
X168712468Y-101949896D02*
X168712468Y-102192880D01*
X168712468Y-102071388D02*
X168287246Y-102071388D01*
X168287246Y-102071388D02*
X168347992Y-102111885D01*
X168347992Y-102111885D02*
X168388490Y-102152383D01*
X168388490Y-102152383D02*
X168408738Y-102192880D01*
D10*
X147245225Y-121872619D02*
X146838697Y-121872619D01*
X146838697Y-121872619D02*
X146838697Y-121775827D01*
X146838697Y-121775827D02*
X146858055Y-121717751D01*
X146858055Y-121717751D02*
X146896772Y-121679034D01*
X146896772Y-121679034D02*
X146935489Y-121659676D01*
X146935489Y-121659676D02*
X147012923Y-121640317D01*
X147012923Y-121640317D02*
X147070999Y-121640317D01*
X147070999Y-121640317D02*
X147148433Y-121659676D01*
X147148433Y-121659676D02*
X147187150Y-121679034D01*
X147187150Y-121679034D02*
X147225867Y-121717751D01*
X147225867Y-121717751D02*
X147245225Y-121775827D01*
X147245225Y-121775827D02*
X147245225Y-121872619D01*
X146877414Y-121485450D02*
X146858055Y-121466091D01*
X146858055Y-121466091D02*
X146838697Y-121427374D01*
X146838697Y-121427374D02*
X146838697Y-121330582D01*
X146838697Y-121330582D02*
X146858055Y-121291865D01*
X146858055Y-121291865D02*
X146877414Y-121272506D01*
X146877414Y-121272506D02*
X146916131Y-121253148D01*
X146916131Y-121253148D02*
X146954848Y-121253148D01*
X146954848Y-121253148D02*
X147012923Y-121272506D01*
X147012923Y-121272506D02*
X147245225Y-121504808D01*
X147245225Y-121504808D02*
X147245225Y-121253148D01*
X146974206Y-120904695D02*
X147245225Y-120904695D01*
X146819339Y-121001487D02*
X147109716Y-121098280D01*
X147109716Y-121098280D02*
X147109716Y-120846619D01*
D13*
X165551682Y-102122779D02*
X165827182Y-102122779D01*
X165827182Y-102122779D02*
X165882282Y-102141146D01*
X165882282Y-102141146D02*
X165919016Y-102177879D01*
X165919016Y-102177879D02*
X165937382Y-102232979D01*
X165937382Y-102232979D02*
X165937382Y-102269713D01*
X165937382Y-101939112D02*
X165551682Y-101939112D01*
X165551682Y-101939112D02*
X165551682Y-101792179D01*
X165551682Y-101792179D02*
X165570049Y-101755446D01*
X165570049Y-101755446D02*
X165588416Y-101737079D01*
X165588416Y-101737079D02*
X165625149Y-101718712D01*
X165625149Y-101718712D02*
X165680249Y-101718712D01*
X165680249Y-101718712D02*
X165716982Y-101737079D01*
X165716982Y-101737079D02*
X165735349Y-101755446D01*
X165735349Y-101755446D02*
X165753716Y-101792179D01*
X165753716Y-101792179D02*
X165753716Y-101939112D01*
X165588416Y-101571779D02*
X165570049Y-101553412D01*
X165570049Y-101553412D02*
X165551682Y-101516679D01*
X165551682Y-101516679D02*
X165551682Y-101424846D01*
X165551682Y-101424846D02*
X165570049Y-101388112D01*
X165570049Y-101388112D02*
X165588416Y-101369746D01*
X165588416Y-101369746D02*
X165625149Y-101351379D01*
X165625149Y-101351379D02*
X165661882Y-101351379D01*
X165661882Y-101351379D02*
X165716982Y-101369746D01*
X165716982Y-101369746D02*
X165937382Y-101590146D01*
X165937382Y-101590146D02*
X165937382Y-101351379D01*
X165551682Y-101222813D02*
X165551682Y-100984046D01*
X165551682Y-100984046D02*
X165698616Y-101112613D01*
X165698616Y-101112613D02*
X165698616Y-101057513D01*
X165698616Y-101057513D02*
X165716982Y-101020779D01*
X165716982Y-101020779D02*
X165735349Y-101002413D01*
X165735349Y-101002413D02*
X165772082Y-100984046D01*
X165772082Y-100984046D02*
X165863916Y-100984046D01*
X165863916Y-100984046D02*
X165900649Y-101002413D01*
X165900649Y-101002413D02*
X165919016Y-101020779D01*
X165919016Y-101020779D02*
X165937382Y-101057513D01*
X165937382Y-101057513D02*
X165937382Y-101167713D01*
X165937382Y-101167713D02*
X165919016Y-101204446D01*
X165919016Y-101204446D02*
X165900649Y-101222813D01*
D10*
X138573988Y-92607438D02*
X138438478Y-92413853D01*
X138341686Y-92607438D02*
X138341686Y-92200910D01*
X138341686Y-92200910D02*
X138496554Y-92200910D01*
X138496554Y-92200910D02*
X138535271Y-92220268D01*
X138535271Y-92220268D02*
X138554629Y-92239627D01*
X138554629Y-92239627D02*
X138573988Y-92278344D01*
X138573988Y-92278344D02*
X138573988Y-92336419D01*
X138573988Y-92336419D02*
X138554629Y-92375136D01*
X138554629Y-92375136D02*
X138535271Y-92394495D01*
X138535271Y-92394495D02*
X138496554Y-92413853D01*
X138496554Y-92413853D02*
X138341686Y-92413853D01*
X138922440Y-92200910D02*
X138845006Y-92200910D01*
X138845006Y-92200910D02*
X138806289Y-92220268D01*
X138806289Y-92220268D02*
X138786931Y-92239627D01*
X138786931Y-92239627D02*
X138748214Y-92297702D01*
X138748214Y-92297702D02*
X138728855Y-92375136D01*
X138728855Y-92375136D02*
X138728855Y-92530004D01*
X138728855Y-92530004D02*
X138748214Y-92568721D01*
X138748214Y-92568721D02*
X138767572Y-92588080D01*
X138767572Y-92588080D02*
X138806289Y-92607438D01*
X138806289Y-92607438D02*
X138883723Y-92607438D01*
X138883723Y-92607438D02*
X138922440Y-92588080D01*
X138922440Y-92588080D02*
X138941799Y-92568721D01*
X138941799Y-92568721D02*
X138961157Y-92530004D01*
X138961157Y-92530004D02*
X138961157Y-92433212D01*
X138961157Y-92433212D02*
X138941799Y-92394495D01*
X138941799Y-92394495D02*
X138922440Y-92375136D01*
X138922440Y-92375136D02*
X138883723Y-92355778D01*
X138883723Y-92355778D02*
X138806289Y-92355778D01*
X138806289Y-92355778D02*
X138767572Y-92375136D01*
X138767572Y-92375136D02*
X138748214Y-92394495D01*
X138748214Y-92394495D02*
X138728855Y-92433212D01*
X139116025Y-92239627D02*
X139135384Y-92220268D01*
X139135384Y-92220268D02*
X139174101Y-92200910D01*
X139174101Y-92200910D02*
X139270893Y-92200910D01*
X139270893Y-92200910D02*
X139309610Y-92220268D01*
X139309610Y-92220268D02*
X139328969Y-92239627D01*
X139328969Y-92239627D02*
X139348327Y-92278344D01*
X139348327Y-92278344D02*
X139348327Y-92317061D01*
X139348327Y-92317061D02*
X139328969Y-92375136D01*
X139328969Y-92375136D02*
X139096667Y-92607438D01*
X139096667Y-92607438D02*
X139348327Y-92607438D01*
X132493788Y-90976461D02*
X132300203Y-91111971D01*
X132493788Y-91208763D02*
X132087260Y-91208763D01*
X132087260Y-91208763D02*
X132087260Y-91053895D01*
X132087260Y-91053895D02*
X132106618Y-91015178D01*
X132106618Y-91015178D02*
X132125977Y-90995820D01*
X132125977Y-90995820D02*
X132164694Y-90976461D01*
X132164694Y-90976461D02*
X132222769Y-90976461D01*
X132222769Y-90976461D02*
X132261486Y-90995820D01*
X132261486Y-90995820D02*
X132280845Y-91015178D01*
X132280845Y-91015178D02*
X132300203Y-91053895D01*
X132300203Y-91053895D02*
X132300203Y-91208763D01*
X132087260Y-90608650D02*
X132087260Y-90802235D01*
X132087260Y-90802235D02*
X132280845Y-90821594D01*
X132280845Y-90821594D02*
X132261486Y-90802235D01*
X132261486Y-90802235D02*
X132242128Y-90763518D01*
X132242128Y-90763518D02*
X132242128Y-90666726D01*
X132242128Y-90666726D02*
X132261486Y-90628009D01*
X132261486Y-90628009D02*
X132280845Y-90608650D01*
X132280845Y-90608650D02*
X132319562Y-90589292D01*
X132319562Y-90589292D02*
X132416354Y-90589292D01*
X132416354Y-90589292D02*
X132455071Y-90608650D01*
X132455071Y-90608650D02*
X132474430Y-90628009D01*
X132474430Y-90628009D02*
X132493788Y-90666726D01*
X132493788Y-90666726D02*
X132493788Y-90763518D01*
X132493788Y-90763518D02*
X132474430Y-90802235D01*
X132474430Y-90802235D02*
X132455071Y-90821594D01*
X132087260Y-90240839D02*
X132087260Y-90318273D01*
X132087260Y-90318273D02*
X132106618Y-90356990D01*
X132106618Y-90356990D02*
X132125977Y-90376348D01*
X132125977Y-90376348D02*
X132184052Y-90415065D01*
X132184052Y-90415065D02*
X132261486Y-90434424D01*
X132261486Y-90434424D02*
X132416354Y-90434424D01*
X132416354Y-90434424D02*
X132455071Y-90415065D01*
X132455071Y-90415065D02*
X132474430Y-90395707D01*
X132474430Y-90395707D02*
X132493788Y-90356990D01*
X132493788Y-90356990D02*
X132493788Y-90279556D01*
X132493788Y-90279556D02*
X132474430Y-90240839D01*
X132474430Y-90240839D02*
X132455071Y-90221480D01*
X132455071Y-90221480D02*
X132416354Y-90202122D01*
X132416354Y-90202122D02*
X132319562Y-90202122D01*
X132319562Y-90202122D02*
X132280845Y-90221480D01*
X132280845Y-90221480D02*
X132261486Y-90240839D01*
X132261486Y-90240839D02*
X132242128Y-90279556D01*
X132242128Y-90279556D02*
X132242128Y-90356990D01*
X132242128Y-90356990D02*
X132261486Y-90395707D01*
X132261486Y-90395707D02*
X132280845Y-90415065D01*
X132280845Y-90415065D02*
X132319562Y-90434424D01*
D13*
X165123023Y-119855006D02*
X164864138Y-119760779D01*
X164864138Y-119760779D02*
X164818642Y-119724675D01*
X164818642Y-119724675D02*
X164796688Y-119677593D01*
X164796688Y-119677593D02*
X164798274Y-119619534D01*
X164798274Y-119619534D02*
X164810838Y-119585016D01*
X164697766Y-119895679D02*
X165060205Y-120027596D01*
X165060205Y-120027596D02*
X165009951Y-120165668D01*
X165009951Y-120165668D02*
X164980128Y-120193905D01*
X164980128Y-120193905D02*
X164956588Y-120204882D01*
X164956588Y-120204882D02*
X164915788Y-120209577D01*
X164915788Y-120209577D02*
X164864011Y-120190732D01*
X164864011Y-120190732D02*
X164835775Y-120160909D01*
X164835775Y-120160909D02*
X164824797Y-120137369D01*
X164824797Y-120137369D02*
X164820102Y-120096569D01*
X164820102Y-120096569D02*
X164870356Y-119958497D01*
X164496749Y-120447968D02*
X164572130Y-120240859D01*
X164534440Y-120344413D02*
X164896879Y-120476331D01*
X164896879Y-120476331D02*
X164857666Y-120422967D01*
X164857666Y-120422967D02*
X164835711Y-120375886D01*
X164835711Y-120375886D02*
X164831016Y-120335086D01*
X164628476Y-120730457D02*
X164658299Y-120702221D01*
X164658299Y-120702221D02*
X164681840Y-120691243D01*
X164681840Y-120691243D02*
X164722639Y-120686548D01*
X164722639Y-120686548D02*
X164739898Y-120692830D01*
X164739898Y-120692830D02*
X164768135Y-120722652D01*
X164768135Y-120722652D02*
X164779112Y-120746193D01*
X164779112Y-120746193D02*
X164783807Y-120786993D01*
X164783807Y-120786993D02*
X164758680Y-120856029D01*
X164758680Y-120856029D02*
X164728858Y-120884265D01*
X164728858Y-120884265D02*
X164705317Y-120895242D01*
X164705317Y-120895242D02*
X164664517Y-120899938D01*
X164664517Y-120899938D02*
X164647258Y-120893656D01*
X164647258Y-120893656D02*
X164619022Y-120863833D01*
X164619022Y-120863833D02*
X164608045Y-120840293D01*
X164608045Y-120840293D02*
X164603349Y-120799493D01*
X164603349Y-120799493D02*
X164628476Y-120730457D01*
X164628476Y-120730457D02*
X164623781Y-120689657D01*
X164623781Y-120689657D02*
X164612803Y-120666116D01*
X164612803Y-120666116D02*
X164584567Y-120636294D01*
X164584567Y-120636294D02*
X164515531Y-120611167D01*
X164515531Y-120611167D02*
X164474731Y-120615862D01*
X164474731Y-120615862D02*
X164451191Y-120626839D01*
X164451191Y-120626839D02*
X164421368Y-120655076D01*
X164421368Y-120655076D02*
X164396241Y-120724112D01*
X164396241Y-120724112D02*
X164400936Y-120764911D01*
X164400936Y-120764911D02*
X164411914Y-120788452D01*
X164411914Y-120788452D02*
X164440150Y-120818275D01*
X164440150Y-120818275D02*
X164509186Y-120843402D01*
X164509186Y-120843402D02*
X164549986Y-120838706D01*
X164549986Y-120838706D02*
X164573527Y-120827729D01*
X164573527Y-120827729D02*
X164603349Y-120799493D01*
D10*
X147974788Y-116007438D02*
X147839278Y-115813853D01*
X147742486Y-116007438D02*
X147742486Y-115600910D01*
X147742486Y-115600910D02*
X147897354Y-115600910D01*
X147897354Y-115600910D02*
X147936071Y-115620268D01*
X147936071Y-115620268D02*
X147955429Y-115639627D01*
X147955429Y-115639627D02*
X147974788Y-115678344D01*
X147974788Y-115678344D02*
X147974788Y-115736419D01*
X147974788Y-115736419D02*
X147955429Y-115775136D01*
X147955429Y-115775136D02*
X147936071Y-115794495D01*
X147936071Y-115794495D02*
X147897354Y-115813853D01*
X147897354Y-115813853D02*
X147742486Y-115813853D01*
X148110297Y-115600910D02*
X148381316Y-115600910D01*
X148381316Y-115600910D02*
X148207089Y-116007438D01*
X148497467Y-115600910D02*
X148749127Y-115600910D01*
X148749127Y-115600910D02*
X148613618Y-115755778D01*
X148613618Y-115755778D02*
X148671693Y-115755778D01*
X148671693Y-115755778D02*
X148710410Y-115775136D01*
X148710410Y-115775136D02*
X148729769Y-115794495D01*
X148729769Y-115794495D02*
X148749127Y-115833212D01*
X148749127Y-115833212D02*
X148749127Y-115930004D01*
X148749127Y-115930004D02*
X148729769Y-115968721D01*
X148729769Y-115968721D02*
X148710410Y-115988080D01*
X148710410Y-115988080D02*
X148671693Y-116007438D01*
X148671693Y-116007438D02*
X148555542Y-116007438D01*
X148555542Y-116007438D02*
X148516825Y-115988080D01*
X148516825Y-115988080D02*
X148497467Y-115968721D01*
D13*
X169660554Y-103944157D02*
X169936054Y-103944157D01*
X169936054Y-103944157D02*
X169991154Y-103962524D01*
X169991154Y-103962524D02*
X170027888Y-103999257D01*
X170027888Y-103999257D02*
X170046254Y-104054357D01*
X170046254Y-104054357D02*
X170046254Y-104091091D01*
X170046254Y-103760490D02*
X169660554Y-103760490D01*
X169660554Y-103760490D02*
X169660554Y-103613557D01*
X169660554Y-103613557D02*
X169678921Y-103576824D01*
X169678921Y-103576824D02*
X169697288Y-103558457D01*
X169697288Y-103558457D02*
X169734021Y-103540090D01*
X169734021Y-103540090D02*
X169789121Y-103540090D01*
X169789121Y-103540090D02*
X169825854Y-103558457D01*
X169825854Y-103558457D02*
X169844221Y-103576824D01*
X169844221Y-103576824D02*
X169862588Y-103613557D01*
X169862588Y-103613557D02*
X169862588Y-103760490D01*
X170046254Y-103172757D02*
X170046254Y-103393157D01*
X170046254Y-103282957D02*
X169660554Y-103282957D01*
X169660554Y-103282957D02*
X169715654Y-103319690D01*
X169715654Y-103319690D02*
X169752388Y-103356424D01*
X169752388Y-103356424D02*
X169770754Y-103393157D01*
D10*
X157275132Y-94984358D02*
X157255773Y-95003717D01*
X157255773Y-95003717D02*
X157197698Y-95023075D01*
X157197698Y-95023075D02*
X157158981Y-95023075D01*
X157158981Y-95023075D02*
X157100905Y-95003717D01*
X157100905Y-95003717D02*
X157062188Y-94965000D01*
X157062188Y-94965000D02*
X157042830Y-94926283D01*
X157042830Y-94926283D02*
X157023471Y-94848849D01*
X157023471Y-94848849D02*
X157023471Y-94790773D01*
X157023471Y-94790773D02*
X157042830Y-94713339D01*
X157042830Y-94713339D02*
X157062188Y-94674622D01*
X157062188Y-94674622D02*
X157100905Y-94635905D01*
X157100905Y-94635905D02*
X157158981Y-94616547D01*
X157158981Y-94616547D02*
X157197698Y-94616547D01*
X157197698Y-94616547D02*
X157255773Y-94635905D01*
X157255773Y-94635905D02*
X157275132Y-94655264D01*
X157429999Y-94655264D02*
X157449358Y-94635905D01*
X157449358Y-94635905D02*
X157488075Y-94616547D01*
X157488075Y-94616547D02*
X157584867Y-94616547D01*
X157584867Y-94616547D02*
X157623584Y-94635905D01*
X157623584Y-94635905D02*
X157642943Y-94655264D01*
X157642943Y-94655264D02*
X157662301Y-94693981D01*
X157662301Y-94693981D02*
X157662301Y-94732698D01*
X157662301Y-94732698D02*
X157642943Y-94790773D01*
X157642943Y-94790773D02*
X157410641Y-95023075D01*
X157410641Y-95023075D02*
X157662301Y-95023075D01*
X157855886Y-95023075D02*
X157933320Y-95023075D01*
X157933320Y-95023075D02*
X157972037Y-95003717D01*
X157972037Y-95003717D02*
X157991396Y-94984358D01*
X157991396Y-94984358D02*
X158030113Y-94926283D01*
X158030113Y-94926283D02*
X158049471Y-94848849D01*
X158049471Y-94848849D02*
X158049471Y-94693981D01*
X158049471Y-94693981D02*
X158030113Y-94655264D01*
X158030113Y-94655264D02*
X158010754Y-94635905D01*
X158010754Y-94635905D02*
X157972037Y-94616547D01*
X157972037Y-94616547D02*
X157894603Y-94616547D01*
X157894603Y-94616547D02*
X157855886Y-94635905D01*
X157855886Y-94635905D02*
X157836528Y-94655264D01*
X157836528Y-94655264D02*
X157817169Y-94693981D01*
X157817169Y-94693981D02*
X157817169Y-94790773D01*
X157817169Y-94790773D02*
X157836528Y-94829490D01*
X157836528Y-94829490D02*
X157855886Y-94848849D01*
X157855886Y-94848849D02*
X157894603Y-94868207D01*
X157894603Y-94868207D02*
X157972037Y-94868207D01*
X157972037Y-94868207D02*
X158010754Y-94848849D01*
X158010754Y-94848849D02*
X158030113Y-94829490D01*
X158030113Y-94829490D02*
X158049471Y-94790773D01*
D12*
X134672915Y-105945372D02*
X134546238Y-105945372D01*
X134546238Y-106144436D02*
X134546238Y-105764405D01*
X134546238Y-105764405D02*
X134727205Y-105764405D01*
X134998656Y-105945372D02*
X135052946Y-105963469D01*
X135052946Y-105963469D02*
X135071043Y-105981566D01*
X135071043Y-105981566D02*
X135089140Y-106017759D01*
X135089140Y-106017759D02*
X135089140Y-106072049D01*
X135089140Y-106072049D02*
X135071043Y-106108243D01*
X135071043Y-106108243D02*
X135052946Y-106126340D01*
X135052946Y-106126340D02*
X135016753Y-106144436D01*
X135016753Y-106144436D02*
X134871979Y-106144436D01*
X134871979Y-106144436D02*
X134871979Y-105764405D01*
X134871979Y-105764405D02*
X134998656Y-105764405D01*
X134998656Y-105764405D02*
X135034850Y-105782502D01*
X135034850Y-105782502D02*
X135052946Y-105800599D01*
X135052946Y-105800599D02*
X135071043Y-105836792D01*
X135071043Y-105836792D02*
X135071043Y-105872986D01*
X135071043Y-105872986D02*
X135052946Y-105909179D01*
X135052946Y-105909179D02*
X135034850Y-105927276D01*
X135034850Y-105927276D02*
X134998656Y-105945372D01*
X134998656Y-105945372D02*
X134871979Y-105945372D01*
X135233913Y-105800599D02*
X135252010Y-105782502D01*
X135252010Y-105782502D02*
X135288204Y-105764405D01*
X135288204Y-105764405D02*
X135378687Y-105764405D01*
X135378687Y-105764405D02*
X135414881Y-105782502D01*
X135414881Y-105782502D02*
X135432977Y-105800599D01*
X135432977Y-105800599D02*
X135451074Y-105836792D01*
X135451074Y-105836792D02*
X135451074Y-105872986D01*
X135451074Y-105872986D02*
X135432977Y-105927276D01*
X135432977Y-105927276D02*
X135215817Y-106144436D01*
X135215817Y-106144436D02*
X135451074Y-106144436D01*
X135595847Y-105800599D02*
X135613944Y-105782502D01*
X135613944Y-105782502D02*
X135650138Y-105764405D01*
X135650138Y-105764405D02*
X135740621Y-105764405D01*
X135740621Y-105764405D02*
X135776815Y-105782502D01*
X135776815Y-105782502D02*
X135794911Y-105800599D01*
X135794911Y-105800599D02*
X135813008Y-105836792D01*
X135813008Y-105836792D02*
X135813008Y-105872986D01*
X135813008Y-105872986D02*
X135794911Y-105927276D01*
X135794911Y-105927276D02*
X135577751Y-106144436D01*
X135577751Y-106144436D02*
X135813008Y-106144436D01*
D10*
X133654195Y-116534495D02*
X133518686Y-116534495D01*
X133518686Y-116747438D02*
X133518686Y-116340910D01*
X133518686Y-116340910D02*
X133712271Y-116340910D01*
X134080082Y-116747438D02*
X133847780Y-116747438D01*
X133963931Y-116747438D02*
X133963931Y-116340910D01*
X133963931Y-116340910D02*
X133925214Y-116398985D01*
X133925214Y-116398985D02*
X133886497Y-116437702D01*
X133886497Y-116437702D02*
X133847780Y-116457061D01*
X134467252Y-116747438D02*
X134234950Y-116747438D01*
X134351101Y-116747438D02*
X134351101Y-116340910D01*
X134351101Y-116340910D02*
X134312384Y-116398985D01*
X134312384Y-116398985D02*
X134273667Y-116437702D01*
X134273667Y-116437702D02*
X134234950Y-116457061D01*
X145193788Y-90976461D02*
X145000203Y-91111971D01*
X145193788Y-91208763D02*
X144787260Y-91208763D01*
X144787260Y-91208763D02*
X144787260Y-91053895D01*
X144787260Y-91053895D02*
X144806618Y-91015178D01*
X144806618Y-91015178D02*
X144825977Y-90995820D01*
X144825977Y-90995820D02*
X144864694Y-90976461D01*
X144864694Y-90976461D02*
X144922769Y-90976461D01*
X144922769Y-90976461D02*
X144961486Y-90995820D01*
X144961486Y-90995820D02*
X144980845Y-91015178D01*
X144980845Y-91015178D02*
X145000203Y-91053895D01*
X145000203Y-91053895D02*
X145000203Y-91208763D01*
X144787260Y-90628009D02*
X144787260Y-90705443D01*
X144787260Y-90705443D02*
X144806618Y-90744160D01*
X144806618Y-90744160D02*
X144825977Y-90763518D01*
X144825977Y-90763518D02*
X144884052Y-90802235D01*
X144884052Y-90802235D02*
X144961486Y-90821594D01*
X144961486Y-90821594D02*
X145116354Y-90821594D01*
X145116354Y-90821594D02*
X145155071Y-90802235D01*
X145155071Y-90802235D02*
X145174430Y-90782877D01*
X145174430Y-90782877D02*
X145193788Y-90744160D01*
X145193788Y-90744160D02*
X145193788Y-90666726D01*
X145193788Y-90666726D02*
X145174430Y-90628009D01*
X145174430Y-90628009D02*
X145155071Y-90608650D01*
X145155071Y-90608650D02*
X145116354Y-90589292D01*
X145116354Y-90589292D02*
X145019562Y-90589292D01*
X145019562Y-90589292D02*
X144980845Y-90608650D01*
X144980845Y-90608650D02*
X144961486Y-90628009D01*
X144961486Y-90628009D02*
X144942128Y-90666726D01*
X144942128Y-90666726D02*
X144942128Y-90744160D01*
X144942128Y-90744160D02*
X144961486Y-90782877D01*
X144961486Y-90782877D02*
X144980845Y-90802235D01*
X144980845Y-90802235D02*
X145019562Y-90821594D01*
X144787260Y-90453782D02*
X144787260Y-90182763D01*
X144787260Y-90182763D02*
X145193788Y-90356990D01*
D12*
X134672915Y-115411972D02*
X134546238Y-115411972D01*
X134546238Y-115611036D02*
X134546238Y-115231005D01*
X134546238Y-115231005D02*
X134727205Y-115231005D01*
X134998656Y-115411972D02*
X135052946Y-115430069D01*
X135052946Y-115430069D02*
X135071043Y-115448166D01*
X135071043Y-115448166D02*
X135089140Y-115484359D01*
X135089140Y-115484359D02*
X135089140Y-115538649D01*
X135089140Y-115538649D02*
X135071043Y-115574843D01*
X135071043Y-115574843D02*
X135052946Y-115592940D01*
X135052946Y-115592940D02*
X135016753Y-115611036D01*
X135016753Y-115611036D02*
X134871979Y-115611036D01*
X134871979Y-115611036D02*
X134871979Y-115231005D01*
X134871979Y-115231005D02*
X134998656Y-115231005D01*
X134998656Y-115231005D02*
X135034850Y-115249102D01*
X135034850Y-115249102D02*
X135052946Y-115267199D01*
X135052946Y-115267199D02*
X135071043Y-115303392D01*
X135071043Y-115303392D02*
X135071043Y-115339586D01*
X135071043Y-115339586D02*
X135052946Y-115375779D01*
X135052946Y-115375779D02*
X135034850Y-115393876D01*
X135034850Y-115393876D02*
X134998656Y-115411972D01*
X134998656Y-115411972D02*
X134871979Y-115411972D01*
X135451074Y-115611036D02*
X135233913Y-115611036D01*
X135342494Y-115611036D02*
X135342494Y-115231005D01*
X135342494Y-115231005D02*
X135306300Y-115285295D01*
X135306300Y-115285295D02*
X135270107Y-115321489D01*
X135270107Y-115321489D02*
X135233913Y-115339586D01*
X135668234Y-115393876D02*
X135632041Y-115375779D01*
X135632041Y-115375779D02*
X135613944Y-115357682D01*
X135613944Y-115357682D02*
X135595847Y-115321489D01*
X135595847Y-115321489D02*
X135595847Y-115303392D01*
X135595847Y-115303392D02*
X135613944Y-115267199D01*
X135613944Y-115267199D02*
X135632041Y-115249102D01*
X135632041Y-115249102D02*
X135668234Y-115231005D01*
X135668234Y-115231005D02*
X135740621Y-115231005D01*
X135740621Y-115231005D02*
X135776815Y-115249102D01*
X135776815Y-115249102D02*
X135794911Y-115267199D01*
X135794911Y-115267199D02*
X135813008Y-115303392D01*
X135813008Y-115303392D02*
X135813008Y-115321489D01*
X135813008Y-115321489D02*
X135794911Y-115357682D01*
X135794911Y-115357682D02*
X135776815Y-115375779D01*
X135776815Y-115375779D02*
X135740621Y-115393876D01*
X135740621Y-115393876D02*
X135668234Y-115393876D01*
X135668234Y-115393876D02*
X135632041Y-115411972D01*
X135632041Y-115411972D02*
X135613944Y-115430069D01*
X135613944Y-115430069D02*
X135595847Y-115466263D01*
X135595847Y-115466263D02*
X135595847Y-115538649D01*
X135595847Y-115538649D02*
X135613944Y-115574843D01*
X135613944Y-115574843D02*
X135632041Y-115592940D01*
X135632041Y-115592940D02*
X135668234Y-115611036D01*
X135668234Y-115611036D02*
X135740621Y-115611036D01*
X135740621Y-115611036D02*
X135776815Y-115592940D01*
X135776815Y-115592940D02*
X135794911Y-115574843D01*
X135794911Y-115574843D02*
X135813008Y-115538649D01*
X135813008Y-115538649D02*
X135813008Y-115466263D01*
X135813008Y-115466263D02*
X135794911Y-115430069D01*
X135794911Y-115430069D02*
X135776815Y-115411972D01*
X135776815Y-115411972D02*
X135740621Y-115393876D01*
X140412479Y-122941236D02*
X140412479Y-122561205D01*
X140412479Y-122561205D02*
X140502963Y-122561205D01*
X140502963Y-122561205D02*
X140557253Y-122579302D01*
X140557253Y-122579302D02*
X140593446Y-122615495D01*
X140593446Y-122615495D02*
X140611543Y-122651689D01*
X140611543Y-122651689D02*
X140629640Y-122724076D01*
X140629640Y-122724076D02*
X140629640Y-122778366D01*
X140629640Y-122778366D02*
X140611543Y-122850753D01*
X140611543Y-122850753D02*
X140593446Y-122886946D01*
X140593446Y-122886946D02*
X140557253Y-122923140D01*
X140557253Y-122923140D02*
X140502963Y-122941236D01*
X140502963Y-122941236D02*
X140412479Y-122941236D01*
X140991574Y-122941236D02*
X140774413Y-122941236D01*
X140882994Y-122941236D02*
X140882994Y-122561205D01*
X140882994Y-122561205D02*
X140846800Y-122615495D01*
X140846800Y-122615495D02*
X140810607Y-122651689D01*
X140810607Y-122651689D02*
X140774413Y-122669786D01*
X141317315Y-122561205D02*
X141244928Y-122561205D01*
X141244928Y-122561205D02*
X141208734Y-122579302D01*
X141208734Y-122579302D02*
X141190638Y-122597399D01*
X141190638Y-122597399D02*
X141154444Y-122651689D01*
X141154444Y-122651689D02*
X141136347Y-122724076D01*
X141136347Y-122724076D02*
X141136347Y-122868849D01*
X141136347Y-122868849D02*
X141154444Y-122905043D01*
X141154444Y-122905043D02*
X141172541Y-122923140D01*
X141172541Y-122923140D02*
X141208734Y-122941236D01*
X141208734Y-122941236D02*
X141281121Y-122941236D01*
X141281121Y-122941236D02*
X141317315Y-122923140D01*
X141317315Y-122923140D02*
X141335411Y-122905043D01*
X141335411Y-122905043D02*
X141353508Y-122868849D01*
X141353508Y-122868849D02*
X141353508Y-122778366D01*
X141353508Y-122778366D02*
X141335411Y-122742172D01*
X141335411Y-122742172D02*
X141317315Y-122724076D01*
X141317315Y-122724076D02*
X141281121Y-122705979D01*
X141281121Y-122705979D02*
X141208734Y-122705979D01*
X141208734Y-122705979D02*
X141172541Y-122724076D01*
X141172541Y-122724076D02*
X141154444Y-122742172D01*
X141154444Y-122742172D02*
X141136347Y-122778366D01*
D10*
X142874788Y-92607438D02*
X142739278Y-92413853D01*
X142642486Y-92607438D02*
X142642486Y-92200910D01*
X142642486Y-92200910D02*
X142797354Y-92200910D01*
X142797354Y-92200910D02*
X142836071Y-92220268D01*
X142836071Y-92220268D02*
X142855429Y-92239627D01*
X142855429Y-92239627D02*
X142874788Y-92278344D01*
X142874788Y-92278344D02*
X142874788Y-92336419D01*
X142874788Y-92336419D02*
X142855429Y-92375136D01*
X142855429Y-92375136D02*
X142836071Y-92394495D01*
X142836071Y-92394495D02*
X142797354Y-92413853D01*
X142797354Y-92413853D02*
X142642486Y-92413853D01*
X143107089Y-92375136D02*
X143068372Y-92355778D01*
X143068372Y-92355778D02*
X143049014Y-92336419D01*
X143049014Y-92336419D02*
X143029655Y-92297702D01*
X143029655Y-92297702D02*
X143029655Y-92278344D01*
X143029655Y-92278344D02*
X143049014Y-92239627D01*
X143049014Y-92239627D02*
X143068372Y-92220268D01*
X143068372Y-92220268D02*
X143107089Y-92200910D01*
X143107089Y-92200910D02*
X143184523Y-92200910D01*
X143184523Y-92200910D02*
X143223240Y-92220268D01*
X143223240Y-92220268D02*
X143242599Y-92239627D01*
X143242599Y-92239627D02*
X143261957Y-92278344D01*
X143261957Y-92278344D02*
X143261957Y-92297702D01*
X143261957Y-92297702D02*
X143242599Y-92336419D01*
X143242599Y-92336419D02*
X143223240Y-92355778D01*
X143223240Y-92355778D02*
X143184523Y-92375136D01*
X143184523Y-92375136D02*
X143107089Y-92375136D01*
X143107089Y-92375136D02*
X143068372Y-92394495D01*
X143068372Y-92394495D02*
X143049014Y-92413853D01*
X143049014Y-92413853D02*
X143029655Y-92452570D01*
X143029655Y-92452570D02*
X143029655Y-92530004D01*
X143029655Y-92530004D02*
X143049014Y-92568721D01*
X143049014Y-92568721D02*
X143068372Y-92588080D01*
X143068372Y-92588080D02*
X143107089Y-92607438D01*
X143107089Y-92607438D02*
X143184523Y-92607438D01*
X143184523Y-92607438D02*
X143223240Y-92588080D01*
X143223240Y-92588080D02*
X143242599Y-92568721D01*
X143242599Y-92568721D02*
X143261957Y-92530004D01*
X143261957Y-92530004D02*
X143261957Y-92452570D01*
X143261957Y-92452570D02*
X143242599Y-92413853D01*
X143242599Y-92413853D02*
X143223240Y-92394495D01*
X143223240Y-92394495D02*
X143184523Y-92375136D01*
X143513618Y-92200910D02*
X143552335Y-92200910D01*
X143552335Y-92200910D02*
X143591052Y-92220268D01*
X143591052Y-92220268D02*
X143610410Y-92239627D01*
X143610410Y-92239627D02*
X143629769Y-92278344D01*
X143629769Y-92278344D02*
X143649127Y-92355778D01*
X143649127Y-92355778D02*
X143649127Y-92452570D01*
X143649127Y-92452570D02*
X143629769Y-92530004D01*
X143629769Y-92530004D02*
X143610410Y-92568721D01*
X143610410Y-92568721D02*
X143591052Y-92588080D01*
X143591052Y-92588080D02*
X143552335Y-92607438D01*
X143552335Y-92607438D02*
X143513618Y-92607438D01*
X143513618Y-92607438D02*
X143474901Y-92588080D01*
X143474901Y-92588080D02*
X143455542Y-92568721D01*
X143455542Y-92568721D02*
X143436184Y-92530004D01*
X143436184Y-92530004D02*
X143416825Y-92452570D01*
X143416825Y-92452570D02*
X143416825Y-92355778D01*
X143416825Y-92355778D02*
X143436184Y-92278344D01*
X143436184Y-92278344D02*
X143455542Y-92239627D01*
X143455542Y-92239627D02*
X143474901Y-92220268D01*
X143474901Y-92220268D02*
X143513618Y-92200910D01*
D16*
%TO.C,JP17*%
X149568400Y-84382050D02*
X160068400Y-84382050D01*
X149568400Y-88882050D02*
X149568400Y-84382050D01*
X160068400Y-84382050D02*
X160068400Y-88882050D01*
X160068400Y-88882050D02*
X149568400Y-88882050D01*
D17*
%TO.C,D23*%
X143866800Y-112809650D02*
X144679600Y-112809650D01*
X144679600Y-112809650D02*
X144679600Y-113368450D01*
X144679600Y-115095650D02*
X144679600Y-115654450D01*
X144679600Y-115654450D02*
X143866800Y-115654450D01*
%TO.C,F13*%
X133940400Y-95182050D02*
X134780400Y-95182050D01*
X133940400Y-96482050D02*
X134780400Y-96482050D01*
D16*
%TO.C,FB21*%
X134360400Y-107200050D02*
X134360400Y-106184050D01*
D17*
%TO.C,F16*%
X133940400Y-108135350D02*
X134780400Y-108135350D01*
X133940400Y-109435350D02*
X134780400Y-109435350D01*
D18*
%TO.C,LED6*%
G36*
X148118400Y-124132050D02*
G01*
X147918400Y-124132050D01*
X147918400Y-123932050D01*
X148118400Y-123932050D01*
X148118400Y-124132050D01*
G37*
D16*
%TO.C,D20*%
X138545400Y-97532050D02*
X140291400Y-97532050D01*
X139118400Y-97832050D02*
X139718400Y-98232050D01*
X139118400Y-98632050D02*
X139118400Y-97832050D01*
X139718400Y-98232050D02*
X139118400Y-98632050D01*
X140291400Y-98932050D02*
X138545400Y-98932050D01*
D18*
G36*
X139701562Y-98232050D02*
G01*
X139116800Y-98621891D01*
X139116800Y-97842209D01*
X139701562Y-98232050D01*
G37*
G36*
X139918400Y-98732050D02*
G01*
X139718400Y-98732050D01*
X139718400Y-97732050D01*
X139918400Y-97732050D01*
X139918400Y-98732050D01*
G37*
D17*
%TO.C,F9*%
X133940400Y-110128750D02*
X134780400Y-110128750D01*
X133940400Y-111428750D02*
X134780400Y-111428750D01*
D16*
%TO.C,D18*%
X138345400Y-105732050D02*
X140091400Y-105732050D01*
X138918400Y-106032050D02*
X139518400Y-106432050D01*
X138918400Y-106832050D02*
X138918400Y-106032050D01*
X139518400Y-106432050D02*
X138918400Y-106832050D01*
X140091400Y-107132050D02*
X138345400Y-107132050D01*
D18*
G36*
X139501562Y-106432050D02*
G01*
X138916800Y-106821891D01*
X138916800Y-106042209D01*
X139501562Y-106432050D01*
G37*
G36*
X139718400Y-106932050D02*
G01*
X139518400Y-106932050D01*
X139518400Y-105932050D01*
X139718400Y-105932050D01*
X139718400Y-106932050D01*
G37*
D17*
%TO.C,F15*%
X133940400Y-102355450D02*
X134780400Y-102355450D01*
X133940400Y-103655450D02*
X134780400Y-103655450D01*
%TO.C,F10*%
X133940400Y-115408750D02*
X134780400Y-115408750D01*
X133940400Y-116708750D02*
X134780400Y-116708750D01*
D19*
%TO.C,TVS9*%
X138955900Y-100457050D02*
X138955900Y-102207050D01*
X142080900Y-100457050D02*
X142080900Y-102207050D01*
D20*
X142395900Y-99953050D02*
G75*
G02*
X142145900Y-99953050I-125000J0D01*
G01*
X142145900Y-99953050D02*
G75*
G02*
X142395900Y-99953050I125000J0D01*
G01*
D17*
%TO.C,JP24*%
X151548400Y-121697050D02*
X151548400Y-120427050D01*
X151548400Y-122967050D02*
X152183400Y-122332050D01*
X151548400Y-124237050D02*
X151548400Y-122967050D01*
X152183400Y-119792050D02*
X151548400Y-120427050D01*
X152183400Y-122332050D02*
X151548400Y-121697050D01*
X152183400Y-124872050D02*
X151548400Y-124237050D01*
X153453400Y-119792050D02*
X152183400Y-119792050D01*
X153453400Y-122332050D02*
X152183400Y-122332050D01*
X153453400Y-122332050D02*
X154088400Y-122967050D01*
X153453400Y-124872050D02*
X152183400Y-124872050D01*
X154088400Y-120427050D02*
X153453400Y-119792050D01*
X154088400Y-120427050D02*
X154088400Y-121697050D01*
X154088400Y-121697050D02*
X153453400Y-122332050D01*
X154088400Y-122967050D02*
X154088400Y-124237050D01*
X154088400Y-124237050D02*
X153453400Y-124872050D01*
D16*
%TO.C,FB17*%
X134360400Y-113080050D02*
X134360400Y-112064050D01*
%TO.C,FB19*%
X134460400Y-120253350D02*
X134460400Y-119237350D01*
%TO.C,U3*%
X163568400Y-86232050D02*
X163568400Y-87832050D01*
X164568400Y-86232050D02*
X165468400Y-86232050D01*
X166468400Y-86232050D02*
X166468400Y-87832050D01*
%TO.C,D13*%
X138445400Y-112532050D02*
X140191400Y-112532050D01*
X139018400Y-112832050D02*
X139618400Y-113232050D01*
X139018400Y-113632050D02*
X139018400Y-112832050D01*
X139618400Y-113232050D02*
X139018400Y-113632050D01*
X140191400Y-113932050D02*
X138445400Y-113932050D01*
D18*
G36*
X139601562Y-113232050D02*
G01*
X139016800Y-113621891D01*
X139016800Y-112842209D01*
X139601562Y-113232050D01*
G37*
G36*
X139818400Y-113732050D02*
G01*
X139618400Y-113732050D01*
X139618400Y-112732050D01*
X139818400Y-112732050D01*
X139818400Y-113732050D01*
G37*
D17*
%TO.C,JP2*%
X148068400Y-90097050D02*
X148068400Y-91367050D01*
X148068400Y-91367050D02*
X148703400Y-92002050D01*
X148703400Y-89462050D02*
X148068400Y-90097050D01*
X148703400Y-89462050D02*
X149973400Y-89462050D01*
X149973400Y-89462050D02*
X150608400Y-90097050D01*
X149973400Y-92002050D02*
X148703400Y-92002050D01*
X150608400Y-90097050D02*
X150608400Y-91367050D01*
X150608400Y-90097050D02*
X151243400Y-89462050D01*
X150608400Y-91367050D02*
X149973400Y-92002050D01*
X151243400Y-89462050D02*
X152513400Y-89462050D01*
X151243400Y-92002050D02*
X150608400Y-91367050D01*
X152513400Y-89462050D02*
X153148400Y-90097050D01*
X152513400Y-92002050D02*
X151243400Y-92002050D01*
X153148400Y-90097050D02*
X153148400Y-91367050D01*
X153148400Y-90097050D02*
X153783400Y-89462050D01*
X153148400Y-91367050D02*
X152513400Y-92002050D01*
X153783400Y-89462050D02*
X155053400Y-89462050D01*
X153783400Y-92002050D02*
X153148400Y-91367050D01*
X155053400Y-89462050D02*
X155688400Y-90097050D01*
X155053400Y-92002050D02*
X153783400Y-92002050D01*
X155688400Y-90097050D02*
X155688400Y-91367050D01*
X155688400Y-91367050D02*
X155053400Y-92002050D01*
X155688400Y-91367050D02*
X156323400Y-92002050D01*
X156323400Y-89462050D02*
X155688400Y-90097050D01*
X156323400Y-89462050D02*
X157593400Y-89462050D01*
X157593400Y-89462050D02*
X158228400Y-90097050D01*
X157593400Y-92002050D02*
X156323400Y-92002050D01*
X158228400Y-90097050D02*
X158228400Y-91367050D01*
X158228400Y-91367050D02*
X157593400Y-92002050D01*
X158228400Y-91367050D02*
X158863400Y-92002050D01*
X158863400Y-89462050D02*
X158228400Y-90097050D01*
X158863400Y-89462050D02*
X160133400Y-89462050D01*
X160133400Y-89462050D02*
X160768400Y-90097050D01*
X160133400Y-92002050D02*
X158863400Y-92002050D01*
X160768400Y-90097050D02*
X160768400Y-91367050D01*
X160768400Y-91367050D02*
X160133400Y-92002050D01*
D16*
%TO.C,D15*%
X139345400Y-122932050D02*
X141091400Y-122932050D01*
X139918400Y-123232050D02*
X140518400Y-123632050D01*
X139918400Y-124032050D02*
X139918400Y-123232050D01*
X140518400Y-123632050D02*
X139918400Y-124032050D01*
X141091400Y-124332050D02*
X139345400Y-124332050D01*
D18*
G36*
X140501562Y-123632050D02*
G01*
X139916800Y-124021891D01*
X139916800Y-123242209D01*
X140501562Y-123632050D01*
G37*
G36*
X140718400Y-124132050D02*
G01*
X140518400Y-124132050D01*
X140518400Y-123132050D01*
X140718400Y-123132050D01*
X140718400Y-124132050D01*
G37*
D17*
%TO.C,JP21*%
X152678400Y-112497050D02*
X153313400Y-111862050D01*
X152678400Y-113767050D02*
X152678400Y-112497050D01*
X153313400Y-111862050D02*
X154583400Y-111862050D01*
X153313400Y-114402050D02*
X152678400Y-113767050D01*
X154583400Y-111862050D02*
X155218400Y-112497050D01*
X154583400Y-114402050D02*
X153313400Y-114402050D01*
X155218400Y-112497050D02*
X155853400Y-111862050D01*
X155218400Y-113767050D02*
X154583400Y-114402050D01*
X155218400Y-113767050D02*
X155218400Y-112497050D01*
X155853400Y-111862050D02*
X157123400Y-111862050D01*
X155853400Y-114402050D02*
X155218400Y-113767050D01*
X157123400Y-114402050D02*
X155853400Y-114402050D01*
X157123400Y-114402050D02*
X157758400Y-113767050D01*
X157758400Y-112497050D02*
X157123400Y-111862050D01*
X157758400Y-113767050D02*
X157758400Y-112497050D01*
D19*
%TO.C,TVS5*%
X145355900Y-87307050D02*
X145355900Y-85557050D01*
X148480900Y-87307050D02*
X148480900Y-85557050D01*
D20*
X145290900Y-87811050D02*
G75*
G02*
X145040900Y-87811050I-125000J0D01*
G01*
X145040900Y-87811050D02*
G75*
G02*
X145290900Y-87811050I125000J0D01*
G01*
D16*
%TO.C,D14*%
X138445400Y-114632050D02*
X140191400Y-114632050D01*
X139018400Y-114932050D02*
X139618400Y-115332050D01*
X139018400Y-115732050D02*
X139018400Y-114932050D01*
X139618400Y-115332050D02*
X139018400Y-115732050D01*
X140191400Y-116032050D02*
X138445400Y-116032050D01*
D18*
G36*
X139601562Y-115332050D02*
G01*
X139016800Y-115721891D01*
X139016800Y-114942209D01*
X139601562Y-115332050D01*
G37*
G36*
X139818400Y-115832050D02*
G01*
X139618400Y-115832050D01*
X139618400Y-114832050D01*
X139818400Y-114832050D01*
X139818400Y-115832050D01*
G37*
D19*
%TO.C,TVS6*%
X139255900Y-117557050D02*
X139255900Y-119307050D01*
X142380900Y-117557050D02*
X142380900Y-119307050D01*
D20*
X142695900Y-117053050D02*
G75*
G02*
X142445900Y-117053050I-125000J0D01*
G01*
X142445900Y-117053050D02*
G75*
G02*
X142695900Y-117053050I125000J0D01*
G01*
D16*
%TO.C,IC5*%
X153318400Y-100932050D02*
X153318400Y-106932050D01*
X153318400Y-106932050D02*
X153618400Y-107232050D01*
X153618400Y-100632050D02*
X153318400Y-100932050D01*
X153618400Y-107232050D02*
X159618400Y-107232050D01*
X159618400Y-100632050D02*
X153618400Y-100632050D01*
X159618400Y-107232050D02*
X159918400Y-106932050D01*
X159918400Y-100932050D02*
X159618400Y-100632050D01*
X159918400Y-106932050D02*
X159918400Y-100932050D01*
D21*
X159168400Y-101532050D02*
G75*
G02*
X158768400Y-101532050I-200000J0D01*
G01*
X158768400Y-101532050D02*
G75*
G02*
X159168400Y-101532050I200000J0D01*
G01*
D22*
X160472400Y-99632050D02*
G75*
G02*
X160172400Y-99632050I-150000J0D01*
G01*
X160172400Y-99632050D02*
G75*
G02*
X160472400Y-99632050I150000J0D01*
G01*
D17*
%TO.C,D22*%
X144266800Y-95409650D02*
X145079600Y-95409650D01*
X145079600Y-95409650D02*
X145079600Y-95968450D01*
X145079600Y-97695650D02*
X145079600Y-98254450D01*
X145079600Y-98254450D02*
X144266800Y-98254450D01*
D16*
%TO.C,D17*%
X138345400Y-103732050D02*
X140091400Y-103732050D01*
X138918400Y-104032050D02*
X139518400Y-104432050D01*
X138918400Y-104832050D02*
X138918400Y-104032050D01*
X139518400Y-104432050D02*
X138918400Y-104832050D01*
X140091400Y-105132050D02*
X138345400Y-105132050D01*
D18*
G36*
X139501562Y-104432050D02*
G01*
X138916800Y-104821891D01*
X138916800Y-104042209D01*
X139501562Y-104432050D01*
G37*
G36*
X139718400Y-104932050D02*
G01*
X139518400Y-104932050D01*
X139518400Y-103932050D01*
X139718400Y-103932050D01*
X139718400Y-104932050D01*
G37*
%TO.C,LED5*%
G36*
X164440541Y-120357615D02*
G01*
X164252602Y-120426019D01*
X164184198Y-120238081D01*
X164372137Y-120169677D01*
X164440541Y-120357615D01*
G37*
D16*
%TO.C,FB24*%
X134360400Y-98133450D02*
X134360400Y-97117450D01*
D23*
%TO.C,IC6*%
X158768400Y-111152050D02*
X160268400Y-111152050D01*
X160618400Y-111282050D02*
X163818400Y-111282050D01*
X160618400Y-116182050D02*
X160618400Y-111282050D01*
X163818400Y-111282050D02*
X163818400Y-116182050D01*
X163818400Y-116182050D02*
X160618400Y-116182050D01*
D16*
%TO.C,FB20*%
X134460400Y-121946750D02*
X134460400Y-120930750D01*
D17*
%TO.C,D21*%
X143866800Y-104109650D02*
X144679600Y-104109650D01*
X144679600Y-104109650D02*
X144679600Y-104668450D01*
X144679600Y-106395650D02*
X144679600Y-106954450D01*
X144679600Y-106954450D02*
X143866800Y-106954450D01*
D16*
%TO.C,D19*%
X138545400Y-95532050D02*
X140291400Y-95532050D01*
X139118400Y-95832050D02*
X139718400Y-96232050D01*
X139118400Y-96632050D02*
X139118400Y-95832050D01*
X139718400Y-96232050D02*
X139118400Y-96632050D01*
X140291400Y-96932050D02*
X138545400Y-96932050D01*
D18*
G36*
X139701562Y-96232050D02*
G01*
X139116800Y-96621891D01*
X139116800Y-95842209D01*
X139701562Y-96232050D01*
G37*
G36*
X139918400Y-96732050D02*
G01*
X139718400Y-96732050D01*
X139718400Y-95732050D01*
X139918400Y-95732050D01*
X139918400Y-96732050D01*
G37*
D16*
%TO.C,FB23*%
X134360400Y-99826750D02*
X134360400Y-98810750D01*
D23*
%TO.C,JP22*%
X167068400Y-92232050D02*
X171968400Y-92232050D01*
X167068400Y-102432050D02*
X167068400Y-92232050D01*
X171968400Y-92232050D02*
X171968400Y-102432050D01*
X171968400Y-102432050D02*
X167068400Y-102432050D01*
X170818400Y-93332050D02*
G75*
G02*
X170618400Y-93332050I-100000J0D01*
G01*
X170618400Y-93332050D02*
G75*
G02*
X170818400Y-93332050I100000J0D01*
G01*
D16*
%TO.C,Q3*%
X159118400Y-95632050D02*
X159118400Y-93032050D01*
X163918400Y-93032050D02*
X163918400Y-95632050D01*
X159118400Y-95632050D02*
G75*
G02*
X159318400Y-95832050I0J-200000D01*
G01*
X159318400Y-92832050D02*
G75*
G02*
X159118400Y-93032050I-200000J0D01*
G01*
X163718400Y-95832050D02*
G75*
G02*
X163918400Y-95632050I200001J-1D01*
G01*
X163918400Y-93032050D02*
G75*
G02*
X163718400Y-92832050I1J200001D01*
G01*
D17*
%TO.C,PRGBTN2*%
X154807808Y-120469711D02*
X155187330Y-119655823D01*
X155187330Y-119655823D02*
X156380739Y-119221458D01*
X155242173Y-121663120D02*
X154807808Y-120469711D01*
X155242173Y-121663120D02*
X156056061Y-122042642D01*
X156056061Y-122042642D02*
X157249470Y-121608277D01*
X156380739Y-119221458D02*
X157194627Y-119600980D01*
X157194627Y-119600980D02*
X157628992Y-120794389D01*
X157249470Y-121608277D02*
X157628992Y-120794389D01*
%TO.C,F14*%
X133940400Y-100462050D02*
X134780400Y-100462050D01*
X133940400Y-101762050D02*
X134780400Y-101762050D01*
%TO.C,F12*%
X134040400Y-122582050D02*
X134880400Y-122582050D01*
X134040400Y-123882050D02*
X134880400Y-123882050D01*
D24*
%TO.C,J3*%
X130518400Y-118682050D02*
X125518400Y-118682050D01*
D23*
X129668400Y-119682050D02*
G75*
G02*
X129568400Y-119682050I-50000J0D01*
G01*
X129568400Y-119682050D02*
G75*
G02*
X129668400Y-119682050I50000J0D01*
G01*
D24*
%TO.C,J2*%
X125618400Y-91382050D02*
X130618400Y-91382050D01*
D23*
X126568400Y-90382050D02*
G75*
G02*
X126468400Y-90382050I-50000J0D01*
G01*
X126468400Y-90382050D02*
G75*
G02*
X126568400Y-90382050I50000J0D01*
G01*
%TO.C,J1*%
X167068400Y-103532050D02*
X171968400Y-103532050D01*
X167068400Y-117732050D02*
X167068400Y-103532050D01*
X171968400Y-103532050D02*
X171968400Y-117732050D01*
X171968400Y-117732050D02*
X167068400Y-117732050D01*
X170818400Y-104632050D02*
G75*
G02*
X170618400Y-104632050I-100000J0D01*
G01*
X170618400Y-104632050D02*
G75*
G02*
X170818400Y-104632050I100000J0D01*
G01*
D17*
%TO.C,D24*%
X144766800Y-121209650D02*
X145579600Y-121209650D01*
X145579600Y-121209650D02*
X145579600Y-121768450D01*
X145579600Y-123495650D02*
X145579600Y-124054450D01*
X145579600Y-124054450D02*
X144766800Y-124054450D01*
%TO.C,JP23*%
X166548400Y-92787050D02*
X167183400Y-92152050D01*
X166548400Y-94057050D02*
X166548400Y-92787050D01*
X166548400Y-94057050D02*
X167183400Y-94692050D01*
X166548400Y-95327050D02*
X167183400Y-94692050D01*
X166548400Y-96597050D02*
X166548400Y-95327050D01*
X166548400Y-97867050D02*
X167183400Y-97232050D01*
X166548400Y-99137050D02*
X166548400Y-97867050D01*
X166548400Y-100407050D02*
X167183400Y-99772050D01*
X166548400Y-101677050D02*
X166548400Y-100407050D01*
X166548400Y-101677050D02*
X167183400Y-102312050D01*
X167183400Y-92152050D02*
X168453400Y-92152050D01*
X167183400Y-94692050D02*
X168453400Y-94692050D01*
X167183400Y-97232050D02*
X166548400Y-96597050D01*
X167183400Y-97232050D02*
X168453400Y-97232050D01*
X167183400Y-99772050D02*
X166548400Y-99137050D01*
X167183400Y-99772050D02*
X168453400Y-99772050D01*
X167183400Y-102312050D02*
X168453400Y-102312050D01*
X168453400Y-92152050D02*
X169088400Y-92787050D01*
X168453400Y-94692050D02*
X169088400Y-94057050D01*
X168453400Y-94692050D02*
X169088400Y-95327050D01*
X168453400Y-97232050D02*
X169088400Y-97867050D01*
X168453400Y-99772050D02*
X169088400Y-100407050D01*
X168453400Y-102312050D02*
X169088400Y-101677050D01*
X169088400Y-92787050D02*
X169088400Y-94057050D01*
X169088400Y-95327050D02*
X169088400Y-96597050D01*
X169088400Y-96597050D02*
X168453400Y-97232050D01*
X169088400Y-97867050D02*
X169088400Y-99137050D01*
X169088400Y-99137050D02*
X168453400Y-99772050D01*
X169088400Y-100407050D02*
X169088400Y-101677050D01*
%TO.C,JP18*%
X159114398Y-118904076D02*
X159493920Y-118090189D01*
X159493920Y-118090189D02*
X160687330Y-117655823D01*
X159548764Y-120097486D02*
X159114398Y-118904076D01*
X160362651Y-120477008D02*
X159548764Y-120097486D01*
X160687330Y-117655823D02*
X161501217Y-118035345D01*
X161501217Y-118035345D02*
X161880739Y-117221458D01*
X161556061Y-120042642D02*
X160362651Y-120477008D01*
X161880739Y-117221458D02*
X163074149Y-116787092D01*
X161935583Y-119228755D02*
X161501217Y-118035345D01*
X161935583Y-119228755D02*
X161556061Y-120042642D01*
X162749470Y-119608277D02*
X161935583Y-119228755D01*
X163888036Y-117166614D02*
X163074149Y-116787092D01*
X163942880Y-119173911D02*
X162749470Y-119608277D01*
X163942880Y-119173911D02*
X164322402Y-118360024D01*
X164322402Y-118360024D02*
X163888036Y-117166614D01*
%TO.C,JP1*%
X166548400Y-105017050D02*
X166548400Y-103747050D01*
X166548400Y-106287050D02*
X167183400Y-105652050D01*
X166548400Y-107557050D02*
X166548400Y-106287050D01*
X166548400Y-108827050D02*
X167183400Y-108192050D01*
X166548400Y-110097050D02*
X166548400Y-108827050D01*
X166548400Y-112637050D02*
X166548400Y-111367050D01*
X166548400Y-113907050D02*
X167183400Y-113272050D01*
X166548400Y-115177050D02*
X166548400Y-113907050D01*
X166548400Y-117717050D02*
X166548400Y-116447050D01*
X167183400Y-103112050D02*
X166548400Y-103747050D01*
X167183400Y-105652050D02*
X166548400Y-105017050D01*
X167183400Y-108192050D02*
X166548400Y-107557050D01*
X167183400Y-110732050D02*
X166548400Y-110097050D01*
X167183400Y-110732050D02*
X166548400Y-111367050D01*
X167183400Y-113272050D02*
X166548400Y-112637050D01*
X167183400Y-115812050D02*
X166548400Y-115177050D01*
X167183400Y-115812050D02*
X166548400Y-116447050D01*
X167183400Y-118352050D02*
X166548400Y-117717050D01*
X168453400Y-103112050D02*
X167183400Y-103112050D01*
X168453400Y-105652050D02*
X167183400Y-105652050D01*
X168453400Y-105652050D02*
X169088400Y-106287050D01*
X168453400Y-108192050D02*
X167183400Y-108192050D01*
X168453400Y-108192050D02*
X169088400Y-108827050D01*
X168453400Y-110732050D02*
X167183400Y-110732050D01*
X168453400Y-113272050D02*
X167183400Y-113272050D01*
X168453400Y-113272050D02*
X169088400Y-113907050D01*
X168453400Y-115812050D02*
X167183400Y-115812050D01*
X168453400Y-118352050D02*
X167183400Y-118352050D01*
X169088400Y-103747050D02*
X168453400Y-103112050D01*
X169088400Y-103747050D02*
X169088400Y-105017050D01*
X169088400Y-105017050D02*
X168453400Y-105652050D01*
X169088400Y-106287050D02*
X169088400Y-107557050D01*
X169088400Y-107557050D02*
X168453400Y-108192050D01*
X169088400Y-108827050D02*
X169088400Y-110097050D01*
X169088400Y-110097050D02*
X168453400Y-110732050D01*
X169088400Y-111367050D02*
X168453400Y-110732050D01*
X169088400Y-111367050D02*
X169088400Y-112637050D01*
X169088400Y-112637050D02*
X168453400Y-113272050D01*
X169088400Y-113907050D02*
X169088400Y-115177050D01*
X169088400Y-115177050D02*
X168453400Y-115812050D01*
X169088400Y-116447050D02*
X168453400Y-115812050D01*
X169088400Y-116447050D02*
X169088400Y-117717050D01*
X169088400Y-117717050D02*
X168453400Y-118352050D01*
D16*
%TO.C,FB22*%
X134360400Y-105306750D02*
X134360400Y-104290750D01*
D17*
%TO.C,F11*%
X133940400Y-117302050D02*
X134780400Y-117302050D01*
X133940400Y-118602050D02*
X134780400Y-118602050D01*
D16*
%TO.C,FB18*%
X134360400Y-114773350D02*
X134360400Y-113757350D01*
%TO.C,D16*%
X139345400Y-120832050D02*
X141091400Y-120832050D01*
X139918400Y-121132050D02*
X140518400Y-121532050D01*
X139918400Y-121932050D02*
X139918400Y-121132050D01*
X140518400Y-121532050D02*
X139918400Y-121932050D01*
X141091400Y-122232050D02*
X139345400Y-122232050D01*
D18*
G36*
X140501562Y-121532050D02*
G01*
X139916800Y-121921891D01*
X139916800Y-121142209D01*
X140501562Y-121532050D01*
G37*
G36*
X140718400Y-122032050D02*
G01*
X140518400Y-122032050D01*
X140518400Y-121032050D01*
X140718400Y-121032050D01*
X140718400Y-122032050D01*
G37*
%TD*%
M02*
