%TF.GenerationSoftware,KiCad,Pcbnew,8.0.3*%
%TF.CreationDate,2024-06-29T02:25:23+02:00*%
%TF.ProjectId,io-16x-fused-fm,696f2d31-3678-42d6-9675-7365642d666d,rev?*%
%TF.SameCoordinates,Original*%
%TF.FileFunction,Legend,Bot*%
%TF.FilePolarity,Positive*%
%FSLAX46Y46*%
G04 Gerber Fmt 4.6, Leading zero omitted, Abs format (unit mm)*
G04 Created by KiCad (PCBNEW 8.0.3) date 2024-06-29 02:25:23*
%MOMM*%
%LPD*%
G01*
G04 APERTURE LIST*
%ADD10C,0.093472*%
%ADD11C,0.095008*%
%ADD12C,0.152400*%
%ADD13C,0.203200*%
%ADD14C,0.000000*%
%ADD15C,0.120000*%
%ADD16C,0.250000*%
%ADD17C,0.101600*%
G04 APERTURE END LIST*
D10*
X150202211Y-121378763D02*
X150608739Y-121378763D01*
X150608739Y-121378763D02*
X150608739Y-121281971D01*
X150608739Y-121281971D02*
X150589381Y-121223895D01*
X150589381Y-121223895D02*
X150550664Y-121185178D01*
X150550664Y-121185178D02*
X150511947Y-121165820D01*
X150511947Y-121165820D02*
X150434513Y-121146461D01*
X150434513Y-121146461D02*
X150376437Y-121146461D01*
X150376437Y-121146461D02*
X150299003Y-121165820D01*
X150299003Y-121165820D02*
X150260286Y-121185178D01*
X150260286Y-121185178D02*
X150221570Y-121223895D01*
X150221570Y-121223895D02*
X150202211Y-121281971D01*
X150202211Y-121281971D02*
X150202211Y-121378763D01*
X150202211Y-120952877D02*
X150202211Y-120875443D01*
X150202211Y-120875443D02*
X150221570Y-120836726D01*
X150221570Y-120836726D02*
X150240928Y-120817367D01*
X150240928Y-120817367D02*
X150299003Y-120778650D01*
X150299003Y-120778650D02*
X150376437Y-120759292D01*
X150376437Y-120759292D02*
X150531305Y-120759292D01*
X150531305Y-120759292D02*
X150570022Y-120778650D01*
X150570022Y-120778650D02*
X150589381Y-120798009D01*
X150589381Y-120798009D02*
X150608739Y-120836726D01*
X150608739Y-120836726D02*
X150608739Y-120914160D01*
X150608739Y-120914160D02*
X150589381Y-120952877D01*
X150589381Y-120952877D02*
X150570022Y-120972235D01*
X150570022Y-120972235D02*
X150531305Y-120991594D01*
X150531305Y-120991594D02*
X150434513Y-120991594D01*
X150434513Y-120991594D02*
X150395796Y-120972235D01*
X150395796Y-120972235D02*
X150376437Y-120952877D01*
X150376437Y-120952877D02*
X150357079Y-120914160D01*
X150357079Y-120914160D02*
X150357079Y-120836726D01*
X150357079Y-120836726D02*
X150376437Y-120798009D01*
X150376437Y-120798009D02*
X150395796Y-120778650D01*
X150395796Y-120778650D02*
X150434513Y-120759292D01*
X149396667Y-109423075D02*
X149532177Y-109229490D01*
X149628969Y-109423075D02*
X149628969Y-109016547D01*
X149628969Y-109016547D02*
X149474101Y-109016547D01*
X149474101Y-109016547D02*
X149435384Y-109035905D01*
X149435384Y-109035905D02*
X149416026Y-109055264D01*
X149416026Y-109055264D02*
X149396667Y-109093981D01*
X149396667Y-109093981D02*
X149396667Y-109152056D01*
X149396667Y-109152056D02*
X149416026Y-109190773D01*
X149416026Y-109190773D02*
X149435384Y-109210132D01*
X149435384Y-109210132D02*
X149474101Y-109229490D01*
X149474101Y-109229490D02*
X149628969Y-109229490D01*
X149009498Y-109423075D02*
X149241800Y-109423075D01*
X149125649Y-109423075D02*
X149125649Y-109016547D01*
X149125649Y-109016547D02*
X149164366Y-109074622D01*
X149164366Y-109074622D02*
X149203083Y-109113339D01*
X149203083Y-109113339D02*
X149241800Y-109132698D01*
X148641686Y-109016547D02*
X148835271Y-109016547D01*
X148835271Y-109016547D02*
X148854630Y-109210132D01*
X148854630Y-109210132D02*
X148835271Y-109190773D01*
X148835271Y-109190773D02*
X148796554Y-109171415D01*
X148796554Y-109171415D02*
X148699762Y-109171415D01*
X148699762Y-109171415D02*
X148661045Y-109190773D01*
X148661045Y-109190773D02*
X148641686Y-109210132D01*
X148641686Y-109210132D02*
X148622328Y-109248849D01*
X148622328Y-109248849D02*
X148622328Y-109345641D01*
X148622328Y-109345641D02*
X148641686Y-109384358D01*
X148641686Y-109384358D02*
X148661045Y-109403717D01*
X148661045Y-109403717D02*
X148699762Y-109423075D01*
X148699762Y-109423075D02*
X148796554Y-109423075D01*
X148796554Y-109423075D02*
X148835271Y-109403717D01*
X148835271Y-109403717D02*
X148854630Y-109384358D01*
X144809497Y-102523075D02*
X144945007Y-102329490D01*
X145041799Y-102523075D02*
X145041799Y-102116547D01*
X145041799Y-102116547D02*
X144886931Y-102116547D01*
X144886931Y-102116547D02*
X144848214Y-102135905D01*
X144848214Y-102135905D02*
X144828856Y-102155264D01*
X144828856Y-102155264D02*
X144809497Y-102193981D01*
X144809497Y-102193981D02*
X144809497Y-102252056D01*
X144809497Y-102252056D02*
X144828856Y-102290773D01*
X144828856Y-102290773D02*
X144848214Y-102310132D01*
X144848214Y-102310132D02*
X144886931Y-102329490D01*
X144886931Y-102329490D02*
X145041799Y-102329490D01*
X144673988Y-102116547D02*
X144402969Y-102116547D01*
X144402969Y-102116547D02*
X144577196Y-102523075D01*
X138843011Y-115376461D02*
X139036596Y-115511971D01*
X138843011Y-115608763D02*
X139249539Y-115608763D01*
X139249539Y-115608763D02*
X139249539Y-115453895D01*
X139249539Y-115453895D02*
X139230181Y-115415178D01*
X139230181Y-115415178D02*
X139210822Y-115395820D01*
X139210822Y-115395820D02*
X139172105Y-115376461D01*
X139172105Y-115376461D02*
X139114030Y-115376461D01*
X139114030Y-115376461D02*
X139075313Y-115395820D01*
X139075313Y-115395820D02*
X139055954Y-115415178D01*
X139055954Y-115415178D02*
X139036596Y-115453895D01*
X139036596Y-115453895D02*
X139036596Y-115608763D01*
X138843011Y-114989292D02*
X138843011Y-115221594D01*
X138843011Y-115105443D02*
X139249539Y-115105443D01*
X139249539Y-115105443D02*
X139191464Y-115144160D01*
X139191464Y-115144160D02*
X139152747Y-115182877D01*
X139152747Y-115182877D02*
X139133388Y-115221594D01*
X147909497Y-115823075D02*
X148045007Y-115629490D01*
X148141799Y-115823075D02*
X148141799Y-115416547D01*
X148141799Y-115416547D02*
X147986931Y-115416547D01*
X147986931Y-115416547D02*
X147948214Y-115435905D01*
X147948214Y-115435905D02*
X147928856Y-115455264D01*
X147928856Y-115455264D02*
X147909497Y-115493981D01*
X147909497Y-115493981D02*
X147909497Y-115552056D01*
X147909497Y-115552056D02*
X147928856Y-115590773D01*
X147928856Y-115590773D02*
X147948214Y-115610132D01*
X147948214Y-115610132D02*
X147986931Y-115629490D01*
X147986931Y-115629490D02*
X148141799Y-115629490D01*
X147715913Y-115823075D02*
X147638479Y-115823075D01*
X147638479Y-115823075D02*
X147599762Y-115803717D01*
X147599762Y-115803717D02*
X147580403Y-115784358D01*
X147580403Y-115784358D02*
X147541686Y-115726283D01*
X147541686Y-115726283D02*
X147522328Y-115648849D01*
X147522328Y-115648849D02*
X147522328Y-115493981D01*
X147522328Y-115493981D02*
X147541686Y-115455264D01*
X147541686Y-115455264D02*
X147561045Y-115435905D01*
X147561045Y-115435905D02*
X147599762Y-115416547D01*
X147599762Y-115416547D02*
X147677196Y-115416547D01*
X147677196Y-115416547D02*
X147715913Y-115435905D01*
X147715913Y-115435905D02*
X147735271Y-115455264D01*
X147735271Y-115455264D02*
X147754630Y-115493981D01*
X147754630Y-115493981D02*
X147754630Y-115590773D01*
X147754630Y-115590773D02*
X147735271Y-115629490D01*
X147735271Y-115629490D02*
X147715913Y-115648849D01*
X147715913Y-115648849D02*
X147677196Y-115668207D01*
X147677196Y-115668207D02*
X147599762Y-115668207D01*
X147599762Y-115668207D02*
X147561045Y-115648849D01*
X147561045Y-115648849D02*
X147541686Y-115629490D01*
X147541686Y-115629490D02*
X147522328Y-115590773D01*
D11*
X134776234Y-123195736D02*
X134902911Y-123195736D01*
X134902911Y-123394800D02*
X134902911Y-123014769D01*
X134902911Y-123014769D02*
X134721944Y-123014769D01*
X134450493Y-123195736D02*
X134396203Y-123213833D01*
X134396203Y-123213833D02*
X134378106Y-123231930D01*
X134378106Y-123231930D02*
X134360009Y-123268123D01*
X134360009Y-123268123D02*
X134360009Y-123322413D01*
X134360009Y-123322413D02*
X134378106Y-123358607D01*
X134378106Y-123358607D02*
X134396203Y-123376704D01*
X134396203Y-123376704D02*
X134432396Y-123394800D01*
X134432396Y-123394800D02*
X134577170Y-123394800D01*
X134577170Y-123394800D02*
X134577170Y-123014769D01*
X134577170Y-123014769D02*
X134450493Y-123014769D01*
X134450493Y-123014769D02*
X134414300Y-123032866D01*
X134414300Y-123032866D02*
X134396203Y-123050963D01*
X134396203Y-123050963D02*
X134378106Y-123087156D01*
X134378106Y-123087156D02*
X134378106Y-123123350D01*
X134378106Y-123123350D02*
X134396203Y-123159543D01*
X134396203Y-123159543D02*
X134414300Y-123177640D01*
X134414300Y-123177640D02*
X134450493Y-123195736D01*
X134450493Y-123195736D02*
X134577170Y-123195736D01*
X134233332Y-123014769D02*
X133998075Y-123014769D01*
X133998075Y-123014769D02*
X134124752Y-123159543D01*
X134124752Y-123159543D02*
X134070462Y-123159543D01*
X134070462Y-123159543D02*
X134034269Y-123177640D01*
X134034269Y-123177640D02*
X134016172Y-123195736D01*
X134016172Y-123195736D02*
X133998075Y-123231930D01*
X133998075Y-123231930D02*
X133998075Y-123322413D01*
X133998075Y-123322413D02*
X134016172Y-123358607D01*
X134016172Y-123358607D02*
X134034269Y-123376704D01*
X134034269Y-123376704D02*
X134070462Y-123394800D01*
X134070462Y-123394800D02*
X134179042Y-123394800D01*
X134179042Y-123394800D02*
X134215236Y-123376704D01*
X134215236Y-123376704D02*
X134233332Y-123358607D01*
X145586586Y-124541236D02*
X145586586Y-124161205D01*
X145586586Y-124161205D02*
X145496102Y-124161205D01*
X145496102Y-124161205D02*
X145441812Y-124179302D01*
X145441812Y-124179302D02*
X145405619Y-124215495D01*
X145405619Y-124215495D02*
X145387522Y-124251689D01*
X145387522Y-124251689D02*
X145369425Y-124324076D01*
X145369425Y-124324076D02*
X145369425Y-124378366D01*
X145369425Y-124378366D02*
X145387522Y-124450753D01*
X145387522Y-124450753D02*
X145405619Y-124486946D01*
X145405619Y-124486946D02*
X145441812Y-124523140D01*
X145441812Y-124523140D02*
X145496102Y-124541236D01*
X145496102Y-124541236D02*
X145586586Y-124541236D01*
X145242748Y-124161205D02*
X145007491Y-124161205D01*
X145007491Y-124161205D02*
X145134168Y-124305979D01*
X145134168Y-124305979D02*
X145079878Y-124305979D01*
X145079878Y-124305979D02*
X145043685Y-124324076D01*
X145043685Y-124324076D02*
X145025588Y-124342172D01*
X145025588Y-124342172D02*
X145007491Y-124378366D01*
X145007491Y-124378366D02*
X145007491Y-124468849D01*
X145007491Y-124468849D02*
X145025588Y-124505043D01*
X145025588Y-124505043D02*
X145043685Y-124523140D01*
X145043685Y-124523140D02*
X145079878Y-124541236D01*
X145079878Y-124541236D02*
X145188458Y-124541236D01*
X145188458Y-124541236D02*
X145224652Y-124523140D01*
X145224652Y-124523140D02*
X145242748Y-124505043D01*
D10*
X152620867Y-118023075D02*
X152756377Y-117829490D01*
X152853169Y-118023075D02*
X152853169Y-117616547D01*
X152853169Y-117616547D02*
X152698301Y-117616547D01*
X152698301Y-117616547D02*
X152659584Y-117635905D01*
X152659584Y-117635905D02*
X152640226Y-117655264D01*
X152640226Y-117655264D02*
X152620867Y-117693981D01*
X152620867Y-117693981D02*
X152620867Y-117752056D01*
X152620867Y-117752056D02*
X152640226Y-117790773D01*
X152640226Y-117790773D02*
X152659584Y-117810132D01*
X152659584Y-117810132D02*
X152698301Y-117829490D01*
X152698301Y-117829490D02*
X152853169Y-117829490D01*
X152233698Y-118023075D02*
X152466000Y-118023075D01*
X152349849Y-118023075D02*
X152349849Y-117616547D01*
X152349849Y-117616547D02*
X152388566Y-117674622D01*
X152388566Y-117674622D02*
X152427283Y-117713339D01*
X152427283Y-117713339D02*
X152466000Y-117732698D01*
X151846528Y-118023075D02*
X152078830Y-118023075D01*
X151962679Y-118023075D02*
X151962679Y-117616547D01*
X151962679Y-117616547D02*
X152001396Y-117674622D01*
X152001396Y-117674622D02*
X152040113Y-117713339D01*
X152040113Y-117713339D02*
X152078830Y-117732698D01*
X160296667Y-97423075D02*
X160432177Y-97229490D01*
X160528969Y-97423075D02*
X160528969Y-97016547D01*
X160528969Y-97016547D02*
X160374101Y-97016547D01*
X160374101Y-97016547D02*
X160335384Y-97035905D01*
X160335384Y-97035905D02*
X160316026Y-97055264D01*
X160316026Y-97055264D02*
X160296667Y-97093981D01*
X160296667Y-97093981D02*
X160296667Y-97152056D01*
X160296667Y-97152056D02*
X160316026Y-97190773D01*
X160316026Y-97190773D02*
X160335384Y-97210132D01*
X160335384Y-97210132D02*
X160374101Y-97229490D01*
X160374101Y-97229490D02*
X160528969Y-97229490D01*
X159909498Y-97423075D02*
X160141800Y-97423075D01*
X160025649Y-97423075D02*
X160025649Y-97016547D01*
X160025649Y-97016547D02*
X160064366Y-97074622D01*
X160064366Y-97074622D02*
X160103083Y-97113339D01*
X160103083Y-97113339D02*
X160141800Y-97132698D01*
X159773988Y-97016547D02*
X159522328Y-97016547D01*
X159522328Y-97016547D02*
X159657837Y-97171415D01*
X159657837Y-97171415D02*
X159599762Y-97171415D01*
X159599762Y-97171415D02*
X159561045Y-97190773D01*
X159561045Y-97190773D02*
X159541686Y-97210132D01*
X159541686Y-97210132D02*
X159522328Y-97248849D01*
X159522328Y-97248849D02*
X159522328Y-97345641D01*
X159522328Y-97345641D02*
X159541686Y-97384358D01*
X159541686Y-97384358D02*
X159561045Y-97403717D01*
X159561045Y-97403717D02*
X159599762Y-97423075D01*
X159599762Y-97423075D02*
X159715913Y-97423075D01*
X159715913Y-97423075D02*
X159754630Y-97403717D01*
X159754630Y-97403717D02*
X159773988Y-97384358D01*
X148081728Y-92611461D02*
X148062370Y-92630820D01*
X148062370Y-92630820D02*
X148043011Y-92688895D01*
X148043011Y-92688895D02*
X148043011Y-92727612D01*
X148043011Y-92727612D02*
X148062370Y-92785688D01*
X148062370Y-92785688D02*
X148101086Y-92824405D01*
X148101086Y-92824405D02*
X148139803Y-92843763D01*
X148139803Y-92843763D02*
X148217237Y-92863122D01*
X148217237Y-92863122D02*
X148275313Y-92863122D01*
X148275313Y-92863122D02*
X148352747Y-92843763D01*
X148352747Y-92843763D02*
X148391464Y-92824405D01*
X148391464Y-92824405D02*
X148430181Y-92785688D01*
X148430181Y-92785688D02*
X148449539Y-92727612D01*
X148449539Y-92727612D02*
X148449539Y-92688895D01*
X148449539Y-92688895D02*
X148430181Y-92630820D01*
X148430181Y-92630820D02*
X148410822Y-92611461D01*
X148410822Y-92456594D02*
X148430181Y-92437235D01*
X148430181Y-92437235D02*
X148449539Y-92398518D01*
X148449539Y-92398518D02*
X148449539Y-92301726D01*
X148449539Y-92301726D02*
X148430181Y-92263009D01*
X148430181Y-92263009D02*
X148410822Y-92243650D01*
X148410822Y-92243650D02*
X148372105Y-92224292D01*
X148372105Y-92224292D02*
X148333388Y-92224292D01*
X148333388Y-92224292D02*
X148275313Y-92243650D01*
X148275313Y-92243650D02*
X148043011Y-92475952D01*
X148043011Y-92475952D02*
X148043011Y-92224292D01*
D11*
X134776234Y-119642336D02*
X134902911Y-119642336D01*
X134902911Y-119841400D02*
X134902911Y-119461369D01*
X134902911Y-119461369D02*
X134721944Y-119461369D01*
X134450493Y-119642336D02*
X134396203Y-119660433D01*
X134396203Y-119660433D02*
X134378106Y-119678530D01*
X134378106Y-119678530D02*
X134360009Y-119714723D01*
X134360009Y-119714723D02*
X134360009Y-119769013D01*
X134360009Y-119769013D02*
X134378106Y-119805207D01*
X134378106Y-119805207D02*
X134396203Y-119823304D01*
X134396203Y-119823304D02*
X134432396Y-119841400D01*
X134432396Y-119841400D02*
X134577170Y-119841400D01*
X134577170Y-119841400D02*
X134577170Y-119461369D01*
X134577170Y-119461369D02*
X134450493Y-119461369D01*
X134450493Y-119461369D02*
X134414300Y-119479466D01*
X134414300Y-119479466D02*
X134396203Y-119497563D01*
X134396203Y-119497563D02*
X134378106Y-119533756D01*
X134378106Y-119533756D02*
X134378106Y-119569950D01*
X134378106Y-119569950D02*
X134396203Y-119606143D01*
X134396203Y-119606143D02*
X134414300Y-119624240D01*
X134414300Y-119624240D02*
X134450493Y-119642336D01*
X134450493Y-119642336D02*
X134577170Y-119642336D01*
X134215236Y-119497563D02*
X134197139Y-119479466D01*
X134197139Y-119479466D02*
X134160946Y-119461369D01*
X134160946Y-119461369D02*
X134070462Y-119461369D01*
X134070462Y-119461369D02*
X134034269Y-119479466D01*
X134034269Y-119479466D02*
X134016172Y-119497563D01*
X134016172Y-119497563D02*
X133998075Y-119533756D01*
X133998075Y-119533756D02*
X133998075Y-119569950D01*
X133998075Y-119569950D02*
X134016172Y-119624240D01*
X134016172Y-119624240D02*
X134233332Y-119841400D01*
X134233332Y-119841400D02*
X133998075Y-119841400D01*
X145686586Y-126741236D02*
X145686586Y-126361205D01*
X145686586Y-126361205D02*
X145596102Y-126361205D01*
X145596102Y-126361205D02*
X145541812Y-126379302D01*
X145541812Y-126379302D02*
X145505619Y-126415495D01*
X145505619Y-126415495D02*
X145487522Y-126451689D01*
X145487522Y-126451689D02*
X145469425Y-126524076D01*
X145469425Y-126524076D02*
X145469425Y-126578366D01*
X145469425Y-126578366D02*
X145487522Y-126650753D01*
X145487522Y-126650753D02*
X145505619Y-126686946D01*
X145505619Y-126686946D02*
X145541812Y-126723140D01*
X145541812Y-126723140D02*
X145596102Y-126741236D01*
X145596102Y-126741236D02*
X145686586Y-126741236D01*
X145143685Y-126487882D02*
X145143685Y-126741236D01*
X145234168Y-126343109D02*
X145324652Y-126614559D01*
X145324652Y-126614559D02*
X145089394Y-126614559D01*
X146235411Y-102164600D02*
X146235411Y-101784569D01*
X146235411Y-101784569D02*
X146144927Y-101784569D01*
X146144927Y-101784569D02*
X146090637Y-101802666D01*
X146090637Y-101802666D02*
X146054444Y-101838859D01*
X146054444Y-101838859D02*
X146036347Y-101875053D01*
X146036347Y-101875053D02*
X146018250Y-101947440D01*
X146018250Y-101947440D02*
X146018250Y-102001730D01*
X146018250Y-102001730D02*
X146036347Y-102074117D01*
X146036347Y-102074117D02*
X146054444Y-102110310D01*
X146054444Y-102110310D02*
X146090637Y-102146504D01*
X146090637Y-102146504D02*
X146144927Y-102164600D01*
X146144927Y-102164600D02*
X146235411Y-102164600D01*
X145692510Y-101784569D02*
X145764896Y-101784569D01*
X145764896Y-101784569D02*
X145801090Y-101802666D01*
X145801090Y-101802666D02*
X145819187Y-101820763D01*
X145819187Y-101820763D02*
X145855380Y-101875053D01*
X145855380Y-101875053D02*
X145873477Y-101947440D01*
X145873477Y-101947440D02*
X145873477Y-102092213D01*
X145873477Y-102092213D02*
X145855380Y-102128407D01*
X145855380Y-102128407D02*
X145837283Y-102146504D01*
X145837283Y-102146504D02*
X145801090Y-102164600D01*
X145801090Y-102164600D02*
X145728703Y-102164600D01*
X145728703Y-102164600D02*
X145692510Y-102146504D01*
X145692510Y-102146504D02*
X145674413Y-102128407D01*
X145674413Y-102128407D02*
X145656316Y-102092213D01*
X145656316Y-102092213D02*
X145656316Y-102001730D01*
X145656316Y-102001730D02*
X145674413Y-101965536D01*
X145674413Y-101965536D02*
X145692510Y-101947440D01*
X145692510Y-101947440D02*
X145728703Y-101929343D01*
X145728703Y-101929343D02*
X145801090Y-101929343D01*
X145801090Y-101929343D02*
X145837283Y-101947440D01*
X145837283Y-101947440D02*
X145855380Y-101965536D01*
X145855380Y-101965536D02*
X145873477Y-102001730D01*
X134293950Y-90445372D02*
X134420627Y-90445372D01*
X134420627Y-90644436D02*
X134420627Y-90264405D01*
X134420627Y-90264405D02*
X134239660Y-90264405D01*
X133968209Y-90445372D02*
X133913919Y-90463469D01*
X133913919Y-90463469D02*
X133895822Y-90481566D01*
X133895822Y-90481566D02*
X133877725Y-90517759D01*
X133877725Y-90517759D02*
X133877725Y-90572049D01*
X133877725Y-90572049D02*
X133895822Y-90608243D01*
X133895822Y-90608243D02*
X133913919Y-90626340D01*
X133913919Y-90626340D02*
X133950112Y-90644436D01*
X133950112Y-90644436D02*
X134094886Y-90644436D01*
X134094886Y-90644436D02*
X134094886Y-90264405D01*
X134094886Y-90264405D02*
X133968209Y-90264405D01*
X133968209Y-90264405D02*
X133932016Y-90282502D01*
X133932016Y-90282502D02*
X133913919Y-90300599D01*
X133913919Y-90300599D02*
X133895822Y-90336792D01*
X133895822Y-90336792D02*
X133895822Y-90372986D01*
X133895822Y-90372986D02*
X133913919Y-90409179D01*
X133913919Y-90409179D02*
X133932016Y-90427276D01*
X133932016Y-90427276D02*
X133968209Y-90445372D01*
X133968209Y-90445372D02*
X134094886Y-90445372D01*
X133551985Y-90264405D02*
X133624371Y-90264405D01*
X133624371Y-90264405D02*
X133660565Y-90282502D01*
X133660565Y-90282502D02*
X133678662Y-90300599D01*
X133678662Y-90300599D02*
X133714855Y-90354889D01*
X133714855Y-90354889D02*
X133732952Y-90427276D01*
X133732952Y-90427276D02*
X133732952Y-90572049D01*
X133732952Y-90572049D02*
X133714855Y-90608243D01*
X133714855Y-90608243D02*
X133696758Y-90626340D01*
X133696758Y-90626340D02*
X133660565Y-90644436D01*
X133660565Y-90644436D02*
X133588178Y-90644436D01*
X133588178Y-90644436D02*
X133551985Y-90626340D01*
X133551985Y-90626340D02*
X133533888Y-90608243D01*
X133533888Y-90608243D02*
X133515791Y-90572049D01*
X133515791Y-90572049D02*
X133515791Y-90481566D01*
X133515791Y-90481566D02*
X133533888Y-90445372D01*
X133533888Y-90445372D02*
X133551985Y-90427276D01*
X133551985Y-90427276D02*
X133588178Y-90409179D01*
X133588178Y-90409179D02*
X133660565Y-90409179D01*
X133660565Y-90409179D02*
X133696758Y-90427276D01*
X133696758Y-90427276D02*
X133714855Y-90445372D01*
X133714855Y-90445372D02*
X133732952Y-90481566D01*
X134776234Y-117755736D02*
X134902911Y-117755736D01*
X134902911Y-117954800D02*
X134902911Y-117574769D01*
X134902911Y-117574769D02*
X134721944Y-117574769D01*
X134450493Y-117755736D02*
X134396203Y-117773833D01*
X134396203Y-117773833D02*
X134378106Y-117791930D01*
X134378106Y-117791930D02*
X134360009Y-117828123D01*
X134360009Y-117828123D02*
X134360009Y-117882413D01*
X134360009Y-117882413D02*
X134378106Y-117918607D01*
X134378106Y-117918607D02*
X134396203Y-117936704D01*
X134396203Y-117936704D02*
X134432396Y-117954800D01*
X134432396Y-117954800D02*
X134577170Y-117954800D01*
X134577170Y-117954800D02*
X134577170Y-117574769D01*
X134577170Y-117574769D02*
X134450493Y-117574769D01*
X134450493Y-117574769D02*
X134414300Y-117592866D01*
X134414300Y-117592866D02*
X134396203Y-117610963D01*
X134396203Y-117610963D02*
X134378106Y-117647156D01*
X134378106Y-117647156D02*
X134378106Y-117683350D01*
X134378106Y-117683350D02*
X134396203Y-117719543D01*
X134396203Y-117719543D02*
X134414300Y-117737640D01*
X134414300Y-117737640D02*
X134450493Y-117755736D01*
X134450493Y-117755736D02*
X134577170Y-117755736D01*
X133998075Y-117954800D02*
X134215236Y-117954800D01*
X134106655Y-117954800D02*
X134106655Y-117574769D01*
X134106655Y-117574769D02*
X134142849Y-117629059D01*
X134142849Y-117629059D02*
X134179042Y-117665253D01*
X134179042Y-117665253D02*
X134215236Y-117683350D01*
D10*
X136633215Y-125736832D02*
X136768724Y-125736832D01*
X136768724Y-125949775D02*
X136768724Y-125543247D01*
X136768724Y-125543247D02*
X136575139Y-125543247D01*
X136458988Y-125543247D02*
X136207328Y-125543247D01*
X136207328Y-125543247D02*
X136342837Y-125698115D01*
X136342837Y-125698115D02*
X136284762Y-125698115D01*
X136284762Y-125698115D02*
X136246045Y-125717473D01*
X136246045Y-125717473D02*
X136226686Y-125736832D01*
X136226686Y-125736832D02*
X136207328Y-125775549D01*
X136207328Y-125775549D02*
X136207328Y-125872341D01*
X136207328Y-125872341D02*
X136226686Y-125911058D01*
X136226686Y-125911058D02*
X136246045Y-125930417D01*
X136246045Y-125930417D02*
X136284762Y-125949775D01*
X136284762Y-125949775D02*
X136400913Y-125949775D01*
X136400913Y-125949775D02*
X136439630Y-125930417D01*
X136439630Y-125930417D02*
X136458988Y-125911058D01*
X144609497Y-109423075D02*
X144745007Y-109229490D01*
X144841799Y-109423075D02*
X144841799Y-109016547D01*
X144841799Y-109016547D02*
X144686931Y-109016547D01*
X144686931Y-109016547D02*
X144648214Y-109035905D01*
X144648214Y-109035905D02*
X144628856Y-109055264D01*
X144628856Y-109055264D02*
X144609497Y-109093981D01*
X144609497Y-109093981D02*
X144609497Y-109152056D01*
X144609497Y-109152056D02*
X144628856Y-109190773D01*
X144628856Y-109190773D02*
X144648214Y-109210132D01*
X144648214Y-109210132D02*
X144686931Y-109229490D01*
X144686931Y-109229490D02*
X144841799Y-109229490D01*
X144377196Y-109190773D02*
X144415913Y-109171415D01*
X144415913Y-109171415D02*
X144435271Y-109152056D01*
X144435271Y-109152056D02*
X144454630Y-109113339D01*
X144454630Y-109113339D02*
X144454630Y-109093981D01*
X144454630Y-109093981D02*
X144435271Y-109055264D01*
X144435271Y-109055264D02*
X144415913Y-109035905D01*
X144415913Y-109035905D02*
X144377196Y-109016547D01*
X144377196Y-109016547D02*
X144299762Y-109016547D01*
X144299762Y-109016547D02*
X144261045Y-109035905D01*
X144261045Y-109035905D02*
X144241686Y-109055264D01*
X144241686Y-109055264D02*
X144222328Y-109093981D01*
X144222328Y-109093981D02*
X144222328Y-109113339D01*
X144222328Y-109113339D02*
X144241686Y-109152056D01*
X144241686Y-109152056D02*
X144261045Y-109171415D01*
X144261045Y-109171415D02*
X144299762Y-109190773D01*
X144299762Y-109190773D02*
X144377196Y-109190773D01*
X144377196Y-109190773D02*
X144415913Y-109210132D01*
X144415913Y-109210132D02*
X144435271Y-109229490D01*
X144435271Y-109229490D02*
X144454630Y-109268207D01*
X144454630Y-109268207D02*
X144454630Y-109345641D01*
X144454630Y-109345641D02*
X144435271Y-109384358D01*
X144435271Y-109384358D02*
X144415913Y-109403717D01*
X144415913Y-109403717D02*
X144377196Y-109423075D01*
X144377196Y-109423075D02*
X144299762Y-109423075D01*
X144299762Y-109423075D02*
X144261045Y-109403717D01*
X144261045Y-109403717D02*
X144241686Y-109384358D01*
X144241686Y-109384358D02*
X144222328Y-109345641D01*
X144222328Y-109345641D02*
X144222328Y-109268207D01*
X144222328Y-109268207D02*
X144241686Y-109229490D01*
X144241686Y-109229490D02*
X144261045Y-109210132D01*
X144261045Y-109210132D02*
X144299762Y-109190773D01*
D11*
X134776234Y-121409036D02*
X134902911Y-121409036D01*
X134902911Y-121608100D02*
X134902911Y-121228069D01*
X134902911Y-121228069D02*
X134721944Y-121228069D01*
X134450493Y-121409036D02*
X134396203Y-121427133D01*
X134396203Y-121427133D02*
X134378106Y-121445230D01*
X134378106Y-121445230D02*
X134360009Y-121481423D01*
X134360009Y-121481423D02*
X134360009Y-121535713D01*
X134360009Y-121535713D02*
X134378106Y-121571907D01*
X134378106Y-121571907D02*
X134396203Y-121590004D01*
X134396203Y-121590004D02*
X134432396Y-121608100D01*
X134432396Y-121608100D02*
X134577170Y-121608100D01*
X134577170Y-121608100D02*
X134577170Y-121228069D01*
X134577170Y-121228069D02*
X134450493Y-121228069D01*
X134450493Y-121228069D02*
X134414300Y-121246166D01*
X134414300Y-121246166D02*
X134396203Y-121264263D01*
X134396203Y-121264263D02*
X134378106Y-121300456D01*
X134378106Y-121300456D02*
X134378106Y-121336650D01*
X134378106Y-121336650D02*
X134396203Y-121372843D01*
X134396203Y-121372843D02*
X134414300Y-121390940D01*
X134414300Y-121390940D02*
X134450493Y-121409036D01*
X134450493Y-121409036D02*
X134577170Y-121409036D01*
X134034269Y-121354746D02*
X134034269Y-121608100D01*
X134124752Y-121209973D02*
X134215236Y-121481423D01*
X134215236Y-121481423D02*
X133979978Y-121481423D01*
D10*
X164144855Y-100406577D02*
X163472554Y-100406577D01*
X163808704Y-101583105D02*
X163808704Y-100406577D01*
X163080378Y-101583105D02*
X163080378Y-100406577D01*
X163080378Y-100406577D02*
X162632177Y-100406577D01*
X162632177Y-100406577D02*
X162520126Y-100462602D01*
X162520126Y-100462602D02*
X162464101Y-100518627D01*
X162464101Y-100518627D02*
X162408076Y-100630677D01*
X162408076Y-100630677D02*
X162408076Y-100798753D01*
X162408076Y-100798753D02*
X162464101Y-100910803D01*
X162464101Y-100910803D02*
X162520126Y-100966828D01*
X162520126Y-100966828D02*
X162632177Y-101022853D01*
X162632177Y-101022853D02*
X163080378Y-101022853D01*
X161399624Y-100406577D02*
X161623724Y-100406577D01*
X161623724Y-100406577D02*
X161735774Y-100462602D01*
X161735774Y-100462602D02*
X161791800Y-100518627D01*
X161791800Y-100518627D02*
X161903850Y-100686702D01*
X161903850Y-100686702D02*
X161959875Y-100910803D01*
X161959875Y-100910803D02*
X161959875Y-101359004D01*
X161959875Y-101359004D02*
X161903850Y-101471054D01*
X161903850Y-101471054D02*
X161847825Y-101527080D01*
X161847825Y-101527080D02*
X161735774Y-101583105D01*
X161735774Y-101583105D02*
X161511674Y-101583105D01*
X161511674Y-101583105D02*
X161399624Y-101527080D01*
X161399624Y-101527080D02*
X161343598Y-101471054D01*
X161343598Y-101471054D02*
X161287573Y-101359004D01*
X161287573Y-101359004D02*
X161287573Y-101078878D01*
X161287573Y-101078878D02*
X161343598Y-100966828D01*
X161343598Y-100966828D02*
X161399624Y-100910803D01*
X161399624Y-100910803D02*
X161511674Y-100854778D01*
X161511674Y-100854778D02*
X161735774Y-100854778D01*
X161735774Y-100854778D02*
X161847825Y-100910803D01*
X161847825Y-100910803D02*
X161903850Y-100966828D01*
X161903850Y-100966828D02*
X161959875Y-101078878D01*
X147209497Y-88923075D02*
X147345007Y-88729490D01*
X147441799Y-88923075D02*
X147441799Y-88516547D01*
X147441799Y-88516547D02*
X147286931Y-88516547D01*
X147286931Y-88516547D02*
X147248214Y-88535905D01*
X147248214Y-88535905D02*
X147228856Y-88555264D01*
X147228856Y-88555264D02*
X147209497Y-88593981D01*
X147209497Y-88593981D02*
X147209497Y-88652056D01*
X147209497Y-88652056D02*
X147228856Y-88690773D01*
X147228856Y-88690773D02*
X147248214Y-88710132D01*
X147248214Y-88710132D02*
X147286931Y-88729490D01*
X147286931Y-88729490D02*
X147441799Y-88729490D01*
X146861045Y-88516547D02*
X146938479Y-88516547D01*
X146938479Y-88516547D02*
X146977196Y-88535905D01*
X146977196Y-88535905D02*
X146996554Y-88555264D01*
X146996554Y-88555264D02*
X147035271Y-88613339D01*
X147035271Y-88613339D02*
X147054630Y-88690773D01*
X147054630Y-88690773D02*
X147054630Y-88845641D01*
X147054630Y-88845641D02*
X147035271Y-88884358D01*
X147035271Y-88884358D02*
X147015913Y-88903717D01*
X147015913Y-88903717D02*
X146977196Y-88923075D01*
X146977196Y-88923075D02*
X146899762Y-88923075D01*
X146899762Y-88923075D02*
X146861045Y-88903717D01*
X146861045Y-88903717D02*
X146841686Y-88884358D01*
X146841686Y-88884358D02*
X146822328Y-88845641D01*
X146822328Y-88845641D02*
X146822328Y-88748849D01*
X146822328Y-88748849D02*
X146841686Y-88710132D01*
X146841686Y-88710132D02*
X146861045Y-88690773D01*
X146861045Y-88690773D02*
X146899762Y-88671415D01*
X146899762Y-88671415D02*
X146977196Y-88671415D01*
X146977196Y-88671415D02*
X147015913Y-88690773D01*
X147015913Y-88690773D02*
X147035271Y-88710132D01*
X147035271Y-88710132D02*
X147054630Y-88748849D01*
X146078011Y-112978763D02*
X146484539Y-112978763D01*
X146484539Y-112978763D02*
X146484539Y-112881971D01*
X146484539Y-112881971D02*
X146465181Y-112823895D01*
X146465181Y-112823895D02*
X146426464Y-112785178D01*
X146426464Y-112785178D02*
X146387747Y-112765820D01*
X146387747Y-112765820D02*
X146310313Y-112746461D01*
X146310313Y-112746461D02*
X146252237Y-112746461D01*
X146252237Y-112746461D02*
X146174803Y-112765820D01*
X146174803Y-112765820D02*
X146136086Y-112785178D01*
X146136086Y-112785178D02*
X146097370Y-112823895D01*
X146097370Y-112823895D02*
X146078011Y-112881971D01*
X146078011Y-112881971D02*
X146078011Y-112978763D01*
X146078011Y-112359292D02*
X146078011Y-112591594D01*
X146078011Y-112475443D02*
X146484539Y-112475443D01*
X146484539Y-112475443D02*
X146426464Y-112514160D01*
X146426464Y-112514160D02*
X146387747Y-112552877D01*
X146387747Y-112552877D02*
X146368388Y-112591594D01*
X146484539Y-112107631D02*
X146484539Y-112068914D01*
X146484539Y-112068914D02*
X146465181Y-112030197D01*
X146465181Y-112030197D02*
X146445822Y-112010839D01*
X146445822Y-112010839D02*
X146407105Y-111991480D01*
X146407105Y-111991480D02*
X146329671Y-111972122D01*
X146329671Y-111972122D02*
X146232879Y-111972122D01*
X146232879Y-111972122D02*
X146155445Y-111991480D01*
X146155445Y-111991480D02*
X146116728Y-112010839D01*
X146116728Y-112010839D02*
X146097370Y-112030197D01*
X146097370Y-112030197D02*
X146078011Y-112068914D01*
X146078011Y-112068914D02*
X146078011Y-112107631D01*
X146078011Y-112107631D02*
X146097370Y-112146348D01*
X146097370Y-112146348D02*
X146116728Y-112165707D01*
X146116728Y-112165707D02*
X146155445Y-112185065D01*
X146155445Y-112185065D02*
X146232879Y-112204424D01*
X146232879Y-112204424D02*
X146329671Y-112204424D01*
X146329671Y-112204424D02*
X146407105Y-112185065D01*
X146407105Y-112185065D02*
X146445822Y-112165707D01*
X146445822Y-112165707D02*
X146465181Y-112146348D01*
X146465181Y-112146348D02*
X146484539Y-112107631D01*
X143795947Y-94184047D02*
X143563645Y-94184047D01*
X143679796Y-94590575D02*
X143679796Y-94184047D01*
X143486211Y-94184047D02*
X143350701Y-94590575D01*
X143350701Y-94590575D02*
X143215192Y-94184047D01*
X143099041Y-94571217D02*
X143040965Y-94590575D01*
X143040965Y-94590575D02*
X142944173Y-94590575D01*
X142944173Y-94590575D02*
X142905456Y-94571217D01*
X142905456Y-94571217D02*
X142886097Y-94551858D01*
X142886097Y-94551858D02*
X142866739Y-94513141D01*
X142866739Y-94513141D02*
X142866739Y-94474424D01*
X142866739Y-94474424D02*
X142886097Y-94435707D01*
X142886097Y-94435707D02*
X142905456Y-94416349D01*
X142905456Y-94416349D02*
X142944173Y-94396990D01*
X142944173Y-94396990D02*
X143021607Y-94377632D01*
X143021607Y-94377632D02*
X143060324Y-94358273D01*
X143060324Y-94358273D02*
X143079682Y-94338915D01*
X143079682Y-94338915D02*
X143099041Y-94300198D01*
X143099041Y-94300198D02*
X143099041Y-94261481D01*
X143099041Y-94261481D02*
X143079682Y-94222764D01*
X143079682Y-94222764D02*
X143060324Y-94203405D01*
X143060324Y-94203405D02*
X143021607Y-94184047D01*
X143021607Y-94184047D02*
X142924814Y-94184047D01*
X142924814Y-94184047D02*
X142866739Y-94203405D01*
X142711871Y-94222764D02*
X142692512Y-94203405D01*
X142692512Y-94203405D02*
X142653795Y-94184047D01*
X142653795Y-94184047D02*
X142557003Y-94184047D01*
X142557003Y-94184047D02*
X142518286Y-94203405D01*
X142518286Y-94203405D02*
X142498927Y-94222764D01*
X142498927Y-94222764D02*
X142479569Y-94261481D01*
X142479569Y-94261481D02*
X142479569Y-94300198D01*
X142479569Y-94300198D02*
X142498927Y-94358273D01*
X142498927Y-94358273D02*
X142731229Y-94590575D01*
X142731229Y-94590575D02*
X142479569Y-94590575D01*
X141209497Y-127023075D02*
X141345007Y-126829490D01*
X141441799Y-127023075D02*
X141441799Y-126616547D01*
X141441799Y-126616547D02*
X141286931Y-126616547D01*
X141286931Y-126616547D02*
X141248214Y-126635905D01*
X141248214Y-126635905D02*
X141228856Y-126655264D01*
X141228856Y-126655264D02*
X141209497Y-126693981D01*
X141209497Y-126693981D02*
X141209497Y-126752056D01*
X141209497Y-126752056D02*
X141228856Y-126790773D01*
X141228856Y-126790773D02*
X141248214Y-126810132D01*
X141248214Y-126810132D02*
X141286931Y-126829490D01*
X141286931Y-126829490D02*
X141441799Y-126829490D01*
X140861045Y-126752056D02*
X140861045Y-127023075D01*
X140957837Y-126597189D02*
X141054630Y-126887566D01*
X141054630Y-126887566D02*
X140802969Y-126887566D01*
X141995947Y-122684047D02*
X141763645Y-122684047D01*
X141879796Y-123090575D02*
X141879796Y-122684047D01*
X141686211Y-122684047D02*
X141550701Y-123090575D01*
X141550701Y-123090575D02*
X141415192Y-122684047D01*
X141299041Y-123071217D02*
X141240965Y-123090575D01*
X141240965Y-123090575D02*
X141144173Y-123090575D01*
X141144173Y-123090575D02*
X141105456Y-123071217D01*
X141105456Y-123071217D02*
X141086097Y-123051858D01*
X141086097Y-123051858D02*
X141066739Y-123013141D01*
X141066739Y-123013141D02*
X141066739Y-122974424D01*
X141066739Y-122974424D02*
X141086097Y-122935707D01*
X141086097Y-122935707D02*
X141105456Y-122916349D01*
X141105456Y-122916349D02*
X141144173Y-122896990D01*
X141144173Y-122896990D02*
X141221607Y-122877632D01*
X141221607Y-122877632D02*
X141260324Y-122858273D01*
X141260324Y-122858273D02*
X141279682Y-122838915D01*
X141279682Y-122838915D02*
X141299041Y-122800198D01*
X141299041Y-122800198D02*
X141299041Y-122761481D01*
X141299041Y-122761481D02*
X141279682Y-122722764D01*
X141279682Y-122722764D02*
X141260324Y-122703405D01*
X141260324Y-122703405D02*
X141221607Y-122684047D01*
X141221607Y-122684047D02*
X141124814Y-122684047D01*
X141124814Y-122684047D02*
X141066739Y-122703405D01*
X140679569Y-123090575D02*
X140911871Y-123090575D01*
X140795720Y-123090575D02*
X140795720Y-122684047D01*
X140795720Y-122684047D02*
X140834437Y-122742122D01*
X140834437Y-122742122D02*
X140873154Y-122780839D01*
X140873154Y-122780839D02*
X140911871Y-122800198D01*
X142866091Y-119188147D02*
X142846733Y-119207506D01*
X142846733Y-119207506D02*
X142827374Y-119265581D01*
X142827374Y-119265581D02*
X142827374Y-119304298D01*
X142827374Y-119304298D02*
X142846733Y-119362374D01*
X142846733Y-119362374D02*
X142885449Y-119401091D01*
X142885449Y-119401091D02*
X142924166Y-119420449D01*
X142924166Y-119420449D02*
X143001600Y-119439808D01*
X143001600Y-119439808D02*
X143059676Y-119439808D01*
X143059676Y-119439808D02*
X143137110Y-119420449D01*
X143137110Y-119420449D02*
X143175827Y-119401091D01*
X143175827Y-119401091D02*
X143214544Y-119362374D01*
X143214544Y-119362374D02*
X143233902Y-119304298D01*
X143233902Y-119304298D02*
X143233902Y-119265581D01*
X143233902Y-119265581D02*
X143214544Y-119207506D01*
X143214544Y-119207506D02*
X143195185Y-119188147D01*
X142827374Y-118800978D02*
X142827374Y-119033280D01*
X142827374Y-118917129D02*
X143233902Y-118917129D01*
X143233902Y-118917129D02*
X143175827Y-118955846D01*
X143175827Y-118955846D02*
X143137110Y-118994563D01*
X143137110Y-118994563D02*
X143117751Y-119033280D01*
D11*
X151735411Y-92664600D02*
X151735411Y-92284569D01*
X151735411Y-92284569D02*
X151644927Y-92284569D01*
X151644927Y-92284569D02*
X151590637Y-92302666D01*
X151590637Y-92302666D02*
X151554444Y-92338859D01*
X151554444Y-92338859D02*
X151536347Y-92375053D01*
X151536347Y-92375053D02*
X151518250Y-92447440D01*
X151518250Y-92447440D02*
X151518250Y-92501730D01*
X151518250Y-92501730D02*
X151536347Y-92574117D01*
X151536347Y-92574117D02*
X151554444Y-92610310D01*
X151554444Y-92610310D02*
X151590637Y-92646504D01*
X151590637Y-92646504D02*
X151644927Y-92664600D01*
X151644927Y-92664600D02*
X151735411Y-92664600D01*
X151301090Y-92447440D02*
X151337283Y-92429343D01*
X151337283Y-92429343D02*
X151355380Y-92411246D01*
X151355380Y-92411246D02*
X151373477Y-92375053D01*
X151373477Y-92375053D02*
X151373477Y-92356956D01*
X151373477Y-92356956D02*
X151355380Y-92320763D01*
X151355380Y-92320763D02*
X151337283Y-92302666D01*
X151337283Y-92302666D02*
X151301090Y-92284569D01*
X151301090Y-92284569D02*
X151228703Y-92284569D01*
X151228703Y-92284569D02*
X151192510Y-92302666D01*
X151192510Y-92302666D02*
X151174413Y-92320763D01*
X151174413Y-92320763D02*
X151156316Y-92356956D01*
X151156316Y-92356956D02*
X151156316Y-92375053D01*
X151156316Y-92375053D02*
X151174413Y-92411246D01*
X151174413Y-92411246D02*
X151192510Y-92429343D01*
X151192510Y-92429343D02*
X151228703Y-92447440D01*
X151228703Y-92447440D02*
X151301090Y-92447440D01*
X151301090Y-92447440D02*
X151337283Y-92465536D01*
X151337283Y-92465536D02*
X151355380Y-92483633D01*
X151355380Y-92483633D02*
X151373477Y-92519827D01*
X151373477Y-92519827D02*
X151373477Y-92592213D01*
X151373477Y-92592213D02*
X151355380Y-92628407D01*
X151355380Y-92628407D02*
X151337283Y-92646504D01*
X151337283Y-92646504D02*
X151301090Y-92664600D01*
X151301090Y-92664600D02*
X151228703Y-92664600D01*
X151228703Y-92664600D02*
X151192510Y-92646504D01*
X151192510Y-92646504D02*
X151174413Y-92628407D01*
X151174413Y-92628407D02*
X151156316Y-92592213D01*
X151156316Y-92592213D02*
X151156316Y-92519827D01*
X151156316Y-92519827D02*
X151174413Y-92483633D01*
X151174413Y-92483633D02*
X151192510Y-92465536D01*
X151192510Y-92465536D02*
X151228703Y-92447440D01*
X142062386Y-115341236D02*
X142062386Y-114961205D01*
X142062386Y-114961205D02*
X141971902Y-114961205D01*
X141971902Y-114961205D02*
X141917612Y-114979302D01*
X141917612Y-114979302D02*
X141881419Y-115015495D01*
X141881419Y-115015495D02*
X141863322Y-115051689D01*
X141863322Y-115051689D02*
X141845225Y-115124076D01*
X141845225Y-115124076D02*
X141845225Y-115178366D01*
X141845225Y-115178366D02*
X141863322Y-115250753D01*
X141863322Y-115250753D02*
X141881419Y-115286946D01*
X141881419Y-115286946D02*
X141917612Y-115323140D01*
X141917612Y-115323140D02*
X141971902Y-115341236D01*
X141971902Y-115341236D02*
X142062386Y-115341236D01*
X141700452Y-114997399D02*
X141682355Y-114979302D01*
X141682355Y-114979302D02*
X141646162Y-114961205D01*
X141646162Y-114961205D02*
X141555678Y-114961205D01*
X141555678Y-114961205D02*
X141519485Y-114979302D01*
X141519485Y-114979302D02*
X141501388Y-114997399D01*
X141501388Y-114997399D02*
X141483291Y-115033592D01*
X141483291Y-115033592D02*
X141483291Y-115069786D01*
X141483291Y-115069786D02*
X141501388Y-115124076D01*
X141501388Y-115124076D02*
X141718548Y-115341236D01*
X141718548Y-115341236D02*
X141483291Y-115341236D01*
D10*
X152620867Y-120123075D02*
X152756377Y-119929490D01*
X152853169Y-120123075D02*
X152853169Y-119716547D01*
X152853169Y-119716547D02*
X152698301Y-119716547D01*
X152698301Y-119716547D02*
X152659584Y-119735905D01*
X152659584Y-119735905D02*
X152640226Y-119755264D01*
X152640226Y-119755264D02*
X152620867Y-119793981D01*
X152620867Y-119793981D02*
X152620867Y-119852056D01*
X152620867Y-119852056D02*
X152640226Y-119890773D01*
X152640226Y-119890773D02*
X152659584Y-119910132D01*
X152659584Y-119910132D02*
X152698301Y-119929490D01*
X152698301Y-119929490D02*
X152853169Y-119929490D01*
X152233698Y-120123075D02*
X152466000Y-120123075D01*
X152349849Y-120123075D02*
X152349849Y-119716547D01*
X152349849Y-119716547D02*
X152388566Y-119774622D01*
X152388566Y-119774622D02*
X152427283Y-119813339D01*
X152427283Y-119813339D02*
X152466000Y-119832698D01*
X151982037Y-119716547D02*
X151943320Y-119716547D01*
X151943320Y-119716547D02*
X151904603Y-119735905D01*
X151904603Y-119735905D02*
X151885245Y-119755264D01*
X151885245Y-119755264D02*
X151865886Y-119793981D01*
X151865886Y-119793981D02*
X151846528Y-119871415D01*
X151846528Y-119871415D02*
X151846528Y-119968207D01*
X151846528Y-119968207D02*
X151865886Y-120045641D01*
X151865886Y-120045641D02*
X151885245Y-120084358D01*
X151885245Y-120084358D02*
X151904603Y-120103717D01*
X151904603Y-120103717D02*
X151943320Y-120123075D01*
X151943320Y-120123075D02*
X151982037Y-120123075D01*
X151982037Y-120123075D02*
X152020754Y-120103717D01*
X152020754Y-120103717D02*
X152040113Y-120084358D01*
X152040113Y-120084358D02*
X152059471Y-120045641D01*
X152059471Y-120045641D02*
X152078830Y-119968207D01*
X152078830Y-119968207D02*
X152078830Y-119871415D01*
X152078830Y-119871415D02*
X152059471Y-119793981D01*
X152059471Y-119793981D02*
X152040113Y-119755264D01*
X152040113Y-119755264D02*
X152020754Y-119735905D01*
X152020754Y-119735905D02*
X151982037Y-119716547D01*
D11*
X151735411Y-95064600D02*
X151735411Y-94684569D01*
X151735411Y-94684569D02*
X151644927Y-94684569D01*
X151644927Y-94684569D02*
X151590637Y-94702666D01*
X151590637Y-94702666D02*
X151554444Y-94738859D01*
X151554444Y-94738859D02*
X151536347Y-94775053D01*
X151536347Y-94775053D02*
X151518250Y-94847440D01*
X151518250Y-94847440D02*
X151518250Y-94901730D01*
X151518250Y-94901730D02*
X151536347Y-94974117D01*
X151536347Y-94974117D02*
X151554444Y-95010310D01*
X151554444Y-95010310D02*
X151590637Y-95046504D01*
X151590637Y-95046504D02*
X151644927Y-95064600D01*
X151644927Y-95064600D02*
X151735411Y-95064600D01*
X151391573Y-94684569D02*
X151138219Y-94684569D01*
X151138219Y-94684569D02*
X151301090Y-95064600D01*
X134293950Y-95805372D02*
X134420627Y-95805372D01*
X134420627Y-96004436D02*
X134420627Y-95624405D01*
X134420627Y-95624405D02*
X134239660Y-95624405D01*
X133968209Y-95805372D02*
X133913919Y-95823469D01*
X133913919Y-95823469D02*
X133895822Y-95841566D01*
X133895822Y-95841566D02*
X133877725Y-95877759D01*
X133877725Y-95877759D02*
X133877725Y-95932049D01*
X133877725Y-95932049D02*
X133895822Y-95968243D01*
X133895822Y-95968243D02*
X133913919Y-95986340D01*
X133913919Y-95986340D02*
X133950112Y-96004436D01*
X133950112Y-96004436D02*
X134094886Y-96004436D01*
X134094886Y-96004436D02*
X134094886Y-95624405D01*
X134094886Y-95624405D02*
X133968209Y-95624405D01*
X133968209Y-95624405D02*
X133932016Y-95642502D01*
X133932016Y-95642502D02*
X133913919Y-95660599D01*
X133913919Y-95660599D02*
X133895822Y-95696792D01*
X133895822Y-95696792D02*
X133895822Y-95732986D01*
X133895822Y-95732986D02*
X133913919Y-95769179D01*
X133913919Y-95769179D02*
X133932016Y-95787276D01*
X133932016Y-95787276D02*
X133968209Y-95805372D01*
X133968209Y-95805372D02*
X134094886Y-95805372D01*
X133751048Y-95624405D02*
X133497694Y-95624405D01*
X133497694Y-95624405D02*
X133660565Y-96004436D01*
D10*
X136633215Y-122250132D02*
X136768724Y-122250132D01*
X136768724Y-122463075D02*
X136768724Y-122056547D01*
X136768724Y-122056547D02*
X136575139Y-122056547D01*
X136439630Y-122095264D02*
X136420271Y-122075905D01*
X136420271Y-122075905D02*
X136381554Y-122056547D01*
X136381554Y-122056547D02*
X136284762Y-122056547D01*
X136284762Y-122056547D02*
X136246045Y-122075905D01*
X136246045Y-122075905D02*
X136226686Y-122095264D01*
X136226686Y-122095264D02*
X136207328Y-122133981D01*
X136207328Y-122133981D02*
X136207328Y-122172698D01*
X136207328Y-122172698D02*
X136226686Y-122230773D01*
X136226686Y-122230773D02*
X136458988Y-122463075D01*
X136458988Y-122463075D02*
X136207328Y-122463075D01*
X149396667Y-102523075D02*
X149532177Y-102329490D01*
X149628969Y-102523075D02*
X149628969Y-102116547D01*
X149628969Y-102116547D02*
X149474101Y-102116547D01*
X149474101Y-102116547D02*
X149435384Y-102135905D01*
X149435384Y-102135905D02*
X149416026Y-102155264D01*
X149416026Y-102155264D02*
X149396667Y-102193981D01*
X149396667Y-102193981D02*
X149396667Y-102252056D01*
X149396667Y-102252056D02*
X149416026Y-102290773D01*
X149416026Y-102290773D02*
X149435384Y-102310132D01*
X149435384Y-102310132D02*
X149474101Y-102329490D01*
X149474101Y-102329490D02*
X149628969Y-102329490D01*
X149009498Y-102523075D02*
X149241800Y-102523075D01*
X149125649Y-102523075D02*
X149125649Y-102116547D01*
X149125649Y-102116547D02*
X149164366Y-102174622D01*
X149164366Y-102174622D02*
X149203083Y-102213339D01*
X149203083Y-102213339D02*
X149241800Y-102232698D01*
X148661045Y-102252056D02*
X148661045Y-102523075D01*
X148757837Y-102097189D02*
X148854630Y-102387566D01*
X148854630Y-102387566D02*
X148602969Y-102387566D01*
D11*
X142062386Y-117541236D02*
X142062386Y-117161205D01*
X142062386Y-117161205D02*
X141971902Y-117161205D01*
X141971902Y-117161205D02*
X141917612Y-117179302D01*
X141917612Y-117179302D02*
X141881419Y-117215495D01*
X141881419Y-117215495D02*
X141863322Y-117251689D01*
X141863322Y-117251689D02*
X141845225Y-117324076D01*
X141845225Y-117324076D02*
X141845225Y-117378366D01*
X141845225Y-117378366D02*
X141863322Y-117450753D01*
X141863322Y-117450753D02*
X141881419Y-117486946D01*
X141881419Y-117486946D02*
X141917612Y-117523140D01*
X141917612Y-117523140D02*
X141971902Y-117541236D01*
X141971902Y-117541236D02*
X142062386Y-117541236D01*
X141483291Y-117541236D02*
X141700452Y-117541236D01*
X141591871Y-117541236D02*
X141591871Y-117161205D01*
X141591871Y-117161205D02*
X141628065Y-117215495D01*
X141628065Y-117215495D02*
X141664258Y-117251689D01*
X141664258Y-117251689D02*
X141700452Y-117269786D01*
X134293950Y-92258672D02*
X134420627Y-92258672D01*
X134420627Y-92457736D02*
X134420627Y-92077705D01*
X134420627Y-92077705D02*
X134239660Y-92077705D01*
X133968209Y-92258672D02*
X133913919Y-92276769D01*
X133913919Y-92276769D02*
X133895822Y-92294866D01*
X133895822Y-92294866D02*
X133877725Y-92331059D01*
X133877725Y-92331059D02*
X133877725Y-92385349D01*
X133877725Y-92385349D02*
X133895822Y-92421543D01*
X133895822Y-92421543D02*
X133913919Y-92439640D01*
X133913919Y-92439640D02*
X133950112Y-92457736D01*
X133950112Y-92457736D02*
X134094886Y-92457736D01*
X134094886Y-92457736D02*
X134094886Y-92077705D01*
X134094886Y-92077705D02*
X133968209Y-92077705D01*
X133968209Y-92077705D02*
X133932016Y-92095802D01*
X133932016Y-92095802D02*
X133913919Y-92113899D01*
X133913919Y-92113899D02*
X133895822Y-92150092D01*
X133895822Y-92150092D02*
X133895822Y-92186286D01*
X133895822Y-92186286D02*
X133913919Y-92222479D01*
X133913919Y-92222479D02*
X133932016Y-92240576D01*
X133932016Y-92240576D02*
X133968209Y-92258672D01*
X133968209Y-92258672D02*
X134094886Y-92258672D01*
X133533888Y-92077705D02*
X133714855Y-92077705D01*
X133714855Y-92077705D02*
X133732952Y-92258672D01*
X133732952Y-92258672D02*
X133714855Y-92240576D01*
X133714855Y-92240576D02*
X133678662Y-92222479D01*
X133678662Y-92222479D02*
X133588178Y-92222479D01*
X133588178Y-92222479D02*
X133551985Y-92240576D01*
X133551985Y-92240576D02*
X133533888Y-92258672D01*
X133533888Y-92258672D02*
X133515791Y-92294866D01*
X133515791Y-92294866D02*
X133515791Y-92385349D01*
X133515791Y-92385349D02*
X133533888Y-92421543D01*
X133533888Y-92421543D02*
X133551985Y-92439640D01*
X133551985Y-92439640D02*
X133588178Y-92457736D01*
X133588178Y-92457736D02*
X133678662Y-92457736D01*
X133678662Y-92457736D02*
X133714855Y-92439640D01*
X133714855Y-92439640D02*
X133732952Y-92421543D01*
D10*
X160296667Y-95323075D02*
X160432177Y-95129490D01*
X160528969Y-95323075D02*
X160528969Y-94916547D01*
X160528969Y-94916547D02*
X160374101Y-94916547D01*
X160374101Y-94916547D02*
X160335384Y-94935905D01*
X160335384Y-94935905D02*
X160316026Y-94955264D01*
X160316026Y-94955264D02*
X160296667Y-94993981D01*
X160296667Y-94993981D02*
X160296667Y-95052056D01*
X160296667Y-95052056D02*
X160316026Y-95090773D01*
X160316026Y-95090773D02*
X160335384Y-95110132D01*
X160335384Y-95110132D02*
X160374101Y-95129490D01*
X160374101Y-95129490D02*
X160528969Y-95129490D01*
X159909498Y-95323075D02*
X160141800Y-95323075D01*
X160025649Y-95323075D02*
X160025649Y-94916547D01*
X160025649Y-94916547D02*
X160064366Y-94974622D01*
X160064366Y-94974622D02*
X160103083Y-95013339D01*
X160103083Y-95013339D02*
X160141800Y-95032698D01*
X159561045Y-94916547D02*
X159638479Y-94916547D01*
X159638479Y-94916547D02*
X159677196Y-94935905D01*
X159677196Y-94935905D02*
X159696554Y-94955264D01*
X159696554Y-94955264D02*
X159735271Y-95013339D01*
X159735271Y-95013339D02*
X159754630Y-95090773D01*
X159754630Y-95090773D02*
X159754630Y-95245641D01*
X159754630Y-95245641D02*
X159735271Y-95284358D01*
X159735271Y-95284358D02*
X159715913Y-95303717D01*
X159715913Y-95303717D02*
X159677196Y-95323075D01*
X159677196Y-95323075D02*
X159599762Y-95323075D01*
X159599762Y-95323075D02*
X159561045Y-95303717D01*
X159561045Y-95303717D02*
X159541686Y-95284358D01*
X159541686Y-95284358D02*
X159522328Y-95245641D01*
X159522328Y-95245641D02*
X159522328Y-95148849D01*
X159522328Y-95148849D02*
X159541686Y-95110132D01*
X159541686Y-95110132D02*
X159561045Y-95090773D01*
X159561045Y-95090773D02*
X159599762Y-95071415D01*
X159599762Y-95071415D02*
X159677196Y-95071415D01*
X159677196Y-95071415D02*
X159715913Y-95090773D01*
X159715913Y-95090773D02*
X159735271Y-95110132D01*
X159735271Y-95110132D02*
X159754630Y-95148849D01*
X136633215Y-120290132D02*
X136768724Y-120290132D01*
X136768724Y-120503075D02*
X136768724Y-120096547D01*
X136768724Y-120096547D02*
X136575139Y-120096547D01*
X136207328Y-120503075D02*
X136439630Y-120503075D01*
X136323479Y-120503075D02*
X136323479Y-120096547D01*
X136323479Y-120096547D02*
X136362196Y-120154622D01*
X136362196Y-120154622D02*
X136400913Y-120193339D01*
X136400913Y-120193339D02*
X136439630Y-120212698D01*
X153278011Y-105978763D02*
X153684539Y-105978763D01*
X153684539Y-105978763D02*
X153684539Y-105881971D01*
X153684539Y-105881971D02*
X153665181Y-105823895D01*
X153665181Y-105823895D02*
X153626464Y-105785178D01*
X153626464Y-105785178D02*
X153587747Y-105765820D01*
X153587747Y-105765820D02*
X153510313Y-105746461D01*
X153510313Y-105746461D02*
X153452237Y-105746461D01*
X153452237Y-105746461D02*
X153374803Y-105765820D01*
X153374803Y-105765820D02*
X153336086Y-105785178D01*
X153336086Y-105785178D02*
X153297370Y-105823895D01*
X153297370Y-105823895D02*
X153278011Y-105881971D01*
X153278011Y-105881971D02*
X153278011Y-105978763D01*
X153278011Y-105359292D02*
X153278011Y-105591594D01*
X153278011Y-105475443D02*
X153684539Y-105475443D01*
X153684539Y-105475443D02*
X153626464Y-105514160D01*
X153626464Y-105514160D02*
X153587747Y-105552877D01*
X153587747Y-105552877D02*
X153568388Y-105591594D01*
X153278011Y-104972122D02*
X153278011Y-105204424D01*
X153278011Y-105088273D02*
X153684539Y-105088273D01*
X153684539Y-105088273D02*
X153626464Y-105126990D01*
X153626464Y-105126990D02*
X153587747Y-105165707D01*
X153587747Y-105165707D02*
X153568388Y-105204424D01*
X159218189Y-108570810D02*
X158985887Y-108570810D01*
X159102038Y-108977338D02*
X159102038Y-108570810D01*
X158850377Y-108977338D02*
X158850377Y-108570810D01*
X158850377Y-108570810D02*
X158695509Y-108570810D01*
X158695509Y-108570810D02*
X158656792Y-108590168D01*
X158656792Y-108590168D02*
X158637434Y-108609527D01*
X158637434Y-108609527D02*
X158618075Y-108648244D01*
X158618075Y-108648244D02*
X158618075Y-108706319D01*
X158618075Y-108706319D02*
X158637434Y-108745036D01*
X158637434Y-108745036D02*
X158656792Y-108764395D01*
X158656792Y-108764395D02*
X158695509Y-108783753D01*
X158695509Y-108783753D02*
X158850377Y-108783753D01*
X158269623Y-108706319D02*
X158269623Y-108977338D01*
X158366415Y-108551452D02*
X158463208Y-108841829D01*
X158463208Y-108841829D02*
X158211547Y-108841829D01*
X136643011Y-115376461D02*
X136836596Y-115511971D01*
X136643011Y-115608763D02*
X137049539Y-115608763D01*
X137049539Y-115608763D02*
X137049539Y-115453895D01*
X137049539Y-115453895D02*
X137030181Y-115415178D01*
X137030181Y-115415178D02*
X137010822Y-115395820D01*
X137010822Y-115395820D02*
X136972105Y-115376461D01*
X136972105Y-115376461D02*
X136914030Y-115376461D01*
X136914030Y-115376461D02*
X136875313Y-115395820D01*
X136875313Y-115395820D02*
X136855954Y-115415178D01*
X136855954Y-115415178D02*
X136836596Y-115453895D01*
X136836596Y-115453895D02*
X136836596Y-115608763D01*
X137010822Y-115221594D02*
X137030181Y-115202235D01*
X137030181Y-115202235D02*
X137049539Y-115163518D01*
X137049539Y-115163518D02*
X137049539Y-115066726D01*
X137049539Y-115066726D02*
X137030181Y-115028009D01*
X137030181Y-115028009D02*
X137010822Y-115008650D01*
X137010822Y-115008650D02*
X136972105Y-114989292D01*
X136972105Y-114989292D02*
X136933388Y-114989292D01*
X136933388Y-114989292D02*
X136875313Y-115008650D01*
X136875313Y-115008650D02*
X136643011Y-115240952D01*
X136643011Y-115240952D02*
X136643011Y-114989292D01*
X154618189Y-107370810D02*
X154385887Y-107370810D01*
X154502038Y-107777338D02*
X154502038Y-107370810D01*
X154250377Y-107777338D02*
X154250377Y-107370810D01*
X154250377Y-107370810D02*
X154095509Y-107370810D01*
X154095509Y-107370810D02*
X154056792Y-107390168D01*
X154056792Y-107390168D02*
X154037434Y-107409527D01*
X154037434Y-107409527D02*
X154018075Y-107448244D01*
X154018075Y-107448244D02*
X154018075Y-107506319D01*
X154018075Y-107506319D02*
X154037434Y-107545036D01*
X154037434Y-107545036D02*
X154056792Y-107564395D01*
X154056792Y-107564395D02*
X154095509Y-107583753D01*
X154095509Y-107583753D02*
X154250377Y-107583753D01*
X153630906Y-107777338D02*
X153863208Y-107777338D01*
X153747057Y-107777338D02*
X153747057Y-107370810D01*
X153747057Y-107370810D02*
X153785774Y-107428885D01*
X153785774Y-107428885D02*
X153824491Y-107467602D01*
X153824491Y-107467602D02*
X153863208Y-107486961D01*
X156118189Y-107370810D02*
X155885887Y-107370810D01*
X156002038Y-107777338D02*
X156002038Y-107370810D01*
X155750377Y-107777338D02*
X155750377Y-107370810D01*
X155750377Y-107370810D02*
X155595509Y-107370810D01*
X155595509Y-107370810D02*
X155556792Y-107390168D01*
X155556792Y-107390168D02*
X155537434Y-107409527D01*
X155537434Y-107409527D02*
X155518075Y-107448244D01*
X155518075Y-107448244D02*
X155518075Y-107506319D01*
X155518075Y-107506319D02*
X155537434Y-107545036D01*
X155537434Y-107545036D02*
X155556792Y-107564395D01*
X155556792Y-107564395D02*
X155595509Y-107583753D01*
X155595509Y-107583753D02*
X155750377Y-107583753D01*
X155363208Y-107409527D02*
X155343849Y-107390168D01*
X155343849Y-107390168D02*
X155305132Y-107370810D01*
X155305132Y-107370810D02*
X155208340Y-107370810D01*
X155208340Y-107370810D02*
X155169623Y-107390168D01*
X155169623Y-107390168D02*
X155150264Y-107409527D01*
X155150264Y-107409527D02*
X155130906Y-107448244D01*
X155130906Y-107448244D02*
X155130906Y-107486961D01*
X155130906Y-107486961D02*
X155150264Y-107545036D01*
X155150264Y-107545036D02*
X155382566Y-107777338D01*
X155382566Y-107777338D02*
X155130906Y-107777338D01*
X157618189Y-108870810D02*
X157385887Y-108870810D01*
X157502038Y-109277338D02*
X157502038Y-108870810D01*
X157250377Y-109277338D02*
X157250377Y-108870810D01*
X157250377Y-108870810D02*
X157095509Y-108870810D01*
X157095509Y-108870810D02*
X157056792Y-108890168D01*
X157056792Y-108890168D02*
X157037434Y-108909527D01*
X157037434Y-108909527D02*
X157018075Y-108948244D01*
X157018075Y-108948244D02*
X157018075Y-109006319D01*
X157018075Y-109006319D02*
X157037434Y-109045036D01*
X157037434Y-109045036D02*
X157056792Y-109064395D01*
X157056792Y-109064395D02*
X157095509Y-109083753D01*
X157095509Y-109083753D02*
X157250377Y-109083753D01*
X156882566Y-108870810D02*
X156630906Y-108870810D01*
X156630906Y-108870810D02*
X156766415Y-109025678D01*
X156766415Y-109025678D02*
X156708340Y-109025678D01*
X156708340Y-109025678D02*
X156669623Y-109045036D01*
X156669623Y-109045036D02*
X156650264Y-109064395D01*
X156650264Y-109064395D02*
X156630906Y-109103112D01*
X156630906Y-109103112D02*
X156630906Y-109199904D01*
X156630906Y-109199904D02*
X156650264Y-109238621D01*
X156650264Y-109238621D02*
X156669623Y-109257980D01*
X156669623Y-109257980D02*
X156708340Y-109277338D01*
X156708340Y-109277338D02*
X156824491Y-109277338D01*
X156824491Y-109277338D02*
X156863208Y-109257980D01*
X156863208Y-109257980D02*
X156882566Y-109238621D01*
X141209497Y-124823075D02*
X141345007Y-124629490D01*
X141441799Y-124823075D02*
X141441799Y-124416547D01*
X141441799Y-124416547D02*
X141286931Y-124416547D01*
X141286931Y-124416547D02*
X141248214Y-124435905D01*
X141248214Y-124435905D02*
X141228856Y-124455264D01*
X141228856Y-124455264D02*
X141209497Y-124493981D01*
X141209497Y-124493981D02*
X141209497Y-124552056D01*
X141209497Y-124552056D02*
X141228856Y-124590773D01*
X141228856Y-124590773D02*
X141248214Y-124610132D01*
X141248214Y-124610132D02*
X141286931Y-124629490D01*
X141286931Y-124629490D02*
X141441799Y-124629490D01*
X141073988Y-124416547D02*
X140822328Y-124416547D01*
X140822328Y-124416547D02*
X140957837Y-124571415D01*
X140957837Y-124571415D02*
X140899762Y-124571415D01*
X140899762Y-124571415D02*
X140861045Y-124590773D01*
X140861045Y-124590773D02*
X140841686Y-124610132D01*
X140841686Y-124610132D02*
X140822328Y-124648849D01*
X140822328Y-124648849D02*
X140822328Y-124745641D01*
X140822328Y-124745641D02*
X140841686Y-124784358D01*
X140841686Y-124784358D02*
X140861045Y-124803717D01*
X140861045Y-124803717D02*
X140899762Y-124823075D01*
X140899762Y-124823075D02*
X141015913Y-124823075D01*
X141015913Y-124823075D02*
X141054630Y-124803717D01*
X141054630Y-124803717D02*
X141073988Y-124784358D01*
X152992374Y-94072619D02*
X153398902Y-94072619D01*
X153398902Y-94072619D02*
X153398902Y-93975827D01*
X153398902Y-93975827D02*
X153379544Y-93917751D01*
X153379544Y-93917751D02*
X153340827Y-93879034D01*
X153340827Y-93879034D02*
X153302110Y-93859676D01*
X153302110Y-93859676D02*
X153224676Y-93840317D01*
X153224676Y-93840317D02*
X153166600Y-93840317D01*
X153166600Y-93840317D02*
X153089166Y-93859676D01*
X153089166Y-93859676D02*
X153050449Y-93879034D01*
X153050449Y-93879034D02*
X153011733Y-93917751D01*
X153011733Y-93917751D02*
X152992374Y-93975827D01*
X152992374Y-93975827D02*
X152992374Y-94072619D01*
X152992374Y-93453148D02*
X152992374Y-93685450D01*
X152992374Y-93569299D02*
X153398902Y-93569299D01*
X153398902Y-93569299D02*
X153340827Y-93608016D01*
X153340827Y-93608016D02*
X153302110Y-93646733D01*
X153302110Y-93646733D02*
X153282751Y-93685450D01*
X153360185Y-93298280D02*
X153379544Y-93278921D01*
X153379544Y-93278921D02*
X153398902Y-93240204D01*
X153398902Y-93240204D02*
X153398902Y-93143412D01*
X153398902Y-93143412D02*
X153379544Y-93104695D01*
X153379544Y-93104695D02*
X153360185Y-93085336D01*
X153360185Y-93085336D02*
X153321468Y-93065978D01*
X153321468Y-93065978D02*
X153282751Y-93065978D01*
X153282751Y-93065978D02*
X153224676Y-93085336D01*
X153224676Y-93085336D02*
X152992374Y-93317638D01*
X152992374Y-93317638D02*
X152992374Y-93065978D01*
X138533215Y-92383432D02*
X138668724Y-92383432D01*
X138668724Y-92596375D02*
X138668724Y-92189847D01*
X138668724Y-92189847D02*
X138475139Y-92189847D01*
X138126686Y-92189847D02*
X138320271Y-92189847D01*
X138320271Y-92189847D02*
X138339630Y-92383432D01*
X138339630Y-92383432D02*
X138320271Y-92364073D01*
X138320271Y-92364073D02*
X138281554Y-92344715D01*
X138281554Y-92344715D02*
X138184762Y-92344715D01*
X138184762Y-92344715D02*
X138146045Y-92364073D01*
X138146045Y-92364073D02*
X138126686Y-92383432D01*
X138126686Y-92383432D02*
X138107328Y-92422149D01*
X138107328Y-92422149D02*
X138107328Y-92518941D01*
X138107328Y-92518941D02*
X138126686Y-92557658D01*
X138126686Y-92557658D02*
X138146045Y-92577017D01*
X138146045Y-92577017D02*
X138184762Y-92596375D01*
X138184762Y-92596375D02*
X138281554Y-92596375D01*
X138281554Y-92596375D02*
X138320271Y-92577017D01*
X138320271Y-92577017D02*
X138339630Y-92557658D01*
D11*
X134393950Y-93991972D02*
X134520627Y-93991972D01*
X134520627Y-94191036D02*
X134520627Y-93811005D01*
X134520627Y-93811005D02*
X134339660Y-93811005D01*
X134068209Y-93991972D02*
X134013919Y-94010069D01*
X134013919Y-94010069D02*
X133995822Y-94028166D01*
X133995822Y-94028166D02*
X133977725Y-94064359D01*
X133977725Y-94064359D02*
X133977725Y-94118649D01*
X133977725Y-94118649D02*
X133995822Y-94154843D01*
X133995822Y-94154843D02*
X134013919Y-94172940D01*
X134013919Y-94172940D02*
X134050112Y-94191036D01*
X134050112Y-94191036D02*
X134194886Y-94191036D01*
X134194886Y-94191036D02*
X134194886Y-93811005D01*
X134194886Y-93811005D02*
X134068209Y-93811005D01*
X134068209Y-93811005D02*
X134032016Y-93829102D01*
X134032016Y-93829102D02*
X134013919Y-93847199D01*
X134013919Y-93847199D02*
X133995822Y-93883392D01*
X133995822Y-93883392D02*
X133995822Y-93919586D01*
X133995822Y-93919586D02*
X134013919Y-93955779D01*
X134013919Y-93955779D02*
X134032016Y-93973876D01*
X134032016Y-93973876D02*
X134068209Y-93991972D01*
X134068209Y-93991972D02*
X134194886Y-93991972D01*
X133760565Y-93973876D02*
X133796758Y-93955779D01*
X133796758Y-93955779D02*
X133814855Y-93937682D01*
X133814855Y-93937682D02*
X133832952Y-93901489D01*
X133832952Y-93901489D02*
X133832952Y-93883392D01*
X133832952Y-93883392D02*
X133814855Y-93847199D01*
X133814855Y-93847199D02*
X133796758Y-93829102D01*
X133796758Y-93829102D02*
X133760565Y-93811005D01*
X133760565Y-93811005D02*
X133688178Y-93811005D01*
X133688178Y-93811005D02*
X133651985Y-93829102D01*
X133651985Y-93829102D02*
X133633888Y-93847199D01*
X133633888Y-93847199D02*
X133615791Y-93883392D01*
X133615791Y-93883392D02*
X133615791Y-93901489D01*
X133615791Y-93901489D02*
X133633888Y-93937682D01*
X133633888Y-93937682D02*
X133651985Y-93955779D01*
X133651985Y-93955779D02*
X133688178Y-93973876D01*
X133688178Y-93973876D02*
X133760565Y-93973876D01*
X133760565Y-93973876D02*
X133796758Y-93991972D01*
X133796758Y-93991972D02*
X133814855Y-94010069D01*
X133814855Y-94010069D02*
X133832952Y-94046263D01*
X133832952Y-94046263D02*
X133832952Y-94118649D01*
X133832952Y-94118649D02*
X133814855Y-94154843D01*
X133814855Y-94154843D02*
X133796758Y-94172940D01*
X133796758Y-94172940D02*
X133760565Y-94191036D01*
X133760565Y-94191036D02*
X133688178Y-94191036D01*
X133688178Y-94191036D02*
X133651985Y-94172940D01*
X133651985Y-94172940D02*
X133633888Y-94154843D01*
X133633888Y-94154843D02*
X133615791Y-94118649D01*
X133615791Y-94118649D02*
X133615791Y-94046263D01*
X133615791Y-94046263D02*
X133633888Y-94010069D01*
X133633888Y-94010069D02*
X133651985Y-93991972D01*
X133651985Y-93991972D02*
X133688178Y-93973876D01*
D10*
X134363902Y-99094808D02*
X133957374Y-98823789D01*
X134363902Y-98823789D02*
X133957374Y-99094808D01*
X133957374Y-98455978D02*
X133957374Y-98688280D01*
X133957374Y-98572129D02*
X134363902Y-98572129D01*
X134363902Y-98572129D02*
X134305827Y-98610846D01*
X134305827Y-98610846D02*
X134267110Y-98649563D01*
X134267110Y-98649563D02*
X134247751Y-98688280D01*
X143009497Y-88923075D02*
X143145007Y-88729490D01*
X143241799Y-88923075D02*
X143241799Y-88516547D01*
X143241799Y-88516547D02*
X143086931Y-88516547D01*
X143086931Y-88516547D02*
X143048214Y-88535905D01*
X143048214Y-88535905D02*
X143028856Y-88555264D01*
X143028856Y-88555264D02*
X143009497Y-88593981D01*
X143009497Y-88593981D02*
X143009497Y-88652056D01*
X143009497Y-88652056D02*
X143028856Y-88690773D01*
X143028856Y-88690773D02*
X143048214Y-88710132D01*
X143048214Y-88710132D02*
X143086931Y-88729490D01*
X143086931Y-88729490D02*
X143241799Y-88729490D01*
X142641686Y-88516547D02*
X142835271Y-88516547D01*
X142835271Y-88516547D02*
X142854630Y-88710132D01*
X142854630Y-88710132D02*
X142835271Y-88690773D01*
X142835271Y-88690773D02*
X142796554Y-88671415D01*
X142796554Y-88671415D02*
X142699762Y-88671415D01*
X142699762Y-88671415D02*
X142661045Y-88690773D01*
X142661045Y-88690773D02*
X142641686Y-88710132D01*
X142641686Y-88710132D02*
X142622328Y-88748849D01*
X142622328Y-88748849D02*
X142622328Y-88845641D01*
X142622328Y-88845641D02*
X142641686Y-88884358D01*
X142641686Y-88884358D02*
X142661045Y-88903717D01*
X142661045Y-88903717D02*
X142699762Y-88923075D01*
X142699762Y-88923075D02*
X142796554Y-88923075D01*
X142796554Y-88923075D02*
X142835271Y-88903717D01*
X142835271Y-88903717D02*
X142854630Y-88884358D01*
X138533215Y-94190132D02*
X138668724Y-94190132D01*
X138668724Y-94403075D02*
X138668724Y-93996547D01*
X138668724Y-93996547D02*
X138475139Y-93996547D01*
X138262196Y-94170773D02*
X138300913Y-94151415D01*
X138300913Y-94151415D02*
X138320271Y-94132056D01*
X138320271Y-94132056D02*
X138339630Y-94093339D01*
X138339630Y-94093339D02*
X138339630Y-94073981D01*
X138339630Y-94073981D02*
X138320271Y-94035264D01*
X138320271Y-94035264D02*
X138300913Y-94015905D01*
X138300913Y-94015905D02*
X138262196Y-93996547D01*
X138262196Y-93996547D02*
X138184762Y-93996547D01*
X138184762Y-93996547D02*
X138146045Y-94015905D01*
X138146045Y-94015905D02*
X138126686Y-94035264D01*
X138126686Y-94035264D02*
X138107328Y-94073981D01*
X138107328Y-94073981D02*
X138107328Y-94093339D01*
X138107328Y-94093339D02*
X138126686Y-94132056D01*
X138126686Y-94132056D02*
X138146045Y-94151415D01*
X138146045Y-94151415D02*
X138184762Y-94170773D01*
X138184762Y-94170773D02*
X138262196Y-94170773D01*
X138262196Y-94170773D02*
X138300913Y-94190132D01*
X138300913Y-94190132D02*
X138320271Y-94209490D01*
X138320271Y-94209490D02*
X138339630Y-94248207D01*
X138339630Y-94248207D02*
X138339630Y-94325641D01*
X138339630Y-94325641D02*
X138320271Y-94364358D01*
X138320271Y-94364358D02*
X138300913Y-94383717D01*
X138300913Y-94383717D02*
X138262196Y-94403075D01*
X138262196Y-94403075D02*
X138184762Y-94403075D01*
X138184762Y-94403075D02*
X138146045Y-94383717D01*
X138146045Y-94383717D02*
X138126686Y-94364358D01*
X138126686Y-94364358D02*
X138107328Y-94325641D01*
X138107328Y-94325641D02*
X138107328Y-94248207D01*
X138107328Y-94248207D02*
X138126686Y-94209490D01*
X138126686Y-94209490D02*
X138146045Y-94190132D01*
X138146045Y-94190132D02*
X138184762Y-94170773D01*
X138533215Y-90643432D02*
X138668724Y-90643432D01*
X138668724Y-90856375D02*
X138668724Y-90449847D01*
X138668724Y-90449847D02*
X138475139Y-90449847D01*
X138146045Y-90449847D02*
X138223479Y-90449847D01*
X138223479Y-90449847D02*
X138262196Y-90469205D01*
X138262196Y-90469205D02*
X138281554Y-90488564D01*
X138281554Y-90488564D02*
X138320271Y-90546639D01*
X138320271Y-90546639D02*
X138339630Y-90624073D01*
X138339630Y-90624073D02*
X138339630Y-90778941D01*
X138339630Y-90778941D02*
X138320271Y-90817658D01*
X138320271Y-90817658D02*
X138300913Y-90837017D01*
X138300913Y-90837017D02*
X138262196Y-90856375D01*
X138262196Y-90856375D02*
X138184762Y-90856375D01*
X138184762Y-90856375D02*
X138146045Y-90837017D01*
X138146045Y-90837017D02*
X138126686Y-90817658D01*
X138126686Y-90817658D02*
X138107328Y-90778941D01*
X138107328Y-90778941D02*
X138107328Y-90682149D01*
X138107328Y-90682149D02*
X138126686Y-90643432D01*
X138126686Y-90643432D02*
X138146045Y-90624073D01*
X138146045Y-90624073D02*
X138184762Y-90604715D01*
X138184762Y-90604715D02*
X138262196Y-90604715D01*
X138262196Y-90604715D02*
X138300913Y-90624073D01*
X138300913Y-90624073D02*
X138320271Y-90643432D01*
X138320271Y-90643432D02*
X138339630Y-90682149D01*
X159118189Y-107370810D02*
X158885887Y-107370810D01*
X159002038Y-107777338D02*
X159002038Y-107370810D01*
X158750377Y-107777338D02*
X158750377Y-107370810D01*
X158750377Y-107370810D02*
X158595509Y-107370810D01*
X158595509Y-107370810D02*
X158556792Y-107390168D01*
X158556792Y-107390168D02*
X158537434Y-107409527D01*
X158537434Y-107409527D02*
X158518075Y-107448244D01*
X158518075Y-107448244D02*
X158518075Y-107506319D01*
X158518075Y-107506319D02*
X158537434Y-107545036D01*
X158537434Y-107545036D02*
X158556792Y-107564395D01*
X158556792Y-107564395D02*
X158595509Y-107583753D01*
X158595509Y-107583753D02*
X158750377Y-107583753D01*
X158150264Y-107370810D02*
X158343849Y-107370810D01*
X158343849Y-107370810D02*
X158363208Y-107564395D01*
X158363208Y-107564395D02*
X158343849Y-107545036D01*
X158343849Y-107545036D02*
X158305132Y-107525678D01*
X158305132Y-107525678D02*
X158208340Y-107525678D01*
X158208340Y-107525678D02*
X158169623Y-107545036D01*
X158169623Y-107545036D02*
X158150264Y-107564395D01*
X158150264Y-107564395D02*
X158130906Y-107603112D01*
X158130906Y-107603112D02*
X158130906Y-107699904D01*
X158130906Y-107699904D02*
X158150264Y-107738621D01*
X158150264Y-107738621D02*
X158169623Y-107757980D01*
X158169623Y-107757980D02*
X158208340Y-107777338D01*
X158208340Y-107777338D02*
X158305132Y-107777338D01*
X158305132Y-107777338D02*
X158343849Y-107757980D01*
X158343849Y-107757980D02*
X158363208Y-107738621D01*
X136633215Y-123996832D02*
X136768724Y-123996832D01*
X136768724Y-124209775D02*
X136768724Y-123803247D01*
X136768724Y-123803247D02*
X136575139Y-123803247D01*
X136246045Y-123938756D02*
X136246045Y-124209775D01*
X136342837Y-123783889D02*
X136439630Y-124074266D01*
X136439630Y-124074266D02*
X136187969Y-124074266D01*
X138533215Y-95930132D02*
X138668724Y-95930132D01*
X138668724Y-96143075D02*
X138668724Y-95736547D01*
X138668724Y-95736547D02*
X138475139Y-95736547D01*
X138358988Y-95736547D02*
X138087969Y-95736547D01*
X138087969Y-95736547D02*
X138262196Y-96143075D01*
D11*
X146235411Y-104264600D02*
X146235411Y-103884569D01*
X146235411Y-103884569D02*
X146144927Y-103884569D01*
X146144927Y-103884569D02*
X146090637Y-103902666D01*
X146090637Y-103902666D02*
X146054444Y-103938859D01*
X146054444Y-103938859D02*
X146036347Y-103975053D01*
X146036347Y-103975053D02*
X146018250Y-104047440D01*
X146018250Y-104047440D02*
X146018250Y-104101730D01*
X146018250Y-104101730D02*
X146036347Y-104174117D01*
X146036347Y-104174117D02*
X146054444Y-104210310D01*
X146054444Y-104210310D02*
X146090637Y-104246504D01*
X146090637Y-104246504D02*
X146144927Y-104264600D01*
X146144927Y-104264600D02*
X146235411Y-104264600D01*
X145674413Y-103884569D02*
X145855380Y-103884569D01*
X145855380Y-103884569D02*
X145873477Y-104065536D01*
X145873477Y-104065536D02*
X145855380Y-104047440D01*
X145855380Y-104047440D02*
X145819187Y-104029343D01*
X145819187Y-104029343D02*
X145728703Y-104029343D01*
X145728703Y-104029343D02*
X145692510Y-104047440D01*
X145692510Y-104047440D02*
X145674413Y-104065536D01*
X145674413Y-104065536D02*
X145656316Y-104101730D01*
X145656316Y-104101730D02*
X145656316Y-104192213D01*
X145656316Y-104192213D02*
X145674413Y-104228407D01*
X145674413Y-104228407D02*
X145692510Y-104246504D01*
X145692510Y-104246504D02*
X145728703Y-104264600D01*
X145728703Y-104264600D02*
X145819187Y-104264600D01*
X145819187Y-104264600D02*
X145855380Y-104246504D01*
X145855380Y-104246504D02*
X145873477Y-104228407D01*
D10*
X148296667Y-117923075D02*
X148432177Y-117729490D01*
X148528969Y-117923075D02*
X148528969Y-117516547D01*
X148528969Y-117516547D02*
X148374101Y-117516547D01*
X148374101Y-117516547D02*
X148335384Y-117535905D01*
X148335384Y-117535905D02*
X148316026Y-117555264D01*
X148316026Y-117555264D02*
X148296667Y-117593981D01*
X148296667Y-117593981D02*
X148296667Y-117652056D01*
X148296667Y-117652056D02*
X148316026Y-117690773D01*
X148316026Y-117690773D02*
X148335384Y-117710132D01*
X148335384Y-117710132D02*
X148374101Y-117729490D01*
X148374101Y-117729490D02*
X148528969Y-117729490D01*
X147909498Y-117923075D02*
X148141800Y-117923075D01*
X148025649Y-117923075D02*
X148025649Y-117516547D01*
X148025649Y-117516547D02*
X148064366Y-117574622D01*
X148064366Y-117574622D02*
X148103083Y-117613339D01*
X148103083Y-117613339D02*
X148141800Y-117632698D01*
X147754630Y-117555264D02*
X147735271Y-117535905D01*
X147735271Y-117535905D02*
X147696554Y-117516547D01*
X147696554Y-117516547D02*
X147599762Y-117516547D01*
X147599762Y-117516547D02*
X147561045Y-117535905D01*
X147561045Y-117535905D02*
X147541686Y-117555264D01*
X147541686Y-117555264D02*
X147522328Y-117593981D01*
X147522328Y-117593981D02*
X147522328Y-117632698D01*
X147522328Y-117632698D02*
X147541686Y-117690773D01*
X147541686Y-117690773D02*
X147773988Y-117923075D01*
X147773988Y-117923075D02*
X147522328Y-117923075D01*
D12*
%TO.C,D9*%
X148090200Y-118209650D02*
X148903000Y-118209650D01*
X148903000Y-118209650D02*
X148903000Y-118768450D01*
X148903000Y-120495650D02*
X148903000Y-121054450D01*
X148903000Y-121054450D02*
X148090200Y-121054450D01*
D13*
%TO.C,FB3*%
X133468400Y-124906750D02*
X133468400Y-123890750D01*
%TO.C,D3*%
X145269600Y-122432050D02*
X147015600Y-122432050D01*
X145842600Y-123132050D02*
X146442600Y-122732050D01*
X146442600Y-122732050D02*
X146442600Y-123532050D01*
X146442600Y-123532050D02*
X145842600Y-123132050D01*
X147015600Y-123832050D02*
X145269600Y-123832050D01*
D14*
G36*
X146444200Y-123521891D02*
G01*
X145859438Y-123132050D01*
X146444200Y-122742209D01*
X146444200Y-123521891D01*
G37*
G36*
X145842600Y-123632050D02*
G01*
X145642600Y-123632050D01*
X145642600Y-122632050D01*
X145842600Y-122632050D01*
X145842600Y-123632050D01*
G37*
D13*
%TO.C,FB2*%
X133468400Y-121353350D02*
X133468400Y-120337350D01*
%TO.C,D4*%
X145369600Y-124632050D02*
X147115600Y-124632050D01*
X145942600Y-125332050D02*
X146542600Y-124932050D01*
X146542600Y-124932050D02*
X146542600Y-125732050D01*
X146542600Y-125732050D02*
X145942600Y-125332050D01*
X147115600Y-126032050D02*
X145369600Y-126032050D01*
D14*
G36*
X146544200Y-125721891D02*
G01*
X145959438Y-125332050D01*
X146544200Y-124942209D01*
X146544200Y-125721891D01*
G37*
G36*
X145942600Y-125832050D02*
G01*
X145742600Y-125832050D01*
X145742600Y-124832050D01*
X145942600Y-124832050D01*
X145942600Y-125832050D01*
G37*
D13*
%TO.C,D6*%
X144245400Y-102532050D02*
X145991400Y-102532050D01*
X144818400Y-102832050D02*
X145418400Y-103232050D01*
X144818400Y-103632050D02*
X144818400Y-102832050D01*
X145418400Y-103232050D02*
X144818400Y-103632050D01*
X145991400Y-103932050D02*
X144245400Y-103932050D01*
D14*
G36*
X145401562Y-103232050D02*
G01*
X144816800Y-103621891D01*
X144816800Y-102842209D01*
X145401562Y-103232050D01*
G37*
G36*
X145618400Y-103732050D02*
G01*
X145418400Y-103732050D01*
X145418400Y-102732050D01*
X145618400Y-102732050D01*
X145618400Y-103732050D01*
G37*
D13*
%TO.C,FB6*%
X134968400Y-88790750D02*
X134968400Y-89806750D01*
%TO.C,FB1*%
X133468400Y-119466750D02*
X133468400Y-118450750D01*
D12*
%TO.C,F3*%
X137488400Y-123728750D02*
X136648400Y-123728750D01*
X137488400Y-125028750D02*
X136648400Y-125028750D01*
D13*
%TO.C,FB4*%
X133468400Y-123120050D02*
X133468400Y-122104050D01*
D12*
%TO.C,D10*%
X143966000Y-109809650D02*
X144778800Y-109809650D01*
X144778800Y-109809650D02*
X144778800Y-110368450D01*
X144778800Y-112095650D02*
X144778800Y-112654450D01*
X144778800Y-112654450D02*
X143966000Y-112654450D01*
D15*
%TO.C,TVS2*%
X143993400Y-89969550D02*
X142243400Y-89969550D01*
X143993400Y-93094550D02*
X142243400Y-93094550D01*
D16*
X141864400Y-93284550D02*
G75*
G02*
X141614400Y-93284550I-125000J0D01*
G01*
X141614400Y-93284550D02*
G75*
G02*
X141864400Y-93284550I125000J0D01*
G01*
D15*
%TO.C,TVS1*%
X142193400Y-118469550D02*
X140443400Y-118469550D01*
X142193400Y-121594550D02*
X140443400Y-121594550D01*
D16*
X140064400Y-121784550D02*
G75*
G02*
X139814400Y-121784550I-125000J0D01*
G01*
X139814400Y-121784550D02*
G75*
G02*
X140064400Y-121784550I125000J0D01*
G01*
D13*
%TO.C,D8*%
X149745400Y-93032050D02*
X151491400Y-93032050D01*
X150318400Y-93332050D02*
X150918400Y-93732050D01*
X150318400Y-94132050D02*
X150318400Y-93332050D01*
X150918400Y-93732050D02*
X150318400Y-94132050D01*
X151491400Y-94432050D02*
X149745400Y-94432050D01*
D14*
G36*
X150901562Y-93732050D02*
G01*
X150316800Y-94121891D01*
X150316800Y-93342209D01*
X150901562Y-93732050D01*
G37*
G36*
X151118400Y-94232050D02*
G01*
X150918400Y-94232050D01*
X150918400Y-93232050D01*
X151118400Y-93232050D01*
X151118400Y-94232050D01*
G37*
D13*
%TO.C,D2*%
X141745400Y-113232050D02*
X143491400Y-113232050D01*
X142318400Y-113932050D02*
X142918400Y-113532050D01*
X142918400Y-113532050D02*
X142918400Y-114332050D01*
X142918400Y-114332050D02*
X142318400Y-113932050D01*
X143491400Y-114632050D02*
X141745400Y-114632050D01*
D14*
G36*
X142920000Y-114321891D02*
G01*
X142335238Y-113932050D01*
X142920000Y-113542209D01*
X142920000Y-114321891D01*
G37*
G36*
X142318400Y-114432050D02*
G01*
X142118400Y-114432050D01*
X142118400Y-113432050D01*
X142318400Y-113432050D01*
X142318400Y-114432050D01*
G37*
D13*
%TO.C,D7*%
X149745400Y-95432050D02*
X151491400Y-95432050D01*
X150318400Y-95732050D02*
X150918400Y-96132050D01*
X150318400Y-96532050D02*
X150318400Y-95732050D01*
X150918400Y-96132050D02*
X150318400Y-96532050D01*
X151491400Y-96832050D02*
X149745400Y-96832050D01*
D14*
G36*
X150901562Y-96132050D02*
G01*
X150316800Y-96521891D01*
X150316800Y-95742209D01*
X150901562Y-96132050D01*
G37*
G36*
X151118400Y-96632050D02*
G01*
X150918400Y-96632050D01*
X150918400Y-95632050D01*
X151118400Y-95632050D01*
X151118400Y-96632050D01*
G37*
D13*
%TO.C,FB7*%
X134968400Y-94150750D02*
X134968400Y-95166750D01*
D12*
%TO.C,F2*%
X137488400Y-120242050D02*
X136648400Y-120242050D01*
X137488400Y-121542050D02*
X136648400Y-121542050D01*
D13*
%TO.C,D1*%
X141745400Y-115432050D02*
X143491400Y-115432050D01*
X142318400Y-116132050D02*
X142918400Y-115732050D01*
X142918400Y-115732050D02*
X142918400Y-116532050D01*
X142918400Y-116532050D02*
X142318400Y-116132050D01*
X143491400Y-116832050D02*
X141745400Y-116832050D01*
D14*
G36*
X142920000Y-116521891D02*
G01*
X142335238Y-116132050D01*
X142920000Y-115742209D01*
X142920000Y-116521891D01*
G37*
G36*
X142318400Y-116632050D02*
G01*
X142118400Y-116632050D01*
X142118400Y-115632050D01*
X142318400Y-115632050D01*
X142318400Y-116632050D01*
G37*
D13*
%TO.C,FB5*%
X134968400Y-90604050D02*
X134968400Y-91620050D01*
D12*
%TO.C,F1*%
X137488400Y-118282050D02*
X136648400Y-118282050D01*
X137488400Y-119582050D02*
X136648400Y-119582050D01*
%TO.C,D11*%
X151166000Y-102809650D02*
X151978800Y-102809650D01*
X151978800Y-102809650D02*
X151978800Y-103368450D01*
X151978800Y-105095650D02*
X151978800Y-105654450D01*
X151978800Y-105654450D02*
X151166000Y-105654450D01*
%TO.C,D12*%
X154658000Y-93409650D02*
X155470800Y-93409650D01*
X154658000Y-93968450D02*
X154658000Y-93409650D01*
X154658000Y-96254450D02*
X154658000Y-95695650D01*
X155470800Y-96254450D02*
X154658000Y-96254450D01*
%TO.C,F5*%
X139388400Y-90375350D02*
X138548400Y-90375350D01*
X139388400Y-91675350D02*
X138548400Y-91675350D01*
D13*
%TO.C,FB8*%
X135068400Y-92337350D02*
X135068400Y-93353350D01*
%TO.C,X1*%
X134518400Y-96762050D02*
X134518400Y-111302050D01*
X134518400Y-111302050D02*
X139318400Y-111302050D01*
X134918400Y-97562050D02*
X134918400Y-110502050D01*
X134918400Y-110502050D02*
X138918400Y-110502050D01*
X135318400Y-96262050D02*
X135318400Y-96662050D01*
D17*
X135318400Y-110602050D02*
X135318400Y-110902050D01*
X135318400Y-110902050D02*
X135318400Y-111202050D01*
D13*
X135318400Y-111402050D02*
X135318400Y-111802050D01*
X135318400Y-111802050D02*
X135718400Y-111802050D01*
D17*
X135618400Y-110602050D02*
X135318400Y-110902050D01*
X135618400Y-110902050D02*
X135518400Y-110802050D01*
X135618400Y-110902050D02*
X135618400Y-111202050D01*
D13*
X135718400Y-96262050D02*
X135318400Y-96262050D01*
X135718400Y-96662050D02*
X135718400Y-96262050D01*
X135718400Y-111802050D02*
X135718400Y-111402050D01*
X136218400Y-96262050D02*
X136218400Y-96662050D01*
X136218400Y-111402050D02*
X136218400Y-111802050D01*
X136218400Y-111802050D02*
X137618400Y-111802050D01*
D17*
X136618400Y-110602050D02*
X136918400Y-110902050D01*
X136618400Y-110902050D02*
X135618400Y-110902050D01*
X136618400Y-110902050D02*
X136718400Y-110802050D01*
X136618400Y-111202050D02*
X136618400Y-110902050D01*
X136918400Y-110602050D02*
X136918400Y-110902050D01*
X136918400Y-110902050D02*
X136918400Y-111202050D01*
D13*
X137618400Y-96262050D02*
X136218400Y-96262050D01*
X137618400Y-96662050D02*
X137618400Y-96262050D01*
X137618400Y-111802050D02*
X137618400Y-111402050D01*
X138118400Y-96262050D02*
X138118400Y-96662050D01*
X138118400Y-111402050D02*
X138118400Y-111802050D01*
X138118400Y-111802050D02*
X138518400Y-111802050D01*
X138518400Y-96262050D02*
X138118400Y-96262050D01*
X138518400Y-96662050D02*
X138518400Y-96262050D01*
X138518400Y-111802050D02*
X138518400Y-111402050D01*
X138918400Y-97562050D02*
X134918400Y-97562050D01*
X138918400Y-97562050D02*
X138918400Y-110502050D01*
X139318400Y-96762050D02*
X134518400Y-96762050D01*
X139318400Y-96762050D02*
X139318400Y-111302050D01*
D12*
%TO.C,F8*%
X139388400Y-92182050D02*
X138548400Y-92182050D01*
X139388400Y-93482050D02*
X138548400Y-93482050D01*
%TO.C,F6*%
X139388400Y-88635350D02*
X138548400Y-88635350D01*
X139388400Y-89935350D02*
X138548400Y-89935350D01*
%TO.C,F4*%
X137488400Y-121988750D02*
X136648400Y-121988750D01*
X137488400Y-123288750D02*
X136648400Y-123288750D01*
%TO.C,F7*%
X139388400Y-93922050D02*
X138548400Y-93922050D01*
X139388400Y-95222050D02*
X138548400Y-95222050D01*
D13*
%TO.C,D5*%
X144245400Y-104632050D02*
X145991400Y-104632050D01*
X144818400Y-104932050D02*
X145418400Y-105332050D01*
X144818400Y-105732050D02*
X144818400Y-104932050D01*
X145418400Y-105332050D02*
X144818400Y-105732050D01*
X145991400Y-106032050D02*
X144245400Y-106032050D01*
D14*
G36*
X145401562Y-105332050D02*
G01*
X144816800Y-105721891D01*
X144816800Y-104942209D01*
X145401562Y-105332050D01*
G37*
G36*
X145618400Y-105832050D02*
G01*
X145418400Y-105832050D01*
X145418400Y-104832050D01*
X145618400Y-104832050D01*
X145618400Y-105832050D01*
G37*
%TD*%
M02*
