%TF.GenerationSoftware,KiCad,Pcbnew,8.0.1*%
%TF.CreationDate,2024-04-25T23:30:29+02:00*%
%TF.ProjectId,2in-2out_2.0,32696e2d-326f-4757-945f-322e302e6b69,rev?*%
%TF.SameCoordinates,Original*%
%TF.FileFunction,Plated,1,2,PTH,Drill*%
%TF.FilePolarity,Positive*%
%FSLAX46Y46*%
G04 Gerber Fmt 4.6, Leading zero omitted, Abs format (unit mm)*
G04 Created by KiCad (PCBNEW 8.0.1) date 2024-04-25 23:30:29*
%MOMM*%
%LPD*%
G01*
G04 APERTURE LIST*
%TA.AperFunction,ViaDrill*%
%ADD10C,0.300000*%
%TD*%
%TA.AperFunction,ViaDrill*%
%ADD11C,0.400000*%
%TD*%
%TA.AperFunction,ComponentDrill*%
%ADD12C,0.800000*%
%TD*%
%TA.AperFunction,ComponentDrill*%
%ADD13C,1.000000*%
%TD*%
%TA.AperFunction,ComponentDrill*%
%ADD14C,1.200000*%
%TD*%
%TA.AperFunction,ComponentDrill*%
%ADD15C,1.300000*%
%TD*%
G04 APERTURE END LIST*
D10*
X148590000Y-36830000D03*
X149860000Y-36830000D03*
X151130000Y-36830000D03*
X152400000Y-36830000D03*
X153670000Y-36830000D03*
X154305000Y-45070000D03*
X154940000Y-36830000D03*
X154940000Y-49530000D03*
X156210000Y-36830000D03*
X156210000Y-45705000D03*
X156210000Y-49530000D03*
X156250000Y-41910000D03*
X158623000Y-50927000D03*
X161650000Y-47900000D03*
X167640000Y-46355000D03*
X171450000Y-48260000D03*
X174244000Y-49022000D03*
X174498000Y-38608000D03*
X174498000Y-42418000D03*
X174498000Y-55372000D03*
X174548800Y-51968400D03*
X177038000Y-45212000D03*
X177292000Y-49276000D03*
X179832000Y-45720000D03*
X181007500Y-52346250D03*
X181007500Y-54946250D03*
D11*
X141250000Y-50000000D03*
X141885000Y-49365000D03*
X142520000Y-50000000D03*
X151765000Y-41275000D03*
X158115000Y-44450000D03*
X163750000Y-50250000D03*
X165100000Y-57785000D03*
X165608000Y-43180000D03*
X165735000Y-58420000D03*
X165735000Y-59690000D03*
X165862000Y-37592000D03*
X166878000Y-41402000D03*
X167894000Y-47498000D03*
X168656000Y-56642000D03*
X169418000Y-52324000D03*
X170815000Y-37480000D03*
X172085000Y-41275000D03*
X172974000Y-43434000D03*
X175260000Y-60198000D03*
X176276000Y-37592000D03*
X183896000Y-48006000D03*
X184150000Y-41656000D03*
D12*
%TO.C,C2*%
X153670000Y-54285000D03*
X153670000Y-57785000D03*
%TO.C,C1*%
X162560000Y-54285000D03*
X162560000Y-57785000D03*
D13*
%TO.C,J1*%
X149460000Y-66000000D03*
X152000000Y-66000000D03*
X154540000Y-66000000D03*
X157080000Y-66000000D03*
X159620000Y-66000000D03*
X162160000Y-66000000D03*
X164700000Y-66000000D03*
X167240000Y-66000000D03*
X169780000Y-66000000D03*
D14*
%TO.C,X9*%
X184785000Y-59655000D03*
X184785000Y-65405000D03*
%TO.C,J2*%
X186283600Y-39573200D03*
X186283600Y-43073200D03*
X186283600Y-46573200D03*
X186283600Y-50073200D03*
D15*
%TO.C,J5*%
X111366051Y-42727996D03*
X111366051Y-49077996D03*
X111366051Y-55427996D03*
X111366051Y-61777996D03*
%TO.C,K2*%
X119750000Y-40500000D03*
X119750000Y-48000000D03*
%TO.C,K1*%
X119750000Y-56750000D03*
X119750000Y-64250000D03*
%TO.C,K2*%
X124790000Y-40500000D03*
X124790000Y-48000000D03*
%TO.C,K1*%
X124790000Y-56750000D03*
X124790000Y-64250000D03*
%TO.C,K2*%
X129830000Y-40500000D03*
X129830000Y-48000000D03*
%TO.C,K1*%
X129830000Y-56750000D03*
X129830000Y-64250000D03*
%TO.C,K2*%
X145090000Y-40500000D03*
X145090000Y-44250000D03*
X145090000Y-48000000D03*
%TO.C,K1*%
X145090000Y-56750000D03*
X145090000Y-60500000D03*
X145090000Y-64250000D03*
M02*
