%TF.GenerationSoftware,KiCad,Pcbnew,8.0.1*%
%TF.CreationDate,2024-04-25T23:30:25+02:00*%
%TF.ProjectId,2in-2out_2.0,32696e2d-326f-4757-945f-322e302e6b69,rev?*%
%TF.SameCoordinates,Original*%
%TF.FileFunction,Legend,Bot*%
%TF.FilePolarity,Positive*%
%FSLAX46Y46*%
G04 Gerber Fmt 4.6, Leading zero omitted, Abs format (unit mm)*
G04 Created by KiCad (PCBNEW 8.0.1) date 2024-04-25 23:30:25*
%MOMM*%
%LPD*%
G01*
G04 APERTURE LIST*
%ADD10C,0.304800*%
%ADD11C,0.250000*%
%ADD12C,0.150000*%
%ADD13C,0.120000*%
G04 APERTURE END LIST*
D10*
X114046000Y-59944000D02*
X114046000Y-61468000D01*
X114046000Y-61468000D02*
X114808000Y-62992000D01*
X114046000Y-42672000D02*
X114046000Y-44704000D01*
X114046000Y-44704000D02*
X113030000Y-44704000D01*
X113030000Y-39624000D02*
X114046000Y-39624000D01*
X113030000Y-59944000D02*
X114046000Y-59944000D01*
X114046000Y-62992000D02*
X114046000Y-65024000D01*
X114046000Y-65024000D02*
X113030000Y-65024000D01*
X114046000Y-41148000D02*
X114808000Y-42672000D01*
X114046000Y-39624000D02*
X114046000Y-41148000D01*
D11*
X115662571Y-43248901D02*
X117162571Y-43248901D01*
X115662571Y-42391758D02*
X116519714Y-43034615D01*
X117162571Y-42391758D02*
X116305428Y-43248901D01*
X115662571Y-40963186D02*
X115662571Y-41820329D01*
X115662571Y-41391758D02*
X117162571Y-41391758D01*
X117162571Y-41391758D02*
X116948285Y-41534615D01*
X116948285Y-41534615D02*
X116805428Y-41677472D01*
X116805428Y-41677472D02*
X116734000Y-41820329D01*
X115535571Y-63441901D02*
X117035571Y-63441901D01*
X115535571Y-62584758D02*
X116392714Y-63227615D01*
X117035571Y-62584758D02*
X116178428Y-63441901D01*
X116892714Y-62013329D02*
X116964142Y-61941901D01*
X116964142Y-61941901D02*
X117035571Y-61799044D01*
X117035571Y-61799044D02*
X117035571Y-61441901D01*
X117035571Y-61441901D02*
X116964142Y-61299044D01*
X116964142Y-61299044D02*
X116892714Y-61227615D01*
X116892714Y-61227615D02*
X116749857Y-61156186D01*
X116749857Y-61156186D02*
X116607000Y-61156186D01*
X116607000Y-61156186D02*
X116392714Y-61227615D01*
X116392714Y-61227615D02*
X115535571Y-62084758D01*
X115535571Y-62084758D02*
X115535571Y-61156186D01*
X181768400Y-66049886D02*
X181768400Y-64907029D01*
X181196971Y-64192743D02*
X182696971Y-64192743D01*
X182125542Y-64192743D02*
X182196971Y-64049886D01*
X182196971Y-64049886D02*
X182196971Y-63764171D01*
X182196971Y-63764171D02*
X182125542Y-63621314D01*
X182125542Y-63621314D02*
X182054114Y-63549886D01*
X182054114Y-63549886D02*
X181911257Y-63478457D01*
X181911257Y-63478457D02*
X181482685Y-63478457D01*
X181482685Y-63478457D02*
X181339828Y-63549886D01*
X181339828Y-63549886D02*
X181268400Y-63621314D01*
X181268400Y-63621314D02*
X181196971Y-63764171D01*
X181196971Y-63764171D02*
X181196971Y-64049886D01*
X181196971Y-64049886D02*
X181268400Y-64192743D01*
X182196971Y-62192743D02*
X181196971Y-62192743D01*
X182196971Y-62835600D02*
X181411257Y-62835600D01*
X181411257Y-62835600D02*
X181268400Y-62764171D01*
X181268400Y-62764171D02*
X181196971Y-62621314D01*
X181196971Y-62621314D02*
X181196971Y-62407028D01*
X181196971Y-62407028D02*
X181268400Y-62264171D01*
X181268400Y-62264171D02*
X181339828Y-62192743D01*
X181268400Y-61549885D02*
X181196971Y-61407028D01*
X181196971Y-61407028D02*
X181196971Y-61121314D01*
X181196971Y-61121314D02*
X181268400Y-60978457D01*
X181268400Y-60978457D02*
X181411257Y-60907028D01*
X181411257Y-60907028D02*
X181482685Y-60907028D01*
X181482685Y-60907028D02*
X181625542Y-60978457D01*
X181625542Y-60978457D02*
X181696971Y-61121314D01*
X181696971Y-61121314D02*
X181696971Y-61335600D01*
X181696971Y-61335600D02*
X181768400Y-61478457D01*
X181768400Y-61478457D02*
X181911257Y-61549885D01*
X181911257Y-61549885D02*
X181982685Y-61549885D01*
X181982685Y-61549885D02*
X182125542Y-61478457D01*
X182125542Y-61478457D02*
X182196971Y-61335600D01*
X182196971Y-61335600D02*
X182196971Y-61121314D01*
X182196971Y-61121314D02*
X182125542Y-60978457D01*
X181768400Y-60264171D02*
X181768400Y-59121314D01*
X181196971Y-59692742D02*
X182339828Y-59692742D01*
D12*
X183686220Y-58035819D02*
X183686220Y-57035819D01*
X183210030Y-58035819D02*
X183210030Y-57035819D01*
X183210030Y-57035819D02*
X182638602Y-58035819D01*
X182638602Y-58035819D02*
X182638602Y-57035819D01*
X181448125Y-57131057D02*
X181400506Y-57083438D01*
X181400506Y-57083438D02*
X181305268Y-57035819D01*
X181305268Y-57035819D02*
X181067173Y-57035819D01*
X181067173Y-57035819D02*
X180971935Y-57083438D01*
X180971935Y-57083438D02*
X180924316Y-57131057D01*
X180924316Y-57131057D02*
X180876697Y-57226295D01*
X180876697Y-57226295D02*
X180876697Y-57321533D01*
X180876697Y-57321533D02*
X180924316Y-57464390D01*
X180924316Y-57464390D02*
X181495744Y-58035819D01*
X181495744Y-58035819D02*
X180876697Y-58035819D01*
X180019554Y-57369152D02*
X180019554Y-58035819D01*
X180257649Y-56988200D02*
X180495744Y-57702485D01*
X180495744Y-57702485D02*
X179876697Y-57702485D01*
X179638601Y-57035819D02*
X179305268Y-58035819D01*
X179305268Y-58035819D02*
X178971935Y-57035819D01*
X177971934Y-57035819D02*
X177352887Y-57035819D01*
X177352887Y-57035819D02*
X177686220Y-57416771D01*
X177686220Y-57416771D02*
X177543363Y-57416771D01*
X177543363Y-57416771D02*
X177448125Y-57464390D01*
X177448125Y-57464390D02*
X177400506Y-57512009D01*
X177400506Y-57512009D02*
X177352887Y-57607247D01*
X177352887Y-57607247D02*
X177352887Y-57845342D01*
X177352887Y-57845342D02*
X177400506Y-57940580D01*
X177400506Y-57940580D02*
X177448125Y-57988200D01*
X177448125Y-57988200D02*
X177543363Y-58035819D01*
X177543363Y-58035819D02*
X177829077Y-58035819D01*
X177829077Y-58035819D02*
X177924315Y-57988200D01*
X177924315Y-57988200D02*
X177971934Y-57940580D01*
X177067172Y-57035819D02*
X176733839Y-58035819D01*
X176733839Y-58035819D02*
X176400506Y-57035819D01*
X176162410Y-57035819D02*
X175543363Y-57035819D01*
X175543363Y-57035819D02*
X175876696Y-57416771D01*
X175876696Y-57416771D02*
X175733839Y-57416771D01*
X175733839Y-57416771D02*
X175638601Y-57464390D01*
X175638601Y-57464390D02*
X175590982Y-57512009D01*
X175590982Y-57512009D02*
X175543363Y-57607247D01*
X175543363Y-57607247D02*
X175543363Y-57845342D01*
X175543363Y-57845342D02*
X175590982Y-57940580D01*
X175590982Y-57940580D02*
X175638601Y-57988200D01*
X175638601Y-57988200D02*
X175733839Y-58035819D01*
X175733839Y-58035819D02*
X176019553Y-58035819D01*
X176019553Y-58035819D02*
X176114791Y-57988200D01*
X176114791Y-57988200D02*
X176162410Y-57940580D01*
X175540200Y-53975143D02*
X175587819Y-54118000D01*
X175587819Y-54118000D02*
X175587819Y-54356095D01*
X175587819Y-54356095D02*
X175540200Y-54451333D01*
X175540200Y-54451333D02*
X175492580Y-54498952D01*
X175492580Y-54498952D02*
X175397342Y-54546571D01*
X175397342Y-54546571D02*
X175302104Y-54546571D01*
X175302104Y-54546571D02*
X175206866Y-54498952D01*
X175206866Y-54498952D02*
X175159247Y-54451333D01*
X175159247Y-54451333D02*
X175111628Y-54356095D01*
X175111628Y-54356095D02*
X175064009Y-54165619D01*
X175064009Y-54165619D02*
X175016390Y-54070381D01*
X175016390Y-54070381D02*
X174968771Y-54022762D01*
X174968771Y-54022762D02*
X174873533Y-53975143D01*
X174873533Y-53975143D02*
X174778295Y-53975143D01*
X174778295Y-53975143D02*
X174683057Y-54022762D01*
X174683057Y-54022762D02*
X174635438Y-54070381D01*
X174635438Y-54070381D02*
X174587819Y-54165619D01*
X174587819Y-54165619D02*
X174587819Y-54403714D01*
X174587819Y-54403714D02*
X174635438Y-54546571D01*
X174587819Y-55260857D02*
X175302104Y-55260857D01*
X175302104Y-55260857D02*
X175444961Y-55213238D01*
X175444961Y-55213238D02*
X175540200Y-55118000D01*
X175540200Y-55118000D02*
X175587819Y-54975143D01*
X175587819Y-54975143D02*
X175587819Y-54879905D01*
X174587819Y-56165619D02*
X174587819Y-55975143D01*
X174587819Y-55975143D02*
X174635438Y-55879905D01*
X174635438Y-55879905D02*
X174683057Y-55832286D01*
X174683057Y-55832286D02*
X174825914Y-55737048D01*
X174825914Y-55737048D02*
X175016390Y-55689429D01*
X175016390Y-55689429D02*
X175397342Y-55689429D01*
X175397342Y-55689429D02*
X175492580Y-55737048D01*
X175492580Y-55737048D02*
X175540200Y-55784667D01*
X175540200Y-55784667D02*
X175587819Y-55879905D01*
X175587819Y-55879905D02*
X175587819Y-56070381D01*
X175587819Y-56070381D02*
X175540200Y-56165619D01*
X175540200Y-56165619D02*
X175492580Y-56213238D01*
X175492580Y-56213238D02*
X175397342Y-56260857D01*
X175397342Y-56260857D02*
X175159247Y-56260857D01*
X175159247Y-56260857D02*
X175064009Y-56213238D01*
X175064009Y-56213238D02*
X175016390Y-56165619D01*
X175016390Y-56165619D02*
X174968771Y-56070381D01*
X174968771Y-56070381D02*
X174968771Y-55879905D01*
X174968771Y-55879905D02*
X175016390Y-55784667D01*
X175016390Y-55784667D02*
X175064009Y-55737048D01*
X175064009Y-55737048D02*
X175159247Y-55689429D01*
X174016200Y-53975143D02*
X174063819Y-54118000D01*
X174063819Y-54118000D02*
X174063819Y-54356095D01*
X174063819Y-54356095D02*
X174016200Y-54451333D01*
X174016200Y-54451333D02*
X173968580Y-54498952D01*
X173968580Y-54498952D02*
X173873342Y-54546571D01*
X173873342Y-54546571D02*
X173778104Y-54546571D01*
X173778104Y-54546571D02*
X173682866Y-54498952D01*
X173682866Y-54498952D02*
X173635247Y-54451333D01*
X173635247Y-54451333D02*
X173587628Y-54356095D01*
X173587628Y-54356095D02*
X173540009Y-54165619D01*
X173540009Y-54165619D02*
X173492390Y-54070381D01*
X173492390Y-54070381D02*
X173444771Y-54022762D01*
X173444771Y-54022762D02*
X173349533Y-53975143D01*
X173349533Y-53975143D02*
X173254295Y-53975143D01*
X173254295Y-53975143D02*
X173159057Y-54022762D01*
X173159057Y-54022762D02*
X173111438Y-54070381D01*
X173111438Y-54070381D02*
X173063819Y-54165619D01*
X173063819Y-54165619D02*
X173063819Y-54403714D01*
X173063819Y-54403714D02*
X173111438Y-54546571D01*
X173063819Y-55260857D02*
X173778104Y-55260857D01*
X173778104Y-55260857D02*
X173920961Y-55213238D01*
X173920961Y-55213238D02*
X174016200Y-55118000D01*
X174016200Y-55118000D02*
X174063819Y-54975143D01*
X174063819Y-54975143D02*
X174063819Y-54879905D01*
X173063819Y-56213238D02*
X173063819Y-55737048D01*
X173063819Y-55737048D02*
X173540009Y-55689429D01*
X173540009Y-55689429D02*
X173492390Y-55737048D01*
X173492390Y-55737048D02*
X173444771Y-55832286D01*
X173444771Y-55832286D02*
X173444771Y-56070381D01*
X173444771Y-56070381D02*
X173492390Y-56165619D01*
X173492390Y-56165619D02*
X173540009Y-56213238D01*
X173540009Y-56213238D02*
X173635247Y-56260857D01*
X173635247Y-56260857D02*
X173873342Y-56260857D01*
X173873342Y-56260857D02*
X173968580Y-56213238D01*
X173968580Y-56213238D02*
X174016200Y-56165619D01*
X174016200Y-56165619D02*
X174063819Y-56070381D01*
X174063819Y-56070381D02*
X174063819Y-55832286D01*
X174063819Y-55832286D02*
X174016200Y-55737048D01*
X174016200Y-55737048D02*
X173968580Y-55689429D01*
X162859580Y-42063333D02*
X162907200Y-42015714D01*
X162907200Y-42015714D02*
X162954819Y-41872857D01*
X162954819Y-41872857D02*
X162954819Y-41777619D01*
X162954819Y-41777619D02*
X162907200Y-41634762D01*
X162907200Y-41634762D02*
X162811961Y-41539524D01*
X162811961Y-41539524D02*
X162716723Y-41491905D01*
X162716723Y-41491905D02*
X162526247Y-41444286D01*
X162526247Y-41444286D02*
X162383390Y-41444286D01*
X162383390Y-41444286D02*
X162192914Y-41491905D01*
X162192914Y-41491905D02*
X162097676Y-41539524D01*
X162097676Y-41539524D02*
X162002438Y-41634762D01*
X162002438Y-41634762D02*
X161954819Y-41777619D01*
X161954819Y-41777619D02*
X161954819Y-41872857D01*
X161954819Y-41872857D02*
X162002438Y-42015714D01*
X162002438Y-42015714D02*
X162050057Y-42063333D01*
X161954819Y-42396667D02*
X161954819Y-43015714D01*
X161954819Y-43015714D02*
X162335771Y-42682381D01*
X162335771Y-42682381D02*
X162335771Y-42825238D01*
X162335771Y-42825238D02*
X162383390Y-42920476D01*
X162383390Y-42920476D02*
X162431009Y-42968095D01*
X162431009Y-42968095D02*
X162526247Y-43015714D01*
X162526247Y-43015714D02*
X162764342Y-43015714D01*
X162764342Y-43015714D02*
X162859580Y-42968095D01*
X162859580Y-42968095D02*
X162907200Y-42920476D01*
X162907200Y-42920476D02*
X162954819Y-42825238D01*
X162954819Y-42825238D02*
X162954819Y-42539524D01*
X162954819Y-42539524D02*
X162907200Y-42444286D01*
X162907200Y-42444286D02*
X162859580Y-42396667D01*
X180863666Y-44285819D02*
X180292238Y-44285819D01*
X180577952Y-45285819D02*
X180577952Y-44285819D01*
X180101761Y-44285819D02*
X179768428Y-45285819D01*
X179768428Y-45285819D02*
X179435095Y-44285819D01*
X179149380Y-45238200D02*
X179006523Y-45285819D01*
X179006523Y-45285819D02*
X178768428Y-45285819D01*
X178768428Y-45285819D02*
X178673190Y-45238200D01*
X178673190Y-45238200D02*
X178625571Y-45190580D01*
X178625571Y-45190580D02*
X178577952Y-45095342D01*
X178577952Y-45095342D02*
X178577952Y-45000104D01*
X178577952Y-45000104D02*
X178625571Y-44904866D01*
X178625571Y-44904866D02*
X178673190Y-44857247D01*
X178673190Y-44857247D02*
X178768428Y-44809628D01*
X178768428Y-44809628D02*
X178958904Y-44762009D01*
X178958904Y-44762009D02*
X179054142Y-44714390D01*
X179054142Y-44714390D02*
X179101761Y-44666771D01*
X179101761Y-44666771D02*
X179149380Y-44571533D01*
X179149380Y-44571533D02*
X179149380Y-44476295D01*
X179149380Y-44476295D02*
X179101761Y-44381057D01*
X179101761Y-44381057D02*
X179054142Y-44333438D01*
X179054142Y-44333438D02*
X178958904Y-44285819D01*
X178958904Y-44285819D02*
X178720809Y-44285819D01*
X178720809Y-44285819D02*
X178577952Y-44333438D01*
X177625571Y-45285819D02*
X178196999Y-45285819D01*
X177911285Y-45285819D02*
X177911285Y-44285819D01*
X177911285Y-44285819D02*
X178006523Y-44428676D01*
X178006523Y-44428676D02*
X178101761Y-44523914D01*
X178101761Y-44523914D02*
X178196999Y-44571533D01*
X172619200Y-50038143D02*
X172666819Y-50181000D01*
X172666819Y-50181000D02*
X172666819Y-50419095D01*
X172666819Y-50419095D02*
X172619200Y-50514333D01*
X172619200Y-50514333D02*
X172571580Y-50561952D01*
X172571580Y-50561952D02*
X172476342Y-50609571D01*
X172476342Y-50609571D02*
X172381104Y-50609571D01*
X172381104Y-50609571D02*
X172285866Y-50561952D01*
X172285866Y-50561952D02*
X172238247Y-50514333D01*
X172238247Y-50514333D02*
X172190628Y-50419095D01*
X172190628Y-50419095D02*
X172143009Y-50228619D01*
X172143009Y-50228619D02*
X172095390Y-50133381D01*
X172095390Y-50133381D02*
X172047771Y-50085762D01*
X172047771Y-50085762D02*
X171952533Y-50038143D01*
X171952533Y-50038143D02*
X171857295Y-50038143D01*
X171857295Y-50038143D02*
X171762057Y-50085762D01*
X171762057Y-50085762D02*
X171714438Y-50133381D01*
X171714438Y-50133381D02*
X171666819Y-50228619D01*
X171666819Y-50228619D02*
X171666819Y-50466714D01*
X171666819Y-50466714D02*
X171714438Y-50609571D01*
X171666819Y-51323857D02*
X172381104Y-51323857D01*
X172381104Y-51323857D02*
X172523961Y-51276238D01*
X172523961Y-51276238D02*
X172619200Y-51181000D01*
X172619200Y-51181000D02*
X172666819Y-51038143D01*
X172666819Y-51038143D02*
X172666819Y-50942905D01*
X172000152Y-52228619D02*
X172666819Y-52228619D01*
X171619200Y-51990524D02*
X172333485Y-51752429D01*
X172333485Y-51752429D02*
X172333485Y-52371476D01*
X160474819Y-44362810D02*
X159474819Y-44362810D01*
X160379580Y-45410428D02*
X160427200Y-45362809D01*
X160427200Y-45362809D02*
X160474819Y-45219952D01*
X160474819Y-45219952D02*
X160474819Y-45124714D01*
X160474819Y-45124714D02*
X160427200Y-44981857D01*
X160427200Y-44981857D02*
X160331961Y-44886619D01*
X160331961Y-44886619D02*
X160236723Y-44839000D01*
X160236723Y-44839000D02*
X160046247Y-44791381D01*
X160046247Y-44791381D02*
X159903390Y-44791381D01*
X159903390Y-44791381D02*
X159712914Y-44839000D01*
X159712914Y-44839000D02*
X159617676Y-44886619D01*
X159617676Y-44886619D02*
X159522438Y-44981857D01*
X159522438Y-44981857D02*
X159474819Y-45124714D01*
X159474819Y-45124714D02*
X159474819Y-45219952D01*
X159474819Y-45219952D02*
X159522438Y-45362809D01*
X159522438Y-45362809D02*
X159570057Y-45410428D01*
X160474819Y-46362809D02*
X160474819Y-45791381D01*
X160474819Y-46077095D02*
X159474819Y-46077095D01*
X159474819Y-46077095D02*
X159617676Y-45981857D01*
X159617676Y-45981857D02*
X159712914Y-45886619D01*
X159712914Y-45886619D02*
X159760533Y-45791381D01*
X184382580Y-46823333D02*
X184430200Y-46775714D01*
X184430200Y-46775714D02*
X184477819Y-46632857D01*
X184477819Y-46632857D02*
X184477819Y-46537619D01*
X184477819Y-46537619D02*
X184430200Y-46394762D01*
X184430200Y-46394762D02*
X184334961Y-46299524D01*
X184334961Y-46299524D02*
X184239723Y-46251905D01*
X184239723Y-46251905D02*
X184049247Y-46204286D01*
X184049247Y-46204286D02*
X183906390Y-46204286D01*
X183906390Y-46204286D02*
X183715914Y-46251905D01*
X183715914Y-46251905D02*
X183620676Y-46299524D01*
X183620676Y-46299524D02*
X183525438Y-46394762D01*
X183525438Y-46394762D02*
X183477819Y-46537619D01*
X183477819Y-46537619D02*
X183477819Y-46632857D01*
X183477819Y-46632857D02*
X183525438Y-46775714D01*
X183525438Y-46775714D02*
X183573057Y-46823333D01*
X183811152Y-47680476D02*
X184477819Y-47680476D01*
X183430200Y-47442381D02*
X184144485Y-47204286D01*
X184144485Y-47204286D02*
X184144485Y-47823333D01*
X172315094Y-44142819D02*
X172315094Y-43142819D01*
X172315094Y-43142819D02*
X172076999Y-43142819D01*
X172076999Y-43142819D02*
X171934142Y-43190438D01*
X171934142Y-43190438D02*
X171838904Y-43285676D01*
X171838904Y-43285676D02*
X171791285Y-43380914D01*
X171791285Y-43380914D02*
X171743666Y-43571390D01*
X171743666Y-43571390D02*
X171743666Y-43714247D01*
X171743666Y-43714247D02*
X171791285Y-43904723D01*
X171791285Y-43904723D02*
X171838904Y-43999961D01*
X171838904Y-43999961D02*
X171934142Y-44095200D01*
X171934142Y-44095200D02*
X172076999Y-44142819D01*
X172076999Y-44142819D02*
X172315094Y-44142819D01*
X170838904Y-43142819D02*
X171315094Y-43142819D01*
X171315094Y-43142819D02*
X171362713Y-43619009D01*
X171362713Y-43619009D02*
X171315094Y-43571390D01*
X171315094Y-43571390D02*
X171219856Y-43523771D01*
X171219856Y-43523771D02*
X170981761Y-43523771D01*
X170981761Y-43523771D02*
X170886523Y-43571390D01*
X170886523Y-43571390D02*
X170838904Y-43619009D01*
X170838904Y-43619009D02*
X170791285Y-43714247D01*
X170791285Y-43714247D02*
X170791285Y-43952342D01*
X170791285Y-43952342D02*
X170838904Y-44047580D01*
X170838904Y-44047580D02*
X170886523Y-44095200D01*
X170886523Y-44095200D02*
X170981761Y-44142819D01*
X170981761Y-44142819D02*
X171219856Y-44142819D01*
X171219856Y-44142819D02*
X171315094Y-44095200D01*
X171315094Y-44095200D02*
X171362713Y-44047580D01*
X180667819Y-42127173D02*
X179667819Y-42127173D01*
X179667819Y-42127173D02*
X179667819Y-42365268D01*
X179667819Y-42365268D02*
X179715438Y-42508125D01*
X179715438Y-42508125D02*
X179810676Y-42603363D01*
X179810676Y-42603363D02*
X179905914Y-42650982D01*
X179905914Y-42650982D02*
X180096390Y-42698601D01*
X180096390Y-42698601D02*
X180239247Y-42698601D01*
X180239247Y-42698601D02*
X180429723Y-42650982D01*
X180429723Y-42650982D02*
X180524961Y-42603363D01*
X180524961Y-42603363D02*
X180620200Y-42508125D01*
X180620200Y-42508125D02*
X180667819Y-42365268D01*
X180667819Y-42365268D02*
X180667819Y-42127173D01*
X179763057Y-43079554D02*
X179715438Y-43127173D01*
X179715438Y-43127173D02*
X179667819Y-43222411D01*
X179667819Y-43222411D02*
X179667819Y-43460506D01*
X179667819Y-43460506D02*
X179715438Y-43555744D01*
X179715438Y-43555744D02*
X179763057Y-43603363D01*
X179763057Y-43603363D02*
X179858295Y-43650982D01*
X179858295Y-43650982D02*
X179953533Y-43650982D01*
X179953533Y-43650982D02*
X180096390Y-43603363D01*
X180096390Y-43603363D02*
X180667819Y-43031935D01*
X180667819Y-43031935D02*
X180667819Y-43650982D01*
X174220094Y-44142819D02*
X174220094Y-43142819D01*
X174220094Y-43142819D02*
X173981999Y-43142819D01*
X173981999Y-43142819D02*
X173839142Y-43190438D01*
X173839142Y-43190438D02*
X173743904Y-43285676D01*
X173743904Y-43285676D02*
X173696285Y-43380914D01*
X173696285Y-43380914D02*
X173648666Y-43571390D01*
X173648666Y-43571390D02*
X173648666Y-43714247D01*
X173648666Y-43714247D02*
X173696285Y-43904723D01*
X173696285Y-43904723D02*
X173743904Y-43999961D01*
X173743904Y-43999961D02*
X173839142Y-44095200D01*
X173839142Y-44095200D02*
X173981999Y-44142819D01*
X173981999Y-44142819D02*
X174220094Y-44142819D01*
X173315332Y-43142819D02*
X172648666Y-43142819D01*
X172648666Y-43142819D02*
X173077237Y-44142819D01*
X175540200Y-50038143D02*
X175587819Y-50181000D01*
X175587819Y-50181000D02*
X175587819Y-50419095D01*
X175587819Y-50419095D02*
X175540200Y-50514333D01*
X175540200Y-50514333D02*
X175492580Y-50561952D01*
X175492580Y-50561952D02*
X175397342Y-50609571D01*
X175397342Y-50609571D02*
X175302104Y-50609571D01*
X175302104Y-50609571D02*
X175206866Y-50561952D01*
X175206866Y-50561952D02*
X175159247Y-50514333D01*
X175159247Y-50514333D02*
X175111628Y-50419095D01*
X175111628Y-50419095D02*
X175064009Y-50228619D01*
X175064009Y-50228619D02*
X175016390Y-50133381D01*
X175016390Y-50133381D02*
X174968771Y-50085762D01*
X174968771Y-50085762D02*
X174873533Y-50038143D01*
X174873533Y-50038143D02*
X174778295Y-50038143D01*
X174778295Y-50038143D02*
X174683057Y-50085762D01*
X174683057Y-50085762D02*
X174635438Y-50133381D01*
X174635438Y-50133381D02*
X174587819Y-50228619D01*
X174587819Y-50228619D02*
X174587819Y-50466714D01*
X174587819Y-50466714D02*
X174635438Y-50609571D01*
X174587819Y-51323857D02*
X175302104Y-51323857D01*
X175302104Y-51323857D02*
X175444961Y-51276238D01*
X175444961Y-51276238D02*
X175540200Y-51181000D01*
X175540200Y-51181000D02*
X175587819Y-51038143D01*
X175587819Y-51038143D02*
X175587819Y-50942905D01*
X174587819Y-51704810D02*
X174587819Y-52323857D01*
X174587819Y-52323857D02*
X174968771Y-51990524D01*
X174968771Y-51990524D02*
X174968771Y-52133381D01*
X174968771Y-52133381D02*
X175016390Y-52228619D01*
X175016390Y-52228619D02*
X175064009Y-52276238D01*
X175064009Y-52276238D02*
X175159247Y-52323857D01*
X175159247Y-52323857D02*
X175397342Y-52323857D01*
X175397342Y-52323857D02*
X175492580Y-52276238D01*
X175492580Y-52276238D02*
X175540200Y-52228619D01*
X175540200Y-52228619D02*
X175587819Y-52133381D01*
X175587819Y-52133381D02*
X175587819Y-51847667D01*
X175587819Y-51847667D02*
X175540200Y-51752429D01*
X175540200Y-51752429D02*
X175492580Y-51704810D01*
X174016200Y-50038143D02*
X174063819Y-50181000D01*
X174063819Y-50181000D02*
X174063819Y-50419095D01*
X174063819Y-50419095D02*
X174016200Y-50514333D01*
X174016200Y-50514333D02*
X173968580Y-50561952D01*
X173968580Y-50561952D02*
X173873342Y-50609571D01*
X173873342Y-50609571D02*
X173778104Y-50609571D01*
X173778104Y-50609571D02*
X173682866Y-50561952D01*
X173682866Y-50561952D02*
X173635247Y-50514333D01*
X173635247Y-50514333D02*
X173587628Y-50419095D01*
X173587628Y-50419095D02*
X173540009Y-50228619D01*
X173540009Y-50228619D02*
X173492390Y-50133381D01*
X173492390Y-50133381D02*
X173444771Y-50085762D01*
X173444771Y-50085762D02*
X173349533Y-50038143D01*
X173349533Y-50038143D02*
X173254295Y-50038143D01*
X173254295Y-50038143D02*
X173159057Y-50085762D01*
X173159057Y-50085762D02*
X173111438Y-50133381D01*
X173111438Y-50133381D02*
X173063819Y-50228619D01*
X173063819Y-50228619D02*
X173063819Y-50466714D01*
X173063819Y-50466714D02*
X173111438Y-50609571D01*
X173063819Y-51323857D02*
X173778104Y-51323857D01*
X173778104Y-51323857D02*
X173920961Y-51276238D01*
X173920961Y-51276238D02*
X174016200Y-51181000D01*
X174016200Y-51181000D02*
X174063819Y-51038143D01*
X174063819Y-51038143D02*
X174063819Y-50942905D01*
X173159057Y-51752429D02*
X173111438Y-51800048D01*
X173111438Y-51800048D02*
X173063819Y-51895286D01*
X173063819Y-51895286D02*
X173063819Y-52133381D01*
X173063819Y-52133381D02*
X173111438Y-52228619D01*
X173111438Y-52228619D02*
X173159057Y-52276238D01*
X173159057Y-52276238D02*
X173254295Y-52323857D01*
X173254295Y-52323857D02*
X173349533Y-52323857D01*
X173349533Y-52323857D02*
X173492390Y-52276238D01*
X173492390Y-52276238D02*
X174063819Y-51704810D01*
X174063819Y-51704810D02*
X174063819Y-52323857D01*
X172619200Y-53975143D02*
X172666819Y-54118000D01*
X172666819Y-54118000D02*
X172666819Y-54356095D01*
X172666819Y-54356095D02*
X172619200Y-54451333D01*
X172619200Y-54451333D02*
X172571580Y-54498952D01*
X172571580Y-54498952D02*
X172476342Y-54546571D01*
X172476342Y-54546571D02*
X172381104Y-54546571D01*
X172381104Y-54546571D02*
X172285866Y-54498952D01*
X172285866Y-54498952D02*
X172238247Y-54451333D01*
X172238247Y-54451333D02*
X172190628Y-54356095D01*
X172190628Y-54356095D02*
X172143009Y-54165619D01*
X172143009Y-54165619D02*
X172095390Y-54070381D01*
X172095390Y-54070381D02*
X172047771Y-54022762D01*
X172047771Y-54022762D02*
X171952533Y-53975143D01*
X171952533Y-53975143D02*
X171857295Y-53975143D01*
X171857295Y-53975143D02*
X171762057Y-54022762D01*
X171762057Y-54022762D02*
X171714438Y-54070381D01*
X171714438Y-54070381D02*
X171666819Y-54165619D01*
X171666819Y-54165619D02*
X171666819Y-54403714D01*
X171666819Y-54403714D02*
X171714438Y-54546571D01*
X171666819Y-55260857D02*
X172381104Y-55260857D01*
X172381104Y-55260857D02*
X172523961Y-55213238D01*
X172523961Y-55213238D02*
X172619200Y-55118000D01*
X172619200Y-55118000D02*
X172666819Y-54975143D01*
X172666819Y-54975143D02*
X172666819Y-54879905D01*
X171666819Y-55641810D02*
X171666819Y-56308476D01*
X171666819Y-56308476D02*
X172666819Y-55879905D01*
X180667819Y-38377905D02*
X179667819Y-38377905D01*
X179667819Y-38377905D02*
X179667819Y-38616000D01*
X179667819Y-38616000D02*
X179715438Y-38758857D01*
X179715438Y-38758857D02*
X179810676Y-38854095D01*
X179810676Y-38854095D02*
X179905914Y-38901714D01*
X179905914Y-38901714D02*
X180096390Y-38949333D01*
X180096390Y-38949333D02*
X180239247Y-38949333D01*
X180239247Y-38949333D02*
X180429723Y-38901714D01*
X180429723Y-38901714D02*
X180524961Y-38854095D01*
X180524961Y-38854095D02*
X180620200Y-38758857D01*
X180620200Y-38758857D02*
X180667819Y-38616000D01*
X180667819Y-38616000D02*
X180667819Y-38377905D01*
X180001152Y-39806476D02*
X180667819Y-39806476D01*
X179620200Y-39568381D02*
X180334485Y-39330286D01*
X180334485Y-39330286D02*
X180334485Y-39949333D01*
D13*
%TO.C,SJ6*%
X183322500Y-53606250D02*
X183322500Y-56406250D01*
X183322500Y-56406250D02*
X181322500Y-56406250D01*
X181322500Y-53606250D02*
X183322500Y-53606250D01*
X181322500Y-56406250D02*
X181322500Y-53606250D01*
%TO.C,SJ5*%
X180782500Y-53606250D02*
X180782500Y-56406250D01*
X180782500Y-56406250D02*
X178782500Y-56406250D01*
X178782500Y-53606250D02*
X180782500Y-53606250D01*
X178782500Y-56406250D02*
X178782500Y-53606250D01*
%TO.C,C3*%
X161390000Y-41968748D02*
X161390000Y-42491252D01*
X159920000Y-41968748D02*
X159920000Y-42491252D01*
%TO.C,TVS1*%
X178270000Y-48682500D02*
X179070000Y-48682500D01*
X179870000Y-48682500D02*
X179070000Y-48682500D01*
X178270000Y-45562500D02*
X179070000Y-45562500D01*
X179870000Y-45562500D02*
X179070000Y-45562500D01*
X178010000Y-48962500D02*
X177530000Y-48962500D01*
X177770000Y-48632500D01*
X178010000Y-48962500D01*
G36*
X178010000Y-48962500D02*
G01*
X177530000Y-48962500D01*
X177770000Y-48632500D01*
X178010000Y-48962500D01*
G37*
%TO.C,SJ4*%
X176242500Y-52596250D02*
X176242500Y-49796250D01*
X176242500Y-49796250D02*
X178242500Y-49796250D01*
X178242500Y-52596250D02*
X176242500Y-52596250D01*
X178242500Y-49796250D02*
X178242500Y-52596250D01*
%TO.C,IC1*%
X147395000Y-39395000D02*
X147150000Y-39395000D01*
X158675000Y-39395000D02*
X158920000Y-39395000D01*
X147150000Y-39395000D02*
X147150000Y-43255000D01*
X147150000Y-47115000D02*
X147150000Y-43255000D01*
X158920000Y-39395000D02*
X158920000Y-43255000D01*
X158920000Y-47115000D02*
X158920000Y-43255000D01*
X147395000Y-47115000D02*
X147150000Y-47115000D01*
X158675000Y-47115000D02*
X158920000Y-47115000D01*
X147395000Y-38542500D02*
X146925000Y-38882500D01*
X146925000Y-38202500D01*
X147395000Y-38542500D01*
G36*
X147395000Y-38542500D02*
G01*
X146925000Y-38882500D01*
X146925000Y-38202500D01*
X147395000Y-38542500D01*
G37*
%TO.C,C4*%
X182980000Y-46728748D02*
X182980000Y-47251252D01*
X181510000Y-46728748D02*
X181510000Y-47251252D01*
%TO.C,D5*%
X171210000Y-49222000D02*
X173210000Y-49222000D01*
X173210000Y-45212000D02*
X173210000Y-49222000D01*
X171210000Y-45212000D02*
X171210000Y-49222000D01*
%TO.C,D2*%
X174678000Y-41926000D02*
X174678000Y-43926000D01*
X178688000Y-43926000D02*
X174678000Y-43926000D01*
X178688000Y-41926000D02*
X174678000Y-41926000D01*
%TO.C,D7*%
X174006000Y-49222000D02*
X176006000Y-49222000D01*
X176006000Y-45212000D02*
X176006000Y-49222000D01*
X174006000Y-45212000D02*
X174006000Y-49222000D01*
%TO.C,SJ3*%
X181407500Y-52596250D02*
X181407500Y-49796250D01*
X181407500Y-49796250D02*
X183407500Y-49796250D01*
X183407500Y-52596250D02*
X181407500Y-52596250D01*
X183407500Y-49796250D02*
X183407500Y-52596250D01*
%TO.C,SJ2*%
X178807500Y-52596250D02*
X178807500Y-49796250D01*
X178807500Y-49796250D02*
X180807500Y-49796250D01*
X180807500Y-52596250D02*
X178807500Y-52596250D01*
X180807500Y-49796250D02*
X180807500Y-52596250D01*
%TO.C,SJ7*%
X178242500Y-53591250D02*
X178242500Y-56391250D01*
X178242500Y-56391250D02*
X176242500Y-56391250D01*
X176242500Y-53591250D02*
X178242500Y-53591250D01*
X176242500Y-56391250D02*
X176242500Y-53591250D01*
%TO.C,D4*%
X174678000Y-38116000D02*
X174678000Y-40116000D01*
X178688000Y-40116000D02*
X174678000Y-40116000D01*
X178688000Y-38116000D02*
X174678000Y-38116000D01*
%TD*%
M02*
