M48
; DRILL file {KiCad 8.0.1} date 2024-04-28T14:47:04+0200
; FORMAT={-:-/ absolute / inch / decimal}
; #@! TF.CreationDate,2024-04-28T14:47:04+02:00
; #@! TF.GenerationSoftware,Kicad,Pcbnew,8.0.1
; #@! TF.FileFunction,Plated,1,2,PTH
FMAT,2
INCH
; #@! TA.AperFunction,Plated,PTH,ViaDrill
T1C0.0118
; #@! TA.AperFunction,Plated,PTH,ViaDrill
T2C0.0157
; #@! TA.AperFunction,Plated,PTH,ComponentDrill
T3C0.0315
; #@! TA.AperFunction,Plated,PTH,ComponentDrill
T4C0.0394
; #@! TA.AperFunction,Plated,PTH,ComponentDrill
T5C0.0472
; #@! TA.AperFunction,Plated,PTH,ComponentDrill
T6C0.0512
%
G90
G05
T1
X5.85Y-1.45
X5.9Y-1.45
X5.95Y-1.45
X6.0Y-1.45
X6.05Y-1.45
X6.075Y-1.7744
X6.1Y-1.45
X6.1Y-1.95
X6.15Y-1.45
X6.15Y-1.7994
X6.15Y-1.95
X6.1516Y-1.65
X6.245Y-2.005
X6.3642Y-1.8858
X6.6Y-1.825
X6.75Y-1.9
X6.86Y-1.93
X6.87Y-1.52
X6.87Y-1.67
X6.87Y-2.18
X6.872Y-2.046
X6.97Y-1.78
X6.98Y-1.94
X7.08Y-1.8
X7.1263Y-2.0609
X7.1263Y-2.1632
T2
X5.561Y-1.9685
X5.586Y-1.9435
X5.611Y-1.9685
X5.975Y-1.625
X6.225Y-1.75
X6.4469Y-1.9783
X6.5Y-2.275
X6.52Y-1.7
X6.525Y-2.3
X6.525Y-2.35
X6.53Y-1.48
X6.57Y-1.63
X6.61Y-1.87
X6.64Y-2.23
X6.67Y-2.06
X6.725Y-1.4756
X6.775Y-1.625
X6.81Y-1.71
X6.9Y-2.37
X6.94Y-1.48
X7.24Y-1.89
X7.25Y-1.64
T3
X6.05Y-2.1372
X6.05Y-2.275
X6.4Y-2.1372
X6.4Y-2.275
T4
X5.8843Y-2.5984
X5.9843Y-2.5984
X6.0843Y-2.5984
X6.1843Y-2.5984
X6.2843Y-2.5984
X6.3843Y-2.5984
X6.4843Y-2.5984
X6.5843Y-2.5984
X6.6843Y-2.5984
T5
X7.275Y-2.3486
X7.275Y-2.575
X7.334Y-1.558
X7.334Y-1.6958
X7.334Y-1.8336
X7.334Y-1.9714
T6
X4.42Y-1.6822
X4.42Y-1.9322
X4.42Y-2.1822
X4.42Y-2.4322
X4.7146Y-1.5945
X4.7146Y-1.8898
X4.7146Y-2.2343
X4.7146Y-2.5295
X4.913Y-1.5945
X4.913Y-1.8898
X4.913Y-2.2343
X4.913Y-2.5295
X5.1114Y-1.5945
X5.1114Y-1.8898
X5.1114Y-2.2343
X5.1114Y-2.5295
X5.7122Y-1.5945
X5.7122Y-1.7421
X5.7122Y-1.8898
X5.7122Y-2.2343
X5.7122Y-2.3819
X5.7122Y-2.5295
M30
