%TF.GenerationSoftware,KiCad,Pcbnew,7.0.10*%
%TF.CreationDate,2024-03-19T21:59:50+01:00*%
%TF.ProjectId,2in-2out_2.0,32696e2d-326f-4757-945f-322e302e6b69,rev?*%
%TF.SameCoordinates,Original*%
%TF.FileFunction,Copper,L2,Bot*%
%TF.FilePolarity,Positive*%
%FSLAX46Y46*%
G04 Gerber Fmt 4.6, Leading zero omitted, Abs format (unit mm)*
G04 Created by KiCad (PCBNEW 7.0.10) date 2024-03-19 21:59:50*
%MOMM*%
%LPD*%
G01*
G04 APERTURE LIST*
G04 Aperture macros list*
%AMRoundRect*
0 Rectangle with rounded corners*
0 $1 Rounding radius*
0 $2 $3 $4 $5 $6 $7 $8 $9 X,Y pos of 4 corners*
0 Add a 4 corners polygon primitive as box body*
4,1,4,$2,$3,$4,$5,$6,$7,$8,$9,$2,$3,0*
0 Add four circle primitives for the rounded corners*
1,1,$1+$1,$2,$3*
1,1,$1+$1,$4,$5*
1,1,$1+$1,$6,$7*
1,1,$1+$1,$8,$9*
0 Add four rect primitives between the rounded corners*
20,1,$1+$1,$2,$3,$4,$5,0*
20,1,$1+$1,$4,$5,$6,$7,0*
20,1,$1+$1,$6,$7,$8,$9,0*
20,1,$1+$1,$8,$9,$2,$3,0*%
G04 Aperture macros list end*
%TA.AperFunction,ComponentPad*%
%ADD10O,3.581400X1.790700*%
%TD*%
%TA.AperFunction,ComponentPad*%
%ADD11O,3.000000X4.000000*%
%TD*%
%TA.AperFunction,ComponentPad*%
%ADD12R,3.000000X2.000000*%
%TD*%
%TA.AperFunction,ComponentPad*%
%ADD13O,3.000000X2.000000*%
%TD*%
%TA.AperFunction,ComponentPad*%
%ADD14R,1.600000X1.600000*%
%TD*%
%TA.AperFunction,ComponentPad*%
%ADD15C,1.600000*%
%TD*%
%TA.AperFunction,ComponentPad*%
%ADD16R,1.700000X1.700000*%
%TD*%
%TA.AperFunction,ComponentPad*%
%ADD17O,1.700000X1.700000*%
%TD*%
%TA.AperFunction,ComponentPad*%
%ADD18R,2.600000X2.600000*%
%TD*%
%TA.AperFunction,ComponentPad*%
%ADD19C,2.600000*%
%TD*%
%TA.AperFunction,SMDPad,CuDef*%
%ADD20R,1.500000X1.000000*%
%TD*%
%TA.AperFunction,SMDPad,CuDef*%
%ADD21RoundRect,0.250000X0.475000X-0.250000X0.475000X0.250000X-0.475000X0.250000X-0.475000X-0.250000X0*%
%TD*%
%TA.AperFunction,SMDPad,CuDef*%
%ADD22RoundRect,0.150000X-0.512500X-0.150000X0.512500X-0.150000X0.512500X0.150000X-0.512500X0.150000X0*%
%TD*%
%TA.AperFunction,SMDPad,CuDef*%
%ADD23RoundRect,0.150000X-0.150000X0.875000X-0.150000X-0.875000X0.150000X-0.875000X0.150000X0.875000X0*%
%TD*%
%TA.AperFunction,SMDPad,CuDef*%
%ADD24RoundRect,0.225000X0.375000X-0.225000X0.375000X0.225000X-0.375000X0.225000X-0.375000X-0.225000X0*%
%TD*%
%TA.AperFunction,SMDPad,CuDef*%
%ADD25RoundRect,0.225000X-0.225000X-0.375000X0.225000X-0.375000X0.225000X0.375000X-0.225000X0.375000X0*%
%TD*%
%TA.AperFunction,ViaPad*%
%ADD26C,0.800000*%
%TD*%
%TA.AperFunction,ViaPad*%
%ADD27C,0.600000*%
%TD*%
%TA.AperFunction,Conductor*%
%ADD28C,0.300000*%
%TD*%
%TA.AperFunction,Conductor*%
%ADD29C,0.600000*%
%TD*%
%TA.AperFunction,Conductor*%
%ADD30C,2.400000*%
%TD*%
G04 APERTURE END LIST*
D10*
%TO.P,X9,1,KL*%
%TO.N,GND*%
X186278558Y-59910797D03*
%TO.P,X9,2,KL*%
%TO.N,VBUS*%
X186278558Y-64910797D03*
%TD*%
D11*
%TO.P,K2,11*%
%TO.N,/HV_2A*%
X124790000Y-48000000D03*
X124790000Y-40500000D03*
%TO.P,K2,12*%
%TO.N,unconnected-(K2-Pad12)*%
X129830000Y-48000000D03*
X129830000Y-40500000D03*
%TO.P,K2,14*%
%TO.N,/HV_2B*%
X119750000Y-48000000D03*
X119750000Y-40500000D03*
D12*
%TO.P,K2,A1*%
%TO.N,Net-(IC1-O1)*%
X145090000Y-40500000D03*
D13*
%TO.P,K2,A2*%
%TO.N,Net-(IC1-O2)*%
X145090000Y-48000000D03*
%TO.P,K2,A3*%
%TO.N,VDD*%
X145090000Y-44250000D03*
%TD*%
D14*
%TO.P,C1,1*%
%TO.N,VDD*%
X162560000Y-57785000D03*
D15*
%TO.P,C1,2*%
%TO.N,GND*%
X162560000Y-54285000D03*
%TD*%
D16*
%TO.P,J1,1,Pin_1*%
%TO.N,VBUS*%
X149460000Y-66000000D03*
D17*
%TO.P,J1,2,Pin_2*%
%TO.N,GND*%
X152000000Y-66000000D03*
%TO.P,J1,3,Pin_3*%
%TO.N,+3V3*%
X154540000Y-66000000D03*
%TO.P,J1,4,Pin_4*%
%TO.N,/PWM*%
X157080000Y-66000000D03*
%TO.P,J1,5,Pin_5*%
%TO.N,/MOSI*%
X159620000Y-66000000D03*
%TO.P,J1,6,Pin_6*%
%TO.N,/SSEL*%
X162160000Y-66000000D03*
%TO.P,J1,7,Pin_7*%
%TO.N,/MISO*%
X164700000Y-66000000D03*
%TO.P,J1,8,Pin_8*%
%TO.N,/SCK*%
X167240000Y-66000000D03*
%TO.P,J1,9,Pin_9*%
%TO.N,/EIB_DC*%
X169780000Y-66000000D03*
%TD*%
D11*
%TO.P,K1,11*%
%TO.N,/HV_1A*%
X124790000Y-64250000D03*
X124790000Y-56750000D03*
%TO.P,K1,12*%
%TO.N,unconnected-(K1-Pad12)*%
X129830000Y-64250000D03*
X129830000Y-56750000D03*
%TO.P,K1,14*%
%TO.N,/HV_1B*%
X119750000Y-64250000D03*
X119750000Y-56750000D03*
D12*
%TO.P,K1,A1*%
%TO.N,Net-(IC1-O3)*%
X145090000Y-56750000D03*
D13*
%TO.P,K1,A2*%
%TO.N,Net-(IC1-O4)*%
X145090000Y-64250000D03*
%TO.P,K1,A3*%
%TO.N,VDD*%
X145090000Y-60500000D03*
%TD*%
D18*
%TO.P,J2,1,Pin_1*%
%TO.N,/IN1*%
X186310558Y-39534639D03*
D19*
%TO.P,J2,2,Pin_2*%
%TO.N,/IN2*%
X186310558Y-44614639D03*
%TO.P,J2,3,Pin_3*%
%TO.N,/IO3*%
X186310558Y-49694639D03*
%TO.P,J2,4,Pin_4*%
%TO.N,/IO4*%
X186310558Y-54774639D03*
%TD*%
D14*
%TO.P,C2,1*%
%TO.N,VDD*%
X153670000Y-57785000D03*
D15*
%TO.P,C2,2*%
%TO.N,GND*%
X153670000Y-54285000D03*
%TD*%
D18*
%TO.P,J3,1,Pin_1*%
%TO.N,/HV_2B*%
X111359754Y-39522704D03*
D19*
%TO.P,J3,2,Pin_2*%
%TO.N,/HV_2A*%
X111359754Y-44602704D03*
%TO.P,J3,3,Pin_3*%
X111359754Y-49682704D03*
%TO.P,J3,4,Pin_4*%
%TO.N,/HV_1B*%
X111359754Y-54762704D03*
%TO.P,J3,5,Pin_5*%
X111359754Y-59842704D03*
%TO.P,J3,6,Pin_6*%
%TO.N,/HV_1A*%
X111359754Y-64922704D03*
%TD*%
D20*
%TO.P,SJ6,1,A*%
%TO.N,VDD*%
X182322500Y-55656250D03*
%TO.P,SJ6,2,B*%
%TO.N,/IO4F*%
X182322500Y-54356250D03*
%TD*%
%TO.P,SJ5,2,B*%
%TO.N,/IO4F*%
X179782500Y-54356250D03*
%TO.P,SJ5,1,A*%
%TO.N,/IN4*%
X179782500Y-55656250D03*
%TD*%
D21*
%TO.P,C3,1*%
%TO.N,+3V3*%
X160655000Y-43180000D03*
%TO.P,C3,2*%
%TO.N,GND*%
X160655000Y-41280000D03*
%TD*%
D22*
%TO.P,TVS1,1,I/O1*%
%TO.N,/IN4*%
X177932500Y-48072500D03*
%TO.P,TVS1,2,GND*%
%TO.N,GND*%
X177932500Y-47122500D03*
%TO.P,TVS1,3,I/O2*%
%TO.N,Net-(TVS1-I{slash}O2)*%
X177932500Y-46172500D03*
%TO.P,TVS1,4,I/O3*%
%TO.N,Net-(TVS1-I{slash}O3)*%
X180207500Y-46172500D03*
%TO.P,TVS1,5,VBUS*%
%TO.N,+3V3*%
X180207500Y-47122500D03*
%TO.P,TVS1,6,I/O4*%
%TO.N,/IN3*%
X180207500Y-48072500D03*
%TD*%
D20*
%TO.P,SJ4,1,A*%
%TO.N,+3V3*%
X177242500Y-50546250D03*
%TO.P,SJ4,2,B*%
%TO.N,/IO3F*%
X177242500Y-51846250D03*
%TD*%
D23*
%TO.P,IC1,1,I1*%
%TO.N,/O8*%
X147955000Y-38605000D03*
%TO.P,IC1,2,I2*%
%TO.N,/O7*%
X149225000Y-38605000D03*
%TO.P,IC1,3,I3*%
%TO.N,/O6*%
X150495000Y-38605000D03*
%TO.P,IC1,4,I4*%
%TO.N,/O5*%
X151765000Y-38605000D03*
%TO.P,IC1,5,I5*%
%TO.N,/O4*%
X153035000Y-38605000D03*
%TO.P,IC1,6,I6*%
%TO.N,/O3*%
X154305000Y-38605000D03*
%TO.P,IC1,7,I7*%
%TO.N,/O2*%
X155575000Y-38605000D03*
%TO.P,IC1,8,I8*%
%TO.N,/O1*%
X156845000Y-38605000D03*
%TO.P,IC1,9,GND*%
%TO.N,GND*%
X158115000Y-38605000D03*
%TO.P,IC1,10,COM*%
%TO.N,+3V3*%
X158115000Y-47905000D03*
%TO.P,IC1,11,O8*%
%TO.N,unconnected-(IC1-O8-Pad11)*%
X156845000Y-47905000D03*
%TO.P,IC1,12,O7*%
%TO.N,unconnected-(IC1-O7-Pad12)*%
X155575000Y-47905000D03*
%TO.P,IC1,13,O6*%
%TO.N,unconnected-(IC1-O6-Pad13)*%
X154305000Y-47905000D03*
%TO.P,IC1,14,O5*%
%TO.N,unconnected-(IC1-O5-Pad14)*%
X153035000Y-47905000D03*
%TO.P,IC1,15,O4*%
%TO.N,Net-(IC1-O4)*%
X151765000Y-47905000D03*
%TO.P,IC1,16,O3*%
%TO.N,Net-(IC1-O3)*%
X150495000Y-47905000D03*
%TO.P,IC1,17,O2*%
%TO.N,Net-(IC1-O2)*%
X149225000Y-47905000D03*
%TO.P,IC1,18,O1*%
%TO.N,Net-(IC1-O1)*%
X147955000Y-47905000D03*
%TD*%
D21*
%TO.P,C4,1*%
%TO.N,GND*%
X182245000Y-47940000D03*
%TO.P,C4,2*%
%TO.N,+3V3*%
X182245000Y-46040000D03*
%TD*%
D24*
%TO.P,D5,1,K*%
%TO.N,Net-(D5-K)*%
X172210000Y-48512000D03*
%TO.P,D5,2,A*%
%TO.N,GND*%
X172210000Y-45212000D03*
%TD*%
D25*
%TO.P,D2,1,K*%
%TO.N,Net-(D2-K)*%
X175388000Y-42926000D03*
%TO.P,D2,2,A*%
%TO.N,GND*%
X178688000Y-42926000D03*
%TD*%
D24*
%TO.P,D7,1,K*%
%TO.N,Net-(D7-K)*%
X175006000Y-48512000D03*
%TO.P,D7,2,A*%
%TO.N,GND*%
X175006000Y-45212000D03*
%TD*%
D20*
%TO.P,SJ3,1,A*%
%TO.N,VDD*%
X182407500Y-50546250D03*
%TO.P,SJ3,2,B*%
%TO.N,/IO3F*%
X182407500Y-51846250D03*
%TD*%
%TO.P,SJ2,1,A*%
%TO.N,/IN3*%
X179807500Y-50546250D03*
%TO.P,SJ2,2,B*%
%TO.N,/IO3F*%
X179807500Y-51846250D03*
%TD*%
%TO.P,SJ7,2,B*%
%TO.N,/IO4F*%
X177242500Y-54341250D03*
%TO.P,SJ7,1,A*%
%TO.N,+3V3*%
X177242500Y-55641250D03*
%TD*%
D25*
%TO.P,D4,1,K*%
%TO.N,Net-(D4-K)*%
X175388000Y-39116000D03*
%TO.P,D4,2,A*%
%TO.N,GND*%
X178688000Y-39116000D03*
%TD*%
D26*
%TO.N,GND*%
X175260000Y-60198000D03*
X166878000Y-41402000D03*
%TO.N,+3V3*%
X165608000Y-43180000D03*
%TO.N,GND*%
X172974000Y-43434000D03*
X183896000Y-48006000D03*
X168656000Y-56642000D03*
X163750000Y-50250000D03*
X141250000Y-50000000D03*
X176276000Y-37592000D03*
X142520000Y-50000000D03*
X165862000Y-37592000D03*
X151765000Y-41275000D03*
X185500000Y-42400000D03*
X141885000Y-49365000D03*
D27*
%TO.N,Net-(D2-K)*%
X174498000Y-42418000D03*
D26*
%TO.N,+3V3*%
X172085000Y-41275000D03*
X169418000Y-52324000D03*
X167894000Y-47498000D03*
X170815000Y-37480000D03*
X158115000Y-44450000D03*
D27*
%TO.N,Net-(TVS1-I{slash}O2)*%
X177038000Y-45212000D03*
%TO.N,Net-(TVS1-I{slash}O3)*%
X179832000Y-45720000D03*
%TO.N,Net-(D5-K)*%
X171450000Y-48260000D03*
%TO.N,Net-(D7-K)*%
X174244000Y-49022000D03*
%TO.N,/IN3*%
X177292000Y-49276000D03*
%TO.N,/IN4*%
X174548800Y-51968400D03*
X174498000Y-55372000D03*
%TO.N,/MOSI*%
X154305000Y-45070000D03*
X154940000Y-49530000D03*
%TO.N,/SSEL*%
X156210000Y-49530000D03*
X156210000Y-45705000D03*
%TO.N,/MISO*%
X158623000Y-50927000D03*
X167640000Y-46355000D03*
X161650000Y-47900000D03*
%TO.N,Net-(D4-K)*%
X174498000Y-38608000D03*
%TO.N,/IO3F*%
X181007500Y-52346250D03*
%TO.N,/IO4F*%
X181007500Y-54946250D03*
%TO.N,/O1*%
X156250000Y-41910000D03*
%TO.N,/O8*%
X148590000Y-36830000D03*
%TO.N,/O7*%
X149860000Y-36830000D03*
%TO.N,/O6*%
X151130000Y-36830000D03*
%TO.N,/O5*%
X152400000Y-36830000D03*
%TO.N,/O4*%
X153670000Y-36830000D03*
%TO.N,/O3*%
X154940000Y-36830000D03*
%TO.N,/O2*%
X156210000Y-36830000D03*
D26*
%TO.N,VDD*%
X165100000Y-57785000D03*
X165735000Y-59690000D03*
X165735000Y-58420000D03*
%TD*%
D28*
%TO.N,/MISO*%
X161650000Y-47900000D02*
X158623000Y-50927000D01*
D29*
%TO.N,+3V3*%
X168249600Y-47498000D02*
X171246800Y-50495200D01*
X167894000Y-47498000D02*
X168249600Y-47498000D01*
D28*
%TO.N,/MISO*%
X167640000Y-46355000D02*
X163195000Y-46355000D01*
X163195000Y-46355000D02*
X161650000Y-47900000D01*
D29*
%TO.N,+3V3*%
X160655000Y-43180000D02*
X165608000Y-43180000D01*
D28*
%TO.N,/IN3*%
X179807500Y-49554500D02*
X179807500Y-49276000D01*
X179807500Y-49276000D02*
X177292000Y-49276000D01*
X179807500Y-49554500D02*
X179807500Y-48792500D01*
X179807500Y-48792500D02*
X180207500Y-48392500D01*
X180207500Y-48392500D02*
X180207500Y-48072500D01*
D29*
%TO.N,+3V3*%
X158115000Y-47905000D02*
X158115000Y-49530000D01*
X158115000Y-49530000D02*
X157099000Y-50546000D01*
X152552400Y-50546000D02*
X151130000Y-51968400D01*
X157099000Y-50546000D02*
X152552400Y-50546000D01*
X151130000Y-51968400D02*
X151130000Y-60325000D01*
X154540000Y-63735000D02*
X154540000Y-66000000D01*
X151130000Y-60325000D02*
X154540000Y-63735000D01*
D28*
%TO.N,Net-(IC1-O3)*%
X145090000Y-56750000D02*
X145090000Y-55570000D01*
X145090000Y-55570000D02*
X150495000Y-50165000D01*
X150495000Y-50165000D02*
X150495000Y-47905000D01*
%TO.N,Net-(IC1-O4)*%
X151765000Y-47905000D02*
X151765000Y-49911000D01*
X151765000Y-49911000D02*
X147828000Y-53848000D01*
X147828000Y-53848000D02*
X147828000Y-61566200D01*
X147828000Y-61566200D02*
X145144200Y-64250000D01*
%TO.N,Net-(D2-K)*%
X174880000Y-42418000D02*
X175388000Y-42926000D01*
X174498000Y-42418000D02*
X174880000Y-42418000D01*
D29*
%TO.N,+3V3*%
X182245000Y-43815000D02*
X182245000Y-46040000D01*
X158115000Y-47905000D02*
X158115000Y-45085000D01*
X175607500Y-54956250D02*
X175607500Y-53086250D01*
X173837850Y-53086250D02*
X175607500Y-53086250D01*
X172085000Y-41275000D02*
X179705000Y-41275000D01*
X170815000Y-37480000D02*
X170815000Y-40005000D01*
X169418000Y-52324000D02*
X171246800Y-50495200D01*
X177242500Y-50546250D02*
X176407500Y-50546250D01*
X176407500Y-50546250D02*
X175607500Y-51346250D01*
X179705000Y-41275000D02*
X182245000Y-43815000D01*
X181162500Y-47122500D02*
X182245000Y-46040000D01*
X175607500Y-51346250D02*
X175607500Y-53086250D01*
X176292500Y-55641250D02*
X175607500Y-54956250D01*
X158115000Y-45085000D02*
X158115000Y-44450000D01*
X180207500Y-47122500D02*
X181162500Y-47122500D01*
X177242500Y-55641250D02*
X176292500Y-55641250D01*
X158115000Y-44450000D02*
X159385000Y-43180000D01*
X171246800Y-50495200D02*
X173837850Y-53086250D01*
X170815000Y-40005000D02*
X172085000Y-41275000D01*
X159385000Y-43180000D02*
X160655000Y-43180000D01*
D28*
%TO.N,Net-(TVS1-I{slash}O2)*%
X177038000Y-45278000D02*
X177932500Y-46172500D01*
X177038000Y-45212000D02*
X177038000Y-45278000D01*
%TO.N,Net-(TVS1-I{slash}O3)*%
X179832000Y-45720000D02*
X179832000Y-45797000D01*
X179832000Y-45797000D02*
X180207500Y-46172500D01*
%TO.N,Net-(D5-K)*%
X171702000Y-48512000D02*
X171450000Y-48260000D01*
X172210000Y-48512000D02*
X171702000Y-48512000D01*
%TO.N,Net-(D7-K)*%
X174754000Y-48512000D02*
X175006000Y-48512000D01*
X174244000Y-49022000D02*
X174754000Y-48512000D01*
%TO.N,/IN3*%
X179807500Y-50546250D02*
X179807500Y-49554500D01*
%TO.N,/IN4*%
X178796750Y-56642000D02*
X179782500Y-55656250D01*
X174548800Y-50749200D02*
X177225500Y-48072500D01*
X177225500Y-48072500D02*
X177932500Y-48072500D01*
X174548800Y-51968400D02*
X174548800Y-50749200D01*
X174498000Y-55372000D02*
X175768000Y-56642000D01*
X175768000Y-56642000D02*
X178796750Y-56642000D01*
%TO.N,Net-(IC1-O2)*%
X145000000Y-48250000D02*
X145000000Y-47750000D01*
X149225000Y-48929999D02*
X148624999Y-49530000D01*
X146620000Y-49530000D02*
X148624999Y-49530000D01*
X149225000Y-47905000D02*
X149225000Y-48929999D01*
X145090000Y-48000000D02*
X146620000Y-49530000D01*
%TO.N,Net-(IC1-O1)*%
X147955000Y-41455000D02*
X147955000Y-47905000D01*
X147000000Y-40500000D02*
X147955000Y-41455000D01*
X145090000Y-40500000D02*
X147000000Y-40500000D01*
%TO.N,/MOSI*%
X154940000Y-49530000D02*
X154940000Y-45705000D01*
X154940000Y-45705000D02*
X154305000Y-45070000D01*
%TO.N,/SSEL*%
X156210000Y-49530000D02*
X156210000Y-45705000D01*
D30*
%TO.N,/HV_2B*%
X119750000Y-48000000D02*
X119750000Y-40500000D01*
X118772704Y-39522704D02*
X119750000Y-40500000D01*
X111359754Y-39522704D02*
X118772704Y-39522704D01*
%TO.N,/HV_1B*%
X119750000Y-56750000D02*
X119750000Y-59750000D01*
X111359754Y-59842704D02*
X111359754Y-54762704D01*
X119657296Y-59842704D02*
X119750000Y-59750000D01*
X119750000Y-59750000D02*
X119750000Y-64250000D01*
X111359754Y-59842704D02*
X119657296Y-59842704D01*
D28*
%TO.N,Net-(D4-K)*%
X174880000Y-38608000D02*
X175388000Y-39116000D01*
X174498000Y-38608000D02*
X174880000Y-38608000D01*
%TO.N,/IO3F*%
X179782500Y-51816250D02*
X179782500Y-52036250D01*
X177242500Y-51846250D02*
X179807500Y-51846250D01*
X181007500Y-52346250D02*
X181007500Y-51846250D01*
X181007500Y-51846250D02*
X182407500Y-51846250D01*
X179807500Y-51846250D02*
X181007500Y-51846250D01*
%TO.N,/IO4F*%
X177257500Y-54356250D02*
X177242500Y-54341250D01*
X181007500Y-54356250D02*
X181007500Y-54946250D01*
X179782500Y-54356250D02*
X177257500Y-54356250D01*
X182322500Y-54356250D02*
X181007500Y-54356250D01*
X181007500Y-54356250D02*
X179782500Y-54356250D01*
%TO.N,/O1*%
X156845000Y-41315000D02*
X156845000Y-38605000D01*
X156250000Y-41910000D02*
X156845000Y-41315000D01*
%TO.N,/O8*%
X147955000Y-38605000D02*
X147955000Y-37465000D01*
X147955000Y-37465000D02*
X148590000Y-36830000D01*
%TO.N,/O7*%
X149225000Y-38605000D02*
X149225000Y-37465000D01*
X149225000Y-37465000D02*
X149860000Y-36830000D01*
%TO.N,/O6*%
X150495000Y-38605000D02*
X150495000Y-37465000D01*
X150495000Y-37465000D02*
X151130000Y-36830000D01*
%TO.N,/O5*%
X151765000Y-37465000D02*
X152400000Y-36830000D01*
X151765000Y-38605000D02*
X151765000Y-37465000D01*
%TO.N,/O4*%
X153035000Y-37465000D02*
X153670000Y-36830000D01*
X153035000Y-38605000D02*
X153035000Y-37465000D01*
%TO.N,/O3*%
X154305000Y-37465000D02*
X154940000Y-36830000D01*
X154305000Y-38605000D02*
X154305000Y-37465000D01*
%TO.N,/O2*%
X155575000Y-37465000D02*
X156210000Y-36830000D01*
X155575000Y-38605000D02*
X155575000Y-37465000D01*
D29*
%TO.N,VDD*%
X184007500Y-55746250D02*
X184007500Y-50946250D01*
X184007500Y-57038500D02*
X182626000Y-58420000D01*
X183917500Y-55656250D02*
X184007500Y-55746250D01*
X184007500Y-50946250D02*
X183607500Y-50546250D01*
X182626000Y-58420000D02*
X165735000Y-58420000D01*
X165100000Y-57785000D02*
X162560000Y-57785000D01*
X182322500Y-55656250D02*
X183917500Y-55656250D01*
X184007500Y-55746250D02*
X184007500Y-57038500D01*
X183607500Y-50546250D02*
X182407500Y-50546250D01*
X165735000Y-58420000D02*
X165735000Y-59690000D01*
X162560000Y-57785000D02*
X153670000Y-57785000D01*
X165100000Y-57785000D02*
X165735000Y-58420000D01*
D30*
%TO.N,unconnected-(K1-Pad12)*%
X129830000Y-56750000D02*
X129830000Y-64250000D01*
%TO.N,unconnected-(K2-Pad12)*%
X129830000Y-48000000D02*
X129830000Y-40500000D01*
%TD*%
%TA.AperFunction,Conductor*%
%TO.N,GND*%
G36*
X148584549Y-35778127D02*
G01*
X148600035Y-35776781D01*
X149849965Y-35776781D01*
X149854549Y-35778127D01*
X149870035Y-35776781D01*
X151119965Y-35776781D01*
X151124549Y-35778127D01*
X151140035Y-35776781D01*
X152389965Y-35776781D01*
X152394549Y-35778127D01*
X152410035Y-35776781D01*
X153659965Y-35776781D01*
X153664549Y-35778127D01*
X153680035Y-35776781D01*
X154929965Y-35776781D01*
X154934549Y-35778127D01*
X154950035Y-35776781D01*
X156199965Y-35776781D01*
X156204549Y-35778127D01*
X156220035Y-35776781D01*
X191912592Y-35776781D01*
X191979631Y-35796466D01*
X192025386Y-35849270D01*
X192036592Y-35900781D01*
X192036592Y-68601781D01*
X192016907Y-68668820D01*
X191964103Y-68714575D01*
X191912592Y-68725781D01*
X140459000Y-68725781D01*
X140391961Y-68706096D01*
X140346206Y-68653292D01*
X140335000Y-68601781D01*
X140335000Y-64374335D01*
X143089500Y-64374335D01*
X143093913Y-64400781D01*
X143130429Y-64619616D01*
X143211169Y-64854802D01*
X143211172Y-64854811D01*
X143311174Y-65039598D01*
X143329526Y-65073509D01*
X143482262Y-65269744D01*
X143641744Y-65416557D01*
X143665217Y-65438166D01*
X143873393Y-65574173D01*
X144101118Y-65674063D01*
X144342175Y-65735107D01*
X144342179Y-65735108D01*
X144342181Y-65735108D01*
X144342186Y-65735109D01*
X144495589Y-65747819D01*
X144527933Y-65750500D01*
X144527937Y-65750500D01*
X145652063Y-65750500D01*
X145652067Y-65750500D01*
X145732719Y-65743817D01*
X145837813Y-65735109D01*
X145837816Y-65735108D01*
X145837821Y-65735108D01*
X146078881Y-65674063D01*
X146306607Y-65574173D01*
X146514785Y-65438164D01*
X146697738Y-65269744D01*
X146850474Y-65073509D01*
X146968828Y-64854810D01*
X147049571Y-64619614D01*
X147090500Y-64374335D01*
X147090500Y-64125665D01*
X147049571Y-63880386D01*
X146968828Y-63645190D01*
X146948425Y-63607488D01*
X146907536Y-63531933D01*
X146892941Y-63463604D01*
X146917604Y-63398232D01*
X146928903Y-63385241D01*
X148227513Y-62086631D01*
X148240079Y-62076565D01*
X148239925Y-62076378D01*
X148245933Y-62071405D01*
X148245940Y-62071402D01*
X148269227Y-62046602D01*
X148293865Y-62020367D01*
X148296578Y-62017567D01*
X148316911Y-61997235D01*
X148319606Y-61993760D01*
X148327199Y-61984869D01*
X148358448Y-61951593D01*
X148368674Y-61932990D01*
X148379353Y-61916733D01*
X148392362Y-61899964D01*
X148410491Y-61858066D01*
X148415620Y-61847595D01*
X148437627Y-61807568D01*
X148442905Y-61787006D01*
X148449207Y-61768599D01*
X148457635Y-61749127D01*
X148464777Y-61704025D01*
X148467140Y-61692618D01*
X148478500Y-61648377D01*
X148478500Y-61627149D01*
X148480027Y-61607749D01*
X148483346Y-61586795D01*
X148479050Y-61541347D01*
X148478500Y-61529678D01*
X148478500Y-54168807D01*
X148498185Y-54101768D01*
X148514819Y-54081126D01*
X150117819Y-52478126D01*
X150179142Y-52444641D01*
X150248834Y-52449625D01*
X150304767Y-52491497D01*
X150329184Y-52556961D01*
X150329500Y-52565807D01*
X150329500Y-60415191D01*
X150329501Y-60415200D01*
X150338017Y-60452518D01*
X150340345Y-60466217D01*
X150344633Y-60504260D01*
X150357271Y-60540380D01*
X150361119Y-60553735D01*
X150369639Y-60591061D01*
X150386250Y-60625554D01*
X150391570Y-60638397D01*
X150404212Y-60674525D01*
X150424572Y-60706927D01*
X150431296Y-60719093D01*
X150447910Y-60753589D01*
X150471771Y-60783510D01*
X150479817Y-60794849D01*
X150500182Y-60827259D01*
X150500184Y-60827262D01*
X153703181Y-64030259D01*
X153736666Y-64091582D01*
X153739500Y-64117940D01*
X153739500Y-64847309D01*
X153719815Y-64914348D01*
X153686625Y-64948883D01*
X153668601Y-64961503D01*
X153668595Y-64961508D01*
X153501508Y-65128594D01*
X153371269Y-65314595D01*
X153316692Y-65358219D01*
X153247193Y-65365412D01*
X153184839Y-65333890D01*
X153168119Y-65314594D01*
X153038113Y-65128926D01*
X153038108Y-65128920D01*
X152871082Y-64961894D01*
X152677578Y-64826399D01*
X152463492Y-64726570D01*
X152463486Y-64726567D01*
X152250000Y-64669364D01*
X152250000Y-65564498D01*
X152142315Y-65515320D01*
X152035763Y-65500000D01*
X151964237Y-65500000D01*
X151857685Y-65515320D01*
X151750000Y-65564498D01*
X151750000Y-64669364D01*
X151749999Y-64669364D01*
X151536513Y-64726567D01*
X151536507Y-64726570D01*
X151322422Y-64826399D01*
X151322420Y-64826400D01*
X151128926Y-64961886D01*
X151006865Y-65083947D01*
X150945542Y-65117431D01*
X150875850Y-65112447D01*
X150819917Y-65070575D01*
X150803002Y-65039598D01*
X150753797Y-64907671D01*
X150753793Y-64907664D01*
X150667547Y-64792455D01*
X150667544Y-64792452D01*
X150552335Y-64706206D01*
X150552328Y-64706202D01*
X150417482Y-64655908D01*
X150417483Y-64655908D01*
X150357883Y-64649501D01*
X150357881Y-64649500D01*
X150357873Y-64649500D01*
X150357864Y-64649500D01*
X148562129Y-64649500D01*
X148562123Y-64649501D01*
X148502516Y-64655908D01*
X148367671Y-64706202D01*
X148367664Y-64706206D01*
X148252455Y-64792452D01*
X148252452Y-64792455D01*
X148166206Y-64907664D01*
X148166202Y-64907671D01*
X148115908Y-65042517D01*
X148109501Y-65102116D01*
X148109500Y-65102135D01*
X148109500Y-66897870D01*
X148109501Y-66897876D01*
X148115908Y-66957483D01*
X148166202Y-67092328D01*
X148166206Y-67092335D01*
X148252452Y-67207544D01*
X148252455Y-67207547D01*
X148367664Y-67293793D01*
X148367671Y-67293797D01*
X148502517Y-67344091D01*
X148502516Y-67344091D01*
X148509444Y-67344835D01*
X148562127Y-67350500D01*
X150357872Y-67350499D01*
X150417483Y-67344091D01*
X150552331Y-67293796D01*
X150667546Y-67207546D01*
X150753796Y-67092331D01*
X150803002Y-66960401D01*
X150844872Y-66904468D01*
X150910337Y-66880050D01*
X150978610Y-66894901D01*
X151006865Y-66916053D01*
X151128917Y-67038105D01*
X151322421Y-67173600D01*
X151536507Y-67273429D01*
X151536516Y-67273433D01*
X151750000Y-67330634D01*
X151750000Y-66435501D01*
X151857685Y-66484680D01*
X151964237Y-66500000D01*
X152035763Y-66500000D01*
X152142315Y-66484680D01*
X152250000Y-66435501D01*
X152250000Y-67330634D01*
X152463483Y-67273433D01*
X152463492Y-67273429D01*
X152677578Y-67173600D01*
X152871082Y-67038105D01*
X153038105Y-66871082D01*
X153168119Y-66685405D01*
X153222696Y-66641781D01*
X153292195Y-66634588D01*
X153354549Y-66666110D01*
X153371269Y-66685405D01*
X153501505Y-66871401D01*
X153668599Y-67038495D01*
X153765384Y-67106265D01*
X153862165Y-67174032D01*
X153862167Y-67174033D01*
X153862170Y-67174035D01*
X154076337Y-67273903D01*
X154304592Y-67335063D01*
X154481034Y-67350500D01*
X154539999Y-67355659D01*
X154540000Y-67355659D01*
X154540001Y-67355659D01*
X154598966Y-67350500D01*
X154775408Y-67335063D01*
X155003663Y-67273903D01*
X155217830Y-67174035D01*
X155411401Y-67038495D01*
X155578495Y-66871401D01*
X155708425Y-66685842D01*
X155763002Y-66642217D01*
X155832500Y-66635023D01*
X155894855Y-66666546D01*
X155911575Y-66685842D01*
X156041500Y-66871395D01*
X156041505Y-66871401D01*
X156208599Y-67038495D01*
X156305384Y-67106265D01*
X156402165Y-67174032D01*
X156402167Y-67174033D01*
X156402170Y-67174035D01*
X156616337Y-67273903D01*
X156844592Y-67335063D01*
X157021034Y-67350500D01*
X157079999Y-67355659D01*
X157080000Y-67355659D01*
X157080001Y-67355659D01*
X157138966Y-67350500D01*
X157315408Y-67335063D01*
X157543663Y-67273903D01*
X157757830Y-67174035D01*
X157951401Y-67038495D01*
X158118495Y-66871401D01*
X158248425Y-66685842D01*
X158303002Y-66642217D01*
X158372500Y-66635023D01*
X158434855Y-66666546D01*
X158451575Y-66685842D01*
X158581500Y-66871395D01*
X158581505Y-66871401D01*
X158748599Y-67038495D01*
X158845384Y-67106265D01*
X158942165Y-67174032D01*
X158942167Y-67174033D01*
X158942170Y-67174035D01*
X159156337Y-67273903D01*
X159384592Y-67335063D01*
X159561034Y-67350500D01*
X159619999Y-67355659D01*
X159620000Y-67355659D01*
X159620001Y-67355659D01*
X159678966Y-67350500D01*
X159855408Y-67335063D01*
X160083663Y-67273903D01*
X160297830Y-67174035D01*
X160491401Y-67038495D01*
X160658495Y-66871401D01*
X160788425Y-66685842D01*
X160843002Y-66642217D01*
X160912500Y-66635023D01*
X160974855Y-66666546D01*
X160991575Y-66685842D01*
X161121500Y-66871395D01*
X161121505Y-66871401D01*
X161288599Y-67038495D01*
X161385384Y-67106265D01*
X161482165Y-67174032D01*
X161482167Y-67174033D01*
X161482170Y-67174035D01*
X161696337Y-67273903D01*
X161924592Y-67335063D01*
X162101034Y-67350500D01*
X162159999Y-67355659D01*
X162160000Y-67355659D01*
X162160001Y-67355659D01*
X162218966Y-67350500D01*
X162395408Y-67335063D01*
X162623663Y-67273903D01*
X162837830Y-67174035D01*
X163031401Y-67038495D01*
X163198495Y-66871401D01*
X163328425Y-66685842D01*
X163383002Y-66642217D01*
X163452500Y-66635023D01*
X163514855Y-66666546D01*
X163531575Y-66685842D01*
X163661500Y-66871395D01*
X163661505Y-66871401D01*
X163828599Y-67038495D01*
X163925384Y-67106265D01*
X164022165Y-67174032D01*
X164022167Y-67174033D01*
X164022170Y-67174035D01*
X164236337Y-67273903D01*
X164464592Y-67335063D01*
X164641034Y-67350500D01*
X164699999Y-67355659D01*
X164700000Y-67355659D01*
X164700001Y-67355659D01*
X164758966Y-67350500D01*
X164935408Y-67335063D01*
X165163663Y-67273903D01*
X165377830Y-67174035D01*
X165571401Y-67038495D01*
X165738495Y-66871401D01*
X165868425Y-66685842D01*
X165923002Y-66642217D01*
X165992500Y-66635023D01*
X166054855Y-66666546D01*
X166071575Y-66685842D01*
X166201500Y-66871395D01*
X166201505Y-66871401D01*
X166368599Y-67038495D01*
X166465384Y-67106265D01*
X166562165Y-67174032D01*
X166562167Y-67174033D01*
X166562170Y-67174035D01*
X166776337Y-67273903D01*
X167004592Y-67335063D01*
X167181034Y-67350500D01*
X167239999Y-67355659D01*
X167240000Y-67355659D01*
X167240001Y-67355659D01*
X167298966Y-67350500D01*
X167475408Y-67335063D01*
X167703663Y-67273903D01*
X167917830Y-67174035D01*
X168111401Y-67038495D01*
X168278495Y-66871401D01*
X168408425Y-66685842D01*
X168463002Y-66642217D01*
X168532500Y-66635023D01*
X168594855Y-66666546D01*
X168611575Y-66685842D01*
X168741500Y-66871395D01*
X168741505Y-66871401D01*
X168908599Y-67038495D01*
X169005384Y-67106265D01*
X169102165Y-67174032D01*
X169102167Y-67174033D01*
X169102170Y-67174035D01*
X169316337Y-67273903D01*
X169544592Y-67335063D01*
X169721034Y-67350500D01*
X169779999Y-67355659D01*
X169780000Y-67355659D01*
X169780001Y-67355659D01*
X169838966Y-67350500D01*
X170015408Y-67335063D01*
X170243663Y-67273903D01*
X170457830Y-67174035D01*
X170651401Y-67038495D01*
X170818495Y-66871401D01*
X170954035Y-66677830D01*
X171053903Y-66463663D01*
X171115063Y-66235408D01*
X171135659Y-66000000D01*
X171115063Y-65764592D01*
X171053903Y-65536337D01*
X170954035Y-65322171D01*
X170953227Y-65321016D01*
X170818494Y-65128597D01*
X170651402Y-64961506D01*
X170651395Y-64961501D01*
X170494072Y-64851341D01*
X183983573Y-64851341D01*
X183993657Y-65088729D01*
X183993658Y-65088738D01*
X184043717Y-65321013D01*
X184043718Y-65321016D01*
X184132309Y-65541482D01*
X184132311Y-65541486D01*
X184256891Y-65743817D01*
X184413873Y-65922183D01*
X184598741Y-66071454D01*
X184806177Y-66187334D01*
X185030213Y-66266491D01*
X185030219Y-66266492D01*
X185264394Y-66306646D01*
X185264402Y-66306646D01*
X185264404Y-66306647D01*
X185264405Y-66306647D01*
X187233204Y-66306647D01*
X187233205Y-66306647D01*
X187233206Y-66306646D01*
X187233223Y-66306646D01*
X187410654Y-66291544D01*
X187410655Y-66291543D01*
X187410661Y-66291543D01*
X187640603Y-66231671D01*
X187772882Y-66171876D01*
X187857112Y-66133803D01*
X187857113Y-66133801D01*
X187857118Y-66133800D01*
X188053980Y-66000745D01*
X188225523Y-65836334D01*
X188366813Y-65645298D01*
X188473785Y-65433131D01*
X188543362Y-65205937D01*
X188573543Y-64970253D01*
X188573171Y-64961508D01*
X188563458Y-64732864D01*
X188563458Y-64732858D01*
X188513399Y-64500582D01*
X188424805Y-64280108D01*
X188300225Y-64077777D01*
X188143243Y-63899411D01*
X187958375Y-63750140D01*
X187750940Y-63634260D01*
X187526906Y-63555104D01*
X187526896Y-63555101D01*
X187292721Y-63514947D01*
X187292712Y-63514947D01*
X185323911Y-63514947D01*
X185323892Y-63514947D01*
X185146461Y-63530049D01*
X185146458Y-63530050D01*
X184916513Y-63589922D01*
X184700003Y-63687790D01*
X184699995Y-63687795D01*
X184503137Y-63820847D01*
X184331592Y-63985260D01*
X184331591Y-63985261D01*
X184190305Y-64176291D01*
X184083334Y-64388457D01*
X184083331Y-64388463D01*
X184013753Y-64615660D01*
X183983573Y-64851341D01*
X170494072Y-64851341D01*
X170457834Y-64825967D01*
X170457830Y-64825965D01*
X170457828Y-64825964D01*
X170243663Y-64726097D01*
X170243659Y-64726096D01*
X170243655Y-64726094D01*
X170015413Y-64664938D01*
X170015403Y-64664936D01*
X169780001Y-64644341D01*
X169779999Y-64644341D01*
X169544596Y-64664936D01*
X169544586Y-64664938D01*
X169316344Y-64726094D01*
X169316335Y-64726098D01*
X169102171Y-64825964D01*
X169102169Y-64825965D01*
X168908597Y-64961505D01*
X168741505Y-65128597D01*
X168611575Y-65314158D01*
X168556998Y-65357783D01*
X168487500Y-65364977D01*
X168425145Y-65333454D01*
X168408425Y-65314158D01*
X168278494Y-65128597D01*
X168111402Y-64961506D01*
X168111395Y-64961501D01*
X167917834Y-64825967D01*
X167917830Y-64825965D01*
X167917828Y-64825964D01*
X167703663Y-64726097D01*
X167703659Y-64726096D01*
X167703655Y-64726094D01*
X167475413Y-64664938D01*
X167475403Y-64664936D01*
X167240001Y-64644341D01*
X167239999Y-64644341D01*
X167004596Y-64664936D01*
X167004586Y-64664938D01*
X166776344Y-64726094D01*
X166776335Y-64726098D01*
X166562171Y-64825964D01*
X166562169Y-64825965D01*
X166368597Y-64961505D01*
X166201505Y-65128597D01*
X166071575Y-65314158D01*
X166016998Y-65357783D01*
X165947500Y-65364977D01*
X165885145Y-65333454D01*
X165868425Y-65314158D01*
X165738494Y-65128597D01*
X165571402Y-64961506D01*
X165571395Y-64961501D01*
X165377834Y-64825967D01*
X165377830Y-64825965D01*
X165377828Y-64825964D01*
X165163663Y-64726097D01*
X165163659Y-64726096D01*
X165163655Y-64726094D01*
X164935413Y-64664938D01*
X164935403Y-64664936D01*
X164700001Y-64644341D01*
X164699999Y-64644341D01*
X164464596Y-64664936D01*
X164464586Y-64664938D01*
X164236344Y-64726094D01*
X164236335Y-64726098D01*
X164022171Y-64825964D01*
X164022169Y-64825965D01*
X163828597Y-64961505D01*
X163661505Y-65128597D01*
X163531575Y-65314158D01*
X163476998Y-65357783D01*
X163407500Y-65364977D01*
X163345145Y-65333454D01*
X163328425Y-65314158D01*
X163198494Y-65128597D01*
X163031402Y-64961506D01*
X163031395Y-64961501D01*
X162837834Y-64825967D01*
X162837830Y-64825965D01*
X162837828Y-64825964D01*
X162623663Y-64726097D01*
X162623659Y-64726096D01*
X162623655Y-64726094D01*
X162395413Y-64664938D01*
X162395403Y-64664936D01*
X162160001Y-64644341D01*
X162159999Y-64644341D01*
X161924596Y-64664936D01*
X161924586Y-64664938D01*
X161696344Y-64726094D01*
X161696335Y-64726098D01*
X161482171Y-64825964D01*
X161482169Y-64825965D01*
X161288597Y-64961505D01*
X161121505Y-65128597D01*
X160991575Y-65314158D01*
X160936998Y-65357783D01*
X160867500Y-65364977D01*
X160805145Y-65333454D01*
X160788425Y-65314158D01*
X160658494Y-65128597D01*
X160491402Y-64961506D01*
X160491395Y-64961501D01*
X160297834Y-64825967D01*
X160297830Y-64825965D01*
X160297828Y-64825964D01*
X160083663Y-64726097D01*
X160083659Y-64726096D01*
X160083655Y-64726094D01*
X159855413Y-64664938D01*
X159855403Y-64664936D01*
X159620001Y-64644341D01*
X159619999Y-64644341D01*
X159384596Y-64664936D01*
X159384586Y-64664938D01*
X159156344Y-64726094D01*
X159156335Y-64726098D01*
X158942171Y-64825964D01*
X158942169Y-64825965D01*
X158748597Y-64961505D01*
X158581505Y-65128597D01*
X158451575Y-65314158D01*
X158396998Y-65357783D01*
X158327500Y-65364977D01*
X158265145Y-65333454D01*
X158248425Y-65314158D01*
X158118494Y-65128597D01*
X157951402Y-64961506D01*
X157951395Y-64961501D01*
X157757834Y-64825967D01*
X157757830Y-64825965D01*
X157757828Y-64825964D01*
X157543663Y-64726097D01*
X157543659Y-64726096D01*
X157543655Y-64726094D01*
X157315413Y-64664938D01*
X157315403Y-64664936D01*
X157080001Y-64644341D01*
X157079999Y-64644341D01*
X156844596Y-64664936D01*
X156844586Y-64664938D01*
X156616344Y-64726094D01*
X156616335Y-64726098D01*
X156402171Y-64825964D01*
X156402169Y-64825965D01*
X156208597Y-64961505D01*
X156041505Y-65128597D01*
X155911575Y-65314158D01*
X155856998Y-65357783D01*
X155787500Y-65364977D01*
X155725145Y-65333454D01*
X155708425Y-65314158D01*
X155578494Y-65128597D01*
X155411404Y-64961508D01*
X155411402Y-64961506D01*
X155411401Y-64961505D01*
X155393374Y-64948882D01*
X155349751Y-64894306D01*
X155340500Y-64847309D01*
X155340500Y-63644807D01*
X155340500Y-63644806D01*
X155331980Y-63607479D01*
X155329654Y-63593790D01*
X155325368Y-63555745D01*
X155317036Y-63531933D01*
X155312725Y-63519612D01*
X155308876Y-63506249D01*
X155300361Y-63468941D01*
X155283753Y-63434455D01*
X155278431Y-63421606D01*
X155274546Y-63410506D01*
X155265789Y-63385478D01*
X155245424Y-63353067D01*
X155238696Y-63340894D01*
X155222091Y-63306412D01*
X155222090Y-63306411D01*
X155198225Y-63276486D01*
X155190186Y-63265157D01*
X155169816Y-63232738D01*
X155042262Y-63105184D01*
X154688363Y-62751285D01*
X172056684Y-62751285D01*
X172076288Y-63012901D01*
X172076289Y-63012906D01*
X172134668Y-63268683D01*
X172134670Y-63268692D01*
X172134672Y-63268697D01*
X172230524Y-63512924D01*
X172361706Y-63740138D01*
X172426071Y-63820849D01*
X172525290Y-63945266D01*
X172676703Y-64085755D01*
X172717613Y-64123714D01*
X172934388Y-64271509D01*
X172934393Y-64271511D01*
X172934394Y-64271512D01*
X172934395Y-64271513D01*
X173035182Y-64320049D01*
X173170765Y-64385342D01*
X173170766Y-64385342D01*
X173170769Y-64385344D01*
X173421477Y-64462677D01*
X173680910Y-64501781D01*
X173943274Y-64501781D01*
X174202707Y-64462677D01*
X174453415Y-64385344D01*
X174689796Y-64271509D01*
X174906571Y-64123714D01*
X175098897Y-63945262D01*
X175262478Y-63740138D01*
X175393660Y-63512924D01*
X175489512Y-63268697D01*
X175547894Y-63012911D01*
X175549313Y-62993976D01*
X175567500Y-62751285D01*
X175567500Y-62751276D01*
X175547895Y-62489660D01*
X175547894Y-62489655D01*
X175547894Y-62489651D01*
X175489512Y-62233865D01*
X175393660Y-61989638D01*
X175262478Y-61762424D01*
X175098897Y-61557300D01*
X175098896Y-61557299D01*
X175098893Y-61557295D01*
X174906571Y-61378848D01*
X174689796Y-61231053D01*
X174689792Y-61231051D01*
X174689789Y-61231049D01*
X174689788Y-61231048D01*
X174453417Y-61117219D01*
X174453419Y-61117219D01*
X174202715Y-61039887D01*
X174202711Y-61039886D01*
X174202707Y-61039885D01*
X174077915Y-61021075D01*
X173943279Y-61000781D01*
X173943274Y-61000781D01*
X173680910Y-61000781D01*
X173680904Y-61000781D01*
X173519339Y-61025134D01*
X173421477Y-61039885D01*
X173421474Y-61039886D01*
X173421468Y-61039887D01*
X173170765Y-61117219D01*
X172934395Y-61231048D01*
X172934394Y-61231049D01*
X172717612Y-61378848D01*
X172525290Y-61557295D01*
X172361706Y-61762424D01*
X172230524Y-61989637D01*
X172134674Y-62233859D01*
X172134668Y-62233878D01*
X172076289Y-62489655D01*
X172076288Y-62489660D01*
X172056684Y-62751276D01*
X172056684Y-62751285D01*
X154688363Y-62751285D01*
X151966819Y-60029741D01*
X151933334Y-59968418D01*
X151930500Y-59942060D01*
X151930500Y-54285002D01*
X152365034Y-54285002D01*
X152384858Y-54511599D01*
X152384860Y-54511610D01*
X152443730Y-54731317D01*
X152443735Y-54731331D01*
X152539863Y-54937478D01*
X152590974Y-55010472D01*
X153272046Y-54329400D01*
X153284835Y-54410148D01*
X153342359Y-54523045D01*
X153431955Y-54612641D01*
X153544852Y-54670165D01*
X153625599Y-54682953D01*
X152944526Y-55364025D01*
X153017513Y-55415132D01*
X153017521Y-55415136D01*
X153223668Y-55511264D01*
X153223682Y-55511269D01*
X153443389Y-55570139D01*
X153443400Y-55570141D01*
X153669998Y-55589966D01*
X153670002Y-55589966D01*
X153896599Y-55570141D01*
X153896610Y-55570139D01*
X154116317Y-55511269D01*
X154116331Y-55511264D01*
X154322478Y-55415136D01*
X154395471Y-55364024D01*
X153714400Y-54682953D01*
X153795148Y-54670165D01*
X153908045Y-54612641D01*
X153997641Y-54523045D01*
X154055165Y-54410148D01*
X154067953Y-54329400D01*
X154749024Y-55010471D01*
X154800136Y-54937478D01*
X154896264Y-54731331D01*
X154896269Y-54731317D01*
X154955139Y-54511610D01*
X154955141Y-54511599D01*
X154974966Y-54285002D01*
X161255034Y-54285002D01*
X161274858Y-54511599D01*
X161274860Y-54511610D01*
X161333730Y-54731317D01*
X161333735Y-54731331D01*
X161429863Y-54937478D01*
X161480974Y-55010472D01*
X162162046Y-54329400D01*
X162174835Y-54410148D01*
X162232359Y-54523045D01*
X162321955Y-54612641D01*
X162434852Y-54670165D01*
X162515599Y-54682953D01*
X161834526Y-55364025D01*
X161907513Y-55415132D01*
X161907521Y-55415136D01*
X162113668Y-55511264D01*
X162113682Y-55511269D01*
X162333389Y-55570139D01*
X162333400Y-55570141D01*
X162559998Y-55589966D01*
X162560002Y-55589966D01*
X162786599Y-55570141D01*
X162786610Y-55570139D01*
X163006317Y-55511269D01*
X163006331Y-55511264D01*
X163212478Y-55415136D01*
X163285471Y-55364024D01*
X162604400Y-54682953D01*
X162685148Y-54670165D01*
X162798045Y-54612641D01*
X162887641Y-54523045D01*
X162945165Y-54410148D01*
X162957953Y-54329400D01*
X163639024Y-55010471D01*
X163690136Y-54937478D01*
X163786264Y-54731331D01*
X163786269Y-54731317D01*
X163845139Y-54511610D01*
X163845141Y-54511599D01*
X163864966Y-54285002D01*
X163864966Y-54284997D01*
X163845141Y-54058400D01*
X163845139Y-54058389D01*
X163786269Y-53838682D01*
X163786264Y-53838668D01*
X163690136Y-53632521D01*
X163690132Y-53632513D01*
X163639025Y-53559526D01*
X162957953Y-54240598D01*
X162945165Y-54159852D01*
X162887641Y-54046955D01*
X162798045Y-53957359D01*
X162685148Y-53899835D01*
X162604401Y-53887046D01*
X163285472Y-53205974D01*
X163212478Y-53154863D01*
X163006331Y-53058735D01*
X163006317Y-53058730D01*
X162786610Y-52999860D01*
X162786599Y-52999858D01*
X162560002Y-52980034D01*
X162559998Y-52980034D01*
X162333400Y-52999858D01*
X162333389Y-52999860D01*
X162113682Y-53058730D01*
X162113673Y-53058734D01*
X161907516Y-53154866D01*
X161907512Y-53154868D01*
X161834526Y-53205973D01*
X161834526Y-53205974D01*
X162515599Y-53887046D01*
X162434852Y-53899835D01*
X162321955Y-53957359D01*
X162232359Y-54046955D01*
X162174835Y-54159852D01*
X162162046Y-54240598D01*
X161480974Y-53559526D01*
X161480973Y-53559526D01*
X161429868Y-53632512D01*
X161429866Y-53632516D01*
X161333734Y-53838673D01*
X161333730Y-53838682D01*
X161274860Y-54058389D01*
X161274858Y-54058400D01*
X161255034Y-54284997D01*
X161255034Y-54285002D01*
X154974966Y-54285002D01*
X154974966Y-54284997D01*
X154955141Y-54058400D01*
X154955139Y-54058389D01*
X154896269Y-53838682D01*
X154896264Y-53838668D01*
X154800136Y-53632521D01*
X154800132Y-53632513D01*
X154749025Y-53559526D01*
X154067953Y-54240598D01*
X154055165Y-54159852D01*
X153997641Y-54046955D01*
X153908045Y-53957359D01*
X153795148Y-53899835D01*
X153714401Y-53887046D01*
X154395472Y-53205974D01*
X154322478Y-53154863D01*
X154116331Y-53058735D01*
X154116317Y-53058730D01*
X153896610Y-52999860D01*
X153896599Y-52999858D01*
X153670002Y-52980034D01*
X153669998Y-52980034D01*
X153443400Y-52999858D01*
X153443389Y-52999860D01*
X153223682Y-53058730D01*
X153223673Y-53058734D01*
X153017516Y-53154866D01*
X153017512Y-53154868D01*
X152944526Y-53205973D01*
X152944526Y-53205974D01*
X153625599Y-53887046D01*
X153544852Y-53899835D01*
X153431955Y-53957359D01*
X153342359Y-54046955D01*
X153284835Y-54159852D01*
X153272046Y-54240598D01*
X152590974Y-53559526D01*
X152590973Y-53559526D01*
X152539868Y-53632512D01*
X152539866Y-53632516D01*
X152443734Y-53838673D01*
X152443730Y-53838682D01*
X152384860Y-54058389D01*
X152384858Y-54058400D01*
X152365034Y-54284997D01*
X152365034Y-54285002D01*
X151930500Y-54285002D01*
X151930500Y-52351340D01*
X151950185Y-52284301D01*
X151966819Y-52263659D01*
X152847659Y-51382819D01*
X152908982Y-51349334D01*
X152935340Y-51346500D01*
X157189194Y-51346500D01*
X157226517Y-51337981D01*
X157240211Y-51335654D01*
X157278255Y-51331368D01*
X157314392Y-51318722D01*
X157327726Y-51314881D01*
X157365061Y-51306360D01*
X157399561Y-51289745D01*
X157412398Y-51284429D01*
X157434993Y-51276523D01*
X157448522Y-51271789D01*
X157480939Y-51251419D01*
X157493103Y-51244697D01*
X157527587Y-51228091D01*
X157557515Y-51204222D01*
X157568847Y-51196182D01*
X157601262Y-51175816D01*
X157654848Y-51122230D01*
X157716171Y-51088744D01*
X157785863Y-51093728D01*
X157841796Y-51135599D01*
X157859572Y-51168956D01*
X157897210Y-51276521D01*
X157959325Y-51375376D01*
X157993184Y-51429262D01*
X158120738Y-51556816D01*
X158211080Y-51613582D01*
X158232877Y-51627278D01*
X158273478Y-51652789D01*
X158369696Y-51686457D01*
X158443745Y-51712368D01*
X158443750Y-51712369D01*
X158622996Y-51732565D01*
X158623000Y-51732565D01*
X158623004Y-51732565D01*
X158802249Y-51712369D01*
X158802252Y-51712368D01*
X158802255Y-51712368D01*
X158972522Y-51652789D01*
X159125262Y-51556816D01*
X159252816Y-51429262D01*
X159348789Y-51276522D01*
X159408368Y-51106255D01*
X159409182Y-51099025D01*
X159436245Y-51034611D01*
X159444712Y-51025232D01*
X161748224Y-48721720D01*
X161809545Y-48688237D01*
X161822019Y-48686183D01*
X161829255Y-48685368D01*
X161999522Y-48625789D01*
X162152262Y-48529816D01*
X162279816Y-48402262D01*
X162375789Y-48249522D01*
X162435368Y-48079255D01*
X162436182Y-48072025D01*
X162463245Y-48007611D01*
X162471712Y-47998232D01*
X163428127Y-47041819D01*
X163489450Y-47008334D01*
X163515808Y-47005500D01*
X166936510Y-47005500D01*
X167003549Y-47025185D01*
X167049304Y-47077989D01*
X167059248Y-47147147D01*
X167054441Y-47167818D01*
X167009012Y-47307634D01*
X167008326Y-47309744D01*
X166988540Y-47498000D01*
X167008326Y-47686256D01*
X167008327Y-47686259D01*
X167066818Y-47866277D01*
X167066821Y-47866284D01*
X167161467Y-48030216D01*
X167252199Y-48130984D01*
X167288129Y-48170888D01*
X167441265Y-48282148D01*
X167441270Y-48282151D01*
X167614192Y-48359142D01*
X167614197Y-48359144D01*
X167799354Y-48398500D01*
X167799355Y-48398500D01*
X167966660Y-48398500D01*
X168033699Y-48418185D01*
X168054341Y-48434819D01*
X170027040Y-50407518D01*
X170060525Y-50468841D01*
X170055541Y-50538533D01*
X170027040Y-50582880D01*
X169170433Y-51439487D01*
X169133189Y-51465085D01*
X168965267Y-51539850D01*
X168965265Y-51539851D01*
X168812129Y-51651111D01*
X168685466Y-51791785D01*
X168590821Y-51955715D01*
X168590818Y-51955722D01*
X168532327Y-52135740D01*
X168532326Y-52135744D01*
X168512540Y-52324000D01*
X168532326Y-52512256D01*
X168532327Y-52512259D01*
X168590818Y-52692277D01*
X168590821Y-52692284D01*
X168685467Y-52856216D01*
X168788593Y-52970749D01*
X168812129Y-52996888D01*
X168965265Y-53108148D01*
X168965270Y-53108151D01*
X169138192Y-53185142D01*
X169138197Y-53185144D01*
X169323354Y-53224500D01*
X169323355Y-53224500D01*
X169512644Y-53224500D01*
X169512646Y-53224500D01*
X169697803Y-53185144D01*
X169870730Y-53108151D01*
X170023871Y-52996888D01*
X170150533Y-52856216D01*
X170245179Y-52692284D01*
X170266488Y-52626700D01*
X170296734Y-52577342D01*
X171159122Y-51714955D01*
X171220441Y-51681473D01*
X171290133Y-51686457D01*
X171334480Y-51714958D01*
X173208034Y-53588512D01*
X173335588Y-53716066D01*
X173368007Y-53736436D01*
X173379336Y-53744475D01*
X173409261Y-53768340D01*
X173409262Y-53768341D01*
X173443744Y-53784946D01*
X173455917Y-53791674D01*
X173488328Y-53812039D01*
X173513356Y-53820796D01*
X173524456Y-53824681D01*
X173537300Y-53830000D01*
X173568364Y-53844960D01*
X173571791Y-53846611D01*
X173609099Y-53855126D01*
X173622462Y-53858975D01*
X173658592Y-53871617D01*
X173658595Y-53871618D01*
X173696640Y-53875904D01*
X173710329Y-53878230D01*
X173747656Y-53886750D01*
X173792896Y-53886750D01*
X174683000Y-53886750D01*
X174750039Y-53906435D01*
X174795794Y-53959239D01*
X174807000Y-54010750D01*
X174807000Y-54462494D01*
X174787315Y-54529533D01*
X174734511Y-54575288D01*
X174669117Y-54585714D01*
X174498004Y-54566435D01*
X174497996Y-54566435D01*
X174318750Y-54586630D01*
X174318745Y-54586631D01*
X174148476Y-54646211D01*
X173995737Y-54742184D01*
X173868184Y-54869737D01*
X173772211Y-55022476D01*
X173712631Y-55192745D01*
X173712630Y-55192750D01*
X173692435Y-55371996D01*
X173692435Y-55372003D01*
X173712630Y-55551249D01*
X173712631Y-55551254D01*
X173772211Y-55721523D01*
X173868184Y-55874262D01*
X173995738Y-56001816D01*
X174148478Y-56097789D01*
X174318745Y-56157368D01*
X174325974Y-56158182D01*
X174390388Y-56185246D01*
X174399776Y-56193722D01*
X175247564Y-57041510D01*
X175257635Y-57054080D01*
X175257822Y-57053926D01*
X175262795Y-57059937D01*
X175262797Y-57059939D01*
X175262798Y-57059940D01*
X175284460Y-57080282D01*
X175313832Y-57107864D01*
X175316629Y-57110575D01*
X175336967Y-57130913D01*
X175340450Y-57133615D01*
X175349326Y-57141196D01*
X175369435Y-57160079D01*
X175382607Y-57172448D01*
X175382609Y-57172449D01*
X175401205Y-57182672D01*
X175417470Y-57193357D01*
X175434232Y-57206360D01*
X175434235Y-57206361D01*
X175434236Y-57206362D01*
X175476140Y-57224495D01*
X175486612Y-57229625D01*
X175526632Y-57251627D01*
X175542340Y-57255659D01*
X175547186Y-57256904D01*
X175565598Y-57263207D01*
X175585073Y-57271635D01*
X175630179Y-57278778D01*
X175641574Y-57281138D01*
X175685823Y-57292500D01*
X175707051Y-57292500D01*
X175726448Y-57294026D01*
X175747403Y-57297345D01*
X175747404Y-57297346D01*
X175747404Y-57297345D01*
X175747405Y-57297346D01*
X175792852Y-57293050D01*
X175804521Y-57292500D01*
X178711245Y-57292500D01*
X178727255Y-57294267D01*
X178727278Y-57294026D01*
X178735039Y-57294758D01*
X178735046Y-57294760D01*
X178805012Y-57292560D01*
X178808907Y-57292500D01*
X178837675Y-57292500D01*
X178842037Y-57291948D01*
X178853689Y-57291030D01*
X178899319Y-57289597D01*
X178919706Y-57283673D01*
X178938746Y-57279731D01*
X178959808Y-57277071D01*
X179002270Y-57260258D01*
X179013307Y-57256480D01*
X179057148Y-57243744D01*
X179075415Y-57232939D01*
X179092886Y-57224380D01*
X179112621Y-57216568D01*
X179149566Y-57189725D01*
X179159308Y-57183326D01*
X179198615Y-57160081D01*
X179213620Y-57145075D01*
X179228418Y-57132436D01*
X179245587Y-57119963D01*
X179274696Y-57084774D01*
X179282540Y-57076154D01*
X179665627Y-56693068D01*
X179726950Y-56659583D01*
X179753308Y-56656749D01*
X180580371Y-56656749D01*
X180580372Y-56656749D01*
X180639983Y-56650341D01*
X180774831Y-56600046D01*
X180890046Y-56513796D01*
X180953234Y-56429386D01*
X181009167Y-56387517D01*
X181078859Y-56382533D01*
X181140182Y-56416018D01*
X181151760Y-56429380D01*
X181214954Y-56513796D01*
X181243171Y-56534919D01*
X181330164Y-56600043D01*
X181330171Y-56600047D01*
X181465017Y-56650341D01*
X181465016Y-56650341D01*
X181471944Y-56651085D01*
X181524627Y-56656750D01*
X182957810Y-56656749D01*
X183024849Y-56676434D01*
X183070604Y-56729237D01*
X183080548Y-56798396D01*
X183051523Y-56861952D01*
X183045491Y-56868430D01*
X182330741Y-57583181D01*
X182269418Y-57616666D01*
X182243060Y-57619500D01*
X166177367Y-57619500D01*
X166126931Y-57608779D01*
X166019809Y-57561084D01*
X165982564Y-57535486D01*
X165978736Y-57531658D01*
X165948486Y-57482294D01*
X165943544Y-57467085D01*
X165927179Y-57416716D01*
X165910611Y-57388019D01*
X165832534Y-57252785D01*
X165724171Y-57132436D01*
X165705871Y-57112112D01*
X165705870Y-57112111D01*
X165552734Y-57000851D01*
X165552729Y-57000848D01*
X165379807Y-56923857D01*
X165379802Y-56923855D01*
X165234001Y-56892865D01*
X165194646Y-56884500D01*
X165005354Y-56884500D01*
X164972897Y-56891398D01*
X164820197Y-56923855D01*
X164820192Y-56923857D01*
X164708069Y-56973779D01*
X164657633Y-56984500D01*
X163976977Y-56984500D01*
X163909938Y-56964815D01*
X163864183Y-56912011D01*
X163856733Y-56884865D01*
X163855876Y-56885068D01*
X163854092Y-56877520D01*
X163803797Y-56742671D01*
X163803793Y-56742664D01*
X163717547Y-56627455D01*
X163717544Y-56627452D01*
X163602335Y-56541206D01*
X163602328Y-56541202D01*
X163467482Y-56490908D01*
X163467483Y-56490908D01*
X163407883Y-56484501D01*
X163407881Y-56484500D01*
X163407873Y-56484500D01*
X163407864Y-56484500D01*
X161712129Y-56484500D01*
X161712123Y-56484501D01*
X161652516Y-56490908D01*
X161517671Y-56541202D01*
X161517664Y-56541206D01*
X161402455Y-56627452D01*
X161402452Y-56627455D01*
X161316206Y-56742664D01*
X161316202Y-56742671D01*
X161265908Y-56877517D01*
X161264126Y-56885062D01*
X161261853Y-56884525D01*
X161239571Y-56938312D01*
X161182177Y-56978157D01*
X161143024Y-56984500D01*
X155086977Y-56984500D01*
X155019938Y-56964815D01*
X154974183Y-56912011D01*
X154966733Y-56884865D01*
X154965876Y-56885068D01*
X154964092Y-56877520D01*
X154913797Y-56742671D01*
X154913793Y-56742664D01*
X154827547Y-56627455D01*
X154827544Y-56627452D01*
X154712335Y-56541206D01*
X154712328Y-56541202D01*
X154577482Y-56490908D01*
X154577483Y-56490908D01*
X154517883Y-56484501D01*
X154517881Y-56484500D01*
X154517873Y-56484500D01*
X154517864Y-56484500D01*
X152822129Y-56484500D01*
X152822123Y-56484501D01*
X152762516Y-56490908D01*
X152627671Y-56541202D01*
X152627664Y-56541206D01*
X152512455Y-56627452D01*
X152512452Y-56627455D01*
X152426206Y-56742664D01*
X152426202Y-56742671D01*
X152375908Y-56877517D01*
X152369501Y-56937116D01*
X152369500Y-56937135D01*
X152369500Y-58632870D01*
X152369501Y-58632876D01*
X152375908Y-58692483D01*
X152426202Y-58827328D01*
X152426206Y-58827335D01*
X152512452Y-58942544D01*
X152512455Y-58942547D01*
X152627664Y-59028793D01*
X152627671Y-59028797D01*
X152762517Y-59079091D01*
X152762516Y-59079091D01*
X152769444Y-59079835D01*
X152822127Y-59085500D01*
X154517872Y-59085499D01*
X154577483Y-59079091D01*
X154712331Y-59028796D01*
X154827546Y-58942546D01*
X154913796Y-58827331D01*
X154964091Y-58692483D01*
X154964091Y-58692481D01*
X154965874Y-58684938D01*
X154968146Y-58685474D01*
X154990429Y-58631688D01*
X155047823Y-58591843D01*
X155086976Y-58585500D01*
X161143023Y-58585500D01*
X161210062Y-58605185D01*
X161255817Y-58657989D01*
X161263266Y-58685134D01*
X161264124Y-58684932D01*
X161265907Y-58692479D01*
X161316202Y-58827328D01*
X161316206Y-58827335D01*
X161402452Y-58942544D01*
X161402455Y-58942547D01*
X161517664Y-59028793D01*
X161517671Y-59028797D01*
X161652517Y-59079091D01*
X161652516Y-59079091D01*
X161659444Y-59079835D01*
X161712127Y-59085500D01*
X163407872Y-59085499D01*
X163467483Y-59079091D01*
X163602331Y-59028796D01*
X163717546Y-58942546D01*
X163803796Y-58827331D01*
X163854091Y-58692483D01*
X163854091Y-58692481D01*
X163855874Y-58684938D01*
X163858146Y-58685474D01*
X163880429Y-58631688D01*
X163937823Y-58591843D01*
X163976976Y-58585500D01*
X164657633Y-58585500D01*
X164708069Y-58596221D01*
X164815190Y-58643915D01*
X164852435Y-58669513D01*
X164856262Y-58673340D01*
X164886512Y-58722703D01*
X164907818Y-58788277D01*
X164907819Y-58788279D01*
X164907821Y-58788284D01*
X164917887Y-58805720D01*
X164934500Y-58867718D01*
X164934500Y-59242279D01*
X164917888Y-59304277D01*
X164907821Y-59321713D01*
X164849657Y-59500724D01*
X164849326Y-59501744D01*
X164829540Y-59690000D01*
X164849326Y-59878256D01*
X164849327Y-59878259D01*
X164907818Y-60058277D01*
X164907821Y-60058284D01*
X165002467Y-60222216D01*
X165091292Y-60320866D01*
X165129129Y-60362888D01*
X165282265Y-60474148D01*
X165282270Y-60474151D01*
X165455192Y-60551142D01*
X165455197Y-60551144D01*
X165640354Y-60590500D01*
X165640355Y-60590500D01*
X165829644Y-60590500D01*
X165829646Y-60590500D01*
X166014803Y-60551144D01*
X166187730Y-60474151D01*
X166340871Y-60362888D01*
X166467533Y-60222216D01*
X166562179Y-60058284D01*
X166620674Y-59878256D01*
X166640460Y-59690000D01*
X166637391Y-59660797D01*
X184008478Y-59660797D01*
X185736031Y-59660797D01*
X185697021Y-59754975D01*
X185676507Y-59910797D01*
X185697021Y-60066619D01*
X185736031Y-60160797D01*
X184009700Y-60160797D01*
X184044197Y-60320866D01*
X184044198Y-60320869D01*
X184132757Y-60541256D01*
X184257294Y-60743517D01*
X184257298Y-60743522D01*
X184414220Y-60921821D01*
X184414224Y-60921825D01*
X184599015Y-61071033D01*
X184599021Y-61071037D01*
X184806384Y-61186877D01*
X185030331Y-61266002D01*
X185030343Y-61266005D01*
X185264437Y-61306146D01*
X185264446Y-61306147D01*
X186028558Y-61306147D01*
X186028558Y-60453323D01*
X186122736Y-60492334D01*
X186239432Y-60507697D01*
X186317684Y-60507697D01*
X186434380Y-60492334D01*
X186528558Y-60453323D01*
X186528558Y-61306147D01*
X187233184Y-61306147D01*
X187233201Y-61306146D01*
X187410571Y-61291050D01*
X187640431Y-61231199D01*
X187856872Y-61133363D01*
X188053664Y-61000352D01*
X188225146Y-60836001D01*
X188366382Y-60645036D01*
X188366385Y-60645032D01*
X188473315Y-60432948D01*
X188473318Y-60432942D01*
X188542871Y-60205827D01*
X188548638Y-60160797D01*
X186821085Y-60160797D01*
X186860095Y-60066619D01*
X186880609Y-59910797D01*
X186860095Y-59754975D01*
X186821085Y-59660797D01*
X188547416Y-59660797D01*
X188512918Y-59500727D01*
X188512917Y-59500724D01*
X188424358Y-59280337D01*
X188299821Y-59078076D01*
X188299817Y-59078071D01*
X188142895Y-58899772D01*
X188142891Y-58899768D01*
X187958100Y-58750560D01*
X187958094Y-58750556D01*
X187750731Y-58634716D01*
X187526784Y-58555591D01*
X187526772Y-58555588D01*
X187292678Y-58515447D01*
X186528558Y-58515447D01*
X186528558Y-59368270D01*
X186434380Y-59329260D01*
X186317684Y-59313897D01*
X186239432Y-59313897D01*
X186122736Y-59329260D01*
X186028558Y-59368270D01*
X186028558Y-58515447D01*
X185323914Y-58515447D01*
X185146544Y-58530543D01*
X184916684Y-58590394D01*
X184700243Y-58688230D01*
X184503451Y-58821241D01*
X184331969Y-58985592D01*
X184190733Y-59176557D01*
X184190730Y-59176561D01*
X184083800Y-59388645D01*
X184083797Y-59388651D01*
X184014244Y-59615766D01*
X184008478Y-59660797D01*
X166637391Y-59660797D01*
X166620674Y-59501744D01*
X166600416Y-59439397D01*
X166582033Y-59382818D01*
X166580038Y-59312977D01*
X166616119Y-59253144D01*
X166678820Y-59222316D01*
X166699964Y-59220500D01*
X182716194Y-59220500D01*
X182753517Y-59211981D01*
X182767211Y-59209654D01*
X182805255Y-59205368D01*
X182841392Y-59192722D01*
X182854726Y-59188881D01*
X182892061Y-59180360D01*
X182926561Y-59163745D01*
X182939398Y-59158429D01*
X182975519Y-59145790D01*
X182975518Y-59145790D01*
X182975522Y-59145789D01*
X183007939Y-59125419D01*
X183020103Y-59118697D01*
X183054587Y-59102091D01*
X183084515Y-59078222D01*
X183095847Y-59070182D01*
X183128262Y-59049816D01*
X183255816Y-58922262D01*
X184605326Y-57572752D01*
X184637316Y-57540762D01*
X184657682Y-57508347D01*
X184665722Y-57497015D01*
X184689591Y-57467087D01*
X184706198Y-57432600D01*
X184712919Y-57420439D01*
X184733289Y-57388022D01*
X184745929Y-57351897D01*
X184751245Y-57339061D01*
X184767860Y-57304561D01*
X184776381Y-57267226D01*
X184780222Y-57253892D01*
X184792868Y-57217755D01*
X184797154Y-57179711D01*
X184799482Y-57166012D01*
X184808000Y-57128694D01*
X184808000Y-56948306D01*
X184808000Y-56120850D01*
X184827685Y-56053811D01*
X184880489Y-56008056D01*
X184949647Y-55998112D01*
X185013203Y-56027137D01*
X185016333Y-56029944D01*
X185184817Y-56186274D01*
X185407784Y-56338290D01*
X185650917Y-56455377D01*
X185908786Y-56534919D01*
X185908787Y-56534919D01*
X185908790Y-56534920D01*
X186175621Y-56575138D01*
X186175626Y-56575138D01*
X186175629Y-56575139D01*
X186175630Y-56575139D01*
X186445486Y-56575139D01*
X186445487Y-56575139D01*
X186445494Y-56575138D01*
X186712325Y-56534920D01*
X186712326Y-56534919D01*
X186712330Y-56534919D01*
X186970199Y-56455377D01*
X187213333Y-56338290D01*
X187436299Y-56186274D01*
X187607808Y-56027137D01*
X187634115Y-56002728D01*
X187634115Y-56002726D01*
X187634119Y-56002724D01*
X187802373Y-55791741D01*
X187937301Y-55558037D01*
X188035892Y-55306834D01*
X188095941Y-55043742D01*
X188103904Y-54937478D01*
X188116107Y-54774643D01*
X188116107Y-54774634D01*
X188095941Y-54505537D01*
X188072411Y-54402446D01*
X188035892Y-54242444D01*
X187937301Y-53991241D01*
X187802373Y-53757537D01*
X187634119Y-53546554D01*
X187634118Y-53546553D01*
X187634115Y-53546549D01*
X187436299Y-53363004D01*
X187342113Y-53298789D01*
X187213333Y-53210988D01*
X187213327Y-53210985D01*
X187213326Y-53210984D01*
X187213325Y-53210983D01*
X186970201Y-53093902D01*
X186970203Y-53093902D01*
X186712331Y-53014359D01*
X186712325Y-53014357D01*
X186445494Y-52974139D01*
X186445487Y-52974139D01*
X186175629Y-52974139D01*
X186175621Y-52974139D01*
X185908790Y-53014357D01*
X185908784Y-53014359D01*
X185650916Y-53093901D01*
X185407788Y-53210985D01*
X185184816Y-53363004D01*
X185016341Y-53519326D01*
X184953809Y-53550494D01*
X184884352Y-53542907D01*
X184830023Y-53498973D01*
X184808072Y-53432642D01*
X184808000Y-53428427D01*
X184808000Y-51040850D01*
X184827685Y-50973811D01*
X184880489Y-50928056D01*
X184949647Y-50918112D01*
X185013203Y-50947137D01*
X185016333Y-50949944D01*
X185184817Y-51106274D01*
X185407784Y-51258290D01*
X185650917Y-51375377D01*
X185908786Y-51454919D01*
X185908787Y-51454919D01*
X185908790Y-51454920D01*
X186175621Y-51495138D01*
X186175626Y-51495138D01*
X186175629Y-51495139D01*
X186175630Y-51495139D01*
X186445486Y-51495139D01*
X186445487Y-51495139D01*
X186445494Y-51495138D01*
X186712325Y-51454920D01*
X186712326Y-51454919D01*
X186712330Y-51454919D01*
X186970199Y-51375377D01*
X187213333Y-51258290D01*
X187436299Y-51106274D01*
X187607808Y-50947137D01*
X187634115Y-50922728D01*
X187634115Y-50922726D01*
X187634119Y-50922724D01*
X187802373Y-50711741D01*
X187937301Y-50478037D01*
X188035892Y-50226834D01*
X188095941Y-49963742D01*
X188104576Y-49848514D01*
X188116107Y-49694643D01*
X188116107Y-49694634D01*
X188097010Y-49439806D01*
X188095941Y-49425536D01*
X188035892Y-49162444D01*
X187937301Y-48911241D01*
X187802373Y-48677537D01*
X187634119Y-48466554D01*
X187634118Y-48466553D01*
X187634115Y-48466549D01*
X187436299Y-48283004D01*
X187402558Y-48260000D01*
X187213333Y-48130988D01*
X187213327Y-48130985D01*
X187213326Y-48130984D01*
X187213325Y-48130983D01*
X186970201Y-48013902D01*
X186970203Y-48013902D01*
X186712331Y-47934359D01*
X186712325Y-47934357D01*
X186445494Y-47894139D01*
X186445487Y-47894139D01*
X186175629Y-47894139D01*
X186175621Y-47894139D01*
X185908790Y-47934357D01*
X185908784Y-47934359D01*
X185650916Y-48013901D01*
X185407788Y-48130985D01*
X185184816Y-48283004D01*
X184987000Y-48466549D01*
X184818743Y-48677537D01*
X184683816Y-48911238D01*
X184683814Y-48911242D01*
X184585224Y-49162443D01*
X184585222Y-49162450D01*
X184525174Y-49425537D01*
X184505009Y-49694634D01*
X184505009Y-49694643D01*
X184525174Y-49963740D01*
X184525174Y-49963745D01*
X184538263Y-50021091D01*
X184533989Y-50090829D01*
X184492690Y-50147187D01*
X184427478Y-50172270D01*
X184359057Y-50158114D01*
X184329691Y-50136363D01*
X184109762Y-49916434D01*
X184109759Y-49916432D01*
X184077349Y-49896067D01*
X184066010Y-49888021D01*
X184036089Y-49864160D01*
X184001593Y-49847546D01*
X183989427Y-49840822D01*
X183957024Y-49820462D01*
X183957025Y-49820462D01*
X183925184Y-49809320D01*
X183920893Y-49807818D01*
X183908054Y-49802500D01*
X183873561Y-49785889D01*
X183836235Y-49777369D01*
X183822880Y-49773521D01*
X183786760Y-49760883D01*
X183786756Y-49760882D01*
X183786755Y-49760882D01*
X183768639Y-49758840D01*
X183748717Y-49756595D01*
X183735018Y-49754267D01*
X183697700Y-49745751D01*
X183697696Y-49745750D01*
X183697694Y-49745750D01*
X183697691Y-49745750D01*
X183619820Y-49745750D01*
X183552781Y-49726065D01*
X183520552Y-49696059D01*
X183515048Y-49688707D01*
X183515046Y-49688704D01*
X183510992Y-49685669D01*
X183399835Y-49602456D01*
X183399828Y-49602452D01*
X183264982Y-49552158D01*
X183264983Y-49552158D01*
X183205383Y-49545751D01*
X183205381Y-49545750D01*
X183205373Y-49545750D01*
X183205364Y-49545750D01*
X181609629Y-49545750D01*
X181609623Y-49545751D01*
X181550016Y-49552158D01*
X181415171Y-49602452D01*
X181415164Y-49602456D01*
X181299955Y-49688702D01*
X181299952Y-49688705D01*
X181208388Y-49811019D01*
X181206118Y-49809320D01*
X181166920Y-49848514D01*
X181098646Y-49863361D01*
X181033183Y-49838940D01*
X181008054Y-49809939D01*
X181006612Y-49811019D01*
X180915047Y-49688705D01*
X180915044Y-49688702D01*
X180799835Y-49602456D01*
X180799828Y-49602452D01*
X180664982Y-49552158D01*
X180664983Y-49552158D01*
X180605383Y-49545751D01*
X180605381Y-49545750D01*
X180605373Y-49545750D01*
X180605365Y-49545750D01*
X180582000Y-49545750D01*
X180514961Y-49526065D01*
X180469206Y-49473261D01*
X180458000Y-49421750D01*
X180458000Y-49349207D01*
X180460197Y-49325969D01*
X180461876Y-49317168D01*
X180458245Y-49259457D01*
X180458000Y-49251671D01*
X180458000Y-49113308D01*
X180477685Y-49046269D01*
X180494319Y-49025627D01*
X180607011Y-48912935D01*
X180619575Y-48902869D01*
X180619420Y-48902682D01*
X180620897Y-48901460D01*
X180621841Y-48901054D01*
X180628258Y-48895914D01*
X180632031Y-48893520D01*
X180633606Y-48896002D01*
X180685098Y-48873892D01*
X180699942Y-48873000D01*
X180785686Y-48873000D01*
X180785694Y-48873000D01*
X180822569Y-48870098D01*
X180822571Y-48870097D01*
X180822573Y-48870097D01*
X180906567Y-48845694D01*
X180980398Y-48824244D01*
X181121865Y-48740581D01*
X181238081Y-48624365D01*
X181321744Y-48482898D01*
X181367598Y-48325069D01*
X181370500Y-48288194D01*
X181370500Y-47988734D01*
X181390185Y-47921695D01*
X181440695Y-47877016D01*
X181463063Y-47866243D01*
X181475898Y-47860929D01*
X181512019Y-47848290D01*
X181512018Y-47848290D01*
X181512022Y-47848289D01*
X181544439Y-47827919D01*
X181556603Y-47821197D01*
X181591087Y-47804591D01*
X181621015Y-47780722D01*
X181632347Y-47772682D01*
X181664762Y-47752316D01*
X181792316Y-47624762D01*
X182340259Y-47076817D01*
X182401582Y-47043333D01*
X182427940Y-47040499D01*
X182770002Y-47040499D01*
X182770008Y-47040499D01*
X182872797Y-47029999D01*
X183039334Y-46974814D01*
X183188656Y-46882712D01*
X183312712Y-46758656D01*
X183404814Y-46609334D01*
X183459999Y-46442797D01*
X183470500Y-46340009D01*
X183470499Y-45739992D01*
X183470166Y-45736737D01*
X183459999Y-45637203D01*
X183459998Y-45637200D01*
X183439113Y-45574173D01*
X183404814Y-45470666D01*
X183312712Y-45321344D01*
X183188656Y-45197288D01*
X183188652Y-45197285D01*
X183104403Y-45145319D01*
X183057678Y-45093371D01*
X183045500Y-45039781D01*
X183045500Y-44614643D01*
X184505009Y-44614643D01*
X184525174Y-44883740D01*
X184585222Y-45146827D01*
X184585224Y-45146834D01*
X184683814Y-45398035D01*
X184683816Y-45398039D01*
X184706982Y-45438164D01*
X184818743Y-45631741D01*
X184931090Y-45772619D01*
X184987000Y-45842728D01*
X185162402Y-46005476D01*
X185184817Y-46026274D01*
X185407784Y-46178290D01*
X185650917Y-46295377D01*
X185908786Y-46374919D01*
X185908787Y-46374919D01*
X185908790Y-46374920D01*
X186175621Y-46415138D01*
X186175626Y-46415138D01*
X186175629Y-46415139D01*
X186175630Y-46415139D01*
X186445486Y-46415139D01*
X186445487Y-46415139D01*
X186445494Y-46415138D01*
X186712325Y-46374920D01*
X186712326Y-46374919D01*
X186712330Y-46374919D01*
X186970199Y-46295377D01*
X187213333Y-46178290D01*
X187436299Y-46026274D01*
X187620493Y-45855367D01*
X187634115Y-45842728D01*
X187634115Y-45842726D01*
X187634119Y-45842724D01*
X187802373Y-45631741D01*
X187937301Y-45398037D01*
X188035892Y-45146834D01*
X188095941Y-44883742D01*
X188105761Y-44752705D01*
X188116107Y-44614643D01*
X188116107Y-44614634D01*
X188095941Y-44345537D01*
X188095941Y-44345536D01*
X188035892Y-44082444D01*
X187937301Y-43831241D01*
X187802373Y-43597537D01*
X187634119Y-43386554D01*
X187634118Y-43386553D01*
X187634115Y-43386549D01*
X187436299Y-43203004D01*
X187402558Y-43180000D01*
X187213333Y-43050988D01*
X187213327Y-43050985D01*
X187213326Y-43050984D01*
X187213325Y-43050983D01*
X186970201Y-42933902D01*
X186970203Y-42933902D01*
X186712331Y-42854359D01*
X186712325Y-42854357D01*
X186445494Y-42814139D01*
X186445487Y-42814139D01*
X186175629Y-42814139D01*
X186175621Y-42814139D01*
X185908790Y-42854357D01*
X185908784Y-42854359D01*
X185650916Y-42933901D01*
X185407788Y-43050985D01*
X185184816Y-43203004D01*
X184987000Y-43386549D01*
X184818743Y-43597537D01*
X184683816Y-43831238D01*
X184683814Y-43831242D01*
X184585224Y-44082443D01*
X184585222Y-44082450D01*
X184525174Y-44345537D01*
X184505009Y-44614634D01*
X184505009Y-44614643D01*
X183045500Y-44614643D01*
X183045500Y-43724805D01*
X183045499Y-43724802D01*
X183036979Y-43687475D01*
X183034655Y-43673797D01*
X183030368Y-43635745D01*
X183017722Y-43599606D01*
X183013876Y-43586255D01*
X183005359Y-43548939D01*
X183005040Y-43548277D01*
X182988756Y-43514463D01*
X182983433Y-43501613D01*
X182970789Y-43465478D01*
X182950417Y-43433057D01*
X182943701Y-43420905D01*
X182927091Y-43386413D01*
X182903219Y-43356479D01*
X182895180Y-43345148D01*
X182874816Y-43312738D01*
X182747262Y-43185184D01*
X180444587Y-40882509D01*
X184510058Y-40882509D01*
X184510059Y-40882515D01*
X184516466Y-40942122D01*
X184566760Y-41076967D01*
X184566764Y-41076974D01*
X184653010Y-41192183D01*
X184653013Y-41192186D01*
X184768222Y-41278432D01*
X184768229Y-41278436D01*
X184903075Y-41328730D01*
X184903074Y-41328730D01*
X184910002Y-41329474D01*
X184962685Y-41335139D01*
X187658430Y-41335138D01*
X187718041Y-41328730D01*
X187852889Y-41278435D01*
X187968104Y-41192185D01*
X188054354Y-41076970D01*
X188104649Y-40942122D01*
X188111058Y-40882512D01*
X188111057Y-38186767D01*
X188104649Y-38127156D01*
X188096660Y-38105737D01*
X188054355Y-37992310D01*
X188054351Y-37992303D01*
X187968105Y-37877094D01*
X187968102Y-37877091D01*
X187852893Y-37790845D01*
X187852886Y-37790841D01*
X187718040Y-37740547D01*
X187718041Y-37740547D01*
X187658441Y-37734140D01*
X187658439Y-37734139D01*
X187658431Y-37734139D01*
X187658422Y-37734139D01*
X184962687Y-37734139D01*
X184962681Y-37734140D01*
X184903074Y-37740547D01*
X184768229Y-37790841D01*
X184768222Y-37790845D01*
X184653013Y-37877091D01*
X184653010Y-37877094D01*
X184566764Y-37992303D01*
X184566760Y-37992310D01*
X184516466Y-38127156D01*
X184512072Y-38168032D01*
X184510059Y-38186762D01*
X184510058Y-38186774D01*
X184510058Y-40882509D01*
X180444587Y-40882509D01*
X180239252Y-40677174D01*
X180207262Y-40645184D01*
X180207259Y-40645182D01*
X180174849Y-40624817D01*
X180163510Y-40616771D01*
X180133589Y-40592910D01*
X180099093Y-40576296D01*
X180086927Y-40569572D01*
X180054524Y-40549212D01*
X180054525Y-40549212D01*
X180026062Y-40539252D01*
X180018393Y-40536568D01*
X180005554Y-40531250D01*
X179971061Y-40514639D01*
X179933735Y-40506119D01*
X179920380Y-40502271D01*
X179884260Y-40489633D01*
X179884256Y-40489632D01*
X179884255Y-40489632D01*
X179866139Y-40487590D01*
X179846217Y-40485345D01*
X179832518Y-40483017D01*
X179795200Y-40474501D01*
X179795196Y-40474500D01*
X179795194Y-40474500D01*
X179795191Y-40474500D01*
X172527367Y-40474500D01*
X172476931Y-40463779D01*
X172369809Y-40416084D01*
X172332564Y-40390486D01*
X171651819Y-39709741D01*
X171618334Y-39648418D01*
X171615500Y-39622060D01*
X171615500Y-38608003D01*
X173692435Y-38608003D01*
X173712630Y-38787249D01*
X173712631Y-38787254D01*
X173772211Y-38957523D01*
X173834216Y-39056202D01*
X173868184Y-39110262D01*
X173995738Y-39237816D01*
X174148478Y-39333789D01*
X174318745Y-39393368D01*
X174318744Y-39393368D01*
X174320486Y-39393564D01*
X174327377Y-39394340D01*
X174391792Y-39421403D01*
X174431350Y-39478995D01*
X174437500Y-39517556D01*
X174437500Y-39539334D01*
X174437501Y-39539355D01*
X174447650Y-39638707D01*
X174447651Y-39638710D01*
X174500996Y-39799694D01*
X174501001Y-39799705D01*
X174590029Y-39944040D01*
X174590032Y-39944044D01*
X174709955Y-40063967D01*
X174709959Y-40063970D01*
X174854294Y-40152998D01*
X174854297Y-40152999D01*
X174854303Y-40153003D01*
X175015292Y-40206349D01*
X175114655Y-40216500D01*
X175661344Y-40216499D01*
X175661352Y-40216498D01*
X175661355Y-40216498D01*
X175715760Y-40210940D01*
X175760708Y-40206349D01*
X175921697Y-40153003D01*
X176066044Y-40063968D01*
X176185968Y-39944044D01*
X176275003Y-39799697D01*
X176328349Y-39638708D01*
X176338500Y-39539345D01*
X176338499Y-38692656D01*
X176328349Y-38593292D01*
X176275003Y-38432303D01*
X176274999Y-38432297D01*
X176274998Y-38432294D01*
X176185970Y-38287959D01*
X176185967Y-38287955D01*
X176066044Y-38168032D01*
X176066040Y-38168029D01*
X175921705Y-38079001D01*
X175921699Y-38078998D01*
X175921697Y-38078997D01*
X175921694Y-38078996D01*
X175760709Y-38025651D01*
X175661352Y-38015500D01*
X175661345Y-38015500D01*
X175184360Y-38015500D01*
X175128639Y-38001194D01*
X175128620Y-38001244D01*
X175128224Y-38001087D01*
X175124624Y-38000163D01*
X175121368Y-37998373D01*
X175100801Y-37993092D01*
X175082396Y-37986790D01*
X175062927Y-37978365D01*
X175062921Y-37978363D01*
X175017837Y-37971223D01*
X175006399Y-37968854D01*
X174998640Y-37966862D01*
X174989656Y-37964555D01*
X174954526Y-37949446D01*
X174847523Y-37882211D01*
X174677254Y-37822631D01*
X174677249Y-37822630D01*
X174498004Y-37802435D01*
X174497996Y-37802435D01*
X174318750Y-37822630D01*
X174318745Y-37822631D01*
X174148476Y-37882211D01*
X173995737Y-37978184D01*
X173868184Y-38105737D01*
X173772211Y-38258476D01*
X173712631Y-38428745D01*
X173712630Y-38428750D01*
X173692435Y-38607996D01*
X173692435Y-38608003D01*
X171615500Y-38608003D01*
X171615500Y-37927718D01*
X171632112Y-37865720D01*
X171642179Y-37848284D01*
X171700674Y-37668256D01*
X171720460Y-37480000D01*
X171700674Y-37291744D01*
X171642179Y-37111716D01*
X171547533Y-36947784D01*
X171420871Y-36807112D01*
X171420870Y-36807111D01*
X171267734Y-36695851D01*
X171267729Y-36695848D01*
X171094807Y-36618857D01*
X171094802Y-36618855D01*
X170949001Y-36587865D01*
X170909646Y-36579500D01*
X170720354Y-36579500D01*
X170687897Y-36586398D01*
X170535197Y-36618855D01*
X170535192Y-36618857D01*
X170362270Y-36695848D01*
X170362265Y-36695851D01*
X170209129Y-36807111D01*
X170082466Y-36947785D01*
X169987821Y-37111715D01*
X169987818Y-37111722D01*
X169938796Y-37262598D01*
X169929326Y-37291744D01*
X169909540Y-37480000D01*
X169929326Y-37668256D01*
X169929327Y-37668259D01*
X169987818Y-37848277D01*
X169987819Y-37848279D01*
X169987821Y-37848284D01*
X169997887Y-37865720D01*
X170014500Y-37927718D01*
X170014500Y-40095191D01*
X170014501Y-40095200D01*
X170023017Y-40132518D01*
X170025345Y-40146217D01*
X170029633Y-40184260D01*
X170042271Y-40220380D01*
X170046119Y-40233735D01*
X170054639Y-40271061D01*
X170071250Y-40305554D01*
X170076570Y-40318397D01*
X170089212Y-40354525D01*
X170109572Y-40386927D01*
X170116296Y-40399093D01*
X170132910Y-40433589D01*
X170156771Y-40463510D01*
X170164817Y-40474849D01*
X170185182Y-40507259D01*
X170185184Y-40507262D01*
X171206262Y-41528340D01*
X171236512Y-41577703D01*
X171257818Y-41643277D01*
X171257821Y-41643284D01*
X171352467Y-41807216D01*
X171445017Y-41910003D01*
X171479129Y-41947888D01*
X171632265Y-42059148D01*
X171632270Y-42059151D01*
X171805192Y-42136142D01*
X171805197Y-42136144D01*
X171990354Y-42175500D01*
X171990355Y-42175500D01*
X172179644Y-42175500D01*
X172179646Y-42175500D01*
X172364803Y-42136144D01*
X172450574Y-42097956D01*
X172476931Y-42086221D01*
X172527367Y-42075500D01*
X173594993Y-42075500D01*
X173662032Y-42095185D01*
X173707787Y-42147989D01*
X173717731Y-42217147D01*
X173714113Y-42231945D01*
X173714181Y-42231961D01*
X173712630Y-42238753D01*
X173692435Y-42417996D01*
X173692435Y-42418003D01*
X173712630Y-42597249D01*
X173712631Y-42597254D01*
X173772211Y-42767523D01*
X173826773Y-42854357D01*
X173868184Y-42920262D01*
X173995738Y-43047816D01*
X174148478Y-43143789D01*
X174318745Y-43203368D01*
X174318744Y-43203368D01*
X174320486Y-43203564D01*
X174327377Y-43204340D01*
X174391792Y-43231403D01*
X174431350Y-43288995D01*
X174437500Y-43327556D01*
X174437500Y-43349334D01*
X174437501Y-43349355D01*
X174447650Y-43448707D01*
X174447651Y-43448710D01*
X174500996Y-43609694D01*
X174501001Y-43609705D01*
X174590029Y-43754040D01*
X174590032Y-43754044D01*
X174709955Y-43873967D01*
X174709959Y-43873970D01*
X174854294Y-43962998D01*
X174854297Y-43962999D01*
X174854303Y-43963003D01*
X175015292Y-44016349D01*
X175114655Y-44026500D01*
X175661344Y-44026499D01*
X175661352Y-44026498D01*
X175661355Y-44026498D01*
X175715760Y-44020940D01*
X175760708Y-44016349D01*
X175921697Y-43963003D01*
X176066044Y-43873968D01*
X176185968Y-43754044D01*
X176275003Y-43609697D01*
X176328349Y-43448708D01*
X176338500Y-43349345D01*
X176338499Y-42502656D01*
X176336317Y-42481300D01*
X176328349Y-42403292D01*
X176328348Y-42403289D01*
X176273744Y-42238504D01*
X176271342Y-42168675D01*
X176307074Y-42108634D01*
X176369594Y-42077441D01*
X176391450Y-42075500D01*
X179322060Y-42075500D01*
X179389099Y-42095185D01*
X179409741Y-42111819D01*
X181408181Y-44110259D01*
X181441666Y-44171582D01*
X181444500Y-44197940D01*
X181444500Y-45039781D01*
X181424815Y-45106820D01*
X181385597Y-45145319D01*
X181301347Y-45197285D01*
X181301343Y-45197288D01*
X181177288Y-45321343D01*
X181177285Y-45321347D01*
X181143630Y-45375911D01*
X181091682Y-45422636D01*
X181022720Y-45433857D01*
X180988318Y-45422102D01*
X180987560Y-45423855D01*
X180980394Y-45420754D01*
X180822573Y-45374902D01*
X180822567Y-45374901D01*
X180785701Y-45372000D01*
X180785694Y-45372000D01*
X180627278Y-45372000D01*
X180560239Y-45352315D01*
X180522284Y-45313972D01*
X180501708Y-45281226D01*
X180461816Y-45217738D01*
X180334262Y-45090184D01*
X180302144Y-45070003D01*
X180181523Y-44994211D01*
X180011254Y-44934631D01*
X180011249Y-44934630D01*
X179832004Y-44914435D01*
X179831996Y-44914435D01*
X179652750Y-44934630D01*
X179652745Y-44934631D01*
X179482476Y-44994211D01*
X179329737Y-45090184D01*
X179202184Y-45217737D01*
X179106211Y-45370477D01*
X179069445Y-45475549D01*
X179028723Y-45532325D01*
X178963770Y-45558072D01*
X178895208Y-45544616D01*
X178864722Y-45522275D01*
X178846870Y-45504423D01*
X178846862Y-45504417D01*
X178734833Y-45438164D01*
X178705398Y-45420756D01*
X178705397Y-45420755D01*
X178705396Y-45420755D01*
X178705393Y-45420754D01*
X178547573Y-45374902D01*
X178547567Y-45374901D01*
X178510701Y-45372000D01*
X178510694Y-45372000D01*
X178103308Y-45372000D01*
X178036269Y-45352315D01*
X178015627Y-45335681D01*
X177868102Y-45188156D01*
X177834617Y-45126833D01*
X177832565Y-45114376D01*
X177823368Y-45032745D01*
X177763789Y-44862478D01*
X177758971Y-44854811D01*
X177667815Y-44709737D01*
X177540262Y-44582184D01*
X177387523Y-44486211D01*
X177217254Y-44426631D01*
X177217249Y-44426630D01*
X177038004Y-44406435D01*
X177037996Y-44406435D01*
X176858750Y-44426630D01*
X176858745Y-44426631D01*
X176688476Y-44486211D01*
X176535737Y-44582184D01*
X176408184Y-44709737D01*
X176312211Y-44862476D01*
X176252631Y-45032745D01*
X176252630Y-45032750D01*
X176232435Y-45211996D01*
X176232435Y-45212003D01*
X176252630Y-45391249D01*
X176252631Y-45391254D01*
X176312211Y-45561523D01*
X176403874Y-45707402D01*
X176408184Y-45714262D01*
X176535738Y-45841816D01*
X176688478Y-45937789D01*
X176688483Y-45937792D01*
X176694754Y-45940812D01*
X176693957Y-45942466D01*
X176743219Y-45977788D01*
X176768976Y-46042736D01*
X176769500Y-46054122D01*
X176769500Y-46388201D01*
X176772401Y-46425067D01*
X176772402Y-46425073D01*
X176818254Y-46582893D01*
X176818255Y-46582896D01*
X176901917Y-46724362D01*
X176901923Y-46724370D01*
X177018129Y-46840576D01*
X177018133Y-46840579D01*
X177018135Y-46840581D01*
X177159602Y-46924244D01*
X177170572Y-46927431D01*
X177317426Y-46970097D01*
X177317429Y-46970097D01*
X177317431Y-46970098D01*
X177354306Y-46973000D01*
X177354314Y-46973000D01*
X178510686Y-46973000D01*
X178510694Y-46973000D01*
X178547569Y-46970098D01*
X178547571Y-46970097D01*
X178547573Y-46970097D01*
X178649806Y-46940395D01*
X178705398Y-46924244D01*
X178840891Y-46844114D01*
X178853580Y-46836610D01*
X178854655Y-46838428D01*
X178909532Y-46816881D01*
X178978050Y-46830559D01*
X179028296Y-46879109D01*
X179044500Y-46940395D01*
X179044500Y-47304604D01*
X179024815Y-47371643D01*
X178972011Y-47417398D01*
X178902853Y-47427342D01*
X178854502Y-47406830D01*
X178853580Y-47408390D01*
X178705396Y-47320755D01*
X178705393Y-47320754D01*
X178547573Y-47274902D01*
X178547567Y-47274901D01*
X178510701Y-47272000D01*
X178510694Y-47272000D01*
X177354306Y-47272000D01*
X177354298Y-47272000D01*
X177317432Y-47274901D01*
X177317426Y-47274902D01*
X177159606Y-47320754D01*
X177159603Y-47320755D01*
X177018140Y-47404415D01*
X177018130Y-47404423D01*
X176952604Y-47469948D01*
X176916270Y-47493816D01*
X176916466Y-47494173D01*
X176911939Y-47496661D01*
X176910578Y-47497556D01*
X176909629Y-47497931D01*
X176909626Y-47497933D01*
X176872701Y-47524760D01*
X176862942Y-47531171D01*
X176823632Y-47554420D01*
X176808626Y-47569426D01*
X176793836Y-47582058D01*
X176776667Y-47594532D01*
X176776665Y-47594534D01*
X176747556Y-47629719D01*
X176739696Y-47638356D01*
X176273946Y-48104106D01*
X176212623Y-48137591D01*
X176142931Y-48132607D01*
X176086998Y-48090735D01*
X176068559Y-48055428D01*
X176052714Y-48007611D01*
X176043003Y-47978303D01*
X176042999Y-47978297D01*
X176042998Y-47978294D01*
X175953970Y-47833959D01*
X175953967Y-47833955D01*
X175834044Y-47714032D01*
X175834040Y-47714029D01*
X175689705Y-47625001D01*
X175689699Y-47624998D01*
X175689697Y-47624997D01*
X175606716Y-47597500D01*
X175528709Y-47571651D01*
X175429346Y-47561500D01*
X174582662Y-47561500D01*
X174582644Y-47561501D01*
X174483292Y-47571650D01*
X174483289Y-47571651D01*
X174322305Y-47624996D01*
X174322294Y-47625001D01*
X174177959Y-47714029D01*
X174177955Y-47714032D01*
X174058032Y-47833955D01*
X174058029Y-47833959D01*
X173969001Y-47978294D01*
X173968996Y-47978305D01*
X173915651Y-48139290D01*
X173906122Y-48232561D01*
X173879725Y-48297253D01*
X173848737Y-48324951D01*
X173741739Y-48392182D01*
X173614184Y-48519737D01*
X173614182Y-48519740D01*
X173539492Y-48638607D01*
X173487157Y-48684898D01*
X173418104Y-48695545D01*
X173354255Y-48667170D01*
X173315884Y-48608779D01*
X173310499Y-48572638D01*
X173310499Y-48238656D01*
X173309876Y-48232561D01*
X173300349Y-48139292D01*
X173300348Y-48139289D01*
X173295392Y-48124334D01*
X173247003Y-47978303D01*
X173246999Y-47978297D01*
X173246998Y-47978294D01*
X173157970Y-47833959D01*
X173157967Y-47833955D01*
X173038044Y-47714032D01*
X173038040Y-47714029D01*
X172893705Y-47625001D01*
X172893699Y-47624998D01*
X172893697Y-47624997D01*
X172810716Y-47597500D01*
X172732709Y-47571651D01*
X172633352Y-47561500D01*
X172633345Y-47561500D01*
X171878676Y-47561500D01*
X171812705Y-47542494D01*
X171799520Y-47534209D01*
X171629262Y-47474633D01*
X171629249Y-47474630D01*
X171450004Y-47454435D01*
X171449996Y-47454435D01*
X171270750Y-47474630D01*
X171270745Y-47474631D01*
X171100476Y-47534211D01*
X170947737Y-47630184D01*
X170820184Y-47757737D01*
X170724211Y-47910476D01*
X170664631Y-48080745D01*
X170664630Y-48080750D01*
X170644435Y-48259996D01*
X170644435Y-48260003D01*
X170664630Y-48439249D01*
X170664632Y-48439257D01*
X170669121Y-48452085D01*
X170672682Y-48521864D01*
X170637953Y-48582491D01*
X170575960Y-48614718D01*
X170506384Y-48608313D01*
X170464398Y-48580720D01*
X168751862Y-46868184D01*
X168751859Y-46868182D01*
X168719449Y-46847817D01*
X168708110Y-46839771D01*
X168678189Y-46815910D01*
X168643693Y-46799296D01*
X168631527Y-46792572D01*
X168599124Y-46772212D01*
X168599125Y-46772212D01*
X168591666Y-46769602D01*
X168562993Y-46759568D01*
X168550154Y-46754250D01*
X168515659Y-46737639D01*
X168501411Y-46734386D01*
X168440435Y-46700274D01*
X168407581Y-46638610D01*
X168411969Y-46572544D01*
X168425368Y-46534255D01*
X168427550Y-46514890D01*
X168445565Y-46355003D01*
X168445565Y-46354996D01*
X168425369Y-46175750D01*
X168425368Y-46175745D01*
X168365788Y-46005476D01*
X168325157Y-45940812D01*
X168269816Y-45852738D01*
X168142262Y-45725184D01*
X168123385Y-45713323D01*
X167989523Y-45629211D01*
X167819254Y-45569631D01*
X167819249Y-45569630D01*
X167640004Y-45549435D01*
X167639996Y-45549435D01*
X167460750Y-45569630D01*
X167460737Y-45569633D01*
X167290481Y-45629209D01*
X167290477Y-45629210D01*
X167200904Y-45685494D01*
X167134932Y-45704500D01*
X163280505Y-45704500D01*
X163264494Y-45702732D01*
X163264472Y-45702974D01*
X163256705Y-45702240D01*
X163256704Y-45702240D01*
X163186738Y-45704439D01*
X163182843Y-45704500D01*
X163154075Y-45704500D01*
X163154072Y-45704500D01*
X163154057Y-45704501D01*
X163149687Y-45705053D01*
X163138059Y-45705968D01*
X163092435Y-45707402D01*
X163092425Y-45707404D01*
X163072049Y-45713323D01*
X163053008Y-45717266D01*
X163031953Y-45719926D01*
X163031937Y-45719930D01*
X162989486Y-45736737D01*
X162978440Y-45740519D01*
X162934599Y-45753256D01*
X162916327Y-45764062D01*
X162898861Y-45772619D01*
X162879128Y-45780432D01*
X162842193Y-45807266D01*
X162832434Y-45813676D01*
X162793132Y-45836920D01*
X162778126Y-45851926D01*
X162763336Y-45864558D01*
X162746167Y-45877032D01*
X162746165Y-45877034D01*
X162717056Y-45912219D01*
X162709196Y-45920856D01*
X161551775Y-47078277D01*
X161490452Y-47111762D01*
X161477988Y-47113815D01*
X161470752Y-47114630D01*
X161470744Y-47114632D01*
X161300478Y-47174210D01*
X161147737Y-47270184D01*
X161020184Y-47397737D01*
X160924210Y-47550478D01*
X160864632Y-47720744D01*
X160864630Y-47720752D01*
X160863815Y-47727988D01*
X160836743Y-47792400D01*
X160828277Y-47801775D01*
X159127181Y-49502872D01*
X159065858Y-49536357D01*
X158996166Y-49531373D01*
X158940233Y-49489501D01*
X158915816Y-49424037D01*
X158915500Y-49415191D01*
X158915500Y-44897718D01*
X158932112Y-44835720D01*
X158942179Y-44818284D01*
X158963488Y-44752700D01*
X158993734Y-44703342D01*
X159619144Y-44077932D01*
X159680466Y-44044449D01*
X159750158Y-44049433D01*
X159771920Y-44060076D01*
X159860659Y-44114810D01*
X159860660Y-44114810D01*
X159860666Y-44114814D01*
X160027203Y-44169999D01*
X160129991Y-44180500D01*
X161180008Y-44180499D01*
X161180016Y-44180498D01*
X161180019Y-44180498D01*
X161267300Y-44171582D01*
X161282797Y-44169999D01*
X161449334Y-44114814D01*
X161598656Y-44022712D01*
X161604549Y-44016819D01*
X161665872Y-43983334D01*
X161692230Y-43980500D01*
X165165633Y-43980500D01*
X165216069Y-43991221D01*
X165328192Y-44041142D01*
X165328197Y-44041144D01*
X165513354Y-44080500D01*
X165513355Y-44080500D01*
X165702644Y-44080500D01*
X165702646Y-44080500D01*
X165887803Y-44041144D01*
X166060730Y-43964151D01*
X166213871Y-43852888D01*
X166340533Y-43712216D01*
X166435179Y-43548284D01*
X166493674Y-43368256D01*
X166513460Y-43180000D01*
X166493674Y-42991744D01*
X166435179Y-42811716D01*
X166340533Y-42647784D01*
X166213871Y-42507112D01*
X166207738Y-42502656D01*
X166060734Y-42395851D01*
X166060729Y-42395848D01*
X165887807Y-42318857D01*
X165887802Y-42318855D01*
X165742001Y-42287865D01*
X165702646Y-42279500D01*
X165513354Y-42279500D01*
X165480897Y-42286398D01*
X165328197Y-42318855D01*
X165328192Y-42318857D01*
X165216069Y-42368779D01*
X165165633Y-42379500D01*
X161692230Y-42379500D01*
X161625191Y-42359815D01*
X161604549Y-42343181D01*
X161598657Y-42337289D01*
X161598656Y-42337288D01*
X161472578Y-42259523D01*
X161449336Y-42245187D01*
X161449331Y-42245185D01*
X161440634Y-42242303D01*
X161282797Y-42190001D01*
X161282795Y-42190000D01*
X161180010Y-42179500D01*
X160129998Y-42179500D01*
X160129980Y-42179501D01*
X160027203Y-42190000D01*
X160027200Y-42190001D01*
X159860668Y-42245185D01*
X159860663Y-42245187D01*
X159711342Y-42337289D01*
X159705451Y-42343181D01*
X159644128Y-42376666D01*
X159617770Y-42379500D01*
X159475194Y-42379500D01*
X159294806Y-42379500D01*
X159287334Y-42381205D01*
X159257478Y-42388018D01*
X159243781Y-42390345D01*
X159205743Y-42394632D01*
X159169622Y-42407271D01*
X159156269Y-42411118D01*
X159118939Y-42419639D01*
X159084452Y-42436247D01*
X159071613Y-42441565D01*
X159035483Y-42454208D01*
X159035476Y-42454212D01*
X159003064Y-42474577D01*
X158990900Y-42481300D01*
X158956410Y-42497910D01*
X158926488Y-42521772D01*
X158915152Y-42529816D01*
X158882739Y-42550183D01*
X158882735Y-42550186D01*
X158850748Y-42582174D01*
X157867433Y-43565487D01*
X157830189Y-43591085D01*
X157662267Y-43665850D01*
X157662265Y-43665851D01*
X157509129Y-43777111D01*
X157382466Y-43917785D01*
X157287821Y-44081715D01*
X157287818Y-44081722D01*
X157250057Y-44197940D01*
X157229326Y-44261744D01*
X157209540Y-44450000D01*
X157229326Y-44638256D01*
X157229327Y-44638259D01*
X157287818Y-44818277D01*
X157287819Y-44818279D01*
X157287821Y-44818284D01*
X157297887Y-44835720D01*
X157314500Y-44897718D01*
X157314500Y-46280273D01*
X157294815Y-46347312D01*
X157242011Y-46393067D01*
X157172853Y-46403011D01*
X157155906Y-46399350D01*
X157097567Y-46382401D01*
X157060701Y-46379500D01*
X157060694Y-46379500D01*
X156984500Y-46379500D01*
X156917461Y-46359815D01*
X156871706Y-46307011D01*
X156860500Y-46255500D01*
X156860500Y-46210067D01*
X156879507Y-46144094D01*
X156935788Y-46054524D01*
X156945673Y-46026274D01*
X156995368Y-45884255D01*
X156995482Y-45883246D01*
X157015565Y-45705003D01*
X157015565Y-45704996D01*
X156995369Y-45525750D01*
X156995368Y-45525745D01*
X156987905Y-45504417D01*
X156935789Y-45355478D01*
X156839816Y-45202738D01*
X156712262Y-45075184D01*
X156709591Y-45073506D01*
X156559523Y-44979211D01*
X156389254Y-44919631D01*
X156389249Y-44919630D01*
X156210004Y-44899435D01*
X156209996Y-44899435D01*
X156030750Y-44919630D01*
X156030745Y-44919631D01*
X155860476Y-44979211D01*
X155707737Y-45075184D01*
X155580181Y-45202740D01*
X155577778Y-45206566D01*
X155525440Y-45252853D01*
X155456385Y-45263496D01*
X155393751Y-45236132D01*
X155382783Y-45227059D01*
X155374140Y-45219194D01*
X155126722Y-44971776D01*
X155093237Y-44910453D01*
X155091182Y-44897973D01*
X155090368Y-44890745D01*
X155030789Y-44720478D01*
X155020020Y-44703340D01*
X154943893Y-44582184D01*
X154934816Y-44567738D01*
X154807262Y-44440184D01*
X154753551Y-44406435D01*
X154654523Y-44344211D01*
X154484254Y-44284631D01*
X154484249Y-44284630D01*
X154305004Y-44264435D01*
X154304996Y-44264435D01*
X154125750Y-44284630D01*
X154125745Y-44284631D01*
X153955476Y-44344211D01*
X153802737Y-44440184D01*
X153675184Y-44567737D01*
X153579211Y-44720476D01*
X153519631Y-44890745D01*
X153519630Y-44890750D01*
X153499435Y-45069996D01*
X153499435Y-45070003D01*
X153519630Y-45249249D01*
X153519631Y-45249254D01*
X153579211Y-45419523D01*
X153657813Y-45544616D01*
X153675184Y-45572262D01*
X153802738Y-45699816D01*
X153883401Y-45750500D01*
X153912886Y-45769027D01*
X153955478Y-45795789D01*
X154125745Y-45855368D01*
X154132974Y-45856182D01*
X154197388Y-45883246D01*
X154206776Y-45891722D01*
X154253181Y-45938127D01*
X154286666Y-45999450D01*
X154289500Y-46025808D01*
X154289500Y-46255500D01*
X154269815Y-46322539D01*
X154217011Y-46368294D01*
X154165500Y-46379500D01*
X154089298Y-46379500D01*
X154052432Y-46382401D01*
X154052426Y-46382402D01*
X153894606Y-46428254D01*
X153894603Y-46428255D01*
X153753137Y-46511917D01*
X153746969Y-46516702D01*
X153745072Y-46514256D01*
X153696358Y-46540857D01*
X153626666Y-46535873D01*
X153594296Y-46515069D01*
X153593031Y-46516702D01*
X153586862Y-46511917D01*
X153496431Y-46458437D01*
X153445398Y-46428256D01*
X153445397Y-46428255D01*
X153445396Y-46428255D01*
X153445393Y-46428254D01*
X153287573Y-46382402D01*
X153287567Y-46382401D01*
X153250701Y-46379500D01*
X153250694Y-46379500D01*
X152819306Y-46379500D01*
X152819298Y-46379500D01*
X152782432Y-46382401D01*
X152782426Y-46382402D01*
X152624606Y-46428254D01*
X152624603Y-46428255D01*
X152483137Y-46511917D01*
X152476969Y-46516702D01*
X152475072Y-46514256D01*
X152426358Y-46540857D01*
X152356666Y-46535873D01*
X152324296Y-46515069D01*
X152323031Y-46516702D01*
X152316862Y-46511917D01*
X152226431Y-46458437D01*
X152175398Y-46428256D01*
X152175397Y-46428255D01*
X152175396Y-46428255D01*
X152175393Y-46428254D01*
X152017573Y-46382402D01*
X152017567Y-46382401D01*
X151980701Y-46379500D01*
X151980694Y-46379500D01*
X151549306Y-46379500D01*
X151549298Y-46379500D01*
X151512432Y-46382401D01*
X151512426Y-46382402D01*
X151354606Y-46428254D01*
X151354603Y-46428255D01*
X151213137Y-46511917D01*
X151206969Y-46516702D01*
X151205072Y-46514256D01*
X151156358Y-46540857D01*
X151086666Y-46535873D01*
X151054296Y-46515069D01*
X151053031Y-46516702D01*
X151046862Y-46511917D01*
X150956431Y-46458437D01*
X150905398Y-46428256D01*
X150905397Y-46428255D01*
X150905396Y-46428255D01*
X150905393Y-46428254D01*
X150747573Y-46382402D01*
X150747567Y-46382401D01*
X150710701Y-46379500D01*
X150710694Y-46379500D01*
X150279306Y-46379500D01*
X150279298Y-46379500D01*
X150242432Y-46382401D01*
X150242426Y-46382402D01*
X150084606Y-46428254D01*
X150084603Y-46428255D01*
X149943137Y-46511917D01*
X149936969Y-46516702D01*
X149935072Y-46514256D01*
X149886358Y-46540857D01*
X149816666Y-46535873D01*
X149784296Y-46515069D01*
X149783031Y-46516702D01*
X149776862Y-46511917D01*
X149686431Y-46458437D01*
X149635398Y-46428256D01*
X149635397Y-46428255D01*
X149635396Y-46428255D01*
X149635393Y-46428254D01*
X149477573Y-46382402D01*
X149477567Y-46382401D01*
X149440701Y-46379500D01*
X149440694Y-46379500D01*
X149009306Y-46379500D01*
X149009298Y-46379500D01*
X148972432Y-46382401D01*
X148972426Y-46382402D01*
X148814606Y-46428254D01*
X148814601Y-46428256D01*
X148792619Y-46441256D01*
X148724895Y-46458437D01*
X148658633Y-46436277D01*
X148614870Y-46381810D01*
X148605500Y-46334523D01*
X148605500Y-41540502D01*
X148607268Y-41524489D01*
X148607026Y-41524467D01*
X148607758Y-41516711D01*
X148607760Y-41516704D01*
X148605561Y-41446736D01*
X148605500Y-41442841D01*
X148605500Y-41414077D01*
X148605499Y-41414070D01*
X148604949Y-41409716D01*
X148604030Y-41398054D01*
X148602597Y-41352431D01*
X148596676Y-41332053D01*
X148592731Y-41313004D01*
X148590071Y-41291942D01*
X148573263Y-41249491D01*
X148569480Y-41238442D01*
X148556743Y-41194600D01*
X148545940Y-41176334D01*
X148537378Y-41158856D01*
X148529568Y-41139129D01*
X148529565Y-41139125D01*
X148502730Y-41102189D01*
X148496331Y-41092448D01*
X148473081Y-41053135D01*
X148473079Y-41053133D01*
X148473078Y-41053131D01*
X148458075Y-41038129D01*
X148445435Y-41023330D01*
X148432961Y-41006160D01*
X148397780Y-40977056D01*
X148389140Y-40969194D01*
X147762127Y-40342181D01*
X147728642Y-40280858D01*
X147733626Y-40211166D01*
X147775498Y-40155233D01*
X147840962Y-40130816D01*
X147849808Y-40130500D01*
X148170686Y-40130500D01*
X148170694Y-40130500D01*
X148207569Y-40127598D01*
X148207571Y-40127597D01*
X148207573Y-40127597D01*
X148249191Y-40115505D01*
X148365398Y-40081744D01*
X148506865Y-39998081D01*
X148506870Y-39998075D01*
X148513031Y-39993298D01*
X148514933Y-39995750D01*
X148563579Y-39969155D01*
X148633274Y-39974104D01*
X148665695Y-39994940D01*
X148666969Y-39993298D01*
X148673132Y-39998078D01*
X148673135Y-39998081D01*
X148814602Y-40081744D01*
X148814609Y-40081746D01*
X148972426Y-40127597D01*
X148972429Y-40127597D01*
X148972431Y-40127598D01*
X149009306Y-40130500D01*
X149009314Y-40130500D01*
X149440686Y-40130500D01*
X149440694Y-40130500D01*
X149477569Y-40127598D01*
X149477571Y-40127597D01*
X149477573Y-40127597D01*
X149519191Y-40115505D01*
X149635398Y-40081744D01*
X149776865Y-39998081D01*
X149776870Y-39998075D01*
X149783031Y-39993298D01*
X149784933Y-39995750D01*
X149833579Y-39969155D01*
X149903274Y-39974104D01*
X149935695Y-39994940D01*
X149936969Y-39993298D01*
X149943132Y-39998078D01*
X149943135Y-39998081D01*
X150084602Y-40081744D01*
X150084609Y-40081746D01*
X150242426Y-40127597D01*
X150242429Y-40127597D01*
X150242431Y-40127598D01*
X150279306Y-40130500D01*
X150279314Y-40130500D01*
X150710686Y-40130500D01*
X150710694Y-40130500D01*
X150747569Y-40127598D01*
X150747571Y-40127597D01*
X150747573Y-40127597D01*
X150789191Y-40115505D01*
X150905398Y-40081744D01*
X151046865Y-39998081D01*
X151046870Y-39998075D01*
X151053031Y-39993298D01*
X151054933Y-39995750D01*
X151103579Y-39969155D01*
X151173274Y-39974104D01*
X151205695Y-39994940D01*
X151206969Y-39993298D01*
X151213132Y-39998078D01*
X151213135Y-39998081D01*
X151354602Y-40081744D01*
X151354609Y-40081746D01*
X151512426Y-40127597D01*
X151512429Y-40127597D01*
X151512431Y-40127598D01*
X151549306Y-40130500D01*
X151549314Y-40130500D01*
X151980686Y-40130500D01*
X151980694Y-40130500D01*
X152017569Y-40127598D01*
X152017571Y-40127597D01*
X152017573Y-40127597D01*
X152059191Y-40115505D01*
X152175398Y-40081744D01*
X152316865Y-39998081D01*
X152316870Y-39998075D01*
X152323031Y-39993298D01*
X152324933Y-39995750D01*
X152373579Y-39969155D01*
X152443274Y-39974104D01*
X152475695Y-39994940D01*
X152476969Y-39993298D01*
X152483132Y-39998078D01*
X152483135Y-39998081D01*
X152624602Y-40081744D01*
X152624609Y-40081746D01*
X152782426Y-40127597D01*
X152782429Y-40127597D01*
X152782431Y-40127598D01*
X152819306Y-40130500D01*
X152819314Y-40130500D01*
X153250686Y-40130500D01*
X153250694Y-40130500D01*
X153287569Y-40127598D01*
X153287571Y-40127597D01*
X153287573Y-40127597D01*
X153329191Y-40115505D01*
X153445398Y-40081744D01*
X153586865Y-39998081D01*
X153586870Y-39998075D01*
X153593031Y-39993298D01*
X153594933Y-39995750D01*
X153643579Y-39969155D01*
X153713274Y-39974104D01*
X153745695Y-39994940D01*
X153746969Y-39993298D01*
X153753132Y-39998078D01*
X153753135Y-39998081D01*
X153894602Y-40081744D01*
X153894609Y-40081746D01*
X154052426Y-40127597D01*
X154052429Y-40127597D01*
X154052431Y-40127598D01*
X154089306Y-40130500D01*
X154089314Y-40130500D01*
X154520686Y-40130500D01*
X154520694Y-40130500D01*
X154557569Y-40127598D01*
X154557571Y-40127597D01*
X154557573Y-40127597D01*
X154599191Y-40115505D01*
X154715398Y-40081744D01*
X154856865Y-39998081D01*
X154856870Y-39998075D01*
X154863031Y-39993298D01*
X154864933Y-39995750D01*
X154913579Y-39969155D01*
X154983274Y-39974104D01*
X155015695Y-39994940D01*
X155016969Y-39993298D01*
X155023132Y-39998078D01*
X155023135Y-39998081D01*
X155164602Y-40081744D01*
X155164609Y-40081746D01*
X155322426Y-40127597D01*
X155322429Y-40127597D01*
X155322431Y-40127598D01*
X155359306Y-40130500D01*
X155359314Y-40130500D01*
X155790686Y-40130500D01*
X155790694Y-40130500D01*
X155827569Y-40127598D01*
X155827571Y-40127597D01*
X155827573Y-40127597D01*
X155985392Y-40081746D01*
X155985392Y-40081745D01*
X155985398Y-40081744D01*
X156007381Y-40068743D01*
X156075102Y-40051561D01*
X156141365Y-40073720D01*
X156185128Y-40128186D01*
X156194500Y-40175476D01*
X156194500Y-40994190D01*
X156174815Y-41061229D01*
X156158174Y-41081878D01*
X156151767Y-41088284D01*
X156090442Y-41121764D01*
X156077988Y-41123815D01*
X156070752Y-41124630D01*
X156070744Y-41124632D01*
X155900478Y-41184210D01*
X155747737Y-41280184D01*
X155620184Y-41407737D01*
X155524211Y-41560476D01*
X155464631Y-41730745D01*
X155464630Y-41730750D01*
X155444435Y-41909996D01*
X155444435Y-41910003D01*
X155464630Y-42089249D01*
X155464631Y-42089254D01*
X155524211Y-42259523D01*
X155599598Y-42379500D01*
X155620184Y-42412262D01*
X155747738Y-42539816D01*
X155900478Y-42635789D01*
X155934758Y-42647784D01*
X156070745Y-42695368D01*
X156070750Y-42695369D01*
X156249996Y-42715565D01*
X156250000Y-42715565D01*
X156250004Y-42715565D01*
X156429249Y-42695369D01*
X156429252Y-42695368D01*
X156429255Y-42695368D01*
X156599522Y-42635789D01*
X156752262Y-42539816D01*
X156879816Y-42412262D01*
X156975789Y-42259522D01*
X157035368Y-42089255D01*
X157036182Y-42082025D01*
X157063245Y-42017611D01*
X157071712Y-42008232D01*
X157244513Y-41835431D01*
X157257079Y-41825365D01*
X157256925Y-41825178D01*
X157262933Y-41820205D01*
X157262940Y-41820202D01*
X157286227Y-41795402D01*
X157310865Y-41769167D01*
X157313578Y-41766367D01*
X157333911Y-41746035D01*
X157336606Y-41742560D01*
X157344199Y-41733669D01*
X157363681Y-41712923D01*
X157375448Y-41700393D01*
X157385674Y-41681790D01*
X157396353Y-41665533D01*
X157409362Y-41648764D01*
X157427498Y-41606850D01*
X157432620Y-41596395D01*
X157454627Y-41556368D01*
X157459907Y-41535802D01*
X157466209Y-41517395D01*
X157474635Y-41497926D01*
X157481777Y-41452824D01*
X157484145Y-41441397D01*
X157492788Y-41407737D01*
X157495500Y-41397177D01*
X157495500Y-41375955D01*
X157497027Y-41356555D01*
X157497680Y-41352430D01*
X157500347Y-41335595D01*
X157496050Y-41290140D01*
X157495500Y-41278470D01*
X157495500Y-39945515D01*
X157512768Y-39882394D01*
X157530958Y-39851636D01*
X157596744Y-39740398D01*
X157642598Y-39582569D01*
X157645500Y-39545694D01*
X157645500Y-37664306D01*
X157642598Y-37627431D01*
X157596744Y-37469602D01*
X157513081Y-37328135D01*
X157513079Y-37328133D01*
X157513076Y-37328129D01*
X157396870Y-37211923D01*
X157396862Y-37211917D01*
X157255396Y-37128255D01*
X157255393Y-37128254D01*
X157091485Y-37080634D01*
X157092275Y-37077914D01*
X157040846Y-37052031D01*
X157005324Y-36991865D01*
X157002318Y-36947576D01*
X157015565Y-36830003D01*
X157015565Y-36829996D01*
X156995369Y-36650750D01*
X156995368Y-36650745D01*
X156935788Y-36480476D01*
X156896582Y-36418080D01*
X156839816Y-36327738D01*
X156712262Y-36200184D01*
X156559523Y-36104211D01*
X156389254Y-36044631D01*
X156389249Y-36044630D01*
X156210000Y-36024434D01*
X156030750Y-36044630D01*
X156030745Y-36044631D01*
X155860476Y-36104211D01*
X155707737Y-36200184D01*
X155662680Y-36245241D01*
X155601357Y-36278725D01*
X155531665Y-36273740D01*
X155487320Y-36245241D01*
X155442263Y-36200185D01*
X155442262Y-36200184D01*
X155289523Y-36104211D01*
X155119254Y-36044631D01*
X155119249Y-36044630D01*
X154940000Y-36024434D01*
X154760750Y-36044630D01*
X154760745Y-36044631D01*
X154590476Y-36104211D01*
X154437737Y-36200184D01*
X154392680Y-36245241D01*
X154331357Y-36278725D01*
X154261665Y-36273740D01*
X154217320Y-36245241D01*
X154172263Y-36200185D01*
X154172262Y-36200184D01*
X154019523Y-36104211D01*
X153849254Y-36044631D01*
X153849249Y-36044630D01*
X153670000Y-36024434D01*
X153490750Y-36044630D01*
X153490745Y-36044631D01*
X153320476Y-36104211D01*
X153167737Y-36200184D01*
X153122680Y-36245241D01*
X153061357Y-36278725D01*
X152991665Y-36273740D01*
X152947320Y-36245241D01*
X152902263Y-36200185D01*
X152902262Y-36200184D01*
X152749523Y-36104211D01*
X152579254Y-36044631D01*
X152579249Y-36044630D01*
X152400000Y-36024434D01*
X152220750Y-36044630D01*
X152220745Y-36044631D01*
X152050476Y-36104211D01*
X151897737Y-36200184D01*
X151852680Y-36245241D01*
X151791357Y-36278725D01*
X151721665Y-36273740D01*
X151677320Y-36245241D01*
X151632263Y-36200185D01*
X151632262Y-36200184D01*
X151479523Y-36104211D01*
X151309254Y-36044631D01*
X151309249Y-36044630D01*
X151130000Y-36024434D01*
X150950750Y-36044630D01*
X150950745Y-36044631D01*
X150780476Y-36104211D01*
X150627737Y-36200184D01*
X150582680Y-36245241D01*
X150521357Y-36278725D01*
X150451665Y-36273740D01*
X150407320Y-36245241D01*
X150362263Y-36200185D01*
X150362262Y-36200184D01*
X150209523Y-36104211D01*
X150039254Y-36044631D01*
X150039249Y-36044630D01*
X149860000Y-36024434D01*
X149680750Y-36044630D01*
X149680745Y-36044631D01*
X149510476Y-36104211D01*
X149357737Y-36200184D01*
X149312680Y-36245241D01*
X149251357Y-36278725D01*
X149181665Y-36273740D01*
X149137320Y-36245241D01*
X149092263Y-36200185D01*
X149092262Y-36200184D01*
X148939523Y-36104211D01*
X148769254Y-36044631D01*
X148769249Y-36044630D01*
X148590000Y-36024434D01*
X148410750Y-36044630D01*
X148410745Y-36044631D01*
X148240476Y-36104211D01*
X148087737Y-36200184D01*
X147960184Y-36327737D01*
X147864210Y-36480478D01*
X147804632Y-36650744D01*
X147804630Y-36650752D01*
X147803815Y-36657988D01*
X147776743Y-36722400D01*
X147768277Y-36731775D01*
X147555483Y-36944569D01*
X147542910Y-36954643D01*
X147543065Y-36954830D01*
X147537058Y-36959799D01*
X147489133Y-37010833D01*
X147486427Y-37013625D01*
X147466090Y-37033963D01*
X147466077Y-37033978D01*
X147463373Y-37037463D01*
X147455806Y-37046322D01*
X147424552Y-37079607D01*
X147414322Y-37098213D01*
X147403646Y-37114464D01*
X147390640Y-37131232D01*
X147390636Y-37131238D01*
X147372508Y-37173130D01*
X147367369Y-37183619D01*
X147345373Y-37223628D01*
X147340090Y-37244203D01*
X147333791Y-37262598D01*
X147328952Y-37273782D01*
X147302831Y-37312221D01*
X147286920Y-37328131D01*
X147286919Y-37328133D01*
X147203255Y-37469603D01*
X147203254Y-37469606D01*
X147157402Y-37627426D01*
X147157401Y-37627432D01*
X147154500Y-37664298D01*
X147154500Y-39050046D01*
X147134815Y-39117085D01*
X147082011Y-39162840D01*
X147012853Y-39172784D01*
X146955519Y-39146600D01*
X146954645Y-39147768D01*
X146832335Y-39056206D01*
X146832328Y-39056202D01*
X146697482Y-39005908D01*
X146697483Y-39005908D01*
X146637883Y-38999501D01*
X146637881Y-38999500D01*
X146637873Y-38999500D01*
X146637864Y-38999500D01*
X143542129Y-38999500D01*
X143542123Y-38999501D01*
X143482516Y-39005908D01*
X143347671Y-39056202D01*
X143347664Y-39056206D01*
X143232455Y-39142452D01*
X143232452Y-39142455D01*
X143146206Y-39257664D01*
X143146202Y-39257671D01*
X143095908Y-39392517D01*
X143089501Y-39452116D01*
X143089500Y-39452135D01*
X143089500Y-41547870D01*
X143089501Y-41547876D01*
X143095908Y-41607483D01*
X143146202Y-41742328D01*
X143146206Y-41742335D01*
X143232452Y-41857544D01*
X143232455Y-41857547D01*
X143347664Y-41943793D01*
X143347671Y-41943797D01*
X143482517Y-41994091D01*
X143482516Y-41994091D01*
X143489444Y-41994835D01*
X143542127Y-42000500D01*
X146637872Y-42000499D01*
X146697483Y-41994091D01*
X146832331Y-41943796D01*
X146947546Y-41857546D01*
X147033796Y-41742331D01*
X147033798Y-41742326D01*
X147044765Y-41712923D01*
X147086636Y-41656989D01*
X147152100Y-41632571D01*
X147220373Y-41647422D01*
X147248628Y-41668574D01*
X147268181Y-41688127D01*
X147301666Y-41749450D01*
X147304500Y-41775808D01*
X147304500Y-43911634D01*
X147284815Y-43978673D01*
X147232011Y-44024428D01*
X147162853Y-44034372D01*
X147099297Y-44005347D01*
X147061523Y-43946569D01*
X147058191Y-43932043D01*
X147049570Y-43880383D01*
X147014117Y-43777112D01*
X146968828Y-43645190D01*
X146949624Y-43609705D01*
X146898082Y-43514463D01*
X146850474Y-43426491D01*
X146697738Y-43230256D01*
X146514785Y-43061836D01*
X146514782Y-43061833D01*
X146306606Y-42925826D01*
X146078881Y-42825936D01*
X145837824Y-42764892D01*
X145837813Y-42764890D01*
X145652077Y-42749500D01*
X145652067Y-42749500D01*
X144527933Y-42749500D01*
X144527922Y-42749500D01*
X144342186Y-42764890D01*
X144342175Y-42764892D01*
X144101118Y-42825936D01*
X143873393Y-42925826D01*
X143665217Y-43061833D01*
X143482261Y-43230257D01*
X143329524Y-43426493D01*
X143211172Y-43645188D01*
X143211169Y-43645197D01*
X143130429Y-43880383D01*
X143096834Y-44081715D01*
X143089500Y-44125665D01*
X143089500Y-44374335D01*
X143098227Y-44426632D01*
X143130429Y-44619616D01*
X143211169Y-44854802D01*
X143211172Y-44854811D01*
X143329524Y-45073506D01*
X143329526Y-45073509D01*
X143482262Y-45269744D01*
X143621628Y-45398039D01*
X143665217Y-45438166D01*
X143873393Y-45574173D01*
X144101118Y-45674063D01*
X144282519Y-45720000D01*
X144342179Y-45735108D01*
X144342181Y-45735108D01*
X144342186Y-45735109D01*
X144495589Y-45747819D01*
X144527933Y-45750500D01*
X144527937Y-45750500D01*
X145652063Y-45750500D01*
X145652067Y-45750500D01*
X145714677Y-45745311D01*
X145837813Y-45735109D01*
X145837816Y-45735108D01*
X145837821Y-45735108D01*
X146078881Y-45674063D01*
X146306607Y-45574173D01*
X146514785Y-45438164D01*
X146697738Y-45269744D01*
X146850474Y-45073509D01*
X146968828Y-44854810D01*
X147049571Y-44619614D01*
X147058191Y-44567955D01*
X147088641Y-44505071D01*
X147148256Y-44468631D01*
X147218108Y-44470205D01*
X147276019Y-44509295D01*
X147303604Y-44573489D01*
X147304500Y-44588365D01*
X147304500Y-46564484D01*
X147287232Y-46627605D01*
X147203255Y-46769603D01*
X147203254Y-46769606D01*
X147157402Y-46927426D01*
X147157401Y-46927432D01*
X147154500Y-46964298D01*
X147154500Y-47248616D01*
X147134815Y-47315655D01*
X147082011Y-47361410D01*
X147012853Y-47371354D01*
X146949297Y-47342329D01*
X146921445Y-47307634D01*
X146850475Y-47176493D01*
X146850474Y-47176491D01*
X146697738Y-46980256D01*
X146549848Y-46844114D01*
X146514782Y-46811833D01*
X146306606Y-46675826D01*
X146078881Y-46575936D01*
X145837824Y-46514892D01*
X145837813Y-46514890D01*
X145652077Y-46499500D01*
X145652067Y-46499500D01*
X144527933Y-46499500D01*
X144527922Y-46499500D01*
X144342186Y-46514890D01*
X144342175Y-46514892D01*
X144101118Y-46575936D01*
X143873393Y-46675826D01*
X143665217Y-46811833D01*
X143482261Y-46980257D01*
X143329524Y-47176493D01*
X143211172Y-47395188D01*
X143211169Y-47395197D01*
X143130429Y-47630383D01*
X143105342Y-47780729D01*
X143089500Y-47875665D01*
X143089500Y-48124335D01*
X143091996Y-48139292D01*
X143130429Y-48369616D01*
X143211169Y-48604802D01*
X143211172Y-48604811D01*
X143329524Y-48823506D01*
X143329526Y-48823509D01*
X143482262Y-49019744D01*
X143583848Y-49113260D01*
X143665217Y-49188166D01*
X143873393Y-49324173D01*
X144101118Y-49424063D01*
X144295396Y-49473261D01*
X144342179Y-49485108D01*
X144342181Y-49485108D01*
X144342186Y-49485109D01*
X144495589Y-49497819D01*
X144527933Y-49500500D01*
X144527937Y-49500500D01*
X145619192Y-49500500D01*
X145686231Y-49520185D01*
X145706873Y-49536819D01*
X146099564Y-49929509D01*
X146109640Y-49942086D01*
X146109827Y-49941932D01*
X146114794Y-49947937D01*
X146165847Y-49995878D01*
X146168647Y-49998592D01*
X146188962Y-50018908D01*
X146192439Y-50021605D01*
X146201320Y-50029190D01*
X146234607Y-50060448D01*
X146241517Y-50064247D01*
X146253207Y-50070674D01*
X146269468Y-50081355D01*
X146286237Y-50094363D01*
X146328144Y-50112497D01*
X146338618Y-50117628D01*
X146378632Y-50139627D01*
X146399193Y-50144905D01*
X146417597Y-50151207D01*
X146437074Y-50159636D01*
X146482178Y-50166779D01*
X146493597Y-50169144D01*
X146537823Y-50180500D01*
X146559045Y-50180500D01*
X146578442Y-50182026D01*
X146599405Y-50185347D01*
X146644860Y-50181050D01*
X146656530Y-50180500D01*
X148539494Y-50180500D01*
X148555504Y-50182267D01*
X148555527Y-50182026D01*
X148563288Y-50182758D01*
X148563295Y-50182760D01*
X148633261Y-50180560D01*
X148637156Y-50180500D01*
X148665924Y-50180500D01*
X148670286Y-50179948D01*
X148681938Y-50179030D01*
X148727568Y-50177597D01*
X148747955Y-50171673D01*
X148766995Y-50167731D01*
X148788057Y-50165071D01*
X148830519Y-50148258D01*
X148841556Y-50144480D01*
X148885397Y-50131744D01*
X148903664Y-50120939D01*
X148921135Y-50112380D01*
X148940870Y-50104568D01*
X148977815Y-50077725D01*
X148987557Y-50071326D01*
X149026864Y-50048081D01*
X149041869Y-50033075D01*
X149056667Y-50020436D01*
X149058766Y-50018911D01*
X149073836Y-50007963D01*
X149102945Y-49972774D01*
X149110789Y-49964154D01*
X149624513Y-49450430D01*
X149637078Y-49440365D01*
X149636924Y-49440178D01*
X149641458Y-49436427D01*
X149642615Y-49435930D01*
X149645765Y-49433407D01*
X149649542Y-49431011D01*
X149650511Y-49432539D01*
X149705659Y-49408860D01*
X149774573Y-49420380D01*
X149826319Y-49467328D01*
X149844500Y-49531969D01*
X149844500Y-49844191D01*
X149824815Y-49911230D01*
X149808181Y-49931872D01*
X144690484Y-55049569D01*
X144677910Y-55059643D01*
X144678065Y-55059830D01*
X144672058Y-55064799D01*
X144624133Y-55115833D01*
X144621427Y-55118625D01*
X144601090Y-55138963D01*
X144601077Y-55138978D01*
X144598373Y-55142463D01*
X144590806Y-55151322D01*
X144559551Y-55184607D01*
X144559548Y-55184612D01*
X144559202Y-55185242D01*
X144558801Y-55185640D01*
X144554966Y-55190919D01*
X144554114Y-55190300D01*
X144509654Y-55234504D01*
X144450543Y-55249500D01*
X143542129Y-55249500D01*
X143542123Y-55249501D01*
X143482516Y-55255908D01*
X143347671Y-55306202D01*
X143347664Y-55306206D01*
X143232455Y-55392452D01*
X143232452Y-55392455D01*
X143146206Y-55507664D01*
X143146202Y-55507671D01*
X143095908Y-55642517D01*
X143089501Y-55702116D01*
X143089500Y-55702135D01*
X143089500Y-57797870D01*
X143089501Y-57797876D01*
X143095908Y-57857483D01*
X143146202Y-57992328D01*
X143146206Y-57992335D01*
X143232452Y-58107544D01*
X143232455Y-58107547D01*
X143347664Y-58193793D01*
X143347671Y-58193797D01*
X143482517Y-58244091D01*
X143482516Y-58244091D01*
X143489444Y-58244835D01*
X143542127Y-58250500D01*
X146637872Y-58250499D01*
X146697483Y-58244091D01*
X146832331Y-58193796D01*
X146947546Y-58107546D01*
X146954234Y-58098610D01*
X147010166Y-58056741D01*
X147079857Y-58051757D01*
X147141181Y-58085241D01*
X147174666Y-58146564D01*
X147177500Y-58172923D01*
X147177500Y-59791116D01*
X147157815Y-59858155D01*
X147105011Y-59903910D01*
X147035853Y-59913854D01*
X146972297Y-59884829D01*
X146944445Y-59850134D01*
X146850475Y-59676493D01*
X146850474Y-59676491D01*
X146697738Y-59480256D01*
X146517024Y-59313897D01*
X146514782Y-59311833D01*
X146306606Y-59175826D01*
X146078881Y-59075936D01*
X145837824Y-59014892D01*
X145837813Y-59014890D01*
X145652077Y-58999500D01*
X145652067Y-58999500D01*
X144527933Y-58999500D01*
X144527922Y-58999500D01*
X144342186Y-59014890D01*
X144342175Y-59014892D01*
X144101118Y-59075936D01*
X143873393Y-59175826D01*
X143665217Y-59311833D01*
X143482261Y-59480257D01*
X143329524Y-59676493D01*
X143211172Y-59895188D01*
X143211169Y-59895197D01*
X143130429Y-60130383D01*
X143091632Y-60362888D01*
X143089500Y-60375665D01*
X143089500Y-60624335D01*
X143092954Y-60645032D01*
X143130429Y-60869616D01*
X143211169Y-61104802D01*
X143211172Y-61104811D01*
X143320130Y-61306147D01*
X143329526Y-61323509D01*
X143482262Y-61519744D01*
X143577861Y-61607749D01*
X143665217Y-61688166D01*
X143873393Y-61824173D01*
X144101118Y-61924063D01*
X144341235Y-61984869D01*
X144342179Y-61985108D01*
X144342181Y-61985108D01*
X144342186Y-61985109D01*
X144488470Y-61997230D01*
X144527933Y-62000500D01*
X144527937Y-62000500D01*
X145652063Y-62000500D01*
X145652067Y-62000500D01*
X145714677Y-61995311D01*
X145837813Y-61985109D01*
X145837816Y-61985108D01*
X145837821Y-61985108D01*
X146078881Y-61924063D01*
X146306607Y-61824173D01*
X146306621Y-61824163D01*
X146306667Y-61824139D01*
X146306702Y-61824131D01*
X146311304Y-61822113D01*
X146311718Y-61823058D01*
X146374993Y-61809529D01*
X146440370Y-61834177D01*
X146482043Y-61890259D01*
X146486781Y-61959968D01*
X146453390Y-62020862D01*
X145759832Y-62714420D01*
X145698509Y-62747905D01*
X145661915Y-62750316D01*
X145652067Y-62749500D01*
X144527933Y-62749500D01*
X144527922Y-62749500D01*
X144342186Y-62764890D01*
X144342175Y-62764892D01*
X144101118Y-62825936D01*
X143873393Y-62925826D01*
X143665217Y-63061833D01*
X143482261Y-63230257D01*
X143329524Y-63426493D01*
X143211172Y-63645188D01*
X143211169Y-63645197D01*
X143130429Y-63880383D01*
X143105420Y-64030259D01*
X143089500Y-64125665D01*
X143089500Y-64374335D01*
X140335000Y-64374335D01*
X140335000Y-35900781D01*
X140354685Y-35833742D01*
X140407489Y-35787987D01*
X140459000Y-35776781D01*
X148579965Y-35776781D01*
X148584549Y-35778127D01*
G37*
%TD.AperFunction*%
%TD*%
%TA.AperFunction,Conductor*%
%TO.N,/HV_1B*%
G36*
X120508059Y-54501061D02*
G01*
X120613223Y-54514906D01*
X120644491Y-54523284D01*
X120734918Y-54560740D01*
X120762952Y-54576925D01*
X120840602Y-54636509D01*
X120863491Y-54659398D01*
X120923074Y-54737048D01*
X120939259Y-54765081D01*
X120976715Y-54855508D01*
X120985093Y-54886775D01*
X120998939Y-54991939D01*
X121000000Y-55008125D01*
X121000000Y-65991874D01*
X120998939Y-66008060D01*
X120985093Y-66113224D01*
X120976715Y-66144491D01*
X120939259Y-66234918D01*
X120923074Y-66262951D01*
X120863491Y-66340601D01*
X120840601Y-66363491D01*
X120762951Y-66423074D01*
X120734918Y-66439259D01*
X120644491Y-66476715D01*
X120613224Y-66485093D01*
X120519398Y-66497446D01*
X120508058Y-66498939D01*
X120491874Y-66500000D01*
X116758126Y-66500000D01*
X116741941Y-66498939D01*
X116728917Y-66497224D01*
X116636775Y-66485093D01*
X116605508Y-66476715D01*
X116515081Y-66439259D01*
X116487048Y-66423074D01*
X116409398Y-66363491D01*
X116386508Y-66340601D01*
X116326925Y-66262951D01*
X116310740Y-66234918D01*
X116273284Y-66144491D01*
X116264906Y-66113223D01*
X116251061Y-66008059D01*
X116250000Y-65991874D01*
X116250000Y-62207113D01*
X116250000Y-62207107D01*
X116250000Y-62000000D01*
X116103554Y-61853554D01*
X116103548Y-61853547D01*
X115896452Y-61646451D01*
X115896445Y-61646445D01*
X115750000Y-61500000D01*
X115542893Y-61500000D01*
X115542886Y-61500000D01*
X110508126Y-61500000D01*
X110491941Y-61498939D01*
X110478917Y-61497224D01*
X110386775Y-61485093D01*
X110355508Y-61476715D01*
X110265081Y-61439259D01*
X110237048Y-61423074D01*
X110159398Y-61363491D01*
X110136508Y-61340601D01*
X110076925Y-61262951D01*
X110060740Y-61234918D01*
X110023284Y-61144491D01*
X110014906Y-61113223D01*
X110001061Y-61008059D01*
X110000000Y-60991874D01*
X110000000Y-55008125D01*
X110001061Y-54991940D01*
X110014906Y-54886776D01*
X110023284Y-54855508D01*
X110060740Y-54765081D01*
X110076923Y-54737050D01*
X110136513Y-54659392D01*
X110159392Y-54636513D01*
X110237050Y-54576923D01*
X110265079Y-54560740D01*
X110355509Y-54523283D01*
X110386775Y-54514906D01*
X110491941Y-54501061D01*
X110508126Y-54500000D01*
X120491874Y-54500000D01*
X120508059Y-54501061D01*
G37*
%TD.AperFunction*%
%TD*%
%TA.AperFunction,Conductor*%
%TO.N,/HV_2B*%
G36*
X121008059Y-38001061D02*
G01*
X121113223Y-38014906D01*
X121144491Y-38023284D01*
X121234918Y-38060740D01*
X121262952Y-38076925D01*
X121340602Y-38136509D01*
X121363491Y-38159398D01*
X121423074Y-38237048D01*
X121439259Y-38265081D01*
X121476715Y-38355508D01*
X121485093Y-38386775D01*
X121498939Y-38491939D01*
X121500000Y-38508125D01*
X121500000Y-49741874D01*
X121498939Y-49758060D01*
X121485093Y-49863224D01*
X121476715Y-49894491D01*
X121439259Y-49984918D01*
X121423074Y-50012951D01*
X121363491Y-50090601D01*
X121340601Y-50113491D01*
X121262951Y-50173074D01*
X121234918Y-50189259D01*
X121144491Y-50226715D01*
X121113224Y-50235093D01*
X121019398Y-50247446D01*
X121008058Y-50248939D01*
X120991874Y-50250000D01*
X118508126Y-50250000D01*
X118491941Y-50248939D01*
X118478917Y-50247224D01*
X118386775Y-50235093D01*
X118355508Y-50226715D01*
X118265081Y-50189259D01*
X118237048Y-50173074D01*
X118159398Y-50113491D01*
X118136508Y-50090601D01*
X118076925Y-50012951D01*
X118060740Y-49984918D01*
X118023284Y-49894491D01*
X118014906Y-49863223D01*
X118001061Y-49758059D01*
X118000000Y-49741874D01*
X118000000Y-43707113D01*
X118000000Y-43707107D01*
X118000000Y-43500000D01*
X117853554Y-43353554D01*
X117853548Y-43353547D01*
X116146452Y-41646451D01*
X116146445Y-41646445D01*
X116000000Y-41500000D01*
X115792893Y-41500000D01*
X115792886Y-41500000D01*
X113008126Y-41500000D01*
X112991941Y-41498939D01*
X112978917Y-41497224D01*
X112886775Y-41485093D01*
X112855508Y-41476715D01*
X112765081Y-41439259D01*
X112737048Y-41423074D01*
X112659398Y-41363491D01*
X112636508Y-41340601D01*
X112576925Y-41262951D01*
X112560740Y-41234918D01*
X112523284Y-41144491D01*
X112514906Y-41113223D01*
X112501061Y-41008059D01*
X112500000Y-40991874D01*
X112500000Y-38508125D01*
X112501061Y-38491940D01*
X112514906Y-38386776D01*
X112523284Y-38355508D01*
X112560740Y-38265081D01*
X112576923Y-38237050D01*
X112636513Y-38159392D01*
X112659392Y-38136513D01*
X112737050Y-38076923D01*
X112765079Y-38060740D01*
X112855509Y-38023283D01*
X112886775Y-38014906D01*
X112991941Y-38001061D01*
X113008126Y-38000000D01*
X120991874Y-38000000D01*
X121008059Y-38001061D01*
G37*
%TD.AperFunction*%
%TD*%
M02*
