%TF.GenerationSoftware,KiCad,Pcbnew,8.0.1*%
%TF.CreationDate,2024-04-25T23:30:25+02:00*%
%TF.ProjectId,2in-2out_2.0,32696e2d-326f-4757-945f-322e302e6b69,rev?*%
%TF.SameCoordinates,Original*%
%TF.FileFunction,Soldermask,Top*%
%TF.FilePolarity,Negative*%
%FSLAX46Y46*%
G04 Gerber Fmt 4.6, Leading zero omitted, Abs format (unit mm)*
G04 Created by KiCad (PCBNEW 8.0.1) date 2024-04-25 23:30:25*
%MOMM*%
%LPD*%
G01*
G04 APERTURE LIST*
G04 Aperture macros list*
%AMRoundRect*
0 Rectangle with rounded corners*
0 $1 Rounding radius*
0 $2 $3 $4 $5 $6 $7 $8 $9 X,Y pos of 4 corners*
0 Add a 4 corners polygon primitive as box body*
4,1,4,$2,$3,$4,$5,$6,$7,$8,$9,$2,$3,0*
0 Add four circle primitives for the rounded corners*
1,1,$1+$1,$2,$3*
1,1,$1+$1,$4,$5*
1,1,$1+$1,$6,$7*
1,1,$1+$1,$8,$9*
0 Add four rect primitives between the rounded corners*
20,1,$1+$1,$2,$3,$4,$5,0*
20,1,$1+$1,$4,$5,$6,$7,0*
20,1,$1+$1,$6,$7,$8,$9,0*
20,1,$1+$1,$8,$9,$2,$3,0*%
G04 Aperture macros list end*
%ADD10R,2.500000X2.500000*%
%ADD11C,2.500000*%
%ADD12R,2.400000X2.400000*%
%ADD13C,2.400000*%
%ADD14RoundRect,0.250000X1.550000X-0.650000X1.550000X0.650000X-1.550000X0.650000X-1.550000X-0.650000X0*%
%ADD15O,3.600000X1.800000*%
%ADD16O,3.101600X4.101600*%
%ADD17RoundRect,0.050800X-1.500000X-1.000000X1.500000X-1.000000X1.500000X1.000000X-1.500000X1.000000X0*%
%ADD18O,3.101600X2.101600*%
%ADD19R,1.600000X1.600000*%
%ADD20C,1.600000*%
%ADD21C,1.500000*%
%ADD22RoundRect,0.250000X0.400000X0.600000X-0.400000X0.600000X-0.400000X-0.600000X0.400000X-0.600000X0*%
%ADD23RoundRect,0.218750X-0.218750X-0.381250X0.218750X-0.381250X0.218750X0.381250X-0.218750X0.381250X0*%
%ADD24RoundRect,0.250000X0.262500X0.450000X-0.262500X0.450000X-0.262500X-0.450000X0.262500X-0.450000X0*%
%ADD25C,1.000000*%
%ADD26RoundRect,0.243750X0.243750X0.456250X-0.243750X0.456250X-0.243750X-0.456250X0.243750X-0.456250X0*%
%ADD27R,1.700000X1.700000*%
%ADD28O,1.700000X1.700000*%
%ADD29RoundRect,0.250000X-0.250000X-0.475000X0.250000X-0.475000X0.250000X0.475000X-0.250000X0.475000X0*%
%ADD30RoundRect,0.150000X-0.150000X0.825000X-0.150000X-0.825000X0.150000X-0.825000X0.150000X0.825000X0*%
%ADD31RoundRect,0.250000X0.250000X0.475000X-0.250000X0.475000X-0.250000X-0.475000X0.250000X-0.475000X0*%
%ADD32R,1.500000X1.000000*%
%ADD33RoundRect,0.250000X-0.450000X0.262500X-0.450000X-0.262500X0.450000X-0.262500X0.450000X0.262500X0*%
%ADD34RoundRect,0.250000X0.650000X-1.000000X0.650000X1.000000X-0.650000X1.000000X-0.650000X-1.000000X0*%
%ADD35RoundRect,0.250000X0.625000X-0.312500X0.625000X0.312500X-0.625000X0.312500X-0.625000X-0.312500X0*%
%ADD36RoundRect,0.150000X0.587500X0.150000X-0.587500X0.150000X-0.587500X-0.150000X0.587500X-0.150000X0*%
%ADD37RoundRect,0.250000X0.450000X-0.262500X0.450000X0.262500X-0.450000X0.262500X-0.450000X-0.262500X0*%
%ADD38RoundRect,0.150000X-0.725000X-0.150000X0.725000X-0.150000X0.725000X0.150000X-0.725000X0.150000X0*%
G04 APERTURE END LIST*
D10*
%TO.C,J5*%
X111366051Y-42727996D03*
D11*
X111366051Y-49077996D03*
X111366051Y-55427996D03*
X111366051Y-61777996D03*
%TD*%
D12*
%TO.C,J2*%
X186283600Y-50073200D03*
D13*
X186283600Y-46573200D03*
X186283600Y-43073200D03*
X186283600Y-39573200D03*
%TD*%
D14*
%TO.C,X9*%
X184785000Y-65405000D03*
D15*
X184785000Y-59655000D03*
%TD*%
D16*
%TO.C,K2*%
X124790000Y-48000000D03*
X124790000Y-40500000D03*
X129830000Y-48000000D03*
X129830000Y-40500000D03*
X119750000Y-48000000D03*
X119750000Y-40500000D03*
D17*
X145090000Y-40500000D03*
D18*
X145090000Y-48000000D03*
X145090000Y-44250000D03*
%TD*%
D19*
%TO.C,C1*%
X162560000Y-57785000D03*
D20*
X162560000Y-54285000D03*
%TD*%
D21*
%TO.C,TP7*%
X170942000Y-59563000D03*
%TD*%
D22*
%TO.C,D8*%
X145000000Y-52250000D03*
X141500000Y-52250000D03*
%TD*%
D23*
%TO.C,FB3*%
X177882500Y-50346250D03*
X180007500Y-50346250D03*
%TD*%
D21*
%TO.C,TP6*%
X160750000Y-50000000D03*
%TD*%
D23*
%TO.C,FB1*%
X178007500Y-36830000D03*
X180132500Y-36830000D03*
%TD*%
D24*
%TO.C,R4*%
X176320000Y-50673000D03*
X174495000Y-50673000D03*
%TD*%
D25*
%TO.C,TP10*%
X180086000Y-40894000D03*
%TD*%
D26*
%TO.C,F2*%
X180437000Y-46228000D03*
X178562000Y-46228000D03*
%TD*%
D25*
%TO.C,TP12*%
X176149000Y-52832000D03*
%TD*%
D27*
%TO.C,J1*%
X149460000Y-66000000D03*
D28*
X152000000Y-66000000D03*
X154540000Y-66000000D03*
X157080000Y-66000000D03*
X159620000Y-66000000D03*
X162160000Y-66000000D03*
X164700000Y-66000000D03*
X167240000Y-66000000D03*
X169780000Y-66000000D03*
%TD*%
D29*
%TO.C,C5*%
X172720000Y-36830000D03*
X174620000Y-36830000D03*
%TD*%
D24*
%TO.C,R2*%
X178204500Y-40894000D03*
X176379500Y-40894000D03*
%TD*%
D30*
%TO.C,U1*%
X157195000Y-38735000D03*
X155925000Y-38735000D03*
X154655000Y-38735000D03*
X153385000Y-38735000D03*
X152115000Y-38735000D03*
X150845000Y-38735000D03*
X149575000Y-38735000D03*
X148305000Y-38735000D03*
X148305000Y-43685000D03*
X149575000Y-43685000D03*
X150845000Y-43685000D03*
X152115000Y-43685000D03*
X153385000Y-43685000D03*
X154655000Y-43685000D03*
X155925000Y-43685000D03*
X157195000Y-43685000D03*
%TD*%
D21*
%TO.C,TP9*%
X153560000Y-62738000D03*
%TD*%
D23*
%TO.C,FB4*%
X177882500Y-54346250D03*
X180007500Y-54346250D03*
%TD*%
D16*
%TO.C,K1*%
X124790000Y-64250000D03*
X124790000Y-56750000D03*
X129830000Y-64250000D03*
X129830000Y-56750000D03*
X119750000Y-64250000D03*
X119750000Y-56750000D03*
D17*
X145090000Y-56750000D03*
D18*
X145090000Y-64250000D03*
X145090000Y-60500000D03*
%TD*%
D31*
%TO.C,C6*%
X166878000Y-48768000D03*
X164978000Y-48768000D03*
%TD*%
D32*
%TO.C,SJ1*%
X165735000Y-62245000D03*
X165735000Y-60945000D03*
%TD*%
D25*
%TO.C,TP13*%
X174117000Y-52832000D03*
%TD*%
D21*
%TO.C,TP1*%
X149500000Y-62738000D03*
%TD*%
D23*
%TO.C,FB2*%
X178308000Y-44323000D03*
X180433000Y-44323000D03*
%TD*%
D33*
%TO.C,R9*%
X171069000Y-46966500D03*
X171069000Y-48791500D03*
%TD*%
D21*
%TO.C,TP8*%
X156810000Y-62738000D03*
%TD*%
D34*
%TO.C,D1*%
X177800000Y-66516000D03*
X177800000Y-62516000D03*
%TD*%
D35*
%TO.C,R1*%
X168275000Y-62615000D03*
X168275000Y-59690000D03*
%TD*%
D36*
%TO.C,D6*%
X174625000Y-43180000D03*
X174625000Y-41280000D03*
X172750000Y-42230000D03*
%TD*%
D21*
%TO.C,TP4*%
X160655000Y-37465000D03*
%TD*%
D25*
%TO.C,TP11*%
X180086000Y-48260000D03*
%TD*%
D26*
%TO.C,F4*%
X179745000Y-56346250D03*
X177870000Y-56346250D03*
%TD*%
D36*
%TO.C,D3*%
X171293000Y-52590500D03*
X171293000Y-50690500D03*
X169418000Y-51640500D03*
%TD*%
D24*
%TO.C,R6*%
X174625000Y-39370000D03*
X172800000Y-39370000D03*
%TD*%
%TO.C,R3*%
X178204500Y-48260000D03*
X176379500Y-48260000D03*
%TD*%
D37*
%TO.C,R8*%
X173101000Y-48791500D03*
X173101000Y-46966500D03*
%TD*%
D21*
%TO.C,TP5*%
X160750000Y-47000000D03*
%TD*%
D24*
%TO.C,R7*%
X174625000Y-45085000D03*
X172800000Y-45085000D03*
%TD*%
D26*
%TO.C,F1*%
X180086000Y-38783500D03*
X178211000Y-38783500D03*
%TD*%
D19*
%TO.C,C2*%
X153670000Y-57785000D03*
D20*
X153670000Y-54285000D03*
%TD*%
D21*
%TO.C,TP3*%
X159810000Y-62738000D03*
%TD*%
D38*
%TO.C,U2*%
X163650000Y-37480000D03*
X163650000Y-38750000D03*
X163650000Y-40020000D03*
X163650000Y-41290000D03*
X163650000Y-42560000D03*
X163650000Y-43830000D03*
X163650000Y-45100000D03*
X163650000Y-46370000D03*
X168800000Y-46370000D03*
X168800000Y-45100000D03*
X168800000Y-43830000D03*
X168800000Y-42560000D03*
X168800000Y-41290000D03*
X168800000Y-40020000D03*
X168800000Y-38750000D03*
X168800000Y-37480000D03*
%TD*%
D26*
%TO.C,F3*%
X179882500Y-52346250D03*
X178007500Y-52346250D03*
%TD*%
D21*
%TO.C,TP2*%
X148590000Y-53340000D03*
%TD*%
D24*
%TO.C,R5*%
X172262800Y-54660800D03*
X170437800Y-54660800D03*
%TD*%
M02*
