%TF.GenerationSoftware,KiCad,Pcbnew,8.0.1*%
%TF.CreationDate,2024-04-28T14:25:19+02:00*%
%TF.ProjectId,top_led_btn_2MU_TOP,746f705f-6c65-4645-9f62-746e5f324d55,rev?*%
%TF.SameCoordinates,Original*%
%TF.FileFunction,Copper,L1,Top*%
%TF.FilePolarity,Positive*%
%FSLAX46Y46*%
G04 Gerber Fmt 4.6, Leading zero omitted, Abs format (unit mm)*
G04 Created by KiCad (PCBNEW 8.0.1) date 2024-04-28 14:25:19*
%MOMM*%
%LPD*%
G01*
G04 APERTURE LIST*
G04 Aperture macros list*
%AMRoundRect*
0 Rectangle with rounded corners*
0 $1 Rounding radius*
0 $2 $3 $4 $5 $6 $7 $8 $9 X,Y pos of 4 corners*
0 Add a 4 corners polygon primitive as box body*
4,1,4,$2,$3,$4,$5,$6,$7,$8,$9,$2,$3,0*
0 Add four circle primitives for the rounded corners*
1,1,$1+$1,$2,$3*
1,1,$1+$1,$4,$5*
1,1,$1+$1,$6,$7*
1,1,$1+$1,$8,$9*
0 Add four rect primitives between the rounded corners*
20,1,$1+$1,$2,$3,$4,$5,0*
20,1,$1+$1,$4,$5,$6,$7,0*
20,1,$1+$1,$6,$7,$8,$9,0*
20,1,$1+$1,$8,$9,$2,$3,0*%
G04 Aperture macros list end*
%TA.AperFunction,SMDPad,CuDef*%
%ADD10RoundRect,0.243750X0.456250X-0.243750X0.456250X0.243750X-0.456250X0.243750X-0.456250X-0.243750X0*%
%TD*%
%TA.AperFunction,SMDPad,CuDef*%
%ADD11RoundRect,0.243750X-0.456250X0.243750X-0.456250X-0.243750X0.456250X-0.243750X0.456250X0.243750X0*%
%TD*%
%TA.AperFunction,SMDPad,CuDef*%
%ADD12R,1.500000X1.500000*%
%TD*%
%TA.AperFunction,SMDPad,CuDef*%
%ADD13RoundRect,0.250000X0.450000X-0.262500X0.450000X0.262500X-0.450000X0.262500X-0.450000X-0.262500X0*%
%TD*%
%TA.AperFunction,SMDPad,CuDef*%
%ADD14RoundRect,0.250000X-0.262500X-0.450000X0.262500X-0.450000X0.262500X0.450000X-0.262500X0.450000X0*%
%TD*%
%TA.AperFunction,SMDPad,CuDef*%
%ADD15RoundRect,0.250000X0.262500X0.450000X-0.262500X0.450000X-0.262500X-0.450000X0.262500X-0.450000X0*%
%TD*%
%TA.AperFunction,ComponentPad*%
%ADD16R,1.700000X1.700000*%
%TD*%
%TA.AperFunction,ComponentPad*%
%ADD17O,1.700000X1.700000*%
%TD*%
%TA.AperFunction,ViaPad*%
%ADD18C,0.800000*%
%TD*%
%TA.AperFunction,Conductor*%
%ADD19C,0.400000*%
%TD*%
G04 APERTURE END LIST*
D10*
%TO.P,D6,2,A*%
%TO.N,Net-(D4-A)*%
X117856000Y-77802500D03*
%TO.P,D6,1,K*%
%TO.N,Net-(D6-K)*%
X117856000Y-79677500D03*
%TD*%
D11*
%TO.P,D1,1,K*%
%TO.N,Net-(D1-K)*%
X115570000Y-87962500D03*
%TO.P,D1,2,A*%
%TO.N,Net-(D1-A)*%
X115570000Y-89837500D03*
%TD*%
D12*
%TO.P,SW3,1,1*%
%TO.N,GND*%
X108204000Y-111850000D03*
%TO.P,SW3,2,2*%
%TO.N,Net-(D3-K)*%
X108204000Y-104050000D03*
%TD*%
D11*
%TO.P,D7,2,A*%
%TO.N,Net-(D6-K)*%
X124206000Y-79677500D03*
%TO.P,D7,1,K*%
%TO.N,Net-(D4-A)*%
X124206000Y-77802500D03*
%TD*%
D13*
%TO.P,R3,1*%
%TO.N,+3V3*%
X110744000Y-99972500D03*
%TO.P,R3,2*%
%TO.N,Net-(D3-A)*%
X110744000Y-98147500D03*
%TD*%
D14*
%TO.P,R4,1*%
%TO.N,Net-(D4-A)*%
X121007500Y-90170000D03*
%TO.P,R4,2*%
%TO.N,Net-(J2-Pin_6)*%
X122832500Y-90170000D03*
%TD*%
D13*
%TO.P,R1,1*%
%TO.N,+3V3*%
X113030000Y-89812500D03*
%TO.P,R1,2*%
%TO.N,Net-(D1-A)*%
X113030000Y-87987500D03*
%TD*%
%TO.P,R2,1*%
%TO.N,+3V3*%
X119380000Y-99972500D03*
%TO.P,R2,2*%
%TO.N,Net-(D2-A)*%
X119380000Y-98147500D03*
%TD*%
D15*
%TO.P,R5,1*%
%TO.N,Net-(J2-Pin_3)*%
X122832500Y-95250000D03*
%TO.P,R5,2*%
%TO.N,Net-(D4-K)*%
X121007500Y-95250000D03*
%TD*%
D12*
%TO.P,SW1,1,1*%
%TO.N,GND*%
X108204000Y-92800000D03*
%TO.P,SW1,2,2*%
%TO.N,Net-(D1-K)*%
X108204000Y-85000000D03*
%TD*%
D11*
%TO.P,D5,2,A*%
%TO.N,Net-(D4-K)*%
X111506000Y-79677500D03*
%TO.P,D5,1,K*%
%TO.N,Net-(D4-A)*%
X111506000Y-77802500D03*
%TD*%
D14*
%TO.P,R6,1*%
%TO.N,Net-(D6-K)*%
X121007500Y-92710000D03*
%TO.P,R6,2*%
%TO.N,Net-(J2-Pin_4)*%
X122832500Y-92710000D03*
%TD*%
D12*
%TO.P,SW2,1,1*%
%TO.N,GND*%
X121920000Y-111850000D03*
%TO.P,SW2,2,2*%
%TO.N,Net-(D2-K)*%
X121920000Y-104050000D03*
%TD*%
D10*
%TO.P,D2,1,K*%
%TO.N,Net-(D2-K)*%
X121920000Y-99997500D03*
%TO.P,D2,2,A*%
%TO.N,Net-(D2-A)*%
X121920000Y-98122500D03*
%TD*%
D16*
%TO.P,J2,1,Pin_1*%
%TO.N,Net-(D3-K)*%
X126660000Y-102560000D03*
D17*
%TO.P,J2,2,Pin_2*%
%TO.N,Net-(D2-K)*%
X126660000Y-100020000D03*
%TO.P,J2,3,Pin_3*%
%TO.N,Net-(J2-Pin_3)*%
X126660000Y-97480000D03*
%TO.P,J2,4,Pin_4*%
%TO.N,Net-(J2-Pin_4)*%
X126660000Y-94940000D03*
%TO.P,J2,5,Pin_5*%
%TO.N,GND*%
X126660000Y-92400000D03*
%TO.P,J2,6,Pin_6*%
%TO.N,Net-(J2-Pin_6)*%
X126660000Y-89860000D03*
%TO.P,J2,7,Pin_7*%
%TO.N,+3V3*%
X126660000Y-87320000D03*
%TO.P,J2,8,Pin_8*%
%TO.N,Net-(D1-K)*%
X126660000Y-84780000D03*
%TD*%
D10*
%TO.P,D4,2,A*%
%TO.N,Net-(D4-A)*%
X105156000Y-77802500D03*
%TO.P,D4,1,K*%
%TO.N,Net-(D4-K)*%
X105156000Y-79677500D03*
%TD*%
%TO.P,D3,1,K*%
%TO.N,Net-(D3-K)*%
X108204000Y-99997500D03*
%TO.P,D3,2,A*%
%TO.N,Net-(D3-A)*%
X108204000Y-98122500D03*
%TD*%
D18*
%TO.N,GND*%
X128778000Y-78232000D03*
X128016000Y-110490000D03*
X115316000Y-110998000D03*
X102870000Y-82804000D03*
X102616000Y-95758000D03*
X102362000Y-107696000D03*
X117094000Y-96012000D03*
X115824000Y-81280000D03*
X121412000Y-82296000D03*
X115316000Y-103378000D03*
%TO.N,Net-(D1-K)*%
X114195000Y-85000000D03*
%TO.N,+3V3*%
X116840000Y-91440000D03*
%TD*%
D19*
%TO.N,Net-(D4-K)*%
X111506000Y-79677500D02*
X111506000Y-80010000D01*
X111506000Y-80010000D02*
X118110000Y-86614000D01*
X118110000Y-86614000D02*
X118110000Y-93345000D01*
X118110000Y-93345000D02*
X120015000Y-95250000D01*
X120015000Y-95250000D02*
X121007500Y-95250000D01*
%TO.N,Net-(D4-A)*%
X117856000Y-77802500D02*
X124206000Y-77802500D01*
X111506000Y-77802500D02*
X117856000Y-77802500D01*
%TO.N,Net-(D6-K)*%
X120650000Y-92710000D02*
X121007500Y-92710000D01*
%TO.N,Net-(D4-A)*%
X105156000Y-77802500D02*
X111506000Y-77802500D01*
%TO.N,Net-(D6-K)*%
X117856000Y-79677500D02*
X124206000Y-79677500D01*
%TO.N,Net-(D4-K)*%
X105156000Y-79677500D02*
X111506000Y-79677500D01*
%TO.N,Net-(D4-A)*%
X121007500Y-90170000D02*
X121007500Y-86002500D01*
%TO.N,Net-(D6-K)*%
X119380000Y-79677500D02*
X119380000Y-91440000D01*
%TO.N,Net-(D4-A)*%
X124792500Y-77802500D02*
X124206000Y-77802500D01*
%TO.N,Net-(D6-K)*%
X124206000Y-79677500D02*
X119380000Y-79677500D01*
%TO.N,Net-(D4-A)*%
X125730000Y-78740000D02*
X124792500Y-77802500D01*
%TO.N,Net-(D6-K)*%
X119380000Y-91440000D02*
X120650000Y-92710000D01*
%TO.N,Net-(D4-A)*%
X121007500Y-86002500D02*
X125730000Y-81280000D01*
X125730000Y-81280000D02*
X125730000Y-78740000D01*
%TO.N,+3V3*%
X115927500Y-99972500D02*
X114657500Y-99972500D01*
X114657500Y-99972500D02*
X114657500Y-91440000D01*
%TO.N,Net-(D1-A)*%
X115403750Y-89837500D02*
X115570000Y-89837500D01*
X113553750Y-87987500D02*
X115403750Y-89837500D01*
X113030000Y-87987500D02*
X113553750Y-87987500D01*
%TO.N,Net-(D1-K)*%
X115570000Y-86375000D02*
X115570000Y-87962500D01*
X114195000Y-85000000D02*
X108204000Y-85000000D01*
X114292500Y-85097500D02*
X115570000Y-86375000D01*
X114292500Y-85097500D02*
X114195000Y-85000000D01*
%TO.N,Net-(D2-A)*%
X119380000Y-98147500D02*
X121895000Y-98147500D01*
X121895000Y-98147500D02*
X121920000Y-98122500D01*
%TO.N,Net-(D2-K)*%
X121942500Y-100020000D02*
X121920000Y-99997500D01*
X121920000Y-104050000D02*
X121920000Y-99997500D01*
X126660000Y-100020000D02*
X121942500Y-100020000D01*
%TO.N,Net-(D3-K)*%
X109855000Y-106680000D02*
X123817500Y-106680000D01*
X123817500Y-106680000D02*
X126660000Y-103837500D01*
X126660000Y-103837500D02*
X126660000Y-102560000D01*
X108204000Y-104050000D02*
X108204000Y-99997500D01*
X108204000Y-105029000D02*
X109855000Y-106680000D01*
X108204000Y-104050000D02*
X108204000Y-105029000D01*
%TO.N,Net-(D3-A)*%
X108204000Y-98122500D02*
X110719000Y-98122500D01*
X110719000Y-98122500D02*
X110744000Y-98147500D01*
%TO.N,Net-(J2-Pin_4)*%
X126089688Y-94940000D02*
X123859688Y-92710000D01*
X126660000Y-94940000D02*
X126089688Y-94940000D01*
X123859688Y-92710000D02*
X122832500Y-92710000D01*
%TO.N,Net-(J2-Pin_6)*%
X123142500Y-89860000D02*
X126660000Y-89860000D01*
X122832500Y-90170000D02*
X123142500Y-89860000D01*
%TO.N,+3V3*%
X116840000Y-91440000D02*
X114657500Y-91440000D01*
X110744000Y-99972500D02*
X115927500Y-99972500D01*
X114657500Y-91440000D02*
X113030000Y-89812500D01*
X119380000Y-99972500D02*
X115927500Y-99972500D01*
%TO.N,Net-(J2-Pin_3)*%
X126660000Y-97480000D02*
X126055000Y-97480000D01*
X123825000Y-95250000D02*
X122832500Y-95250000D01*
X126055000Y-97480000D02*
X123825000Y-95250000D01*
%TD*%
%TA.AperFunction,Conductor*%
%TO.N,GND*%
G36*
X120704487Y-100432250D02*
G01*
X120755687Y-100479792D01*
X120766835Y-100504202D01*
X120780498Y-100545432D01*
X120784638Y-100557925D01*
X120784640Y-100557928D01*
X120784642Y-100557933D01*
X120875971Y-100705999D01*
X120875974Y-100706003D01*
X120998996Y-100829025D01*
X120999000Y-100829028D01*
X121147066Y-100920357D01*
X121147069Y-100920358D01*
X121147075Y-100920362D01*
X121147080Y-100920363D01*
X121147892Y-100920742D01*
X121148364Y-100921157D01*
X121153222Y-100924154D01*
X121152710Y-100924983D01*
X121200336Y-100966908D01*
X121219500Y-101033130D01*
X121219500Y-102677648D01*
X121199815Y-102744687D01*
X121147011Y-102790442D01*
X121108755Y-102800938D01*
X121062516Y-102805909D01*
X120927671Y-102856202D01*
X120927664Y-102856206D01*
X120812455Y-102942452D01*
X120812452Y-102942455D01*
X120726206Y-103057664D01*
X120726202Y-103057671D01*
X120675908Y-103192517D01*
X120669501Y-103252116D01*
X120669501Y-103252123D01*
X120669500Y-103252135D01*
X120669500Y-104847870D01*
X120669501Y-104847876D01*
X120675908Y-104907483D01*
X120726202Y-105042328D01*
X120726206Y-105042335D01*
X120812452Y-105157544D01*
X120812455Y-105157547D01*
X120927664Y-105243793D01*
X120927671Y-105243797D01*
X121062517Y-105294091D01*
X121062516Y-105294091D01*
X121069444Y-105294835D01*
X121122127Y-105300500D01*
X122717872Y-105300499D01*
X122777483Y-105294091D01*
X122912331Y-105243796D01*
X123027546Y-105157546D01*
X123113796Y-105042331D01*
X123164091Y-104907483D01*
X123170500Y-104847873D01*
X123170499Y-103252128D01*
X123164091Y-103192517D01*
X123113796Y-103057669D01*
X123113795Y-103057668D01*
X123113793Y-103057664D01*
X123027547Y-102942455D01*
X123027544Y-102942452D01*
X122912335Y-102856206D01*
X122912328Y-102856202D01*
X122777483Y-102805908D01*
X122731243Y-102800937D01*
X122666693Y-102774199D01*
X122626845Y-102716806D01*
X122620500Y-102677648D01*
X122620500Y-101033130D01*
X122640185Y-100966091D01*
X122687276Y-100924961D01*
X122686778Y-100924154D01*
X122691623Y-100921165D01*
X122692108Y-100920742D01*
X122692915Y-100920365D01*
X122692925Y-100920362D01*
X122841003Y-100829026D01*
X122913210Y-100756819D01*
X122974533Y-100723334D01*
X123000891Y-100720500D01*
X125437289Y-100720500D01*
X125504328Y-100740185D01*
X125538864Y-100773377D01*
X125621503Y-100891399D01*
X125621504Y-100891400D01*
X125621505Y-100891401D01*
X125743431Y-101013327D01*
X125776915Y-101074648D01*
X125771931Y-101144340D01*
X125730060Y-101200274D01*
X125699083Y-101217189D01*
X125567669Y-101266203D01*
X125567664Y-101266206D01*
X125452455Y-101352452D01*
X125452452Y-101352455D01*
X125366206Y-101467664D01*
X125366202Y-101467671D01*
X125315908Y-101602517D01*
X125309501Y-101662116D01*
X125309501Y-101662123D01*
X125309500Y-101662135D01*
X125309500Y-103457870D01*
X125309501Y-103457876D01*
X125315908Y-103517483D01*
X125366202Y-103652328D01*
X125366206Y-103652335D01*
X125452452Y-103767544D01*
X125452453Y-103767545D01*
X125452454Y-103767546D01*
X125501935Y-103804588D01*
X125543807Y-103860520D01*
X125548791Y-103930212D01*
X125515306Y-103991535D01*
X123563662Y-105943181D01*
X123502339Y-105976666D01*
X123475981Y-105979500D01*
X110196519Y-105979500D01*
X110129480Y-105959815D01*
X110108838Y-105943181D01*
X109392513Y-105226856D01*
X109359028Y-105165533D01*
X109364012Y-105095841D01*
X109380928Y-105064863D01*
X109397796Y-105042331D01*
X109448091Y-104907483D01*
X109454500Y-104847873D01*
X109454499Y-103252128D01*
X109448091Y-103192517D01*
X109397796Y-103057669D01*
X109397795Y-103057668D01*
X109397793Y-103057664D01*
X109311547Y-102942455D01*
X109311544Y-102942452D01*
X109196335Y-102856206D01*
X109196328Y-102856202D01*
X109061483Y-102805908D01*
X109015243Y-102800937D01*
X108950693Y-102774199D01*
X108910845Y-102716806D01*
X108904500Y-102677648D01*
X108904500Y-101033130D01*
X108924185Y-100966091D01*
X108971276Y-100924961D01*
X108970778Y-100924154D01*
X108975623Y-100921165D01*
X108976108Y-100920742D01*
X108976915Y-100920365D01*
X108976925Y-100920362D01*
X109125003Y-100829026D01*
X109248026Y-100706003D01*
X109339362Y-100557925D01*
X109357163Y-100504204D01*
X109396933Y-100446760D01*
X109461449Y-100419936D01*
X109530225Y-100432250D01*
X109581425Y-100479792D01*
X109592573Y-100504202D01*
X109609184Y-100554327D01*
X109609187Y-100554336D01*
X109611399Y-100557922D01*
X109701288Y-100703656D01*
X109825344Y-100827712D01*
X109974666Y-100919814D01*
X110141203Y-100974999D01*
X110243991Y-100985500D01*
X111244008Y-100985499D01*
X111244016Y-100985498D01*
X111244019Y-100985498D01*
X111300302Y-100979748D01*
X111346797Y-100974999D01*
X111513334Y-100919814D01*
X111662656Y-100827712D01*
X111781049Y-100709319D01*
X111842372Y-100675834D01*
X111868730Y-100673000D01*
X114588507Y-100673000D01*
X114726493Y-100673000D01*
X115858507Y-100673000D01*
X118255270Y-100673000D01*
X118322309Y-100692685D01*
X118342951Y-100709319D01*
X118461344Y-100827712D01*
X118610666Y-100919814D01*
X118777203Y-100974999D01*
X118879991Y-100985500D01*
X119880008Y-100985499D01*
X119880016Y-100985498D01*
X119880019Y-100985498D01*
X119936302Y-100979748D01*
X119982797Y-100974999D01*
X120149334Y-100919814D01*
X120298656Y-100827712D01*
X120422712Y-100703656D01*
X120514814Y-100554334D01*
X120531426Y-100504200D01*
X120571195Y-100446760D01*
X120635710Y-100419936D01*
X120704487Y-100432250D01*
G37*
%TD.AperFunction*%
%TA.AperFunction,Conductor*%
G36*
X116298883Y-92160185D02*
G01*
X116304729Y-92164182D01*
X116387265Y-92224148D01*
X116387270Y-92224151D01*
X116560192Y-92301142D01*
X116560197Y-92301144D01*
X116745354Y-92340500D01*
X116745355Y-92340500D01*
X116934644Y-92340500D01*
X116934646Y-92340500D01*
X117119803Y-92301144D01*
X117235064Y-92249826D01*
X117304314Y-92240541D01*
X117367590Y-92270169D01*
X117404804Y-92329303D01*
X117409500Y-92363105D01*
X117409500Y-93276006D01*
X117409500Y-93413994D01*
X117409500Y-93413996D01*
X117409499Y-93413996D01*
X117436418Y-93549322D01*
X117436421Y-93549332D01*
X117489222Y-93676807D01*
X117565887Y-93791545D01*
X119568454Y-95794112D01*
X119683192Y-95870777D01*
X119810667Y-95923578D01*
X119810672Y-95923580D01*
X119810676Y-95923580D01*
X119810677Y-95923581D01*
X119946003Y-95950500D01*
X119946006Y-95950500D01*
X119946007Y-95950500D01*
X119949092Y-95950500D01*
X119950650Y-95950957D01*
X119952066Y-95951097D01*
X119952039Y-95951365D01*
X120016131Y-95970185D01*
X120054636Y-96014271D01*
X120056395Y-96013187D01*
X120060185Y-96019332D01*
X120060186Y-96019334D01*
X120152288Y-96168656D01*
X120276344Y-96292712D01*
X120425666Y-96384814D01*
X120592203Y-96439999D01*
X120694991Y-96450500D01*
X121320008Y-96450499D01*
X121320016Y-96450498D01*
X121320019Y-96450498D01*
X121408044Y-96441506D01*
X121422797Y-96439999D01*
X121589334Y-96384814D01*
X121738656Y-96292712D01*
X121832319Y-96199049D01*
X121893642Y-96165564D01*
X121963334Y-96170548D01*
X122007681Y-96199049D01*
X122101344Y-96292712D01*
X122250666Y-96384814D01*
X122417203Y-96439999D01*
X122519991Y-96450500D01*
X123145008Y-96450499D01*
X123145016Y-96450498D01*
X123145019Y-96450498D01*
X123233044Y-96441506D01*
X123247797Y-96439999D01*
X123414334Y-96384814D01*
X123563656Y-96292712D01*
X123632677Y-96223690D01*
X123693996Y-96190208D01*
X123763688Y-96195192D01*
X123808036Y-96223693D01*
X125310660Y-97726317D01*
X125342754Y-97781905D01*
X125386094Y-97943655D01*
X125386096Y-97943659D01*
X125386097Y-97943663D01*
X125485965Y-98157830D01*
X125485967Y-98157834D01*
X125621501Y-98351395D01*
X125621506Y-98351402D01*
X125788597Y-98518493D01*
X125788603Y-98518498D01*
X125974158Y-98648425D01*
X126017783Y-98703002D01*
X126024977Y-98772500D01*
X125993454Y-98834855D01*
X125974158Y-98851575D01*
X125788597Y-98981505D01*
X125621506Y-99148596D01*
X125538864Y-99266623D01*
X125484287Y-99310248D01*
X125437289Y-99319500D01*
X123045892Y-99319500D01*
X122978853Y-99299815D01*
X122958211Y-99283182D01*
X122910710Y-99235681D01*
X122841003Y-99165974D01*
X122840301Y-99165541D01*
X122839921Y-99165118D01*
X122835336Y-99161493D01*
X122835955Y-99160709D01*
X122793575Y-99113598D01*
X122782349Y-99044636D01*
X122810188Y-98980552D01*
X122835455Y-98958657D01*
X122835336Y-98958507D01*
X122838687Y-98955856D01*
X122840299Y-98954459D01*
X122841003Y-98954026D01*
X122964026Y-98831003D01*
X123055362Y-98682925D01*
X123110087Y-98517775D01*
X123120500Y-98415848D01*
X123120500Y-97829152D01*
X123110087Y-97727225D01*
X123055362Y-97562075D01*
X123055358Y-97562069D01*
X123055357Y-97562066D01*
X122964028Y-97414000D01*
X122964025Y-97413996D01*
X122841003Y-97290974D01*
X122840999Y-97290971D01*
X122692933Y-97199642D01*
X122692927Y-97199639D01*
X122692925Y-97199638D01*
X122692922Y-97199637D01*
X122527776Y-97144913D01*
X122425855Y-97134500D01*
X122425848Y-97134500D01*
X121414152Y-97134500D01*
X121414144Y-97134500D01*
X121312223Y-97144913D01*
X121147077Y-97199637D01*
X121147066Y-97199642D01*
X120999000Y-97290971D01*
X120879289Y-97410682D01*
X120817966Y-97444166D01*
X120791608Y-97447000D01*
X120504730Y-97447000D01*
X120437691Y-97427315D01*
X120417049Y-97410681D01*
X120298657Y-97292289D01*
X120298656Y-97292288D01*
X120149334Y-97200186D01*
X119982797Y-97145001D01*
X119982795Y-97145000D01*
X119880010Y-97134500D01*
X118879998Y-97134500D01*
X118879980Y-97134501D01*
X118777203Y-97145000D01*
X118777200Y-97145001D01*
X118610668Y-97200185D01*
X118610663Y-97200187D01*
X118461342Y-97292289D01*
X118337289Y-97416342D01*
X118245187Y-97565663D01*
X118245186Y-97565666D01*
X118190001Y-97732203D01*
X118190001Y-97732204D01*
X118190000Y-97732204D01*
X118179500Y-97834983D01*
X118179500Y-98460001D01*
X118179501Y-98460019D01*
X118190000Y-98562796D01*
X118190001Y-98562799D01*
X118229810Y-98682933D01*
X118245186Y-98729334D01*
X118334414Y-98873997D01*
X118337289Y-98878657D01*
X118430951Y-98972319D01*
X118464436Y-99033642D01*
X118459452Y-99103334D01*
X118430951Y-99147681D01*
X118342951Y-99235681D01*
X118281628Y-99269166D01*
X118255270Y-99272000D01*
X115482000Y-99272000D01*
X115414961Y-99252315D01*
X115369206Y-99199511D01*
X115358000Y-99148000D01*
X115358000Y-92264500D01*
X115377685Y-92197461D01*
X115430489Y-92151706D01*
X115482000Y-92140500D01*
X116231844Y-92140500D01*
X116298883Y-92160185D01*
G37*
%TD.AperFunction*%
%TA.AperFunction,Conductor*%
G36*
X125504328Y-90580185D02*
G01*
X125538864Y-90613377D01*
X125621505Y-90731402D01*
X125788597Y-90898493D01*
X125788603Y-90898498D01*
X125974594Y-91028730D01*
X126018219Y-91083307D01*
X126025413Y-91152805D01*
X125993890Y-91215160D01*
X125974595Y-91231880D01*
X125788922Y-91361890D01*
X125788920Y-91361891D01*
X125621891Y-91528920D01*
X125621886Y-91528926D01*
X125486400Y-91722420D01*
X125486399Y-91722422D01*
X125386570Y-91936507D01*
X125386567Y-91936513D01*
X125329364Y-92149999D01*
X125329364Y-92150000D01*
X126226988Y-92150000D01*
X126194075Y-92207007D01*
X126160000Y-92334174D01*
X126160000Y-92465826D01*
X126194075Y-92592993D01*
X126226988Y-92650000D01*
X125329364Y-92650000D01*
X125386567Y-92863486D01*
X125386570Y-92863492D01*
X125423776Y-92943281D01*
X125434268Y-93012359D01*
X125405748Y-93076143D01*
X125347272Y-93114382D01*
X125277404Y-93114937D01*
X125223713Y-93083367D01*
X124306233Y-92165887D01*
X124191495Y-92089222D01*
X124064020Y-92036421D01*
X124064010Y-92036418D01*
X123928684Y-92009500D01*
X123928682Y-92009500D01*
X123928681Y-92009500D01*
X123890908Y-92009500D01*
X123823869Y-91989815D01*
X123785363Y-91945728D01*
X123783605Y-91946813D01*
X123777252Y-91936513D01*
X123687712Y-91791344D01*
X123563656Y-91667288D01*
X123414334Y-91575186D01*
X123361579Y-91557704D01*
X123304136Y-91517934D01*
X123277313Y-91453418D01*
X123289628Y-91384642D01*
X123337171Y-91333442D01*
X123361575Y-91322296D01*
X123414334Y-91304814D01*
X123563656Y-91212712D01*
X123687712Y-91088656D01*
X123779814Y-90939334D01*
X123834999Y-90772797D01*
X123845307Y-90671897D01*
X123871703Y-90607206D01*
X123928884Y-90567054D01*
X123968665Y-90560500D01*
X125437289Y-90560500D01*
X125504328Y-90580185D01*
G37*
%TD.AperFunction*%
%TA.AperFunction,Conductor*%
G36*
X116819647Y-78522685D02*
G01*
X116840289Y-78539318D01*
X116934997Y-78634026D01*
X116934999Y-78634027D01*
X116935000Y-78634028D01*
X116935703Y-78634462D01*
X116936083Y-78634885D01*
X116940664Y-78638507D01*
X116940045Y-78639289D01*
X116982428Y-78686410D01*
X116993649Y-78755372D01*
X116965806Y-78819454D01*
X116940544Y-78841342D01*
X116940664Y-78841493D01*
X116937315Y-78844140D01*
X116935703Y-78845538D01*
X116935000Y-78845971D01*
X116934996Y-78845974D01*
X116811974Y-78968996D01*
X116811971Y-78969000D01*
X116720642Y-79117066D01*
X116720637Y-79117077D01*
X116665913Y-79282223D01*
X116655500Y-79384144D01*
X116655500Y-79970855D01*
X116665913Y-80072776D01*
X116720637Y-80237922D01*
X116720642Y-80237933D01*
X116811971Y-80385999D01*
X116811974Y-80386003D01*
X116934996Y-80509025D01*
X116935000Y-80509028D01*
X117083066Y-80600357D01*
X117083069Y-80600358D01*
X117083075Y-80600362D01*
X117248225Y-80655087D01*
X117350152Y-80665500D01*
X117350157Y-80665500D01*
X118361843Y-80665500D01*
X118361848Y-80665500D01*
X118463775Y-80655087D01*
X118516496Y-80637616D01*
X118586324Y-80635215D01*
X118646366Y-80670947D01*
X118677559Y-80733467D01*
X118679500Y-80755323D01*
X118679500Y-85893481D01*
X118659815Y-85960520D01*
X118607011Y-86006275D01*
X118537853Y-86016219D01*
X118474297Y-85987194D01*
X118467819Y-85981162D01*
X112716157Y-80229500D01*
X112682672Y-80168177D01*
X112686131Y-80102816D01*
X112696087Y-80072775D01*
X112706500Y-79970848D01*
X112706500Y-79384152D01*
X112696087Y-79282225D01*
X112641362Y-79117075D01*
X112641358Y-79117069D01*
X112641357Y-79117066D01*
X112550028Y-78969000D01*
X112550025Y-78968996D01*
X112427004Y-78845975D01*
X112427003Y-78845974D01*
X112426301Y-78845541D01*
X112425921Y-78845118D01*
X112421336Y-78841493D01*
X112421955Y-78840709D01*
X112379575Y-78793598D01*
X112368349Y-78724636D01*
X112396188Y-78660552D01*
X112421455Y-78638657D01*
X112421336Y-78638507D01*
X112424687Y-78635856D01*
X112426299Y-78634459D01*
X112427003Y-78634026D01*
X112521711Y-78539318D01*
X112583035Y-78505834D01*
X112609392Y-78503000D01*
X116752608Y-78503000D01*
X116819647Y-78522685D01*
G37*
%TD.AperFunction*%
%TA.AperFunction,Conductor*%
G36*
X123169647Y-80397685D02*
G01*
X123190289Y-80414318D01*
X123284997Y-80509026D01*
X123284999Y-80509027D01*
X123285000Y-80509028D01*
X123433066Y-80600357D01*
X123433069Y-80600358D01*
X123433075Y-80600362D01*
X123598225Y-80655087D01*
X123700152Y-80665500D01*
X123700157Y-80665500D01*
X124711843Y-80665500D01*
X124711848Y-80665500D01*
X124813775Y-80655087D01*
X124866496Y-80637616D01*
X124936324Y-80635215D01*
X124996366Y-80670947D01*
X125027559Y-80733467D01*
X125029500Y-80755323D01*
X125029500Y-80938480D01*
X125009815Y-81005519D01*
X124993181Y-81026161D01*
X120463388Y-85555953D01*
X120463387Y-85555954D01*
X120386722Y-85670692D01*
X120333921Y-85798167D01*
X120333918Y-85798178D01*
X120326117Y-85837399D01*
X120293733Y-85899310D01*
X120233017Y-85933884D01*
X120163248Y-85930145D01*
X120106575Y-85889279D01*
X120080994Y-85824261D01*
X120080500Y-85813208D01*
X120080500Y-80502000D01*
X120100185Y-80434961D01*
X120152989Y-80389206D01*
X120204500Y-80378000D01*
X123102608Y-80378000D01*
X123169647Y-80397685D01*
G37*
%TD.AperFunction*%
%TA.AperFunction,Conductor*%
G36*
X130502539Y-74180185D02*
G01*
X130548294Y-74232989D01*
X130559500Y-74284500D01*
X130559500Y-115035500D01*
X130539815Y-115102539D01*
X130487011Y-115148294D01*
X130435500Y-115159500D01*
X99684500Y-115159500D01*
X99617461Y-115139815D01*
X99571706Y-115087011D01*
X99560500Y-115035500D01*
X99560500Y-112100000D01*
X106954000Y-112100000D01*
X106954000Y-112647844D01*
X106960401Y-112707372D01*
X106960403Y-112707379D01*
X107010645Y-112842086D01*
X107010649Y-112842093D01*
X107096809Y-112957187D01*
X107096812Y-112957190D01*
X107211906Y-113043350D01*
X107211913Y-113043354D01*
X107346620Y-113093596D01*
X107346627Y-113093598D01*
X107406155Y-113099999D01*
X107406172Y-113100000D01*
X107954000Y-113100000D01*
X107954000Y-112100000D01*
X108454000Y-112100000D01*
X108454000Y-113100000D01*
X109001828Y-113100000D01*
X109001844Y-113099999D01*
X109061372Y-113093598D01*
X109061379Y-113093596D01*
X109196086Y-113043354D01*
X109196093Y-113043350D01*
X109311187Y-112957190D01*
X109311190Y-112957187D01*
X109397350Y-112842093D01*
X109397354Y-112842086D01*
X109447596Y-112707379D01*
X109447598Y-112707372D01*
X109453999Y-112647844D01*
X109454000Y-112647827D01*
X109454000Y-112100000D01*
X120670000Y-112100000D01*
X120670000Y-112647844D01*
X120676401Y-112707372D01*
X120676403Y-112707379D01*
X120726645Y-112842086D01*
X120726649Y-112842093D01*
X120812809Y-112957187D01*
X120812812Y-112957190D01*
X120927906Y-113043350D01*
X120927913Y-113043354D01*
X121062620Y-113093596D01*
X121062627Y-113093598D01*
X121122155Y-113099999D01*
X121122172Y-113100000D01*
X121670000Y-113100000D01*
X121670000Y-112100000D01*
X122170000Y-112100000D01*
X122170000Y-113100000D01*
X122717828Y-113100000D01*
X122717844Y-113099999D01*
X122777372Y-113093598D01*
X122777379Y-113093596D01*
X122912086Y-113043354D01*
X122912093Y-113043350D01*
X123027187Y-112957190D01*
X123027190Y-112957187D01*
X123113350Y-112842093D01*
X123113354Y-112842086D01*
X123163596Y-112707379D01*
X123163598Y-112707372D01*
X123169999Y-112647844D01*
X123170000Y-112647827D01*
X123170000Y-112100000D01*
X122170000Y-112100000D01*
X121670000Y-112100000D01*
X120670000Y-112100000D01*
X109454000Y-112100000D01*
X108454000Y-112100000D01*
X107954000Y-112100000D01*
X106954000Y-112100000D01*
X99560500Y-112100000D01*
X99560500Y-111600000D01*
X106954000Y-111600000D01*
X107954000Y-111600000D01*
X107954000Y-110600000D01*
X108454000Y-110600000D01*
X108454000Y-111600000D01*
X109454000Y-111600000D01*
X120670000Y-111600000D01*
X121670000Y-111600000D01*
X121670000Y-110600000D01*
X122170000Y-110600000D01*
X122170000Y-111600000D01*
X123170000Y-111600000D01*
X123170000Y-111052172D01*
X123169999Y-111052155D01*
X123163598Y-110992627D01*
X123163596Y-110992620D01*
X123113354Y-110857913D01*
X123113350Y-110857906D01*
X123027190Y-110742812D01*
X123027187Y-110742809D01*
X122912093Y-110656649D01*
X122912086Y-110656645D01*
X122777379Y-110606403D01*
X122777372Y-110606401D01*
X122717844Y-110600000D01*
X122170000Y-110600000D01*
X121670000Y-110600000D01*
X121122155Y-110600000D01*
X121062627Y-110606401D01*
X121062620Y-110606403D01*
X120927913Y-110656645D01*
X120927906Y-110656649D01*
X120812812Y-110742809D01*
X120812809Y-110742812D01*
X120726649Y-110857906D01*
X120726645Y-110857913D01*
X120676403Y-110992620D01*
X120676401Y-110992627D01*
X120670000Y-111052155D01*
X120670000Y-111600000D01*
X109454000Y-111600000D01*
X109454000Y-111052172D01*
X109453999Y-111052155D01*
X109447598Y-110992627D01*
X109447596Y-110992620D01*
X109397354Y-110857913D01*
X109397350Y-110857906D01*
X109311190Y-110742812D01*
X109311187Y-110742809D01*
X109196093Y-110656649D01*
X109196086Y-110656645D01*
X109061379Y-110606403D01*
X109061372Y-110606401D01*
X109001844Y-110600000D01*
X108454000Y-110600000D01*
X107954000Y-110600000D01*
X107406155Y-110600000D01*
X107346627Y-110606401D01*
X107346620Y-110606403D01*
X107211913Y-110656645D01*
X107211906Y-110656649D01*
X107096812Y-110742809D01*
X107096809Y-110742812D01*
X107010649Y-110857906D01*
X107010645Y-110857913D01*
X106960403Y-110992620D01*
X106960401Y-110992627D01*
X106954000Y-111052155D01*
X106954000Y-111600000D01*
X99560500Y-111600000D01*
X99560500Y-93050000D01*
X106954000Y-93050000D01*
X106954000Y-93597844D01*
X106960401Y-93657372D01*
X106960403Y-93657379D01*
X107010645Y-93792086D01*
X107010649Y-93792093D01*
X107096809Y-93907187D01*
X107096812Y-93907190D01*
X107211906Y-93993350D01*
X107211913Y-93993354D01*
X107346620Y-94043596D01*
X107346627Y-94043598D01*
X107406155Y-94049999D01*
X107406172Y-94050000D01*
X107954000Y-94050000D01*
X107954000Y-93050000D01*
X108454000Y-93050000D01*
X108454000Y-94050000D01*
X109001828Y-94050000D01*
X109001844Y-94049999D01*
X109061372Y-94043598D01*
X109061379Y-94043596D01*
X109196086Y-93993354D01*
X109196093Y-93993350D01*
X109311187Y-93907190D01*
X109311190Y-93907187D01*
X109397350Y-93792093D01*
X109397354Y-93792086D01*
X109447596Y-93657379D01*
X109447598Y-93657372D01*
X109453999Y-93597844D01*
X109454000Y-93597827D01*
X109454000Y-93050000D01*
X108454000Y-93050000D01*
X107954000Y-93050000D01*
X106954000Y-93050000D01*
X99560500Y-93050000D01*
X99560500Y-92550000D01*
X106954000Y-92550000D01*
X107954000Y-92550000D01*
X107954000Y-91550000D01*
X108454000Y-91550000D01*
X108454000Y-92550000D01*
X109454000Y-92550000D01*
X109454000Y-92002172D01*
X109453999Y-92002155D01*
X109447598Y-91942627D01*
X109447596Y-91942620D01*
X109397354Y-91807913D01*
X109397350Y-91807906D01*
X109311190Y-91692812D01*
X109311187Y-91692809D01*
X109196093Y-91606649D01*
X109196086Y-91606645D01*
X109061379Y-91556403D01*
X109061372Y-91556401D01*
X109001844Y-91550000D01*
X108454000Y-91550000D01*
X107954000Y-91550000D01*
X107406155Y-91550000D01*
X107346627Y-91556401D01*
X107346620Y-91556403D01*
X107211913Y-91606645D01*
X107211906Y-91606649D01*
X107096812Y-91692809D01*
X107096809Y-91692812D01*
X107010649Y-91807906D01*
X107010645Y-91807913D01*
X106960403Y-91942620D01*
X106960401Y-91942627D01*
X106954000Y-92002155D01*
X106954000Y-92550000D01*
X99560500Y-92550000D01*
X99560500Y-79970855D01*
X103955500Y-79970855D01*
X103965913Y-80072776D01*
X104020637Y-80237922D01*
X104020642Y-80237933D01*
X104111971Y-80385999D01*
X104111974Y-80386003D01*
X104234996Y-80509025D01*
X104235000Y-80509028D01*
X104383066Y-80600357D01*
X104383069Y-80600358D01*
X104383075Y-80600362D01*
X104548225Y-80655087D01*
X104650152Y-80665500D01*
X104650157Y-80665500D01*
X105661843Y-80665500D01*
X105661848Y-80665500D01*
X105763775Y-80655087D01*
X105928925Y-80600362D01*
X106077003Y-80509026D01*
X106171711Y-80414318D01*
X106233035Y-80380834D01*
X106259392Y-80378000D01*
X110402608Y-80378000D01*
X110469647Y-80397685D01*
X110490289Y-80414318D01*
X110584997Y-80509026D01*
X110584999Y-80509027D01*
X110585000Y-80509028D01*
X110733066Y-80600357D01*
X110733069Y-80600358D01*
X110733075Y-80600362D01*
X110898225Y-80655087D01*
X111000152Y-80665500D01*
X111119481Y-80665500D01*
X111186520Y-80685185D01*
X111207162Y-80701819D01*
X114394259Y-83888916D01*
X114427744Y-83950239D01*
X114422760Y-84019931D01*
X114380888Y-84075864D01*
X114315424Y-84100281D01*
X114293611Y-84099917D01*
X114289646Y-84099500D01*
X114100354Y-84099500D01*
X114087788Y-84102171D01*
X113915197Y-84138855D01*
X113915192Y-84138857D01*
X113742270Y-84215848D01*
X113742265Y-84215851D01*
X113659729Y-84275818D01*
X113593923Y-84299298D01*
X113586844Y-84299500D01*
X109576351Y-84299500D01*
X109509312Y-84279815D01*
X109463557Y-84227011D01*
X109453061Y-84188752D01*
X109448091Y-84142516D01*
X109397797Y-84007671D01*
X109397793Y-84007664D01*
X109311547Y-83892455D01*
X109311544Y-83892452D01*
X109196335Y-83806206D01*
X109196328Y-83806202D01*
X109061482Y-83755908D01*
X109061483Y-83755908D01*
X109001883Y-83749501D01*
X109001881Y-83749500D01*
X109001873Y-83749500D01*
X109001864Y-83749500D01*
X107406129Y-83749500D01*
X107406123Y-83749501D01*
X107346516Y-83755908D01*
X107211671Y-83806202D01*
X107211664Y-83806206D01*
X107096455Y-83892452D01*
X107096452Y-83892455D01*
X107010206Y-84007664D01*
X107010202Y-84007671D01*
X106959908Y-84142517D01*
X106953501Y-84202116D01*
X106953500Y-84202135D01*
X106953500Y-85797870D01*
X106953501Y-85797876D01*
X106959908Y-85857483D01*
X107010202Y-85992328D01*
X107010206Y-85992335D01*
X107096452Y-86107544D01*
X107096455Y-86107547D01*
X107211664Y-86193793D01*
X107211671Y-86193797D01*
X107346517Y-86244091D01*
X107346516Y-86244091D01*
X107353444Y-86244835D01*
X107406127Y-86250500D01*
X109001872Y-86250499D01*
X109061483Y-86244091D01*
X109196331Y-86193796D01*
X109311546Y-86107546D01*
X109397796Y-85992331D01*
X109448091Y-85857483D01*
X109453062Y-85811242D01*
X109479799Y-85746694D01*
X109537191Y-85706846D01*
X109576351Y-85700500D01*
X113586844Y-85700500D01*
X113653883Y-85720185D01*
X113659729Y-85724182D01*
X113742265Y-85784148D01*
X113742270Y-85784151D01*
X113915191Y-85861142D01*
X113915193Y-85861142D01*
X113915197Y-85861144D01*
X114070130Y-85894075D01*
X114131607Y-85927266D01*
X114132026Y-85927683D01*
X114833181Y-86628838D01*
X114866666Y-86690161D01*
X114869500Y-86716519D01*
X114869500Y-86926868D01*
X114849815Y-86993907D01*
X114802724Y-87035041D01*
X114803221Y-87035846D01*
X114798400Y-87038819D01*
X114797911Y-87039247D01*
X114797075Y-87039636D01*
X114649000Y-87130971D01*
X114648996Y-87130974D01*
X114525974Y-87253996D01*
X114525971Y-87254000D01*
X114434642Y-87402066D01*
X114434638Y-87402075D01*
X114416837Y-87455796D01*
X114377064Y-87513240D01*
X114312548Y-87540063D01*
X114243772Y-87527748D01*
X114192572Y-87480204D01*
X114181425Y-87455796D01*
X114164814Y-87405666D01*
X114072712Y-87256344D01*
X113948656Y-87132288D01*
X113799334Y-87040186D01*
X113632797Y-86985001D01*
X113632795Y-86985000D01*
X113530010Y-86974500D01*
X112529998Y-86974500D01*
X112529980Y-86974501D01*
X112427203Y-86985000D01*
X112427200Y-86985001D01*
X112260668Y-87040185D01*
X112260663Y-87040187D01*
X112111342Y-87132289D01*
X111987289Y-87256342D01*
X111895187Y-87405663D01*
X111895185Y-87405668D01*
X111867349Y-87489670D01*
X111840001Y-87572203D01*
X111840001Y-87572204D01*
X111840000Y-87572204D01*
X111829500Y-87674983D01*
X111829500Y-88300001D01*
X111829501Y-88300019D01*
X111840000Y-88402796D01*
X111840001Y-88402799D01*
X111879810Y-88522933D01*
X111895186Y-88569334D01*
X111970584Y-88691575D01*
X111987289Y-88718657D01*
X112080951Y-88812319D01*
X112114436Y-88873642D01*
X112109452Y-88943334D01*
X112080951Y-88987681D01*
X111987289Y-89081342D01*
X111895187Y-89230663D01*
X111895185Y-89230668D01*
X111879807Y-89277077D01*
X111840001Y-89397203D01*
X111840001Y-89397204D01*
X111840000Y-89397204D01*
X111829500Y-89499983D01*
X111829500Y-90125001D01*
X111829501Y-90125019D01*
X111840000Y-90227796D01*
X111840001Y-90227799D01*
X111895185Y-90394331D01*
X111895187Y-90394336D01*
X111897401Y-90397925D01*
X111987288Y-90543656D01*
X112111344Y-90667712D01*
X112260666Y-90759814D01*
X112427203Y-90814999D01*
X112529991Y-90825500D01*
X113000980Y-90825499D01*
X113068019Y-90845183D01*
X113088661Y-90861818D01*
X113920681Y-91693838D01*
X113954166Y-91755161D01*
X113957000Y-91781519D01*
X113957000Y-99148000D01*
X113937315Y-99215039D01*
X113884511Y-99260794D01*
X113833000Y-99272000D01*
X111868730Y-99272000D01*
X111801691Y-99252315D01*
X111781049Y-99235681D01*
X111693049Y-99147681D01*
X111659564Y-99086358D01*
X111664548Y-99016666D01*
X111693049Y-98972319D01*
X111711344Y-98954024D01*
X111786712Y-98878656D01*
X111878814Y-98729334D01*
X111933999Y-98562797D01*
X111944500Y-98460009D01*
X111944499Y-97834992D01*
X111943902Y-97829152D01*
X111933999Y-97732203D01*
X111933998Y-97732200D01*
X111928432Y-97715403D01*
X111878814Y-97565666D01*
X111786712Y-97416344D01*
X111662656Y-97292288D01*
X111513334Y-97200186D01*
X111346797Y-97145001D01*
X111346795Y-97145000D01*
X111244010Y-97134500D01*
X110243998Y-97134500D01*
X110243980Y-97134501D01*
X110141203Y-97145000D01*
X110141200Y-97145001D01*
X109974668Y-97200185D01*
X109974663Y-97200187D01*
X109825342Y-97292289D01*
X109731951Y-97385681D01*
X109670628Y-97419166D01*
X109644270Y-97422000D01*
X109307392Y-97422000D01*
X109240353Y-97402315D01*
X109219711Y-97385682D01*
X109219710Y-97385681D01*
X109125003Y-97290974D01*
X109125000Y-97290972D01*
X109124999Y-97290971D01*
X108976933Y-97199642D01*
X108976927Y-97199639D01*
X108976925Y-97199638D01*
X108976922Y-97199637D01*
X108811776Y-97144913D01*
X108709855Y-97134500D01*
X108709848Y-97134500D01*
X107698152Y-97134500D01*
X107698144Y-97134500D01*
X107596223Y-97144913D01*
X107431077Y-97199637D01*
X107431066Y-97199642D01*
X107283000Y-97290971D01*
X107282996Y-97290974D01*
X107159974Y-97413996D01*
X107159971Y-97414000D01*
X107068642Y-97562066D01*
X107068637Y-97562077D01*
X107013913Y-97727223D01*
X107003500Y-97829144D01*
X107003500Y-98415855D01*
X107013913Y-98517776D01*
X107068637Y-98682922D01*
X107068642Y-98682933D01*
X107159971Y-98830999D01*
X107159974Y-98831003D01*
X107282996Y-98954025D01*
X107283000Y-98954028D01*
X107283703Y-98954462D01*
X107284083Y-98954885D01*
X107288664Y-98958507D01*
X107288045Y-98959289D01*
X107330428Y-99006410D01*
X107341649Y-99075372D01*
X107313806Y-99139454D01*
X107288544Y-99161342D01*
X107288664Y-99161493D01*
X107285315Y-99164140D01*
X107283703Y-99165538D01*
X107283000Y-99165971D01*
X107282996Y-99165974D01*
X107159974Y-99288996D01*
X107159971Y-99289000D01*
X107068642Y-99437066D01*
X107068637Y-99437077D01*
X107013913Y-99602223D01*
X107003500Y-99704144D01*
X107003500Y-100290855D01*
X107013913Y-100392776D01*
X107068637Y-100557922D01*
X107068642Y-100557933D01*
X107159971Y-100705999D01*
X107159974Y-100706003D01*
X107282996Y-100829025D01*
X107283000Y-100829028D01*
X107431066Y-100920357D01*
X107431069Y-100920358D01*
X107431075Y-100920362D01*
X107431080Y-100920363D01*
X107431892Y-100920742D01*
X107432364Y-100921157D01*
X107437222Y-100924154D01*
X107436710Y-100924983D01*
X107484336Y-100966908D01*
X107503500Y-101033130D01*
X107503500Y-102677648D01*
X107483815Y-102744687D01*
X107431011Y-102790442D01*
X107392755Y-102800938D01*
X107346516Y-102805909D01*
X107211671Y-102856202D01*
X107211664Y-102856206D01*
X107096455Y-102942452D01*
X107096452Y-102942455D01*
X107010206Y-103057664D01*
X107010202Y-103057671D01*
X106959908Y-103192517D01*
X106953501Y-103252116D01*
X106953501Y-103252123D01*
X106953500Y-103252135D01*
X106953500Y-104847870D01*
X106953501Y-104847876D01*
X106959908Y-104907483D01*
X107010202Y-105042328D01*
X107010206Y-105042335D01*
X107096452Y-105157544D01*
X107096455Y-105157547D01*
X107211664Y-105243793D01*
X107211671Y-105243797D01*
X107256618Y-105260561D01*
X107346517Y-105294091D01*
X107406127Y-105300500D01*
X107476664Y-105300499D01*
X107543703Y-105320183D01*
X107577758Y-105357137D01*
X107579841Y-105355746D01*
X107659887Y-105475545D01*
X109408454Y-107224112D01*
X109523192Y-107300777D01*
X109650667Y-107353578D01*
X109650672Y-107353580D01*
X109650676Y-107353580D01*
X109650677Y-107353581D01*
X109786003Y-107380500D01*
X109786006Y-107380500D01*
X123886496Y-107380500D01*
X123977540Y-107362389D01*
X124021828Y-107353580D01*
X124085569Y-107327177D01*
X124149307Y-107300777D01*
X124149308Y-107300776D01*
X124149311Y-107300775D01*
X124264043Y-107224114D01*
X127204114Y-104284043D01*
X127280775Y-104169311D01*
X127333580Y-104041828D01*
X127339850Y-104010305D01*
X127372234Y-103948397D01*
X127432950Y-103913823D01*
X127461467Y-103910499D01*
X127557871Y-103910499D01*
X127557872Y-103910499D01*
X127617483Y-103904091D01*
X127752331Y-103853796D01*
X127867546Y-103767546D01*
X127953796Y-103652331D01*
X128004091Y-103517483D01*
X128010500Y-103457873D01*
X128010499Y-101662128D01*
X128004091Y-101602517D01*
X127953796Y-101467669D01*
X127953795Y-101467668D01*
X127953793Y-101467664D01*
X127867547Y-101352455D01*
X127867544Y-101352452D01*
X127752335Y-101266206D01*
X127752328Y-101266202D01*
X127620917Y-101217189D01*
X127564983Y-101175318D01*
X127540566Y-101109853D01*
X127555418Y-101041580D01*
X127576563Y-101013332D01*
X127698495Y-100891401D01*
X127834035Y-100697830D01*
X127933903Y-100483663D01*
X127995063Y-100255408D01*
X128015659Y-100020000D01*
X127995063Y-99784592D01*
X127933903Y-99556337D01*
X127834035Y-99342171D01*
X127811683Y-99310248D01*
X127698494Y-99148597D01*
X127531402Y-98981506D01*
X127531396Y-98981501D01*
X127345842Y-98851575D01*
X127302217Y-98796998D01*
X127295023Y-98727500D01*
X127326546Y-98665145D01*
X127345842Y-98648425D01*
X127468131Y-98562797D01*
X127531401Y-98518495D01*
X127698495Y-98351401D01*
X127834035Y-98157830D01*
X127933903Y-97943663D01*
X127995063Y-97715408D01*
X128015659Y-97480000D01*
X127995063Y-97244592D01*
X127933903Y-97016337D01*
X127834035Y-96802171D01*
X127698495Y-96608599D01*
X127698494Y-96608597D01*
X127531402Y-96441506D01*
X127531396Y-96441501D01*
X127345842Y-96311575D01*
X127302217Y-96256998D01*
X127295023Y-96187500D01*
X127326546Y-96125145D01*
X127345842Y-96108425D01*
X127392469Y-96075776D01*
X127531401Y-95978495D01*
X127698495Y-95811401D01*
X127834035Y-95617830D01*
X127933903Y-95403663D01*
X127995063Y-95175408D01*
X128015659Y-94940000D01*
X127995063Y-94704592D01*
X127933903Y-94476337D01*
X127834035Y-94262171D01*
X127795607Y-94207289D01*
X127698494Y-94068597D01*
X127531402Y-93901506D01*
X127531401Y-93901505D01*
X127345405Y-93771269D01*
X127301781Y-93716692D01*
X127294588Y-93647193D01*
X127326110Y-93584839D01*
X127345405Y-93568119D01*
X127531082Y-93438105D01*
X127698105Y-93271082D01*
X127833600Y-93077578D01*
X127933429Y-92863492D01*
X127933432Y-92863486D01*
X127990636Y-92650000D01*
X127093012Y-92650000D01*
X127125925Y-92592993D01*
X127160000Y-92465826D01*
X127160000Y-92334174D01*
X127125925Y-92207007D01*
X127093012Y-92150000D01*
X127990636Y-92150000D01*
X127990635Y-92149999D01*
X127933432Y-91936513D01*
X127933429Y-91936507D01*
X127833600Y-91722422D01*
X127833599Y-91722420D01*
X127698113Y-91528926D01*
X127698108Y-91528920D01*
X127531078Y-91361890D01*
X127345405Y-91231879D01*
X127301780Y-91177302D01*
X127294588Y-91107804D01*
X127326110Y-91045449D01*
X127345406Y-91028730D01*
X127426042Y-90972268D01*
X127531401Y-90898495D01*
X127698495Y-90731401D01*
X127834035Y-90537830D01*
X127933903Y-90323663D01*
X127995063Y-90095408D01*
X128015659Y-89860000D01*
X127995063Y-89624592D01*
X127933903Y-89396337D01*
X127834035Y-89182171D01*
X127811683Y-89150248D01*
X127698494Y-88988597D01*
X127531402Y-88821506D01*
X127531396Y-88821501D01*
X127345842Y-88691575D01*
X127302217Y-88636998D01*
X127295023Y-88567500D01*
X127326546Y-88505145D01*
X127345842Y-88488425D01*
X127468131Y-88402797D01*
X127531401Y-88358495D01*
X127698495Y-88191401D01*
X127834035Y-87997830D01*
X127933903Y-87783663D01*
X127995063Y-87555408D01*
X128015659Y-87320000D01*
X127995063Y-87084592D01*
X127933903Y-86856337D01*
X127834035Y-86642171D01*
X127824700Y-86628838D01*
X127698494Y-86448597D01*
X127531402Y-86281506D01*
X127531396Y-86281501D01*
X127345842Y-86151575D01*
X127302217Y-86096998D01*
X127295023Y-86027500D01*
X127326546Y-85965145D01*
X127345842Y-85948425D01*
X127374359Y-85928457D01*
X127531401Y-85818495D01*
X127698495Y-85651401D01*
X127834035Y-85457830D01*
X127933903Y-85243663D01*
X127995063Y-85015408D01*
X128015659Y-84780000D01*
X127995063Y-84544592D01*
X127933903Y-84316337D01*
X127834035Y-84102171D01*
X127776451Y-84019931D01*
X127698494Y-83908597D01*
X127531402Y-83741506D01*
X127531395Y-83741501D01*
X127337834Y-83605967D01*
X127337830Y-83605965D01*
X127337828Y-83605964D01*
X127123663Y-83506097D01*
X127123659Y-83506096D01*
X127123655Y-83506094D01*
X126895413Y-83444938D01*
X126895403Y-83444936D01*
X126660001Y-83424341D01*
X126659999Y-83424341D01*
X126424596Y-83444936D01*
X126424586Y-83444938D01*
X126196344Y-83506094D01*
X126196335Y-83506098D01*
X125982171Y-83605964D01*
X125982169Y-83605965D01*
X125788597Y-83741505D01*
X125621505Y-83908597D01*
X125485965Y-84102169D01*
X125485964Y-84102171D01*
X125386098Y-84316335D01*
X125386094Y-84316344D01*
X125324938Y-84544586D01*
X125324936Y-84544596D01*
X125304341Y-84779999D01*
X125304341Y-84780000D01*
X125324936Y-85015403D01*
X125324938Y-85015413D01*
X125386094Y-85243655D01*
X125386096Y-85243659D01*
X125386097Y-85243663D01*
X125485965Y-85457830D01*
X125485967Y-85457834D01*
X125621501Y-85651395D01*
X125621506Y-85651402D01*
X125788597Y-85818493D01*
X125788603Y-85818498D01*
X125974158Y-85948425D01*
X126017783Y-86003002D01*
X126024977Y-86072500D01*
X125993454Y-86134855D01*
X125974158Y-86151575D01*
X125788597Y-86281505D01*
X125621505Y-86448597D01*
X125485965Y-86642169D01*
X125485964Y-86642171D01*
X125386098Y-86856335D01*
X125386094Y-86856344D01*
X125324938Y-87084586D01*
X125324936Y-87084596D01*
X125304341Y-87319999D01*
X125304341Y-87320000D01*
X125324936Y-87555403D01*
X125324938Y-87555413D01*
X125386094Y-87783655D01*
X125386096Y-87783659D01*
X125386097Y-87783663D01*
X125485965Y-87997830D01*
X125485967Y-87997834D01*
X125621501Y-88191395D01*
X125621506Y-88191402D01*
X125788597Y-88358493D01*
X125788603Y-88358498D01*
X125974158Y-88488425D01*
X126017783Y-88543002D01*
X126024977Y-88612500D01*
X125993454Y-88674855D01*
X125974158Y-88691575D01*
X125788597Y-88821505D01*
X125621506Y-88988596D01*
X125538864Y-89106623D01*
X125484287Y-89150248D01*
X125437289Y-89159500D01*
X123647230Y-89159500D01*
X123580191Y-89139815D01*
X123569662Y-89131331D01*
X123569319Y-89131766D01*
X123563658Y-89127290D01*
X123563656Y-89127288D01*
X123414334Y-89035186D01*
X123247797Y-88980001D01*
X123247795Y-88980000D01*
X123145010Y-88969500D01*
X122519998Y-88969500D01*
X122519980Y-88969501D01*
X122417203Y-88980000D01*
X122417200Y-88980001D01*
X122250668Y-89035185D01*
X122250663Y-89035187D01*
X122101342Y-89127289D01*
X122007681Y-89220951D01*
X121946358Y-89254436D01*
X121876666Y-89249452D01*
X121832319Y-89220951D01*
X121744319Y-89132951D01*
X121710834Y-89071628D01*
X121708000Y-89045270D01*
X121708000Y-86344019D01*
X121727685Y-86276980D01*
X121744319Y-86256338D01*
X126274112Y-81726545D01*
X126274114Y-81726543D01*
X126350775Y-81611811D01*
X126403580Y-81484328D01*
X126430500Y-81348994D01*
X126430500Y-81211006D01*
X126430500Y-78671007D01*
X126430500Y-78671004D01*
X126403581Y-78535677D01*
X126403580Y-78535676D01*
X126403580Y-78535672D01*
X126390047Y-78503000D01*
X126350777Y-78408192D01*
X126274112Y-78293454D01*
X126274111Y-78293453D01*
X125420934Y-77440277D01*
X125390909Y-77391600D01*
X125341362Y-77242075D01*
X125341358Y-77242069D01*
X125341357Y-77242066D01*
X125250028Y-77094000D01*
X125250025Y-77093996D01*
X125127003Y-76970974D01*
X125126999Y-76970971D01*
X124978933Y-76879642D01*
X124978927Y-76879639D01*
X124978925Y-76879638D01*
X124978922Y-76879637D01*
X124813776Y-76824913D01*
X124711855Y-76814500D01*
X124711848Y-76814500D01*
X123700152Y-76814500D01*
X123700144Y-76814500D01*
X123598223Y-76824913D01*
X123433077Y-76879637D01*
X123433066Y-76879642D01*
X123285000Y-76970971D01*
X123190289Y-77065682D01*
X123128965Y-77099166D01*
X123102608Y-77102000D01*
X118959392Y-77102000D01*
X118892353Y-77082315D01*
X118871711Y-77065682D01*
X118777003Y-76970974D01*
X118777000Y-76970972D01*
X118776999Y-76970971D01*
X118628933Y-76879642D01*
X118628927Y-76879639D01*
X118628925Y-76879638D01*
X118628922Y-76879637D01*
X118463776Y-76824913D01*
X118361855Y-76814500D01*
X118361848Y-76814500D01*
X117350152Y-76814500D01*
X117350144Y-76814500D01*
X117248223Y-76824913D01*
X117083077Y-76879637D01*
X117083066Y-76879642D01*
X116935000Y-76970971D01*
X116840289Y-77065682D01*
X116778965Y-77099166D01*
X116752608Y-77102000D01*
X112609392Y-77102000D01*
X112542353Y-77082315D01*
X112521711Y-77065682D01*
X112427003Y-76970974D01*
X112427000Y-76970972D01*
X112426999Y-76970971D01*
X112278933Y-76879642D01*
X112278927Y-76879639D01*
X112278925Y-76879638D01*
X112278922Y-76879637D01*
X112113776Y-76824913D01*
X112011855Y-76814500D01*
X112011848Y-76814500D01*
X111000152Y-76814500D01*
X111000144Y-76814500D01*
X110898223Y-76824913D01*
X110733077Y-76879637D01*
X110733066Y-76879642D01*
X110585000Y-76970971D01*
X110490289Y-77065682D01*
X110428965Y-77099166D01*
X110402608Y-77102000D01*
X106259392Y-77102000D01*
X106192353Y-77082315D01*
X106171711Y-77065682D01*
X106077003Y-76970974D01*
X106077000Y-76970972D01*
X106076999Y-76970971D01*
X105928933Y-76879642D01*
X105928927Y-76879639D01*
X105928925Y-76879638D01*
X105928922Y-76879637D01*
X105763776Y-76824913D01*
X105661855Y-76814500D01*
X105661848Y-76814500D01*
X104650152Y-76814500D01*
X104650144Y-76814500D01*
X104548223Y-76824913D01*
X104383077Y-76879637D01*
X104383066Y-76879642D01*
X104235000Y-76970971D01*
X104234996Y-76970974D01*
X104111974Y-77093996D01*
X104111971Y-77094000D01*
X104020642Y-77242066D01*
X104020637Y-77242077D01*
X103965913Y-77407223D01*
X103955500Y-77509144D01*
X103955500Y-78095855D01*
X103965913Y-78197776D01*
X104020637Y-78362922D01*
X104020642Y-78362933D01*
X104111971Y-78510999D01*
X104111974Y-78511003D01*
X104234996Y-78634025D01*
X104235000Y-78634028D01*
X104235703Y-78634462D01*
X104236083Y-78634885D01*
X104240664Y-78638507D01*
X104240045Y-78639289D01*
X104282428Y-78686410D01*
X104293649Y-78755372D01*
X104265806Y-78819454D01*
X104240544Y-78841342D01*
X104240664Y-78841493D01*
X104237315Y-78844140D01*
X104235703Y-78845538D01*
X104235000Y-78845971D01*
X104234996Y-78845974D01*
X104111974Y-78968996D01*
X104111971Y-78969000D01*
X104020642Y-79117066D01*
X104020637Y-79117077D01*
X103965913Y-79282223D01*
X103955500Y-79384144D01*
X103955500Y-79970855D01*
X99560500Y-79970855D01*
X99560500Y-74284500D01*
X99580185Y-74217461D01*
X99632989Y-74171706D01*
X99684500Y-74160500D01*
X130435500Y-74160500D01*
X130502539Y-74180185D01*
G37*
%TD.AperFunction*%
%TD*%
M02*
