%TF.GenerationSoftware,KiCad,Pcbnew,8.0.1*%
%TF.CreationDate,2024-04-28T14:25:20+02:00*%
%TF.ProjectId,top_led_btn_2MU_TOP,746f705f-6c65-4645-9f62-746e5f324d55,rev?*%
%TF.SameCoordinates,Original*%
%TF.FileFunction,Legend,Top*%
%TF.FilePolarity,Positive*%
%FSLAX46Y46*%
G04 Gerber Fmt 4.6, Leading zero omitted, Abs format (unit mm)*
G04 Created by KiCad (PCBNEW 8.0.1) date 2024-04-28 14:25:20*
%MOMM*%
%LPD*%
G01*
G04 APERTURE LIST*
%ADD10C,0.300000*%
%ADD11C,0.150000*%
%ADD12C,0.120000*%
G04 APERTURE END LIST*
D10*
X117172828Y-110665774D02*
X117172828Y-110380060D01*
X117172828Y-110380060D02*
X117244257Y-110237203D01*
X117244257Y-110237203D02*
X117387114Y-110094346D01*
X117387114Y-110094346D02*
X117672828Y-110022917D01*
X117672828Y-110022917D02*
X118172828Y-110022917D01*
X118172828Y-110022917D02*
X118458542Y-110094346D01*
X118458542Y-110094346D02*
X118601400Y-110237203D01*
X118601400Y-110237203D02*
X118672828Y-110380060D01*
X118672828Y-110380060D02*
X118672828Y-110665774D01*
X118672828Y-110665774D02*
X118601400Y-110808632D01*
X118601400Y-110808632D02*
X118458542Y-110951489D01*
X118458542Y-110951489D02*
X118172828Y-111022917D01*
X118172828Y-111022917D02*
X117672828Y-111022917D01*
X117672828Y-111022917D02*
X117387114Y-110951489D01*
X117387114Y-110951489D02*
X117244257Y-110808632D01*
X117244257Y-110808632D02*
X117172828Y-110665774D01*
X117172828Y-109380060D02*
X118387114Y-109380060D01*
X118387114Y-109380060D02*
X118529971Y-109308631D01*
X118529971Y-109308631D02*
X118601400Y-109237203D01*
X118601400Y-109237203D02*
X118672828Y-109094345D01*
X118672828Y-109094345D02*
X118672828Y-108808631D01*
X118672828Y-108808631D02*
X118601400Y-108665774D01*
X118601400Y-108665774D02*
X118529971Y-108594345D01*
X118529971Y-108594345D02*
X118387114Y-108522917D01*
X118387114Y-108522917D02*
X117172828Y-108522917D01*
X117172828Y-108022916D02*
X117172828Y-107165774D01*
X118672828Y-107594345D02*
X117172828Y-107594345D01*
X117887114Y-105022917D02*
X117958542Y-104808631D01*
X117958542Y-104808631D02*
X118029971Y-104737202D01*
X118029971Y-104737202D02*
X118172828Y-104665774D01*
X118172828Y-104665774D02*
X118387114Y-104665774D01*
X118387114Y-104665774D02*
X118529971Y-104737202D01*
X118529971Y-104737202D02*
X118601400Y-104808631D01*
X118601400Y-104808631D02*
X118672828Y-104951488D01*
X118672828Y-104951488D02*
X118672828Y-105522917D01*
X118672828Y-105522917D02*
X117172828Y-105522917D01*
X117172828Y-105522917D02*
X117172828Y-105022917D01*
X117172828Y-105022917D02*
X117244257Y-104880060D01*
X117244257Y-104880060D02*
X117315685Y-104808631D01*
X117315685Y-104808631D02*
X117458542Y-104737202D01*
X117458542Y-104737202D02*
X117601400Y-104737202D01*
X117601400Y-104737202D02*
X117744257Y-104808631D01*
X117744257Y-104808631D02*
X117815685Y-104880060D01*
X117815685Y-104880060D02*
X117887114Y-105022917D01*
X117887114Y-105022917D02*
X117887114Y-105522917D01*
X103456828Y-110665774D02*
X103456828Y-110380060D01*
X103456828Y-110380060D02*
X103528257Y-110237203D01*
X103528257Y-110237203D02*
X103671114Y-110094346D01*
X103671114Y-110094346D02*
X103956828Y-110022917D01*
X103956828Y-110022917D02*
X104456828Y-110022917D01*
X104456828Y-110022917D02*
X104742542Y-110094346D01*
X104742542Y-110094346D02*
X104885400Y-110237203D01*
X104885400Y-110237203D02*
X104956828Y-110380060D01*
X104956828Y-110380060D02*
X104956828Y-110665774D01*
X104956828Y-110665774D02*
X104885400Y-110808632D01*
X104885400Y-110808632D02*
X104742542Y-110951489D01*
X104742542Y-110951489D02*
X104456828Y-111022917D01*
X104456828Y-111022917D02*
X103956828Y-111022917D01*
X103956828Y-111022917D02*
X103671114Y-110951489D01*
X103671114Y-110951489D02*
X103528257Y-110808632D01*
X103528257Y-110808632D02*
X103456828Y-110665774D01*
X103456828Y-109380060D02*
X104671114Y-109380060D01*
X104671114Y-109380060D02*
X104813971Y-109308631D01*
X104813971Y-109308631D02*
X104885400Y-109237203D01*
X104885400Y-109237203D02*
X104956828Y-109094345D01*
X104956828Y-109094345D02*
X104956828Y-108808631D01*
X104956828Y-108808631D02*
X104885400Y-108665774D01*
X104885400Y-108665774D02*
X104813971Y-108594345D01*
X104813971Y-108594345D02*
X104671114Y-108522917D01*
X104671114Y-108522917D02*
X103456828Y-108522917D01*
X103456828Y-108022916D02*
X103456828Y-107165774D01*
X104956828Y-107594345D02*
X103456828Y-107594345D01*
X104528257Y-105594345D02*
X104528257Y-104880060D01*
X104956828Y-105737202D02*
X103456828Y-105237202D01*
X103456828Y-105237202D02*
X104956828Y-104737202D01*
X105210828Y-91647489D02*
X103710828Y-91647489D01*
X103710828Y-91647489D02*
X103710828Y-91076060D01*
X103710828Y-91076060D02*
X103782257Y-90933203D01*
X103782257Y-90933203D02*
X103853685Y-90861774D01*
X103853685Y-90861774D02*
X103996542Y-90790346D01*
X103996542Y-90790346D02*
X104210828Y-90790346D01*
X104210828Y-90790346D02*
X104353685Y-90861774D01*
X104353685Y-90861774D02*
X104425114Y-90933203D01*
X104425114Y-90933203D02*
X104496542Y-91076060D01*
X104496542Y-91076060D02*
X104496542Y-91647489D01*
X105210828Y-89290346D02*
X104496542Y-89790346D01*
X105210828Y-90147489D02*
X103710828Y-90147489D01*
X103710828Y-90147489D02*
X103710828Y-89576060D01*
X103710828Y-89576060D02*
X103782257Y-89433203D01*
X103782257Y-89433203D02*
X103853685Y-89361774D01*
X103853685Y-89361774D02*
X103996542Y-89290346D01*
X103996542Y-89290346D02*
X104210828Y-89290346D01*
X104210828Y-89290346D02*
X104353685Y-89361774D01*
X104353685Y-89361774D02*
X104425114Y-89433203D01*
X104425114Y-89433203D02*
X104496542Y-89576060D01*
X104496542Y-89576060D02*
X104496542Y-90147489D01*
X103710828Y-88361774D02*
X103710828Y-88076060D01*
X103710828Y-88076060D02*
X103782257Y-87933203D01*
X103782257Y-87933203D02*
X103925114Y-87790346D01*
X103925114Y-87790346D02*
X104210828Y-87718917D01*
X104210828Y-87718917D02*
X104710828Y-87718917D01*
X104710828Y-87718917D02*
X104996542Y-87790346D01*
X104996542Y-87790346D02*
X105139400Y-87933203D01*
X105139400Y-87933203D02*
X105210828Y-88076060D01*
X105210828Y-88076060D02*
X105210828Y-88361774D01*
X105210828Y-88361774D02*
X105139400Y-88504632D01*
X105139400Y-88504632D02*
X104996542Y-88647489D01*
X104996542Y-88647489D02*
X104710828Y-88718917D01*
X104710828Y-88718917D02*
X104210828Y-88718917D01*
X104210828Y-88718917D02*
X103925114Y-88647489D01*
X103925114Y-88647489D02*
X103782257Y-88504632D01*
X103782257Y-88504632D02*
X103710828Y-88361774D01*
X103782257Y-86290345D02*
X103710828Y-86433203D01*
X103710828Y-86433203D02*
X103710828Y-86647488D01*
X103710828Y-86647488D02*
X103782257Y-86861774D01*
X103782257Y-86861774D02*
X103925114Y-87004631D01*
X103925114Y-87004631D02*
X104067971Y-87076060D01*
X104067971Y-87076060D02*
X104353685Y-87147488D01*
X104353685Y-87147488D02*
X104567971Y-87147488D01*
X104567971Y-87147488D02*
X104853685Y-87076060D01*
X104853685Y-87076060D02*
X104996542Y-87004631D01*
X104996542Y-87004631D02*
X105139400Y-86861774D01*
X105139400Y-86861774D02*
X105210828Y-86647488D01*
X105210828Y-86647488D02*
X105210828Y-86504631D01*
X105210828Y-86504631D02*
X105139400Y-86290345D01*
X105139400Y-86290345D02*
X105067971Y-86218917D01*
X105067971Y-86218917D02*
X104567971Y-86218917D01*
X104567971Y-86218917D02*
X104567971Y-86504631D01*
D11*
X117117905Y-76654819D02*
X117117905Y-75654819D01*
X117117905Y-75654819D02*
X117356000Y-75654819D01*
X117356000Y-75654819D02*
X117498857Y-75702438D01*
X117498857Y-75702438D02*
X117594095Y-75797676D01*
X117594095Y-75797676D02*
X117641714Y-75892914D01*
X117641714Y-75892914D02*
X117689333Y-76083390D01*
X117689333Y-76083390D02*
X117689333Y-76226247D01*
X117689333Y-76226247D02*
X117641714Y-76416723D01*
X117641714Y-76416723D02*
X117594095Y-76511961D01*
X117594095Y-76511961D02*
X117498857Y-76607200D01*
X117498857Y-76607200D02*
X117356000Y-76654819D01*
X117356000Y-76654819D02*
X117117905Y-76654819D01*
X118546476Y-75654819D02*
X118356000Y-75654819D01*
X118356000Y-75654819D02*
X118260762Y-75702438D01*
X118260762Y-75702438D02*
X118213143Y-75750057D01*
X118213143Y-75750057D02*
X118117905Y-75892914D01*
X118117905Y-75892914D02*
X118070286Y-76083390D01*
X118070286Y-76083390D02*
X118070286Y-76464342D01*
X118070286Y-76464342D02*
X118117905Y-76559580D01*
X118117905Y-76559580D02*
X118165524Y-76607200D01*
X118165524Y-76607200D02*
X118260762Y-76654819D01*
X118260762Y-76654819D02*
X118451238Y-76654819D01*
X118451238Y-76654819D02*
X118546476Y-76607200D01*
X118546476Y-76607200D02*
X118594095Y-76559580D01*
X118594095Y-76559580D02*
X118641714Y-76464342D01*
X118641714Y-76464342D02*
X118641714Y-76226247D01*
X118641714Y-76226247D02*
X118594095Y-76131009D01*
X118594095Y-76131009D02*
X118546476Y-76083390D01*
X118546476Y-76083390D02*
X118451238Y-76035771D01*
X118451238Y-76035771D02*
X118260762Y-76035771D01*
X118260762Y-76035771D02*
X118165524Y-76083390D01*
X118165524Y-76083390D02*
X118117905Y-76131009D01*
X118117905Y-76131009D02*
X118070286Y-76226247D01*
X114831905Y-86814819D02*
X114831905Y-85814819D01*
X114831905Y-85814819D02*
X115070000Y-85814819D01*
X115070000Y-85814819D02*
X115212857Y-85862438D01*
X115212857Y-85862438D02*
X115308095Y-85957676D01*
X115308095Y-85957676D02*
X115355714Y-86052914D01*
X115355714Y-86052914D02*
X115403333Y-86243390D01*
X115403333Y-86243390D02*
X115403333Y-86386247D01*
X115403333Y-86386247D02*
X115355714Y-86576723D01*
X115355714Y-86576723D02*
X115308095Y-86671961D01*
X115308095Y-86671961D02*
X115212857Y-86767200D01*
X115212857Y-86767200D02*
X115070000Y-86814819D01*
X115070000Y-86814819D02*
X114831905Y-86814819D01*
X116355714Y-86814819D02*
X115784286Y-86814819D01*
X116070000Y-86814819D02*
X116070000Y-85814819D01*
X116070000Y-85814819D02*
X115974762Y-85957676D01*
X115974762Y-85957676D02*
X115879524Y-86052914D01*
X115879524Y-86052914D02*
X115784286Y-86100533D01*
X106870667Y-114199200D02*
X107013524Y-114246819D01*
X107013524Y-114246819D02*
X107251619Y-114246819D01*
X107251619Y-114246819D02*
X107346857Y-114199200D01*
X107346857Y-114199200D02*
X107394476Y-114151580D01*
X107394476Y-114151580D02*
X107442095Y-114056342D01*
X107442095Y-114056342D02*
X107442095Y-113961104D01*
X107442095Y-113961104D02*
X107394476Y-113865866D01*
X107394476Y-113865866D02*
X107346857Y-113818247D01*
X107346857Y-113818247D02*
X107251619Y-113770628D01*
X107251619Y-113770628D02*
X107061143Y-113723009D01*
X107061143Y-113723009D02*
X106965905Y-113675390D01*
X106965905Y-113675390D02*
X106918286Y-113627771D01*
X106918286Y-113627771D02*
X106870667Y-113532533D01*
X106870667Y-113532533D02*
X106870667Y-113437295D01*
X106870667Y-113437295D02*
X106918286Y-113342057D01*
X106918286Y-113342057D02*
X106965905Y-113294438D01*
X106965905Y-113294438D02*
X107061143Y-113246819D01*
X107061143Y-113246819D02*
X107299238Y-113246819D01*
X107299238Y-113246819D02*
X107442095Y-113294438D01*
X107775429Y-113246819D02*
X108013524Y-114246819D01*
X108013524Y-114246819D02*
X108204000Y-113532533D01*
X108204000Y-113532533D02*
X108394476Y-114246819D01*
X108394476Y-114246819D02*
X108632572Y-113246819D01*
X108918286Y-113246819D02*
X109537333Y-113246819D01*
X109537333Y-113246819D02*
X109204000Y-113627771D01*
X109204000Y-113627771D02*
X109346857Y-113627771D01*
X109346857Y-113627771D02*
X109442095Y-113675390D01*
X109442095Y-113675390D02*
X109489714Y-113723009D01*
X109489714Y-113723009D02*
X109537333Y-113818247D01*
X109537333Y-113818247D02*
X109537333Y-114056342D01*
X109537333Y-114056342D02*
X109489714Y-114151580D01*
X109489714Y-114151580D02*
X109442095Y-114199200D01*
X109442095Y-114199200D02*
X109346857Y-114246819D01*
X109346857Y-114246819D02*
X109061143Y-114246819D01*
X109061143Y-114246819D02*
X108965905Y-114199200D01*
X108965905Y-114199200D02*
X108918286Y-114151580D01*
X123467905Y-76654819D02*
X123467905Y-75654819D01*
X123467905Y-75654819D02*
X123706000Y-75654819D01*
X123706000Y-75654819D02*
X123848857Y-75702438D01*
X123848857Y-75702438D02*
X123944095Y-75797676D01*
X123944095Y-75797676D02*
X123991714Y-75892914D01*
X123991714Y-75892914D02*
X124039333Y-76083390D01*
X124039333Y-76083390D02*
X124039333Y-76226247D01*
X124039333Y-76226247D02*
X123991714Y-76416723D01*
X123991714Y-76416723D02*
X123944095Y-76511961D01*
X123944095Y-76511961D02*
X123848857Y-76607200D01*
X123848857Y-76607200D02*
X123706000Y-76654819D01*
X123706000Y-76654819D02*
X123467905Y-76654819D01*
X124372667Y-75654819D02*
X125039333Y-75654819D01*
X125039333Y-75654819D02*
X124610762Y-76654819D01*
X110577333Y-102054819D02*
X110244000Y-101578628D01*
X110005905Y-102054819D02*
X110005905Y-101054819D01*
X110005905Y-101054819D02*
X110386857Y-101054819D01*
X110386857Y-101054819D02*
X110482095Y-101102438D01*
X110482095Y-101102438D02*
X110529714Y-101150057D01*
X110529714Y-101150057D02*
X110577333Y-101245295D01*
X110577333Y-101245295D02*
X110577333Y-101388152D01*
X110577333Y-101388152D02*
X110529714Y-101483390D01*
X110529714Y-101483390D02*
X110482095Y-101531009D01*
X110482095Y-101531009D02*
X110386857Y-101578628D01*
X110386857Y-101578628D02*
X110005905Y-101578628D01*
X110910667Y-101054819D02*
X111529714Y-101054819D01*
X111529714Y-101054819D02*
X111196381Y-101435771D01*
X111196381Y-101435771D02*
X111339238Y-101435771D01*
X111339238Y-101435771D02*
X111434476Y-101483390D01*
X111434476Y-101483390D02*
X111482095Y-101531009D01*
X111482095Y-101531009D02*
X111529714Y-101626247D01*
X111529714Y-101626247D02*
X111529714Y-101864342D01*
X111529714Y-101864342D02*
X111482095Y-101959580D01*
X111482095Y-101959580D02*
X111434476Y-102007200D01*
X111434476Y-102007200D02*
X111339238Y-102054819D01*
X111339238Y-102054819D02*
X111053524Y-102054819D01*
X111053524Y-102054819D02*
X110958286Y-102007200D01*
X110958286Y-102007200D02*
X110910667Y-101959580D01*
X118959333Y-90624819D02*
X118626000Y-90148628D01*
X118387905Y-90624819D02*
X118387905Y-89624819D01*
X118387905Y-89624819D02*
X118768857Y-89624819D01*
X118768857Y-89624819D02*
X118864095Y-89672438D01*
X118864095Y-89672438D02*
X118911714Y-89720057D01*
X118911714Y-89720057D02*
X118959333Y-89815295D01*
X118959333Y-89815295D02*
X118959333Y-89958152D01*
X118959333Y-89958152D02*
X118911714Y-90053390D01*
X118911714Y-90053390D02*
X118864095Y-90101009D01*
X118864095Y-90101009D02*
X118768857Y-90148628D01*
X118768857Y-90148628D02*
X118387905Y-90148628D01*
X119816476Y-89958152D02*
X119816476Y-90624819D01*
X119578381Y-89577200D02*
X119340286Y-90291485D01*
X119340286Y-90291485D02*
X119959333Y-90291485D01*
X112863333Y-86814819D02*
X112530000Y-86338628D01*
X112291905Y-86814819D02*
X112291905Y-85814819D01*
X112291905Y-85814819D02*
X112672857Y-85814819D01*
X112672857Y-85814819D02*
X112768095Y-85862438D01*
X112768095Y-85862438D02*
X112815714Y-85910057D01*
X112815714Y-85910057D02*
X112863333Y-86005295D01*
X112863333Y-86005295D02*
X112863333Y-86148152D01*
X112863333Y-86148152D02*
X112815714Y-86243390D01*
X112815714Y-86243390D02*
X112768095Y-86291009D01*
X112768095Y-86291009D02*
X112672857Y-86338628D01*
X112672857Y-86338628D02*
X112291905Y-86338628D01*
X113815714Y-86814819D02*
X113244286Y-86814819D01*
X113530000Y-86814819D02*
X113530000Y-85814819D01*
X113530000Y-85814819D02*
X113434762Y-85957676D01*
X113434762Y-85957676D02*
X113339524Y-86052914D01*
X113339524Y-86052914D02*
X113244286Y-86100533D01*
X119213333Y-102054819D02*
X118880000Y-101578628D01*
X118641905Y-102054819D02*
X118641905Y-101054819D01*
X118641905Y-101054819D02*
X119022857Y-101054819D01*
X119022857Y-101054819D02*
X119118095Y-101102438D01*
X119118095Y-101102438D02*
X119165714Y-101150057D01*
X119165714Y-101150057D02*
X119213333Y-101245295D01*
X119213333Y-101245295D02*
X119213333Y-101388152D01*
X119213333Y-101388152D02*
X119165714Y-101483390D01*
X119165714Y-101483390D02*
X119118095Y-101531009D01*
X119118095Y-101531009D02*
X119022857Y-101578628D01*
X119022857Y-101578628D02*
X118641905Y-101578628D01*
X119594286Y-101150057D02*
X119641905Y-101102438D01*
X119641905Y-101102438D02*
X119737143Y-101054819D01*
X119737143Y-101054819D02*
X119975238Y-101054819D01*
X119975238Y-101054819D02*
X120070476Y-101102438D01*
X120070476Y-101102438D02*
X120118095Y-101150057D01*
X120118095Y-101150057D02*
X120165714Y-101245295D01*
X120165714Y-101245295D02*
X120165714Y-101340533D01*
X120165714Y-101340533D02*
X120118095Y-101483390D01*
X120118095Y-101483390D02*
X119546667Y-102054819D01*
X119546667Y-102054819D02*
X120165714Y-102054819D01*
X118959333Y-95704819D02*
X118626000Y-95228628D01*
X118387905Y-95704819D02*
X118387905Y-94704819D01*
X118387905Y-94704819D02*
X118768857Y-94704819D01*
X118768857Y-94704819D02*
X118864095Y-94752438D01*
X118864095Y-94752438D02*
X118911714Y-94800057D01*
X118911714Y-94800057D02*
X118959333Y-94895295D01*
X118959333Y-94895295D02*
X118959333Y-95038152D01*
X118959333Y-95038152D02*
X118911714Y-95133390D01*
X118911714Y-95133390D02*
X118864095Y-95181009D01*
X118864095Y-95181009D02*
X118768857Y-95228628D01*
X118768857Y-95228628D02*
X118387905Y-95228628D01*
X119864095Y-94704819D02*
X119387905Y-94704819D01*
X119387905Y-94704819D02*
X119340286Y-95181009D01*
X119340286Y-95181009D02*
X119387905Y-95133390D01*
X119387905Y-95133390D02*
X119483143Y-95085771D01*
X119483143Y-95085771D02*
X119721238Y-95085771D01*
X119721238Y-95085771D02*
X119816476Y-95133390D01*
X119816476Y-95133390D02*
X119864095Y-95181009D01*
X119864095Y-95181009D02*
X119911714Y-95276247D01*
X119911714Y-95276247D02*
X119911714Y-95514342D01*
X119911714Y-95514342D02*
X119864095Y-95609580D01*
X119864095Y-95609580D02*
X119816476Y-95657200D01*
X119816476Y-95657200D02*
X119721238Y-95704819D01*
X119721238Y-95704819D02*
X119483143Y-95704819D01*
X119483143Y-95704819D02*
X119387905Y-95657200D01*
X119387905Y-95657200D02*
X119340286Y-95609580D01*
X106870667Y-95149200D02*
X107013524Y-95196819D01*
X107013524Y-95196819D02*
X107251619Y-95196819D01*
X107251619Y-95196819D02*
X107346857Y-95149200D01*
X107346857Y-95149200D02*
X107394476Y-95101580D01*
X107394476Y-95101580D02*
X107442095Y-95006342D01*
X107442095Y-95006342D02*
X107442095Y-94911104D01*
X107442095Y-94911104D02*
X107394476Y-94815866D01*
X107394476Y-94815866D02*
X107346857Y-94768247D01*
X107346857Y-94768247D02*
X107251619Y-94720628D01*
X107251619Y-94720628D02*
X107061143Y-94673009D01*
X107061143Y-94673009D02*
X106965905Y-94625390D01*
X106965905Y-94625390D02*
X106918286Y-94577771D01*
X106918286Y-94577771D02*
X106870667Y-94482533D01*
X106870667Y-94482533D02*
X106870667Y-94387295D01*
X106870667Y-94387295D02*
X106918286Y-94292057D01*
X106918286Y-94292057D02*
X106965905Y-94244438D01*
X106965905Y-94244438D02*
X107061143Y-94196819D01*
X107061143Y-94196819D02*
X107299238Y-94196819D01*
X107299238Y-94196819D02*
X107442095Y-94244438D01*
X107775429Y-94196819D02*
X108013524Y-95196819D01*
X108013524Y-95196819D02*
X108204000Y-94482533D01*
X108204000Y-94482533D02*
X108394476Y-95196819D01*
X108394476Y-95196819D02*
X108632572Y-94196819D01*
X109537333Y-95196819D02*
X108965905Y-95196819D01*
X109251619Y-95196819D02*
X109251619Y-94196819D01*
X109251619Y-94196819D02*
X109156381Y-94339676D01*
X109156381Y-94339676D02*
X109061143Y-94434914D01*
X109061143Y-94434914D02*
X108965905Y-94482533D01*
X110767905Y-76654819D02*
X110767905Y-75654819D01*
X110767905Y-75654819D02*
X111006000Y-75654819D01*
X111006000Y-75654819D02*
X111148857Y-75702438D01*
X111148857Y-75702438D02*
X111244095Y-75797676D01*
X111244095Y-75797676D02*
X111291714Y-75892914D01*
X111291714Y-75892914D02*
X111339333Y-76083390D01*
X111339333Y-76083390D02*
X111339333Y-76226247D01*
X111339333Y-76226247D02*
X111291714Y-76416723D01*
X111291714Y-76416723D02*
X111244095Y-76511961D01*
X111244095Y-76511961D02*
X111148857Y-76607200D01*
X111148857Y-76607200D02*
X111006000Y-76654819D01*
X111006000Y-76654819D02*
X110767905Y-76654819D01*
X112244095Y-75654819D02*
X111767905Y-75654819D01*
X111767905Y-75654819D02*
X111720286Y-76131009D01*
X111720286Y-76131009D02*
X111767905Y-76083390D01*
X111767905Y-76083390D02*
X111863143Y-76035771D01*
X111863143Y-76035771D02*
X112101238Y-76035771D01*
X112101238Y-76035771D02*
X112196476Y-76083390D01*
X112196476Y-76083390D02*
X112244095Y-76131009D01*
X112244095Y-76131009D02*
X112291714Y-76226247D01*
X112291714Y-76226247D02*
X112291714Y-76464342D01*
X112291714Y-76464342D02*
X112244095Y-76559580D01*
X112244095Y-76559580D02*
X112196476Y-76607200D01*
X112196476Y-76607200D02*
X112101238Y-76654819D01*
X112101238Y-76654819D02*
X111863143Y-76654819D01*
X111863143Y-76654819D02*
X111767905Y-76607200D01*
X111767905Y-76607200D02*
X111720286Y-76559580D01*
X118959333Y-93164819D02*
X118626000Y-92688628D01*
X118387905Y-93164819D02*
X118387905Y-92164819D01*
X118387905Y-92164819D02*
X118768857Y-92164819D01*
X118768857Y-92164819D02*
X118864095Y-92212438D01*
X118864095Y-92212438D02*
X118911714Y-92260057D01*
X118911714Y-92260057D02*
X118959333Y-92355295D01*
X118959333Y-92355295D02*
X118959333Y-92498152D01*
X118959333Y-92498152D02*
X118911714Y-92593390D01*
X118911714Y-92593390D02*
X118864095Y-92641009D01*
X118864095Y-92641009D02*
X118768857Y-92688628D01*
X118768857Y-92688628D02*
X118387905Y-92688628D01*
X119816476Y-92164819D02*
X119626000Y-92164819D01*
X119626000Y-92164819D02*
X119530762Y-92212438D01*
X119530762Y-92212438D02*
X119483143Y-92260057D01*
X119483143Y-92260057D02*
X119387905Y-92402914D01*
X119387905Y-92402914D02*
X119340286Y-92593390D01*
X119340286Y-92593390D02*
X119340286Y-92974342D01*
X119340286Y-92974342D02*
X119387905Y-93069580D01*
X119387905Y-93069580D02*
X119435524Y-93117200D01*
X119435524Y-93117200D02*
X119530762Y-93164819D01*
X119530762Y-93164819D02*
X119721238Y-93164819D01*
X119721238Y-93164819D02*
X119816476Y-93117200D01*
X119816476Y-93117200D02*
X119864095Y-93069580D01*
X119864095Y-93069580D02*
X119911714Y-92974342D01*
X119911714Y-92974342D02*
X119911714Y-92736247D01*
X119911714Y-92736247D02*
X119864095Y-92641009D01*
X119864095Y-92641009D02*
X119816476Y-92593390D01*
X119816476Y-92593390D02*
X119721238Y-92545771D01*
X119721238Y-92545771D02*
X119530762Y-92545771D01*
X119530762Y-92545771D02*
X119435524Y-92593390D01*
X119435524Y-92593390D02*
X119387905Y-92641009D01*
X119387905Y-92641009D02*
X119340286Y-92736247D01*
X120586667Y-114199200D02*
X120729524Y-114246819D01*
X120729524Y-114246819D02*
X120967619Y-114246819D01*
X120967619Y-114246819D02*
X121062857Y-114199200D01*
X121062857Y-114199200D02*
X121110476Y-114151580D01*
X121110476Y-114151580D02*
X121158095Y-114056342D01*
X121158095Y-114056342D02*
X121158095Y-113961104D01*
X121158095Y-113961104D02*
X121110476Y-113865866D01*
X121110476Y-113865866D02*
X121062857Y-113818247D01*
X121062857Y-113818247D02*
X120967619Y-113770628D01*
X120967619Y-113770628D02*
X120777143Y-113723009D01*
X120777143Y-113723009D02*
X120681905Y-113675390D01*
X120681905Y-113675390D02*
X120634286Y-113627771D01*
X120634286Y-113627771D02*
X120586667Y-113532533D01*
X120586667Y-113532533D02*
X120586667Y-113437295D01*
X120586667Y-113437295D02*
X120634286Y-113342057D01*
X120634286Y-113342057D02*
X120681905Y-113294438D01*
X120681905Y-113294438D02*
X120777143Y-113246819D01*
X120777143Y-113246819D02*
X121015238Y-113246819D01*
X121015238Y-113246819D02*
X121158095Y-113294438D01*
X121491429Y-113246819D02*
X121729524Y-114246819D01*
X121729524Y-114246819D02*
X121920000Y-113532533D01*
X121920000Y-113532533D02*
X122110476Y-114246819D01*
X122110476Y-114246819D02*
X122348572Y-113246819D01*
X122681905Y-113342057D02*
X122729524Y-113294438D01*
X122729524Y-113294438D02*
X122824762Y-113246819D01*
X122824762Y-113246819D02*
X123062857Y-113246819D01*
X123062857Y-113246819D02*
X123158095Y-113294438D01*
X123158095Y-113294438D02*
X123205714Y-113342057D01*
X123205714Y-113342057D02*
X123253333Y-113437295D01*
X123253333Y-113437295D02*
X123253333Y-113532533D01*
X123253333Y-113532533D02*
X123205714Y-113675390D01*
X123205714Y-113675390D02*
X122634286Y-114246819D01*
X122634286Y-114246819D02*
X123253333Y-114246819D01*
X121181905Y-102054819D02*
X121181905Y-101054819D01*
X121181905Y-101054819D02*
X121420000Y-101054819D01*
X121420000Y-101054819D02*
X121562857Y-101102438D01*
X121562857Y-101102438D02*
X121658095Y-101197676D01*
X121658095Y-101197676D02*
X121705714Y-101292914D01*
X121705714Y-101292914D02*
X121753333Y-101483390D01*
X121753333Y-101483390D02*
X121753333Y-101626247D01*
X121753333Y-101626247D02*
X121705714Y-101816723D01*
X121705714Y-101816723D02*
X121658095Y-101911961D01*
X121658095Y-101911961D02*
X121562857Y-102007200D01*
X121562857Y-102007200D02*
X121420000Y-102054819D01*
X121420000Y-102054819D02*
X121181905Y-102054819D01*
X122134286Y-101150057D02*
X122181905Y-101102438D01*
X122181905Y-101102438D02*
X122277143Y-101054819D01*
X122277143Y-101054819D02*
X122515238Y-101054819D01*
X122515238Y-101054819D02*
X122610476Y-101102438D01*
X122610476Y-101102438D02*
X122658095Y-101150057D01*
X122658095Y-101150057D02*
X122705714Y-101245295D01*
X122705714Y-101245295D02*
X122705714Y-101340533D01*
X122705714Y-101340533D02*
X122658095Y-101483390D01*
X122658095Y-101483390D02*
X122086667Y-102054819D01*
X122086667Y-102054819D02*
X122705714Y-102054819D01*
X126326666Y-104569819D02*
X126326666Y-105284104D01*
X126326666Y-105284104D02*
X126279047Y-105426961D01*
X126279047Y-105426961D02*
X126183809Y-105522200D01*
X126183809Y-105522200D02*
X126040952Y-105569819D01*
X126040952Y-105569819D02*
X125945714Y-105569819D01*
X126755238Y-104665057D02*
X126802857Y-104617438D01*
X126802857Y-104617438D02*
X126898095Y-104569819D01*
X126898095Y-104569819D02*
X127136190Y-104569819D01*
X127136190Y-104569819D02*
X127231428Y-104617438D01*
X127231428Y-104617438D02*
X127279047Y-104665057D01*
X127279047Y-104665057D02*
X127326666Y-104760295D01*
X127326666Y-104760295D02*
X127326666Y-104855533D01*
X127326666Y-104855533D02*
X127279047Y-104998390D01*
X127279047Y-104998390D02*
X126707619Y-105569819D01*
X126707619Y-105569819D02*
X127326666Y-105569819D01*
X104417905Y-76654819D02*
X104417905Y-75654819D01*
X104417905Y-75654819D02*
X104656000Y-75654819D01*
X104656000Y-75654819D02*
X104798857Y-75702438D01*
X104798857Y-75702438D02*
X104894095Y-75797676D01*
X104894095Y-75797676D02*
X104941714Y-75892914D01*
X104941714Y-75892914D02*
X104989333Y-76083390D01*
X104989333Y-76083390D02*
X104989333Y-76226247D01*
X104989333Y-76226247D02*
X104941714Y-76416723D01*
X104941714Y-76416723D02*
X104894095Y-76511961D01*
X104894095Y-76511961D02*
X104798857Y-76607200D01*
X104798857Y-76607200D02*
X104656000Y-76654819D01*
X104656000Y-76654819D02*
X104417905Y-76654819D01*
X105846476Y-75988152D02*
X105846476Y-76654819D01*
X105608381Y-75607200D02*
X105370286Y-76321485D01*
X105370286Y-76321485D02*
X105989333Y-76321485D01*
X107465905Y-102054819D02*
X107465905Y-101054819D01*
X107465905Y-101054819D02*
X107704000Y-101054819D01*
X107704000Y-101054819D02*
X107846857Y-101102438D01*
X107846857Y-101102438D02*
X107942095Y-101197676D01*
X107942095Y-101197676D02*
X107989714Y-101292914D01*
X107989714Y-101292914D02*
X108037333Y-101483390D01*
X108037333Y-101483390D02*
X108037333Y-101626247D01*
X108037333Y-101626247D02*
X107989714Y-101816723D01*
X107989714Y-101816723D02*
X107942095Y-101911961D01*
X107942095Y-101911961D02*
X107846857Y-102007200D01*
X107846857Y-102007200D02*
X107704000Y-102054819D01*
X107704000Y-102054819D02*
X107465905Y-102054819D01*
X108370667Y-101054819D02*
X108989714Y-101054819D01*
X108989714Y-101054819D02*
X108656381Y-101435771D01*
X108656381Y-101435771D02*
X108799238Y-101435771D01*
X108799238Y-101435771D02*
X108894476Y-101483390D01*
X108894476Y-101483390D02*
X108942095Y-101531009D01*
X108942095Y-101531009D02*
X108989714Y-101626247D01*
X108989714Y-101626247D02*
X108989714Y-101864342D01*
X108989714Y-101864342D02*
X108942095Y-101959580D01*
X108942095Y-101959580D02*
X108894476Y-102007200D01*
X108894476Y-102007200D02*
X108799238Y-102054819D01*
X108799238Y-102054819D02*
X108513524Y-102054819D01*
X108513524Y-102054819D02*
X108418286Y-102007200D01*
X108418286Y-102007200D02*
X108370667Y-101959580D01*
D12*
%TO.C,D6*%
X118816000Y-80425000D02*
X118816000Y-77740000D01*
X116896000Y-80425000D02*
X118816000Y-80425000D01*
X116896000Y-77740000D02*
X116896000Y-80425000D01*
%TO.C,D1*%
X114610000Y-87215000D02*
X114610000Y-89900000D01*
X116530000Y-87215000D02*
X114610000Y-87215000D01*
X116530000Y-89900000D02*
X116530000Y-87215000D01*
%TO.C,SW3*%
X106354000Y-104890000D02*
X110054000Y-104890000D01*
X106354000Y-111010000D02*
X106354000Y-104890000D01*
X110054000Y-104890000D02*
X110054000Y-111010000D01*
X110054000Y-111010000D02*
X106354000Y-111010000D01*
%TO.C,D7*%
X125166000Y-79740000D02*
X125166000Y-77055000D01*
X125166000Y-77055000D02*
X123246000Y-77055000D01*
X123246000Y-77055000D02*
X123246000Y-79740000D01*
%TO.C,R3*%
X110009000Y-99287064D02*
X110009000Y-98832936D01*
X111479000Y-99287064D02*
X111479000Y-98832936D01*
%TO.C,R4*%
X121692936Y-89435000D02*
X122147064Y-89435000D01*
X121692936Y-90905000D02*
X122147064Y-90905000D01*
%TO.C,R1*%
X112295000Y-89127064D02*
X112295000Y-88672936D01*
X113765000Y-89127064D02*
X113765000Y-88672936D01*
%TO.C,R2*%
X118645000Y-99287064D02*
X118645000Y-98832936D01*
X120115000Y-99287064D02*
X120115000Y-98832936D01*
%TO.C,R5*%
X122147064Y-94515000D02*
X121692936Y-94515000D01*
X122147064Y-95985000D02*
X121692936Y-95985000D01*
%TO.C,SW1*%
X106354000Y-85840000D02*
X110054000Y-85840000D01*
X106354000Y-91960000D02*
X106354000Y-85840000D01*
X110054000Y-85840000D02*
X110054000Y-91960000D01*
X110054000Y-91960000D02*
X106354000Y-91960000D01*
%TO.C,D5*%
X112466000Y-79740000D02*
X112466000Y-77055000D01*
X112466000Y-77055000D02*
X110546000Y-77055000D01*
X110546000Y-77055000D02*
X110546000Y-79740000D01*
%TO.C,R6*%
X121692936Y-91975000D02*
X122147064Y-91975000D01*
X121692936Y-93445000D02*
X122147064Y-93445000D01*
%TO.C,SW2*%
X120070000Y-104890000D02*
X123770000Y-104890000D01*
X120070000Y-111010000D02*
X120070000Y-104890000D01*
X123770000Y-104890000D02*
X123770000Y-111010000D01*
X123770000Y-111010000D02*
X120070000Y-111010000D01*
%TO.C,D2*%
X120960000Y-98060000D02*
X120960000Y-100745000D01*
X120960000Y-100745000D02*
X122880000Y-100745000D01*
X122880000Y-100745000D02*
X122880000Y-98060000D01*
%TO.C,J2*%
X125330000Y-101290000D02*
X125330000Y-83450000D01*
X127990000Y-83450000D02*
X125330000Y-83450000D01*
X127990000Y-101290000D02*
X125330000Y-101290000D01*
X127990000Y-101290000D02*
X127990000Y-83450000D01*
X127990000Y-102560000D02*
X127990000Y-103890000D01*
X127990000Y-103890000D02*
X126660000Y-103890000D01*
%TO.C,D4*%
X106116000Y-80425000D02*
X106116000Y-77740000D01*
X104196000Y-80425000D02*
X106116000Y-80425000D01*
X104196000Y-77740000D02*
X104196000Y-80425000D01*
%TO.C,D3*%
X107244000Y-98060000D02*
X107244000Y-100745000D01*
X107244000Y-100745000D02*
X109164000Y-100745000D01*
X109164000Y-100745000D02*
X109164000Y-98060000D01*
%TD*%
M02*
