M48
; DRILL file {KiCad 8.0.1} date 2024-04-28T14:25:24+0200
; FORMAT={-:-/ absolute / inch / decimal}
; #@! TF.CreationDate,2024-04-28T14:25:24+02:00
; #@! TF.GenerationSoftware,Kicad,Pcbnew,8.0.1
; #@! TF.FileFunction,Plated,1,2,PTH
FMAT,2
INCH
; #@! TA.AperFunction,Plated,PTH,ViaDrill
T1C0.0157
; #@! TA.AperFunction,Plated,PTH,ComponentDrill
T2C0.0394
%
G90
G05
T1
X4.03Y-4.24
X4.04Y-3.77
X4.05Y-3.26
X4.4959Y-3.3465
X4.54Y-4.07
X4.54Y-4.37
X4.56Y-3.2
X4.6Y-3.6
X4.61Y-3.78
X4.78Y-3.24
X5.04Y-4.35
X5.07Y-3.08
T2
X4.9866Y-3.3378
X4.9866Y-3.4378
X4.9866Y-3.5378
X4.9866Y-3.6378
X4.9866Y-3.7378
X4.9866Y-3.8378
X4.9866Y-3.9378
X4.9866Y-4.0378
M30
