%TF.GenerationSoftware,KiCad,Pcbnew,8.0.1*%
%TF.CreationDate,2024-04-28T14:25:19+02:00*%
%TF.ProjectId,top_led_btn_2MU_TOP,746f705f-6c65-4645-9f62-746e5f324d55,rev?*%
%TF.SameCoordinates,Original*%
%TF.FileFunction,Copper,L2,Bot*%
%TF.FilePolarity,Positive*%
%FSLAX46Y46*%
G04 Gerber Fmt 4.6, Leading zero omitted, Abs format (unit mm)*
G04 Created by KiCad (PCBNEW 8.0.1) date 2024-04-28 14:25:19*
%MOMM*%
%LPD*%
G01*
G04 APERTURE LIST*
%TA.AperFunction,ComponentPad*%
%ADD10R,1.700000X1.700000*%
%TD*%
%TA.AperFunction,ComponentPad*%
%ADD11O,1.700000X1.700000*%
%TD*%
%TA.AperFunction,ViaPad*%
%ADD12C,0.800000*%
%TD*%
%TA.AperFunction,Conductor*%
%ADD13C,0.400000*%
%TD*%
G04 APERTURE END LIST*
D10*
%TO.P,J2,1,Pin_1*%
%TO.N,Net-(D3-K)*%
X126660000Y-102560000D03*
D11*
%TO.P,J2,2,Pin_2*%
%TO.N,Net-(D2-K)*%
X126660000Y-100020000D03*
%TO.P,J2,3,Pin_3*%
%TO.N,Net-(J2-Pin_3)*%
X126660000Y-97480000D03*
%TO.P,J2,4,Pin_4*%
%TO.N,Net-(J2-Pin_4)*%
X126660000Y-94940000D03*
%TO.P,J2,5,Pin_5*%
%TO.N,GND*%
X126660000Y-92400000D03*
%TO.P,J2,6,Pin_6*%
%TO.N,Net-(J2-Pin_6)*%
X126660000Y-89860000D03*
%TO.P,J2,7,Pin_7*%
%TO.N,+3V3*%
X126660000Y-87320000D03*
%TO.P,J2,8,Pin_8*%
%TO.N,Net-(D1-K)*%
X126660000Y-84780000D03*
%TD*%
D12*
%TO.N,GND*%
X128778000Y-78232000D03*
X128016000Y-110490000D03*
X115316000Y-110998000D03*
X102870000Y-82804000D03*
X102616000Y-95758000D03*
X102362000Y-107696000D03*
X117094000Y-96012000D03*
X115824000Y-81280000D03*
X121412000Y-82296000D03*
X115316000Y-103378000D03*
%TO.N,Net-(D1-K)*%
X114195000Y-85000000D03*
%TO.N,+3V3*%
X116840000Y-91440000D03*
%TD*%
D13*
%TO.N,+3V3*%
X116840000Y-91440000D02*
X116840000Y-88900000D01*
X116840000Y-88900000D02*
X118420000Y-87320000D01*
X118420000Y-87320000D02*
X126660000Y-87320000D01*
%TO.N,Net-(D1-K)*%
X114195000Y-85000000D02*
X114415000Y-84780000D01*
X114415000Y-84780000D02*
X126660000Y-84780000D01*
%TD*%
%TA.AperFunction,Conductor*%
%TO.N,GND*%
G36*
X130502539Y-74180185D02*
G01*
X130548294Y-74232989D01*
X130559500Y-74284500D01*
X130559500Y-115035500D01*
X130539815Y-115102539D01*
X130487011Y-115148294D01*
X130435500Y-115159500D01*
X99684500Y-115159500D01*
X99617461Y-115139815D01*
X99571706Y-115087011D01*
X99560500Y-115035500D01*
X99560500Y-85000000D01*
X113289540Y-85000000D01*
X113309326Y-85188256D01*
X113309327Y-85188259D01*
X113367818Y-85368277D01*
X113367821Y-85368284D01*
X113462467Y-85532216D01*
X113569777Y-85651395D01*
X113589129Y-85672888D01*
X113742265Y-85784148D01*
X113742270Y-85784151D01*
X113915192Y-85861142D01*
X113915197Y-85861144D01*
X114100354Y-85900500D01*
X114100355Y-85900500D01*
X114289644Y-85900500D01*
X114289646Y-85900500D01*
X114474803Y-85861144D01*
X114647730Y-85784151D01*
X114800871Y-85672888D01*
X114927533Y-85532216D01*
X114927536Y-85532209D01*
X114927971Y-85531613D01*
X114928314Y-85531348D01*
X114931881Y-85527387D01*
X114932605Y-85528039D01*
X114983302Y-85488948D01*
X115028288Y-85480500D01*
X125437289Y-85480500D01*
X125504328Y-85500185D01*
X125538864Y-85533377D01*
X125621505Y-85651402D01*
X125788597Y-85818493D01*
X125788603Y-85818498D01*
X125974158Y-85948425D01*
X126017783Y-86003002D01*
X126024977Y-86072500D01*
X125993454Y-86134855D01*
X125974158Y-86151575D01*
X125788597Y-86281505D01*
X125621506Y-86448596D01*
X125538864Y-86566623D01*
X125484287Y-86610248D01*
X125437289Y-86619500D01*
X118351003Y-86619500D01*
X118242590Y-86641065D01*
X118242589Y-86641065D01*
X118229131Y-86643742D01*
X118215673Y-86646419D01*
X118162866Y-86668291D01*
X118162866Y-86668292D01*
X118115774Y-86687798D01*
X118088186Y-86699226D01*
X118078034Y-86706010D01*
X118077923Y-86706084D01*
X117973457Y-86775886D01*
X117973453Y-86775889D01*
X116295890Y-88453451D01*
X116295887Y-88453454D01*
X116268773Y-88494035D01*
X116219223Y-88568191D01*
X116166421Y-88695667D01*
X116166418Y-88695677D01*
X116139500Y-88831004D01*
X116139500Y-90824608D01*
X116119815Y-90891647D01*
X116107656Y-90907574D01*
X116107468Y-90907782D01*
X116107464Y-90907787D01*
X116012821Y-91071715D01*
X116012818Y-91071722D01*
X115960780Y-91231880D01*
X115954326Y-91251744D01*
X115934540Y-91440000D01*
X115954326Y-91628256D01*
X115954327Y-91628259D01*
X116012818Y-91808277D01*
X116012821Y-91808284D01*
X116107467Y-91972216D01*
X116234129Y-92112888D01*
X116387265Y-92224148D01*
X116387270Y-92224151D01*
X116560192Y-92301142D01*
X116560197Y-92301144D01*
X116745354Y-92340500D01*
X116745355Y-92340500D01*
X116934644Y-92340500D01*
X116934646Y-92340500D01*
X117119803Y-92301144D01*
X117292730Y-92224151D01*
X117445871Y-92112888D01*
X117572533Y-91972216D01*
X117667179Y-91808284D01*
X117725674Y-91628256D01*
X117745460Y-91440000D01*
X117725674Y-91251744D01*
X117667179Y-91071716D01*
X117572533Y-90907784D01*
X117572344Y-90907574D01*
X117572273Y-90907427D01*
X117568714Y-90902528D01*
X117569610Y-90901876D01*
X117542119Y-90844580D01*
X117540500Y-90824608D01*
X117540500Y-89241518D01*
X117560185Y-89174479D01*
X117576819Y-89153837D01*
X118673837Y-88056819D01*
X118735160Y-88023334D01*
X118761518Y-88020500D01*
X125437289Y-88020500D01*
X125504328Y-88040185D01*
X125538864Y-88073377D01*
X125621505Y-88191402D01*
X125788597Y-88358493D01*
X125788603Y-88358498D01*
X125974158Y-88488425D01*
X126017783Y-88543002D01*
X126024977Y-88612500D01*
X125993454Y-88674855D01*
X125974158Y-88691575D01*
X125788597Y-88821505D01*
X125621505Y-88988597D01*
X125485965Y-89182169D01*
X125485964Y-89182171D01*
X125386098Y-89396335D01*
X125386094Y-89396344D01*
X125324938Y-89624586D01*
X125324936Y-89624596D01*
X125304341Y-89859999D01*
X125304341Y-89860000D01*
X125324936Y-90095403D01*
X125324938Y-90095413D01*
X125386094Y-90323655D01*
X125386096Y-90323659D01*
X125386097Y-90323663D01*
X125485965Y-90537830D01*
X125485967Y-90537834D01*
X125621501Y-90731395D01*
X125621506Y-90731402D01*
X125788597Y-90898493D01*
X125788603Y-90898498D01*
X125974594Y-91028730D01*
X126018219Y-91083307D01*
X126025413Y-91152805D01*
X125993890Y-91215160D01*
X125974595Y-91231880D01*
X125788922Y-91361890D01*
X125788920Y-91361891D01*
X125621891Y-91528920D01*
X125621886Y-91528926D01*
X125486400Y-91722420D01*
X125486399Y-91722422D01*
X125386570Y-91936507D01*
X125386567Y-91936513D01*
X125329364Y-92149999D01*
X125329364Y-92150000D01*
X126226988Y-92150000D01*
X126194075Y-92207007D01*
X126160000Y-92334174D01*
X126160000Y-92465826D01*
X126194075Y-92592993D01*
X126226988Y-92650000D01*
X125329364Y-92650000D01*
X125386567Y-92863486D01*
X125386570Y-92863492D01*
X125486399Y-93077578D01*
X125621894Y-93271082D01*
X125788917Y-93438105D01*
X125974595Y-93568119D01*
X126018219Y-93622696D01*
X126025412Y-93692195D01*
X125993890Y-93754549D01*
X125974595Y-93771269D01*
X125788594Y-93901508D01*
X125621505Y-94068597D01*
X125485965Y-94262169D01*
X125485964Y-94262171D01*
X125386098Y-94476335D01*
X125386094Y-94476344D01*
X125324938Y-94704586D01*
X125324936Y-94704596D01*
X125304341Y-94939999D01*
X125304341Y-94940000D01*
X125324936Y-95175403D01*
X125324938Y-95175413D01*
X125386094Y-95403655D01*
X125386096Y-95403659D01*
X125386097Y-95403663D01*
X125485965Y-95617830D01*
X125485967Y-95617834D01*
X125621501Y-95811395D01*
X125621506Y-95811402D01*
X125788597Y-95978493D01*
X125788603Y-95978498D01*
X125974158Y-96108425D01*
X126017783Y-96163002D01*
X126024977Y-96232500D01*
X125993454Y-96294855D01*
X125974158Y-96311575D01*
X125788597Y-96441505D01*
X125621505Y-96608597D01*
X125485965Y-96802169D01*
X125485964Y-96802171D01*
X125386098Y-97016335D01*
X125386094Y-97016344D01*
X125324938Y-97244586D01*
X125324936Y-97244596D01*
X125304341Y-97479999D01*
X125304341Y-97480000D01*
X125324936Y-97715403D01*
X125324938Y-97715413D01*
X125386094Y-97943655D01*
X125386096Y-97943659D01*
X125386097Y-97943663D01*
X125485965Y-98157830D01*
X125485967Y-98157834D01*
X125621501Y-98351395D01*
X125621506Y-98351402D01*
X125788597Y-98518493D01*
X125788603Y-98518498D01*
X125974158Y-98648425D01*
X126017783Y-98703002D01*
X126024977Y-98772500D01*
X125993454Y-98834855D01*
X125974158Y-98851575D01*
X125788597Y-98981505D01*
X125621505Y-99148597D01*
X125485965Y-99342169D01*
X125485964Y-99342171D01*
X125386098Y-99556335D01*
X125386094Y-99556344D01*
X125324938Y-99784586D01*
X125324936Y-99784596D01*
X125304341Y-100019999D01*
X125304341Y-100020000D01*
X125324936Y-100255403D01*
X125324938Y-100255413D01*
X125386094Y-100483655D01*
X125386096Y-100483659D01*
X125386097Y-100483663D01*
X125485965Y-100697830D01*
X125485967Y-100697834D01*
X125594281Y-100852521D01*
X125621501Y-100891396D01*
X125621506Y-100891402D01*
X125743430Y-101013326D01*
X125776915Y-101074649D01*
X125771931Y-101144341D01*
X125730059Y-101200274D01*
X125699083Y-101217189D01*
X125567669Y-101266203D01*
X125567664Y-101266206D01*
X125452455Y-101352452D01*
X125452452Y-101352455D01*
X125366206Y-101467664D01*
X125366202Y-101467671D01*
X125315908Y-101602517D01*
X125309501Y-101662116D01*
X125309501Y-101662123D01*
X125309500Y-101662135D01*
X125309500Y-103457870D01*
X125309501Y-103457876D01*
X125315908Y-103517483D01*
X125366202Y-103652328D01*
X125366206Y-103652335D01*
X125452452Y-103767544D01*
X125452455Y-103767547D01*
X125567664Y-103853793D01*
X125567671Y-103853797D01*
X125702517Y-103904091D01*
X125702516Y-103904091D01*
X125709444Y-103904835D01*
X125762127Y-103910500D01*
X127557872Y-103910499D01*
X127617483Y-103904091D01*
X127752331Y-103853796D01*
X127867546Y-103767546D01*
X127953796Y-103652331D01*
X128004091Y-103517483D01*
X128010500Y-103457873D01*
X128010499Y-101662128D01*
X128004091Y-101602517D01*
X127953796Y-101467669D01*
X127953795Y-101467668D01*
X127953793Y-101467664D01*
X127867547Y-101352455D01*
X127867544Y-101352452D01*
X127752335Y-101266206D01*
X127752328Y-101266202D01*
X127620917Y-101217189D01*
X127564983Y-101175318D01*
X127540566Y-101109853D01*
X127555418Y-101041580D01*
X127576563Y-101013332D01*
X127698495Y-100891401D01*
X127834035Y-100697830D01*
X127933903Y-100483663D01*
X127995063Y-100255408D01*
X128015659Y-100020000D01*
X127995063Y-99784592D01*
X127933903Y-99556337D01*
X127834035Y-99342171D01*
X127698495Y-99148599D01*
X127698494Y-99148597D01*
X127531402Y-98981506D01*
X127531396Y-98981501D01*
X127345842Y-98851575D01*
X127302217Y-98796998D01*
X127295023Y-98727500D01*
X127326546Y-98665145D01*
X127345842Y-98648425D01*
X127368026Y-98632891D01*
X127531401Y-98518495D01*
X127698495Y-98351401D01*
X127834035Y-98157830D01*
X127933903Y-97943663D01*
X127995063Y-97715408D01*
X128015659Y-97480000D01*
X127995063Y-97244592D01*
X127933903Y-97016337D01*
X127834035Y-96802171D01*
X127698495Y-96608599D01*
X127698494Y-96608597D01*
X127531402Y-96441506D01*
X127531396Y-96441501D01*
X127345842Y-96311575D01*
X127302217Y-96256998D01*
X127295023Y-96187500D01*
X127326546Y-96125145D01*
X127345842Y-96108425D01*
X127368026Y-96092891D01*
X127531401Y-95978495D01*
X127698495Y-95811401D01*
X127834035Y-95617830D01*
X127933903Y-95403663D01*
X127995063Y-95175408D01*
X128015659Y-94940000D01*
X127995063Y-94704592D01*
X127933903Y-94476337D01*
X127834035Y-94262171D01*
X127698495Y-94068599D01*
X127698494Y-94068597D01*
X127531402Y-93901506D01*
X127531401Y-93901505D01*
X127345405Y-93771269D01*
X127301781Y-93716692D01*
X127294588Y-93647193D01*
X127326110Y-93584839D01*
X127345405Y-93568119D01*
X127531082Y-93438105D01*
X127698105Y-93271082D01*
X127833600Y-93077578D01*
X127933429Y-92863492D01*
X127933432Y-92863486D01*
X127990636Y-92650000D01*
X127093012Y-92650000D01*
X127125925Y-92592993D01*
X127160000Y-92465826D01*
X127160000Y-92334174D01*
X127125925Y-92207007D01*
X127093012Y-92150000D01*
X127990636Y-92150000D01*
X127990635Y-92149999D01*
X127933432Y-91936513D01*
X127933429Y-91936507D01*
X127833600Y-91722422D01*
X127833599Y-91722420D01*
X127698113Y-91528926D01*
X127698108Y-91528920D01*
X127531078Y-91361890D01*
X127345405Y-91231879D01*
X127301780Y-91177302D01*
X127294588Y-91107804D01*
X127326110Y-91045449D01*
X127345406Y-91028730D01*
X127531401Y-90898495D01*
X127698495Y-90731401D01*
X127834035Y-90537830D01*
X127933903Y-90323663D01*
X127995063Y-90095408D01*
X128015659Y-89860000D01*
X127995063Y-89624592D01*
X127933903Y-89396337D01*
X127834035Y-89182171D01*
X127814196Y-89153837D01*
X127698494Y-88988597D01*
X127531402Y-88821506D01*
X127531396Y-88821501D01*
X127345842Y-88691575D01*
X127302217Y-88636998D01*
X127295023Y-88567500D01*
X127326546Y-88505145D01*
X127345842Y-88488425D01*
X127395781Y-88453457D01*
X127531401Y-88358495D01*
X127698495Y-88191401D01*
X127834035Y-87997830D01*
X127933903Y-87783663D01*
X127995063Y-87555408D01*
X128015659Y-87320000D01*
X127995063Y-87084592D01*
X127933903Y-86856337D01*
X127834035Y-86642171D01*
X127833262Y-86641066D01*
X127698494Y-86448597D01*
X127531402Y-86281506D01*
X127531396Y-86281501D01*
X127345842Y-86151575D01*
X127302217Y-86096998D01*
X127295023Y-86027500D01*
X127326546Y-85965145D01*
X127345842Y-85948425D01*
X127470492Y-85861144D01*
X127531401Y-85818495D01*
X127698495Y-85651401D01*
X127834035Y-85457830D01*
X127933903Y-85243663D01*
X127995063Y-85015408D01*
X128015659Y-84780000D01*
X127995063Y-84544592D01*
X127933903Y-84316337D01*
X127834035Y-84102171D01*
X127830497Y-84097117D01*
X127698494Y-83908597D01*
X127531402Y-83741506D01*
X127531395Y-83741501D01*
X127337834Y-83605967D01*
X127337830Y-83605965D01*
X127337828Y-83605964D01*
X127123663Y-83506097D01*
X127123659Y-83506096D01*
X127123655Y-83506094D01*
X126895413Y-83444938D01*
X126895403Y-83444936D01*
X126660001Y-83424341D01*
X126659999Y-83424341D01*
X126424596Y-83444936D01*
X126424586Y-83444938D01*
X126196344Y-83506094D01*
X126196335Y-83506098D01*
X125982171Y-83605964D01*
X125982169Y-83605965D01*
X125788597Y-83741505D01*
X125621506Y-83908596D01*
X125538864Y-84026623D01*
X125484287Y-84070248D01*
X125437289Y-84079500D01*
X114346004Y-84079500D01*
X114257441Y-84097117D01*
X114233249Y-84099500D01*
X114100354Y-84099500D01*
X114087788Y-84102171D01*
X113915197Y-84138855D01*
X113915192Y-84138857D01*
X113742270Y-84215848D01*
X113742265Y-84215851D01*
X113589129Y-84327111D01*
X113462466Y-84467785D01*
X113367821Y-84631715D01*
X113367818Y-84631722D01*
X113319640Y-84780000D01*
X113309326Y-84811744D01*
X113289540Y-85000000D01*
X99560500Y-85000000D01*
X99560500Y-74284500D01*
X99580185Y-74217461D01*
X99632989Y-74171706D01*
X99684500Y-74160500D01*
X130435500Y-74160500D01*
X130502539Y-74180185D01*
G37*
%TD.AperFunction*%
%TD*%
M02*
